<?xml version="1.0" encoding="UTF-8" standalone="no"?>
<svg
   xmlns:dc="http://purl.org/dc/elements/1.1/"
   xmlns:cc="http://creativecommons.org/ns#"
   xmlns:rdf="http://www.w3.org/1999/02/22-rdf-syntax-ns#"
   xmlns:svg="http://www.w3.org/2000/svg"
   xmlns="http://www.w3.org/2000/svg"
   xmlns:xlink="http://www.w3.org/1999/xlink"
   xmlns:sodipodi="http://sodipodi.sourceforge.net/DTD/sodipodi-0.dtd"
   xmlns:inkscape="http://www.inkscape.org/namespaces/inkscape"
   width="400"
   height="300"
   viewBox="0 0 105.83334 79.375005"
   version="1.1"
   id="svg952"
   inkscape:version="1.0.2 (e86c870879, 2021-01-15)"
   sodipodi:docname="banner.svg">
  <defs
     id="defs946">
    <linearGradient
       inkscape:collect="always"
       id="linearGradient1761">
      <stop
         style="stop-color:#ffffff;stop-opacity:0.99738669"
         offset="0"
         id="stop1765" />
      <stop
         style="stop-color:#db8e00;stop-opacity:0;"
         offset="1"
         id="stop1767" />
    </linearGradient>
    <rect
       x="150.25812"
       y="141.84801"
       width="58.539791"
       height="28.168673"
       id="rect861" />
    <rect
       x="63.911766"
       y="253.59293"
       width="133.07562"
       height="32.357372"
       id="rect5059" />
    <rect
       x="63.768539"
       y="90.97361"
       width="102.59476"
       height="75.930298"
       id="rect1553" />
    <rect
       x="36.332966"
       y="86.086327"
       width="108.56127"
       height="129.21553"
       id="rect1547" />
    <rect
       x="37.265877"
       y="99.138695"
       width="104.75438"
       height="26.873564"
       id="rect1541" />
    <rect
       x="36.844879"
       y="96.043076"
       width="273.35172"
       height="153.82468"
       id="rect1517" />
    <filter
       style="color-interpolation-filters:sRGB"
       inkscape:label="Feather"
       id="filter1599"
       x="-0.58364236"
       y="-0.13983202"
       width="2.2290349"
       height="1.1333871">
      <feGaussianBlur
         stdDeviation="0.5"
         result="blur"
         id="feGaussianBlur1591" />
      <feComposite
         in="SourceGraphic"
         in2="blur"
         operator="atop"
         result="composite1"
         id="feComposite1593" />
      <feComposite
         in2="composite1"
         operator="in"
         result="composite2"
         id="feComposite1595" />
      <feComposite
         in2="composite2"
         operator="in"
         result="composite3"
         id="feComposite1597" />
    </filter>
    <radialGradient
       inkscape:collect="always"
       xlink:href="#linearGradient1761"
       id="radialGradient1763"
       cx="67.288666"
       cy="117.13188"
       fx="67.288666"
       fy="117.13188"
       r="29.077202"
       gradientUnits="userSpaceOnUse"
       gradientTransform="matrix(0.91264508,0,0,0.91264508,-0.79245041,-0.98545153)" />
  </defs>
  <sodipodi:namedview
     id="base"
     pagecolor="#ffffff"
     bordercolor="#666666"
     borderopacity="1.0"
     inkscape:pageopacity="0.0"
     inkscape:pageshadow="2"
     inkscape:zoom="0.91040713"
     inkscape:cx="190.50147"
     inkscape:cy="140.03861"
     inkscape:document-units="mm"
     inkscape:current-layer="layer1"
     inkscape:document-rotation="0"
     showgrid="false"
     fit-margin-top="0"
     fit-margin-left="0"
     fit-margin-right="0"
     fit-margin-bottom="0"
     units="px"
     inkscape:window-width="1920"
     inkscape:window-height="1176"
     inkscape:window-x="0"
     inkscape:window-y="0"
     inkscape:window-maximized="1"
     showguides="true"
     inkscape:guide-bbox="true" />
  <metadata
     id="metadata949">
    <rdf:RDF>
      <cc:Work
         rdf:about="">
        <dc:format>image/svg+xml</dc:format>
        <dc:type
           rdf:resource="http://purl.org/dc/dcmitype/StillImage" />
        <dc:title></dc:title>
      </cc:Work>
    </rdf:RDF>
  </metadata>
  <g
     inkscape:label="Layer 1"
     inkscape:groupmode="layer"
     id="layer1"
     transform="translate(0.05822718,-72.521118)"
     style="display:inline">
    <circle
       style="fill:#ffffff;fill-opacity:1;stroke-width:0.830324;stroke-dashoffset:7.35"
       id="path864"
       cx="52.815136"
       cy="112.85633"
       r="35.849339" />
    <path
       d="M 53.065072,76.663543 A 36.326481,36.327051 0 0 0 16.738021,112.99059 36.326481,36.327051 0 0 0 53.065072,149.31708 36.326481,36.327051 0 0 0 89.391554,112.99059 36.326481,36.327051 0 0 0 53.065072,76.663543 Z m -19.785473,16.308973 10.81032,0.03766 10.139307,14.165374 5.628583,-7.455258 -3.764798,-0.44723 v -6.299651 h 18.227947 v 6.560761 L 70.6679,100.16796 60.305113,112.879 l 10.922059,13.30795 3.802426,0.59656 v 6.5237 H 64.405703 L 53.5207,118.73192 l -5.889749,7.90279 3.243096,0.40999 v 6.2626 H 32.906638 v -6.5237 l 3.765197,-0.59656 10.885003,-13.12152 -10.512155,-12.89748 -3.765197,-0.633778 z"
       fill="#ffb200"
       stroke="#000000"
       stroke-dasharray="0, 3.52438"
       stroke-linejoin="bevel"
       stroke-miterlimit="4.1"
       stroke-opacity="0.25297"
       stroke-width="0.320399"
       id="path1690" />
    <g
       aria-label=" since #744,380"
       transform="matrix(0.92850606,0,0,0.92850606,-68.644355,-99.222526)"
       id="text5057"
       style="font-style:normal;font-weight:normal;font-size:3.52778px;line-height:3.79236px;font-family:sans-serif;white-space:pre;shape-inside:url(#rect5059);fill:#ffffff;fill-opacity:1;stroke:none">
      <path
         d="m 128.0345,258.91243 v 0.23978 q -0.10749,-0.0551 -0.22325,-0.0827 -0.11575,-0.0276 -0.23977,-0.0276 -0.1888,0 -0.28388,0.0579 -0.0937,0.0579 -0.0937,0.17363 0,0.0882 0.0675,0.13919 0.0675,0.0496 0.27147,0.0951 l 0.0868,0.0193 q 0.27009,0.0579 0.38309,0.16399 0.11438,0.10473 0.11438,0.29352 0,0.21498 -0.17088,0.34038 -0.1695,0.1254 -0.46715,0.1254 -0.12403,0 -0.25907,-0.0248 -0.13367,-0.0234 -0.2825,-0.0716 v -0.26183 q 0.14056,0.073 0.27698,0.11024 0.13643,0.0358 0.2701,0.0358 0.17914,0 0.27561,-0.0606 0.0965,-0.062 0.0965,-0.17364 0,-0.10335 -0.0703,-0.15847 -0.0689,-0.0551 -0.30455,-0.10611 l -0.0882,-0.0207 q -0.23565,-0.0496 -0.34038,-0.15158 -0.10473,-0.10336 -0.10473,-0.2825 0,-0.21773 0.15434,-0.33624 0.15434,-0.11851 0.43822,-0.11851 0.14056,0 0.26458,0.0207 0.12403,0.0207 0.22876,0.062 z"
         style="font-size:2.82222px;fill:#ffffff;fill-opacity:1"
         id="path865" />
      <path
         d="m 128.52094,258.86695 h 0.25356 v 1.54341 h -0.25356 z m 0,-0.60082 h 0.25356 v 0.32108 h -0.25356 z"
         style="font-size:2.82222px;fill:#ffffff;fill-opacity:1"
         id="path867" />
      <path
         d="m 130.588,259.4788 v 0.93156 h -0.25356 v -0.92329 q 0,-0.21911 -0.0854,-0.32797 -0.0854,-0.10887 -0.25631,-0.10887 -0.20533,0 -0.32384,0.13092 -0.11851,0.13091 -0.11851,0.35691 v 0.8723 h -0.25494 v -1.54341 h 0.25494 v 0.23978 q 0.0909,-0.13918 0.21359,-0.20808 0.12403,-0.0689 0.28526,-0.0689 0.26596,0 0.40238,0.16536 0.13643,0.16399 0.13643,0.48369 z"
         style="font-size:2.82222px;fill:#ffffff;fill-opacity:1"
         id="path869" />
      <path
         d="m 132.20444,258.92621 v 0.23702 q -0.10749,-0.0593 -0.21636,-0.0882 -0.10748,-0.0303 -0.21773,-0.0303 -0.24666,0 -0.38309,0.1571 -0.13643,0.15571 -0.13643,0.43821 0,0.2825 0.13643,0.4396 0.13643,0.15571 0.38309,0.15571 0.11025,0 0.21773,-0.0289 0.10887,-0.0303 0.21636,-0.0896 v 0.23427 q -0.10611,0.0496 -0.22049,0.0744 -0.113,0.0248 -0.24116,0.0248 -0.34864,0 -0.55397,-0.21911 -0.20532,-0.21911 -0.20532,-0.59118 0,-0.37758 0.2067,-0.59393 0.20808,-0.21635 0.56913,-0.21635 0.11713,0 0.22875,0.0248 0.11163,0.0234 0.21636,0.0717 z"
         style="font-size:2.82222px;fill:#ffffff;fill-opacity:1"
         id="path871" />
      <path
         d="m 133.96557,259.57526 v 0.12403 h -1.16582 q 0.0165,0.26182 0.1571,0.39963 0.14193,0.13642 0.39411,0.13642 0.14608,0 0.2825,-0.0358 0.13781,-0.0358 0.27285,-0.10749 v 0.23978 q -0.13642,0.0579 -0.27974,0.0882 -0.14331,0.0303 -0.29076,0.0303 -0.36932,0 -0.58567,-0.21498 -0.21497,-0.21497 -0.21497,-0.58153 0,-0.37896 0.20395,-0.60082 0.20532,-0.22324 0.55259,-0.22324 0.31143,0 0.49196,0.20119 0.1819,0.19982 0.1819,0.54432 z m -0.25356,-0.0744 q -0.003,-0.20808 -0.11713,-0.33211 -0.113,-0.12402 -0.30042,-0.12402 -0.21221,0 -0.34037,0.11989 -0.12678,0.11989 -0.14607,0.33762 z"
         style="font-size:2.82222px;fill:#ffffff;fill-opacity:1"
         id="path873" />
      <path
         d="m 121.20744,261.92091 q 0.0353,-0.007 0.0741,0.004 0.004,0 0.0106,0.004 0.0106,0.004 0.0212,0.007 0.0494,0.0247 0.0741,0.0776 0.0141,0.0282 0.0141,0.0529 0.004,0.0247 0.004,0.20461 v 0.21519 h 0.16581 0.16228 v -0.20461 q 0,-0.22225 0.0106,-0.25047 0.0106,-0.0317 0.0388,-0.06 0.0282,-0.0317 0.06,-0.0423 0.067,-0.0212 0.13405,0.007 0.0106,0.007 0.0212,0.0176 0.0141,0.007 0.0212,0.0176 0.0106,0.007 0.0176,0.0176 0.007,0.0106 0.0141,0.0247 0.0141,0.0282 0.0141,0.0529 0.004,0.0247 0.004,0.20461 v 0.21519 h 0.0917 q 0.0494,0 0.0705,0 0.0247,0 0.0318,0.004 0.0247,0.004 0.0459,0.0141 0.0212,0.0106 0.0388,0.0282 0.0176,0.0141 0.0282,0.0353 0.0141,0.0176 0.0176,0.0423 0.007,0.0212 0.007,0.0459 0,0.06 -0.0388,0.10936 -0.0388,0.0459 -0.0988,0.0564 -0.004,0 -0.0106,0 -0.004,0 -0.0106,0.004 -0.007,0 -0.0212,0 -0.0106,0 -0.0282,0 -0.0141,0 -0.0317,0 h -0.0917 v 0.18697 0.18345 h 0.0917 q 0.0176,0 0.0317,0 0.0176,0 0.0282,0 0.0141,0 0.0212,0.004 0.007,0 0.0106,0 0.007,0 0.0106,0 0.0423,0.007 0.0706,0.0317 0.0317,0.0247 0.0494,0.06 0.0176,0.0353 0.0176,0.0741 0,0.0635 -0.0388,0.10936 -0.0388,0.0459 -0.0988,0.0564 -0.0141,0.004 -0.1023,0.004 h -0.0917 v 0.20813 q 0,0.0635 0,0.10231 0,0.0388 0,0.067 0,0.0247 0,0.0353 0,0.0106 -0.004,0.0176 -0.0106,0.06 -0.0564,0.0988 -0.0459,0.0388 -0.10936,0.0388 -0.0212,0 -0.0459,-0.007 -0.0212,-0.007 -0.0423,-0.0176 -0.0176,-0.0141 -0.0353,-0.0282 -0.0141,-0.0176 -0.0247,-0.0388 -0.0106,-0.0212 -0.0176,-0.0459 0,-0.007 0,-0.0282 0,-0.0212 0,-0.0635 0,-0.0423 0,-0.13053 v -0.20813 h -0.16581 -0.16228 v 0.20813 q 0,0.0847 0,0.13053 0,0.0423 0,0.0635 0,0.0212 0,0.0282 -0.0141,0.06 -0.06,0.0988 -0.0459,0.0388 -0.10936,0.0388 -0.0282,0 -0.0564,-0.0106 -0.0282,-0.0106 -0.0494,-0.0282 -0.0212,-0.0176 -0.0388,-0.0423 -0.0141,-0.0282 -0.0212,-0.0565 0,-0.0176 0,-0.22225 v -0.20813 h -0.0988 q -0.0953,0 -0.10937,-0.007 -0.0388,-0.0106 -0.067,-0.0317 -0.0282,-0.0247 -0.0423,-0.0564 -0.0141,-0.0353 -0.0141,-0.0741 0,-0.0564 0.0318,-0.0988 0.0353,-0.0459 0.0917,-0.0635 0.0141,-0.004 0.10937,-0.007 h 0.0988 v -0.18345 -0.18697 h -0.0988 q -0.0953,0 -0.10937,-0.007 -0.0564,-0.0176 -0.0917,-0.06 -0.0318,-0.0459 -0.0318,-0.1023 0,-0.0282 0.007,-0.0529 0.0106,-0.0282 0.0247,-0.0494 0.0176,-0.0212 0.0388,-0.0353 0.0247,-0.0176 0.0529,-0.0247 0.0141,-0.007 0.10937,-0.007 h 0.0988 v -0.20461 q 0,-0.22225 0.0106,-0.25047 0.0106,-0.0317 0.0388,-0.06 0.0212,-0.0212 0.0388,-0.0317 0.0212,-0.0106 0.0494,-0.0176 z m 0.52564,1.09008 v -0.18697 h -0.16581 -0.16228 v 0.18697 0.18345 h 0.16228 0.16581 z"
         style="font-style:normal;font-variant:normal;font-weight:normal;font-stretch:normal;font-size:3.52778px;font-family:OCRA;-inkscape-font-specification:'OCRA, Normal';font-variant-ligatures:normal;font-variant-caps:normal;font-variant-numeric:normal;font-variant-east-asian:normal;fill:#ffffff;fill-opacity:1"
         id="path875" />
      <path
         d="m 123.39818,261.92091 q 0.007,0 0.15522,0 0.1517,-0.004 0.61384,-0.004 h 0.75847 v 0.51859 q 0,0.4198 -0.004,0.47977 0,0.0564 -0.007,0.0811 -0.0106,0.0318 -0.0353,0.0565 -0.0141,0.0141 -0.3175,0.27164 l -0.30339,0.26105 v 0.40217 q 0,0.33867 -0.004,0.37747 0,0.0388 -0.0141,0.067 -0.0106,0.0282 -0.0318,0.0459 -0.0176,0.0176 -0.0423,0.0317 -0.067,0.0318 -0.13406,0.007 -0.0318,-0.0106 -0.06,-0.0388 -0.007,-0.0106 -0.0141,-0.0176 -0.007,-0.007 -0.0106,-0.0141 -0.004,-0.007 -0.007,-0.0141 -0.004,-0.007 -0.007,-0.0141 -0.0106,-0.0247 -0.0106,-0.0776 0,-0.0529 0,-0.40923 0,-0.45508 0.0106,-0.4833 0.0141,-0.0317 0.0353,-0.0564 0.0141,-0.0141 0.31397,-0.27163 l 0.30339,-0.25753 v -0.30339 -0.30339 h -0.49741 -0.49389 l -0.004,0.007 q -0.004,0.0282 -0.0176,0.0494 -0.0212,0.0388 -0.0564,0.06 -0.0141,0.007 -0.0282,0.0141 -0.0106,0.004 -0.0247,0.007 -0.0141,0.004 -0.0282,0.004 -0.0141,0 -0.0282,0 -0.06,-0.007 -0.1023,-0.0529 -0.0247,-0.0282 -0.0353,-0.0564 -0.0106,-0.0317 -0.0106,-0.13053 0,-0.0988 0.0106,-0.127 0.0106,-0.0317 0.0388,-0.06 0.0388,-0.0388 0.0882,-0.0494 z"
         style="font-style:normal;font-variant:normal;font-weight:normal;font-stretch:normal;font-size:3.52778px;font-family:OCRA;-inkscape-font-specification:'OCRA, Normal';font-variant-ligatures:normal;font-variant-caps:normal;font-variant-numeric:normal;font-variant-east-asian:normal;fill:#ffffff;fill-opacity:1"
         id="path877" />
      <path
         d="m 126.00168,261.92091 q 0.0353,-0.007 0.0741,0.004 0.0353,0.007 0.0635,0.0317 0.0212,0.0176 0.0353,0.0423 0.0141,0.0212 0.0247,0.0459 l 0.004,0.65264 v 0.64206 h 0.32808 0.32809 v -0.49742 -0.50094 l 0.007,-0.0141 q 0.0141,-0.0459 0.0459,-0.0776 0.0353,-0.0317 0.0776,-0.0423 0.0106,-0.004 0.0176,-0.004 0.0106,0 0.0282,0 0.0212,0 0.0353,0.004 0.0141,0.004 0.0318,0.0141 0.067,0.0317 0.0882,0.10583 l 0.007,0.0141 v 0.49741 0.50095 h 0.0141 q 0.0282,0.004 0.0529,0.0176 0.0282,0.0106 0.0494,0.0317 0.0212,0.0212 0.0353,0.0494 0.007,0.0212 0.0106,0.0459 0.004,0.0247 0,0.0494 -0.004,0.0212 -0.0106,0.0423 -0.0212,0.0423 -0.0564,0.0705 -0.0353,0.0247 -0.0811,0.0282 l -0.0141,0.004 v 0.35631 q 0,0.0318 0,0.0882 0,0.20814 -0.004,0.24695 0,0.0388 -0.0106,0.0564 -0.004,0.004 -0.004,0.007 -0.0247,0.0529 -0.0776,0.0776 -0.0635,0.0318 -0.13052,0.007 -0.0317,-0.0106 -0.0635,-0.0388 -0.0282,-0.0317 -0.0388,-0.06 -0.0106,-0.0318 -0.0106,-0.39511 v -0.34925 h -0.49742 -0.49742 v -0.80081 q 0,-0.64911 0,-0.73378 0.004,-0.0882 0.0106,-0.11289 0.004,-0.007 0.007,-0.0141 0.004,-0.007 0.007,-0.0141 0.007,-0.007 0.0106,-0.0141 0.007,-0.007 0.0176,-0.0141 0.0176,-0.0212 0.0353,-0.0317 0.0212,-0.0106 0.0494,-0.0176 z"
         style="font-style:normal;font-variant:normal;font-weight:normal;font-stretch:normal;font-size:3.52778px;font-family:OCRA;-inkscape-font-specification:'OCRA, Normal';font-variant-ligatures:normal;font-variant-caps:normal;font-variant-numeric:normal;font-variant-east-asian:normal;fill:#ffffff;fill-opacity:1"
         id="path879" />
      <path
         d="m 128.52403,261.92091 q 0.0353,-0.007 0.0741,0.004 0.0353,0.007 0.0635,0.0317 0.0212,0.0176 0.0353,0.0423 0.0141,0.0212 0.0247,0.0459 l 0.004,0.65264 v 0.64206 h 0.32808 0.32808 v -0.49742 -0.50094 l 0.007,-0.0141 q 0.0141,-0.0459 0.0459,-0.0776 0.0353,-0.0317 0.0776,-0.0423 0.0106,-0.004 0.0176,-0.004 0.0106,0 0.0282,0 0.0212,0 0.0353,0.004 0.0141,0.004 0.0317,0.0141 0.067,0.0317 0.0882,0.10583 l 0.007,0.0141 v 0.49741 0.50095 h 0.0141 q 0.0282,0.004 0.0529,0.0176 0.0282,0.0106 0.0494,0.0317 0.0212,0.0212 0.0353,0.0494 0.007,0.0212 0.0106,0.0459 0.004,0.0247 0,0.0494 -0.004,0.0212 -0.0106,0.0423 -0.0212,0.0423 -0.0564,0.0705 -0.0353,0.0247 -0.0811,0.0282 l -0.0141,0.004 v 0.35631 q 0,0.0318 0,0.0882 0,0.20814 -0.004,0.24695 0,0.0388 -0.0106,0.0564 -0.004,0.004 -0.004,0.007 -0.0247,0.0529 -0.0776,0.0776 -0.0635,0.0318 -0.13053,0.007 -0.0317,-0.0106 -0.0635,-0.0388 -0.0282,-0.0317 -0.0388,-0.06 -0.0106,-0.0318 -0.0106,-0.39511 v -0.34925 h -0.49741 -0.49742 v -0.80081 q 0,-0.64911 0,-0.73378 0.004,-0.0882 0.0106,-0.11289 0.004,-0.007 0.007,-0.0141 0.004,-0.007 0.007,-0.0141 0.007,-0.007 0.0106,-0.0141 0.007,-0.007 0.0176,-0.0141 0.0176,-0.0212 0.0353,-0.0317 0.0212,-0.0106 0.0494,-0.0176 z"
         style="font-style:normal;font-variant:normal;font-weight:normal;font-stretch:normal;font-size:3.52778px;font-family:OCRA;-inkscape-font-specification:'OCRA, Normal';font-variant-ligatures:normal;font-variant-caps:normal;font-variant-numeric:normal;font-variant-east-asian:normal;fill:#ffffff;fill-opacity:1"
         id="path881" />
      <path
         d="m 131.30392,263.33908 q 0.007,0 0.35983,0 0.29986,0 0.33514,0.004 0.0353,0 0.067,0.0141 0.0247,0.0106 0.0423,0.0317 0.0212,0.0176 0.0317,0.0423 0.0141,0.0318 0.0141,0.0776 0.004,0.0423 0.004,0.42686 0,0.381 -0.004,0.42686 0,0.0423 -0.0141,0.0706 -0.0247,0.0529 -0.0741,0.0776 -0.067,0.0318 -0.13406,0.007 -0.0317,-0.0106 -0.06,-0.0388 -0.0282,-0.0317 -0.0388,-0.06 -0.0106,-0.0318 -0.0106,-0.39511 v -0.34925 h -0.26458 q -0.21872,0 -0.25047,0 -0.0282,-0.004 -0.0564,-0.0176 -0.0635,-0.0318 -0.0882,-0.10584 -0.0141,-0.0423 0,-0.0882 l 0.0317,-0.06 q 0.0423,-0.0529 0.10936,-0.0635 z"
         style="font-style:normal;font-variant:normal;font-weight:normal;font-stretch:normal;font-size:3.52778px;font-family:OCRA;-inkscape-font-specification:'OCRA, Normal';font-variant-ligatures:normal;font-variant-caps:normal;font-variant-numeric:normal;font-variant-east-asian:normal;fill:#ffffff;fill-opacity:1"
         id="path883" />
      <path
         d="m 133.49113,261.92091 q 0.0106,-0.004 0.61031,-0.004 0.61736,0 0.6597,0.0106 0.0635,0.0176 0.11641,0.06 0.0564,0.0388 0.0882,0.0988 0.0353,0.0564 0.0459,0.127 0.004,0.0247 0.004,0.35983 0,0.33514 -0.004,0.36689 -0.0176,0.14464 -0.10936,0.25753 -0.0141,0.0212 -0.0176,0.0247 0,0 0.0141,0.0176 0.0564,0.067 0.0847,0.14817 0.0176,0.0423 0.0247,0.0953 l 0.007,0.0282 v 0.35983 0.35984 l -0.007,0.0212 q -0.0176,0.0882 -0.0706,0.1517 -0.0423,0.0494 -0.1023,0.0811 -0.0564,0.0317 -0.12347,0.0388 -0.0176,0.004 -0.62089,0.004 h -0.60325 l -0.0141,-0.007 q -0.0565,-0.0176 -0.0917,-0.06 -0.0317,-0.0459 -0.0317,-0.1023 0,-0.0388 0.0141,-0.0706 0.0141,-0.0317 0.0423,-0.0564 0.0282,-0.0247 0.067,-0.0353 l 0.0141,-0.004 0.59619,-0.004 h 0.59267 v -0.32808 q 0,-0.2787 -0.004,-0.31045 0,-0.0353 -0.0141,-0.0635 -0.0247,-0.0529 -0.0776,-0.0776 -0.0282,-0.0141 -0.067,-0.0141 -0.0353,-0.004 -0.33514,-0.004 -0.30339,-0.004 -0.34219,-0.004 -0.0353,-0.004 -0.0635,-0.0141 -0.0317,-0.0176 -0.0564,-0.0423 -0.0212,-0.0282 -0.0318,-0.0635 -0.004,-0.0176 -0.004,-0.0459 0,-0.0318 0.004,-0.0459 0.007,-0.0176 0.0141,-0.0317 0.0106,-0.0176 0.0212,-0.0318 0.0106,-0.0141 0.0247,-0.0247 0.0141,-0.0106 0.0282,-0.0176 0.0282,-0.0141 0.0635,-0.0141 0.0388,-0.004 0.34219,-0.004 h 0.35984 l 0.0176,-0.007 q 0.0882,-0.0282 0.11642,-0.11994 0.004,-0.0141 0.004,-0.3422 v -0.32808 h -0.59267 -0.59619 l -0.0141,-0.007 q -0.0388,-0.0106 -0.067,-0.0353 -0.0282,-0.0247 -0.0423,-0.0565 -0.0317,-0.0705 0,-0.14111 0.0353,-0.0811 0.127,-0.0953 z"
         style="font-style:normal;font-variant:normal;font-weight:normal;font-stretch:normal;font-size:3.52778px;font-family:OCRA;-inkscape-font-specification:'OCRA, Normal';font-variant-ligatures:normal;font-variant-caps:normal;font-variant-numeric:normal;font-variant-east-asian:normal;fill:#ffffff;fill-opacity:1"
         id="path885" />
      <path
         d="m 136.34158,261.92091 q 0.007,0 0.0776,0 0.0741,-0.004 0.28927,-0.004 h 0.004 0.004 0.007 0.004 0.004 0.004 0.004 0.004 0.004 0.004 0.004 0.004 0.004 0.004 0.004 0.004 0.004 0.004 0.004 l 0.004,0.004 h 0.004 0.004 0.007 q 0.28222,0 0.30339,0.0106 l 0.0106,0.004 q 0.0106,0.007 0.0212,0.0176 0.0141,0.007 0.0212,0.0176 0.0106,0.007 0.0176,0.0176 0.007,0.0106 0.0141,0.0247 0.0141,0.0282 0.0141,0.0776 0.004,0.0459 0.004,0.46567 v 0.49742 h 0.0106 q 0.0282,0 0.0705,0.0106 0.0353,0.0106 0.067,0.0282 0.0353,0.0141 0.0635,0.0388 0.0282,0.0247 0.0494,0.0529 0.0247,0.0282 0.0388,0.0635 0.0176,0.0317 0.0247,0.067 0.0106,0.0423 0.0106,0.49036 v 0.43039 l -0.007,0.0212 q -0.0176,0.0847 -0.0706,0.14817 -0.0141,0.0176 -0.0317,0.0317 -0.0141,0.0141 -0.0318,0.0282 -0.0176,0.0106 -0.0388,0.0212 -0.0176,0.0106 -0.0388,0.0212 -0.0176,0.007 -0.0388,0.0141 -0.0212,0.004 -0.0459,0.004 -0.0176,0.004 -0.54327,0.004 h -0.52564 l -0.0212,-0.007 q -0.11994,-0.0282 -0.19756,-0.11641 -0.0459,-0.06 -0.0635,-0.13053 -0.0106,-0.0423 -0.0106,-0.48331 0,-0.44097 0.0106,-0.4833 0.0176,-0.067 0.06,-0.12347 0.0459,-0.0564 0.10583,-0.0882 0.0635,-0.0353 0.13406,-0.0423 h 0.0212 v -0.49036 q 0,-0.39512 0,-0.45156 0,-0.06 0.0106,-0.0847 0.0106,-0.0282 0.0388,-0.0564 0.0141,-0.0141 0.0247,-0.0212 0.0141,-0.0106 0.0282,-0.0176 0.0176,-0.007 0.0353,-0.0106 z m 0.52563,0.73378 v -0.39864 h -0.1658 -0.16228 v 0.39864 0.39864 h 0.16228 0.1658 z m 0.33162,1.13594 v -0.39864 h -0.49389 -0.49742 v 0.39864 0.39864 h 0.49742 0.49389 z"
         style="font-style:normal;font-variant:normal;font-weight:normal;font-stretch:normal;font-size:3.52778px;font-family:OCRA;-inkscape-font-specification:'OCRA, Normal';font-variant-ligatures:normal;font-variant-caps:normal;font-variant-numeric:normal;font-variant-east-asian:normal;fill:#ffffff;fill-opacity:1"
         id="path887" />
      <path
         d="m 138.69107,261.92091 q 0.0141,-0.004 0.5327,-0.004 0.53975,0 0.58208,0.0106 0.10231,0.0282 0.16933,0.10936 0.0706,0.0776 0.0811,0.18344 0.004,0.0212 0.004,1.016 v 0.99836 l -0.007,0.0212 q -0.0106,0.0423 -0.0282,0.0811 -0.0176,0.0353 -0.0423,0.067 -0.0423,0.0494 -0.10231,0.0811 -0.0564,0.0317 -0.12347,0.0388 -0.0176,0.004 -0.54328,0.004 h -0.52564 l -0.0212,-0.007 q -0.11995,-0.0282 -0.19756,-0.11641 -0.0459,-0.06 -0.0635,-0.13053 -0.0106,-0.0353 -0.0106,-0.14111 0,-0.10936 0,-0.90664 0,-0.80081 0,-0.91017 0,-0.10936 0.0106,-0.14111 0.007,-0.0353 0.0212,-0.0635 0.0176,-0.0317 0.0353,-0.0564 0.0212,-0.0282 0.0459,-0.0494 0.0247,-0.0247 0.0529,-0.0423 0.0317,-0.0176 0.0635,-0.0282 0.0317,-0.0106 0.067,-0.0141 z m 1.03011,1.30175 v -0.96661 h -0.49389 -0.49741 v 0.96661 0.96661 h 0.49741 0.49389 z"
         style="font-style:normal;font-variant:normal;font-weight:normal;font-stretch:normal;font-size:3.52778px;font-family:OCRA;-inkscape-font-specification:'OCRA, Normal';font-variant-ligatures:normal;font-variant-caps:normal;font-variant-numeric:normal;font-variant-east-asian:normal;fill:#ffffff;fill-opacity:1"
         id="path889" />
    </g>
    <text
       xml:space="preserve"
       style="font-style:normal;font-weight:normal;font-size:6.64261px;line-height:1.25;font-family:sans-serif;fill:#000000;fill-opacity:1;stroke:#fefefe;stroke-width:0.207908;stroke-miterlimit:4;stroke-dasharray:none;stroke-opacity:1"
       x="31.558426"
       y="139.83243"
       id="text1744"><tspan
         sodipodi:role="line"
         id="tspan1742"
         x="31.558426"
         y="139.83243"
         style="font-style:normal;font-variant:normal;font-weight:800;font-stretch:normal;font-size:6.64261px;font-family:'Noto Sans';-inkscape-font-specification:'Noto Sans Ultra-Bold';stroke:#fefefe;stroke-width:0.207908;stroke-linejoin:round;stroke-miterlimit:4;stroke-dasharray:none;stroke-opacity:1">unspent.cash</tspan></text>
    <circle
       style="opacity:0.9;mix-blend-mode:lighten;fill:url(#radialGradient1763);fill-opacity:1;stroke:none;stroke-width:0.24185;stroke-linejoin:round;stroke-miterlimit:4;stroke-dasharray:none;stroke-dashoffset:7.35;stroke-opacity:1"
       id="path1747"
       cx="60.618221"
       cy="105.91439"
       r="26.537169" />
  </g>
</svg>
