<svg xmlns="http://www.w3.org/2000/svg" height="40" viewBox="0 -960 960 960" width="40"><path d="M353.333-636h253.334v-88.667q0-54.667-36.667-91.667t-90-37q-53.333 0-90 37t-36.667 91.667V-636ZM534.668-80H226.666q-26.333 0-46.499-20.167Q160-120.333 160-146.666v-422.668q0-26.333 20.167-46.499Q200.333-636 226.666-636h60.001v-88.667q0-81.666 56.166-138.5Q399-920 480-920t137.167 56.833q56.166 56.834 56.166 138.5V-636h60.001q26.333 0 46.499 20.167Q800-595.667 800-569.334V-494q-14.667-4-30.5-5.666-15.833-1.667-36.166-1.667v-68.001H226.666v422.668h271.335q7.334 19.333 15.334 34.166 8 14.833 21.333 32.5Zm207.333 36q-80.334 0-137.834-57.5t-57.5-137.833q0-80.334 57.5-137.834t137.834-57.5q80.333 0 137.833 57.5t57.5 137.834q0 80.333-57.5 137.833T742.001-44Zm71.333-96.667L840.667-168l-80.666-75.333v-120h-41.334v133.184l94.667 89.482ZM226.666-569.334V-146.666v-422.668Z"/></svg>