<?xml version="1.0" encoding="UTF-8" standalone="no"?>
<svg
   xmlns:dc="http://purl.org/dc/elements/1.1/"
   xmlns:cc="http://creativecommons.org/ns#"
   xmlns:rdf="http://www.w3.org/1999/02/22-rdf-syntax-ns#"
   xmlns:svg="http://www.w3.org/2000/svg"
   xmlns="http://www.w3.org/2000/svg"
   xmlns:sodipodi="http://sodipodi.sourceforge.net/DTD/sodipodi-0.dtd"
   xmlns:inkscape="http://www.inkscape.org/namespaces/inkscape"
   height="40"
   viewBox="0 -960 960 960"
   width="40"
   version="1.1"
   id="svg912"
   sodipodi:docname="lock_clock.svg"
   inkscape:version="1.0.2 (e86c870879, 2021-01-15)">
  <metadata
     id="metadata918">
    <rdf:RDF>
      <cc:Work
         rdf:about="">
        <dc:format>image/svg+xml</dc:format>
        <dc:type
           rdf:resource="http://purl.org/dc/dcmitype/StillImage" />
      </cc:Work>
    </rdf:RDF>
  </metadata>
  <defs
     id="defs916" />
  <sodipodi:namedview
     pagecolor="#ffffff"
     bordercolor="#666666"
     borderopacity="1"
     objecttolerance="10"
     gridtolerance="10"
     guidetolerance="10"
     inkscape:pageopacity="0"
     inkscape:pageshadow="2"
     inkscape:window-width="1484"
     inkscape:window-height="1032"
     id="namedview914"
     showgrid="false"
     inkscape:zoom="12.11277"
     inkscape:cx="19.641738"
     inkscape:cy="16.994039"
     inkscape:window-x="-26"
     inkscape:window-y="0"
     inkscape:window-maximized="0"
     inkscape:current-layer="svg912"
     inkscape:document-rotation="0" />
  <g
     id="g2377"
     transform="matrix(43.850872,0,0,43.850872,-634.36154,-550.71158)">
    <g
       transform="matrix(0.10148163,0,0,0.10148163,17.09101,-1.8143657)"
       id="g16">
      <path
         d="M 5.5775325,4.0024083 C 3.9531509,51.786925 3.9851418,99.587703 12.260964,130.06171 c 36.115561,1.16235 66.567177,-0.11947 107.384956,0.28861 0,0 4.23519,-46.677659 4.23562,-74.500231 l 23.84852,2.059354 -0.0302,-43.633958 c 0,0 -103.97833,-15.7344021 -142.1223475,-10.2730767 z M 30.714,28.96806 l 18.962,0.06599 17.785,24.847 9.8729,-13.077 -6.6037,-0.78448 v -11.05 h 31.973 v 11.508 l -6.4077,1.1117 -18.177,22.296 19.158,23.343 6.6697,1.0464 v 11.443 h -18.635 l -19.093,-25.566 -10.331,13.862 5.6886,0.71916 v 10.985 h -31.516 v -11.443 l 6.6044,-1.0464 19.093,-23.016 -18.439,-22.623 -6.6044,-1.1117 z"
         fill="#ffb200"
         stroke="#000000"
         stroke-dasharray="0, 6.182"
         stroke-linejoin="bevel"
         stroke-miterlimit="4.1"
         stroke-opacity="0.25297"
         stroke-width="0.562"
         id="path14"
         sodipodi:nodetypes="cccccccccccccccccccccccccccccccc" />
    </g>
  </g>
  <path
     d="m 296.87671,-638.24003 h 269.13606 v -94.19773 q 0,-58.07693 -38.95414,-97.38486 -38.95417,-39.30792 -95.61388,-39.30792 -56.65973,0 -95.61388,39.30792 -38.95416,39.30793 -38.95416,97.38486 z M 489.52274,-47.558763 H 162.30868 q -27.97555,0 -49.39944,-21.42494 -21.424938,-21.423891 -21.424938,-49.399447 v -449.03249 q 0,-27.97557 21.424938,-49.39945 21.42389,-21.42494 49.39944,-21.42494 h 63.74365 v -94.19773 q 0,-86.76003 59.66943,-147.13913 59.6705,-60.37804 145.72299,-60.37804 86.05248,0 145.72298,60.37804 59.66943,60.3791 59.66943,147.13913 v 94.19773 h 63.74365 q 27.97555,0 49.39943,21.42494 21.42495,21.42388 21.42495,49.39945 v 80.03305 q -15.58187,-4.24949 -32.40248,-6.01942 -16.8206,-1.77098 -38.4219,-1.77098 v -72.24265 H 162.30868 v 449.03249 h 288.2599 q 7.79147,20.538919 16.29048,36.297154 8.49902,15.758225 22.66368,34.527233 z m 220.26568,38.2455452 q -85.34494,0 -146.43158,-61.0866372 -61.08665,-61.086635 -61.08665,-146.430525 0,-85.34495 61.08665,-146.43159 61.08664,-61.08664 146.43158,-61.08664 85.34388,0 146.43053,61.08664 61.08669,61.08664 61.08669,146.43159 0,85.34389 -61.08669,146.430525 -61.08665,61.0866372 -146.43053,61.0866372 z m 75.78249,-102.6967322 29.03794,-29.03794 -85.69765,-80.03199 v -127.48516 h -43.91227 v 141.49153 z M 162.30868,-567.41564 v 449.03249 z"
     id="path910"
     style="stroke-width:1.06238" />
</svg>
