<?xml version="1.0" encoding="UTF-8" standalone="no"?>
<svg
   xmlns:dc="http://purl.org/dc/elements/1.1/"
   xmlns:cc="http://creativecommons.org/ns#"
   xmlns:rdf="http://www.w3.org/1999/02/22-rdf-syntax-ns#"
   xmlns:svg="http://www.w3.org/2000/svg"
   xmlns="http://www.w3.org/2000/svg"
   xmlns:sodipodi="http://sodipodi.sourceforge.net/DTD/sodipodi-0.dtd"
   xmlns:inkscape="http://www.inkscape.org/namespaces/inkscape"
   height="40"
   viewBox="0 -960 960 960"
   width="40"
   version="1.1"
   id="svg912"
   sodipodi:docname="lock_clock.svg"
   inkscape:version="1.0.2 (e86c870879, 2021-01-15)">
  <metadata
     id="metadata918">
    <rdf:RDF>
      <cc:Work
         rdf:about="">
        <dc:format>image/svg+xml</dc:format>
        <dc:type
           rdf:resource="http://purl.org/dc/dcmitype/StillImage" />
      </cc:Work>
    </rdf:RDF>
  </metadata>
  <defs
     id="defs916" />
  <sodipodi:namedview
     pagecolor="#ffffff"
     bordercolor="#666666"
     borderopacity="1"
     objecttolerance="10"
     gridtolerance="10"
     guidetolerance="10"
     inkscape:pageopacity="0"
     inkscape:pageshadow="2"
     inkscape:window-width="1484"
     inkscape:window-height="1032"
     id="namedview914"
     showgrid="false"
     inkscape:zoom="16.611032"
     inkscape:cx="22.623555"
     inkscape:cy="24.162095"
     inkscape:window-x="0"
     inkscape:window-y="0"
     inkscape:window-maximized="0"
     inkscape:current-layer="svg912" />
  <g
     id="g2377"
     transform="matrix(41.276211,0,0,41.276211,-523.22851,-553.61069)">
    <g
       transform="matrix(0.10148163,0,0,0.10148163,17.09101,-1.8143657)"
       id="g16">
      <path
         d="M 65.419,0.36106 C 45.374826,0.36074542 10.667159,-4.3156284 -1.0136025,10.154346 -9.8406756,21.089209 1.699,48.933574 1.699,64.08106 1.6992253,78.436378 -11.355728,108.51547 -3.3456916,119.16904 8.28061,134.63235 44.58306,131.87087 65.419,131.87054 c 7.368503,0 43.33596,-0.13213 50.28447,0.45178 0,0 8.17764,-48.649659 8.17807,-76.472231 2.81601,-6.847245 20.7538,21.053295 22.00974,1.802371 1.45981,-22.375647 0.95138,-45.429557 -3.65099,-51.2614166 C 130.57153,-8.3949338 85.716562,0.36106 65.419,0.36106 Z m -34.705,28.607 18.962,0.06599 17.785,24.847 9.8729,-13.077 -6.6037,-0.78448 v -11.05 h 31.973 v 11.508 l -6.4077,1.1117 -18.177,22.296 19.158,23.343 6.6697,1.0464 v 11.443 h -18.635 l -19.093,-25.566 -10.331,13.862 5.6886,0.71916 v 10.985 h -31.516 v -11.443 l 6.6044,-1.0464 19.093,-23.016 -18.439,-22.623 -6.6044,-1.1117 z"
         fill="#ffb200"
         stroke="#000000"
         stroke-dasharray="0, 6.182"
         stroke-linejoin="bevel"
         stroke-miterlimit="4.1"
         stroke-opacity="0.25297"
         stroke-width="0.562"
         id="path14"
         sodipodi:nodetypes="cscscscsscccccccccccccccccccccccccc" />
    </g>
  </g>
  <path
     d="M353.333-636h253.334v-88.667q0-54.667-36.667-91.667t-90-37q-53.333 0-90 37t-36.667 91.667V-636ZM534.668-80H226.666q-26.333 0-46.499-20.167Q160-120.333 160-146.666v-422.668q0-26.333 20.167-46.499Q200.333-636 226.666-636h60.001v-88.667q0-81.666 56.166-138.5Q399-920 480-920t137.167 56.833q56.166 56.834 56.166 138.5V-636h60.001q26.333 0 46.499 20.167Q800-595.667 800-569.334V-494q-14.667-4-30.5-5.666-15.833-1.667-36.166-1.667v-68.001H226.666v422.668h271.335q7.334 19.333 15.334 34.166 8 14.833 21.333 32.5Zm207.333 36q-80.334 0-137.834-57.5t-57.5-137.833q0-80.334 57.5-137.834t137.834-57.5q80.333 0 137.833 57.5t57.5 137.834q0 80.333-57.5 137.833T742.001-44Zm71.333-96.667L840.667-168l-80.666-75.333v-120h-41.334v133.184l94.667 89.482ZM226.666-569.334V-146.666v-422.668Z"
     id="path910" />
</svg>
