<?xml version="1.0" encoding="UTF-8" standalone="no"?>
<svg
   xmlns:dc="http://purl.org/dc/elements/1.1/"
   xmlns:cc="http://creativecommons.org/ns#"
   xmlns:rdf="http://www.w3.org/1999/02/22-rdf-syntax-ns#"
   xmlns:svg="http://www.w3.org/2000/svg"
   xmlns="http://www.w3.org/2000/svg"
   xmlns:sodipodi="http://sodipodi.sourceforge.net/DTD/sodipodi-0.dtd"
   xmlns:inkscape="http://www.inkscape.org/namespaces/inkscape"
   height="40"
   viewBox="0 -960 960 960"
   width="40"
   version="1.1"
   id="svg941"
   sodipodi:docname="lock.svg"
   inkscape:version="1.0.2 (e86c870879, 2021-01-15)">
  <metadata
     id="metadata947">
    <rdf:RDF>
      <cc:Work
         rdf:about="">
        <dc:format>image/svg+xml</dc:format>
        <dc:type
           rdf:resource="http://purl.org/dc/dcmitype/StillImage" />
        <dc:title></dc:title>
      </cc:Work>
    </rdf:RDF>
  </metadata>
  <defs
     id="defs945" />
  <sodipodi:namedview
     pagecolor="#ffffff"
     bordercolor="#666666"
     borderopacity="1"
     objecttolerance="10"
     gridtolerance="10"
     guidetolerance="10"
     inkscape:pageopacity="0"
     inkscape:pageshadow="2"
     inkscape:window-width="1648"
     inkscape:window-height="1027"
     id="namedview943"
     showgrid="false"
     inkscape:zoom="13.068309"
     inkscape:cx="28.595615"
     inkscape:cy="17.085496"
     inkscape:window-x="0"
     inkscape:window-y="0"
     inkscape:window-maximized="0"
     inkscape:current-layer="svg941" />
  <path
     d="m 679.55054,-201.45478 q -11.81853,17.05684 -32.42036,20.79347 -20.60077,3.73778 -37.65762,-8.08077 -17.05624,-11.81812 -20.79353,-32.41952 -3.73778,-20.60135 8.08076,-37.6582 11.8183,-17.05651 32.41976,-20.79327 20.60127,-3.73781 37.6578,8.08052 17.05685,11.81854 20.79335,32.41977 3.73816,20.60148 -8.08016,37.658 z m 96.58919,66.92578 q -39.83761,57.494738 -107.96798,69.851593 -68.13038,12.356856 -125.62412,-27.475429 -57.49466,-39.837554 -69.85153,-107.967964 -12.35689,-68.13041 27.47546,-125.62415 28.01856,-40.43719 68.95343,-58.16874 40.93485,-17.73158 90.2112,-10.24801 l 141.28785,-203.91055 112.25264,-20.36379 24.88709,163.04059 -70.02561,24.09768 2.03719,74.02509 -65.70111,21.13243 -19.78601,28.5557 q 22.45641,38.8193 22.09435,84.37634 -0.36324,45.55611 -30.24244,88.67861 z m -38.32772,-26.55693 q 22.83989,-32.96318 20.22488,-74.6302 -2.61576,-41.66523 -30.00327,-72.55408 l 46.87475,-67.65095 47.14765,-14.41583 -1.57962,-74.27761 65.51227,-21.26775 -12.11936,-77.8932 -46.06999,8.35839 -148.0604,213.68487 q -36.47555,-14.49482 -76.90709,-3.22324 -40.43121,11.27177 -64.33329,45.76791 -28.68221,41.39497 -19.73515,90.70834 8.94558,49.31424 50.33988,77.996 41.3949,28.68217 90.71141,19.73722 49.31406,-8.94602 77.99568,-50.34012 z"
     stroke-width="0.699474"
     id="path24"
     inkscape:transform-center-x="-63.121208"
     inkscape:transform-center-y="-117.26325" />
  <path
     d="m 227.16858,-642.80714 h 256.62515 v -89.82042 c 0,-36.91825 -12.38089,-67.86958 -37.14358,-92.85602 -24.7619,-24.98723 -55.15378,-37.48044 -91.16787,-37.48044 -36.01713,0 -66.40585,12.49321 -91.16775,37.48044 -24.7619,24.98724 -37.14324,55.93977 -37.14324,92.85602 z m 183.6909,563.2072 H 98.855892 c -17.78317,0 -33.484,-6.8098 -47.10158,-20.42904 -13.619277,-13.61884 -20.42914,-29.32006 -20.42914,-47.1017 v -428.14974 c 0,-17.78364 6.809863,-33.48448 20.42914,-47.1017 13.61882,-13.61962 29.31965,-20.42903 47.10158,-20.42903 h 60.779928 v -89.82043 c 0,-55.1498 18.96543,-101.91864 56.89412,-140.29852 37.93163,-38.38114 84.24652,-57.57188 138.94715,-57.57188 54.70074,0 101.02048,19.19035 138.94715,57.57188 37.93084,38.38148 56.89423,85.14872 56.89423,140.29852 v 89.82043 h 60.77981 c 17.78363,0 33.48446,6.80941 47.1017,20.42903 13.61962,13.61843 20.42903,29.31926 20.42903,47.1017 v 76.31467 c -9.90515,-2.70276 -20.20403,-4.61473 -30.89644,-5.73954 -10.69229,-1.12682 -22.90443,-1.68822 -36.63587,-1.68822 v -68.88411 H 98.854312 v 428.14975 H 373.71308 c 4.95319,13.05583 10.13093,24.59265 15.53366,34.61008 5.40228,10.01702 12.60589,20.99084 21.60992,32.92227 z M 98.855892,-575.27842 v 428.14975 z"
     stroke-width="1.01301"
     id="path26" />
</svg>
