<svg width="128mm" height="128mm" version="1.1" viewBox="0 0 128 128" xmlns="http://www.w3.org/2000/svg">
 <g transform="translate(-1.4186 -.0802)">
  <path d="m65.419 0.36106a63.719 63.72 0 0 0-63.72 63.72 63.719 63.72 0 0 0 63.72 63.719 63.719 63.72 0 0 0 63.719-63.719 63.719 63.72 0 0 0-63.719-63.72zm-34.705 28.607 18.962 0.065993 17.785 24.847 9.8729-13.077-6.6037-0.78448v-11.05h31.973v11.508l-6.4077 1.1117-18.177 22.296 19.158 23.343 6.6697 1.0464v11.443h-18.635l-19.093-25.566-10.331 13.862 5.6886 0.71916v10.985h-31.516v-11.443l6.6044-1.0464 19.093-23.016-18.439-22.623-6.6044-1.1117z" fill="#ffb200" stroke="#000" stroke-dasharray="1.12343, 0.56172" stroke-linejoin="bevel" stroke-miterlimit="4.1" stroke-opacity=".25297" stroke-width=".56172"/>
 </g>
</svg>
