<svg width="1e3mm" height="1e3mm" version="1.1" viewBox="0 0 1e3 1e3" xmlns="http://www.w3.org/2000/svg">
 <g transform="translate(-1.3378 -.080197)" stroke="#000" stroke-linejoin="bevel" stroke-opacity=".25297">
  <circle cx="501.34" cy="500.08" r="500" fill="#fff" stroke-dasharray="0, 131.08600000000001273" stroke-miterlimit="4.1" stroke-width="11.917"/>
  <path d="m501.34 2.2744a497.81 497.81 0 0 0-497.81 497.81 497.81 497.81 0 0 0 497.81 497.8 497.81 497.81 0 0 0 497.8-497.8 497.81 497.81 0 0 0-497.8-497.81zm-271.13 223.49 148.14 0.51559 138.94 194.11 77.132-102.17-51.591-6.1287v-86.328h249.79v89.905l-50.06 8.6854-142.01 174.19 149.67 182.37 52.107 8.1751v89.395h-145.58l-149.16-199.74-80.709 108.3 44.442 5.6184v85.817h-246.22v-89.395l51.597-8.1751 149.16-179.81-144.05-176.74-51.597-8.6854z" fill="#ffb200" stroke-dasharray="0,48.26799763" stroke-miterlimit="4.1" stroke-width="4.388"/>
 </g>
</svg>
