<svg xmlns="http://www.w3.org/2000/svg" height="40" viewBox="0 -960 960 960" width="40"><path d="M648-417.333q25.334 0 44-18.667 18.667-18.667 18.667-44.333 0-25.667-18.667-44-18.666-18.334-44-18.334-25.333 0-44 18.334-18.667 18.333-18.667 44 0 25.666 18.667 44.333 18.667 18.667 44 18.667ZM186.666-222.001v35.335-586.668V-222.001Zm0 102.001q-26.333 0-46.499-19.833Q120-159.666 120-186.666v-586.668q0-26.333 20.167-46.499Q160.333-840 186.666-840h586.668q27 0 46.833 20.167Q840-799.667 840-773.334v122.668h-66.666v-122.668H186.666v586.668h586.668v-122.001H840v122.001q0 27-19.833 46.833T773.334-120H186.666ZM532-288.667q-33.666 0-54.833-21.167Q456-331 456-364v-231.333q0-33.667 21.167-54.5T532-670.666h273.333q33.667 0 54.834 20.833 21.166 20.833 21.166 54.5V-364q0 33-21.166 54.166-21.167 21.167-54.834 21.167H532Zm282.667-66.666V-604h-292v248.667h292Z"/></svg>