<?xml version="1.0" encoding="UTF-8" standalone="no"?>
<svg
   xmlns:dc="http://purl.org/dc/elements/1.1/"
   xmlns:cc="http://creativecommons.org/ns#"
   xmlns:rdf="http://www.w3.org/1999/02/22-rdf-syntax-ns#"
   xmlns:svg="http://www.w3.org/2000/svg"
   xmlns="http://www.w3.org/2000/svg"
   xmlns:sodipodi="http://sodipodi.sourceforge.net/DTD/sodipodi-0.dtd"
   xmlns:inkscape="http://www.inkscape.org/namespaces/inkscape"
   height="40"
   viewBox="0 -960 960 960"
   width="40"
   version="1.1"
   id="svg1584"
   sodipodi:docname="wallet.svg"
   inkscape:version="1.0.2 (e86c870879, 2021-01-15)">
  <metadata
     id="metadata1590">
    <rdf:RDF>
      <cc:Work
         rdf:about="">
        <dc:format>image/svg+xml</dc:format>
        <dc:type
           rdf:resource="http://purl.org/dc/dcmitype/StillImage" />
      </cc:Work>
    </rdf:RDF>
  </metadata>
  <defs
     id="defs1588" />
  <sodipodi:namedview
     pagecolor="#ffffff"
     bordercolor="#666666"
     borderopacity="1"
     objecttolerance="10"
     gridtolerance="10"
     guidetolerance="10"
     inkscape:pageopacity="0"
     inkscape:pageshadow="2"
     inkscape:window-width="1593"
     inkscape:window-height="928"
     id="namedview1586"
     showgrid="false"
     inkscape:zoom="23.26404"
     inkscape:cx="18.497996"
     inkscape:cy="27.87068"
     inkscape:window-x="0"
     inkscape:window-y="0"
     inkscape:window-maximized="0"
     inkscape:current-layer="svg1584" />
  <path
     d="M648-417.333q25.334 0 44-18.667 18.667-18.667 18.667-44.333 0-25.667-18.667-44-18.666-18.334-44-18.334-25.333 0-44 18.334-18.667 18.333-18.667 44 0 25.666 18.667 44.333 18.667 18.667 44 18.667ZM186.666-222.001v35.335-586.668V-222.001Zm0 102.001q-26.333 0-46.499-19.833Q120-159.666 120-186.666v-586.668q0-26.333 20.167-46.499Q160.333-840 186.666-840h586.668q27 0 46.833 20.167Q840-799.667 840-773.334v122.668h-66.666v-122.668H186.666v586.668h586.668v-122.001H840v122.001q0 27-19.833 46.833T773.334-120H186.666ZM532-288.667q-33.666 0-54.833-21.167Q456-331 456-364v-231.333q0-33.667 21.167-54.5T532-670.666h273.333q33.667 0 54.834 20.833 21.166 20.833 21.166 54.5V-364q0 33-21.166 54.166-21.167 21.167-54.834 21.167H532Zm282.667-66.666V-604h-292v248.667h292Z"
     id="path1582" />
  <path
     d="m 277.69658,-355.93537 v -30.33749 h -44.33751 v -23.33615 h 30.33716 v -144.68648 h -30.33716 v -23.33615 h 44.33751 v -30.33715 h 23.33681 v 30.33715 h 35.00507 v -30.33715 h 23.33614 v 31.62062 q 18.66892,4.2006 30.3375,18.96094 11.66825,14.76033 11.66825,33.42924 0,9.91782 -3.73366,19.42756 -3.73398,9.50973 -10.73466,17.09377 13.18451,7.11775 20.82743,19.83598 7.6429,12.71823 7.6429,27.6535 0,22.16942 -15.6357,37.92186 -15.63503,15.75211 -38.03625,15.75211 h -2.33648 v 30.3375 h -23.33615 v -30.3375 h -35.00505 v 30.3375 z m 9.33446,-137.68546 h 60.67431 q 12.71755,0 21.52719,-8.92604 8.80964,-8.92604 8.80964,-21.41112 0,-12.71823 -8.80964,-21.52786 -8.80964,-8.80964 -21.52719,-8.80964 h -60.67431 z m 0,84.01215 h 74.67634 q 12.71788,0 21.52753,-8.92604 8.80963,-8.92604 8.80963,-21.41112 0,-12.71823 -8.80963,-21.52786 -8.80965,-8.80964 -21.52753,-8.80964 h -74.67634 z"
     stroke-width="0.35005"
     id="path14" />
</svg>
