<?xml version="1.0" encoding="UTF-8" standalone="no"?>
<svg
   xmlns:dc="http://purl.org/dc/elements/1.1/"
   xmlns:cc="http://creativecommons.org/ns#"
   xmlns:rdf="http://www.w3.org/1999/02/22-rdf-syntax-ns#"
   xmlns:svg="http://www.w3.org/2000/svg"
   xmlns="http://www.w3.org/2000/svg"
   xmlns:sodipodi="http://sodipodi.sourceforge.net/DTD/sodipodi-0.dtd"
   xmlns:inkscape="http://www.inkscape.org/namespaces/inkscape"
   height="48"
   viewBox="0 -960 960 960"
   width="48"
   version="1.1"
   id="svg4"
   sodipodi:docname="whitepaper.svg"
   inkscape:version="1.0.2 (e86c870879, 2021-01-15)">
  <metadata
     id="metadata10">
    <rdf:RDF>
      <cc:Work
         rdf:about="">
        <dc:format>image/svg+xml</dc:format>
        <dc:type
           rdf:resource="http://purl.org/dc/dcmitype/StillImage" />
      </cc:Work>
    </rdf:RDF>
  </metadata>
  <defs
     id="defs8">
    <rect
       x="461.77845"
       y="-820.12418"
       width="379.03831"
       height="307.69967"
       id="rect1660" />
  </defs>
  <sodipodi:namedview
     pagecolor="#ffffff"
     bordercolor="#666666"
     borderopacity="1"
     objecttolerance="10"
     gridtolerance="10"
     guidetolerance="10"
     inkscape:pageopacity="0"
     inkscape:pageshadow="2"
     inkscape:window-width="1560"
     inkscape:window-height="1070"
     id="namedview6"
     showgrid="false"
     inkscape:zoom="24.80257"
     inkscape:cx="18.686992"
     inkscape:cy="18.417956"
     inkscape:window-x="0"
     inkscape:window-y="0"
     inkscape:window-maximized="0"
     inkscape:current-layer="text1658"
     inkscape:document-rotation="0" />
  <path
     d="m 277,-183.99358 h 275 v -60 H 277 Z m 0,-171 h 406 v -60 H 277 Z m 0,-171 h 406 v -60 H 277 Z m -97,501.000001 c -16,0 -30,-6 -42,-18 -12,-12 -18,-26 -18,-42 V -881.82848 c 0,-16 6,-30 18,-42 12,-12 26,-18 42,-18 h 600 c 16,0 30,6 42,18 12,12 18,26 18,42 v 796.834901 c 0,16 -6,30 -18,42 -12,12 -26,18 -42,18 z m 0,-60 H 780 V -881.82848 H 180 Z m 0,-796.834901 v 796.834901 z"
     id="path2"
     sodipodi:nodetypes="cccccccccccccccssssssssssssscccccccc" />
  <path
     d="m 280.51391,-669.59018 v -16.47513 h -24.07756 v -12.67258 H 272.91 v -78.57077 h -16.47365 v -12.67258 h 24.07756 v -16.47513 h 12.67304 v 16.47513 h 19.00828 v -16.47513 h 12.67259 v 17.17163 q 10.1381,2.28104 16.47514,10.29664 6.3363,8.01559 6.3363,18.15355 0,5.38588 -2.02758,10.54994 -2.0277,5.16421 -5.82936,9.28262 7.15969,3.86525 11.31019,10.77177 4.15035,6.9065 4.15035,15.01704 0,12.03893 -8.49089,20.59355 -8.49043,8.55403 -20.65565,8.55403 h -1.26879 v 16.47512 h -12.67259 v -16.47512 h -19.00977 v 16.47512 z m 5.06914,-74.76879 h 32.94878 q 6.90621,0 11.69023,-4.84731 4.78401,-4.84731 4.78401,-11.62724 0,-6.90651 -4.78401,-11.69052 -4.78402,-4.78403 -11.69023,-4.78403 h -32.94878 z m 0,45.62197 h 40.55268 q 6.90637,0 11.69038,-4.84731 4.78401,-4.84731 4.78401,-11.62723 0,-6.90652 -4.78401,-11.69054 -4.78401,-4.78401 -11.69038,-4.78401 h -40.55268 z"
     stroke-width="0.190083"
     id="path4" />
  <g
     aria-label=":"
     id="text94"
     style="font-size:153.357px;line-height:1.25;font-family:sans-serif;fill:#000000;stroke-width:3.83401">
    <path
       d="m 378.57312,-717.15389 h 15.79996 v 19.01986 h -15.79996 z m 0,-60.27949 h 15.79996 v 19.01986 h -15.79996 z"
       style="stroke-width:3.83401"
       id="path1671" />
  </g>
  <g
     aria-label="p2p"
     transform="translate(-50.695273,-11.306846)"
     id="text1658"
     style="font-size:160px;line-height:1.25;font-family:'Annie Use Your Telescope';-inkscape-font-specification:'Annie Use Your Telescope';white-space:pre;shape-inside:url(#rect1660)">
    <path
       d="m 516.1793,-761.90497 q 15.84,0 25.44,11.04 9.76,11.04 9.76,33.28 0,21.92 -9.76,33.28 -9.6,11.36 -25.6,11.36 -9.92,0 -16.48,-3.68 -6.4,-3.84 -10.08,-8.8 h -0.96 q 0.32,2.72 0.64,6.88 0.32,4.16 0.32,7.2 v 35.2 h -14.08 v -124.16 h 11.52 l 1.92,11.68 h 0.64 q 3.84,-5.6 10.08,-9.44 6.24,-3.84 16.64,-3.84 z m -2.56,11.84 q -13.12,0 -18.56,7.36 -5.28,7.36 -5.6,22.4 v 2.72 q 0,15.84 5.12,24.48 5.28,8.48 19.36,8.48 7.84,0 12.8,-4.32 5.12,-4.32 7.52,-11.68 2.56,-7.52 2.56,-17.12 0,-14.72 -5.76,-23.52 -5.6,-8.8 -17.44,-8.8 z"
       style="font-style:normal;font-variant:normal;font-weight:normal;font-stretch:normal;font-family:'Noto Sans';-inkscape-font-specification:'Noto Sans'"
       id="path1664" />
    <path
       d="m 643.37926,-674.54497 h -75.52 v -11.68 l 29.92,-30.24 q 8.64,-8.64 14.56,-15.36 5.92,-6.72 8.96,-13.12 3.04,-6.56 3.04,-14.24 0,-9.44 -5.6,-14.24 -5.6,-4.96 -14.56,-4.96 -8.32,0 -14.72,2.88 -6.24,2.88 -12.8,8 l -7.52,-9.44 q 6.72,-5.6 15.36,-9.44 8.8,-4 19.68,-4 16,0 25.28,8.16 9.28,8 9.28,22.24 0,8.96 -3.68,16.8 -3.68,7.84 -10.24,15.52 -6.56,7.52 -15.36,16.16 l -23.84,23.52 v 0.64 h 57.76 z"
       style="font-style:normal;font-variant:normal;font-weight:normal;font-stretch:normal;font-family:'Noto Sans';-inkscape-font-specification:'Noto Sans'"
       id="path1666" />
    <path
       d="m 706.09904,-761.90497 q 15.84,0 25.44,11.04 9.76,11.04 9.76,33.28 0,21.92 -9.76,33.28 -9.6,11.36 -25.6,11.36 -9.92,0 -16.48,-3.68 -6.4,-3.84 -10.08,-8.8 h -0.96 q 0.32,2.72 0.64,6.88 0.32,4.16 0.32,7.2 v 35.2 h -14.08 v -124.16 h 11.52 l 1.92,11.68 h 0.64 q 3.84,-5.6 10.08,-9.44 6.24,-3.84 16.64,-3.84 z m -2.56,11.84 q -13.12,0 -18.56,7.36 -5.28,7.36 -5.6,22.4 v 2.72 q 0,15.84 5.12,24.48 5.28,8.48 19.36,8.48 7.84,0 12.8,-4.32 5.12,-4.32 7.52,-11.68 2.56,-7.52 2.56,-17.12 0,-14.72 -5.76,-23.52 -5.6,-8.8 -17.44,-8.8 z"
       style="font-style:normal;font-variant:normal;font-weight:normal;font-stretch:normal;font-family:'Noto Sans';-inkscape-font-specification:'Noto Sans'"
       id="path1668" />
  </g>
</svg>
