<?xml version="1.0" encoding="UTF-8" standalone="no"?>
<svg
   xmlns:dc="http://purl.org/dc/elements/1.1/"
   xmlns:cc="http://creativecommons.org/ns#"
   xmlns:rdf="http://www.w3.org/1999/02/22-rdf-syntax-ns#"
   xmlns:svg="http://www.w3.org/2000/svg"
   xmlns="http://www.w3.org/2000/svg"
   xmlns:sodipodi="http://sodipodi.sourceforge.net/DTD/sodipodi-0.dtd"
   xmlns:inkscape="http://www.inkscape.org/namespaces/inkscape"
   height="48"
   viewBox="0 -960 960 960"
   width="48"
   version="1.1"
   id="svg4"
   sodipodi:docname="whitepaper.svg"
   inkscape:version="1.0.2 (e86c870879, 2021-01-15)">
  <metadata
     id="metadata10">
    <rdf:RDF>
      <cc:Work
         rdf:about="">
        <dc:format>image/svg+xml</dc:format>
        <dc:type
           rdf:resource="http://purl.org/dc/dcmitype/StillImage" />
      </cc:Work>
    </rdf:RDF>
  </metadata>
  <defs
     id="defs8">
    <rect
       x="461.77845"
       y="-820.12418"
       width="379.03831"
       height="307.69967"
       id="rect1660" />
  </defs>
  <sodipodi:namedview
     pagecolor="#ffffff"
     bordercolor="#666666"
     borderopacity="1"
     objecttolerance="10"
     gridtolerance="10"
     guidetolerance="10"
     inkscape:pageopacity="0"
     inkscape:pageshadow="2"
     inkscape:window-width="1560"
     inkscape:window-height="1070"
     id="namedview6"
     showgrid="false"
     inkscape:zoom="8.0615539"
     inkscape:cx="-2.2528722"
     inkscape:cy="23.040483"
     inkscape:window-x="0"
     inkscape:window-y="0"
     inkscape:window-maximized="0"
     inkscape:current-layer="text1658"
     inkscape:document-rotation="0" />
  <g
     aria-label="p2p"
     transform="translate(-50.695273,-11.306846)"
     id="text1658"
     style="font-size:160px;line-height:1.25;font-family:'Annie Use Your Telescope';-inkscape-font-specification:'Annie Use Your Telescope';white-space:pre;shape-inside:url(#rect1660)">
    <path
       d="m 758.24162,-557.97741 c 9.34855,0 16.8558,3.25795 22.52161,9.77354 5.7603,6.51572 8.64045,16.33651 8.64045,29.4624 0,12.937 -2.88028,22.75777 -8.64045,29.46236 -5.66581,6.70453 -13.2202,10.05682 -22.66331,10.05682 -5.85465,0 -10.71787,-1.08602 -14.58953,-3.25759 -3.77709,-2.26625 -6.75166,-4.86316 -8.92371,-7.79055 h -0.85 c 0.18604,1.60525 0.37689,3.63529 0.56853,6.09052 0.18605,2.45497 0.2806,4.57986 0.2806,6.37431 v 31.16212 h -12.46282 v -109.91733 h 10.19848 l 1.69941,10.34009 h 0.56859 c 2.26621,-3.305 5.24091,-6.09073 8.92379,-8.35706 3.68287,-2.26624 8.5933,-3.39948 14.73122,-3.39948 z m -2.26654,10.4818 c -7.74337,0 -13.22033,2.17172 -16.43103,6.51544 -3.1164,4.34367 -4.76886,10.9538 -4.95757,19.83045 v 2.40772 c 0,9.34864 1.51109,16.57255 4.53261,21.67182 3.11647,5.00478 8.82936,7.50718 17.13913,7.50718 4.6271,0 8.40433,-1.27474 11.33169,-3.82438 3.02171,-2.54947 5.24091,-5.99631 6.65738,-10.34014 1.51102,-4.43826 2.26653,-9.4903 2.26653,-15.15614 0,-8.68758 -1.69973,-15.62825 -5.09941,-20.82194 -3.30498,-5.19371 -8.45147,-7.79054 -15.43939,-7.79054 z"
       style="font-style:normal;font-variant:normal;font-weight:normal;font-stretch:normal;font-size:160px;line-height:1.25;font-family:'Noto Sans';-inkscape-font-specification:'Noto Sans';white-space:pre;shape-inside:url(#rect1660);stroke-width:0.885287"
       id="path1668"
       sodipodi:nodetypes="ccscsccccsccccccscccccscsccsccc" />
    <path
       d="m 375.64848,-452.16052 v -21.4672 h -31.37327 v -16.51258 h 21.46538 v -102.37833 h -21.46538 v -16.51248 h 31.37327 v -21.46726 h 16.51314 v 21.46726 h 24.76797 v -21.46726 h 16.5124 v 22.37479 c 8.80672,1.98181 15.96251,6.45398 21.46731,13.41659 5.50414,6.96291 8.25617,14.84767 8.25617,23.65432 0,4.67865 -0.88043,9.26084 -2.64163,13.74654 -1.7612,4.48625 -4.29282,8.51808 -7.59521,12.09542 6.21916,3.3574 11.13159,8.03595 14.73722,14.03569 3.60496,5.99923 5.40751,12.52168 5.40751,19.56738 0,10.45787 -3.68793,19.40242 -11.06373,26.83358 -7.3754,7.43062 -16.34693,11.14592 -26.91445,11.14592 h -1.65313 v 21.46723 h -16.51193 v -21.46723 h -24.76997 v 21.46723 z m 6.60531,-97.42442 h 42.9325 c 5.99922,0 11.07665,-2.10527 15.23244,-6.31567 4.15598,-4.21045 6.234,-9.26057 6.234,-15.15035 0,-5.9992 -2.07809,-11.07681 -6.234,-15.23284 -4.15592,-4.15599 -9.23342,-6.23397 -15.23244,-6.23397 h -42.9325 z m 0,59.44588 h 52.84046 c 5.99915,0 11.07672,-2.10527 15.23264,-6.31573 4.15598,-4.21042 6.23394,-9.26057 6.23394,-15.1504 0,-5.9992 -2.07809,-11.07682 -6.23394,-15.23282 -4.15599,-4.15599 -9.23349,-6.234 -15.23264,-6.234 h -52.84046 z"
       stroke-width="0.24768"
       id="path4"
       sodipodi:nodetypes="cccccccccccccccccsscssssccccccccssssscccssssscc" />
    <g
       aria-label=":"
       id="text94-3"
       style="font-size:153.357px;line-height:1.25;font-family:sans-serif;fill:#000000;stroke-width:3.83401"
       transform="matrix(1.3030085,0,0,1.3030085,2.4942235,346.4806)">
      <path
         d="m 384.43828,-660.48467 h 15.79996 v 19.01986 h -15.79996 z m 0,-60.27949 h 15.79996 v 19.01986 h -15.79996 z"
         style="stroke-width:3.83401"
         id="path1671" />
    </g>
    <path
       d="m 590.10801,-557.97741 c 9.34861,0 16.8558,3.25795 22.52167,9.77354 5.76024,6.51572 8.64045,16.33651 8.64045,29.4624 0,12.937 -2.88028,22.75777 -8.64045,29.46236 -5.66587,6.70453 -13.22027,10.05682 -22.66337,10.05682 -5.85466,0 -10.71781,-1.08602 -14.58946,-3.25759 -3.7771,-2.26625 -6.75161,-4.86316 -8.92379,-7.79055 h -0.85 c 0.18605,1.60525 0.37716,3.63529 0.56913,6.09052 0.18612,2.45497 0.28061,4.57986 0.28061,6.37431 v 31.16212 h -12.46423 v -109.91733 h 10.19856 l 1.6994,10.34009 h 0.5686 c 2.2662,-3.305 5.24084,-6.09073 8.92365,-8.35706 3.68287,-2.26624 8.5933,-3.39948 14.73123,-3.39948 z m -2.26654,10.4818 c -7.7433,0 -13.22027,2.17172 -16.4309,6.51544 -3.11647,4.34367 -4.76886,10.9538 -4.95751,19.83045 v 2.40772 c 0,9.34864 1.51096,16.57255 4.53261,21.67182 3.11614,5.00478 8.82936,7.50718 17.13913,7.50718 4.6271,0 8.40433,-1.27474 11.33169,-3.82438 3.02165,-2.54947 5.24084,-5.99631 6.65738,-10.34014 1.51069,-4.43826 2.26587,-9.4903 2.26587,-15.15614 0,-8.68758 -1.7,-15.62825 -5.09941,-20.82194 -3.30498,-5.19371 -8.45147,-7.79054 -15.43939,-7.79054 z"
       style="font-style:normal;font-variant:normal;font-weight:normal;font-stretch:normal;font-size:160px;line-height:1.25;font-family:'Noto Sans';-inkscape-font-specification:'Noto Sans';white-space:pre;shape-inside:url(#rect1660);stroke-width:0.885287"
       id="path1664"
       sodipodi:nodetypes="ccscsccccsccccccscccccscsccsccc" />
    <path
       d="m 702.71652,-480.63871 h -66.85693 v -10.34021 l 26.48782,-26.77102 c 5.09928,-5.09924 9.39589,-9.63193 12.88986,-13.59807 3.49363,-3.9662 6.13772,-7.83786 7.93214,-11.61495 1.7943,-3.87165 2.69158,-8.07381 2.69158,-12.6065 0,-5.57141 -1.65253,-9.7736 -4.95765,-12.60654 -3.30498,-2.92724 -7.6016,-4.39068 -12.88979,-4.39068 -4.91036,0 -9.25419,0.85003 -13.03142,2.54949 -3.68288,1.69975 -7.46004,4.06065 -11.33162,7.08232 l -6.65745,-8.35719 c 3.96614,-3.30499 8.49888,-6.09069 13.59803,-8.35708 5.1937,-2.36076 11.00114,-3.5408 17.4224,-3.5408 9.44304,0 16.90307,2.408 22.38004,7.2239 5.47703,4.72151 8.21548,11.28445 8.21548,19.6888 0,5.28811 -1.08599,10.24569 -3.25757,14.87283 -2.17172,4.62708 -5.1935,9.20697 -9.06535,13.73966 -3.87166,4.4382 -8.40433,9.20699 -13.59803,14.30628 l -21.10521,20.82195 v 0.56855 h 51.13413 z"
       style="font-style:normal;font-variant:normal;font-weight:normal;font-stretch:normal;font-size:160px;line-height:1.25;font-family:'Noto Sans';-inkscape-font-specification:'Noto Sans';white-space:pre;shape-inside:url(#rect1660);stroke-width:0.885287"
       id="path1666"
       sodipodi:nodetypes="ccccscscsccccscsscccccc" />
    <path
       d="m 585.55502,-615.82942 c -6.75326,0 -12.49359,-2.36814 -17.22083,-7.10438 -4.72718,-4.73613 -7.09074,-10.48721 -7.09074,-17.2532 0,-0.94719 0.0945,-2.04473 0.2806,-3.29212 0.18605,-1.24757 0.46666,-2.3705 0.83849,-3.36843 l -62.03619,-36.04808 c -2.1889,2.28218 -4.7971,4.11012 -7.82434,5.48413 -3.02731,1.37369 -6.14778,2.06068 -9.36147,2.06068 -6.75314,0 -12.49339,-2.36371 -17.22064,-7.09077 -4.72718,-4.72732 -7.09074,-10.46759 -7.09074,-17.22074 0,-6.75315 2.36343,-12.49338 7.09074,-17.22071 4.72725,-4.72717 10.4675,-7.09076 17.22064,-7.09076 3.21369,0 6.28761,0.61699 9.2217,1.85097 2.93402,1.23428 5.58883,2.99257 7.96411,5.27456 l 62.03619,-35.76874 c -0.37243,-0.93833 -0.65217,-1.99363 -0.83849,-3.16615 -0.18611,-1.17255 -0.2806,-2.30611 -0.2806,-3.40066 0,-6.75315 2.36369,-12.49339 7.09074,-17.22071 4.72724,-4.7272 10.46757,-7.09079 17.22083,-7.09079 6.75314,0 12.49326,2.3637 17.22037,7.09079 4.72738,4.72732 7.09114,10.46756 7.09114,17.22071 0,6.75315 -2.36376,12.49332 -7.09114,17.2205 -4.72711,4.72733 -10.46723,7.09101 -17.22037,7.09101 -3.24658,0 -6.352,-0.54729 -9.31625,-1.64187 -2.96425,-1.09428 -5.54089,-2.78251 -7.72986,-5.06477 l -62.03618,34.93041 c 0.27754,1.02458 0.51146,2.20067 0.69784,3.5279 0.18612,1.32731 0.28061,2.4913 0.28061,3.49184 0,1.00036 -0.0945,2.03675 -0.28061,3.10873 -0.18604,1.07213 -0.41964,2.12033 -0.69784,3.145 l 62.03618,35.48933 c 2.1891,-2.00279 4.70395,-3.59795 7.54487,-4.7856 2.841,-1.18761 6.00815,-1.78157 9.50124,-1.78157 6.75314,0 12.49326,2.36371 17.22037,7.09101 4.72738,4.7272 7.09114,10.46738 7.09114,17.22053 0,6.75315 -2.36376,12.49339 -7.09114,17.22071 -4.72711,4.72721 -10.46723,7.09079 -17.22037,7.09079 z m 0.007,-133.01473 c 2.93109,0 5.38614,-0.9912 7.36562,-2.97396 1.97947,-1.9827 2.96904,-4.43935 2.96904,-7.37017 0,-2.93108 -0.99123,-5.38611 -2.97397,-7.36553 -1.98267,-1.97946 -4.43945,-2.96918 -7.37034,-2.96918 -2.93076,0 -5.38594,0.9912 -7.36548,2.97399 -1.97941,1.9827 -2.96925,4.43957 -2.96925,7.37035 0,2.93078 0.99124,5.38614 2.97397,7.36556 1.98274,1.97916 4.43959,2.96894 7.37041,2.96894 z m -102.41568,59.52147 c 2.93109,0 5.38607,-0.9915 7.36548,-2.97418 1.97941,-1.98269 2.96904,-4.43935 2.96904,-7.37013 0,-2.93108 -0.99123,-5.38611 -2.97397,-7.36553 -1.98274,-1.97946 -4.43945,-2.96918 -7.37041,-2.96918 -2.93082,0 -5.38594,0.99149 -7.36541,2.97416 -1.97948,1.98271 -2.96905,4.43936 -2.96905,7.37017 0,2.93108 0.99117,5.38611 2.97398,7.36557 1.98267,1.97945 4.43951,2.96912 7.37034,2.96912 z m 102.41568,59.52128 c 2.93109,0 5.38614,-0.9912 7.36562,-2.97397 1.97947,-1.98269 2.96904,-4.43955 2.96904,-7.37037 0,-2.93108 -0.99123,-5.38611 -2.97397,-7.36554 -1.98267,-1.97915 -4.43945,-2.96893 -7.37034,-2.96893 -2.93076,0 -5.38594,0.9912 -7.36548,2.97396 -1.97941,1.9827 -2.96925,4.43941 -2.96925,7.37034 0,2.93079 0.99124,5.38594 2.97397,7.36536 1.98274,1.97945 4.43959,2.96915 7.37041,2.96915 z"
       id="path945"
       style="stroke-width:0.209582"
       sodipodi:nodetypes="ssssccssssssscccsssssssscccssccssssssssssssssssssssssssssssssssss" />
    <path
       d="m 368.11606,-180.07715 h 363.15565 v -54.71386 H 368.11606 Z m 0,-154.81659 H 731.27171 V -389.6063 H 368.11606 Z M 257.57552,-6.0604525 c -18.91011,0 -35.22987,-6.8645355 -48.95935,-20.5936735 -13.72887,-13.729005 -20.59327,-30.0489 -20.59327,-48.959551 V -852.74144 c 0,-18.9107 6.8644,-35.23058 20.59327,-48.95963 13.72948,-13.72911 30.04924,-20.59367 48.95935,-20.59367 h 418.9818 l 234.80755,234.80732 v 611.873743 c 0,18.910651 -6.8644,35.230546 -20.59334,48.959551 -13.72947,13.729138 -30.04923,20.5936735 -48.95935,20.5936735 z M 649.20099,-662.8201 V -867.58091 H 257.57552 c -3.71217,0 -7.11291,1.54558 -10.20234,4.63686 -3.09244,3.09184 -4.63869,6.49277 -4.63869,10.20278 v 777.127727 c 0,3.709708 1.54619,7.110646 4.63869,10.202747 3.09243,3.091302 6.49324,4.636886 10.20234,4.636886 h 584.23666 c 3.71217,0 7.11298,-1.545584 10.20235,-4.636886 3.0925,-3.091834 4.63875,-6.492706 4.63875,-10.202747 V -662.8199 Z m -406.4647,-204.76081 v 204.76081 -204.76081 806.8066 z"
       id="path1612"
       style="stroke-width:1.20556"
       sodipodi:nodetypes="ccccccccccssssssccssssccscsscsscsccccccc" />
  </g>
</svg>
