<?xml version="1.0" encoding="UTF-8" standalone="no"?>
<svg
   xmlns:dc="http://purl.org/dc/elements/1.1/"
   xmlns:cc="http://creativecommons.org/ns#"
   xmlns:rdf="http://www.w3.org/1999/02/22-rdf-syntax-ns#"
   xmlns:svg="http://www.w3.org/2000/svg"
   xmlns="http://www.w3.org/2000/svg"
   xmlns:sodipodi="http://sodipodi.sourceforge.net/DTD/sodipodi-0.dtd"
   xmlns:inkscape="http://www.inkscape.org/namespaces/inkscape"
   height="48"
   viewBox="0 -960 960 960"
   width="48"
   version="1.1"
   id="svg4"
   sodipodi:docname="whitepaper.svg"
   inkscape:version="1.0.2 (e86c870879, 2021-01-15)">
  <metadata
     id="metadata10">
    <rdf:RDF>
      <cc:Work
         rdf:about="">
        <dc:format>image/svg+xml</dc:format>
        <dc:type
           rdf:resource="http://purl.org/dc/dcmitype/StillImage" />
      </cc:Work>
    </rdf:RDF>
  </metadata>
  <defs
     id="defs8" />
  <sodipodi:namedview
     pagecolor="#ffffff"
     bordercolor="#666666"
     borderopacity="1"
     objecttolerance="10"
     gridtolerance="10"
     guidetolerance="10"
     inkscape:pageopacity="0"
     inkscape:pageshadow="2"
     inkscape:window-width="1560"
     inkscape:window-height="1070"
     id="namedview6"
     showgrid="false"
     inkscape:zoom="8.4215417"
     inkscape:cx="-3.2251652"
     inkscape:cy="43.160793"
     inkscape:window-x="0"
     inkscape:window-y="0"
     inkscape:window-maximized="0"
     inkscape:current-layer="svg4" />
  <path
     d="m 277,-183.99358 h 275 v -60 H 277 Z m 0,-171 h 406 v -60 H 277 Z m 0,-171 h 406 v -60 H 277 Z m -97,501.000001 c -16,0 -30,-6 -42,-18 -12,-12 -18,-26 -18,-42 V -881.82848 c 0,-16 6,-30 18,-42 12,-12 26,-18 42,-18 h 600 c 16,0 30,6 42,18 12,12 18,26 18,42 v 796.834901 c 0,16 -6,30 -18,42 -12,12 -26,18 -42,18 z m 0,-60 H 780 V -881.82848 H 180 Z m 0,-796.834901 v 796.834901 z"
     id="path2"
     sodipodi:nodetypes="cccccccccccccccssssssssssssscccccccc" />
  <path
     d="m 315.68333,-629.63352 v -27.55253 h -40.26662 v -21.19326 h 27.55006 v -131.39945 h -27.55006 v -21.19327 h 40.26662 v -27.55252 h 21.194 v 27.55252 h 31.7889 v -27.55252 h 21.19328 v 28.71734 q 16.95465,3.81473 27.55253,17.21979 10.59665,13.40505 10.59665,30.35947 0,9.00718 -3.39086,17.6434 -3.39108,8.63649 -9.74885,15.524 11.97365,6.46413 18.91482,18.01438 6.94093,11.55024 6.94093,25.11407 0,20.13355 -14.19991,34.44005 -14.19916,14.30551 -34.54391,14.30551 h -2.1219 v 27.55252 h -21.19327 v -27.55252 h -31.79137 v 27.55252 z m 8.47746,-125.04116 h 55.10258 q 11.54975,0 19.55041,-8.10649 8.00063,-8.1065 8.00063,-19.44505 0,-11.55026 -8.00063,-19.5509 -8.00066,-8.00065 -19.55041,-8.00065 h -55.10258 z m 0,76.29685 h 67.81913 q 11.55,0 19.55065,-8.10649 8.00064,-8.1065 8.00064,-19.44505 0,-11.55025 -8.00064,-19.5509 -8.00065,-8.00065 -19.55065,-8.00065 h -67.81913 z"
     stroke-width="0.317889"
     id="path4" />
  <text
     x="449.6196"
     y="-677.36938"
     fill="#000000"
     font-family="sans-serif"
     font-size="256.47px"
     stroke-width="6.41189"
     style="line-height:1.25"
     xml:space="preserve"
     id="text94"><tspan
       x="449.6196"
       y="-677.36938"
       stroke-width="6.41189"
       id="tspan92">:</tspan></text>
</svg>
