<svg width="800" height="800" version="1.1" viewBox="0 0 211.67 211.67" xmlns="http://www.w3.org/2000/svg">
 <g transform="translate(.058227 -72.521)">
  <g transform="translate(41.934 112.66)">
   <path d="m65.419 0.36106a63.719 63.72 0 0 0-63.72 63.72 63.719 63.72 0 0 0 63.72 63.719 63.719 63.72 0 0 0 63.719-63.719 63.719 63.72 0 0 0-63.719-63.72zm-34.705 28.607 18.962 0.06599 17.785 24.847 9.8729-13.077-6.6037-0.78448v-11.05h31.973v11.508l-6.4077 1.1117-18.177 22.296 19.158 23.343 6.6697 1.0464v11.443h-18.635l-19.093-25.566-10.331 13.862 5.6886 0.71916v10.985h-31.516v-11.443l6.6044-1.0464 19.093-23.016-18.439-22.623-6.6044-1.1117z" fill="#ffb200" stroke="#000" stroke-dasharray="0, 6.182" stroke-linejoin="bevel" stroke-miterlimit="4.1" stroke-opacity=".25297" stroke-width=".562"/>
  </g>
  <g transform="translate(-23.644 -1.7012)" style="shape-inside:url(#rect5059);white-space:pre" aria-label="UNSPENT since #744,380">
   <path d="m116.04 254.08q0 0.93133-0.3175 1.5134-0.30691 0.58208-0.85724 0.85725-0.55033 0.26458-1.2488 0.26458-1.1536 0-1.778-0.65616-0.62441-0.66675-0.62441-1.9897v-5.0165h0.27516v4.9847q0 1.2382 0.56092 1.8309 0.56091 0.58208 1.5769 0.58208 0.9525 0 1.5452-0.55033 0.59267-0.56092 0.59267-1.7886v-5.0588h0.27516z"/>
   <path d="m122.59 256.61h-0.24341l-4.1169-6.9638h-0.0212q0.0106 0.37041 0.0106 0.70908 0 0.33866 0 0.762v5.4927h-0.27517v-7.5565h0.254l4.1063 6.9426h0.0212q-0.0106-0.39158-0.0106-0.78317 0-0.40216 0-0.71966v-5.4398h0.27516z"/>
   <path d="m128.21 254.68q0 0.67733-0.30691 1.1324-0.29633 0.4445-0.81492 0.67733-0.50799 0.22225-1.1642 0.22225-0.5715 0-1.016-0.0847-0.43391-0.0847-0.78316-0.21167v-0.30692q0.37042 0.14817 0.8255 0.24342 0.45508 0.0953 0.99483 0.0953 0.85724 0 1.4182-0.4445 0.56091-0.4445 0.56091-1.3229 0-0.51858-0.22224-0.83608-0.21167-0.3175-0.62442-0.52917-0.41275-0.22225-0.99483-0.4445-0.53975-0.20108-0.96308-0.43391t-0.67733-0.60325q-0.24342-0.37041-0.24342-0.98425 0-0.63499 0.28575-1.0583 0.28575-0.42333 0.78317-0.63499 0.49741-0.21167 1.1218-0.21167 0.88899 0 1.6616 0.35983l-0.11641 0.23284q-0.42333-0.1905-0.8255-0.254-0.39158-0.0741-0.74083-0.0741-0.80433 0-1.3441 0.40217-0.53975 0.40216-0.53975 1.2171 0 0.56091 0.23283 0.88899 0.23284 0.32809 0.62442 0.53975 0.40216 0.20109 0.87841 0.381 0.60325 0.22225 1.0478 0.46567 0.4445 0.23283 0.68791 0.60325 0.254 0.35983 0.254 0.97366z"/>
   <path d="m131.22 249.05q1.1748 0 1.778 0.47625 0.61383 0.46567 0.61383 1.5875 0 1.2277-0.65616 1.7462-0.65617 0.51858-1.8309 0.51858h-1.1112v3.2279h-0.27517v-7.5565zm-0.0317 0.26459h-1.1748v3.7994h1.1218q0.67733 0 1.1642-0.17992 0.49742-0.19049 0.762-0.62441 0.26458-0.4445 0.26458-1.1959 0-0.97367-0.52916-1.3864-0.51859-0.41274-1.6087-0.41274z"/>
   <path d="m138.68 256.61h-3.5666v-7.5565h3.5666v0.26459h-3.2914v3.175h3.1115v0.26458h-3.1115v3.5877h3.2914z"/>
   <path d="m144.92 256.61h-0.24341l-4.1169-6.9638h-0.0212q0.0106 0.37041 0.0106 0.70908 0 0.33866 0 0.762v5.4927h-0.27517v-7.5565h0.254l4.1063 6.9426h0.0212q-0.0106-0.39158-0.0106-0.78317 0-0.40216 0-0.71966v-5.4398h0.27516z"/>
   <path d="m148.39 256.61h-0.27517v-7.2919h-2.159v-0.26459h4.6037v0.26459h-2.1696z"/>
   <path d="m127.73 263.1q0 0.27093-0.18204 0.4318-0.18203 0.16086-0.55033 0.16086-0.2032 0-0.37253-0.0423-0.1651-0.0466-0.2667-0.0974v-0.127q0.1397 0.0762 0.30056 0.11854 0.1651 0.0423 0.33867 0.0423 0.32597 0 0.4699-0.13123 0.14817-0.13124 0.14817-0.35984 0-0.15663-0.0762-0.254-0.072-0.0974-0.2032-0.16086-0.13124-0.0635-0.29634-0.127-0.17356-0.072-0.3175-0.1397-0.14393-0.072-0.2286-0.18204-0.0847-0.1143-0.0847-0.3048 0-0.24976 0.18203-0.40216t0.51647-0.1524q0.16933 0 0.3175 0.0381 0.1524 0.0339 0.2667 0.0847l-0.0508 0.10584q-0.0974-0.055-0.24554-0.0889-0.14393-0.0339-0.28786-0.0339-0.27094 0-0.4318 0.1143-0.15664 0.1143-0.15664 0.33443 0 0.15664 0.072 0.24554 0.0762 0.0889 0.19897 0.1524 0.127 0.0593 0.28363 0.12276 0.16933 0.072 0.3175 0.14394 0.1524 0.072 0.24553 0.1905 0.0931 0.1143 0.0931 0.3175z"/>
   <path d="m128.33 260.59q0.0677 0 0.0889 0.0423t0.0212 0.0931q0 0.055-0.0254 0.0974-0.0212 0.0381-0.0889 0.0381-0.0593 0-0.0847-0.0381-0.0212-0.0423-0.0212-0.0974 0-0.0508 0.0212-0.0931 0.0254-0.0423 0.0889-0.0423zm0.0508 0.82126v2.2352h-0.11006v-2.2352z"/>
   <path d="m129.92 261.37q0.31326 0 0.48683 0.18626 0.17357 0.18627 0.17357 0.57997v1.5113h-0.11007v-1.4901q0-0.35984-0.14817-0.5207-0.14393-0.16087-0.40216-0.16087-0.30903 0-0.51223 0.2159t-0.2032 0.66463v1.2912h-0.11007v-2.2352h0.0889l0.0127 0.47413h8e-3q0.0381-0.127 0.127-0.24553t0.23283-0.19473 0.3556-0.0762z"/>
   <path d="m132.05 263.69q-0.31327 0-0.51647-0.14393-0.19896-0.14817-0.29633-0.40217-0.0931-0.25823-0.0931-0.59266 0-0.35984 0.1143-0.6223 0.11853-0.2667 0.33443-0.41064 0.2159-0.14816 0.51647-0.14816 0.24553 0 0.44026 0.0931l-0.0254 0.1016q-0.1016-0.0466-0.20743-0.0677-0.1016-0.0212-0.20743-0.0212-0.3937 0-0.62654 0.28787-0.2286 0.28786-0.2286 0.78316 0 0.29634 0.0804 0.52917 0.0847 0.23283 0.25823 0.37253 0.1778 0.13547 0.46143 0.13547 0.127 0 0.24977-0.0254 0.127-0.0254 0.23283-0.072v0.11007q-0.0889 0.0381-0.2159 0.0635-0.127 0.0296-0.27093 0.0296z"/>
   <path d="m133.74 261.37q0.26247 0 0.42334 0.14393 0.16086 0.1397 0.23283 0.37253 0.0762 0.23284 0.0762 0.51224v0.11006h-1.4605q-4e-3 0.5207 0.19473 0.8001 0.2032 0.27517 0.58844 0.27517 0.16933 0 0.30056-0.0339 0.13124-0.0339 0.29634-0.11853v0.11853q-0.13547 0.072-0.2794 0.10584-0.1397 0.0339-0.3175 0.0339-0.31327 0-0.51224-0.14393-0.19473-0.14817-0.28786-0.4064-0.0931-0.25823-0.0931-0.5969 0-0.32597 0.0889-0.59267 0.0931-0.2667 0.2794-0.42333 0.18627-0.15663 0.4699-0.15663zm0 0.10583q-0.3048 0-0.49953 0.23707-0.1905 0.23283-0.22437 0.69426h1.3462q0-0.2667-0.0677-0.47836-0.0635-0.21167-0.2032-0.3302-0.13547-0.12277-0.35137-0.12277z"/>
   <path d="m119.36 267.88q0.0423-8e-3 0.0889 4e-3 4e-3 0 0.0127 4e-3 0.0127 4e-3 0.0254 8e-3 0.0593 0.0296 0.0889 0.0931 0.0169 0.0339 0.0169 0.0635 4e-3 0.0296 4e-3 0.24553v0.25824h0.3937v-0.24554q0-0.2667 0.0127-0.30056 0.0127-0.0381 0.0466-0.072 0.0339-0.0381 0.072-0.0508 0.0804-0.0254 0.16087 8e-3 0.0127 8e-3 0.0254 0.0212 0.0169 8e-3 0.0254 0.0212 0.0127 8e-3 0.0212 0.0212 8e-3 0.0127 0.0169 0.0296 0.0169 0.0339 0.0169 0.0635 4e-3 0.0296 4e-3 0.24553v0.25824h0.11007q0.0593 0 0.0847 0 0.0296 0 0.0381 4e-3 0.0296 4e-3 0.055 0.0169 0.0254 0.0127 0.0466 0.0339 0.0212 0.0169 0.0339 0.0423 0.0169 0.0212 0.0212 0.0508 8e-3 0.0254 8e-3 0.055 0 0.072-0.0466 0.13124-0.0466 0.055-0.11853 0.0677-4e-3 0-0.0127 0-4e-3 0-0.0127 4e-3 -8e-3 0-0.0254 0-0.0127 0-0.0339 0-0.0169 0-0.0381 0h-0.11007v0.4445h0.11007q0.0212 0 0.0381 0 0.0212 0 0.0339 0 0.0169 0 0.0254 4e-3 8e-3 0 0.0127 0 8e-3 0 0.0127 0 0.0508 8e-3 0.0847 0.0381 0.0381 0.0296 0.0593 0.072 0.0212 0.0423 0.0212 0.0889 0 0.0762-0.0466 0.13124-0.0466 0.055-0.11853 0.0677-0.0169 4e-3 -0.12277 4e-3h-0.11007v0.24977q0 0.0762 0 0.12277 0 0.0466 0 0.0804 0 0.0296 0 0.0423t-4e-3 0.0212q-0.0127 0.072-0.0677 0.11853-0.055 0.0466-0.13124 0.0466-0.0254 0-0.055-8e-3 -0.0254-8e-3 -0.0508-0.0212-0.0212-0.0169-0.0423-0.0339-0.0169-0.0212-0.0296-0.0466t-0.0212-0.055q0-8e-3 0-0.0339 0-0.0254 0-0.0762t0-0.15663v-0.24977h-0.3937v0.24977q0 0.1016 0 0.15663 0 0.0508 0 0.0762t0 0.0339q-0.0169 0.072-0.072 0.11853-0.055 0.0466-0.13123 0.0466-0.0339 0-0.0677-0.0127-0.0339-0.0127-0.0593-0.0339t-0.0466-0.0508q-0.0169-0.0339-0.0254-0.0677 0-0.0212 0-0.2667v-0.24977h-0.11853q-0.1143 0-0.13124-8e-3 -0.0466-0.0127-0.0804-0.0381-0.0339-0.0296-0.0508-0.0677-0.0169-0.0423-0.0169-0.0889 0-0.0677 0.0381-0.11853 0.0423-0.055 0.11006-0.0762 0.0169-4e-3 0.13124-8e-3h0.11853v-0.4445h-0.11853q-0.1143 0-0.13124-8e-3 -0.0677-0.0212-0.11006-0.072-0.0381-0.055-0.0381-0.12277 0-0.0339 8e-3 -0.0635 0.0127-0.0339 0.0296-0.0593 0.0212-0.0254 0.0466-0.0423 0.0296-0.0212 0.0635-0.0296 0.0169-8e-3 0.13124-8e-3h0.11853v-0.24554q0-0.2667 0.0127-0.30056 0.0127-0.0381 0.0466-0.072 0.0254-0.0254 0.0466-0.0381 0.0254-0.0127 0.0593-0.0212zm0.63077 1.3081v-0.22437h-0.3937v0.4445h0.3937z"/>
   <path d="m121.99 267.88q8e-3 0 0.18627 0 0.18203-4e-3 0.7366-4e-3h0.91016v0.6223q0 0.50376-4e-3 0.57573 0 0.0677-8e-3 0.0974-0.0127 0.0381-0.0423 0.0677-0.0169 0.0169-0.381 0.32597l-0.36407 0.31326v0.4826q0 0.4064-4e-3 0.45297 0 0.0466-0.0169 0.0804-0.0127 0.0339-0.0381 0.055-0.0212 0.0212-0.0508 0.0381-0.0804 0.0381-0.16087 8e-3 -0.0381-0.0127-0.072-0.0466-8e-3 -0.0127-0.0169-0.0212-8e-3 -8e-3 -0.0127-0.0169-4e-3 -8e-3 -8e-3 -0.0169-4e-3 -8e-3 -8e-3 -0.0169-0.0127-0.0296-0.0127-0.0931t0-0.49107q0-0.5461 0.0127-0.57997 0.0169-0.0381 0.0423-0.0677 0.0169-0.0169 0.37677-0.32597l0.36406-0.30903v-0.72813h-1.1896l-4e-3 8e-3q-4e-3 0.0339-0.0212 0.0593-0.0254 0.0466-0.0677 0.072-0.0169 8e-3 -0.0339 0.0169-0.0127 4e-3 -0.0296 8e-3t-0.0339 4e-3q-0.0169 0-0.0339 0-0.072-8e-3 -0.12277-0.0635-0.0296-0.0339-0.0423-0.0677-0.0127-0.0381-0.0127-0.15663 0-0.11854 0.0127-0.1524 0.0127-0.0381 0.0466-0.072 0.0466-0.0466 0.10583-0.0593z"/>
   <path d="m125.11 267.88q0.0423-8e-3 0.0889 4e-3 0.0423 8e-3 0.0762 0.0381 0.0254 0.0212 0.0423 0.0508 0.0169 0.0254 0.0296 0.055l4e-3 0.78316v0.77047h0.7874v-1.198l8e-3 -0.0169q0.0169-0.055 0.055-0.0931 0.0423-0.0381 0.0931-0.0508 0.0127-4e-3 0.0212-4e-3 0.0127 0 0.0339 0 0.0254 0 0.0423 4e-3t0.0381 0.0169q0.0804 0.0381 0.10583 0.127l8e-3 0.0169v1.198h0.0169q0.0339 4e-3 0.0635 0.0212 0.0339 0.0127 0.0593 0.0381t0.0423 0.0593q8e-3 0.0254 0.0127 0.055 4e-3 0.0296 0 0.0593-4e-3 0.0254-0.0127 0.0508-0.0254 0.0508-0.0677 0.0847-0.0423 0.0296-0.0974 0.0339l-0.0169 4e-3v0.42757q0 0.0381 0 0.10583 0 0.24977-4e-3 0.29633 0 0.0466-0.0127 0.0677-4e-3 4e-3 -4e-3 8e-3 -0.0296 0.0635-0.0931 0.0931-0.0762 0.0381-0.15663 8e-3 -0.0381-0.0127-0.0762-0.0466-0.0339-0.0381-0.0466-0.072-0.0127-0.0381-0.0127-0.47413v-0.4191h-1.1938v-0.96097q0-0.77893 0-0.88053 4e-3 -0.10583 0.0127-0.13547 4e-3 -8e-3 8e-3 -0.0169 4e-3 -8e-3 8e-3 -0.0169 8e-3 -8e-3 0.0127-0.0169 8e-3 -8e-3 0.0212-0.0169 0.0212-0.0254 0.0423-0.0381 0.0254-0.0127 0.0593-0.0212z"/>
   <path d="m128.14 267.88q0.0423-8e-3 0.0889 4e-3 0.0423 8e-3 0.0762 0.0381 0.0254 0.0212 0.0423 0.0508 0.0169 0.0254 0.0296 0.055l4e-3 0.78316v0.77047h0.7874v-1.198l8e-3 -0.0169q0.0169-0.055 0.055-0.0931 0.0423-0.0381 0.0931-0.0508 0.0127-4e-3 0.0212-4e-3 0.0127 0 0.0339 0 0.0254 0 0.0423 4e-3t0.0381 0.0169q0.0804 0.0381 0.10584 0.127l8e-3 0.0169v1.198h0.0169q0.0339 4e-3 0.0635 0.0212 0.0339 0.0127 0.0593 0.0381t0.0423 0.0593q8e-3 0.0254 0.0127 0.055 4e-3 0.0296 0 0.0593-4e-3 0.0254-0.0127 0.0508-0.0254 0.0508-0.0677 0.0847-0.0423 0.0296-0.0974 0.0339l-0.0169 4e-3v0.42757q0 0.0381 0 0.10583 0 0.24977-4e-3 0.29633 0 0.0466-0.0127 0.0677-4e-3 4e-3 -4e-3 8e-3 -0.0296 0.0635-0.0931 0.0931-0.0762 0.0381-0.15663 8e-3 -0.0381-0.0127-0.0762-0.0466-0.0339-0.0381-0.0466-0.072-0.0127-0.0381-0.0127-0.47413v-0.4191h-1.1938v-0.96097q0-0.77893 0-0.88053 4e-3 -0.10583 0.0127-0.13547 4e-3 -8e-3 8e-3 -0.0169 4e-3 -8e-3 8e-3 -0.0169 8e-3 -8e-3 0.0127-0.0169 8e-3 -8e-3 0.0212-0.0169 0.0212-0.0254 0.0423-0.0381 0.0254-0.0127 0.0593-0.0212z"/>
   <path d="m131.47 269.58q8e-3 0 0.4318 0 0.35983 0 0.40217 4e-3 0.0423 0 0.0804 0.0169 0.0296 0.0127 0.0508 0.0381 0.0254 0.0212 0.0381 0.0508 0.0169 0.0381 0.0169 0.0931 4e-3 0.0508 4e-3 0.51223 0 0.4572-4e-3 0.51224 0 0.0508-0.0169 0.0847-0.0296 0.0635-0.0889 0.0931-0.0804 0.0381-0.16087 8e-3 -0.0381-0.0127-0.072-0.0466-0.0339-0.0381-0.0466-0.072-0.0127-0.0381-0.0127-0.47413v-0.4191h-0.3175q-0.26247 0-0.30057 0-0.0339-4e-3 -0.0677-0.0212-0.0762-0.0381-0.10583-0.127-0.0169-0.0508 0-0.10583l0.0381-0.072q0.0508-0.0635 0.13123-0.0762z"/>
   <path d="m134.1 267.88q0.0127-4e-3 0.73236-4e-3 0.74084 0 0.79164 0.0127 0.0762 0.0212 0.1397 0.072 0.0677 0.0466 0.10583 0.11853 0.0423 0.0677 0.055 0.1524 4e-3 0.0296 4e-3 0.4318 0 0.40216-4e-3 0.44026-0.0212 0.17357-0.13123 0.30904-0.0169 0.0254-0.0212 0.0296 0 0 0.0169 0.0212 0.0677 0.0804 0.1016 0.1778 0.0212 0.0508 0.0296 0.1143l8e-3 0.0339v0.8636l-8e-3 0.0254q-0.0212 0.10584-0.0847 0.18204-0.0508 0.0593-0.12276 0.0974-0.0677 0.0381-0.14817 0.0466-0.0212 4e-3 -0.74507 4e-3h-0.7239l-0.0169-8e-3q-0.0677-0.0212-0.11007-0.072-0.0381-0.055-0.0381-0.12277 0-0.0466 0.0169-0.0847t0.0508-0.0677 0.0804-0.0423l0.0169-4e-3 0.71544-4e-3h0.7112v-0.3937q0-0.33443-4e-3 -0.37253 0-0.0423-0.0169-0.0762-0.0296-0.0635-0.0931-0.0931-0.0339-0.0169-0.0804-0.0169-0.0423-4e-3 -0.40216-4e-3 -0.36407-4e-3 -0.41064-4e-3 -0.0423-4e-3 -0.0762-0.0169-0.0381-0.0212-0.0677-0.0508-0.0254-0.0339-0.0381-0.0762-4e-3 -0.0212-4e-3 -0.055 0-0.0381 4e-3 -0.055 8e-3 -0.0212 0.0169-0.0381 0.0127-0.0212 0.0254-0.0381t0.0296-0.0296 0.0339-0.0212q0.0339-0.0169 0.0762-0.0169 0.0466-4e-3 0.41064-4e-3h0.4318l0.0212-8e-3q0.10584-0.0339 0.1397-0.14393 4e-3 -0.0169 4e-3 -0.41063v-0.3937h-1.4266l-0.0169-8e-3q-0.0466-0.0127-0.0804-0.0423-0.0339-0.0296-0.0508-0.0677-0.0381-0.0847 0-0.16934 0.0423-0.0974 0.1524-0.1143z"/>
   <path d="m137.52 267.88q8e-3 0 0.0931 0 0.0889-4e-3 0.34714-4e-3h0.08l4e-3 4e-3h0.016q0.33867 0 0.36407 0.0127l0.0127 4e-3q0.0127 8e-3 0.0254 0.0212 0.0169 8e-3 0.0254 0.0212 0.0127 8e-3 0.0212 0.0212 8e-3 0.0127 0.0169 0.0296 0.0169 0.0339 0.0169 0.0931 4e-3 0.055 4e-3 0.5588v0.5969h0.0127q0.0339 0 0.0847 0.0127 0.0423 0.0127 0.0804 0.0339 0.0423 0.0169 0.0762 0.0466 0.0339 0.0296 0.0593 0.0635 0.0296 0.0339 0.0466 0.0762 0.0212 0.0381 0.0296 0.0804 0.0127 0.0508 0.0127 0.58843v0.51647l-8e-3 0.0254q-0.0212 0.1016-0.0847 0.1778-0.0169 0.0212-0.0381 0.0381-0.0169 0.0169-0.0381 0.0339-0.0212 0.0127-0.0466 0.0254-0.0212 0.0127-0.0466 0.0254-0.0212 8e-3 -0.0466 0.0169-0.0254 4e-3 -0.055 4e-3 -0.0212 4e-3 -0.65193 4e-3h-0.63077l-0.0254-8e-3q-0.14393-0.0339-0.23706-0.1397-0.055-0.072-0.0762-0.15664-0.0127-0.0508-0.0127-0.57996 0-0.52917 0.0127-0.57997 0.0212-0.0804 0.072-0.14817 0.055-0.0677 0.127-0.10583 0.0762-0.0423 0.16087-0.0508h0.0254v-0.58843q0-0.47413 0-0.54187 0-0.072 0.0127-0.1016 0.0127-0.0339 0.0466-0.0677 0.0169-0.0169 0.0296-0.0254 0.0169-0.0127 0.0339-0.0212 0.0212-8e-3 0.0423-0.0127zm0.63077 0.88053v-0.47836h-0.3937v0.95673h0.3937zm0.39793 1.3631v-0.47837h-1.1896v0.95673h1.1896z"/>
   <path d="m140.34 267.88q0.0169-4e-3 0.63923-4e-3 0.6477 0 0.6985 0.0127 0.12277 0.0339 0.2032 0.13123 0.0847 0.0931 0.0974 0.22014 4e-3 0.0254 4e-3 1.2192v1.198l-8e-3 0.0254q-0.0127 0.0508-0.0339 0.0974-0.0212 0.0423-0.0508 0.0804-0.0508 0.0593-0.12277 0.0974-0.0677 0.0381-0.14816 0.0466-0.0212 4e-3 -0.65194 4e-3h-0.63099l-0.0254-8e-3q-0.14394-0.0339-0.23707-0.1397-0.055-0.072-0.0762-0.15664-0.0127-0.0423-0.0127-0.16933 0-0.13123 0-1.088 0-0.96096 0-1.0922 0-0.13124 0.0127-0.16934 8e-3 -0.0423 0.0254-0.0762 0.0212-0.0381 0.0423-0.0677 0.0254-0.0339 0.055-0.0593 0.0296-0.0296 0.0635-0.0508 0.0381-0.0212 0.0762-0.0339t0.0804-0.0169zm1.2361 1.5621v-1.1599h-1.1896v2.3199h1.1896z"/>
  </g>
 </g>
</svg>
