<svg width="800" height="400" version="1.1" viewBox="0 0 211.67 105.83" xmlns="http://www.w3.org/2000/svg">
 <g transform="translate(.058227 -72.521)">
  <rect x="-.058227" y="72.521" width="211.67" height="105.83" fill="#fff" stroke="#000" stroke-dasharray="0, 0.619258" stroke-linejoin="bevel" stroke-miterlimit="4.1" stroke-opacity=".25297" stroke-width=".056296"/>
  <g transform="matrix(.72665 0 0 .72665 58.238 78.873)">
   <path d="m65.419 0.36106a63.719 63.72 0 0 0-63.72 63.72 63.719 63.72 0 0 0 63.72 63.719 63.719 63.72 0 0 0 63.719-63.719 63.719 63.72 0 0 0-63.719-63.72zm-34.705 28.607 18.962 0.06599 17.785 24.847 9.8729-13.077-6.6037-0.78448v-11.05h31.973v11.508l-6.4077 1.1117-18.177 22.296 19.158 23.343 6.6697 1.0464v11.443h-18.635l-19.093-25.566-10.331 13.862 5.6886 0.71916v10.985h-31.516v-11.443l6.6044-1.0464 19.093-23.016-18.439-22.623-6.6044-1.1117z" fill="#ffb200" stroke="#000" stroke-dasharray="0, 6.182" stroke-linejoin="bevel" stroke-miterlimit="4.1" stroke-opacity=".25297" stroke-width=".562"/>
  </g>
  <g transform="translate(-23.751 -94.847)" fill="#fff" style="shape-inside:url(#rect5059);white-space:pre" aria-label=" since #744,380">
   <path d="m126.04 258.89q0.0197-3e-3 0.32455-3e-3 0.30763 0 0.3302 3e-3 0.14958 0.0169 0.25118 0.12418 0.0508 0.0508 0.0593 0.0931 8e-3 0.0339 0 0.0649-3e-3 6e-3 -6e-3 0.0141-3e-3 6e-3 -6e-3 0.0113-0.0169 0.0367-0.0564 0.0593-0.0395 0.0197-0.079 0.0141-0.031-3e-3 -0.0536-0.0169-0.0198-0.0141-0.0423-0.0395-0.0282-0.0367-0.0734-0.0508l-0.0141-3e-3 -0.29916-3e-3q-0.30197 0-0.31044 3e-3 -0.0169 3e-3 -0.0339 0.0169-0.0141 0.0113-0.0226 0.0254-3e-3 8e-3 -6e-3 0.0113 0 3e-3 0 0.0141 0 8e-3 0 0.0141 3e-3 6e-3 6e-3 8e-3 8e-3 0.0254 0.0282 0.0367 8e-3 6e-3 0.254 0.11571 0.53057 0.23143 0.5588 0.25118 0.0339 0.0226 0.0621 0.0508 0.0311 0.0282 0.0536 0.0621 0.0226 0.0311 0.0367 0.0649 0.0564 0.12982 0.0226 0.25965-0.048 0.19191-0.22577 0.27657-0.0423 0.0198-0.0875 0.031-0.0423 8e-3 -0.35278 8e-3 -0.28787 0-0.31044-6e-3 -0.0564-8e-3 -0.12418-0.0367-0.079-0.031-0.14394-0.0818-0.048-0.0395-0.0621-0.0677-0.0282-0.0593 3e-3 -0.11571 0.0169-0.0395 0.0536-0.0593 0.0395-0.0226 0.0818-0.0169 0.0395 6e-3 0.0819 0.0423 0.0423 0.0339 0.0875 0.0508 0.0395 0.0141 0.0677 0.0197 6e-3 0 0.0367 0 0.031 0 0.0931 0t0.15523 0h0.27093l0.0141-3e-3q0.0282-0.0113 0.0508-0.0282 0.0254-0.0198 0.0367-0.048 0.0226-0.0452 0.0113-0.0931-0.0113-0.048-0.0508-0.079-6e-3 -3e-3 -0.0113-6e-3 -6e-3 -6e-3 -8e-3 -6e-3 -0.0113-6e-3 -0.54751-0.23989-0.20884-0.0931-0.22295-0.1016-0.048-0.0226-0.0903-0.0677-0.0818-0.0818-0.0959-0.19755-8e-3 -0.0677 0.0113-0.13265 0.0198-0.0649 0.0649-0.11853 0.0903-0.10724 0.2286-0.127z"/>
   <path d="m127.97 258.89q8e-3 0 0.22578 0 0.0169 0 0.048 0 0.1778 0 0.19755 0.0113 6e-3 0 8e-3 3e-3 0.0254 0.0113 0.0452 0.0339 0.0169 0.0226 0.0254 0.0508 3e-3 8e-3 3e-3 0.0931 0 0.0818 0 0.48825v0.56726h0.14393l0.14393 3e-3 0.0113 3e-3q0.0282 8e-3 0.0508 0.0282 0.0226 0.0169 0.0339 0.0423 0.0141 0.0254 0.0141 0.0593t-0.0141 0.0593q-0.0254 0.0536-0.0847 0.0706l-0.0141 6e-3h-0.8382l-0.0141-6e-3q-0.0452-0.0113-0.0734-0.048-0.0254-0.0367-0.0254-0.0818 0-0.0452 0.0254-0.079 0.0282-0.0367 0.0734-0.0508l0.0113-3e-3 0.14393-3e-3h0.14394v-0.97931h-0.28787l-0.0113-6e-3q-0.0536-0.0141-0.0818-0.0593-0.0282-0.048-0.0141-0.1016 8e-3 -0.0395 0.0395-0.0649 0.031-0.0282 0.0705-0.0367zm0.23989-0.67451q0.0113-3e-3 0.0226-6e-3t0.0959-3e-3q0.0536 0 0.0677 3e-3 0.0169 0 0.0254 3e-3 0.0113 0 0.0282 8e-3 0.0198 0.0113 0.0339 0.0254 0.0169 0.0141 0.0254 0.0367 0.0141 0.0282 0.0141 0.11571 0 0.0508 0 0.0677 0 0.0141-3e-3 0.0254-3e-3 8e-3 -0.0113 0.0226-0.0198 0.0423-0.0593 0.0621h-3e-3q-0.0254 0.0141-0.11007 0.0141-3e-3 0-6e-3 0-0.096 0-0.12136-8e-3 -0.0141-6e-3 -0.0254-0.0113-8e-3 -8e-3 -0.0226-0.0198-0.0141-0.0141-0.0197-0.0226-6e-3 -0.0113-0.0113-0.0254-3e-3 -8e-3 -6e-3 -0.0141-3e-3 -8e-3 -3e-3 -0.0198 0-0.0113 0-0.0254 0-0.0169 0-0.0452 0-0.0536 0-0.0706 3e-3 -0.0169 8e-3 -0.0339 8e-3 -0.0254 0.031-0.048 8e-3 -8e-3 0.0141-0.0141 8e-3 -6e-3 0.0169-8e-3 8e-3 -6e-3 0.0169-8e-3z"/>
   <path d="m129.85 258.89q8e-3 0 0.0141 0 8e-3 0 0.0169 0 8e-3 0 0.0169 3e-3 8e-3 0 0.0141 3e-3 8e-3 0 0.0141 6e-3 8e-3 3e-3 0.0169 6e-3 0.0395 0.0254 0.0565 0.0649 6e-3 0.0197 6e-3 0.031 3e-3 0.0113 3e-3 0.0564l3e-3 0.0564 0.13265-0.0847q0.13547-0.0875 0.16087-0.1016 0.0197-8e-3 0.0423-0.0169 0.0226-8e-3 0.0452-0.0141 0.0226-6e-3 0.048-8e-3 0.0169 0 0.0734 0 0.0564-3e-3 0.11289 0 0.0564 0 0.0677 3e-3 0.13547 0.0226 0.2286 0.11854 0.0226 0.0226 0.0423 0.0508 0.0198 0.0282 0.0339 0.0593 0.0141 0.0282 0.0226 0.0621 8e-3 0.031 0.0141 0.0649 0 0.0141 0.0169 0.50236 0.0169 0.48542 0.0169 0.51646 0 0.0254-3e-3 0.0395-0.0113 0.048-0.0508 0.0762t-0.0875 0.0254q-0.0819-6e-3 -0.11571-0.079 0-3e-3 -3e-3 -6e-3 -8e-3 -0.0169-0.0226-0.43462-3e-3 -0.0677-3e-3 -0.10443-0.0169-0.50517-0.0198-0.51928-3e-3 -0.0113-8e-3 -0.0226-3e-3 -0.0113-8e-3 -0.0198-6e-3 -0.0113-0.0141-0.0197-8e-3 -8e-3 -0.0169-0.0141-8e-3 -8e-3 -0.0198-0.0141-8e-3 -6e-3 -0.0198-8e-3l-0.0169-6e-3h-0.0988q-0.11007 0-0.13547 0.0113-0.0113 6e-3 -0.21449 0.13547l-0.20038 0.12982-3e-3 0.42898q0 0.36407-3e-3 0.40358 0 0.0395-0.0113 0.0621-0.0197 0.0423-0.0593 0.0621-0.0536 0.0254-0.10724 6e-3 -8e-3 -3e-3 -0.0169-6e-3 -8e-3 -6e-3 -0.0169-0.0113-6e-3 -6e-3 -0.0141-0.0141-0.031-0.031-0.0395-0.0734 0-0.0141 0-0.64629 0-0.635 0-0.64911 6e-3 -0.0226 0.0141-0.0367 8e-3 -0.0169 0.0254-0.0339 0.0311-0.031 0.0706-0.0395z"/>
   <path d="m132.35 258.89q0.0226-3e-3 0.32174-3e-3 0.30197 0 0.31326 3e-3 0.0254 6e-3 0.0452 0.0198 0.0197 0.0113 0.0339 0.0282 0.0169 0.0169 0.0226 0.0395 8e-3 0.0226 8e-3 0.0451 0 0.0282-0.0113 0.0536-8e-3 0.0226-0.0282 0.0423-0.0169 0.0198-0.0423 0.0282-0.0198 8e-3 -0.0508 0.0113-0.031 0-0.28505 0l-0.3048 3e-3 -0.0113 3e-3q-0.0226 6e-3 -0.0395 0.0198-8e-3 6e-3 -0.12982 0.11007-0.0649 0.0536-0.096 0.0818-0.0282 0.0254-0.0339 0.0311-6e-3 6e-3 -0.0113 0.0141-3e-3 6e-3 -6e-3 0.0141-3e-3 8e-3 -6e-3 0.0169l-3e-3 0.0113v0.18345q0 0.0705 0 0.10442 0 0.031 0 0.0536t0 0.0282q0 6e-3 3e-3 8e-3 6e-3 0.0282 0.0226 0.0508 8e-3 8e-3 0.12982 0.11289 0.0254 0.0197 0.048 0.0395 0.0226 0.0197 0.0395 0.0367 0.0169 0.0141 0.0282 0.0254 0.0113 8e-3 0.0141 8e-3 0.0169 0.0113 0.0395 0.0198l0.31609 3e-3q0.254 0 0.28505 3e-3 0.031 0 0.0508 8e-3 0.0367 0.0141 0.0593 0.0508 0.0226 0.0339 0.0226 0.0734 0 0.048-0.031 0.0875-0.031 0.0367-0.079 0.0452-0.0141 3e-3 -0.31326 3e-3 -0.29634 0-0.31891-3e-3 -0.11007-0.0113-0.19474-0.0762-8e-3 -6e-3 -0.0508-0.0395-0.0395-0.0367-0.0875-0.0762t-0.0903-0.0762q-0.0395-0.0367-0.0452-0.0423-0.0819-0.079-0.10725-0.18909v-3e-3q-0.0113-0.0423-0.0113-0.22296v-0.0226q0-0.0875 0-0.13264 0-0.048 0-0.0593 0-0.0141 3e-3 -0.0282 0.0169-0.13264 0.10724-0.2286 0.0113-0.0113 0.13264-0.11571 0.12418-0.10724 0.14676-0.12418 0.0847-0.0649 0.19473-0.079z"/>
   <path d="m134.23 258.89q0.0198 0 0.21167 0 0.15522-3e-3 0.18909 0 0.0339 0 0.0677 8e-3 0.0931 0.0197 0.16651 0.079 0.1016 0.0847 0.13265 0.11853 0.0423 0.0423 0.0677 0.0931 0.0254 0.048 0.0367 0.10442 8e-3 0.0423 8e-3 0.24835 0 0.15805-3e-3 0.18063 0 0.0197-0.0113 0.0423-0.0141 0.0282-0.0367 0.0452-0.0198 0.0169-0.0508 0.0254-8e-3 3e-3 -0.079 6e-3 -0.0677 0-0.4064 0h-0.47695l3e-3 0.0536q0 0.0621 0.0113 0.0847 8e-3 0.0197 0.0198 0.0339 0.0141 0.0113 0.0621 0.0508 0.0677 0.0593 0.096 0.0706l0.0141 3e-3h0.37253q0.30762 0 0.34431 3e-3 0.0367 0 0.0565 8e-3 0.0367 0.0141 0.0593 0.0508 0.0226 0.0339 0.0226 0.0734 0 0.048-0.031 0.0875-0.0311 0.0367-0.079 0.0452-0.0141 3e-3 -0.37818 3e-3 -0.36407 0-0.38665-3e-3 -0.0367-3e-3 -0.0734-0.0141-0.0367-0.0113-0.0706-0.0282-0.031-0.0169-0.0593-0.0395-0.0931-0.0734-0.14111-0.12418-0.0931-0.0959-0.10724-0.23424-3e-3 -0.0198-3e-3 -0.31609 0-0.29916 3e-3 -0.32456 8e-3 -0.0677 0.0339-0.12418 0.0282-0.0564 0.0734-0.10442 0.0339-0.0339 0.13547-0.11853 0.0875-0.0734 0.20602-0.0875zm0.41769 0.27376-0.0113-3e-3 -0.18627-3e-3q-0.14675 0-0.17497 3e-3 -0.0282 0-0.0452 6e-3 -0.0141 6e-3 -0.0282 0.0169-0.0141 0.0113-0.0564 0.0452-0.0254 0.0198-0.0452 0.0395-0.0169 0.0169-0.0226 0.0198-6e-3 8e-3 -0.0113 0.0141-3e-3 6e-3 -6e-3 0.0141-3e-3 6e-3 -6e-3 0.0169l-6e-3 0.0141v0.11289l-3e-3 0.11007h0.79304v-0.11007q0-0.0931-3e-3 -0.10725 0-0.0169-0.0113-0.0395-3e-3 -3e-3 -6e-3 -8e-3 -3e-3 -6e-3 -6e-3 -8e-3 -3e-3 -6e-3 -6e-3 -8e-3 -8e-3 -0.0113-0.0649-0.0593-0.0452-0.0367-0.0621-0.048-0.0141-0.0113-0.0339-0.0169z"/>
   <path d="m121.21 261.81q0.0353-7e-3 0.0741 4e-3 4e-3 0 0.0106 4e-3 0.0106 4e-3 0.0212 7e-3 0.0494 0.0247 0.0741 0.0776 0.0141 0.0282 0.0141 0.0529 4e-3 0.0247 4e-3 0.20461v0.2152h0.32809v-0.20461q0-0.22225 0.0106-0.25047 0.0106-0.0317 0.0388-0.06 0.0282-0.0317 0.06-0.0423 0.067-0.0212 0.13405 7e-3 0.0106 7e-3 0.0212 0.0176 0.0141 7e-3 0.0212 0.0176 0.0106 7e-3 0.0176 0.0176t0.0141 0.0247q0.0141 0.0282 0.0141 0.0529 4e-3 0.0247 4e-3 0.20461v0.2152h0.0917q0.0494 0 0.0705 0 0.0247 0 0.0318 4e-3 0.0247 4e-3 0.0459 0.0141 0.0212 0.0106 0.0388 0.0282 0.0176 0.0141 0.0282 0.0353 0.0141 0.0176 0.0176 0.0423 7e-3 0.0212 7e-3 0.0459 0 0.06-0.0388 0.10936-0.0388 0.0459-0.0988 0.0564-4e-3 0-0.0106 0-4e-3 0-0.0106 4e-3 -7e-3 0-0.0212 0-0.0106 0-0.0282 0-0.0141 0-0.0317 0h-0.0917v0.37041h0.0917q0.0176 0 0.0317 0 0.0176 0 0.0282 0 0.0141 0 0.0212 4e-3 7e-3 0 0.0106 0 7e-3 0 0.0106 0 0.0423 7e-3 0.0706 0.0317 0.0317 0.0247 0.0494 0.06 0.0176 0.0353 0.0176 0.0741 0 0.0635-0.0388 0.10936-0.0388 0.0459-0.0988 0.0564-0.0141 4e-3 -0.1023 4e-3h-0.0917v0.20814q0 0.0635 0 0.1023t0 0.067q0 0.0247 0 0.0353t-4e-3 0.0176q-0.0106 0.06-0.0564 0.0988-0.0459 0.0388-0.10936 0.0388-0.0212 0-0.0459-7e-3 -0.0212-7e-3 -0.0423-0.0176-0.0176-0.0141-0.0353-0.0282-0.0141-0.0176-0.0247-0.0388t-0.0176-0.0459q0-7e-3 0-0.0282t0-0.0635 0-0.13053v-0.20814h-0.32809v0.20814q0 0.0847 0 0.13053 0 0.0423 0 0.0635t0 0.0282q-0.0141 0.06-0.06 0.0988t-0.10936 0.0388q-0.0282 0-0.0564-0.0106t-0.0494-0.0282-0.0388-0.0423q-0.0141-0.0282-0.0212-0.0564 0-0.0176 0-0.22225v-0.20814h-0.0988q-0.0953 0-0.10937-7e-3 -0.0388-0.0106-0.067-0.0317-0.0282-0.0247-0.0423-0.0564-0.0141-0.0353-0.0141-0.0741 0-0.0565 0.0318-0.0988 0.0353-0.0459 0.0917-0.0635 0.0141-4e-3 0.10937-7e-3h0.0988v-0.37041h-0.0988q-0.0953 0-0.10937-7e-3 -0.0564-0.0176-0.0917-0.06-0.0318-0.0459-0.0318-0.10231 0-0.0282 7e-3 -0.0529 0.0106-0.0282 0.0247-0.0494 0.0176-0.0212 0.0388-0.0353 0.0247-0.0176 0.0529-0.0247 0.0141-7e-3 0.10937-7e-3h0.0988v-0.20461q0-0.22225 0.0106-0.25047 0.0106-0.0317 0.0388-0.06 0.0212-0.0212 0.0388-0.0317 0.0212-0.0106 0.0494-0.0176zm0.52564 1.0901v-0.18697h-0.32809v0.37041h0.32809z" style="font-variant-caps:normal;font-variant-east-asian:normal;font-variant-ligatures:normal;font-variant-numeric:normal"/>
   <path d="m123.4 261.81q7e-3 0 0.15522 0 0.1517-4e-3 0.61384-4e-3h0.75847v0.51858q0 0.41981-4e-3 0.47978 0 0.0564-7e-3 0.0811-0.0106 0.0317-0.0353 0.0564-0.0141 0.0141-0.3175 0.27164l-0.30339 0.26106v0.40216q0 0.33867-4e-3 0.37748 0 0.0388-0.0141 0.067-0.0106 0.0282-0.0318 0.0459-0.0176 0.0176-0.0423 0.0318-0.067 0.0317-0.13406 7e-3 -0.0318-0.0106-0.06-0.0388-7e-3 -0.0106-0.0141-0.0176-7e-3 -7e-3 -0.0106-0.0141-4e-3 -7e-3 -7e-3 -0.0141-4e-3 -7e-3 -7e-3 -0.0141-0.0106-0.0247-0.0106-0.0776t0-0.40922q0-0.45509 0.0106-0.48331 0.0141-0.0317 0.0353-0.0564 0.0141-0.0141 0.31397-0.27164l0.30339-0.25753v-0.60678h-0.9913l-4e-3 7e-3q-4e-3 0.0282-0.0176 0.0494-0.0212 0.0388-0.0564 0.06-0.0141 7e-3 -0.0282 0.0141-0.0106 4e-3 -0.0247 7e-3 -0.0141 4e-3 -0.0282 4e-3t-0.0282 0q-0.06-7e-3 -0.1023-0.0529-0.0247-0.0282-0.0353-0.0564-0.0106-0.0317-0.0106-0.13052 0-0.0988 0.0106-0.127 0.0106-0.0317 0.0388-0.06 0.0388-0.0388 0.0882-0.0494z" style="font-variant-caps:normal;font-variant-east-asian:normal;font-variant-ligatures:normal;font-variant-numeric:normal"/>
   <path d="m126 261.81q0.0353-7e-3 0.0741 4e-3 0.0353 7e-3 0.0635 0.0317 0.0212 0.0176 0.0353 0.0423 0.0141 0.0212 0.0247 0.0459l4e-3 0.65264v0.64205h0.65617v-0.99836l7e-3 -0.0141q0.0141-0.0459 0.0459-0.0776 0.0353-0.0318 0.0776-0.0423 0.0106-4e-3 0.0176-4e-3 0.0106 0 0.0282 0 0.0212 0 0.0353 4e-3t0.0318 0.0141q0.067 0.0317 0.0882 0.10583l7e-3 0.0141v0.99836h0.0141q0.0282 4e-3 0.0529 0.0176 0.0282 0.0106 0.0494 0.0317 0.0212 0.0212 0.0353 0.0494 7e-3 0.0212 0.0106 0.0459 4e-3 0.0247 0 0.0494-4e-3 0.0212-0.0106 0.0423-0.0212 0.0423-0.0564 0.0706-0.0353 0.0247-0.0811 0.0282l-0.0141 4e-3v0.3563q0 0.0318 0 0.0882 0 0.20814-4e-3 0.24694 0 0.0388-0.0106 0.0564-4e-3 4e-3 -4e-3 7e-3 -0.0247 0.0529-0.0776 0.0776-0.0635 0.0317-0.13052 7e-3 -0.0317-0.0106-0.0635-0.0388-0.0282-0.0317-0.0388-0.06-0.0106-0.0317-0.0106-0.39511v-0.34925h-0.99484v-0.80081q0-0.64911 0-0.73377 4e-3 -0.0882 0.0106-0.11289 4e-3 -7e-3 7e-3 -0.0141 4e-3 -7e-3 7e-3 -0.0141 7e-3 -7e-3 0.0106-0.0141 7e-3 -7e-3 0.0176-0.0141 0.0176-0.0212 0.0353-0.0317 0.0212-0.0106 0.0494-0.0176z" style="font-variant-caps:normal;font-variant-east-asian:normal;font-variant-ligatures:normal;font-variant-numeric:normal"/>
   <path d="m128.52 261.81q0.0353-7e-3 0.0741 4e-3 0.0353 7e-3 0.0635 0.0317 0.0212 0.0176 0.0353 0.0423 0.0141 0.0212 0.0247 0.0459l4e-3 0.65264v0.64205h0.65616v-0.99836l7e-3 -0.0141q0.0141-0.0459 0.0459-0.0776 0.0353-0.0318 0.0776-0.0423 0.0106-4e-3 0.0176-4e-3 0.0106 0 0.0282 0 0.0212 0 0.0353 4e-3t0.0317 0.0141q0.067 0.0317 0.0882 0.10583l7e-3 0.0141v0.99836h0.0141q0.0282 4e-3 0.0529 0.0176 0.0282 0.0106 0.0494 0.0317 0.0212 0.0212 0.0353 0.0494 7e-3 0.0212 0.0106 0.0459 4e-3 0.0247 0 0.0494-4e-3 0.0212-0.0106 0.0423-0.0212 0.0423-0.0564 0.0706-0.0353 0.0247-0.0811 0.0282l-0.0141 4e-3v0.3563q0 0.0318 0 0.0882 0 0.20814-4e-3 0.24694 0 0.0388-0.0106 0.0564-4e-3 4e-3 -4e-3 7e-3 -0.0247 0.0529-0.0776 0.0776-0.0635 0.0317-0.13053 7e-3 -0.0317-0.0106-0.0635-0.0388-0.0282-0.0317-0.0388-0.06-0.0106-0.0317-0.0106-0.39511v-0.34925h-0.99483v-0.80081q0-0.64911 0-0.73377 4e-3 -0.0882 0.0106-0.11289 4e-3 -7e-3 7e-3 -0.0141 4e-3 -7e-3 7e-3 -0.0141 7e-3 -7e-3 0.0106-0.0141 7e-3 -7e-3 0.0176-0.0141 0.0176-0.0212 0.0353-0.0317 0.0212-0.0106 0.0494-0.0176z" style="font-variant-caps:normal;font-variant-east-asian:normal;font-variant-ligatures:normal;font-variant-numeric:normal"/>
   <path d="m131.3 263.23q7e-3 0 0.35983 0 0.29986 0 0.33514 4e-3 0.0353 0 0.067 0.0141 0.0247 0.0106 0.0423 0.0317 0.0212 0.0176 0.0317 0.0423 0.0141 0.0317 0.0141 0.0776 4e-3 0.0423 4e-3 0.42687 0 0.381-4e-3 0.42686 0 0.0423-0.0141 0.0705-0.0247 0.0529-0.0741 0.0776-0.067 0.0317-0.13406 7e-3 -0.0317-0.0106-0.06-0.0388-0.0282-0.0317-0.0388-0.06-0.0106-0.0317-0.0106-0.39511v-0.34925h-0.26458q-0.21872 0-0.25047 0-0.0282-4e-3 -0.0564-0.0176-0.0635-0.0317-0.0882-0.10583-0.0141-0.0423 0-0.0882l0.0317-0.06q0.0423-0.0529 0.10936-0.0635z" style="font-variant-caps:normal;font-variant-east-asian:normal;font-variant-ligatures:normal;font-variant-numeric:normal"/>
   <path d="m133.49 261.81q0.0106-4e-3 0.61031-4e-3 0.61736 0 0.6597 0.0106 0.0635 0.0176 0.11641 0.06 0.0564 0.0388 0.0882 0.0988 0.0353 0.0564 0.0459 0.127 4e-3 0.0247 4e-3 0.35983 0 0.33514-4e-3 0.36689-0.0176 0.14464-0.10936 0.25753-0.0141 0.0212-0.0176 0.0247 0 0 0.0141 0.0176 0.0564 0.067 0.0847 0.14817 0.0176 0.0423 0.0247 0.0953l7e-3 0.0282v0.71967l-7e-3 0.0212q-0.0176 0.0882-0.0706 0.15169-0.0423 0.0494-0.1023 0.0811-0.0564 0.0317-0.12347 0.0388-0.0176 4e-3 -0.62089 4e-3h-0.60325l-0.0141-7e-3q-0.0565-0.0176-0.0917-0.06-0.0317-0.0459-0.0317-0.10231 0-0.0388 0.0141-0.0706 0.0141-0.0317 0.0423-0.0564t0.067-0.0353l0.0141-4e-3 0.59619-4e-3h0.59267v-0.32809q0-0.27869-4e-3 -0.31044 0-0.0353-0.0141-0.0635-0.0247-0.0529-0.0776-0.0776-0.0282-0.0141-0.067-0.0141-0.0353-4e-3 -0.33514-4e-3 -0.30339-4e-3 -0.34219-4e-3 -0.0353-4e-3 -0.0635-0.0141-0.0317-0.0176-0.0564-0.0423-0.0212-0.0282-0.0318-0.0635-4e-3 -0.0176-4e-3 -0.0459 0-0.0317 4e-3 -0.0459 7e-3 -0.0176 0.0141-0.0317 0.0106-0.0176 0.0212-0.0318 0.0106-0.0141 0.0247-0.0247t0.0282-0.0176q0.0282-0.0141 0.0635-0.0141 0.0388-4e-3 0.34219-4e-3h0.35984l0.0176-7e-3q0.0882-0.0282 0.11642-0.11995 4e-3 -0.0141 4e-3 -0.34219v-0.32809h-1.1889l-0.0141-7e-3q-0.0388-0.0106-0.067-0.0353t-0.0423-0.0564q-0.0317-0.0706 0-0.14112 0.0353-0.0811 0.127-0.0953z" style="font-variant-caps:normal;font-variant-east-asian:normal;font-variant-ligatures:normal;font-variant-numeric:normal"/>
   <path d="m136.34 261.81q7e-3 0 0.0776 0 0.0741-4e-3 0.28927-4e-3h0.079l4e-3 4e-3h0.015q0.28222 0 0.30339 0.0106l0.0106 4e-3q0.0106 7e-3 0.0212 0.0176 0.0141 7e-3 0.0212 0.0176 0.0106 7e-3 0.0176 0.0176t0.0141 0.0247q0.0141 0.0282 0.0141 0.0776 4e-3 0.0459 4e-3 0.46566v0.49742h0.0106q0.0282 0 0.0705 0.0106 0.0353 0.0106 0.067 0.0282 0.0353 0.0141 0.0635 0.0388t0.0494 0.0529q0.0247 0.0282 0.0388 0.0635 0.0176 0.0317 0.0247 0.067 0.0106 0.0423 0.0106 0.49036v0.43039l-7e-3 0.0212q-0.0176 0.0847-0.0706 0.14817-0.0141 0.0176-0.0317 0.0317-0.0141 0.0141-0.0318 0.0282-0.0176 0.0106-0.0388 0.0212-0.0176 0.0106-0.0388 0.0212-0.0176 7e-3 -0.0388 0.0141-0.0212 4e-3 -0.0459 4e-3 -0.0176 4e-3 -0.54327 4e-3h-0.52564l-0.0212-7e-3q-0.11994-0.0282-0.19756-0.11642-0.0459-0.06-0.0635-0.13053-0.0106-0.0423-0.0106-0.4833 0-0.44098 0.0106-0.48331 0.0176-0.067 0.06-0.12347 0.0459-0.0564 0.10583-0.0882 0.0635-0.0353 0.13406-0.0423h0.0212v-0.49036q0-0.39511 0-0.45156 0-0.06 0.0106-0.0847 0.0106-0.0282 0.0388-0.0564 0.0141-0.0141 0.0247-0.0212 0.0141-0.0106 0.0282-0.0176 0.0176-7e-3 0.0353-0.0106zm0.52563 0.73378v-0.39864h-0.32808v0.79728h0.32808zm0.33162 1.136v-0.39864h-0.99131v0.79728h0.99131z" style="font-variant-caps:normal;font-variant-east-asian:normal;font-variant-ligatures:normal;font-variant-numeric:normal"/>
   <path d="m138.69 261.81q0.0141-4e-3 0.5327-4e-3 0.53975 0 0.58208 0.0106 0.10231 0.0282 0.16933 0.10936 0.0706 0.0776 0.0811 0.18345 4e-3 0.0212 4e-3 1.016v0.99836l-7e-3 0.0212q-0.0106 0.0423-0.0282 0.0811-0.0176 0.0353-0.0423 0.067-0.0423 0.0494-0.10231 0.0811-0.0564 0.0317-0.12347 0.0388-0.0176 4e-3 -0.54328 4e-3h-0.52564l-0.0212-7e-3q-0.11995-0.0282-0.19756-0.11642-0.0459-0.06-0.0635-0.13053-0.0106-0.0353-0.0106-0.14111 0-0.10936 0-0.90664 0-0.8008 0-0.91016 0-0.10937 0.0106-0.14112 7e-3 -0.0353 0.0212-0.0635 0.0176-0.0318 0.0353-0.0564 0.0212-0.0282 0.0459-0.0494 0.0247-0.0247 0.0529-0.0423 0.0317-0.0176 0.0635-0.0282 0.0317-0.0106 0.067-0.0141zm1.0301 1.3018v-0.96661h-0.9913v1.9332h0.9913z" style="font-variant-caps:normal;font-variant-east-asian:normal;font-variant-ligatures:normal;font-variant-numeric:normal"/>
  </g>
  <g transform="translate(-61.649 10.391)" fill="#fff" style="shape-inside:url(#rect861);white-space:pre" aria-label="UNSPENT">
   <path d="m155.28 149.06q0 0.93133-0.27517 1.4922-0.27516 0.55033-0.75141 0.79375-0.47625 0.23283-1.0689 0.23283-1.0054 0-1.5558-0.61383-0.53975-0.61383-0.53975-1.905v-5.1435h0.27517v5.1012q0 1.2171 0.47625 1.7568 0.48683 0.53975 1.3441 0.53975 0.53974 0 0.95249-0.21167 0.41275-0.22225 0.635-0.71966 0.23283-0.49742 0.23283-1.3229v-5.1435h0.27517z" style="font-variant-caps:normal;font-variant-east-asian:normal;font-variant-ligatures:normal;font-variant-numeric:normal"/>
   <path d="m161.17 151.48h-0.28575l-3.5666-6.9956h-0.0212q0 0.28575 0 0.59266 0.0106 0.30692 0.0106 0.75142v5.6515h-0.27517v-7.5565h0.28575l3.5666 6.9638h0.0212q0-0.37041-0.0106-0.75141 0-0.39158 0-0.66675v-5.5456h0.27516z" style="font-variant-caps:normal;font-variant-east-asian:normal;font-variant-ligatures:normal;font-variant-numeric:normal"/>
   <path d="m166.19 149.53q0 1.016-0.56091 1.5346-0.56092 0.51858-1.4922 0.51858-0.42333 0-0.83608-0.0741t-0.74083-0.20108v-0.30692q0.3175 0.127 0.73025 0.22225 0.42333 0.0847 0.85724 0.0847 0.8255 0 1.2912-0.46567 0.46566-0.46567 0.46566-1.3123 0-0.508-0.17992-0.81491-0.17991-0.30692-0.53974-0.51858-0.35984-0.22225-0.87842-0.45509-0.46566-0.21166-0.84666-0.4445-0.381-0.24341-0.61383-0.60324-0.22225-0.37042-0.22225-0.98425 0-0.94191 0.56091-1.4182 0.5715-0.47625 1.4393-0.47625 0.39158 0 0.77258 0.0952 0.381 0.0847 0.66675 0.23283l-0.11642 0.23283q-0.35983-0.17991-0.70908-0.23283-0.34925-0.0635-0.62441-0.0635-0.77258 0-1.2382 0.42333-0.46566 0.42334-0.46566 1.2065 0 0.52916 0.20108 0.85725 0.21167 0.32808 0.56091 0.53975 0.34925 0.21166 0.77259 0.39158 0.53974 0.24341 0.93133 0.48683 0.39158 0.23283 0.60324 0.59266 0.21167 0.34925 0.21167 0.9525z" style="font-variant-caps:normal;font-variant-east-asian:normal;font-variant-ligatures:normal;font-variant-numeric:normal"/>
   <path d="m168.8 143.92q1.0901 0 1.6404 0.46567 0.55033 0.46566 0.55033 1.5981 0 1.2171-0.56091 1.7357-0.56092 0.51858-1.6722 0.51858h-0.89958v3.2385h-0.27517v-7.5565zm-0.0106 0.26458h-0.93133v3.7888h0.94191q0.92075 0 1.4076-0.4445 0.49741-0.45508 0.49741-1.5452 0-0.98425-0.47625-1.3864-0.46566-0.41275-1.4393-0.41275z" style="font-variant-caps:normal;font-variant-east-asian:normal;font-variant-ligatures:normal;font-variant-numeric:normal"/>
   <path d="m175.44 151.48h-3.1115v-7.5565h3.1115v0.26458h-2.8363v3.1856h2.667v0.26458h-2.667v3.5772h2.8363z" style="font-variant-caps:normal;font-variant-east-asian:normal;font-variant-ligatures:normal;font-variant-numeric:normal"/>
   <path d="m181.03 151.48h-0.28575l-3.5666-6.9956h-0.0212q0 0.28575 0 0.59266 0.0106 0.30692 0.0106 0.75142v5.6515h-0.27517v-7.5565h0.28575l3.5666 6.9638h0.0212q0-0.37041-0.0106-0.75141 0-0.39158 0-0.66675v-5.5456h0.27517z" style="font-variant-caps:normal;font-variant-east-asian:normal;font-variant-ligatures:normal;font-variant-numeric:normal"/>
   <path d="m184.11 151.48h-0.27517v-7.2919h-1.8415v-0.26458h3.9687v0.26458h-1.8521z" style="font-variant-caps:normal;font-variant-east-asian:normal;font-variant-ligatures:normal;font-variant-numeric:normal"/>
  </g>
 </g>
</svg>
