<svg width="800" height="800" version="1.1" viewBox="0 0 211.67 211.67" xmlns="http://www.w3.org/2000/svg">
 <g transform="translate(.058227 -72.521)">
  <rect x=".42208" y="72.826" width="211.67" height="211.67" fill="#fff" stroke="#000" stroke-dasharray="0, 0.87576299999999985" stroke-linejoin="bevel" stroke-miterlimit="4.1" stroke-opacity=".25297" stroke-width=".079615"/>
  <g transform="translate(41.934 112.66)">
   <path d="m65.419 0.36106a63.719 63.72 0 0 0-63.72 63.72 63.719 63.72 0 0 0 63.72 63.719 63.719 63.72 0 0 0 63.719-63.719 63.719 63.72 0 0 0-63.719-63.72zm-34.705 28.607 18.962 0.06599 17.785 24.847 9.8729-13.077-6.6037-0.78448v-11.05h31.973v11.508l-6.4077 1.1117-18.177 22.296 19.158 23.343 6.6697 1.0464v11.443h-18.635l-19.093-25.566-10.331 13.862 5.6886 0.71916v10.985h-31.516v-11.443l6.6044-1.0464 19.093-23.016-18.439-22.623-6.6044-1.1117z" fill="#ffb200" stroke="#000" stroke-dasharray="0, 6.182" stroke-linejoin="bevel" stroke-miterlimit="4.1" stroke-opacity=".25297" stroke-width=".562"/>
  </g>
  <g transform="translate(-23.644 -1.7012)" style="shape-inside:url(#rect5059);white-space:pre" aria-label="UNSPENT since #744,380">
   <path d="m116.04 254.08q0 0.93133-0.3175 1.5134-0.30691 0.58208-0.85724 0.85725-0.55033 0.26458-1.2488 0.26458-1.1536 0-1.778-0.65616-0.62441-0.66675-0.62441-1.9897v-5.0165h0.27516v4.9847q0 1.2382 0.56092 1.8309 0.56091 0.58208 1.5769 0.58208 0.9525 0 1.5452-0.55033 0.59267-0.56092 0.59267-1.7886v-5.0588h0.27516z"/>
   <path d="m122.59 256.61h-0.24341l-4.1169-6.9638h-0.0212q0.0106 0.37041 0.0106 0.70908 0 0.33866 0 0.762v5.4927h-0.27517v-7.5565h0.254l4.1063 6.9426h0.0212q-0.0106-0.39158-0.0106-0.78317 0-0.40216 0-0.71966v-5.4398h0.27516z"/>
   <path d="m128.21 254.68q0 0.67733-0.30691 1.1324-0.29633 0.4445-0.81492 0.67733-0.50799 0.22225-1.1642 0.22225-0.5715 0-1.016-0.0847-0.43391-0.0847-0.78316-0.21167v-0.30692q0.37042 0.14817 0.8255 0.24342 0.45508 0.0953 0.99483 0.0953 0.85724 0 1.4182-0.4445 0.56091-0.4445 0.56091-1.3229 0-0.51858-0.22224-0.83608-0.21167-0.3175-0.62442-0.52917-0.41275-0.22225-0.99483-0.4445-0.53975-0.20108-0.96308-0.43391t-0.67733-0.60325q-0.24342-0.37041-0.24342-0.98425 0-0.63499 0.28575-1.0583 0.28575-0.42333 0.78317-0.63499 0.49741-0.21167 1.1218-0.21167 0.88899 0 1.6616 0.35983l-0.11641 0.23284q-0.42333-0.1905-0.8255-0.254-0.39158-0.0741-0.74083-0.0741-0.80433 0-1.3441 0.40217-0.53975 0.40216-0.53975 1.2171 0 0.56091 0.23283 0.88899 0.23284 0.32809 0.62442 0.53975 0.40216 0.20109 0.87841 0.381 0.60325 0.22225 1.0478 0.46567 0.4445 0.23283 0.68791 0.60325 0.254 0.35983 0.254 0.97366z"/>
   <path d="m131.22 249.05q1.1748 0 1.778 0.47625 0.61383 0.46567 0.61383 1.5875 0 1.2277-0.65616 1.7462-0.65617 0.51858-1.8309 0.51858h-1.1112v3.2279h-0.27517v-7.5565zm-0.0317 0.26459h-1.1748v3.7994h1.1218q0.67733 0 1.1642-0.17992 0.49742-0.19049 0.762-0.62441 0.26458-0.4445 0.26458-1.1959 0-0.97367-0.52916-1.3864-0.51859-0.41274-1.6087-0.41274z"/>
   <path d="m138.68 256.61h-3.5666v-7.5565h3.5666v0.26459h-3.2914v3.175h3.1115v0.26458h-3.1115v3.5877h3.2914z"/>
   <path d="m144.92 256.61h-0.24341l-4.1169-6.9638h-0.0212q0.0106 0.37041 0.0106 0.70908 0 0.33866 0 0.762v5.4927h-0.27517v-7.5565h0.254l4.1063 6.9426h0.0212q-0.0106-0.39158-0.0106-0.78317 0-0.40216 0-0.71966v-5.4398h0.27516z"/>
   <path d="m148.39 256.61h-0.27517v-7.2919h-2.159v-0.26459h4.6037v0.26459h-2.1696z"/>
   <path d="m126.83 261.4v0.35967q-0.16123-0.0827-0.33487-0.12403-0.17363-0.0413-0.35966-0.0413-0.28319 0-0.42582 0.0868-0.14056 0.0868-0.14056 0.26045 0 0.13229 0.10129 0.20877 0.10128 0.0744 0.40721 0.14263l0.13022 0.0289q0.40515 0.0868 0.57464 0.24598 0.17157 0.15709 0.17157 0.44028 0 0.32246-0.25631 0.51056-0.25425 0.1881-0.70074 0.1881-0.18603 0-0.3886-0.0372-0.20051-0.0351-0.42375-0.10749v-0.39274q0.21084 0.10955 0.41548 0.16536 0.20464 0.0537 0.40514 0.0537 0.26872 0 0.41341-0.091 0.1447-0.093 0.1447-0.26045 0-0.15503-0.10542-0.23771-0.10336-0.0827-0.45682-0.15917l-0.13229-0.031q-0.35347-0.0744-0.51057-0.22738-0.15709-0.15503-0.15709-0.42375 0-0.32659 0.23151-0.50436 0.23151-0.17776 0.65732-0.17776 0.21084 0 0.39688 0.031 0.18603 0.031 0.34313 0.093z"/>
   <path d="m127.56 261.33h0.38034v2.3151h-0.38034zm0-0.90124h0.38034v0.48162h-0.38034z"/>
   <path d="m130.66 262.25v1.3973h-0.38034v-1.3849q0-0.32866-0.12815-0.49196-0.12816-0.16329-0.38448-0.16329-0.30799 0-0.48576 0.19637-0.17776 0.19637-0.17776 0.53536v1.3084h-0.38241v-2.3151h0.38241v0.35966q0.13642-0.20877 0.32039-0.31212 0.18604-0.10335 0.42788-0.10335 0.39894 0 0.60358 0.24804 0.20464 0.24598 0.20464 0.72554z"/>
   <path d="m133.08 261.42v0.35553q-0.16123-0.0889-0.32453-0.13229-0.16123-0.0455-0.3266-0.0455-0.37 0-0.57464 0.23564-0.20464 0.23358-0.20464 0.65733 0 0.42374 0.20464 0.65939 0.20464 0.23357 0.57464 0.23357 0.16537 0 0.3266-0.0434 0.1633-0.0455 0.32453-0.13436v0.3514q-0.15917 0.0744-0.33073 0.11162-0.1695 0.0372-0.36174 0.0372-0.52296 0-0.83095-0.32866t-0.30799-0.88676q0-0.56638 0.31005-0.89091 0.31213-0.32452 0.8537-0.32452 0.1757 0 0.34313 0.0372 0.16743 0.0351 0.32453 0.10749z"/>
   <path d="m135.72 262.4v0.18604h-1.7487q0.0248 0.39274 0.23565 0.59944 0.21291 0.20464 0.59118 0.20464 0.2191 0 0.42374-0.0537 0.20671-0.0537 0.40928-0.16123v0.35967q-0.20464 0.0868-0.41961 0.13229-0.21498 0.0455-0.43615 0.0455-0.55397 0-0.8785-0.32246-0.32246-0.32246-0.32246-0.87229 0-0.56844 0.30592-0.90124 0.308-0.33486 0.82889-0.33486 0.46716 0 0.73794 0.30179 0.27285 0.29972 0.27285 0.81648zm-0.38033-0.11162q-4e-3 -0.31212-0.1757-0.49816-0.1695-0.18603-0.45062-0.18603-0.31833 0-0.51057 0.17983-0.19016 0.17983-0.2191 0.50643z"/>
   <path d="m122.09 267.98h-0.60151l-0.17363 0.6904h0.60564zm-0.31006-1.1762-0.21497 0.85783h0.60358l0.21704-0.85783h0.33073l-0.21291 0.85783h0.64492v0.31832h-0.72553l-0.1695 0.6904h0.65732v0.31626h-0.73794l-0.21497 0.85576h-0.33073l0.21291-0.85576h-0.60565l-0.21291 0.85576h-0.33279l0.21497-0.85576h-0.65112v-0.31626h0.7276l0.17364-0.6904h-0.6656v-0.31832h0.74621l0.21084-0.85783z"/>
   <path d="m123.82 266.75h1.9844v0.17776l-1.1203 2.9084h-0.43615l1.0542-2.7347h-1.4821z"/>
   <path d="m127.76 267.12-1.0542 1.6474h1.0542zm-0.10956-0.3638h0.52503v2.0112h0.44029v0.34727h-0.44029v0.7276h-0.41547v-0.7276h-1.3932v-0.40308z"/>
   <path d="m130.46 267.12-1.0542 1.6474h1.0542zm-0.10955-0.3638h0.52503v2.0112h0.44028v0.34727h-0.44028v0.7276h-0.41548v-0.7276h-1.3932v-0.40308z"/>
   <path d="m132.05 269.31h0.43614v0.35553l-0.33899 0.66146h-0.26665l0.1695-0.66146z"/>
   <path d="m134.61 268.17q0.29972 0.0641 0.46715 0.26665 0.1695 0.20257 0.1695 0.50023 0 0.45682-0.31419 0.70693-0.31419 0.25012-0.89297 0.25012-0.1943 0-0.40101-0.0393-0.20464-0.0372-0.42374-0.11369v-0.40307q0.17363 0.10128 0.38034 0.15296 0.2067 0.0517 0.43201 0.0517 0.39274 0 0.59738-0.15503 0.2067-0.15503 0.2067-0.45062 0-0.27285-0.19223-0.42582-0.19017-0.15502-0.53124-0.15502h-0.35966v-0.34314h0.3762q0.30799 0 0.47129-0.12195 0.1633-0.12403 0.1633-0.35554 0-0.23771-0.1695-0.3638-0.16743-0.12815-0.48163-0.12815-0.17156 0-0.36793 0.0372t-0.43202 0.11576v-0.37207q0.23772-0.0661 0.44442-0.0992 0.20877-0.0331 0.39274-0.0331 0.47542 0 0.75241 0.21704 0.27699 0.21497 0.27699 0.58291 0 0.25631-0.14677 0.43408-0.14676 0.1757-0.41754 0.24391z"/>
   <path d="m136.94 268.37q-0.29765 0-0.46922 0.15916-0.1695 0.15916-0.1695 0.43822 0 0.27905 0.1695 0.43821 0.17157 0.15917 0.46922 0.15917 0.29766 0 0.46922-0.15917 0.17157-0.16123 0.17157-0.43821 0-0.27906-0.17157-0.43822-0.16949-0.15916-0.46922-0.15916zm-0.41754-0.17777q-0.26872-0.0661-0.41962-0.25011-0.14882-0.18397-0.14882-0.44855 0-0.37001 0.26251-0.58498 0.26459-0.21497 0.72347-0.21497 0.46096 0 0.72347 0.21497 0.26252 0.21497 0.26252 0.58498 0 0.26458-0.1509 0.44855-0.14883 0.18397-0.41548 0.25011 0.30179 0.0703 0.46923 0.27492 0.16949 0.20464 0.16949 0.50023 0 0.44855-0.27491 0.68833-0.27286 0.23978-0.78342 0.23978t-0.78548-0.23978q-0.27285-0.23978-0.27285-0.68833 0-0.29559 0.1695-0.50023t0.47129-0.27492zm-0.15297-0.65939q0 0.23978 0.14883 0.37414 0.1509 0.13436 0.42168 0.13436 0.26872 0 0.41961-0.13436 0.15297-0.13436 0.15297-0.37414t-0.15297-0.37414q-0.15089-0.13436-0.41961-0.13436-0.27078 0-0.42168 0.13436-0.14883 0.13436-0.14883 0.37414z"/>
   <path d="m139.63 267.03q-0.32246 0-0.48576 0.31833-0.16123 0.31626-0.16123 0.95291 0 0.63459 0.16123 0.95292 0.1633 0.31626 0.48576 0.31626 0.32452 0 0.48575-0.31626 0.1633-0.31833 0.1633-0.95292 0-0.63665-0.1633-0.95291-0.16123-0.31833-0.48575-0.31833zm0-0.33072q0.51883 0 0.79168 0.41134 0.27492 0.40928 0.27492 1.1906 0 0.77928-0.27492 1.1906-0.27285 0.40928-0.79168 0.40928t-0.79375-0.40928q-0.27285-0.41135-0.27285-1.1906 0-0.78134 0.27285-1.1906 0.27492-0.41134 0.79375-0.41134z"/>
  </g>
 </g>
</svg>
