<?xml version="1.0" encoding="UTF-8" standalone="no"?>
<svg
   xmlns:dc="http://purl.org/dc/elements/1.1/"
   xmlns:cc="http://creativecommons.org/ns#"
   xmlns:rdf="http://www.w3.org/1999/02/22-rdf-syntax-ns#"
   xmlns:svg="http://www.w3.org/2000/svg"
   xmlns="http://www.w3.org/2000/svg"
   xmlns:sodipodi="http://sodipodi.sourceforge.net/DTD/sodipodi-0.dtd"
   xmlns:inkscape="http://www.inkscape.org/namespaces/inkscape"
   width="97.220215mm"
   height="97.220215mm"
   viewBox="0 0 97.220215 97.220215"
   version="1.1"
   id="svg1055"
   inkscape:version="1.0.2 (e86c870879, 2021-01-15)"
   sodipodi:docname="icon.inkscape.svg">
  <defs
     id="defs1049">
    <rect
       x="93.49501"
       y="88.426582"
       width="47.376781"
       height="44.942642"
       id="rect837" />
    <rect
       x="93.49501"
       y="88.426582"
       width="47.376781"
       height="44.942642"
       id="rect1041" />
  </defs>
  <sodipodi:namedview
     id="base"
     pagecolor="#ffffff"
     bordercolor="#666666"
     borderopacity="1.0"
     inkscape:pageopacity="0.0"
     inkscape:pageshadow="2"
     inkscape:zoom="1.6069858"
     inkscape:cx="140.26097"
     inkscape:cy="225.71665"
     inkscape:document-units="mm"
     inkscape:current-layer="layer1"
     inkscape:document-rotation="0"
     showgrid="false"
     fit-margin-top="0"
     fit-margin-left="0"
     fit-margin-right="0"
     fit-margin-bottom="0"
     inkscape:window-width="1422"
     inkscape:window-height="960"
     inkscape:window-x="0"
     inkscape:window-y="206"
     inkscape:window-maximized="0" />
  <metadata
     id="metadata1052">
    <rdf:RDF>
      <cc:Work
         rdf:about="">
        <dc:format>image/svg+xml</dc:format>
        <dc:type
           rdf:resource="http://purl.org/dc/dcmitype/StillImage" />
        <dc:title></dc:title>
      </cc:Work>
    </rdf:RDF>
  </metadata>
  <g
     inkscape:label="Layer 1"
     inkscape:groupmode="layer"
     id="layer1"
     transform="translate(-1.4186212,-0.08020157)">
    <path
       id="path10"
       style="fill:#ffb200;fill-opacity:1;stroke:#000000;stroke-width:1.61251;stroke-linejoin:bevel;stroke-miterlimit:4.1;stroke-dasharray:3.22501, 1.61251;stroke-opacity:0.252974"
       d="M 189.08594,1.109375 A 182.91732,182.91732 0 0 0 6.1679688,184.02734 182.91732,182.91732 0 0 0 189.08594,366.94336 182.91732,182.91732 0 0 0 372.00195,184.02734 182.91732,182.91732 0 0 0 189.08594,1.109375 Z m -99.626956,82.121094 54.433596,0.189453 51.05469,71.326168 28.34179,-37.54101 -18.95703,-2.25196 V 83.232422 h 91.78516 v 33.035158 l -18.39453,3.1914 -52.18164,64.00391 54.99609,67.00977 19.14648,3.0039 v 32.84766 h -53.49414 l -54.80859,-73.39258 -29.65625,39.79297 16.33008,2.06445 v 31.53321 H 87.582031 v -32.84766 l 18.958989,-3.00391 54.80859,-66.07031 -52.93164,-64.94336 -18.958986,-3.19141 z"
       transform="scale(0.26458333)" />
    <g
       aria-label="χ"
       transform="matrix(9.6102624,0,0,9.6102624,-876.91952,-867.5618)"
       id="text835"
       style="font-style:normal;font-variant:normal;font-weight:normal;font-stretch:normal;font-size:10.5833px;line-height:1.25;font-family:'Roboto Slab';-inkscape-font-specification:'Roboto Slab';white-space:pre;shape-inside:url(#rect837);fill:#000000;fill-opacity:1;stroke:none" />
  </g>
</svg>
