<?xml version="1.0" encoding="UTF-8" standalone="no"?>
<svg
   xmlns:dc="http://purl.org/dc/elements/1.1/"
   xmlns:cc="http://creativecommons.org/ns#"
   xmlns:rdf="http://www.w3.org/1999/02/22-rdf-syntax-ns#"
   xmlns:svg="http://www.w3.org/2000/svg"
   xmlns="http://www.w3.org/2000/svg"
   xmlns:sodipodi="http://sodipodi.sourceforge.net/DTD/sodipodi-0.dtd"
   xmlns:inkscape="http://www.inkscape.org/namespaces/inkscape"
   width="400"
   height="400"
   viewBox="0 0 105.83333 105.83334"
   version="1.1"
   id="svg49735"
   inkscape:version="1.0.2 (e86c870879, 2021-01-15)"
   sodipodi:docname="01.svg">
  <defs
     id="defs49729" />
  <sodipodi:namedview
     id="base"
     pagecolor="#ffffff"
     bordercolor="#666666"
     borderopacity="1.0"
     inkscape:pageopacity="0.0"
     inkscape:pageshadow="2"
     inkscape:zoom="1.2165791"
     inkscape:cx="224.29672"
     inkscape:cy="226.67998"
     inkscape:document-units="mm"
     inkscape:current-layer="layer1"
     inkscape:document-rotation="0"
     showgrid="false"
     units="px"
     inkscape:window-width="1422"
     inkscape:window-height="960"
     inkscape:window-x="0"
     inkscape:window-y="206"
     inkscape:window-maximized="0"
     showguides="false" />
  <metadata
     id="metadata49732">
    <rdf:RDF>
      <cc:Work
         rdf:about="">
        <dc:format>image/svg+xml</dc:format>
        <dc:type
           rdf:resource="http://purl.org/dc/dcmitype/StillImage" />
        <dc:title />
      </cc:Work>
    </rdf:RDF>
  </metadata>
  <g
     inkscape:label="Layer 1"
     inkscape:groupmode="layer"
     id="layer1">
    <rect
       style="display:inline;fill:#ffffff;fill-opacity:1;stroke:none;stroke-width:0.341868;stroke-linejoin:round;stroke-miterlimit:4;stroke-dasharray:none;stroke-dashoffset:7.35;stroke-opacity:1"
       id="rect49606"
       width="105.49147"
       height="105.49147"
       x="-4.4408921e-16"
       y="0"
       ry="0.13327956" />
    <path
       d="m 52.697256,64.871104 q -1.40612,0 -2.39648,-0.99396 -0.99039,-0.99396 -0.99039,-2.40008 0,-1.40611 0.99396,-2.39648 0.99396,-0.99038 2.40008,-0.99038 1.40612,0 2.3965,0.99396 0.99036,0.99401 0.99036,2.40008 0,1.40612 -0.99396,2.39649 -0.99396,0.99037 -2.40007,0.99037 z m -3.5653,27.48068 v -9.27921 h -3.96149 l 4.7288,-13.40126 q 0.32117,-0.85654 1.0841,-1.40076 0.76291,-0.54428 1.72197,-0.54428 0.95911,0 1.71748,0.54428 0.7584,0.54422 1.07962,1.40076 l 4.72877,13.40126 h -3.96149 v 9.27921 z"
       id="path2007"
       style="display:inline;stroke-width:0.0535338" />
    <path
       d="m 62.367326,80.267574 q -0.68206,0 -1.18308,-0.50102 -0.50101,-0.501 -0.50101,-1.18307 v -18.86199 q 0,-0.68205 0.50101,-1.18307 0.50102,-0.50102 1.18308,-0.50102 h 10.7783 q 0.68204,0 1.18307,0.50102 0.501,0.50102 0.501,1.18307 v 18.86199 q 0,0.68207 -0.501,1.18307 -0.50103,0.50102 -1.18307,0.50102 z m 0,-2.52613 v 0.84204 h 10.7783 v -0.84204 z m 0,-1.68412 h 10.7783 v -13.80968 h -10.7783 z m 0,-15.49379 h 10.7783 v -0.84204 h -10.7783 z m 0,0 v -0.84204 z m 0,17.17791 v 0.84204 z"
       id="path1977"
       style="display:inline;stroke-width:0.0252615" />
    <path
       d="m 88.811556,63.047766 q -0.57061,0 -1.09367,-0.21049 -0.52307,-0.21054 -0.93567,-0.62313 l -5.22072,-5.229147 0.50523,-0.63154 q 0.31996,-0.40419 0.79574,-0.55997 0.47575,-0.15578 0.97254,-0.0211 l 2.17252,0.59786 v -8.47947 q 0,-0.35788 0.24294,-0.59996 0.24294,-0.24208 0.60206,-0.24208 0.35911,0 0.5991,0.24208 0.23998,0.24208 0.23998,0.59996 v 10.719307 l -2.90507,-0.78311 3.20281,3.20281 q 0.15701,0.15701 0.37389,0.24542 0.21693,0.0884 0.44832,0.0884 h 4.2692 q 0.9852,0 1.67148,-0.68628 0.68628,-0.68628 0.68628,-1.67148 v -4.378687 q 0,-0.35786 0.24294,-0.59996 0.24294,-0.24208 0.60206,-0.24208 0.35912,0 0.5991,0.24208 0.23998,0.2421 0.23998,0.59996 v 4.378687 q 0,1.66726 -1.18729,2.85455 -1.18729,1.18729 -2.85455,1.18729 z m 0.34525,-7.241647 v -4.21027 q 0,-0.35786 0.24294,-0.59996 0.24294,-0.24208 0.60206,-0.24208 0.35912,0 0.5991,0.24208 0.23999,0.2421 0.23999,0.59996 v 4.21027 z m 3.13243,0 v -3.19981 q 0,-0.35785 0.24294,-0.59996 0.24294,-0.24208 0.60206,-0.24208 0.35912,0 0.5991,0.24208 0.23999,0.24211 0.23999,0.59996 v 3.19981 z m -13.35494,-8.25212 v -4.71547 h 1.17885 v 2.24828 q 1.9704,-1.57463 4.26923,-2.4167 2.2988,-0.84204 4.82495,-0.84204 3.4861,0 6.17223,1.53254 2.68613,1.53252 3.76396,4.19339 h -1.28834 q -1.17887,-2.18931 -3.44819,-3.36819 -2.26932,-1.17888 -5.19966,-1.17888 -2.42457,0 -4.65628,0.85889 -2.23171,0.85889 -4.11791,2.50933 h 3.21663 v 1.17885 z m 12.41183,10.694067 z"
       id="path9271"
       style="display:inline;stroke-width:0.0252615" />
    <path
       d="m 67.843056,70.529264 q -0.14634,0 -0.24942,-0.10345 -0.10307,-0.10345 -0.10307,-0.24978 0,-0.14635 0.10345,-0.24942 0.10344,-0.10307 0.24978,-0.10307 0.14634,0 0.24941,0.10345 0.10308,0.10345 0.10308,0.24979 0,0.14634 -0.10345,0.24941 -0.10345,0.10307 -0.24978,0.10307 z m -0.37106,2.86003 v -0.96573 h -0.41229 l 0.49215,-1.39472 q 0.0334,-0.0891 0.11283,-0.14578 0.0794,-0.0567 0.17921,-0.0567 0.0998,0 0.17875,0.0567 0.0789,0.0566 0.11236,0.14578 l 0.49214,1.39472 h -0.41229 v 0.96573 z"
       id="path2007-6"
       style="display:inline;stroke-width:0.00557149" />
    <path
       d="m 67.369036,65.627924 v -1.25499 h 0.26058 v 0.59837 c 0.29036,-0.2794 0.60493,-0.49379 0.94369,-0.6432 0.33876,-0.14938 0.69427,-0.2241 1.06653,-0.2241 0.51372,0 0.9685,0.13595 1.36434,0.40788 0.39584,0.27191 0.67318,0.64392 0.83201,1.11604 h -0.28478 c -0.17372,-0.38845 -0.4278,-0.68725 -0.76221,-0.89642 -0.33441,-0.20914 -0.71753,-0.31375 -1.14936,-0.31375 -0.35729,0 -0.70038,0.0762 -1.02925,0.2286 -0.32887,0.15238 -0.63228,0.37501 -0.91024,0.66784 h 0.71102 v 0.31375 z"
       id="path9271-6"
       style="display:inline;stroke-width:0.00612715"
       sodipodi:nodetypes="ccccsscccssscccc" />
    <path
       d="m 85.016032,73.994893 c 0.0997,0.258055 0.0655,0.501515 -0.10267,0.730379 -0.16815,0.228876 -0.39433,0.343314 -0.67853,0.343314 -0.14434,0 -0.27715,-0.03686 -0.39842,-0.110595 -0.12128,-0.07373 -0.21465,-0.181255 -0.28011,-0.322577 -0.32291,0.03996 -0.60675,-0.06564 -0.85153,-0.316804 -0.24477,-0.251145 -0.35377,-0.544915 -0.32698,-0.881307 -0.13392,-0.07526 -0.23734,-0.185476 -0.31026,-0.330635 -0.0729,-0.145153 -0.10936,-0.29146 -0.10936,-0.438921 0,-0.299529 0.11122,-0.528018 0.33368,-0.685465 0.22246,-0.157443 0.47133,-0.174727 0.74661,-0.05185 l 0.40623,0.170499 c 0.0804,-0.161289 0.19344,-0.288398 0.33926,-0.381327 0.14583,-0.09293 0.30505,-0.144002 0.47766,-0.153219 v -0.585234 h 0.35266 v 0.622096 c 0.17707,0.04146 0.32959,0.134014 0.45756,0.277645 0.12797,0.143622 0.21502,0.296841 0.26115,0.459659 h 0.59818 v 0.368648 h -0.56694 c -0.0119,0.178184 -0.0614,0.34254 -0.14842,0.493069 -0.087,0.150534 -0.2087,0.267275 -0.36494,0.350223 z m -1.58473,0.188923 c -0.009,-0.124414 -0.003,-0.249985 0.019,-0.376711 0.0216,-0.126722 0.0539,-0.249991 0.0971,-0.369802 -0.11458,0.0599 -0.23399,0.09792 -0.35824,0.11405 -0.12425,0.01614 -0.24887,0.01658 -0.37386,0.0013 0.006,0.161282 0.0718,0.306823 0.19753,0.436622 0.12574,0.129792 0.26524,0.194688 0.41851,0.194688 z m -0.49551,-1.082903 c 0.16666,0 0.33443,-0.03917 0.50332,-0.117504 0.1689,-0.07834 0.30468,-0.151309 0.40735,-0.218892 l -0.90175,-0.382481 c -0.11755,-0.05222 -0.23696,-0.048 -0.35823,0.01267 -0.12128,0.06068 -0.18192,0.151688 -0.18192,0.273032 0,0.11981 0.0625,0.221956 0.1875,0.306438 0.125,0.08449 0.23957,0.126728 0.34373,0.126728 z m 1.29904,1.506864 c 0.12945,0 0.23324,-0.04493 0.31136,-0.134794 0.0781,-0.08986 0.0949,-0.19239 0.0502,-0.307597 l -0.38837,-1.027617 c -0.0818,0.138244 -0.15736,0.281866 -0.22656,0.430866 -0.0692,0.148997 -0.10378,0.320265 -0.10378,0.513807 0,0.112136 0.0301,0.227725 0.0904,0.346767 0.0603,0.119046 0.14917,0.178568 0.26673,0.178568 z m 0.43747,-1.488431 c 0.0923,-0.06145 0.15624,-0.137096 0.19195,-0.226953 0.0357,-0.08986 0.0536,-0.185483 0.0536,-0.286857 0,-0.156678 -0.0536,-0.291083 -0.1607,-0.403214 -0.10714,-0.112132 -0.23585,-0.168198 -0.38614,-0.168198 -0.0982,0 -0.1927,0.02151 -0.28347,0.06451 -0.0908,0.04301 -0.16071,0.111367 -0.20981,0.205066 l 0.56247,0.239625 z"
       id="path10317-8-8"
       style="display:inline;stroke-width:0.00680324"
       sodipodi:nodetypes="ccsscccsscccscccccccccccccscccccccccccssccssccsssscsssssccc" />
    <path
       d="m 21.780149,26.120894 v -0.736483 h -1.076434 v -0.566518 h 0.736483 v -3.512411 h -0.736483 v -0.566517 h 1.076434 v -0.736484 h 0.566528 v 0.736484 h 0.849786 v -0.736484 h 0.566508 v 0.767635 q 0.453225,0.101973 0.736483,0.460304 0.283259,0.358331 0.283259,0.811546 0,0.240767 -0.0906,0.471635 -0.0906,0.230867 -0.260589,0.414973 0.32008,0.172795 0.505616,0.481545 0.185536,0.308749 0.185536,0.671331 0,0.538197 -0.379572,0.920589 -0.379572,0.382402 -0.923429,0.382402 h -0.0567 v 0.736483 h -0.566518 v -0.736483 h -0.849786 v 0.736483 z m 0.226607,-3.342505 h 1.472946 q 0.30875,0 0.522617,-0.216697 0.213857,-0.216697 0.213857,-0.519786 0,-0.30875 -0.213857,-0.522617 -0.213867,-0.213867 -0.522617,-0.213867 h -1.472946 z m 0,2.039464 h 1.812857 q 0.30875,0 0.522617,-0.216697 0.213856,-0.216697 0.213856,-0.519786 0,-0.30875 -0.213856,-0.522617 -0.213867,-0.213866 -0.522617,-0.213866 h -1.812857 z"
       stroke-width="0.00849787"
       id="path4" />
    <path
       d="m 22.243163,16.344586 h 6.399802 v -2.23997 q 0,-1.381044 -0.926299,-2.315673 -0.926289,-0.9347 -2.273572,-0.9347 -1.347342,0 -2.273571,0.9347 -0.92629,0.934709 -0.92629,2.315673 z m 4.580945,14.045443 h -7.780845 q -0.665231,0 -1.174637,-0.509466 Q 17.35916,29.371117 17.35916,28.705926 V 18.028589 q 0,-0.665231 0.509466,-1.174637 0.509436,-0.509466 1.174637,-0.509466 h 1.515747 v -2.23997 q 0,-2.063065 1.418845,-3.498811 1.418945,-1.435745 3.465109,-1.435745 2.046265,0 3.465109,1.435745 1.418845,1.435746 1.418845,3.498811 v 2.23997 h 1.515748 q 0.665231,0 1.174637,0.509466 0.509466,0.509436 0.509466,1.174637 v 1.90316 q -0.370532,-0.101053 -0.770504,-0.143134 -0.399983,-0.0421 -0.913639,-0.0421 V 18.028659 H 19.043223 v 10.677337 h 6.854516 q 0.185275,0.488395 0.387382,0.863117 0.202086,0.374712 0.538917,0.821026 z m 5.237765,0.909438 q -2.029464,0 -3.48201,-1.452546 -1.452546,-1.452545 -1.452546,-3.482009 0,-2.029464 1.452546,-3.48201 1.452546,-1.452546 3.48201,-1.452546 2.029364,0 3.482009,1.452546 1.452646,1.452546 1.452546,3.48201 0,2.029364 -1.452546,3.482009 -1.452545,1.452646 -3.482009,1.452546 z m 1.802056,-2.442077 0.690502,-0.690491 -2.037864,-1.90306 v -3.031496 h -1.044233 v 3.364506 z M 19.043463,18.028049 v 10.677337 z"
       stroke-width="0.0252628"
       id="path16" />
    <path
       d="m 39.454706,30.858043 q -0.333761,0 -0.570788,-0.237497 -0.237038,-0.237478 -0.237038,-0.570978 v -4.042327 h 1.616951 v 4.042327 q 0,0.3335 -0.237677,0.570978 -0.237678,0.237497 -0.571438,0.237497 z M 38.64688,25.419172 v -0.809125 q 0,-0.333761 0.237688,-0.570788 0.237677,-0.237028 0.571438,-0.237028 0.33376,0 0.570788,0.237498 0.237027,0.237477 0.237027,0.570978 v 0.808465 z m 3.527211,5.438871 q -0.33376,0 -0.570788,-0.237497 -0.237027,-0.237478 -0.237027,-0.570978 v -2.719386 h 1.616951 v 2.719386 q 0,0.3335 -0.237688,0.570978 -0.237677,0.237497 -0.571438,0.237497 z m -0.807815,-4.115929 v -0.809126 q 0,-0.33376 0.237677,-0.570788 0.237678,-0.237027 0.571438,-0.237027 0.333761,0 0.570798,0.237497 0.237028,0.237488 0.237028,0.570978 v 0.808476 z m 3.527211,4.115929 q -0.333771,0 -0.570798,-0.237497 -0.237028,-0.237478 -0.237028,-0.570978 v -1.396444 h 1.616951 v 1.396444 q 0,0.3335 -0.237677,0.570978 -0.237688,0.237497 -0.571438,0.237497 z M 44.085661,28.065155 V 27.25604 q 0,-0.333761 0.237678,-0.570788 0.237687,-0.237038 0.571448,-0.237038 0.33376,0 0.570788,0.237498 0.237027,0.237477 0.237027,0.570978 v 0.808465 z"
       stroke-width="0.0110243"
       id="path18" />
    <path
       d="m 12.347319,26.330015 q -0.420613,0 -0.716861,-0.297324 -0.296255,-0.297324 -0.296255,-0.717937 0,-0.420611 0.297324,-0.716861 0.297323,-0.296253 0.717937,-0.296253 0.420614,0 0.716867,0.297324 0.296247,0.297338 0.296247,0.717937 0,0.420614 -0.297324,0.716864 -0.297324,0.29625 -0.717935,0.29625 z m -1.06649,8.220314 v -2.775696 h -1.185003 l 1.414529,-4.008728 q 0.09607,-0.256218 0.324287,-0.41901 0.22821,-0.162811 0.515094,-0.162811 0.286899,0 0.513751,0.162811 0.226861,0.162792 0.322948,0.41901 l 1.41452,4.008728 h -1.185003 v 2.775696 z"
       id="path2007-3"
       style="display:inline;stroke-width:0.0160136" />
    <path
       d="m 56.584763,32.968603 -4.619248,-7.82043 11.596297,-1.575095 z m 0.0785,-1.727516 4.788746,-6.421811 -7.95014,1.069636 1.145195,1.938871 3.391554,-0.992379 -2.515876,2.475019 z m 0,0 -3.161216,-5.352193 z"
       stroke-width="0.0141917"
       id="path62" />
    <path
       d="m 70.156259,27.945273 -0.261864,-1.18509 -1.732032,0.382744 -0.201451,-0.911579 1.185089,-0.261881 -1.248946,-5.651935 -1.185072,0.261866 -0.201434,-0.911575 1.732032,-0.382743 -0.261865,-1.185072 0.911593,-0.201453 0.261865,1.185072 1.367397,-0.302169 -0.261865,-1.185072 0.911575,-0.201435 0.272944,1.235208 q 0.765558,0.0036 1.348771,0.478804 0.583214,0.475859 0.744361,1.205126 0.08564,0.387436 0.02177,0.791142 -0.06369,0.403707 -0.271766,0.760401 0.576469,0.164318 0.984815,0.595061 0.408346,0.430845 0.53727,1.014273 0.191373,0.866006 -0.2834,1.616308 -0.474788,0.750286 -1.349929,0.943672 l -0.09117,0.02016 0.261883,1.185074 -0.911593,0.201453 -0.261865,-1.185074 -1.367415,0.302151 0.261881,1.185092 z m -0.823846,-5.458888 2.370109,-0.523765 q 0.496804,-0.109723 0.763879,-0.534504 0.267075,-0.424726 0.159323,-0.912431 Q 72.516,20.018861 72.095769,19.750769 71.675593,19.482677 71.178786,19.592517 l -2.370107,0.523766 z m 0.725182,3.281826 2.917138,-0.644625 q 0.496824,-0.109724 0.763899,-0.534506 0.267073,-0.424724 0.159322,-0.912449 -0.109724,-0.496805 -0.529955,-0.764896 -0.420192,-0.268074 -0.916998,-0.158252 l -2.91714,0.644624 z"
       stroke-width="0.0140037"
       id="path64" />
    <path
       d="m 94.635993,20.507516 q -0.596092,0 -1.021587,-0.424472 -0.425516,-0.424499 -0.425516,-1.020582 0,-0.596083 0.42448,-1.021622 0.424503,-0.425476 1.020573,-0.425476 0.596091,0 1.021628,0.424468 0.425495,0.424501 0.425495,1.020584 0,0.596083 -0.42446,1.021591 -0.424502,0.425509 -1.020572,0.425509 z m -1.024796,12.374925 v -6.347367 q 0,-0.639836 -0.323118,-1.15175 -0.323117,-0.511881 -0.898982,-0.767821 l 0.748656,-2.194744 q 0.153618,-0.4799 0.566257,-0.767853 0.4127,-0.287932 0.93101,-0.287932 0.518308,0 0.930989,0.287932 0.412742,0.287941 0.566319,0.767853 l 1.957959,5.726637 h -2.047542 v 4.735107 z m -3.263243,-8.062242 q -0.479905,0 -0.815817,-0.335924 -0.335933,-0.335924 -0.335933,-0.815824 0,-0.479902 0.335933,-0.815826 0.335912,-0.335923 0.815817,-0.335923 0.479903,0 0.815815,0.335923 0.335933,0.335924 0.335933,0.815826 0,0.4799 -0.335933,0.815824 -0.335912,0.335924 -0.815815,0.335924 z m -5.309876,-4.312683 q -0.59609,0 -1.021586,-0.424472 -0.425517,-0.424499 -0.425517,-1.020582 0,-0.596083 0.424461,-1.021622 0.424502,-0.425476 1.020593,-0.425476 0.596112,0 1.021628,0.424468 0.425496,0.424501 0.425496,1.020584 0,0.596083 -0.424461,1.021591 -0.424501,0.425509 -1.020593,0.425509 z M 83.62938,32.882441 v -5.502835 h -1.279736 v -4.735108 q 0,-0.527871 0.37589,-0.903803 0.375911,-0.375902 0.903805,-0.375902 h 2.815409 q 0.527874,0 0.903805,0.375902 0.375932,0.3759 0.375932,0.903803 v 4.735108 h -1.279737 v 5.502835 z m 5.630632,0 v -3.199338 h -0.895813 v -3.148029 q 0,-0.394598 0.276203,-0.670778 0.276225,-0.276215 0.670788,-0.276215 h 2.073173 q 0.394565,0 0.67079,0.276215 0.276203,0.276191 0.276203,0.670778 v 3.148029 h -0.895813 v 3.199338 z"
       stroke-width="0.019196"
       id="path4-5" />
    <path
       d="M 98.549157,5.6228422 V 4.4036066 h 0.530109 v 1.2192356 z m 2.062133,0.8534712 -0.36842,-0.368408 0.85876,-0.8720133 0.37108,0.3790165 z M 101.09368,8.16736 V 7.6372525 h 1.21922 V 8.16736 Z m -2.544523,3.233649 v -1.219237 h 0.530109 v 1.219237 z M 97.011849,6.4657051 96.153094,5.6148776 96.526811,5.2437947 97.388258,6.1051973 Z m 4.092321,4.0976949 -0.86142,-0.8667219 0.36049,-0.3604765 0.87467,0.8428624 z M 95.315541,8.1672979 V 7.6371904 h 1.21924 v 0.5301075 z m 1.216591,2.3961021 -0.376366,-0.373727 0.853475,-0.8534714 0.193577,0.1775934 0.193576,0.1855435 z m 2.282131,-0.7527437 q -0.795174,0 -1.351784,-0.5566119 -0.55661,-0.5566099 -0.55661,-1.3517536 0,-0.7951438 0.55661,-1.3517869 0.55661,-0.5566099 1.351784,-0.5566099 0.79517,0 1.351777,0.5566099 0.55661,0.556612 0.55661,1.3517869 0,0.7951768 -0.55661,1.3517536 -0.556607,0.5566119 -1.351777,0.5566119 z m 0,-0.5301075 q 0.572513,0 0.97542,-0.402875 0.402857,-0.4028772 0.402857,-0.9754142 0,-0.572539 -0.402857,-0.975414 -0.402887,-0.4028772 -0.97542,-0.4028772 -0.57253,0 -0.975417,0.4028772 -0.402888,0.402875 -0.402888,0.975414 0,0.572537 0.402888,0.9754142 0.402887,0.402875 0.975417,0.402875 z"
       stroke-width="0.00795177"
       id="path46" />
    <path
       d="M 84.645149,14.605998 V 12.06148 h -0.954196 l 3.180761,-2.8625949 1.484307,1.3199619 V 9.6229438 h 0.742132 v 1.5744252 l 0.954198,0.861813 h -0.954198 v 2.546785 H 87.242759 V 12.69757 h -0.742154 v 1.908397 z m 0.53011,-0.530106 h 0.795175 v -1.908397 h 1.802352 v 1.908397 h 0.795175 v -2.634638 l -1.696372,-1.5373136 -1.69633,1.5373136 z m 0.795175,-1.908397 h 1.802352 z m 0.238544,-0.792531 h 1.325243 q 0,-0.259746 -0.198752,-0.428059 -0.198752,-0.168297 -0.463838,-0.168297 -0.265044,0 -0.463839,0.167469 -0.198751,0.16747 -0.198751,0.428908 z"
       stroke-width="0.00795177"
       id="path48" />
    <path
       d="m 98.957178,24.434289 q 0.187572,0.03939 0.292332,0.19987 0.104755,0.160451 0.06542,0.348042 l -0.380424,1.811228 q -0.03933,0.187594 -0.199787,0.292339 -0.160451,0.104756 -0.348045,0.06536 l -1.720656,-0.36142 0.427979,-2.037611 q 0.08717,0.01822 0.159624,-0.0368 0.07246,-0.05511 0.09171,-0.146807 0.01864,-0.0917 -0.02485,-0.1713 -0.0441,-0.0796 -0.13126,-0.09791 l 0.04762,-0.226403 z m 0.04885,0.893164 q -0.05631,0.02008 -0.11594,0.02294 -0.05962,0.003 -0.122975,-0.01059 l -0.09048,-0.01904 -0.332868,1.584812 0.09048,0.01904 q 0.09441,0.01988 0.174321,-0.03236 0.07992,-0.05216 0.09979,-0.146496 z m -0.555989,-0.05414 -1.177317,-0.247285 -0.332868,1.58481 1.177317,0.247284 z m 0.555989,0.05414 -0.345497,1.644807 z m -0.09523,-0.666559 -1.349259,-0.283405 q 0.01656,0.05551 0.02071,0.115892 0.0042,0.06037 -0.01035,0.122642 -0.01242,0.06339 -0.03996,0.116914 -0.0265,0.05352 -0.0677,0.0969 l 1.351391,0.283849 q 0.0942,0.01987 0.173701,-0.03246 0.0795,-0.05223 0.09937,-0.14658 0.02071,-0.09509 -0.03188,-0.174529 -0.05176,-0.07944 -0.145958,-0.09921 z"
       stroke-width="0.00347002"
       id="path50" />
    <g
       transform="matrix(0.08710949,0,0,0.08710949,7.2763655,3.9814518)"
       id="g16">
      <path
         d="m 65.419,0.36106 a 63.719,63.72 0 0 0 -63.72,63.72 63.719,63.72 0 0 0 63.72,63.719 63.719,63.72 0 0 0 63.719,-63.719 63.719,63.72 0 0 0 -63.719,-63.72 z m -34.705,28.607 18.962,0.06599 17.785,24.847 9.8729,-13.077 -6.6037,-0.78448 v -11.05 h 31.973 v 11.508 l -6.4077,1.1117 -18.177,22.296 19.158,23.343 6.6697,1.0464 v 11.443 h -18.635 l -19.093,-25.566 -10.331,13.862 5.6886,0.71916 v 10.985 h -31.516 v -11.443 l 6.6044,-1.0464 19.093,-23.016 -18.439,-22.623 -6.6044,-1.1117 z"
         fill="#ffb200"
         stroke="#000000"
         stroke-dasharray="0, 6.182"
         stroke-linejoin="bevel"
         stroke-miterlimit="4.1"
         stroke-opacity="0.25297"
         stroke-width="0.562"
         id="path14" />
    </g>
  </g>
</svg>
