<?xml version="1.0" encoding="UTF-8" standalone="no"?>
<svg
   xmlns:dc="http://purl.org/dc/elements/1.1/"
   xmlns:cc="http://creativecommons.org/ns#"
   xmlns:rdf="http://www.w3.org/1999/02/22-rdf-syntax-ns#"
   xmlns:svg="http://www.w3.org/2000/svg"
   xmlns="http://www.w3.org/2000/svg"
   xmlns:xlink="http://www.w3.org/1999/xlink"
   xmlns:sodipodi="http://sodipodi.sourceforge.net/DTD/sodipodi-0.dtd"
   xmlns:inkscape="http://www.inkscape.org/namespaces/inkscape"
   width="400"
   height="400"
   viewBox="0 0 105.83333 105.83334"
   version="1.1"
   id="svg49735"
   inkscape:version="1.0.2 (e86c870879, 2021-01-15)"
   sodipodi:docname="01.svg">
  <defs
     id="defs49729">
    <linearGradient
       inkscape:collect="always"
       id="linearGradient2037">
      <stop
         style="stop-color:#ffffff;stop-opacity:1;"
         offset="0"
         id="stop2033" />
      <stop
         style="stop-color:#ffffff;stop-opacity:0;"
         offset="1"
         id="stop2035" />
    </linearGradient>
    <linearGradient
       inkscape:collect="always"
       id="linearGradient1996">
      <stop
         style="stop-color:#ffffff;stop-opacity:1"
         offset="0"
         id="stop1992" />
      <stop
         style="stop-color:#ffffff;stop-opacity:1"
         offset="1"
         id="stop1994" />
    </linearGradient>
    <rect
       x="41.277207"
       y="44.430999"
       width="27.040926"
       height="12.10879"
       id="rect953" />
    <radialGradient
       inkscape:collect="always"
       xlink:href="#linearGradient1761"
       id="radialGradient1763"
       cx="67.288666"
       cy="117.13188"
       fx="67.288666"
       fy="117.13188"
       r="29.077202"
       gradientUnits="userSpaceOnUse"
       gradientTransform="matrix(0.46918571,0,0,0.46918571,22.883973,-10.385114)" />
    <linearGradient
       inkscape:collect="always"
       id="linearGradient1761">
      <stop
         style="stop-color:#ffffff;stop-opacity:0.99738669"
         offset="0"
         id="stop1765" />
      <stop
         style="stop-color:#db8e00;stop-opacity:0;"
         offset="1"
         id="stop1767" />
    </linearGradient>
    <linearGradient
       inkscape:collect="always"
       xlink:href="#linearGradient1996"
       id="linearGradient1998"
       x1="128.60457"
       y1="18.974853"
       x2="141.10161"
       y2="26.276131"
       gradientUnits="userSpaceOnUse"
       gradientTransform="translate(-9.4258201,18.057165)" />
    <linearGradient
       inkscape:collect="always"
       xlink:href="#linearGradient2037"
       id="linearGradient2039"
       x1="117.22872"
       y1="60.675411"
       x2="150.86311"
       y2="60.675411"
       gradientUnits="userSpaceOnUse"
       gradientTransform="translate(1.7451455,1.261982)" />
  </defs>
  <sodipodi:namedview
     id="base"
     pagecolor="#ffffff"
     bordercolor="#666666"
     borderopacity="1.0"
     inkscape:pageopacity="0.0"
     inkscape:pageshadow="2"
     inkscape:zoom="1.763788"
     inkscape:cx="253.3015"
     inkscape:cy="249.90163"
     inkscape:document-units="mm"
     inkscape:current-layer="layer1"
     inkscape:document-rotation="0"
     showgrid="false"
     units="px"
     inkscape:window-width="1920"
     inkscape:window-height="1176"
     inkscape:window-x="0"
     inkscape:window-y="0"
     inkscape:window-maximized="1"
     showguides="true"
     inkscape:guide-bbox="true" />
  <metadata
     id="metadata49732">
    <rdf:RDF>
      <cc:Work
         rdf:about="">
        <dc:format>image/svg+xml</dc:format>
        <dc:type
           rdf:resource="http://purl.org/dc/dcmitype/StillImage" />
        <dc:title />
      </cc:Work>
    </rdf:RDF>
  </metadata>
  <g
     inkscape:label="Layer 1"
     inkscape:groupmode="layer"
     id="layer1">
    <rect
       style="display:inline;fill:#ffffff;fill-opacity:1;stroke:none;stroke-width:0.342976;stroke-linejoin:round;stroke-miterlimit:4;stroke-dasharray:none;stroke-dashoffset:7.35;stroke-opacity:1"
       id="rect49606"
       width="105.83334"
       height="105.83334"
       x="0"
       y="0"
       ry="0.13371147" />
    <path
       d="m 90.154683,62.188048 q 0.495988,0 0.850028,-0.35319 0.354057,-0.35321 0.354057,-0.849191 0,-0.495981 -0.353195,-0.850057 -0.353214,-0.354024 -0.849184,-0.354024 -0.495987,0 -0.850059,0.353185 -0.354045,0.353213 -0.354045,0.849193 0,0.495981 0.35318,0.850032 0.353215,0.354052 0.849184,0.354052 z m 0.852698,10.296751 v -5.281427 q 0,-0.532386 0.268855,-0.958332 0.268854,-0.425918 0.748013,-0.638877 l -0.622932,-1.826172 q -0.12782,-0.399308 -0.471163,-0.638904 -0.343393,-0.239578 -0.774661,-0.239578 -0.431262,0 -0.774644,0.239578 -0.343429,0.239586 -0.471215,0.638904 l -1.629161,4.764939 h 1.703696 v 3.93992 z m 2.715232,-6.708315 q 0.399313,0 0.678814,-0.279512 0.279518,-0.279511 0.279518,-0.678819 0,-0.39931 -0.279518,-0.678821 -0.279501,-0.27951 -0.678814,-0.27951 -0.39931,0 -0.678811,0.27951 -0.279519,0.279511 -0.279519,0.678821 0,0.399308 0.279519,0.678819 0.279501,0.279512 0.678811,0.279512 z m 4.418159,-3.588436 q 0.495987,0 0.850024,-0.35319 0.35406,-0.35321 0.35406,-0.849191 0,-0.495981 -0.35318,-0.850057 -0.353217,-0.354024 -0.849204,-0.354024 -0.495997,0 -0.850057,0.353185 -0.35404,0.353213 -0.35404,0.849193 0,0.495981 0.35318,0.850032 0.35321,0.354052 0.849197,0.354052 z m 1.172124,10.296751 v -4.578721 h 1.064824 v -3.939921 q 0,-0.439223 -0.31276,-0.752023 -0.312787,-0.312776 -0.752024,-0.312776 h -2.342611 q -0.439217,0 -0.752014,0.312776 -0.3128,0.312773 -0.3128,0.752023 v 3.939921 h 1.064814 v 4.578721 z m -4.685043,0 v -2.66206 h 0.745371 v -2.619367 q 0,-0.328332 -0.229815,-0.558131 -0.229837,-0.22983 -0.558139,-0.22983 h -1.725017 q -0.328304,0 -0.558141,0.22983 -0.229819,0.229809 -0.229819,0.558131 v 2.619367 h 0.745375 v 2.66206 z"
       stroke-width="0.0159724"
       id="path4-5" />
    <path
       d="m 13.044578,62.529131 q -0.617135,0 -1.051798,-0.436241 -0.434673,-0.436242 -0.434673,-1.053377 0,-0.617132 0.436241,-1.051797 0.436241,-0.434671 1.053378,-0.434671 0.617135,0 1.051806,0.436242 0.434662,0.436264 0.434662,1.053377 0,0.617135 -0.436243,1.051802 -0.436241,0.434665 -1.053373,0.434665 z M 11.479794,74.590194 V 70.517619 H 9.7411258 l 2.0754352,-5.881711 q 0.140958,-0.375929 0.475803,-0.614783 0.334836,-0.238882 0.75576,-0.238882 0.420947,0 0.753789,0.238882 0.332858,0.238854 0.473839,0.614783 l 2.075422,5.881711 h -1.738669 v 4.072575 z"
       id="path2007-2"
       style="display:inline;stroke-width:0.0234955" />
    <path
       d="m 34.160122,69.113451 0.04883,-4.396221 5.196038,2.256122 z m 0.465741,-0.695528 3.593128,-1.457747 -3.559717,-1.550969 -0.01211,1.089921 1.653026,0.439708 -1.662317,0.393735 z m 0,0 0.03348,-3.008679 z"
       stroke-width="0.232048"
       id="path62-6" />
    <g
       transform="matrix(0.01685152,0,0,0.01685152,18.206044,56.07588)"
       id="g58-36-7">
      <g
         transform="matrix(0.04188,0,0,0.04188,75.616,54.993)"
         fill="#8dc351"
         id="g52-47-5">
        <path
           d="m 7525,15989 c -349,-23 -745,-74 -1074,-139 -1411,-279 -2741,-944 -3806,-1903 -103,-94 -479,-466 -575,-572 -245,-266 -540,-648 -754,-974 -84,-128 -216,-339 -216,-346 0,-2 -17,-32 -38,-66 -48,-80 -130,-233 -220,-414 C 359,10611 82,9566 10,8445 -3,8240 -3,7750 10,7545 113,5935 655,4458 1610,3185 c 239,-319 428,-535 744,-850 286,-286 436,-420 706,-632 C 4666,442 6732,-162 8765,35 c 1734,169 3354,891 4645,2071 632,577 1156,1241 1589,2014 64,113 231,450 301,605 345,767 574,1625 659,2470 32,311 41,496 41,810 0,808 -118,1588 -356,2359 -526,1697 -1613,3186 -3064,4197 -1216,848 -2616,1332 -4135,1429 -181,11 -740,11 -920,-1 z"
           id="path50-5-97-3" />
      </g>
      <g
         transform="matrix(0.04188,0,0,0.04188,75.616,54.993)"
         fill="#ffffff"
         id="g56-221-5">
        <path
           d="m 7751,13046 c -6,-17 -62,-222 -127,-456 -195,-713 -262,-951 -266,-956 -3,-2 -398,103 -879,234 -481,131 -875,238 -877,237 -3,-3 -112,-1041 -112,-1071 0,-17 8,-23 33,-28 75,-14 558,-147 627,-172 101,-38 181,-113 204,-193 28,-95 21,-155 -43,-390 -33,-119 -139,-504 -236,-856 -97,-352 -239,-867 -315,-1145 -76,-278 -193,-703 -260,-945 -67,-242 -142,-514 -166,-605 -25,-91 -57,-185 -72,-210 -44,-77 -110,-138 -190,-177 -67,-34 -84,-38 -171,-41 -134,-6 -233,16 -734,162 -81,23 -120,30 -122,22 -7,-20 -247,-901 -249,-910 0,-4 87,-33 194,-62 107,-30 499,-138 870,-241 371,-102 678,-189 682,-192 4,-3 -81,-323 -188,-711 -107,-388 -192,-710 -190,-715 2,-6 28,-17 57,-24 30,-8 222,-61 428,-117 206,-57 376,-103 377,-101 1,1 88,315 193,697 106,382 194,696 196,698 2,2 137,-35 302,-83 164,-48 318,-92 343,-100 35,-10 44,-17 42,-31 -2,-11 -87,-320 -188,-689 -101,-368 -184,-674 -184,-680 0,-9 858,-250 865,-243 2,2 91,322 198,711 107,389 196,710 199,712 2,3 42,-2 89,-10 416,-74 899,-94 1184,-51 672,104 1078,440 1283,1061 196,592 97,1085 -302,1499 l -73,76 h 118 c 828,0 1344,393 1564,1190 130,470 135,910 15,1273 -41,126 -137,313 -218,427 -145,205 -419,444 -699,612 -277,166 -754,378 -1083,483 -30,10 -58,20 -62,24 -4,3 71,290 166,636 96,347 185,671 198,721 l 25,91 -426,117 c -234,64 -431,116 -436,116 -6,0 -98,-318 -204,-707 -107,-390 -195,-709 -196,-710 -1,-2 -143,35 -316,81 -173,46 -329,87 -346,91 -18,3 -33,12 -33,18 0,11 16,68 259,952 71,259 128,471 126,473 -1,1 -196,56 -433,121 l -431,118 z m 442,-2762 c 928,-243 1429,-470 1733,-785 93,-98 132,-151 179,-252 54,-113 70,-186 69,-317 0,-211 -79,-419 -214,-563 -317,-339 -883,-384 -1824,-143 -226,58 -696,197 -696,207 0,4 117,433 260,953 143,520 260,948 260,951 0,10 22,5 233,-51 z M 7391,7495 c 657,-172 1015,-321 1295,-540 97,-76 161,-145 225,-243 60,-91 87,-161 107,-277 19,-113 7,-234 -39,-369 -102,-305 -310,-473 -660,-532 -82,-13 -140,-16 -298,-11 -227,6 -400,32 -681,103 -171,42 -609,170 -618,179 -4,4 126,484 431,1588 24,87 46,147 53,147 6,0 90,-20 185,-45 z"
           fill="#ffffff"
           id="path54-36-6-6" />
      </g>
    </g>
    <circle
       style="display:inline;fill:#ffffff;fill-opacity:1;stroke-width:0.426865;stroke-dashoffset:7.35"
       id="path864"
       cx="50.443329"
       cy="48.140301"
       r="18.429943" />
    <g
       id="g2092"
       transform="matrix(0.87053535,0,0,0.87053535,-48.46899,9.0543604)"
       style="stroke:#8dc351;stroke-width:1.11541;stroke-miterlimit:4;stroke-dasharray:1.11541, 2.23081;stroke-dashoffset:0;stroke-opacity:1">
      <path
         style="color:#000000;font-style:normal;font-variant:normal;font-weight:normal;font-stretch:normal;font-size:medium;line-height:normal;font-family:sans-serif;font-variant-ligatures:normal;font-variant-position:normal;font-variant-caps:normal;font-variant-numeric:normal;font-variant-alternates:normal;font-variant-east-asian:normal;font-feature-settings:normal;font-variation-settings:normal;text-indent:0;text-align:start;text-decoration:none;text-decoration-line:none;text-decoration-style:solid;text-decoration-color:#000000;letter-spacing:normal;word-spacing:normal;text-transform:none;writing-mode:lr-tb;direction:ltr;text-orientation:mixed;dominant-baseline:auto;baseline-shift:baseline;text-anchor:start;white-space:normal;shape-padding:0;shape-margin:0;inline-size:0;clip-rule:nonzero;display:inline;overflow:visible;visibility:visible;opacity:1;isolation:auto;mix-blend-mode:normal;color-interpolation:sRGB;color-interpolation-filters:linearRGB;solid-color:#000000;solid-opacity:1;vector-effect:none;fill:#8dc351;fill-opacity:1;fill-rule:nonzero;stroke:#8dc351;stroke-width:0.196431;stroke-linecap:butt;stroke-linejoin:round;stroke-miterlimit:4;stroke-dasharray:none;stroke-dashoffset:0;stroke-opacity:1;color-rendering:auto;image-rendering:auto;shape-rendering:auto;text-rendering:auto;enable-background:accumulate;stop-color:#000000;stop-opacity:1"
         d="m 125.78711,63.826172 -0.0605,1.113281 0.26758,0.01563 0.84375,0.04883 0.0644,-1.113281 -0.84375,-0.04883 a 0.55776076,0.55776076 0 0 0 -0.002,0 z m 3.3457,0.201172 -0.0723,1.113281 0.91406,0.06055 0.19727,0.01172 0.0762,-1.111329 -0.19922,-0.01367 z m 3.3418,0.230468 -0.0781,1.111329 0.14454,0.0098 0.96484,0.07422 0.084,-1.113281 -0.96484,-0.07227 a 0.55776076,0.55776076 0 0 0 -0.004,0 z m 3.34375,0.259766 -0.0937,1.111328 1.01562,0.08594 0.0918,0.0078 0.10156,-1.109375 -0.0937,-0.0098 a 0.55776076,0.55776076 0 0 0 -0.004,0 z m 3.33984,0.300781 -0.10937,1.109375 0.53125,0.05273 0.57617,0.05859 0.11523,-1.109374 -0.58007,-0.05859 a 0.55776076,0.55776076 0 0 0 -0.002,0 z m 3.33985,0.359375 -0.13477,1.107422 0.57422,0.07031 0.5293,0.06836 0.14258,-1.105469 -0.53126,-0.07031 a 0.55776076,0.55776076 0 0 0 -0.004,0 z m 3.33593,0.466797 -0.17773,1.101563 c 0.35943,0.05779 0.71877,0.12236 1.07813,0.193359 l 0.21679,-1.09375 c -0.37013,-0.07313 -0.74243,-0.140919 -1.11719,-0.201172 z m 3.38282,0.81836 -0.44727,1.021484 c 0.18478,0.08101 0.29815,0.148828 0.33399,0.189453 a 0.55776076,0.55776076 0 0 0 0.0273,0.0293 c -0.0743,-0.07294 -0.10278,-0.201653 -0.0898,-0.273437 0.0129,-0.07179 0.0406,-0.115774 0.10156,-0.158204 l 0.63672,0.914063 c 0.19614,-0.13651 0.3181,-0.329652 0.35937,-0.558594 0.0406,-0.22519 -0.0298,-0.510387 -0.22265,-0.707031 -0.23825,-0.257116 -0.51072,-0.374383 -0.69922,-0.457031 z m -1.96485,1.464843 c -0.35187,0.07914 -0.70868,0.149045 -1.07031,0.214844 l 0.19922,1.097656 c 0.3699,-0.0673 0.74358,-0.138628 1.11719,-0.222656 z m -3.27343,0.607422 c -0.36945,0.07226 -0.73941,0.150181 -1.10743,0.232422 l 0.24414,1.087891 c 0.3577,-0.07994 0.71584,-0.154131 1.07618,-0.22461 z m -3.30664,0.802735 c -0.36367,0.110359 -0.72629,0.229869 -1.0879,0.363281 l 0.38477,1.044922 c 0.33605,-0.123985 0.67949,-0.236233 1.02734,-0.341797 z m -3.2129,1.40039 c -0.33247,0.229833 -0.68988,0.516299 -0.95117,0.931641 l 0.94336,0.59375 c 0.13615,-0.216424 0.36514,-0.416987 0.64063,-0.607422 z m 0.47852,2.689453 -0.68359,0.88086 c 0.33237,0.258107 0.6854,0.463973 1.03515,0.642578 l 0.50782,-0.994141 c -0.31179,-0.159213 -0.60421,-0.331146 -0.85938,-0.529297 z m 2.84766,1.328125 -0.34961,1.058594 c 0.36407,0.12005 0.72854,0.228428 1.09179,0.330078 l 0.30078,-1.074219 c -0.35279,-0.09872 -0.70083,-0.201637 -1.04296,-0.314453 z m 3.17773,0.837891 -0.23633,1.089844 c 0.36831,0.08017 0.73514,0.15521 1.10352,0.226562 l 0.21289,-1.095703 c -0.36166,-0.07005 -0.72179,-0.142714 -1.08008,-0.220703 z m 3.25781,0.603516 -0.17382,1.101562 c 0.36888,0.05841 0.73923,0.114929 1.11132,0.167969 l 0.15821,-1.103516 c -0.36406,-0.0519 -0.73016,-0.108131 -1.09571,-0.166015 z m 3.29492,0.457031 -0.13476,1.107422 c 0.37156,0.0456 0.74325,0.08826 1.11523,0.128906 l 0.1211,-1.109375 c -0.36723,-0.04013 -0.73505,-0.08197 -1.10157,-0.126953 z m 3.3125,0.351562 -0.10351,1.111329 c 0.37072,0.03457 0.74157,0.06849 1.11523,0.09961 l 0.0937,-1.111328 c -0.36738,-0.03059 -0.7358,-0.06514 -1.10547,-0.09961 z m 3.32227,0.273438 -0.0801,1.111328 c 0.3721,0.02699 0.74393,0.05455 1.11719,0.07813 l 0.0703,-1.113281 c -0.36886,-0.0233 -0.73786,-0.04936 -1.10742,-0.07617 z m 3.33008,0.207031 -0.0586,1.113281 0.45703,0.02344 a 0.55776076,0.55776076 0 0 0 0.002,0 l 0.65625,0.0332 0.0547,-1.113281 -0.6543,-0.0332 z m 3.33398,0.152344 -0.043,1.113281 c 0.37319,0.01481 0.7464,0.02903 1.11914,0.04102 l 0.0352,-1.115235 c -0.37048,-0.01191 -0.74149,-0.02438 -1.11133,-0.03906 z m 3.33594,0.103516 -0.0254,1.115234 0.78125,0.01758 a 0.55776076,0.55776076 0 0 0 0.002,0 l 0.33399,0.0078 0.0215,-1.115234 -0.33203,-0.0078 z m 3.33984,0.0625 -0.0137,1.115234 0.85352,0.0098 a 0.55776076,0.55776076 0 0 0 0.004,0 l 0.25977,0.002 0.01,-1.115235 -0.25977,-0.002 z m 3.33985,0.02539 -0.002,1.115234 1.11524,0.002 0.002,-1.115235 z"
         id="path909" />
    </g>
    <path
       d="m 50.571818,29.533796 a 18.675239,18.675532 0 0 0 -18.67553,18.67553 18.675239,18.675532 0 0 0 18.67553,18.675245 18.675239,18.675532 0 0 0 18.675241,-18.675245 18.675239,18.675532 0 0 0 -18.675241,-18.67553 z m -10.1716,8.384352 5.557524,0.01936 5.212562,7.28234 2.893622,-3.832707 -1.93546,-0.229918 v -3.238614 h 9.370884 v 3.37285 l -1.878016,0.325827 -5.327451,6.534675 5.614968,6.841541 1.954806,0.306689 v 3.353796 h -5.461683 l -5.59592,-7.493074 -3.027887,4.06278 1.667258,0.210774 v 3.219568 h -9.236944 v -3.353798 l 1.935666,-0.306688 5.59592,-6.7457 -5.404241,-6.630522 -1.935666,-0.325821 z"
       fill="#ffb200"
       stroke="#000000"
       stroke-dasharray="0, 1.81186"
       stroke-linejoin="bevel"
       stroke-miterlimit="4.1"
       stroke-opacity="0.25297"
       stroke-width="0.164715"
       id="path1690"
       style="display:inline" />
    <circle
       style="display:inline;opacity:0.9;mix-blend-mode:lighten;fill:url(#radialGradient1763);fill-opacity:1;stroke:none;stroke-width:0.124334;stroke-linejoin:round;stroke-miterlimit:4;stroke-dasharray:none;stroke-dashoffset:7.35;stroke-opacity:1"
       id="path1747"
       cx="54.454857"
       cy="44.571495"
       r="13.642609" />
  </g>
</svg>
