<?xml version="1.0" encoding="UTF-8" standalone="no"?>
<svg
   xmlns:dc="http://purl.org/dc/elements/1.1/"
   xmlns:cc="http://creativecommons.org/ns#"
   xmlns:rdf="http://www.w3.org/1999/02/22-rdf-syntax-ns#"
   xmlns:svg="http://www.w3.org/2000/svg"
   xmlns="http://www.w3.org/2000/svg"
   xmlns:sodipodi="http://sodipodi.sourceforge.net/DTD/sodipodi-0.dtd"
   xmlns:inkscape="http://www.inkscape.org/namespaces/inkscape"
   width="400"
   height="400"
   viewBox="0 0 105.83333 105.83334"
   version="1.1"
   id="svg49735"
   inkscape:version="1.0.2 (e86c870879, 2021-01-15)"
   sodipodi:docname="01.svg">
  <defs
     id="defs49729" />
  <sodipodi:namedview
     id="base"
     pagecolor="#ffffff"
     bordercolor="#666666"
     borderopacity="1.0"
     inkscape:pageopacity="0.0"
     inkscape:pageshadow="2"
     inkscape:zoom="1.5190064"
     inkscape:cx="141.82392"
     inkscape:cy="137.44113"
     inkscape:document-units="mm"
     inkscape:current-layer="layer1"
     inkscape:document-rotation="0"
     showgrid="false"
     units="px"
     inkscape:window-width="1422"
     inkscape:window-height="960"
     inkscape:window-x="0"
     inkscape:window-y="206"
     inkscape:window-maximized="0" />
  <metadata
     id="metadata49732">
    <rdf:RDF>
      <cc:Work
         rdf:about="">
        <dc:format>image/svg+xml</dc:format>
        <dc:type
           rdf:resource="http://purl.org/dc/dcmitype/StillImage" />
        <dc:title></dc:title>
      </cc:Work>
    </rdf:RDF>
  </metadata>
  <g
     inkscape:label="Layer 1"
     inkscape:groupmode="layer"
     id="layer1">
    <rect
       style="display:inline;fill:#ffffff;fill-opacity:1;stroke:none;stroke-width:0.341868;stroke-linejoin:round;stroke-miterlimit:4;stroke-dasharray:none;stroke-dashoffset:7.35;stroke-opacity:1"
       id="rect49606"
       width="105.49147"
       height="105.49147"
       x="0"
       y="0"
       ry="0.13327956" />
    <path
       d="m 52.697256,64.871104 q -1.40612,0 -2.39648,-0.99396 -0.99039,-0.99396 -0.99039,-2.40008 0,-1.40611 0.99396,-2.39648 0.99396,-0.99038 2.40008,-0.99038 1.40612,0 2.3965,0.99396 0.99036,0.99401 0.99036,2.40008 0,1.40612 -0.99396,2.39649 -0.99396,0.99037 -2.40007,0.99037 z m -3.5653,27.48068 v -9.27921 h -3.96149 l 4.7288,-13.40126 q 0.32117,-0.85654 1.0841,-1.40076 0.76291,-0.54428 1.72197,-0.54428 0.95911,0 1.71748,0.54428 0.7584,0.54422 1.07962,1.40076 l 4.72877,13.40126 h -3.96149 v 9.27921 z"
       id="path2007"
       style="display:inline;stroke-width:0.0535338" />
    <path
       d="m 62.367326,80.267574 q -0.68206,0 -1.18308,-0.50102 -0.50101,-0.501 -0.50101,-1.18307 v -18.86199 q 0,-0.68205 0.50101,-1.18307 0.50102,-0.50102 1.18308,-0.50102 h 10.7783 q 0.68204,0 1.18307,0.50102 0.501,0.50102 0.501,1.18307 v 18.86199 q 0,0.68207 -0.501,1.18307 -0.50103,0.50102 -1.18307,0.50102 z m 0,-2.52613 v 0.84204 h 10.7783 v -0.84204 z m 0,-1.68412 h 10.7783 v -13.80968 h -10.7783 z m 0,-15.49379 h 10.7783 v -0.84204 h -10.7783 z m 0,0 v -0.84204 z m 0,17.17791 v 0.84204 z"
       id="path1977"
       style="display:inline;stroke-width:0.0252615" />
    <path
       d="m 86.187476,46.220244 q -0.57061,0 -1.09367,-0.21049 -0.52307,-0.21054 -0.93567,-0.62313 l -5.22072,-5.229147 0.50523,-0.63154 q 0.31996,-0.40419 0.79574,-0.55997 0.47575,-0.15578 0.97254,-0.0211 l 2.17252,0.59786 v -8.47947 q 0,-0.35788 0.24294,-0.59996 0.24294,-0.24208 0.60206,-0.24208 0.35911,0 0.5991,0.24208 0.23998,0.24208 0.23998,0.59996 v 10.719307 l -2.90507,-0.78311 3.20281,3.20281 q 0.15701,0.15701 0.37389,0.24542 0.21693,0.0884 0.44832,0.0884 h 4.2692 q 0.9852,0 1.67148,-0.68628 0.68628,-0.68628 0.68628,-1.67148 v -4.378687 q 0,-0.35786 0.24294,-0.59996 0.24294,-0.24208 0.60206,-0.24208 0.35912,0 0.5991,0.24208 0.23998,0.2421 0.23998,0.59996 v 4.378687 q 0,1.66726 -1.18729,2.85455 -1.18729,1.18729 -2.85455,1.18729 z m 0.34525,-7.241647 v -4.21027 q 0,-0.35786 0.24294,-0.59996 0.24294,-0.24208 0.60206,-0.24208 0.35912,0 0.5991,0.24208 0.23999,0.2421 0.23999,0.59996 v 4.21027 z m 3.13243,0 v -3.19981 q 0,-0.35785 0.24294,-0.59996 0.24294,-0.24208 0.60206,-0.24208 0.35912,0 0.5991,0.24208 0.23999,0.24211 0.23999,0.59996 v 3.19981 z m -13.35494,-8.25212 v -4.71547 h 1.17885 v 2.24828 q 1.9704,-1.57463 4.26923,-2.4167 2.2988,-0.84204 4.82495,-0.84204 3.4861,0 6.17223,1.53254 2.68613,1.53252 3.76396,4.19339 h -1.28834 q -1.17887,-2.18931 -3.44819,-3.36819 -2.26932,-1.17888 -5.19966,-1.17888 -2.42457,0 -4.65628,0.85889 -2.23171,0.85889 -4.11791,2.50933 h 3.21663 v 1.17885 z m 12.41183,10.694067 z"
       id="path9271"
       style="display:inline;stroke-width:0.0252615" />
    <path
       d="m 67.843056,70.529264 q -0.14634,0 -0.24942,-0.10345 -0.10307,-0.10345 -0.10307,-0.24978 0,-0.14635 0.10345,-0.24942 0.10344,-0.10307 0.24978,-0.10307 0.14634,0 0.24941,0.10345 0.10308,0.10345 0.10308,0.24979 0,0.14634 -0.10345,0.24941 -0.10345,0.10307 -0.24978,0.10307 z m -0.37106,2.86003 v -0.96573 h -0.41229 l 0.49215,-1.39472 q 0.0334,-0.0891 0.11283,-0.14578 0.0794,-0.0567 0.17921,-0.0567 0.0998,0 0.17875,0.0567 0.0789,0.0566 0.11236,0.14578 l 0.49214,1.39472 h -0.41229 v 0.96573 z"
       id="path2007-6"
       style="display:inline;stroke-width:0.00557149" />
    <path
       d="m 67.369036,65.627924 v -1.25499 h 0.26058 v 0.59837 c 0.29036,-0.2794 0.60493,-0.49379 0.94369,-0.6432 0.33876,-0.14938 0.69427,-0.2241 1.06653,-0.2241 0.51372,0 0.9685,0.13595 1.36434,0.40788 0.39584,0.27191 0.67318,0.64392 0.83201,1.11604 h -0.28478 c -0.17372,-0.38845 -0.4278,-0.68725 -0.76221,-0.89642 -0.33441,-0.20914 -0.71753,-0.31375 -1.14936,-0.31375 -0.35729,0 -0.70038,0.0762 -1.02925,0.2286 -0.32887,0.15238 -0.63228,0.37501 -0.91024,0.66784 h 0.71102 v 0.31375 z"
       id="path9271-6"
       style="display:inline;stroke-width:0.00612715"
       sodipodi:nodetypes="ccccsscccssscccc" />
    <path
       d="m 26.240056,25.620271 c 0.0997,0.258055 0.0655,0.501515 -0.10267,0.730379 -0.16815,0.228876 -0.39433,0.343314 -0.67853,0.343314 -0.14434,0 -0.27715,-0.03686 -0.39842,-0.110595 -0.12128,-0.07373 -0.21465,-0.181255 -0.28011,-0.322577 -0.32291,0.03996 -0.60675,-0.06564 -0.85153,-0.316804 -0.24477,-0.251145 -0.35377,-0.544915 -0.32698,-0.881307 -0.13392,-0.07526 -0.23734,-0.185476 -0.31026,-0.330635 -0.0729,-0.145153 -0.10936,-0.29146 -0.10936,-0.438921 0,-0.299529 0.11122,-0.528018 0.33368,-0.685465 0.22246,-0.157443 0.47133,-0.174727 0.74661,-0.05185 l 0.40623,0.170499 c 0.0804,-0.161289 0.19344,-0.288398 0.33926,-0.381327 0.14583,-0.09293 0.30505,-0.144002 0.47766,-0.153219 v -0.585234 h 0.35266 v 0.622096 c 0.17707,0.04146 0.32959,0.134014 0.45756,0.277645 0.12797,0.143622 0.21502,0.296841 0.26115,0.459659 h 0.59818 v 0.368648 h -0.56694 c -0.0119,0.178184 -0.0614,0.34254 -0.14842,0.493069 -0.087,0.150534 -0.2087,0.267275 -0.36494,0.350223 z m -1.58473,0.188923 c -0.009,-0.124414 -0.003,-0.249985 0.019,-0.376711 0.0216,-0.126722 0.0539,-0.249991 0.0971,-0.369802 -0.11458,0.0599 -0.23399,0.09792 -0.35824,0.11405 -0.12425,0.01614 -0.24887,0.01658 -0.37386,0.0013 0.006,0.161282 0.0718,0.306823 0.19753,0.436622 0.12574,0.129792 0.26524,0.194688 0.41851,0.194688 z m -0.49551,-1.082903 c 0.16666,0 0.33443,-0.03917 0.50332,-0.117504 0.1689,-0.07834 0.30468,-0.151309 0.40735,-0.218892 l -0.90175,-0.382481 c -0.11755,-0.05222 -0.23696,-0.048 -0.35823,0.01267 -0.12128,0.06068 -0.18192,0.151688 -0.18192,0.273032 0,0.11981 0.0625,0.221956 0.1875,0.306438 0.125,0.08449 0.23957,0.126728 0.34373,0.126728 z m 1.29904,1.506864 c 0.12945,0 0.23324,-0.04493 0.31136,-0.134794 0.0781,-0.08986 0.0949,-0.19239 0.0502,-0.307597 l -0.38837,-1.027617 c -0.0818,0.138244 -0.15736,0.281866 -0.22656,0.430866 -0.0692,0.148997 -0.10378,0.320265 -0.10378,0.513807 0,0.112136 0.0301,0.227725 0.0904,0.346767 0.0603,0.119046 0.14917,0.178568 0.26673,0.178568 z m 0.43747,-1.488431 c 0.0923,-0.06145 0.15624,-0.137096 0.19195,-0.226953 0.0357,-0.08986 0.0536,-0.185483 0.0536,-0.286857 0,-0.156678 -0.0536,-0.291083 -0.1607,-0.403214 -0.10714,-0.112132 -0.23585,-0.168198 -0.38614,-0.168198 -0.0982,0 -0.1927,0.02151 -0.28347,0.06451 -0.0908,0.04301 -0.16071,0.111367 -0.20981,0.205066 l 0.56247,0.239625 z"
       id="path10317-8-8"
       style="display:inline;stroke-width:0.00680324"
       sodipodi:nodetypes="ccsscccsscccscccccccccccccscccccccccccssccssccsssscsssssccc" />
  </g>
</svg>
