<?xml version="1.0" encoding="UTF-8" standalone="no"?>
<svg
   xmlns:dc="http://purl.org/dc/elements/1.1/"
   xmlns:cc="http://creativecommons.org/ns#"
   xmlns:rdf="http://www.w3.org/1999/02/22-rdf-syntax-ns#"
   xmlns:svg="http://www.w3.org/2000/svg"
   xmlns="http://www.w3.org/2000/svg"
   xmlns:sodipodi="http://sodipodi.sourceforge.net/DTD/sodipodi-0.dtd"
   xmlns:inkscape="http://www.inkscape.org/namespaces/inkscape"
   width="400"
   height="400"
   version="1.1"
   viewBox="0 0 105.83 105.83"
   id="svg24"
   sodipodi:docname="02.svg"
   inkscape:version="1.0.2 (e86c870879, 2021-01-15)">
  <sodipodi:namedview
     pagecolor="#ffffff"
     bordercolor="#666666"
     borderopacity="1"
     objecttolerance="10"
     gridtolerance="10"
     guidetolerance="10"
     inkscape:pageopacity="0"
     inkscape:pageshadow="2"
     inkscape:window-width="1839"
     inkscape:window-height="1145"
     id="namedview26"
     showgrid="false"
     inkscape:zoom="0.99614257"
     inkscape:cx="-76.866521"
     inkscape:cy="347.79818"
     inkscape:window-x="0"
     inkscape:window-y="0"
     inkscape:window-maximized="0"
     inkscape:current-layer="svg24"
     inkscape:document-rotation="0" />
  <metadata
     id="metadata30">
    <rdf:RDF>
      <cc:Work
         rdf:about="">
        <dc:format>image/svg+xml</dc:format>
        <dc:type
           rdf:resource="http://purl.org/dc/dcmitype/StillImage" />
        <dc:title />
      </cc:Work>
    </rdf:RDF>
  </metadata>
  <defs
     id="defs28" />
  <path
     id="rect2"
     style="fill:#ffffff;stroke-width:1"
     d="M 0.13327999,0 C 35.20776,0 70.282241,0 105.35672,0 c 0.31106,6.3986819 0.0444,13.036681 0.13328,19.527381 0,28.609779 0,57.219561 0,85.829339 -6.398682,0.31106 -13.036681,0.0444 -19.527381,0.13328 -28.609781,0 -57.219559,0 -85.82933901,0 C -0.17778451,99.091317 0.08891157,92.45332 0,85.96262 0,57.352838 0,28.74306 0,0.13327999 Z" />
  <path
     d="m 55.662399,28.309448 q -0.87804,0 -1.69553,-0.36332 -0.81749,-0.36333 -1.36247,-1.059705 l -6.57015,-8.356509 0.63582,-0.696375 q 0.42388,-0.454159 1.04456,-0.560128 0.62068,-0.105968 1.16568,0.196808 l 2.99743,1.604683 V 8.0237255 q 0,-0.386032 0.26266,-0.647173 0.26269,-0.261141 0.65096,-0.261141 0.3883,0 0.64566,0.261141 0.25736,0.261141 0.25736,0.647173 V 22.102622 l -4.35992,-2.331343 4.72325,5.994884 q 0.30276,0.36333 0.71938,0.54499 0.41661,0.18165 0.88531,0.18165 h 6.20682 q 1.15053,0 1.93774,-0.7872 0.7872,-0.78721 0.7872,-1.93774 v -5.147125 q 0,-0.772068 -0.52227,-1.29435 -0.52229,-0.522282 -1.29436,-0.522282 h -6.66098 v -1.816631 h 6.65027 q 1.51834,0 2.58116,1.059701 1.06282,1.059701 1.06282,2.573562 v 5.147125 q 0,1.90746 -1.31706,3.22452 -1.31706,1.317065 -3.22452,1.317065 z m -7.32709,-17.71216 q -0.33528,-0.567819 -0.51583,-1.2259826 -0.18053,-0.6581369 -0.18053,-1.3550259 0,-2.142233 1.50553,-3.640954 1.50553,-1.498721 3.64158,-1.498721 2.13607,0 3.64159,1.505928 1.50554,1.505926 1.50554,3.642528 0,0.695043 -0.18054,1.3507859 -0.18053,0.6557126 -0.51583,1.2214416 l -1.57441,-0.9083146 q 0.21194,-0.363326 0.33305,-0.787208 0.12111,-0.4238799 0.12111,-0.8925109 0,-1.378278 -0.97244,-2.347148 -0.97241,-0.96887 -2.36162,-0.96887 -1.38918,0 -2.35804,0.971383 -0.96888,0.971413 -0.96888,2.359106 0,0.45416 0.1211,0.8780399 0.1211,0.423882 0.33305,0.787208 z m 8.629,10.142859 z"
     id="path4984"
     style="stroke-width:0.0302771" />
  <path
     d="m 83.992991,47.534693 c 0.316524,0 0.570702,0.110307 0.762535,0.330911 0.195031,0.220608 0.292546,0.553119 0.292546,0.997533 0,0.438019 -0.09752,0.770529 -0.292546,0.997532 -0.191833,0.227001 -0.44761,0.340502 -0.767331,0.340502 -0.198227,0 -0.362885,-0.03677 -0.49397,-0.110295 -0.127884,-0.07673 -0.228598,-0.164656 -0.302138,-0.263771 h -0.02878 c 0.0063,0.05435 0.01276,0.123083 0.01925,0.206212 0.0063,0.08312 0.0095,0.155064 0.0095,0.21582 v 1.055082 h -0.421964 v -3.721563 h 0.345298 l 0.05754,0.350093 h 0.01925 c 0.07673,-0.1119 0.177446,-0.206219 0.30214,-0.282952 0.124695,-0.07673 0.290951,-0.115099 0.498767,-0.115099 z m -0.07674,0.354891 c -0.262172,0 -0.447611,0.07353 -0.556317,0.220599 -0.105516,0.147067 -0.161464,0.370872 -0.167853,0.671416 v 0.08152 c 0,0.316525 0.05116,0.561111 0.153464,0.733761 0.105516,0.169451 0.298942,0.254177 0.580293,0.254177 0.156665,0 0.284553,-0.04316 0.383667,-0.129485 0.102307,-0.08632 0.177445,-0.203022 0.225404,-0.350095 0.05116,-0.15027 0.07674,-0.321321 0.07674,-0.513154 0,-0.294143 -0.05755,-0.529139 -0.172655,-0.704986 -0.1119,-0.175848 -0.286149,-0.263771 -0.522745,-0.263771 z"
     style="font-style:normal;font-variant:normal;font-weight:normal;font-stretch:normal;font-size:160px;line-height:1.25;font-family:'Noto Sans';-inkscape-font-specification:'Noto Sans';white-space:pre;shape-inside:url(#rect1660);stroke-width:0.0299738"
     id="path1668"
     sodipodi:nodetypes="ccscsccccsccccccscccccscsccsccc" />
  <g
     transform="matrix(0.04302731,0,0,0.04302731,15.198614,34.799754)"
     id="g58">
    <g
       transform="matrix(0.04188,0,0,0.04188,75.616,54.993)"
       fill="#8dc351"
       id="g52">
      <path
         d="m 7525,15989 c -349,-23 -745,-74 -1074,-139 -1411,-279 -2741,-944 -3806,-1903 -103,-94 -479,-466 -575,-572 -245,-266 -540,-648 -754,-974 -84,-128 -216,-339 -216,-346 0,-2 -17,-32 -38,-66 -48,-80 -130,-233 -220,-414 C 359,10611 82,9566 10,8445 -3,8240 -3,7750 10,7545 113,5935 655,4458 1610,3185 c 239,-319 428,-535 744,-850 286,-286 436,-420 706,-632 C 4666,442 6732,-162 8765,35 c 1734,169 3354,891 4645,2071 632,577 1156,1241 1589,2014 64,113 231,450 301,605 345,767 574,1625 659,2470 32,311 41,496 41,810 0,808 -118,1588 -356,2359 -526,1697 -1613,3186 -3064,4197 -1216,848 -2616,1332 -4135,1429 -181,11 -740,11 -920,-1 z"
         id="path50" />
    </g>
    <g
       transform="matrix(0.04188,0,0,0.04188,75.616,54.993)"
       fill="#ffffff"
       id="g56">
      <path
         d="m 7751,13046 c -6,-17 -62,-222 -127,-456 -195,-713 -262,-951 -266,-956 -3,-2 -398,103 -879,234 -481,131 -875,238 -877,237 -3,-3 -112,-1041 -112,-1071 0,-17 8,-23 33,-28 75,-14 558,-147 627,-172 101,-38 181,-113 204,-193 28,-95 21,-155 -43,-390 -33,-119 -139,-504 -236,-856 -97,-352 -239,-867 -315,-1145 -76,-278 -193,-703 -260,-945 -67,-242 -142,-514 -166,-605 -25,-91 -57,-185 -72,-210 -44,-77 -110,-138 -190,-177 -67,-34 -84,-38 -171,-41 -134,-6 -233,16 -734,162 -81,23 -120,30 -122,22 -7,-20 -247,-901 -249,-910 0,-4 87,-33 194,-62 107,-30 499,-138 870,-241 371,-102 678,-189 682,-192 4,-3 -81,-323 -188,-711 -107,-388 -192,-710 -190,-715 2,-6 28,-17 57,-24 30,-8 222,-61 428,-117 206,-57 376,-103 377,-101 1,1 88,315 193,697 106,382 194,696 196,698 2,2 137,-35 302,-83 164,-48 318,-92 343,-100 35,-10 44,-17 42,-31 -2,-11 -87,-320 -188,-689 -101,-368 -184,-674 -184,-680 0,-9 858,-250 865,-243 2,2 91,322 198,711 107,389 196,710 199,712 2,3 42,-2 89,-10 416,-74 899,-94 1184,-51 672,104 1078,440 1283,1061 196,592 97,1085 -302,1499 l -73,76 h 118 c 828,0 1344,393 1564,1190 130,470 135,910 15,1273 -41,126 -137,313 -218,427 -145,205 -419,444 -699,612 -277,166 -754,378 -1083,483 -30,10 -58,20 -62,24 -4,3 71,290 166,636 96,347 185,671 198,721 l 25,91 -426,117 c -234,64 -431,116 -436,116 -6,0 -98,-318 -204,-707 -107,-390 -195,-709 -196,-710 -1,-2 -143,35 -316,81 -173,46 -329,87 -346,91 -18,3 -33,12 -33,18 0,11 16,68 259,952 71,259 128,471 126,473 -1,1 -196,56 -433,121 l -431,118 z m 442,-2762 c 928,-243 1429,-470 1733,-785 93,-98 132,-151 179,-252 54,-113 70,-186 69,-317 0,-211 -79,-419 -214,-563 -317,-339 -883,-384 -1824,-143 -226,58 -696,197 -696,207 0,4 117,433 260,953 143,520 260,948 260,951 0,10 22,5 233,-51 z M 7391,7495 c 657,-172 1015,-321 1295,-540 97,-76 161,-145 225,-243 60,-91 87,-161 107,-277 19,-113 7,-234 -39,-369 -102,-305 -310,-473 -660,-532 -82,-13 -140,-16 -298,-11 -227,6 -400,32 -681,103 -171,42 -609,170 -618,179 -4,4 126,484 431,1588 24,87 46,147 53,147 6,0 90,-20 185,-45 z"
         fill="#ffffff"
         id="path54" />
    </g>
  </g>
  <g
     aria-label=":"
     id="text94"
     style="font-size:28.5869px;line-height:1.25;font-family:sans-serif;fill:#000000;stroke-width:0.714685"
     transform="translate(-0.12528187,30.12766)">
    <path
       d="m 51.209944,25.892041 h 2.945233 v 3.545446 h -2.945233 z m 0,-11.23655 h 2.945233 v 3.545445 h -2.945233 z"
       style="stroke-width:0.714685"
       id="path2626" />
  </g>
  <path
     d="m 71.039216,51.117424 v -0.726833 h -1.062231 v -0.55908 h 0.72677 v -3.466309 h -0.72677 v -0.559077 h 1.062231 V 45.07929 h 0.559099 v 0.726835 h 0.838589 V 45.07929 h 0.559075 v 0.757562 c 0.298177,0.0671 0.540456,0.218518 0.726837,0.454257 0.186357,0.235749 0.279535,0.50271 0.279535,0.800884 0,0.158409 -0.02981,0.313552 -0.08944,0.465428 -0.05963,0.151895 -0.145345,0.288404 -0.257156,0.409525 0.210567,0.113674 0.37689,0.27208 0.498969,0.475218 0.122058,0.203121 0.183087,0.423957 0.183087,0.662509 0,0.354081 -0.124865,0.656924 -0.374595,0.908527 -0.249715,0.251585 -0.55347,0.377377 -0.911265,0.377377 h -0.05597 v 0.726834 h -0.559059 v -0.726834 h -0.838656 v 0.726834 z m 0.223641,-3.29858 h 1.453601 c 0.203121,0 0.375033,-0.07128 0.515738,-0.213835 0.140713,-0.142557 0.21107,-0.313543 0.21107,-0.512958 0,-0.20312 -0.07036,-0.375037 -0.21107,-0.515751 -0.140711,-0.140713 -0.312624,-0.211069 -0.515738,-0.211069 h -1.453601 z m 0,2.012709 h 1.789063 c 0.203119,0 0.375034,-0.07128 0.515744,-0.213837 0.140713,-0.142556 0.211069,-0.313543 0.211069,-0.51296 0,-0.20312 -0.07036,-0.375037 -0.211069,-0.51575 -0.140711,-0.140713 -0.312625,-0.21107 -0.515744,-0.21107 h -1.789063 z"
     stroke-width="0.0083859"
     id="path4"
     sodipodi:nodetypes="cccccccccccccccccsscssssccccccccssssscccssssscc" />
  <g
     aria-label=":"
     id="text94-3"
     style="font-size:153.357px;line-height:1.25;font-family:sans-serif;fill:#000000;stroke-width:3.83401"
     transform="matrix(0.04411705,0,0,0.04411705,58.405019,78.157685)">
    <path
       d="m 384.43828,-660.48467 h 15.79996 v 19.01986 h -15.79996 z m 0,-60.27949 h 15.79996 v 19.01986 h -15.79996 z"
       style="stroke-width:3.83401"
       id="path1671" />
  </g>
  <path
     d="m 78.300352,47.534693 c 0.316523,0 0.570701,0.110307 0.762534,0.330911 0.195031,0.220608 0.292547,0.553119 0.292547,0.997533 0,0.438019 -0.09752,0.770529 -0.292547,0.997532 -0.191833,0.227001 -0.44761,0.340502 -0.767332,0.340502 -0.198227,0 -0.362883,-0.03677 -0.493968,-0.110295 -0.127883,-0.07673 -0.228596,-0.164656 -0.302139,-0.263771 h -0.02878 c 0.0063,0.05435 0.01277,0.123083 0.01927,0.206212 0.0063,0.08312 0.0095,0.155064 0.0095,0.21582 v 1.055082 h -0.422011 v -3.721563 h 0.345299 l 0.05754,0.350093 h 0.01925 c 0.07673,-0.1119 0.177445,-0.206219 0.302137,-0.282952 0.124695,-0.07673 0.290951,-0.115099 0.498766,-0.115099 z m -0.07674,0.354891 c -0.262172,0 -0.44761,0.07353 -0.556315,0.220599 -0.105516,0.147067 -0.161463,0.370872 -0.167852,0.671416 v 0.08152 c 0,0.316525 0.05116,0.561111 0.153465,0.733761 0.105505,0.169451 0.298943,0.254177 0.580295,0.254177 0.156663,0 0.284553,-0.04316 0.383666,-0.129485 0.102308,-0.08632 0.177444,-0.203022 0.225403,-0.350095 0.05115,-0.15027 0.07672,-0.321321 0.07672,-0.513154 0,-0.294143 -0.05756,-0.529139 -0.172655,-0.704986 -0.1119,-0.175848 -0.286151,-0.263771 -0.522747,-0.263771 z"
     style="font-style:normal;font-variant:normal;font-weight:normal;font-stretch:normal;font-size:160px;line-height:1.25;font-family:'Noto Sans';-inkscape-font-specification:'Noto Sans';white-space:pre;shape-inside:url(#rect1660);stroke-width:0.0299738"
     id="path1664"
     sodipodi:nodetypes="ccscsccccsccccccscccccscsccsccc" />
  <path
     d="m 82.113031,50.153214 h -2.263629 v -0.350097 l 0.896819,-0.906409 c 0.172651,-0.172649 0.318125,-0.326116 0.436422,-0.460401 0.118289,-0.134287 0.207812,-0.265373 0.268566,-0.393257 0.06075,-0.131086 0.09113,-0.273362 0.09113,-0.426829 0,-0.188636 -0.05595,-0.330913 -0.167853,-0.42683 -0.1119,-0.09911 -0.257375,-0.148659 -0.436422,-0.148659 -0.166255,0 -0.313327,0.02878 -0.441215,0.08632 -0.124694,0.05755 -0.252581,0.137485 -0.383665,0.239792 l -0.225406,-0.282956 c 0.134286,-0.1119 0.287754,-0.206218 0.4604,-0.282953 0.175846,-0.07993 0.372474,-0.119884 0.589885,-0.119884 0.31972,0 0.572301,0.08153 0.75774,0.244586 0.185439,0.15986 0.278158,0.382067 0.278158,0.66662 0,0.179044 -0.03677,0.346897 -0.110295,0.503562 -0.07353,0.156663 -0.175841,0.311728 -0.306932,0.465195 -0.131086,0.150268 -0.284553,0.311729 -0.460401,0.48438 l -0.714577,0.704986 v 0.01925 h 1.731292 z"
     style="font-style:normal;font-variant:normal;font-weight:normal;font-stretch:normal;font-size:160px;line-height:1.25;font-family:'Noto Sans';-inkscape-font-specification:'Noto Sans';white-space:pre;shape-inside:url(#rect1660);stroke-width:0.0299738"
     id="path1666"
     sodipodi:nodetypes="ccccscscsccccscsscccccc" />
  <path
     d="m 78.146196,45.575949 c -0.228651,0 -0.423005,-0.08018 -0.58306,-0.240539 -0.160051,-0.160355 -0.240076,-0.355074 -0.240076,-0.584156 0,-0.03207 0.0032,-0.06923 0.0095,-0.111464 0.0063,-0.04224 0.0158,-0.08026 0.02839,-0.114048 l -2.100412,-1.22051 c -0.07411,0.07727 -0.162419,0.13916 -0.264916,0.185681 -0.102497,0.04651 -0.20815,0.06977 -0.316959,0.06977 -0.228646,0 -0.422997,-0.08003 -0.583053,-0.240078 -0.160051,-0.160057 -0.240076,-0.35441 -0.240076,-0.583057 0,-0.228647 0.08002,-0.422999 0.240076,-0.583056 0.160056,-0.160052 0.354407,-0.240078 0.583053,-0.240078 0.108809,0 0.212885,0.02089 0.312228,0.06267 0.09934,0.04179 0.189225,0.101322 0.269647,0.178585 l 2.100412,-1.211052 c -0.01261,-0.03177 -0.02208,-0.0675 -0.02839,-0.107199 -0.0063,-0.0397 -0.0095,-0.07808 -0.0095,-0.115139 0,-0.228647 0.08003,-0.422999 0.240076,-0.583056 0.160055,-0.160053 0.354409,-0.240079 0.58306,-0.240079 0.228647,0 0.422995,0.08003 0.583046,0.240079 0.160059,0.160057 0.240089,0.354409 0.240089,0.583056 0,0.228647 -0.08003,0.422997 -0.240089,0.583049 -0.160051,0.160057 -0.354399,0.240086 -0.583046,0.240086 -0.109921,0 -0.215063,-0.01853 -0.315427,-0.05559 -0.100363,-0.03705 -0.187602,-0.09421 -0.261717,-0.171482 L 75.46864,42.50101 c 0.0094,0.03469 0.01732,0.07451 0.02363,0.119447 0.0063,0.04494 0.0095,0.08435 0.0095,0.118226 0,0.03387 -0.0032,0.06896 -0.0095,0.105255 -0.0063,0.0363 -0.01421,0.07179 -0.02363,0.106483 l 2.100412,1.201592 c 0.07412,-0.06781 0.159266,-0.121819 0.255454,-0.16203 0.09619,-0.04021 0.203423,-0.06032 0.32169,-0.06032 0.228647,0 0.422995,0.08003 0.583046,0.240086 0.160059,0.160053 0.240089,0.354403 0.240089,0.58305 0,0.228647 -0.08003,0.422999 -0.240089,0.583056 -0.160051,0.160053 -0.354399,0.240079 -0.583046,0.240079 z m 1.6e-4,-4.503591 c 0.09924,0 0.182364,-0.03356 0.249384,-0.100692 0.06702,-0.06713 0.100525,-0.150307 0.100525,-0.249538 0,-0.09924 -0.03356,-0.182362 -0.100692,-0.249381 -0.06713,-0.06702 -0.150309,-0.10053 -0.249544,-0.10053 -0.09923,0 -0.182357,0.03356 -0.249378,0.100693 -0.06702,0.06713 -0.100532,0.150314 -0.100532,0.249544 0,0.09923 0.03356,0.182363 0.100692,0.249382 0.06713,0.06701 0.150314,0.100522 0.249545,0.100522 z m -3.467573,2.015268 c 0.09924,0 0.182361,-0.03357 0.249378,-0.100699 0.06702,-0.06713 0.100525,-0.150307 0.100525,-0.249537 0,-0.09924 -0.03356,-0.182362 -0.100692,-0.249381 -0.06713,-0.06702 -0.15031,-0.10053 -0.249545,-0.10053 -0.09923,0 -0.182357,0.03357 -0.249378,0.100699 -0.06702,0.06713 -0.100525,0.150307 -0.100525,0.249538 0,0.09924 0.03356,0.182362 0.100692,0.249382 0.06713,0.06702 0.150314,0.100528 0.249545,0.100528 z m 3.467573,2.015262 c 0.09924,0 0.182364,-0.03356 0.249384,-0.100692 0.06702,-0.06713 0.100525,-0.150314 0.100525,-0.249545 0,-0.09924 -0.03356,-0.182362 -0.100692,-0.249381 -0.06713,-0.06701 -0.150309,-0.100522 -0.249544,-0.100522 -0.09923,0 -0.182357,0.03356 -0.249378,0.100692 -0.06702,0.06713 -0.100532,0.150309 -0.100532,0.249544 0,0.09923 0.03356,0.182356 0.100692,0.249375 0.06713,0.06702 0.150314,0.100529 0.249545,0.100529 z"
     id="path945"
     style="stroke-width:0.00709601"
     sodipodi:nodetypes="ssssccssssssscccsssssssscccssccssssssssssssssssssssssssssssssssss" />
  <path
     d="M 70.784185,60.329578 H 83.079848 V 58.477086 H 70.784185 Z m 0,-5.241754 H 83.079848 V 53.235375 H 70.784185 Z M 67.04152,66.221408 c -0.640255,0 -1.192807,-0.232419 -1.657657,-0.697257 -0.46483,-0.464836 -0.697245,-1.017391 -0.697245,-1.657666 V 37.55462 c 0,-0.640275 0.232415,-1.192831 0.697245,-1.657667 0.46485,-0.464838 1.017402,-0.697257 1.657657,-0.697257 h 14.185817 l 7.950077,7.950068 v 20.716721 c 0,0.640275 -0.232415,1.19283 -0.697245,1.657666 -0.46485,0.464838 -1.017402,0.697257 -1.657657,0.697257 z M 80.301112,43.984946 V 37.052188 H 67.04152 c -0.125685,0 -0.240828,0.05233 -0.345429,0.156994 -0.104703,0.104683 -0.157055,0.219831 -0.157055,0.345444 v 26.311865 c 0,0.125603 0.05235,0.240751 0.157055,0.345444 0.104704,0.104663 0.219847,0.156994 0.345429,0.156994 h 19.780992 c 0.125685,0 0.240828,-0.05233 0.345429,-0.156994 0.104704,-0.104683 0.157056,-0.219831 0.157056,-0.345444 V 43.984953 Z M 66.539097,37.052188 v 6.932758 -6.932758 27.316728 z"
     id="path1612"
     style="stroke-width:0.0408179"
     sodipodi:nodetypes="ccccccccccssssssccssssccscsscsscsccccccc" />
</svg>
