<?xml version="1.0" encoding="UTF-8" standalone="no"?>
<svg
   xmlns:dc="http://purl.org/dc/elements/1.1/"
   xmlns:cc="http://creativecommons.org/ns#"
   xmlns:rdf="http://www.w3.org/1999/02/22-rdf-syntax-ns#"
   xmlns:svg="http://www.w3.org/2000/svg"
   xmlns="http://www.w3.org/2000/svg"
   xmlns:sodipodi="http://sodipodi.sourceforge.net/DTD/sodipodi-0.dtd"
   xmlns:inkscape="http://www.inkscape.org/namespaces/inkscape"
   width="400"
   height="400"
   version="1.1"
   viewBox="0 0 105.83 105.83"
   id="svg24"
   sodipodi:docname="02.svg"
   inkscape:version="1.0.2 (e86c870879, 2021-01-15)">
  <sodipodi:namedview
     pagecolor="#ffffff"
     bordercolor="#666666"
     borderopacity="1"
     objecttolerance="10"
     gridtolerance="10"
     guidetolerance="10"
     inkscape:pageopacity="0"
     inkscape:pageshadow="2"
     inkscape:window-width="1839"
     inkscape:window-height="1145"
     id="namedview26"
     showgrid="false"
     inkscape:zoom="1.4301051"
     inkscape:cx="116.25192"
     inkscape:cy="206.90226"
     inkscape:window-x="0"
     inkscape:window-y="0"
     inkscape:window-maximized="0"
     inkscape:current-layer="svg24"
     inkscape:document-rotation="0" />
  <metadata
     id="metadata30">
    <rdf:RDF>
      <cc:Work
         rdf:about="">
        <dc:format>image/svg+xml</dc:format>
        <dc:type
           rdf:resource="http://purl.org/dc/dcmitype/StillImage" />
        <dc:title></dc:title>
      </cc:Work>
    </rdf:RDF>
  </metadata>
  <defs
     id="defs28" />
  <path
     id="rect2"
     style="fill:#ffffff;stroke-width:1"
     d="M 0.13327999,0 C 35.20776,0 70.282241,0 105.35672,0 c 0.31106,6.3986819 0.0444,13.036681 0.13328,19.527381 0,28.609779 0,57.219561 0,85.829339 -6.398682,0.31106 -13.036681,0.0444 -19.527381,0.13328 -28.609781,0 -57.219559,0 -85.82933901,0 C -0.17778451,99.091317 0.08891157,92.45332 0,85.96262 0,57.352838 0,28.74306 0,0.13327999 Z" />
  <path
     d="m 79.610313,94.66998 q -0.87804,0 -1.69553,-0.36332 -0.81749,-0.36333 -1.36247,-1.059705 l -6.57015,-8.356509 0.63582,-0.696375 q 0.42388,-0.454159 1.04456,-0.560128 0.62068,-0.105968 1.16568,0.196808 l 2.99743,1.604683 V 74.384257 q 0,-0.386032 0.26266,-0.647173 0.26269,-0.261141 0.65096,-0.261141 0.3883,0 0.64566,0.261141 0.25736,0.261141 0.25736,0.647173 v 14.078897 l -4.35992,-2.331343 4.72325,5.994884 q 0.30276,0.36333 0.71938,0.54499 0.41661,0.18165 0.88531,0.18165 h 6.20682 q 1.15053,0 1.93774,-0.7872 0.7872,-0.78721 0.7872,-1.93774 V 84.98127 q 0,-0.772068 -0.52227,-1.29435 -0.52229,-0.522282 -1.29436,-0.522282 h -6.66098 v -1.816631 h 6.65027 q 1.51834,0 2.58116,1.059701 1.06282,1.059701 1.06282,2.573562 v 5.147125 q 0,1.90746 -1.31706,3.22452 -1.31706,1.317065 -3.22452,1.317065 z m -7.32709,-17.71216 q -0.33528,-0.567819 -0.51583,-1.225983 -0.18053,-0.658137 -0.18053,-1.355026 0,-2.142233 1.50553,-3.640954 1.50553,-1.498721 3.64158,-1.498721 2.13607,0 3.64159,1.505928 1.50554,1.505926 1.50554,3.642528 0,0.695043 -0.18054,1.350786 -0.18053,0.655713 -0.51583,1.221442 l -1.57441,-0.908315 q 0.21194,-0.363326 0.33305,-0.787208 0.12111,-0.42388 0.12111,-0.892511 0,-1.378278 -0.97244,-2.347148 -0.97241,-0.96887 -2.36162,-0.96887 -1.38918,0 -2.35804,0.971383 -0.96888,0.971413 -0.96888,2.359106 0,0.45416 0.1211,0.87804 0.1211,0.423882 0.33305,0.787208 z m 8.629,10.142859 z"
     id="path4984"
     style="stroke-width:0.0302771" />
  <path
     d="m 83.009859,43.091769 q 0.490809,0 0.788269,0.342078 0.302418,0.342079 0.302418,1.031196 0,0.679201 -0.302418,1.031196 -0.29746,0.351993 -0.793227,0.351993 -0.307375,0 -0.51064,-0.11402 -0.198299,-0.118983 -0.312334,-0.272672 h -0.02975 q 0.0098,0.08427 0.0199,0.21317 0.0098,0.128894 0.0098,0.223103 v 1.090688 h -0.436223 v -3.847153 h 0.356951 l 0.05949,0.361908 h 0.0199 q 0.118983,-0.173516 0.312335,-0.292501 0.193355,-0.118983 0.515599,-0.118983 z m -0.07933,0.366867 q -0.406528,0 -0.57509,0.228044 -0.163609,0.228045 -0.173517,0.694074 v 0.08427 q 0,0.490809 0.158642,0.758523 0.163609,0.262755 0.599877,0.262755 0.242927,0 0.396614,-0.133855 0.158643,-0.133856 0.233011,-0.36191 0.07933,-0.233011 0.07933,-0.530471 0,-0.456105 -0.178481,-0.728776 -0.173517,-0.272673 -0.540386,-0.272673 z"
     style="font-style:normal;font-variant:normal;font-weight:normal;font-stretch:normal;font-size:160px;line-height:1.25;font-family:'Noto Sans';-inkscape-font-specification:'Noto Sans';white-space:pre;shape-inside:url(#rect1660);stroke-width:0.0309853"
     id="path1668" />
  <g
     transform="matrix(0.04302731,0,0,0.04302731,15.198614,34.799754)"
     id="g58">
    <g
       transform="matrix(0.04188,0,0,0.04188,75.616,54.993)"
       fill="#8dc351"
       id="g52">
      <path
         d="m 7525,15989 c -349,-23 -745,-74 -1074,-139 -1411,-279 -2741,-944 -3806,-1903 -103,-94 -479,-466 -575,-572 -245,-266 -540,-648 -754,-974 -84,-128 -216,-339 -216,-346 0,-2 -17,-32 -38,-66 -48,-80 -130,-233 -220,-414 C 359,10611 82,9566 10,8445 -3,8240 -3,7750 10,7545 113,5935 655,4458 1610,3185 c 239,-319 428,-535 744,-850 286,-286 436,-420 706,-632 C 4666,442 6732,-162 8765,35 c 1734,169 3354,891 4645,2071 632,577 1156,1241 1589,2014 64,113 231,450 301,605 345,767 574,1625 659,2470 32,311 41,496 41,810 0,808 -118,1588 -356,2359 -526,1697 -1613,3186 -3064,4197 -1216,848 -2616,1332 -4135,1429 -181,11 -740,11 -920,-1 z"
         id="path50" />
    </g>
    <g
       transform="matrix(0.04188,0,0,0.04188,75.616,54.993)"
       fill="#ffffff"
       id="g56">
      <path
         d="m 7751,13046 c -6,-17 -62,-222 -127,-456 -195,-713 -262,-951 -266,-956 -3,-2 -398,103 -879,234 -481,131 -875,238 -877,237 -3,-3 -112,-1041 -112,-1071 0,-17 8,-23 33,-28 75,-14 558,-147 627,-172 101,-38 181,-113 204,-193 28,-95 21,-155 -43,-390 -33,-119 -139,-504 -236,-856 -97,-352 -239,-867 -315,-1145 -76,-278 -193,-703 -260,-945 -67,-242 -142,-514 -166,-605 -25,-91 -57,-185 -72,-210 -44,-77 -110,-138 -190,-177 -67,-34 -84,-38 -171,-41 -134,-6 -233,16 -734,162 -81,23 -120,30 -122,22 -7,-20 -247,-901 -249,-910 0,-4 87,-33 194,-62 107,-30 499,-138 870,-241 371,-102 678,-189 682,-192 4,-3 -81,-323 -188,-711 -107,-388 -192,-710 -190,-715 2,-6 28,-17 57,-24 30,-8 222,-61 428,-117 206,-57 376,-103 377,-101 1,1 88,315 193,697 106,382 194,696 196,698 2,2 137,-35 302,-83 164,-48 318,-92 343,-100 35,-10 44,-17 42,-31 -2,-11 -87,-320 -188,-689 -101,-368 -184,-674 -184,-680 0,-9 858,-250 865,-243 2,2 91,322 198,711 107,389 196,710 199,712 2,3 42,-2 89,-10 416,-74 899,-94 1184,-51 672,104 1078,440 1283,1061 196,592 97,1085 -302,1499 l -73,76 h 118 c 828,0 1344,393 1564,1190 130,470 135,910 15,1273 -41,126 -137,313 -218,427 -145,205 -419,444 -699,612 -277,166 -754,378 -1083,483 -30,10 -58,20 -62,24 -4,3 71,290 166,636 96,347 185,671 198,721 l 25,91 -426,117 c -234,64 -431,116 -436,116 -6,0 -98,-318 -204,-707 -107,-390 -195,-709 -196,-710 -1,-2 -143,35 -316,81 -173,46 -329,87 -346,91 -18,3 -33,12 -33,18 0,11 16,68 259,952 71,259 128,471 126,473 -1,1 -196,56 -433,121 l -431,118 z m 442,-2762 c 928,-243 1429,-470 1733,-785 93,-98 132,-151 179,-252 54,-113 70,-186 69,-317 0,-211 -79,-419 -214,-563 -317,-339 -883,-384 -1824,-143 -226,58 -696,197 -696,207 0,4 117,433 260,953 143,520 260,948 260,951 0,10 22,5 233,-51 z M 7391,7495 c 657,-172 1015,-321 1295,-540 97,-76 161,-145 225,-243 60,-91 87,-161 107,-277 19,-113 7,-234 -39,-369 -102,-305 -310,-473 -660,-532 -82,-13 -140,-16 -298,-11 -227,6 -400,32 -681,103 -171,42 -609,170 -618,179 -4,4 126,484 431,1588 24,87 46,147 53,147 6,0 90,-20 185,-45 z"
         fill="#ffffff"
         id="path54" />
    </g>
  </g>
  <g
     aria-label=":"
     id="text94"
     style="font-size:28.5869px;line-height:1.25;font-family:sans-serif;fill:#000000;stroke-width:0.714685"
     transform="translate(-0.12528187,30.12766)">
    <path
       d="m 51.209944,25.892041 h 2.945233 v 3.545446 h -2.945233 z m 0,-11.23655 h 2.945233 v 3.545445 h -2.945233 z"
       style="stroke-width:0.714685"
       id="path2626" />
  </g>
  <path
     d="m 71.284853,61.348964 h 8.520994 v -1.859127 h -8.520994 z m 0,-5.29851 H 83.86494 V 54.191328 H 71.284853 Z m 0,-5.29851 H 83.86494 V 48.892817 H 71.284853 Z m -3.005587,15.523712 c -0.495767,0 -0.929563,-0.185977 -1.30139,-0.557744 -0.371823,-0.371837 -0.557737,-0.805627 -0.557737,-1.301391 V 39.726243 c 0,-0.495767 0.185907,-0.929562 0.557737,-1.301387 0.371827,-0.371826 0.805623,-0.557739 1.30139,-0.557739 h 18.591261 c 0.495767,0 0.929564,0.185906 1.301387,0.557739 0.371828,0.371825 0.55774,0.80562 0.55774,1.301387 v 24.690278 c 0,0.495764 -0.185907,0.929554 -0.55774,1.301391 -0.371823,0.371814 -0.80562,0.557744 -1.301387,0.557744 z m 0,-1.859135 H 86.870527 V 39.726243 H 68.279266 Z m 0,-24.690278 v 24.690278 z"
     id="path2"
     sodipodi:nodetypes="cccccccccccccccssssssssssssscccccccc"
     style="stroke-width:0.0309853" />
  <path
     d="m 71.393732,46.302541 v -0.510488 h -0.746054 v -0.392668 h 0.510444 v -2.434549 h -0.510444 v -0.392665 h 0.746054 v -0.51049 h 0.392681 v 0.51049 h 0.58898 v -0.51049 h 0.392664 v 0.53207 q 0.314136,0.07069 0.510491,0.319046 0.19633,0.248366 0.19633,0.562498 0,0.166887 -0.06282,0.326892 -0.06282,0.160024 -0.180612,0.287628 0.221836,0.119757 0.350449,0.333768 0.12859,0.213991 0.12859,0.46531 0,0.373032 -0.263095,0.638101 -0.26308,0.265049 -0.640023,0.265049 h -0.03931 v 0.510489 h -0.392653 v -0.510489 h -0.589027 v 0.510489 z m 0.157073,-2.316745 h 1.020932 q 0.213991,0 0.362226,-0.150186 0.148244,-0.150187 0.148244,-0.360274 0,-0.213991 -0.148244,-0.362236 -0.148242,-0.148243 -0.362226,-0.148243 h -1.020932 z m 0,1.413618 h 1.256542 q 0.21399,0 0.362231,-0.150187 0.148243,-0.150186 0.148243,-0.360275 0,-0.213991 -0.148243,-0.362236 -0.148242,-0.148244 -0.362231,-0.148244 h -1.256542 z"
     stroke-width="0.00588981"
     id="path4" />
  <g
     aria-label=":"
     id="text94-3"
     style="font-size:153.357px;line-height:1.25;font-family:sans-serif;fill:#000000;stroke-width:3.83401"
     transform="matrix(0.03098544,0,0,0.03098544,62.701887,67.050085)">
    <path
       d="m 378.57312,-717.15389 h 15.79996 v 19.01986 h -15.79996 z m 0,-60.27949 h 15.79996 v 19.01986 h -15.79996 z"
       style="stroke-width:3.83401"
       id="path1671" />
  </g>
  <path
     d="m 77.125113,43.091769 q 0.490808,0 0.788268,0.342078 0.302419,0.342079 0.302419,1.031196 0,0.679201 -0.302419,1.031196 -0.29746,0.351993 -0.793227,0.351993 -0.307375,0 -0.510637,-0.11402 -0.198299,-0.118983 -0.312335,-0.272672 h -0.02975 q 0.0098,0.08427 0.01991,0.21317 0.0098,0.128894 0.0098,0.223103 v 1.090688 h -0.436263 v -3.847153 h 0.356952 l 0.05949,0.361908 h 0.0199 q 0.118983,-0.173516 0.312333,-0.292501 0.193356,-0.118983 0.515597,-0.118983 z m -0.07933,0.366867 q -0.406529,0 -0.575088,0.228044 -0.163609,0.228045 -0.173517,0.694074 v 0.08427 q 0,0.490809 0.158644,0.758523 0.163607,0.262755 0.599878,0.262755 0.242925,0 0.396614,-0.133855 0.158642,-0.133856 0.233009,-0.36191 0.07931,-0.233011 0.07931,-0.530471 0,-0.456105 -0.178482,-0.728776 -0.173516,-0.272673 -0.540387,-0.272673 z"
     style="font-style:normal;font-variant:normal;font-weight:normal;font-stretch:normal;font-size:160px;line-height:1.25;font-family:'Noto Sans';-inkscape-font-specification:'Noto Sans';white-space:pre;shape-inside:url(#rect1660);stroke-width:0.0309853"
     id="path1664" />
  <path
     d="m 81.066458,45.798656 h -2.340019 v -0.361911 l 0.927083,-0.936998 q 0.267716,-0.267713 0.45115,-0.475938 0.183423,-0.208228 0.277629,-0.406528 0.09421,-0.203264 0.09421,-0.441232 0,-0.292504 -0.173516,-0.441234 -0.173517,-0.153677 -0.45115,-0.153677 -0.257798,0 -0.456105,0.08924 -0.193351,0.08924 -0.396611,0.247884 l -0.233014,-0.292505 q 0.208228,-0.173515 0.475937,-0.292501 0.272671,-0.123931 0.609791,-0.123931 0.495766,0 0.783312,0.25284 0.287545,0.247883 0.287545,0.689117 0,0.277628 -0.11402,0.520555 -0.114021,0.242925 -0.31729,0.480894 -0.203264,0.233009 -0.475938,0.500725 l -0.738691,0.728777 v 0.0199 h 1.789717 z"
     style="font-style:normal;font-variant:normal;font-weight:normal;font-stretch:normal;font-size:160px;line-height:1.25;font-family:'Noto Sans';-inkscape-font-specification:'Noto Sans';white-space:pre;shape-inside:url(#rect1660);stroke-width:0.0309853"
     id="path1666" />
</svg>
