<svg width="400" height="400" version="1.1" viewBox="0 0 105.83 105.83" xmlns="http://www.w3.org/2000/svg">
 <rect width="105.49" height="105.49" ry=".13328" fill="#fff"/>
 <path d="m67.739 51.299-4.0947-4.0947 0.99221-1.0062 2.4037 2.4037v-7.4627h1.3975v7.4627l2.4037-2.4037 0.99221 1.0062zm-5.3105 3.2562q-0.56599 0-0.98175-0.41575-0.41574-0.41575-0.41574-0.98173v-2.8369h1.3975v2.8369h10.621v-2.8369h1.3975v2.8369q0 0.56599-0.41576 0.98173-0.41574 0.41575-0.98173 0.41575z" stroke-width=".020962"/>
 <g transform="matrix(.54658 0 0 .54658 23.821 27.3)">
  <path d="m77.914 77.124v-0.46476h-0.67926v-0.3575h0.46476v-2.2165h-0.46476v-0.3575h0.67926v-0.46476h0.3575v0.46476h0.53626v-0.46476h0.3575v0.48442q0.286 0.06435 0.46476 0.29047 0.17875 0.22612 0.17875 0.51212 0 0.15194-0.0572 0.29762-0.0572 0.14568-0.16445 0.26187 0.20198 0.10904 0.31907 0.30388 0.11708 0.19484 0.11708 0.42364 0 0.33962-0.23953 0.58094-0.23952 0.24131-0.58272 0.24131h-0.03576v0.46476h-0.3575v-0.46476h-0.53626v0.46476zm0.143-2.1093h0.92951q0.19484 0 0.3298-0.13674 0.13496-0.13674 0.13496-0.32801 0-0.19484-0.13496-0.3298-0.13496-0.13496-0.3298-0.13496h-0.92951zm0 1.287h1.144q0.19484 0 0.3298-0.13674 0.13496-0.13674 0.13496-0.32801 0-0.19484-0.13496-0.3298-0.13496-0.13496-0.3298-0.13496h-1.144z" stroke-width=".0053626"/>
  <path d="m83.586 76.184q0.38957 0 0.6766-0.28705 0.28704-0.28705 0.28704-0.68172 0-0.39469-0.28704-0.6766-0.28703-0.28193-0.6766-0.28193-0.38955 0-0.6766 0.28193-0.28705 0.28191-0.28705 0.6766 0 0.39467 0.28705 0.68172 0.28705 0.28705 0.6766 0.28705zm-7.094 3.0037v0.54336-9.0213zm0 1.5685q-0.40493 0-0.71503-0.30498-0.31011-0.30498-0.31011-0.72016v-9.0213q0-0.40493 0.31011-0.71503 0.3101-0.31011 0.71503-0.31011h9.0213q0.41519 0 0.72016 0.31011 0.30498 0.3101 0.30498 0.71503v1.8863h-1.0251v-1.8863h-9.0213v9.0213h9.0213v-1.876h1.0251v1.876q0 0.41519-0.30498 0.72016t-0.72016 0.30498zm5.3103-2.5936q-0.51769 0-0.84318-0.32549-0.32549-0.32548-0.32549-0.83292v-3.5573q0-0.5177 0.32549-0.83806 0.32549-0.32036 0.84318-0.32036h4.2031q0.5177 0 0.8432 0.32036 0.32548 0.32035 0.32548 0.83806v3.5573q0 0.50745-0.32548 0.83292-0.32549 0.32549-0.8432 0.32549zm4.3466-1.0251v-3.8238h-4.4902v3.8238z" stroke-width=".015377"/>
 </g>
 <path d="m52.751 64.766q-1.4061 0-2.3965-0.99396-0.99039-0.99396-0.99039-2.4001t0.99396-2.3965q0.99396-0.99038 2.4001-0.99038t2.3965 0.99396q0.99036 0.99402 0.99036 2.4001 0 1.4061-0.99396 2.3965-0.99396 0.99037-2.4001 0.99037zm-3.5653 27.481v-9.2792h-3.9615l4.7288-13.401q0.32117-0.85654 1.0841-1.4008 0.76291-0.54428 1.722-0.54428 0.95911 0 1.7175 0.54428 0.7584 0.54422 1.0796 1.4008l4.7288 13.401h-3.9615v9.2792z" stroke-width=".053534"/>
 <path d="m61.9 29.363v-0.90176h-1.3179v-0.69365h0.90175v-4.3007h-0.90175v-0.69365h1.3179v-0.90175h0.69367v0.90175h1.0405v-0.90175h0.69365v0.9399q0.55492 0.12486 0.90176 0.5636 0.34683 0.43874 0.34683 0.99366 0 0.2948-0.11098 0.57747-0.11099 0.28267-0.31908 0.5081 0.3919 0.21157 0.61908 0.58961 0.22718 0.37804 0.22718 0.82198 0 0.65897-0.46476 1.1272-0.46474 0.46822-1.1306 0.46822h-0.06945v0.90176h-0.69365v-0.90176h-1.0405v0.90176zm0.27746-4.0926h1.8035q0.37802 0 0.63988-0.26532 0.26186-0.26532 0.26186-0.63643 0-0.37804-0.26186-0.6399-0.26186-0.26186-0.63988-0.26186h-1.8035zm0 2.4972h2.2197q0.37803 0 0.63989-0.26532 0.26186-0.26532 0.26186-0.63643 0-0.37804-0.26186-0.6399-0.26186-0.26186-0.63989-0.26186h-2.2197z" stroke-width=".010405"/>
 <path d="m72.907 27.538q0.75586 0 1.3128-0.55695 0.55694-0.55695 0.55694-1.3227 0-0.7658-0.55694-1.3128-0.55694-0.54702-1.3128-0.54702-0.75583 0-1.3128 0.54702-0.55696 0.54699-0.55696 1.3128 0 0.76578 0.55696 1.3227 0.55695 0.55695 1.3128 0.55695zm-13.764 5.828v1.0543-17.504zm0 3.0433q-0.78568 0-1.3874-0.59174-0.6017-0.59174-0.6017-1.3973v-17.504q0-0.78568 0.6017-1.3874 0.60168-0.60171 1.3874-0.60171h17.504q0.80558 0 1.3973 0.60171 0.59175 0.60168 0.59175 1.3874v3.6599h-1.9891v-3.6599h-17.504v17.504h17.504v-3.64h1.9891v3.64q0 0.80558-0.59175 1.3973-0.59173 0.59174-1.3973 0.59174zm10.303-5.0324q-1.0045 0-1.636-0.63154-0.63156-0.63151-0.63156-1.6161v-6.9021q0-1.0045 0.63156-1.6261 0.63153-0.62158 1.636-0.62158h8.1552q1.0045 0 1.636 0.62158 0.63152 0.62158 0.63152 1.6261v6.9021q0 0.9846-0.63152 1.6161-0.63154 0.63154-1.636 0.63154zm8.4337-1.9891v-7.4193h-8.7122v7.4193z" stroke-width=".029836"/>
 <path d="m62.367 80.268q-0.68206 0-1.1831-0.50102-0.50101-0.501-0.50101-1.1831v-18.862q0-0.68205 0.50101-1.1831 0.50102-0.50102 1.1831-0.50102h10.778q0.68204 0 1.1831 0.50102 0.501 0.50102 0.501 1.1831v18.862q0 0.68207-0.501 1.1831-0.50103 0.50102-1.1831 0.50102zm0-2.5261v0.84204h10.778v-0.84204zm0-1.6841h10.778v-13.81h-10.778zm0-15.494h10.778v-0.84204h-10.778zm0 0v-0.84204zm0 17.178v0.84204z" stroke-width=".025262"/>
 <path d="m91.523 13.459 8.8194-8.8194v8.8194zm6.6587-0.73495h1.4258v-6.3133l-1.4258 1.4258z" stroke-width=".011024"/>
 <path d="m85.377 12.826q-0.41892 0-0.72393-0.305-0.305-0.30501-0.305-0.72393t0.305-0.72392q0.30501-0.30501 0.72393-0.30501 0.41893 0 0.72394 0.30501 0.30499 0.305 0.30499 0.72392t-0.30499 0.72393q-0.30501 0.305-0.72394 0.305zm-2.6532-2.5209-0.7717-0.77904q0.73129-0.73128 1.5857-1.1153 0.85439-0.38401 1.8392-0.38401 0.98484 0 1.8392 0.38585 0.85438 0.38585 1.5857 1.1208l-0.7717 0.77169q-0.61002-0.61001-1.2788-0.89297-0.66881-0.28296-1.3744-0.28296-0.70555 0-1.3744 0.28296-0.6688 0.28296-1.2788 0.89297zm-1.8668-1.8668-0.7717-0.77169q1.0216-1.0436 2.3812-1.6647 1.3597-0.62103 2.9104-0.62103 1.5508 0 2.9104 0.62103 1.3597 0.62104 2.3812 1.6647l-0.7717 0.77169q-0.92971-0.90032-2.0707-1.4276-1.141-0.52734-2.4492-0.52734t-2.4492 0.52734q-1.141 0.52733-2.0707 1.4276z" stroke-width=".011024"/>
</svg>
