<svg width="400" height="400" version="1.1" viewBox="0 0 105.83 105.83" xmlns="http://www.w3.org/2000/svg">
 <rect width="105.49" height="105.49" ry=".13328" fill="#fff"/>
 <path d="m73.043 35.687v-1.1141h-1.6282v-0.85696h1.114v-5.3132h-1.114v-0.85696h1.6282v-1.1141h0.85699v1.1141h1.2854v-1.1141h0.85696v1.1612q0.68557 0.15425 1.1141 0.69629 0.42848 0.54204 0.42848 1.2276 0 0.36421-0.13711 0.71342-0.13712 0.34922-0.3942 0.62772 0.48416 0.26138 0.76483 0.72842 0.28066 0.46704 0.28066 1.0155 0 0.81411-0.57418 1.3926-0.57415 0.57845-1.3968 0.57845h-0.0858v1.1141h-0.85696v-1.1141h-1.2855v1.1141zm0.34279-5.0561h2.2281q0.46702 0 0.79053-0.32779 0.32351-0.32779 0.32351-0.78627 0-0.46704-0.32351-0.79055-0.32351-0.32351-0.79053-0.32351h-2.2281zm0 3.0851h2.7423q0.46703 0 0.79054-0.32779t0.32351-0.78627q0-0.46704-0.32351-0.79055-0.32351-0.32351-0.79054-0.32351h-2.7423z" stroke-width=".012854"/>
 <path d="m86.641 33.432q0.93381 0 1.6219-0.68808 0.68806-0.68808 0.68806-1.6341 0-0.9461-0.68806-1.6219-0.68806-0.6758-1.6219-0.6758-0.93378 0-1.6219 0.6758-0.68809 0.67577-0.68809 1.6219 0 0.94606 0.68809 1.6341 0.68808 0.68808 1.6219 0.68808zm-17.005 7.2001v1.3025-21.625zm0 3.7598q-0.97065 0-1.714-0.73105-0.74336-0.73106-0.74336-1.7263v-21.625q0-0.97065 0.74336-1.714 0.74334-0.74337 1.714-0.74337h21.625q0.99524 0 1.7263 0.74337 0.73107 0.74333 0.73107 1.714v4.5216h-2.4574v-4.5216h-21.625v21.625h21.625v-4.497h2.4574v4.497q0 0.99524-0.73107 1.7263-0.73104 0.73105-1.7263 0.73105zm12.729-6.2172q-1.241 0-2.0212-0.78023-0.78025-0.78019-0.78025-1.9966v-8.5271q0-1.241 0.78025-2.0089 0.78021-0.76792 2.0212-0.76792h10.075q1.241 0 2.0212 0.76792 0.7802 0.76792 0.7802 2.0089v8.5271q0 1.2164-0.7802 1.9966-0.78023 0.78023-2.0212 0.78023zm10.419-2.4574v-9.166h-10.763v9.166z" stroke-width=".03686"/>
 <path d="m14.13 51.151q-1.1295 0-1.9592-0.82969-0.82967-0.82965-0.82967-1.9592v-31.235q0-1.1295 0.82967-1.9592 0.82969-0.82969 1.9592-0.82969h17.849q1.1295 0 1.9592 0.82969 0.82965 0.82969 0.82965 1.9592v31.235q0 1.1295-0.82965 1.9592-0.8297 0.82969-1.9592 0.82969zm0-4.1832v1.3944h17.849v-1.3944zm0-2.7889h17.849v-22.869h-17.849zm0-25.658h17.849v-1.3944h-17.849zm0 0v-1.3944zm0 28.447v1.3944z" stroke-width=".041833"/>
 <text x="41.776672" y="38.748318" fill="#000000" font-family="sans-serif" font-size="25.4px" stroke-width=".26458" style="line-height:1.25" xml:space="preserve"><tspan x="41.776672" y="38.748318" font-size="25.4px" stroke-width=".26458">≠</tspan></text>
 <g transform="matrix(.1115 0 0 .1115 15.7 25.479)">
  <path d="m65.419 0.36106a63.719 63.72 0 0 0-63.72 63.72 63.719 63.72 0 0 0 63.72 63.719 63.719 63.72 0 0 0 63.719-63.719 63.719 63.72 0 0 0-63.719-63.72zm-34.705 28.607 18.962 0.06599 17.785 24.847 9.8729-13.077-6.6037-0.78448v-11.05h31.973v11.508l-6.4077 1.1117-18.177 22.296 19.158 23.343 6.6697 1.0464v11.443h-18.635l-19.093-25.566-10.331 13.862 5.6886 0.71916v10.985h-31.516v-11.443l6.6044-1.0464 19.093-23.016-18.439-22.623-6.6044-1.1117z" fill="#ffb200" stroke="#000" stroke-dasharray="0, 6.182" stroke-linejoin="bevel" stroke-miterlimit="4.1" stroke-opacity=".25297" stroke-width=".562"/>
 </g>
 <text x="40.938141" y="87.926956" fill="#000000" font-family="sans-serif" font-size="25.4px" stroke-width=".26458" style="line-height:1.25" xml:space="preserve"><tspan x="40.938141" y="87.926956" font-size="25.4px" stroke-width=".26458">≠</tspan></text>
 <path d="m19.956 74.076h6.3996v-2.2399q0-1.381-0.92627-2.3156-0.92626-0.93467-2.2735-0.93467-1.3473 0-2.2735 0.93467-0.92626 0.93468-0.92626 2.3156zm4.5808 14.045h-7.7806q-0.66521 0-1.1746-0.50945-0.50945-0.50943-0.50945-1.1746v-10.677q0-0.66521 0.50945-1.1746 0.50943-0.50945 1.1746-0.50945h1.5157v-2.2399q0-2.063 1.4188-3.4987 1.4189-1.4357 3.465-1.4357 2.0462 0 3.4651 1.4357 1.4188 1.4357 1.4188 3.4987v2.2399h1.5157q0.6652 0 1.1746 0.50945 0.50945 0.50942 0.50945 1.1746v1.9031q-0.37052-0.10105-0.77049-0.14313-0.39996-0.0421-0.9136-0.0421v-1.7178h-12.799v10.677h6.8543q0.18527 0.48838 0.38737 0.86309 0.20208 0.3747 0.53891 0.821zm5.2376 0.90941q-2.0294 0-3.4819-1.4525-1.4525-1.4525-1.4525-3.4819 0-2.0294 1.4525-3.4819 1.4525-1.4525 3.4819-1.4525 2.0294 0 3.4819 1.4525 1.4525 1.4525 1.4525 3.4819 0 2.0293-1.4525 3.4819-1.4525 1.4525-3.4819 1.4525zm1.802-2.442 0.69048-0.69047-2.0377-1.903v-3.0314h-1.0442v3.3644zm-14.82-10.829v10.677z" stroke-width=".025262"/>
 <path d="m84.812 85.486q-0.55388 0-0.94904-0.39519-0.39517-0.39515-0.39517-0.94903 0-0.55386 0.39517-0.94903 0.39516-0.39518 0.94904-0.39518 0.55387 0 0.94903 0.39518 0.39518 0.39516 0.39518 0.94903 0 0.55388-0.39518 0.94903-0.39516 0.39519-0.94903 0.39519zm0 3.1365q-1.867 0-3.1738-1.3069t-1.3069-3.1738q0-1.867 1.3069-3.1738t3.1738-1.3069q1.3131 0 2.3244 0.62854 1.0113 0.62854 1.5962 1.8234h6.6215l2.1532 2.1532-3.1987 3.0245-1.5932-1.17-1.5931 1.17-1.4624-1.1202h-0.92728q-0.5103 1.0828-1.5153 1.7674-1.005 0.68456-2.4053 0.68456zm0-1.2446q1.0704 0 1.9448-0.69078 0.87435-0.69077 1.1357-1.7612h2.1968l1.033 0.81525 1.6056-1.1638 1.4625 1.114 1.5247-1.45-0.88372-0.88369h-6.9389q-0.23648-1.0206-1.0984-1.7363-0.86192-0.71569-1.9821-0.71569-1.3442 0-2.2901 0.94594-0.94594 0.94592-0.94594 2.2901 0 1.3442 0.94594 2.2902 0.94593 0.94593 2.2901 0.94593z" stroke-width=".01867"/>
 <path d="m74.138 73.35h6.3996v-2.2399c0-0.92065-0.30875-1.6925-0.92627-2.3156-0.6175-0.62312-1.3754-0.93467-2.2735-0.93467-0.89818 0-1.656 0.31155-2.2735 0.93467-0.6175 0.62312-0.92626 1.395-0.92626 2.3156zm4.5808 14.045h-7.7806c-0.44347 0-0.83501-0.16982-1.1746-0.50945-0.33963-0.33962-0.50945-0.73117-0.50945-1.1746v-10.677c0-0.44348 0.16982-0.83502 0.50945-1.1746 0.33962-0.33964 0.73116-0.50945 1.1746-0.50945h1.5157v-2.2399c0-1.3753 0.47295-2.5416 1.4188-3.4987 0.94592-0.95713 2.1009-1.4357 3.465-1.4357 1.3641 0 2.5192 0.47856 3.465 1.4357 0.9459 0.95714 1.4188 2.1234 1.4188 3.4987v2.2399h1.5157c0.44348 0 0.83502 0.16981 1.1746 0.50945 0.33964 0.33961 0.50945 0.73115 0.50945 1.1746v1.9031c-0.24701-0.0674-0.50384-0.11508-0.77048-0.14313-0.26664-0.0281-0.57118-0.0421-0.91361-0.0421v-1.7178h-12.799v10.677h6.8543c0.12352 0.32558 0.25264 0.61328 0.38737 0.86309 0.13472 0.2498 0.31436 0.52346 0.5389 0.821zm-7.7806-12.361v10.677z" stroke-width=".025262"/>
</svg>
