<?xml version="1.0" encoding="UTF-8" standalone="no"?>
<svg
   xmlns:dc="http://purl.org/dc/elements/1.1/"
   xmlns:cc="http://creativecommons.org/ns#"
   xmlns:rdf="http://www.w3.org/1999/02/22-rdf-syntax-ns#"
   xmlns:svg="http://www.w3.org/2000/svg"
   xmlns="http://www.w3.org/2000/svg"
   xmlns:sodipodi="http://sodipodi.sourceforge.net/DTD/sodipodi-0.dtd"
   xmlns:inkscape="http://www.inkscape.org/namespaces/inkscape"
   width="400"
   height="400"
   version="1.1"
   viewBox="0 0 105.83 105.83"
   id="svg1986"
   sodipodi:docname="03.svg"
   inkscape:version="1.0.2 (e86c870879, 2021-01-15)">
  <metadata
     id="metadata1992">
    <rdf:RDF>
      <cc:Work
         rdf:about="">
        <dc:format>image/svg+xml</dc:format>
        <dc:type
           rdf:resource="http://purl.org/dc/dcmitype/StillImage" />
      </cc:Work>
    </rdf:RDF>
  </metadata>
  <defs
     id="defs1990" />
  <sodipodi:namedview
     pagecolor="#ffffff"
     bordercolor="#666666"
     borderopacity="1"
     objecttolerance="10"
     gridtolerance="10"
     guidetolerance="10"
     inkscape:pageopacity="0"
     inkscape:pageshadow="2"
     inkscape:window-width="1160"
     inkscape:window-height="808"
     id="namedview1988"
     showgrid="false"
     inkscape:zoom="1.0666489"
     inkscape:cx="189.87567"
     inkscape:cy="231.02941"
     inkscape:window-x="351"
     inkscape:window-y="196"
     inkscape:window-maximized="0"
     inkscape:current-layer="svg1986"
     inkscape:document-rotation="0" />
  <rect
     style="display:inline;fill:#ffffff;fill-opacity:1;stroke:none;stroke-width:0.341857;stroke-linejoin:round;stroke-miterlimit:4;stroke-dasharray:none;stroke-dashoffset:7.35;stroke-opacity:1"
     id="rect49606"
     width="105.48815"
     height="105.48815"
     x="0"
     y="-8.8817842e-16"
     ry="0.13327536" />
  <path
     d="m 82.749388,53.830008 -2.626621,-2.626621 0.636471,-0.645445 1.541898,1.541898 v -4.787087 h 0.896452 v 4.787087 l 1.541898,-1.541898 0.636471,0.645445 z m -3.406518,2.088749 q -0.363065,0 -0.629761,-0.266691 -0.266685,-0.26669 -0.266685,-0.629749 v -1.819781 h 0.896452 v 1.819781 h 6.813036 v -1.819781 h 0.896452 v 1.819781 q 0,0.363065 -0.266697,0.629749 -0.266684,0.266691 -0.629749,0.266691 z"
     stroke-width="0.641468"
     id="path1966" />
  <g
     transform="matrix(0.54658,0,0,0.54658,32.372465,29.848361)"
     id="g1972">
    <path
       d="m 77.914,77.124 v -0.46476 h -0.67926 v -0.3575 h 0.46476 v -2.2165 h -0.46476 v -0.3575 H 77.914 v -0.46476 h 0.3575 v 0.46476 h 0.53626 v -0.46476 h 0.3575 v 0.48442 q 0.286,0.06435 0.46476,0.29047 0.17875,0.22612 0.17875,0.51212 0,0.15194 -0.0572,0.29762 -0.0572,0.14568 -0.16445,0.26187 0.20198,0.10904 0.31907,0.30388 0.11708,0.19484 0.11708,0.42364 0,0.33962 -0.23953,0.58094 -0.23952,0.24131 -0.58272,0.24131 h -0.03576 v 0.46476 h -0.3575 V 76.65925 H 78.2715 v 0.46476 z m 0.143,-2.1093 h 0.92951 q 0.19484,0 0.3298,-0.13674 0.13496,-0.13674 0.13496,-0.32801 0,-0.19484 -0.13496,-0.3298 -0.13496,-0.13496 -0.3298,-0.13496 H 78.057 Z m 0,1.287 h 1.144 q 0.19484,0 0.3298,-0.13674 0.13496,-0.13674 0.13496,-0.32801 0,-0.19484 -0.13496,-0.3298 -0.13496,-0.13496 -0.3298,-0.13496 h -1.144 z"
       stroke-width=".0053626"
       id="path1968" />
    <path
       d="m 83.586,76.184 q 0.38957,0 0.6766,-0.28705 0.28704,-0.28705 0.28704,-0.68172 0,-0.39469 -0.28704,-0.6766 -0.28703,-0.28193 -0.6766,-0.28193 -0.38955,0 -0.6766,0.28193 -0.28705,0.28191 -0.28705,0.6766 0,0.39467 0.28705,0.68172 0.28705,0.28705 0.6766,0.28705 z m -7.094,3.0037 v 0.54336 -9.0213 z m 0,1.5685 q -0.40493,0 -0.71503,-0.30498 -0.31011,-0.30498 -0.31011,-0.72016 v -9.0213 q 0,-0.40493 0.31011,-0.71503 0.3101,-0.31011 0.71503,-0.31011 h 9.0213 q 0.41519,0 0.72016,0.31011 0.30498,0.3101 0.30498,0.71503 v 1.8863 h -1.0251 v -1.8863 h -9.0213 v 9.0213 h 9.0213 v -1.876 h 1.0251 v 1.876 q 0,0.41519 -0.30498,0.72016 -0.30498,0.30497 -0.72016,0.30498 z m 5.3103,-2.5936 q -0.51769,0 -0.84318,-0.32549 -0.32549,-0.32548 -0.32549,-0.83292 v -3.5573 q 0,-0.5177 0.32549,-0.83806 0.32549,-0.32036 0.84318,-0.32036 h 4.2031 q 0.5177,0 0.8432,0.32036 0.32548,0.32035 0.32548,0.83806 v 3.5573 q 0,0.50745 -0.32548,0.83292 -0.32549,0.32549 -0.8432,0.32549 z m 4.3466,-1.0251 v -3.8238 h -4.4902 v 3.8238 z"
       stroke-width=".015377"
       id="path1970" />
  </g>
  <path
     d="m52.751 64.766q-1.4061 0-2.3965-0.99396-0.99039-0.99396-0.99039-2.4001t0.99396-2.3965q0.99396-0.99038 2.4001-0.99038t2.3965 0.99396q0.99036 0.99402 0.99036 2.4001 0 1.4061-0.99396 2.3965-0.99396 0.99037-2.4001 0.99037zm-3.5653 27.481v-9.2792h-3.9615l4.7288-13.401q0.32117-0.85654 1.0841-1.4008 0.76291-0.54428 1.722-0.54428 0.95911 0 1.7175 0.54428 0.7584 0.54422 1.0796 1.4008l4.7288 13.401h-3.9615v9.2792z"
     stroke-width=".053534"
     id="path1974" />
  <path
     d="m 85.151508,39.366663 v -0.66461 h -0.971312 v -0.511231 h 0.664603 v -3.16968 h -0.664603 v -0.51123 h 0.971312 v -0.664603 h 0.511245 v 0.664603 h 0.766864 v -0.664603 h 0.51123 v 0.69272 q 0.408984,0.09202 0.664611,0.415382 0.255619,0.323358 0.255619,0.732342 0,0.217272 -0.08179,0.425604 -0.0818,0.208332 -0.235167,0.374477 0.288836,0.15593 0.456271,0.434552 0.167435,0.278621 0.167435,0.605811 0,0.485671 -0.342535,0.830763 -0.34252,0.345085 -0.833269,0.345085 h -0.05119 v 0.664611 h -0.51123 v -0.664611 h -0.766864 v 0.664611 z M 85.356,36.350356 h 1.329206 q 0.278607,0 0.471601,-0.195545 0.192995,-0.195544 0.192995,-0.469058 0,-0.278621 -0.192995,-0.471616 -0.192994,-0.192995 -0.471601,-0.192995 H 85.356 Z m 0,1.840474 h 1.635952 q 0.278614,0 0.471608,-0.195545 0.192995,-0.195545 0.192995,-0.469058 0,-0.278622 -0.192995,-0.471616 -0.192994,-0.192995 -0.471608,-0.192995 H 85.356 Z"
     stroke-width="0.00766864"
     id="path1976" />
  <path
     d="m 93.263831,38.021611 q 0.55708,0 0.967553,-0.41048 0.410473,-0.410481 0.410473,-0.97485 0,-0.564406 -0.410473,-0.967553 -0.410473,-0.403162 -0.967553,-0.403162 -0.557058,0 -0.967554,0.403162 -0.410487,0.40314 -0.410487,0.967553 0,0.564391 0.410487,0.97485 0.410481,0.41048 0.967554,0.41048 z M 83.119558,42.316934 V 43.093969 30.19326 Z m 0,2.242957 q -0.579058,0 -1.022535,-0.436121 -0.443462,-0.436121 -0.443462,-1.029831 V 30.19323 q 0,-0.579057 0.443462,-1.022534 0.443447,-0.443469 1.022535,-0.443469 h 12.900708 q 0.593725,0 1.029831,0.443469 0.436129,0.443447 0.436129,1.022534 v 2.697401 H 96.02023 V 30.19323 H 83.119521 V 43.093939 H 96.02023 v -2.682734 h 1.465996 v 2.682734 q 0,0.593725 -0.436129,1.029831 -0.436114,0.436121 -1.029831,0.436121 z m 7.593464,-3.708953 q -0.740331,0 -1.205756,-0.465455 -0.465469,-0.465432 -0.465469,-1.19109 v -5.08695 q 0,-0.740332 0.465469,-1.19846 0.465447,-0.458114 1.205756,-0.458114 h 6.010504 q 0.740331,0 1.205756,0.458114 0.46544,0.458114 0.46544,1.19846 v 5.08695 q 0,0.725665 -0.46544,1.19109 -0.465454,0.465455 -1.205756,0.465455 z m 6.215763,-1.465997 v -5.468134 h -6.421022 v 5.468134 z"
     stroke-width="0.737015"
     id="path1978" />
  <path
     d="m 70.918465,82.816361 q -0.68206,0 -1.1831,-0.50102 -0.50101,-0.501 -0.50101,-1.1831 v -18.862 q 0,-0.68205 0.50101,-1.1831 0.50102,-0.50102 1.1831,-0.50102 h 10.778 q 0.68204,0 1.1831,0.50102 0.501,0.50102 0.501,1.1831 v 18.862 q 0,0.68207 -0.501,1.1831 -0.50103,0.50102 -1.1831,0.50102 z m 0,-2.5261 v 0.84204 h 10.778 v -0.84204 z m 0,-1.6841 h 10.778 v -13.81 h -10.778 z m 0,-15.494 h 10.778 v -0.84204 h -10.778 z m 0,0 v -0.84204 z m 0,17.178 v 0.84204 z"
     stroke-width="0.025262"
     id="path1980" />
  <path
     d="m 93.42741,19.682842 8.8194,-8.8194 v 8.8194 z m 6.6587,-0.73495 h 1.4258 v -6.3133 l -1.4258,1.4258 z"
     stroke-width="0.011024"
     id="path1982" />
  <path
     d="m 87.28141,19.049842 q -0.41892,0 -0.72393,-0.305 -0.305,-0.30501 -0.305,-0.72393 0,-0.41892 0.305,-0.72392 0.30501,-0.30501 0.72393,-0.30501 0.41893,0 0.72394,0.30501 0.30499,0.305 0.30499,0.72392 0,0.41892 -0.30499,0.72393 -0.30501,0.305 -0.72394,0.305 z m -2.6532,-2.5209 -0.7717,-0.77904 q 0.73129,-0.73128 1.5857,-1.1153 0.85439,-0.38401 1.8392,-0.38401 0.98484,0 1.8392,0.38585 0.85438,0.38585 1.5857,1.1208 l -0.7717,0.77169 q -0.61002,-0.61001 -1.2788,-0.89297 -0.66881,-0.28296 -1.3744,-0.28296 -0.70555,0 -1.3744,0.28296 -0.6688,0.28296 -1.2788,0.89297 z m -1.8668,-1.8668 -0.7717,-0.77169 q 1.0216,-1.0436 2.3812,-1.6647 1.3597,-0.62103 2.9104,-0.62103 1.5508,0 2.9104,0.62103 1.3597,0.62104 2.3812,1.6647 l -0.7717,0.77169 q -0.92971,-0.90032 -2.0707,-1.4276 -1.141,-0.52734 -2.4492,-0.52734 -1.3082,0 -2.4492,0.52734 -1.141,0.52733 -2.0707,1.4276 z"
     stroke-width="0.011024"
     id="path1984" />
  <path
     d="m 46.493505,46.454012 q -1.56344,0 -3.019055,-0.64694 -1.455617,-0.64694 -2.426026,-1.886908 L 29.349586,29.040537 30.481733,27.800569 q 0.754765,-0.808678 1.859954,-0.997366 1.105187,-0.188688 2.0756,0.350437 l 5.337256,2.857305 v -19.67777 q 0,-0.687371 0.467683,-1.1523594 0.467739,-0.4649884 1.159104,-0.4649884 0.691414,0 1.149667,0.4649884 0.458248,0.4649884 0.458248,1.1523594 v 25.06894 l -7.763284,-4.151198 8.410224,10.674512 q 0.539114,0.646941 1.280941,0.97041 0.741827,0.323458 1.576379,0.323458 h 11.051894 q 2.048647,0 3.450353,-1.401705 1.401701,-1.401702 1.401701,-3.450344 v -9.164989 q 0,-1.374748 -0.929977,-2.304725 Q 60.5375,25.967557 59.162751,25.967557 H 47.30218 v -3.234702 h 11.841487 q 2.703562,0 4.596024,1.886909 1.892463,1.886907 1.892463,4.582495 v 9.164989 q 0,3.396435 -2.345159,5.741591 -2.345156,2.34516 -5.741596,2.34516 z M 33.446874,14.915671 q -0.597017,-1.011061 -0.918492,-2.18299 -0.321463,-1.171882 -0.321463,-2.412766 0,-3.8144681 2.68076,-6.4830968 2.680757,-2.6686278 6.484225,-2.6686278 3.803472,0 6.484229,2.6814614 2.68076,2.6814573 2.68076,6.4859002 0,1.237596 -0.321463,2.405214 -0.321463,1.167566 -0.918492,2.174905 L 46.49353,13.298322 q 0.377376,-0.64694 0.593027,-1.401707 0.215667,-0.754761 0.215667,-1.589207 0,-2.4541681 -1.731535,-4.1793424 -1.731483,-1.7251736 -4.20511,-1.7251736 -2.473578,0 -4.198752,1.7296483 -1.725174,1.7297017 -1.725174,4.2006347 0,0.808679 0.215626,1.56344 0.215627,0.754767 0.593027,1.401707 z m 15.364833,18.060416 z"
     id="path4984"
     style="stroke-width:0.0539116" />
  <path
     d="M 9.6656602,15.342539 15.162672,6.6534854 16.656026,13.290256 17.950065,12.99423 15.958933,4.1452405 7.1099431,6.1363724 7.3967327,7.4324892 14.033505,5.939133 8.5364935,14.628187 Z"
     id="path5128"
     style="stroke-width:0.0200427"
     inkscape:transform-center-x="71.24497"
     inkscape:transform-center-y="11.666203" />
  <path
     d="M 71.66831,15.316238 69.302343,5.3102902 75.090385,8.8845592 75.783828,7.7526132 68.066472,2.9869432 63.3008,10.7043 64.427773,11.405799 68.002042,5.6177552 70.36801,15.623702 Z"
     id="path5128-3"
     style="stroke-width:0.0200427"
     inkscape:transform-center-x="41.616733"
     inkscape:transform-center-y="59.033279" />
</svg>
