<svg width="400" height="400" version="1.1" viewBox="0 0 105.83 105.83" xmlns="http://www.w3.org/2000/svg">
 <rect width="105.49" height="105.49" ry=".13328" fill="#fff"/>
 <path d="m52.697 64.871q-1.4061 0-2.3965-0.99396-0.99039-0.99396-0.99039-2.4001t0.99396-2.3965q0.99396-0.99038 2.4001-0.99038t2.3965 0.99396q0.99036 0.99402 0.99036 2.4001 0 1.4061-0.99396 2.3965-0.99396 0.99037-2.4001 0.99037zm-3.5653 27.481v-9.2792h-3.9615l4.7288-13.401q0.32117-0.85654 1.0841-1.4008 0.76291-0.54428 1.722-0.54428 0.95911 0 1.7175 0.54428 0.7584 0.54422 1.0796 1.4008l4.7288 13.401h-3.9615v9.2792z" stroke-width=".053534"/>
 <path d="m61.741 79.627q-0.68206 0-1.1831-0.50102-0.50101-0.501-0.50101-1.1831v-18.862q0-0.68205 0.50101-1.1831 0.50102-0.50102 1.1831-0.50102h10.778q0.68204 0 1.1831 0.50102 0.501 0.50102 0.501 1.1831v18.862q0 0.68207-0.501 1.1831-0.50103 0.50102-1.1831 0.50102zm0-2.5261v0.84204h10.778v-0.84204zm0-1.6841h10.778v-13.81h-10.778zm0-15.494h10.778v-0.84204h-10.778zm0 0v-0.84204zm0 17.178v0.84204z" stroke-width=".025262"/>
 <path d="m75.667 25.88q-0.5911 0-1.0128-0.42174-0.42173-0.42171-0.42173-1.0128 0-0.59109 0.42173-1.0128 0.42172-0.42174 1.0128-0.42174 0.59108 0 1.0128 0.42174 0.42173 0.42172 0.42173 1.0128 0 0.5911-0.42173 1.0128-0.42173 0.42174-1.0128 0.42174zm0 3.3473q-1.9924 0-3.3872-1.3947-1.3947-1.3947-1.3947-3.3871 0-1.9924 1.3947-3.3871 1.3947-1.3947 3.3872-1.3947 1.4013 0 2.4806 0.67078 1.0792 0.67078 1.7035 1.946h7.0665l2.2979 2.2979-3.4137 3.2277-1.7002-1.2486-1.7002 1.2486-1.5607-1.1955h-0.98959q-0.54459 1.1556-1.6172 1.8862-1.0726 0.73057-2.5669 0.73057zm0-1.3283q1.1423 0 2.0754-0.7372 0.93311-0.7372 1.212-1.8795h2.3444l1.1024 0.87004 1.7135-1.242 1.5608 1.1888 1.6272-1.5475-0.94311-0.94307h-7.4052q-0.25238-1.0892-1.1722-1.853-0.91985-0.76378-2.1153-0.76378-1.4346 0-2.4441 1.0095-1.0095 1.0095-1.0095 2.444 0 1.4346 1.0095 2.4441 1.0095 1.0095 2.4441 1.0095z" stroke-width=".019924"/>
 <g stroke-width=".047102">
  <path d="m12.833 45.923h39.919v-9.4205h9.4204v-18.213h-49.339zm0 3.1401c-0.86354 0-1.6028-0.30747-2.2177-0.92241-0.61494-0.61494-0.92241-1.3542-0.92241-2.2177v-27.633c0-0.86355 0.30747-1.6028 0.92241-2.2177 0.61492-0.61494 1.3541-0.92241 2.2177-0.92241h49.339c0.86356 0 1.6028 0.30747 2.2177 0.92241 0.61492 0.61494 0.92239 1.3542 0.92239 2.2177v19.469l-11.305 11.305zm5.0243-13.817v-3.1401h6.1529v3.1401zm0-7.5364v-3.1401h5.7962v3.1401zm-5.0243 18.213v-27.633z"/>
  <path d="m28.266 35.177v-3.1401h6.1529v3.1401zm0-7.5364v-3.1401h5.7962v3.1401z"/>
  <path d="m38.936 35.156v-3.1401h6.1529v3.1401zm0-7.5364v-3.1401h5.7962v3.1401z"/>
  <path d="m50.501 35.132v-3.1401h6.1529v3.1401zm0-7.5364v-3.1401h5.7962v3.1401z"/>
  <path d="m28.143 42.041v-3.1401h6.1529v3.1401zm-9.9427 0v-3.1401h5.7962v3.1401z"/>
  <path d="m49.391 42.041v-3.1401h6.1529v3.1401zm-9.9426 0v-3.1401h5.7962v3.1401z"/>
 </g>
 <path d="m61.741 79.627q-0.68206 0-1.1831-0.50102-0.50101-0.501-0.50101-1.1831v-18.862q0-0.68205 0.50101-1.1831 0.50102-0.50102 1.1831-0.50102h10.778q0.68204 0 1.1831 0.50102 0.501 0.50102 0.501 1.1831v18.862q0 0.68207-0.501 1.1831-0.50103 0.50102-1.1831 0.50102zm0-2.5261v0.84204h10.778v-0.84204zm0-1.6841h10.778v-13.81h-10.778zm0-15.494h10.778v-0.84204h-10.778zm0 0v-0.84204zm0 17.178v0.84204z" stroke-width=".025262"/>
 <g transform="translate(-5.377 -.82399)">
  <path d="m83.987 65.383v-0.43864h-0.6411v-0.33741h0.43864v-2.092h-0.43864v-0.33742h0.6411v-0.43864h0.33742v0.43864h0.50613v-0.43864h0.33741v0.4572q0.26994 0.06073 0.43865 0.27415 0.16871 0.21342 0.16871 0.48335 0 0.1434-0.05399 0.2809-0.05399 0.1375-0.15521 0.24716 0.19064 0.10292 0.30114 0.28681 0.1105 0.18389 0.1105 0.39984 0 0.32054-0.22607 0.5483-0.22607 0.22776-0.54998 0.22776h-0.03375v0.43864h-0.33742v-0.43864h-0.50613v0.43864zm0.13496-1.9908h0.87729q0.18389 0 0.31127-0.12906 0.12738-0.12906 0.12738-0.30958 0-0.18389-0.12738-0.31127-0.12738-0.12738-0.31127-0.12738h-0.87729zm0 1.2147h1.0797q0.18389 0 0.31127-0.12906 0.12738-0.12906 0.12738-0.30958 0-0.18389-0.12738-0.31127-0.12738-0.12738-0.31127-0.12738h-1.0797z" stroke-width=".0050613"/>
  <path d="m89.341 64.495q0.36768 0 0.63859-0.27092 0.27092-0.27092 0.27092-0.64342 0-0.37251-0.27092-0.63859-0.27091-0.26609-0.63859-0.26609-0.36766 0-0.63859 0.26609-0.27092 0.26607-0.27092 0.63859 0 0.3725 0.27092 0.64342 0.27092 0.27092 0.63859 0.27092zm-6.6955 2.8349v0.51283-8.5145zm0 1.4804q-0.38218 0-0.67486-0.28784-0.29269-0.28784-0.29269-0.6797v-8.5145q0-0.38218 0.29269-0.67485 0.29268-0.29269 0.67486-0.29269h8.5145q0.39186 0 0.6797 0.29269 0.28784 0.29267 0.28784 0.67485v1.7803h-0.96754v-1.7803h-8.5145v8.5145h8.5145v-1.7706h0.96754v1.7706q0 0.39186-0.28784 0.6797-0.28784 0.28784-0.6797 0.28784zm5.0119-2.4479q-0.48861 0-0.79581-0.3072-0.3072-0.30719-0.3072-0.78613v-3.3574q0-0.48862 0.3072-0.79097 0.3072-0.30236 0.79581-0.30236h3.967q0.48862 0 0.79582 0.30236 0.30719 0.30236 0.30719 0.79097v3.3574q0 0.47894-0.30719 0.78613-0.3072 0.3072-0.79582 0.3072zm4.1024-0.96754v-3.609h-4.2379v3.609z" stroke-width=".014513"/>
 </g>
 <g transform="translate(-.17093 -.17093)" stroke-width=".26458" aria-label="---- ---- ----">
  <path d="m64.479 65.209h1.1141v0.339h-1.1141z"/>
  <path d="m66.006 65.209h1.1141v0.339h-1.1141z"/>
  <path d="m67.534 65.209h1.1141v0.339h-1.1141z"/>
  <path d="m69.061 65.209h1.1141v0.339h-1.1141z"/>
  <path d="m64.479 68.384h1.1141v0.339h-1.1141z"/>
  <path d="m66.006 68.384h1.1141v0.339h-1.1141z"/>
  <path d="m67.534 68.384h1.1141v0.339h-1.1141z"/>
  <path d="m69.061 68.384h1.1141v0.339h-1.1141z"/>
  <path d="m64.479 71.559h1.1141v0.339h-1.1141z"/>
  <path d="m66.006 71.559h1.1141v0.339h-1.1141z"/>
  <path d="m67.534 71.559h1.1141v0.339h-1.1141z"/>
  <path d="m69.061 71.559h1.1141v0.339h-1.1141z"/>
 </g>
</svg>
