<?xml version="1.0" encoding="UTF-8" standalone="no"?>
<svg
   xmlns:dc="http://purl.org/dc/elements/1.1/"
   xmlns:cc="http://creativecommons.org/ns#"
   xmlns:rdf="http://www.w3.org/1999/02/22-rdf-syntax-ns#"
   xmlns:svg="http://www.w3.org/2000/svg"
   xmlns="http://www.w3.org/2000/svg"
   xmlns:sodipodi="http://sodipodi.sourceforge.net/DTD/sodipodi-0.dtd"
   xmlns:inkscape="http://www.inkscape.org/namespaces/inkscape"
   width="400"
   height="400"
   version="1.1"
   viewBox="0 0 105.83 105.83"
   id="svg11865"
   sodipodi:docname="05.svg"
   inkscape:version="1.0.2 (e86c870879, 2021-01-15)">
  <metadata
     id="metadata11871">
    <rdf:RDF>
      <cc:Work
         rdf:about="">
        <dc:format>image/svg+xml</dc:format>
        <dc:type
           rdf:resource="http://purl.org/dc/dcmitype/StillImage" />
      </cc:Work>
    </rdf:RDF>
  </metadata>
  <defs
     id="defs11869" />
  <sodipodi:namedview
     pagecolor="#ffffff"
     bordercolor="#666666"
     borderopacity="1"
     objecttolerance="10"
     gridtolerance="10"
     guidetolerance="10"
     inkscape:pageopacity="0"
     inkscape:pageshadow="2"
     inkscape:window-width="1647"
     inkscape:window-height="883"
     id="namedview11867"
     showgrid="false"
     inkscape:zoom="1.9643843"
     inkscape:cx="168.24018"
     inkscape:cy="71.799159"
     inkscape:window-x="0"
     inkscape:window-y="0"
     inkscape:window-maximized="0"
     inkscape:current-layer="svg11865"
     inkscape:document-rotation="0" />
  <rect
     width="105.49"
     height="105.49"
     ry=".13328"
     fill="#fff"
     id="rect11815" />
  <g
     stroke-width=".025262"
     id="g11823">
    <path
       d="m82.373 51.914h7.8143l1.1452-4.5471h-10.105zm0 1.6841q-0.57259 0-1.0237-0.35434-0.4511-0.35435-0.60144-0.91715l-1.2547-4.9597h13.574l-1.2547 4.9597q-0.15036 0.5628-0.60145 0.91715-0.4511 0.35434-1.0237 0.35434zm-3.5029-7.9153h14.82v-2.3578h-14.82zm7.4101-6.248q0.0842-2.3072 1.903-4.1345 1.8188-1.8273 4.1429-1.9114-0.0505 2.122-1.6083 3.8482-1.5578 1.7262-3.5956 2.0967v2.3072h8.2521v4.0418q0 0.69467-0.4947 1.1894t-1.1894 0.4947h-14.82q-0.69469 0-1.1894-0.4947t-0.4947-1.1894v-4.0418h8.2521v-2.3072q-2.0378-0.37048-3.5872-2.0967-1.5494-1.7262-1.6167-3.8482 2.324 0.0841 4.1513 1.903 1.8272 1.8189 1.8946 4.1429z"
       id="path11817" />
    <path
       d="m72.231 54.97-1.1789-1.2042 2.7872-2.8209h-8.7826v-1.7178h8.7826l-2.7872-2.8125 1.1789-1.1957 4.8502 4.8671z"
       id="path11819" />
    <path
       d="m71.656 13.64-1.1789-1.2042 2.7872-2.8209h-8.7826v-1.7178h8.7826l-2.7872-2.8125 1.1789-1.1957 4.8502 4.8671z"
       id="path11821" />
  </g>
  <path
     d="m53.361 64.827q-1.4061 0-2.3965-0.99396-0.99039-0.99396-0.99039-2.4001t0.99396-2.3965q0.99396-0.99038 2.4001-0.99038t2.3965 0.99396q0.99036 0.99402 0.99036 2.4001 0 1.4061-0.99396 2.3965-0.99396 0.99037-2.4001 0.99037zm-3.5653 27.481v-9.2792h-3.9615l4.7288-13.401q0.32117-0.85654 1.0841-1.4008 0.76291-0.54428 1.722-0.54428 0.95911 0 1.7175 0.54428 0.7584 0.54422 1.0796 1.4008l4.7288 13.401h-3.9615v9.2792z"
     stroke-width=".053534"
     id="path11825" />
  <g
     transform="translate(-.17093 -.17093)"
     id="g11843">
    <g
       transform="matrix(.69499 0 0 .69499 -.24524 -6.6107)"
       stroke-width=".047102"
       id="g11841">
      <path
         d="m13.667 46.05h39.919v-9.4205h9.4204v-18.213h-49.339zm0 3.1401c-0.86354 0-1.6028-0.30747-2.2177-0.92241-0.61494-0.61494-0.92241-1.3542-0.92241-2.2177v-27.633c0-0.86355 0.30747-1.6028 0.92241-2.2177 0.61492-0.61494 1.3541-0.92241 2.2177-0.92241h49.339c0.86355 0 1.6028 0.30747 2.2177 0.92241 0.61493 0.61494 0.92239 1.3542 0.92239 2.2177v19.469l-11.305 11.305zm5.0243-13.817v-3.1401h6.1529v3.1401zm0-7.5364v-3.1401h5.7962v3.1401zm-5.0243 18.213v-27.633z"
         id="path11829" />
      <path
         d="m29.1 35.304v-3.1401h6.1529v3.1401zm0-7.5364v-3.1401h5.7962v3.1401z"
         id="path11831" />
      <path
         d="m39.77 35.283v-3.1401h6.1529v3.1401zm0-7.5364v-3.1401h5.7962v3.1401z"
         id="path11833" />
      <path
         d="m51.335 35.259v-3.1401h6.1529v3.1401zm0-7.5364v-3.1401h5.7962v3.1401z"
         id="path11835" />
      <path
         d="m28.977 42.168v-3.1401h6.1529v3.1401zm-9.9427 0v-3.1401h5.7962v3.1401z"
         id="path11837" />
      <path
         d="m50.226 42.168v-3.1401h6.1529v3.1401zm-9.9427 0v-3.1401h5.7962v3.1401z"
         id="path11839" />
    </g>
  </g>
  <g
     transform="translate(-.17093 .7522)"
     id="g11861">
    <g
       transform="matrix(.69499 0 0 .69499 -.24524 20.173)"
       stroke-width=".047102"
       id="g11859">
      <path
         d="m13.667 46.05h39.919v-9.4205h9.4204v-18.213h-49.339zm0 3.1401c-0.86354 0-1.6028-0.30747-2.2177-0.92241-0.61494-0.61494-0.92241-1.3542-0.92241-2.2177v-27.633c0-0.86355 0.30747-1.6028 0.92241-2.2177 0.61492-0.61494 1.3541-0.92241 2.2177-0.92241h49.339c0.86355 0 1.6028 0.30747 2.2177 0.92241 0.61493 0.61494 0.92239 1.3542 0.92239 2.2177v19.469l-11.305 11.305zm5.0243-13.817v-3.1401h6.1529v3.1401zm0-7.5364v-3.1401h5.7962v3.1401zm-5.0243 18.213v-27.633z"
         id="path11847" />
      <path
         d="m29.1 35.304v-3.1401h6.1529v3.1401zm0-7.5364v-3.1401h5.7962v3.1401z"
         id="path11849" />
      <path
         d="m39.77 35.283v-3.1401h6.1529v3.1401zm0-7.5364v-3.1401h5.7962v3.1401z"
         id="path11851" />
      <path
         d="m51.335 35.259v-3.1401h6.1529v3.1401zm0-7.5364v-3.1401h5.7962v3.1401z"
         id="path11853" />
      <path
         d="m28.977 42.168v-3.1401h6.1529v3.1401zm-9.9427 0v-3.1401h5.7962v3.1401z"
         id="path11855" />
      <path
         d="m50.226 42.168v-3.1401h6.1529v3.1401zm-9.9427 0v-3.1401h5.7962v3.1401z"
         id="path11857" />
    </g>
  </g>
  <path
     d="m87.11 23.796q-1.082-0.85658-2.3443-1.33-1.2623-0.47338-2.6148-0.47338-0.94675 0-1.8597 0.24796-0.91295 0.24796-1.747 0.6988-0.47338 0.24796-0.91293-0.02255-0.43958-0.2705-0.43958-0.78896v-10.865q0-0.24796 0.12391-0.47338 0.12391-0.22542 0.37194-0.33813 1.0369-0.541 2.164-0.8115 1.1271-0.2705 2.2993-0.2705 1.3074 0 2.5585 0.33813 1.2511 0.33812 2.4007 1.0144v11.241q1.1496-0.73637 2.412-1.1045 1.2623-0.36818 2.5472-0.36818 0.81149 0 1.7094 0.15027 0.89794 0.15029 1.747 0.57107v-11.196q0.26128 0.09391 0.51385 0.19724 0.25254 0.1033 0.493 0.23856 0.23292 0.12773 0.36443 0.34832 0.13148 0.22057 0.13148 0.46319v10.865q0 0.51846-0.43958 0.78896-0.43955 0.2705-0.91293 0.02255-0.83404-0.45084-1.747-0.6988-0.91293-0.24796-1.8597-0.24796-1.3525 0-2.6148 0.47338-1.2623 0.47338-2.3444 1.33zm1.5028-4.0124v-8.1601l5.41-5.41v8.8213zm-3.0056 1.4351v-9.5727q-0.75891-0.39074-1.7019-0.58234-0.94301-0.19161-1.7545-0.19161-0.98433 0-1.8559 0.20288-0.87161 0.20288-1.6005 0.5415v9.6023q0.78896-0.35314 1.6568-0.541 0.86787-0.18785 1.8071-0.18785 0.93924 0 1.7996 0.18785 0.86034 0.18787 1.6493 0.541zm0 0v-9.5727z"
     stroke-width=".022542"
     id="path11863" />
  <path
     d="m 50.995578,7.7041199 h 3.83901 v -1.343677 c 0,-0.552282 -0.18521,-1.015302 -0.55565,-1.389088 -0.37043,-0.373799 -0.82508,-0.560693 -1.36383,-0.560693 -0.53881,0 -0.99341,0.186894 -1.36384,0.560693 -0.37042,0.373798 -0.55564,0.836836 -0.55564,1.389088 z m 2.74795,8.4253511 h -4.66745 c -0.26603,0 -0.50091,-0.101872 -0.70462,-0.30561 -0.20374,-0.203732 -0.30561,-0.438617 -0.30561,-0.704623 V 8.7142929 c 0,-0.266036 0.10187,-0.500914 0.30561,-0.704622 0.20373,-0.203745 0.43861,-0.305611 0.70462,-0.305611 h 0.90924 v -1.343677 c 0,-0.825018 0.28372,-1.524662 0.85112,-2.098809 0.56744,-0.574166 1.26029,-0.861251 2.07859,-0.861251 0.8183,0 1.51122,0.28708 2.07859,0.861251 0.56743,0.574171 0.85112,1.273791 0.85112,2.098809 v 1.343677 h 0.90924 c 0.26603,0 0.50091,0.101866 0.70462,0.305611 0.20374,0.203726 0.30561,0.438604 0.30561,0.704622 v 1.141636 c -0.14818,-0.04043 -0.30225,-0.06903 -0.4622,-0.08586 -0.15995,-0.01686 -0.34264,-0.02526 -0.54806,-0.02526 v -1.030478 h -7.67789 v 6.4049461 h 4.11177 c 0.0741,0.19531 0.15156,0.367896 0.23238,0.517753 0.0808,0.14985 0.18858,0.314014 0.32327,0.492503 z m -4.66745,-7.4151481 v 6.4049461 z"
     stroke-width="0.0151542"
     id="path26-7-3" />
  <g
     transform="matrix(0.96143183,0,0,0.96143183,-30.313578,-48.383734)"
     id="g14-3-7">
    <g
       transform="matrix(0.00965946,0,0,0.00965946,80.69794,59.929452)"
       id="g58-6-7-4">
      <rect
         style="fill:#8dc351;fill-opacity:1;stroke-width:65.5953;stroke-linejoin:round;stroke-dashoffset:7.35"
         id="rect3960-5-5"
         width="1000.3549"
         height="963.93988"
         x="116.8631"
         y="-95.879837" />
      <g
         transform="matrix(0.04188,0,0,0.04188,75.616,54.993)"
         fill="#8dc351"
         id="g52-2-9-2">
        <path
           d="m 7525,15989 c -349,-23 -745,-74 -1074,-139 -1411,-279 -2741,-944 -3806,-1903 -103,-94 -479,-466 -575,-572 -245,-266 -540,-648 -754,-974 -84,-128 -216,-339 -216,-346 0,-2 -17,-32 -38,-66 -48,-80 -130,-233 -220,-414 C 359,10611 82,9566 10,8445 -3,8240 -3,7750 10,7545 113,5935 655,4458 1610,3185 c 239,-319 428,-535 744,-850 286,-286 436,-420 706,-632 C 4666,442 6732,-162 8765,35 c 1734,169 3354,891 4645,2071 632,577 1156,1241 1589,2014 64,113 231,450 301,605 345,767 574,1625 659,2470 32,311 41,496 41,810 0,808 -118,1588 -356,2359 -526,1697 -1613,3186 -3064,4197 -1216,848 -2616,1332 -4135,1429 -181,11 -740,11 -920,-1 z"
           id="path50-9-2-5" />
      </g>
      <g
         transform="matrix(0.0610117,0,0,0.0610117,-103.82847,-229.35015)"
         fill="#ffffff"
         id="g56-1-2-4">
        <path
           d="m 7751,13046 c -6,-17 -62,-222 -127,-456 -195,-713 -262,-951 -266,-956 -3,-2 -398,103 -879,234 -481,131 -875,238 -877,237 -3,-3 -112,-1041 -112,-1071 0,-17 8,-23 33,-28 75,-14 558,-147 627,-172 101,-38 181,-113 204,-193 28,-95 21,-155 -43,-390 -33,-119 -139,-504 -236,-856 -97,-352 -239,-867 -315,-1145 -76,-278 -193,-703 -260,-945 -67,-242 -142,-514 -166,-605 -25,-91 -57,-185 -72,-210 -44,-77 -110,-138 -190,-177 -67,-34 -84,-38 -171,-41 -134,-6 -233,16 -734,162 -81,23 -120,30 -122,22 -7,-20 -247,-901 -249,-910 0,-4 87,-33 194,-62 107,-30 499,-138 870,-241 371,-102 678,-189 682,-192 4,-3 -81,-323 -188,-711 -107,-388 -192,-710 -190,-715 2,-6 28,-17 57,-24 30,-8 222,-61 428,-117 206,-57 376,-103 377,-101 1,1 88,315 193,697 106,382 194,696 196,698 2,2 137,-35 302,-83 164,-48 318,-92 343,-100 35,-10 44,-17 42,-31 -2,-11 -87,-320 -188,-689 -101,-368 -184,-674 -184,-680 0,-9 858,-250 865,-243 2,2 91,322 198,711 107,389 196,710 199,712 2,3 42,-2 89,-10 416,-74 899,-94 1184,-51 672,104 1078,440 1283,1061 196,592 97,1085 -302,1499 l -73,76 h 118 c 828,0 1344,393 1564,1190 130,470 135,910 15,1273 -41,126 -137,313 -218,427 -145,205 -419,444 -699,612 -277,166 -754,378 -1083,483 -30,10 -58,20 -62,24 -4,3 71,290 166,636 96,347 185,671 198,721 l 25,91 -426,117 c -234,64 -431,116 -436,116 -6,0 -98,-318 -204,-707 -107,-390 -195,-709 -196,-710 -1,-2 -143,35 -316,81 -173,46 -329,87 -346,91 -18,3 -33,12 -33,18 0,11 16,68 259,952 71,259 128,471 126,473 -1,1 -196,56 -433,121 l -431,118 z m 442,-2762 c 928,-243 1429,-470 1733,-785 93,-98 132,-151 179,-252 54,-113 70,-186 69,-317 0,-211 -79,-419 -214,-563 -317,-339 -883,-384 -1824,-143 -226,58 -696,197 -696,207 0,4 117,433 260,953 143,520 260,948 260,951 0,10 22,5 233,-51 z M 7391,7495 c 657,-172 1015,-321 1295,-540 97,-76 161,-145 225,-243 60,-91 87,-161 107,-277 19,-113 7,-234 -39,-369 -102,-305 -310,-473 -660,-532 -82,-13 -140,-16 -298,-11 -227,6 -400,32 -681,103 -171,42 -609,170 -618,179 -4,4 126,484 431,1588 24,87 46,147 53,147 6,0 90,-20 185,-45 z"
           fill="#ffffff"
           id="path54-2-8-7" />
      </g>
    </g>
    <path
       d="m 89.015103,64.495 q 0.36768,0 0.63859,-0.27092 0.27092,-0.27092 0.27092,-0.64342 0,-0.37251 -0.27092,-0.63859 -0.27091,-0.26609 -0.63859,-0.26609 -0.36766,0 -0.63859,0.26609 -0.27092,0.26607 -0.27092,0.63859 0,0.3725 0.27092,0.64342 0.27092,0.27092 0.63859,0.27092 z m -6.6955,2.8349 v 0.51283 -8.5145 z m 0,1.4804 q -0.38218,0 -0.67486,-0.28784 -0.29269,-0.28784 -0.29269,-0.6797 v -8.5145 q 0,-0.38218 0.29269,-0.67485 0.29268,-0.29269 0.67486,-0.29269 h 8.5145 q 0.39186,0 0.6797,0.29269 0.28784,0.29267 0.28784,0.67485 v 1.7803 h -0.96754 v -1.7803 h -8.5145 v 8.5145 h 8.5145 v -1.7706 h 0.96754 v 1.7706 q 0,0.39186 -0.28784,0.6797 -0.28784,0.28784 -0.6797,0.28784 z m 5.0119,-2.4479 q -0.48861,0 -0.79581,-0.3072 -0.3072,-0.30719 -0.3072,-0.78613 v -3.3574 q 0,-0.48862 0.3072,-0.79097 0.3072,-0.30236 0.79581,-0.30236 h 3.967 q 0.48862,0 0.79582,0.30236 0.30719,0.30236 0.30719,0.79097 v 3.3574 q 0,0.47894 -0.30719,0.78613 -0.3072,0.3072 -0.79582,0.3072 z m 4.1024,-0.96754 v -3.609 h -4.2379 v 3.609 z"
       stroke-width="0.014513"
       id="path12-9-4" />
  </g>
  <path
     d="m 52.874018,22.213357 q -0.35459,0 -0.60756,-0.252994 -0.25299,-0.252977 -0.25299,-0.607562 0,-0.354584 0.25299,-0.607561 0.25298,-0.252994 0.60756,-0.252994 0.35458,0 0.60756,0.252994 0.25299,0.252983 0.25299,0.607561 0,0.354591 -0.25299,0.607562 -0.25299,0.252994 -0.60756,0.252994 z m 0,2.007987 q -1.19521,0 -2.03192,-0.836656 -0.83666,-0.836656 -0.83666,-2.031863 0,-1.195206 0.83666,-2.031862 0.83665,-0.836656 2.03192,-0.836656 0.84062,0 1.48807,0.402389 0.64739,0.402389 1.0219,1.167372 h 4.23907 l 1.37847,1.37847 -2.04782,1.936241 -1.01992,-0.749014 -1.01992,0.749014 -0.93624,-0.71716 h -0.59363 q -0.32669,0.693225 -0.97013,1.131499 -0.64344,0.438256 -1.53984,0.438256 z m 0,-0.796824 q 0.68525,0 1.245,-0.442233 0.55975,-0.442234 0.72705,-1.12748 h 1.40637 l 0.66131,0.521922 1.0279,-0.745054 0.9363,0.71314 0.97612,-0.928318 -0.56575,-0.565731 h -4.44225 q -0.1514,-0.653392 -0.70318,-1.111583 -0.55181,-0.458178 -1.26894,-0.458178 -0.86059,0 -1.46617,0.605581 -0.60558,0.605582 -0.60558,1.466113 0,0.860592 0.60558,1.466173 0.60558,0.605582 1.46617,0.605582 z"
     stroke-width="0.0119521"
     id="path5695-4" />
  <path
     d="m 51.266777,35.622332 h 3.83901 v -1.343677 c 0,-0.552282 -0.18521,-1.015302 -0.55565,-1.389088 -0.37043,-0.373799 -0.82508,-0.560693 -1.36383,-0.560693 -0.53881,0 -0.99341,0.186894 -1.36384,0.560693 -0.37042,0.373798 -0.55564,0.836836 -0.55564,1.389088 z m 2.74795,8.425351 h -4.66745 c -0.26603,0 -0.50091,-0.101872 -0.70462,-0.30561 -0.20374,-0.203732 -0.30561,-0.438617 -0.30561,-0.704623 v -6.404945 c 0,-0.266036 0.10187,-0.500914 0.30561,-0.704622 0.20373,-0.203745 0.43861,-0.305611 0.70462,-0.305611 h 0.90924 v -1.343677 c 0,-0.825018 0.28372,-1.524662 0.85112,-2.098809 0.56744,-0.574166 1.26029,-0.861251 2.07859,-0.861251 0.8183,0 1.51122,0.28708 2.07859,0.861251 0.56743,0.574171 0.85112,1.273791 0.85112,2.098809 v 1.343677 h 0.90924 c 0.26603,0 0.50091,0.101866 0.70462,0.305611 0.20374,0.203726 0.30561,0.438604 0.30561,0.704622 v 1.141636 c -0.14818,-0.04043 -0.30225,-0.06903 -0.4622,-0.08586 -0.15995,-0.01686 -0.34264,-0.02526 -0.54806,-0.02526 v -1.030478 h -7.67789 v 6.404946 h 4.11177 c 0.0741,0.19531 0.15156,0.367896 0.23238,0.517753 0.0808,0.14985 0.18858,0.314014 0.32327,0.492503 z m -4.66745,-7.415148 v 6.404946 z"
     stroke-width="0.0151542"
     id="path26-7-3-3" />
  <g
     transform="matrix(0.96143183,0,0,0.96143183,-30.042379,-20.465521)"
     id="g14-3-7-0">
    <g
       transform="matrix(0.00965946,0,0,0.00965946,80.69794,59.929452)"
       id="g58-6-7-4-7">
      <rect
         style="fill:#8dc351;fill-opacity:1;stroke-width:65.5953;stroke-linejoin:round;stroke-dashoffset:7.35"
         id="rect3960-5-5-8"
         width="1000.3549"
         height="963.93988"
         x="116.8631"
         y="-95.879837" />
      <g
         transform="matrix(0.04188,0,0,0.04188,75.616,54.993)"
         fill="#8dc351"
         id="g52-2-9-2-6">
        <path
           d="m 7525,15989 c -349,-23 -745,-74 -1074,-139 -1411,-279 -2741,-944 -3806,-1903 -103,-94 -479,-466 -575,-572 -245,-266 -540,-648 -754,-974 -84,-128 -216,-339 -216,-346 0,-2 -17,-32 -38,-66 -48,-80 -130,-233 -220,-414 C 359,10611 82,9566 10,8445 -3,8240 -3,7750 10,7545 113,5935 655,4458 1610,3185 c 239,-319 428,-535 744,-850 286,-286 436,-420 706,-632 C 4666,442 6732,-162 8765,35 c 1734,169 3354,891 4645,2071 632,577 1156,1241 1589,2014 64,113 231,450 301,605 345,767 574,1625 659,2470 32,311 41,496 41,810 0,808 -118,1588 -356,2359 -526,1697 -1613,3186 -3064,4197 -1216,848 -2616,1332 -4135,1429 -181,11 -740,11 -920,-1 z"
           id="path50-9-2-5-8" />
      </g>
      <g
         transform="matrix(0.0610117,0,0,0.0610117,-103.82847,-229.35015)"
         fill="#ffffff"
         id="g56-1-2-4-8">
        <path
           d="m 7751,13046 c -6,-17 -62,-222 -127,-456 -195,-713 -262,-951 -266,-956 -3,-2 -398,103 -879,234 -481,131 -875,238 -877,237 -3,-3 -112,-1041 -112,-1071 0,-17 8,-23 33,-28 75,-14 558,-147 627,-172 101,-38 181,-113 204,-193 28,-95 21,-155 -43,-390 -33,-119 -139,-504 -236,-856 -97,-352 -239,-867 -315,-1145 -76,-278 -193,-703 -260,-945 -67,-242 -142,-514 -166,-605 -25,-91 -57,-185 -72,-210 -44,-77 -110,-138 -190,-177 -67,-34 -84,-38 -171,-41 -134,-6 -233,16 -734,162 -81,23 -120,30 -122,22 -7,-20 -247,-901 -249,-910 0,-4 87,-33 194,-62 107,-30 499,-138 870,-241 371,-102 678,-189 682,-192 4,-3 -81,-323 -188,-711 -107,-388 -192,-710 -190,-715 2,-6 28,-17 57,-24 30,-8 222,-61 428,-117 206,-57 376,-103 377,-101 1,1 88,315 193,697 106,382 194,696 196,698 2,2 137,-35 302,-83 164,-48 318,-92 343,-100 35,-10 44,-17 42,-31 -2,-11 -87,-320 -188,-689 -101,-368 -184,-674 -184,-680 0,-9 858,-250 865,-243 2,2 91,322 198,711 107,389 196,710 199,712 2,3 42,-2 89,-10 416,-74 899,-94 1184,-51 672,104 1078,440 1283,1061 196,592 97,1085 -302,1499 l -73,76 h 118 c 828,0 1344,393 1564,1190 130,470 135,910 15,1273 -41,126 -137,313 -218,427 -145,205 -419,444 -699,612 -277,166 -754,378 -1083,483 -30,10 -58,20 -62,24 -4,3 71,290 166,636 96,347 185,671 198,721 l 25,91 -426,117 c -234,64 -431,116 -436,116 -6,0 -98,-318 -204,-707 -107,-390 -195,-709 -196,-710 -1,-2 -143,35 -316,81 -173,46 -329,87 -346,91 -18,3 -33,12 -33,18 0,11 16,68 259,952 71,259 128,471 126,473 -1,1 -196,56 -433,121 l -431,118 z m 442,-2762 c 928,-243 1429,-470 1733,-785 93,-98 132,-151 179,-252 54,-113 70,-186 69,-317 0,-211 -79,-419 -214,-563 -317,-339 -883,-384 -1824,-143 -226,58 -696,197 -696,207 0,4 117,433 260,953 143,520 260,948 260,951 0,10 22,5 233,-51 z M 7391,7495 c 657,-172 1015,-321 1295,-540 97,-76 161,-145 225,-243 60,-91 87,-161 107,-277 19,-113 7,-234 -39,-369 -102,-305 -310,-473 -660,-532 -82,-13 -140,-16 -298,-11 -227,6 -400,32 -681,103 -171,42 -609,170 -618,179 -4,4 126,484 431,1588 24,87 46,147 53,147 6,0 90,-20 185,-45 z"
           fill="#ffffff"
           id="path54-2-8-7-4" />
      </g>
    </g>
    <path
       d="m 89.015103,64.495 q 0.36768,0 0.63859,-0.27092 0.27092,-0.27092 0.27092,-0.64342 0,-0.37251 -0.27092,-0.63859 -0.27091,-0.26609 -0.63859,-0.26609 -0.36766,0 -0.63859,0.26609 -0.27092,0.26607 -0.27092,0.63859 0,0.3725 0.27092,0.64342 0.27092,0.27092 0.63859,0.27092 z m -6.6955,2.8349 v 0.51283 -8.5145 z m 0,1.4804 q -0.38218,0 -0.67486,-0.28784 -0.29269,-0.28784 -0.29269,-0.6797 v -8.5145 q 0,-0.38218 0.29269,-0.67485 0.29268,-0.29269 0.67486,-0.29269 h 8.5145 q 0.39186,0 0.6797,0.29269 0.28784,0.29267 0.28784,0.67485 v 1.7803 h -0.96754 v -1.7803 h -8.5145 v 8.5145 h 8.5145 v -1.7706 h 0.96754 v 1.7706 q 0,0.39186 -0.28784,0.6797 -0.28784,0.28784 -0.6797,0.28784 z m 5.0119,-2.4479 q -0.48861,0 -0.79581,-0.3072 -0.3072,-0.30719 -0.3072,-0.78613 v -3.3574 q 0,-0.48862 0.3072,-0.79097 0.3072,-0.30236 0.79581,-0.30236 h 3.967 q 0.48862,0 0.79582,0.30236 0.30719,0.30236 0.30719,0.79097 v 3.3574 q 0,0.47894 -0.30719,0.78613 -0.3072,0.3072 -0.79582,0.3072 z m 4.1024,-0.96754 v -3.609 h -4.2379 v 3.609 z"
       stroke-width="0.014513"
       id="path12-9-4-3" />
  </g>
  <path
     d="m 53.145217,50.131569 q -0.35459,0 -0.60756,-0.252994 -0.25299,-0.252977 -0.25299,-0.607562 0,-0.354584 0.25299,-0.607561 0.25298,-0.252994 0.60756,-0.252994 0.35458,0 0.60756,0.252994 0.25299,0.252983 0.25299,0.607561 0,0.354591 -0.25299,0.607562 -0.25299,0.252994 -0.60756,0.252994 z m 0,2.007988 q -1.19521,0 -2.03192,-0.836656 -0.83666,-0.836657 -0.83666,-2.031864 0,-1.195206 0.83666,-2.031862 0.83665,-0.836656 2.03192,-0.836656 0.84062,0 1.48807,0.402389 0.64739,0.402389 1.0219,1.167372 h 4.23907 l 1.37847,1.37847 -2.04782,1.936242 -1.01992,-0.749015 -1.01992,0.749015 -0.93624,-0.717161 h -0.59363 q -0.32669,0.693226 -0.97013,1.1315 -0.64344,0.438256 -1.53984,0.438256 z m 0,-0.796824 q 0.68525,0 1.245,-0.442234 0.55975,-0.442234 0.72705,-1.12748 h 1.40637 l 0.66131,0.521922 1.0279,-0.745054 0.9363,0.71314 0.97612,-0.928318 -0.56575,-0.565731 h -4.44225 q -0.1514,-0.653392 -0.70318,-1.111583 -0.55181,-0.458178 -1.26894,-0.458178 -0.86059,0 -1.46617,0.605581 -0.60558,0.605582 -0.60558,1.466113 0,0.860592 0.60558,1.466173 0.60558,0.605583 1.46617,0.605583 z"
     stroke-width="0.0119521"
     id="path5695-4-1" />
</svg>
