<svg width="400" height="400" version="1.1" viewBox="0 0 105.83 105.83" xmlns="http://www.w3.org/2000/svg">
 <rect width="105.49" height="105.49" ry=".13328" fill="#fff"/>
 <g stroke-width=".025262">
  <path d="m82.373 51.914h7.8143l1.1452-4.5471h-10.105zm0 1.6841q-0.57259 0-1.0237-0.35434-0.4511-0.35435-0.60144-0.91715l-1.2547-4.9597h13.574l-1.2547 4.9597q-0.15036 0.5628-0.60145 0.91715-0.4511 0.35434-1.0237 0.35434zm-3.5029-7.9153h14.82v-2.3578h-14.82zm7.4101-6.248q0.0842-2.3072 1.903-4.1345 1.8188-1.8273 4.1429-1.9114-0.0505 2.122-1.6083 3.8482-1.5578 1.7262-3.5956 2.0967v2.3072h8.2521v4.0418q0 0.69467-0.4947 1.1894t-1.1894 0.4947h-14.82q-0.69469 0-1.1894-0.4947t-0.4947-1.1894v-4.0418h8.2521v-2.3072q-2.0378-0.37048-3.5872-2.0967-1.5494-1.7262-1.6167-3.8482 2.324 0.0841 4.1513 1.903 1.8272 1.8189 1.8946 4.1429z"/>
  <path d="m72.231 54.97-1.1789-1.2042 2.7872-2.8209h-8.7826v-1.7178h8.7826l-2.7872-2.8125 1.1789-1.1957 4.8502 4.8671z"/>
  <path d="m71.656 13.64-1.1789-1.2042 2.7872-2.8209h-8.7826v-1.7178h8.7826l-2.7872-2.8125 1.1789-1.1957 4.8502 4.8671z"/>
 </g>
 <path d="m53.361 64.827q-1.4061 0-2.3965-0.99396-0.99039-0.99396-0.99039-2.4001t0.99396-2.3965q0.99396-0.99038 2.4001-0.99038t2.3965 0.99396q0.99036 0.99402 0.99036 2.4001 0 1.4061-0.99396 2.3965-0.99396 0.99037-2.4001 0.99037zm-3.5653 27.481v-9.2792h-3.9615l4.7288-13.401q0.32117-0.85654 1.0841-1.4008 0.76291-0.54428 1.722-0.54428 0.95911 0 1.7175 0.54428 0.7584 0.54422 1.0796 1.4008l4.7288 13.401h-3.9615v9.2792z" stroke-width=".053534"/>
 <path d="m52.751 11.293q-0.4108 0-0.70389-0.29311-0.2931-0.29309-0.2931-0.70389 0-0.4108 0.2931-0.70389 0.29309-0.2931 0.70389-0.2931 0.41081 0 0.7039 0.2931 0.29309 0.29309 0.29309 0.70389 0 0.4108-0.29309 0.70389-0.29309 0.29311-0.7039 0.29311zm0 2.3263q-1.3847 0-2.354-0.9693-0.9693-0.9693-0.9693-2.354 0-1.3847 0.9693-2.354 0.9693-0.9693 2.354-0.9693 0.9739 0 1.724 0.46619 0.75007 0.46618 1.1839 1.3524h4.9111l1.597 1.597-2.3725 2.2432-1.1816-0.86774-1.1816 0.86774-1.0847-0.83083h-0.68775q-0.37849 0.80313-1.1239 1.3109-0.74545 0.50774-1.784 0.50774zm0-0.92314q0.79389 0 1.4424-0.51234 0.6485-0.51235 0.84236-1.3063h1.6294l0.76619 0.60466 1.1908-0.86315 1.0847 0.82622 1.1309-1.0755-0.65545-0.65542h-5.1465q-0.1754-0.75698-0.81467-1.2878-0.63928-0.53082-1.4701-0.53082-0.99699 0-1.6986 0.70159-0.70159 0.70159-0.70159 1.6986 0 0.997 0.70159 1.6986 0.7016 0.70159 1.6986 0.70159z" stroke-width=".013847"/>
 <g transform="translate(-.17093 -.17093)">
  <g transform="matrix(.69499 0 0 .69499 -.24524 -6.6107)" stroke-width=".047102">
   <path d="m13.667 46.05h39.919v-9.4205h9.4204v-18.213h-49.339zm0 3.1401c-0.86354 0-1.6028-0.30747-2.2177-0.92241-0.61494-0.61494-0.92241-1.3542-0.92241-2.2177v-27.633c0-0.86355 0.30747-1.6028 0.92241-2.2177 0.61492-0.61494 1.3541-0.92241 2.2177-0.92241h49.339c0.86355 0 1.6028 0.30747 2.2177 0.92241 0.61493 0.61494 0.92239 1.3542 0.92239 2.2177v19.469l-11.305 11.305zm5.0243-13.817v-3.1401h6.1529v3.1401zm0-7.5364v-3.1401h5.7962v3.1401zm-5.0243 18.213v-27.633z"/>
   <path d="m29.1 35.304v-3.1401h6.1529v3.1401zm0-7.5364v-3.1401h5.7962v3.1401z"/>
   <path d="m39.77 35.283v-3.1401h6.1529v3.1401zm0-7.5364v-3.1401h5.7962v3.1401z"/>
   <path d="m51.335 35.259v-3.1401h6.1529v3.1401zm0-7.5364v-3.1401h5.7962v3.1401z"/>
   <path d="m28.977 42.168v-3.1401h6.1529v3.1401zm-9.9427 0v-3.1401h5.7962v3.1401z"/>
   <path d="m50.226 42.168v-3.1401h6.1529v3.1401zm-9.9427 0v-3.1401h5.7962v3.1401z"/>
  </g>
 </g>
 <path d="m52.751 39q-0.4108 0-0.70389-0.29311-0.2931-0.29309-0.2931-0.70389 0-0.4108 0.2931-0.70389 0.29309-0.2931 0.70389-0.2931 0.41081 0 0.7039 0.2931 0.29309 0.29309 0.29309 0.70389 0 0.4108-0.29309 0.70389-0.29309 0.29311-0.7039 0.29311zm0 2.3263q-1.3847 0-2.354-0.9693-0.9693-0.9693-0.9693-2.354 0-1.3847 0.9693-2.354 0.9693-0.9693 2.354-0.9693 0.9739 0 1.724 0.46619 0.75007 0.46618 1.1839 1.3524h4.9111l1.597 1.597-2.3725 2.2432-1.1816-0.86774-1.1816 0.86774-1.0847-0.83083h-0.68775q-0.37849 0.80313-1.1239 1.3109-0.74545 0.50774-1.784 0.50774zm0-0.92314q0.79389 0 1.4424-0.51234 0.6485-0.51235 0.84236-1.3063h1.6294l0.76619 0.60466 1.1908-0.86315 1.0847 0.82622 1.1309-1.0755-0.65545-0.65542h-5.1465q-0.1754-0.75698-0.81467-1.2878-0.63928-0.53082-1.4701-0.53082-0.99699 0-1.6986 0.70159-0.70159 0.70159-0.70159 1.6986 0 0.997 0.70159 1.6986 0.7016 0.70159 1.6986 0.70159z" stroke-width=".013847"/>
 <g transform="translate(-.17093 .7522)">
  <g transform="matrix(.69499 0 0 .69499 -.24524 20.173)" stroke-width=".047102">
   <path d="m13.667 46.05h39.919v-9.4205h9.4204v-18.213h-49.339zm0 3.1401c-0.86354 0-1.6028-0.30747-2.2177-0.92241-0.61494-0.61494-0.92241-1.3542-0.92241-2.2177v-27.633c0-0.86355 0.30747-1.6028 0.92241-2.2177 0.61492-0.61494 1.3541-0.92241 2.2177-0.92241h49.339c0.86355 0 1.6028 0.30747 2.2177 0.92241 0.61493 0.61494 0.92239 1.3542 0.92239 2.2177v19.469l-11.305 11.305zm5.0243-13.817v-3.1401h6.1529v3.1401zm0-7.5364v-3.1401h5.7962v3.1401zm-5.0243 18.213v-27.633z"/>
   <path d="m29.1 35.304v-3.1401h6.1529v3.1401zm0-7.5364v-3.1401h5.7962v3.1401z"/>
   <path d="m39.77 35.283v-3.1401h6.1529v3.1401zm0-7.5364v-3.1401h5.7962v3.1401z"/>
   <path d="m51.335 35.259v-3.1401h6.1529v3.1401zm0-7.5364v-3.1401h5.7962v3.1401z"/>
   <path d="m28.977 42.168v-3.1401h6.1529v3.1401zm-9.9427 0v-3.1401h5.7962v3.1401z"/>
   <path d="m50.226 42.168v-3.1401h6.1529v3.1401zm-9.9427 0v-3.1401h5.7962v3.1401z"/>
  </g>
 </g>
 <path d="m87.11 23.796q-1.082-0.85658-2.3443-1.33-1.2623-0.47338-2.6148-0.47338-0.94675 0-1.8597 0.24796-0.91295 0.24796-1.747 0.6988-0.47338 0.24796-0.91293-0.02255-0.43958-0.2705-0.43958-0.78896v-10.865q0-0.24796 0.12391-0.47338 0.12391-0.22542 0.37194-0.33813 1.0369-0.541 2.164-0.8115 1.1271-0.2705 2.2993-0.2705 1.3074 0 2.5585 0.33813 1.2511 0.33812 2.4007 1.0144v11.241q1.1496-0.73637 2.412-1.1045 1.2623-0.36818 2.5472-0.36818 0.81149 0 1.7094 0.15027 0.89794 0.15029 1.747 0.57107v-11.196q0.26128 0.09391 0.51385 0.19724 0.25254 0.1033 0.493 0.23856 0.23292 0.12773 0.36443 0.34832 0.13148 0.22057 0.13148 0.46319v10.865q0 0.51846-0.43958 0.78896-0.43955 0.2705-0.91293 0.02255-0.83404-0.45084-1.747-0.6988-0.91293-0.24796-1.8597-0.24796-1.3525 0-2.6148 0.47338-1.2623 0.47338-2.3444 1.33zm1.5028-4.0124v-8.1601l5.41-5.41v8.8213zm-3.0056 1.4351v-9.5727q-0.75891-0.39074-1.7019-0.58234-0.94301-0.19161-1.7545-0.19161-0.98433 0-1.8559 0.20288-0.87161 0.20288-1.6005 0.5415v9.6023q0.78896-0.35314 1.6568-0.541 0.86787-0.18785 1.8071-0.18785 0.93924 0 1.7996 0.18785 0.86034 0.18787 1.6493 0.541zm0 0v-9.5727z" stroke-width=".022542"/>
</svg>
