<?xml version="1.0" encoding="UTF-8" standalone="no"?>
<svg
   xmlns:dc="http://purl.org/dc/elements/1.1/"
   xmlns:cc="http://creativecommons.org/ns#"
   xmlns:rdf="http://www.w3.org/1999/02/22-rdf-syntax-ns#"
   xmlns:svg="http://www.w3.org/2000/svg"
   xmlns="http://www.w3.org/2000/svg"
   xmlns:sodipodi="http://sodipodi.sourceforge.net/DTD/sodipodi-0.dtd"
   xmlns:inkscape="http://www.inkscape.org/namespaces/inkscape"
   width="400"
   height="400"
   version="1.1"
   viewBox="0 0 105.83 105.83"
   id="svg60"
   sodipodi:docname="06.svg"
   inkscape:version="1.0.2 (e86c870879, 2021-01-15)">
  <metadata
     id="metadata66">
    <rdf:RDF>
      <cc:Work
         rdf:about="">
        <dc:format>image/svg+xml</dc:format>
        <dc:type
           rdf:resource="http://purl.org/dc/dcmitype/StillImage" />
        <dc:title></dc:title>
      </cc:Work>
    </rdf:RDF>
  </metadata>
  <defs
     id="defs64">
    <rect
       x="-22.063737"
       y="57.390076"
       width="31.787263"
       height="27.101374"
       id="rect1030" />
  </defs>
  <sodipodi:namedview
     pagecolor="#ffffff"
     bordercolor="#666666"
     borderopacity="1"
     objecttolerance="10"
     gridtolerance="10"
     guidetolerance="10"
     inkscape:pageopacity="0"
     inkscape:pageshadow="2"
     inkscape:window-width="1578"
     inkscape:window-height="989"
     id="namedview62"
     showgrid="false"
     inkscape:zoom="1.3729525"
     inkscape:cx="38.855169"
     inkscape:cy="253.96521"
     inkscape:window-x="0"
     inkscape:window-y="0"
     inkscape:window-maximized="0"
     inkscape:current-layer="svg60" />
  <rect
     width="105.49001"
     height="105.49"
     ry="0.13327999"
     fill="#ffffff"
     id="rect2"
     x="0"
     y="0"
     style="stroke-width:1" />
  <path
     d="m 41.180652,92.772308 h 5.463153 l 0.800635,-3.17898 h -7.064632 z m 0,1.177392 c -0.266869,0 -0.505437,-0.08258 -0.715691,-0.247727 -0.210247,-0.165161 -0.350407,-0.378889 -0.420481,-0.6412 l -0.877188,-3.467438 h 9.489888 l -0.877189,3.467438 c -0.07008,0.262311 -0.21024,0.476039 -0.420487,0.6412 C 47.149257,93.86712 46.910695,93.9497 46.643812,93.9497 Z M 38.731696,88.415936 H 49.092691 V 86.767545 H 38.731696 Z m 5.769229,-2.825713 h 5.769229 v 2.825713 c 0,0.32377 -0.115286,0.600945 -0.345856,0.831536 -0.230571,0.230592 -0.507745,0.345856 -0.831537,0.345856 H 38.731766 c -0.323777,0 -0.600959,-0.115285 -0.831536,-0.345856 -0.230578,-0.230571 -0.345856,-0.507745 -0.345856,-0.831536 v -2.825713 h 5.769229 c 0.165859,-5.391983 0,0 1.177392,0 z"
     stroke-width="0.0176612"
     id="path10" />
  <g
     transform="matrix(0.75619517,0,0,0.75619517,2.7263104,45.035236)"
     id="g16">
    <g
       transform="matrix(0.69499,0,0,0.69499,-0.24524,20.173)"
       id="g14">
      <path
         d="m 13.667,46.05 h 39.919 v -9.4205 h 9.4204 v -18.213 h -49.339 z m 0,3.1401 c -0.86354,0 -1.6028,-0.30747 -2.2177,-0.92241 -0.61494,-0.61494 -0.92241,-1.3542 -0.92241,-2.2177 v -27.633 c 0,-0.86355 0.30747,-1.6028 0.92241,-2.2177 0.61492,-0.61494 1.3541,-0.92241 2.2177,-0.92241 h 49.339 c 0.86355,0 1.6028,0.30747 2.2177,0.92241 0.61493,0.61494 0.92239,1.3542 0.92239,2.2177 v 19.469 l -11.305,11.305 z m 0,-3.1401 V 18.417 Z"
         stroke-width="0.047102"
         id="path12" />
    </g>
  </g>
  <path
     d="M 11.082253,100.05122 C 10.51279,99.600403 9.8958664,99.250403 9.2314644,99.001253 c -0.664363,-0.24914 -1.352488,-0.3737 -2.064257,-0.3737 -0.498278,0 -0.987683,0.0653 -1.468143,0.19574 -0.480484,0.1305 -0.940236,0.31439 -1.379171,0.55167 -0.249143,0.1305 -0.489381,0.12455 -0.720722,-0.0178 -0.231349,-0.14237 -0.347019,-0.34998 -0.347019,-0.62285 v -8.577384 c 0,-0.130497 0.0326,-0.255064 0.09782,-0.373703 0.06522,-0.118639 0.163085,-0.207618 0.293621,-0.266937 0.545739,-0.284732 1.115178,-0.498278 1.708372,-0.64064 0.593186,-0.14237 1.198229,-0.213546 1.815185,-0.213546 0.688094,0 1.36133,0.08897 2.019811,0.266929 0.658482,0.177958 1.2902006,0.444895 1.8952356,0.800819 v 8.874222 c 0.605051,-0.387559 1.239754,-0.678229 1.904156,-0.872029 0.664371,-0.19377 1.334647,-0.29065 2.010891,-0.29065 0.427093,0 0.876922,0.0395 1.349488,0.11862 0.472597,0.0791 0.932342,0.22938 1.379171,0.45084 v -8.838695 c 0.137514,0.04942 0.272732,0.101334 0.405652,0.155711 0.13292,0.05439 0.262658,0.117147 0.389207,0.188332 0.122586,0.06726 0.218481,0.158885 0.2877,0.274974 0.06923,0.116089 0.103797,0.23798 0.103797,0.365666 v 8.577391 c 0,0.27286 -0.115671,0.48047 -0.347027,0.62284 -0.231341,0.14237 -0.471579,0.14832 -0.720714,0.0178 -0.438959,-0.23727 -0.898711,-0.42116 -1.379171,-0.55166 -0.480476,-0.1305 -0.969841,-0.19575 -1.468143,-0.19575 -0.711824,0 -1.399934,0.12457 -2.064257,0.37371 -0.664363,0.24914 -1.281279,0.59912 -1.850711,1.049967 z M 9.8958664,98.016574 v -7.557263 c -0.399407,-0.205644 -0.847239,-0.358884 -1.343567,-0.459729 -0.496305,-0.100844 -0.957999,-0.151266 -1.385092,-0.151266 -0.518062,0 -1.006472,0.05337 -1.465143,0.160164 -0.458726,0.106773 -0.879922,0.249269 -1.263517,0.42748 v 7.580544 c 0.415228,-0.18586 0.851187,-0.32822 1.307963,-0.42709 0.456753,-0.0989 0.932263,-0.1483 1.426617,-0.1483 0.494331,0 0.967868,0.0494 1.420697,0.1483 0.452798,0.0989 0.886791,0.24124 1.302042,0.42709 z m 0,0 v -7.557263 z"
     stroke-width="0.0177958"
     id="path18" />
  <g
     transform="matrix(1.7470163,0,0,1.7470163,38.142622,-35.165922)"
     style="white-space:pre;shape-inside:url(#rect26719)"
     aria-label="0"
     id="g36">
    <path
       d="m 28.011,60.086 q -0.80615,0 -1.2144,0.79582 -0.40308,0.79065 -0.40308,2.3823 0,1.5865 0.40308,2.3823 0.40824,0.79065 1.2144,0.79065 0.81132,0 1.2144,-0.79065 0.40824,-0.79582 0.40824,-2.3823 0,-1.5916 -0.40824,-2.3823 Q 28.82232,60.086 28.011,60.086 Z m 0,-0.82682 q 1.2971,0 1.9792,1.0284 0.6873,1.0232 0.6873,2.9766 0,1.9482 -0.6873,2.9766 -0.68213,1.0232 -1.9792,1.0232 -1.2971,0 -1.9844,-1.0232 -0.68213,-1.0284 -0.68213,-2.9766 0,-1.9534 0.68213,-2.9766 0.68729,-1.0284 1.9844,-1.0284 z"
       id="path34" />
  </g>
  <g
     transform="matrix(0.22754,-0.24832,0.24832,0.22754,13.816071,92.774823)"
     id="g54">
    <g
       transform="matrix(0.69499,0,0,0.69499,-0.24524,20.173)"
       id="g52">
      <path
         d="m 13.667,46.05 h 39.919 v -9.4205 h 9.4204 v -18.213 h -49.339 z m 0,3.1401 c -0.86354,0 -1.6028,-0.30747 -2.2177,-0.92241 -0.61494,-0.61494 -0.92241,-1.3542 -0.92241,-2.2177 v -27.633 c 0,-0.86355 0.30747,-1.6028 0.92241,-2.2177 0.61492,-0.61494 1.3541,-0.92241 2.2177,-0.92241 h 49.339 c 0.86355,0 1.6028,0.30747 2.2177,0.92241 0.61493,0.61494 0.92239,1.3542 0.92239,2.2177 v 19.469 l -11.305,11.305 z m 0,-3.1401 V 18.417 Z"
         id="path50" />
    </g>
  </g>
  <g
     stroke-width="0.047102"
     id="g22"
     transform="matrix(0.57426153,0,0,0.57426153,-2.1683851,7.4564998)">
    <path
       d="m 12.833,45.923 h 39.919 v -9.4205 h 9.4204 v -18.213 h -49.339 z m 0,3.1401 c -0.86354,0 -1.6028,-0.30747 -2.2177,-0.92241 -0.61494,-0.61494 -0.92241,-1.3542 -0.92241,-2.2177 v -27.633 c 0,-0.86355 0.30747,-1.6028 0.92241,-2.2177 0.61492,-0.61494 1.3541,-0.92241 2.2177,-0.92241 h 49.339 c 0.86356,0 1.6028,0.30747 2.2177,0.92241 0.61492,0.61494 0.92239,1.3542 0.92239,2.2177 v 19.469 l -11.305,11.305 z m 5.0243,-13.817 V 32.106 h 6.1529 v 3.1401 z m 0,-7.5364 v -3.1401 h 5.7962 v 3.1401 z m -5.0243,18.213 v -27.633 z"
       id="path10-3" />
    <path
       d="m 28.266,35.177 v -3.1401 h 6.1529 v 3.1401 z m 0,-7.5364 v -3.1401 h 5.7962 v 3.1401 z"
       id="path12-6" />
    <path
       d="m 38.936,35.156 v -3.1401 h 6.1529 v 3.1401 z m 0,-7.5364 v -3.1401 h 5.7962 v 3.1401 z"
       id="path14" />
    <path
       d="m 50.501,35.132 v -3.1401 h 6.1529 v 3.1401 z m 0,-7.5364 v -3.1401 h 5.7962 v 3.1401 z"
       id="path16" />
    <path
       d="m 28.143,42.041 v -3.1401 h 6.1529 v 3.1401 z m -9.9427,0 v -3.1401 h 5.7962 v 3.1401 z"
       id="path18-7" />
    <path
       d="m 49.391,42.041 v -3.1401 h 6.1529 v 3.1401 z m -9.9426,0 v -3.1401 h 5.7962 v 3.1401 z"
       id="path20" />
  </g>
  <path
     d="m 65.459854,31.681769 q -0.4372,0 -0.749117,-0.311941 -0.311925,-0.311908 -0.311925,-0.749109 0,-0.437184 0.311925,-0.749109 0.311917,-0.311932 0.749117,-0.311932 0.437192,0 0.749109,0.311932 0.311932,0.311916 0.311932,0.749109 0,0.437201 -0.311932,0.749109 -0.311917,0.311941 -0.749109,0.311941 z m 0,2.47577 q -1.473701,0 -2.505214,-1.031591 -1.031511,-1.031591 -1.03159,-2.505213 0,-1.473701 1.03159,-2.505214 1.031591,-1.031511 2.505214,-1.03159 1.036485,0 1.834746,0.496132 0.798261,0.496134 1.259948,1.439286 h 5.226627 l 1.699611,1.699612 -2.524868,2.387365 -1.25758,-0.923532 -1.2575,0.923532 -1.154334,-0.884223 h -0.731941 q -0.402801,0.8547 -1.196089,1.395084 -0.793289,0.540352 -1.898605,0.540352 z m 0,-0.982415 q 0.844911,0 1.535112,-0.545262 0.690161,-0.545253 0.896455,-1.390189 h 1.734026 l 0.815391,0.643512 1.267367,-0.918636 1.154413,0.879326 1.20351,-1.144545 -0.697558,-0.697534 h -5.477165 q -0.186663,-0.805603 -0.867012,-1.370535 -0.68035,-0.564924 -1.564555,-0.564924 -1.061033,0 -1.807672,0.74667 -0.746669,0.746655 -0.746669,1.807672 0,1.061033 0.746669,1.807752 0.746662,0.746662 1.807672,0.746662 z"
     stroke-width="0.0147371"
     id="path24" />
  <path
     d="m 56.943908,22.189456 h 5.051473 V 20.42141 c 0,-0.726709 -0.24371,-1.335962 -0.731144,-1.827801 -0.48742,-0.491854 -1.085661,-0.737773 -1.79457,-0.737773 -0.70897,0 -1.307149,0.245919 -1.794569,0.737773 -0.487418,0.491855 -0.731135,1.101132 -0.731135,1.827801 z m 3.615817,11.086307 h -6.141553 c -0.350049,0 -0.659108,-0.134046 -0.927162,-0.40213 -0.268083,-0.268077 -0.40213,-0.577143 -0.40213,-0.927161 v -8.427803 c 0,-0.350057 0.134047,-0.659116 0.40213,-0.927162 0.268077,-0.268092 0.577136,-0.40213 0.927162,-0.40213 h 1.196405 v -1.768046 c 0,-1.085582 0.37332,-2.006191 1.119918,-2.76167 0.746655,-0.755503 1.658328,-1.133258 2.73507,-1.133258 1.076741,0 1.98851,0.377746 2.73507,1.133258 0.746638,0.75551 1.119917,1.676088 1.119917,2.76167 v 1.768046 h 1.196407 c 0.350057,0 0.659116,0.134038 0.927161,0.40213 0.268092,0.268068 0.402129,0.577127 0.402129,0.927162 v 1.502196 c -0.194975,-0.0532 -0.397701,-0.09083 -0.608172,-0.112985 -0.210469,-0.02218 -0.450856,-0.03323 -0.721151,-0.03323 V 23.518716 H 54.41814 v 8.427803 h 5.410386 c 0.09749,0.256995 0.19942,0.484089 0.305767,0.681274 0.106346,0.197177 0.248138,0.413189 0.425377,0.648049 z m -6.141553,-9.757055 v 8.427804 z"
     stroke-width="0.0199403"
     id="path26" />
  <path
     d="m 91.064062,35.824298 v -2.634792 h -3.850615 v -2.02667 h 2.634557 V 18.597375 h -2.634557 v -2.026669 h 3.850615 v -2.634792 h 2.02674 v 2.634792 h 3.039908 v -2.634792 h 2.026669 v 2.746182 q 1.62134,0.364793 2.634791,1.646692 1.01334,1.281898 1.01334,2.903215 0,0.861338 -0.32426,1.687202 -0.32428,0.82589 -0.93227,1.484528 1.14502,0.618152 1.80879,1.722679 0.66375,1.104527 0.66375,2.401608 0,1.92533 -1.35791,3.293431 -1.35784,1.368007 -3.303366,1.368007 h -0.202913 v 2.634793 h -2.026667 v -2.634793 h -3.040146 v 2.634793 z m 0.810682,-11.957432 h 5.269349 q 1.104479,0 1.869565,-0.775208 0.765084,-0.775207 0.765084,-1.85949 0,-1.104527 -0.765084,-1.869613 -0.765086,-0.765085 -1.869565,-0.765085 h -5.269349 z m 0,7.296112 h 6.485407 q 1.104503,0 1.869589,-0.775207 0.76508,-0.775208 0.76508,-1.859491 0,-1.104527 -0.76508,-1.869613 -0.765086,-0.765085 -1.869589,-0.765085 h -6.485407 z"
     stroke-width="0.030399"
     id="path4" />
  <text
     x="52.558796"
     y="83.377884"
     fill="#000000"
     font-family="sans-serif"
     font-size="25.5036px"
     stroke-width="0.637598"
     style="line-height:1.25"
     xml:space="preserve"
     id="text62"><tspan
       x="52.558796"
       y="83.377884"
       stroke-width="0.637598"
       id="tspan60">=</tspan></text>
  <text
     x="36.28809"
     y="30.48662"
     fill="#000000"
     font-family="sans-serif"
     font-size="14.401px"
     stroke-width="0.36003"
     style="line-height:1.25"
     xml:space="preserve"
     id="text62-6"><tspan
       x="36.28809"
       y="30.48662"
       stroke-width="0.36003"
       id="tspan60-0">=</tspan></text>
  <text
     x="73.489845"
     y="29.914907"
     fill="#000000"
     font-family="sans-serif"
     font-size="14.401px"
     stroke-width="0.36003"
     style="line-height:1.25"
     xml:space="preserve"
     id="text62-6-6"><tspan
       x="73.489845"
       y="29.914907"
       stroke-width="0.36003"
       id="tspan60-0-2">=</tspan></text>
</svg>
