<svg width="400" height="400" version="1.1" viewBox="0 0 105.83 105.83" xmlns="http://www.w3.org/2000/svg">
 <rect width="105.49" height="105.49" ry=".13328" fill="#fff"/>
 <path d="m0.13328 0.13869h105.22c0.0738 0 0.13328 0.059443 0.13328 0.13328v105.22c0 0.0738-0.0594 0.13328-0.13328 0.13328h-105.22c-0.073837 0-0.13328-0.05944-0.13328-0.13328v-105.22c0-0.073837 0.059443-0.13328 0.13328-0.13328z" fill="#fff"/>
 <path d="m52.883 65.01q-1.4061 0-2.3965-0.99396-0.99039-0.99396-0.99039-2.4001t0.99396-2.3965q0.99396-0.99038 2.4001-0.99038t2.3965 0.99396q0.99036 0.99402 0.99036 2.4001 0 1.4061-0.99396 2.3965-0.99396 0.99037-2.4001 0.99037zm-3.5653 27.481v-9.2792h-3.9615l4.7288-13.401q0.32117-0.85654 1.0841-1.4008 0.76291-0.54428 1.722-0.54428 0.95911 0 1.7175 0.54428 0.7584 0.54422 1.0796 1.4008l4.7288 13.401h-3.9615v9.2792z" stroke-width=".053534"/>
 <path d="m61.741 79.766q-0.68206 0-1.1831-0.50102-0.50101-0.501-0.50101-1.1831v-18.862q0-0.68205 0.50101-1.1831 0.50102-0.50102 1.1831-0.50102h10.778q0.68204 0 1.1831 0.50102 0.501 0.50102 0.501 1.1831v18.862q0 0.68207-0.501 1.1831-0.50103 0.50102-1.1831 0.50102zm0-2.5261v0.84204h10.778v-0.84204zm0-1.6841h10.778v-13.81h-10.778zm0-15.494h10.778v-0.84204h-10.778zm0 0v-0.84204zm0 17.178v0.84204z" stroke-width=".025262"/>
 <path d="m84.904 90.806h7.8143l1.1452-4.5471h-10.105zm0 1.6841c-0.38172 0-0.72296-0.11812-1.0237-0.35434-0.30073-0.23624-0.50121-0.54195-0.60144-0.91715l-1.2547-4.9597h13.574l-1.2547 4.9597c-0.10024 0.3752-0.30072 0.68091-0.60145 0.91715-0.30073 0.23622-0.64196 0.35434-1.0237 0.35434zm-3.5029-7.9153h14.82v-2.3578h-14.82zm8.2521-4.0418h8.2521v4.0418c0 0.46311-0.1649 0.85957-0.4947 1.1894s-0.72626 0.4947-1.1894 0.4947h-14.82c-0.46312 0-0.85959-0.1649-1.1894-0.4947s-0.4947-0.72626-0.4947-1.1894v-4.0418h8.2521c0.23724-7.7125 0 0 1.6841 0z" stroke-width=".025262"/>
 <g transform="matrix(.29558 0 0 .29558 22.858 60.388)">
  <g transform="matrix(.69499 0 0 .69499 -.24524 20.173)">
   <path d="m13.667 46.05h39.919v-9.4205h9.4204v-18.213h-49.339zm0 3.1401c-0.86354 0-1.6028-0.30747-2.2177-0.92241-0.61494-0.61494-0.92241-1.3542-0.92241-2.2177v-27.633c0-0.86355 0.30747-1.6028 0.92241-2.2177 0.61492-0.61494 1.3541-0.92241 2.2177-0.92241h49.339c0.86355 0 1.6028 0.30747 2.2177 0.92241 0.61493 0.61494 0.92239 1.3542 0.92239 2.2177v19.469l-11.305 11.305zm0-3.1401v-27.633z" stroke-width=".047102"/>
  </g>
 </g>
 <path d="m23.318 92.49c-0.72134-0.57106-1.5028-1.0144-2.3444-1.33-0.84155-0.31558-1.7132-0.47337-2.6148-0.47337-0.63117 0-1.2511 0.0827-1.8597 0.24795-0.60863 0.1653-1.191 0.39824-1.747 0.6988-0.31559 0.1653-0.6199 0.15777-0.91294-0.0226-0.29305-0.18034-0.43957-0.44332-0.43957-0.78896v-10.865c0-0.1653 0.0413-0.32309 0.12391-0.47337s0.20658-0.26299 0.37193-0.33813c0.69129-0.36067 1.4126-0.63117 2.164-0.8115 0.75139-0.18034 1.5178-0.2705 2.2993-0.2705 0.87161 0 1.7244 0.1127 2.5585 0.33812s1.6343 0.56355 2.4007 1.0144v11.241c0.76642-0.49092 1.5704-0.85911 2.412-1.1046 0.84156-0.24545 1.6906-0.36817 2.5472-0.36817 0.541 0 1.1108 0.0501 1.7094 0.15026 0.59864 0.10019 1.181 0.29055 1.747 0.57108v-11.196c0.17419 0.0626 0.34547 0.12836 0.51384 0.19724 0.16837 0.0689 0.33271 0.14839 0.49301 0.23856 0.15528 0.0852 0.27675 0.20126 0.36443 0.34831 0.0877 0.14705 0.13148 0.30145 0.13148 0.46319v10.865c0 0.34564-0.14652 0.60862-0.43958 0.78896-0.29304 0.18034-0.59735 0.18787-0.91293 0.0226-0.55603-0.30056-1.1384-0.53349-1.747-0.69879-0.60862-0.16531-1.2285-0.24796-1.8597-0.24796-0.90167 0-1.7733 0.15779-2.6148 0.47338-0.84155 0.31558-1.623 0.7589-2.3443 1.33zm-1.5028-2.5773v-9.5728c-0.50593-0.26049-1.0732-0.4546-1.7019-0.58234-0.62867-0.12774-1.2135-0.19161-1.7545-0.19161-0.65623 0-1.2749 0.0676-1.8559 0.20288-0.58107 0.13525-1.1146 0.31575-1.6005 0.54149v9.6023c0.52597-0.23543 1.0782-0.41576 1.6568-0.541 0.57857-0.12524 1.1809-0.18785 1.8071-0.18785 0.62617 0 1.226 0.0626 1.7996 0.18785 0.57356 0.12524 1.1233 0.30558 1.6493 0.541zm0 0v-9.5728z" stroke-width=".022542"/>
 <path d="m6.6117 15.056 0.4055-0.95183 5.8986 2.513-1.4107 3.3113 4.6155 1.9742-0.68868-1.711 0.95587-0.38474 1.335 3.3169-3.3168 1.335-0.38089-0.94631 1.6728-0.6733-5.5635-2.3702 1.4107-3.3113z" stroke-width=".015456"/>
 <path d="m78.823 26.005v-11.641h2.4303v11.641zm8.7976 0v-11.641h2.4302v11.641zm-13.464 4.8605v-2.4302h29.163v2.4302zm22.067-4.8605v-11.641h2.4303v11.641zm-22.067-14.071v-2.2601l14.582-7.9713 14.582 7.9713v2.2601zm5.4194-2.4302h18.324zm0 0h18.324l-9.1621-5.0307z" stroke-width=".036454"/>
 <path d="m47.283 54.194-7.6553-7.6553v-10.936l7.6553-7.6553h10.936l7.6553 7.6553v10.936l-7.6553 7.6553zm1.0936-7.0477 4.3745-4.3745 4.3745 4.3745 1.7012-1.7012-4.3745-4.3745 4.3745-4.3745-1.7012-1.7012-4.3745 4.3745-4.3745-4.3745-1.7012 1.7012 4.3745 4.3745-4.3745 4.3745zm-0.073 4.6175h8.8948l6.2458-6.2458v-8.8948l-6.2458-6.2458h-8.8948l-6.2458 6.2458v8.8948z" stroke-width=".036454"/>
 <path d="m65.573 24.546v-2.7147h-2.6596q-0.57877 1.2265-1.695 1.9706-1.1162 0.74414-2.6458 0.74414-2.067 0-3.514-1.4469-1.4469-1.4469-1.4469-3.514t1.4469-3.514q1.447-1.4469 3.514-1.4469 1.5296 0 2.6458 0.74414t1.695 1.9706h5.4984v1.378h-6.4354q-0.16537-0.86128-1.068-1.788-0.90261-0.92674-2.3358-0.92674-1.4883 0-2.5356 1.0473t-1.0473 2.5356 1.0473 2.5356 2.5356 1.0473q1.4332 0 2.3358-0.92674 0.90262-0.92672 1.0662-1.788h5.0316v2.7147h1.4056v1.378zm-7.0004-3.4727q0.627 0 1.0576-0.43063 0.43063-0.43065 0.43063-1.0576 0-0.627-0.43063-1.0576-0.43065-0.43063-1.0576-0.43063t-1.0576 0.43063q-0.43063 0.43065-0.43063 1.0576 0 0.627 0.43063 1.0576 0.43065 0.43063 1.0576 0.43063zm0-1.4883m12.4 4.9609q-0.29385 0-0.49022-0.19879-0.19636-0.19879-0.19636-0.49264t0.19878-0.49022q0.19879-0.19637 0.49264-0.19637t0.49024 0.19879q0.19636 0.19879 0.19636 0.49264t-0.19878 0.49022q-0.19881 0.19637-0.49266 0.19637zm-0.68658-2.7561v-4.451h1.378v4.451z" stroke-width=".02067"/>
 <path d="m15.172 18.075v-1.0257h-1.4991v-0.78898h1.0257v-4.8917h-1.0257v-0.78898h1.4991v-1.0257h0.78898v1.0257h1.1835v-1.0257h0.78898v1.0691q0.63119 0.14201 1.0257 0.64106 0.39449 0.49904 0.39449 1.1302 0 0.33532-0.12624 0.65683-0.12624 0.32152-0.36292 0.57793 0.44577 0.24065 0.70417 0.67064 0.25839 0.42999 0.25839 0.93495 0 0.74953-0.52862 1.2821t-1.286 0.53257h-0.07892v1.0257h-0.78898v-1.0257h-1.1835v1.0257zm0.31559-4.655h2.0514q0.42999 0 0.72784-0.30179 0.29784-0.30179 0.29784-0.7239 0-0.43-0.29784-0.72784-0.29785-0.29785-0.72784-0.29785h-2.0514zm0 2.8404h2.5248q0.42999 0 0.72784-0.30179 0.29784-0.30179 0.29784-0.7239 0-0.43-0.29784-0.72784-0.29785-0.29785-0.72784-0.29785h-2.5248z" stroke-width=".011835"/>
 <path d="m10.464 30.865v-2.6636l1.5793-1.5793h-5.3508q-0.95464 0-1.6559-0.70124-0.70124-0.70124-0.70124-1.6559v-16.5q0-0.95464 0.70124-1.6559 0.70124-0.70124 1.6559-0.70124h23.572q0.95465 0 1.6559 0.70124 0.70124 0.70124 0.70124 1.6559v16.5q0 0.95464-0.70124 1.6559-0.70124 0.70124-1.6559 0.70124h-5.3743l1.6028 1.5793v2.6636zm-3.7715-6.6h23.572v-16.5h-23.572zm0 0v-16.5z" stroke-width=".035357"/>
 <path d="m21.157 22.457-0.99361-0.28838 1.7871-6.1575 3.4566 1.0032 1.4062-4.8191-1.616 0.88898-0.49665-0.90281 3.1327-1.7233 1.7233 3.1327-0.89377 0.49167-0.86913-1.5799-1.6856 5.8077-3.4566-1.0032z" stroke-width=".015456"/>
 <g transform="matrix(.55522 0 0 .55522 51.633 33.803)" style="shape-inside:url(#rect26719);white-space:pre" aria-label="0">
  <path d="m28.011 60.086q-0.80615 0-1.2144 0.79582-0.40308 0.79065-0.40308 2.3823 0 1.5865 0.40308 2.3823 0.40824 0.79065 1.2144 0.79065 0.81132 0 1.2144-0.79065 0.40824-0.79582 0.40824-2.3823 0-1.5916-0.40824-2.3823-0.40308-0.79582-1.2144-0.79582zm0-0.82682q1.2971 0 1.9792 1.0284 0.6873 1.0232 0.6873 2.9766 0 1.9482-0.6873 2.9766-0.68213 1.0232-1.9792 1.0232-1.2971 0-1.9844-1.0232-0.68213-1.0284-0.68213-2.9766 0-1.9534 0.68213-2.9766 0.68729-1.0284 1.9844-1.0284z"/>
 </g>
 <g transform="matrix(.47618 -.45572 .24379 .89012 17.52 -38.534)" style="shape-inside:url(#rect26725);white-space:pre" aria-label="$$$$">
  <path d="m7.2088 65.218q-0.58208-0.010583-1.1324-0.09525-0.55033-0.09525-0.889-0.254v-0.89958q0.35983 0.16933 0.92075 0.29633 0.56091 0.127 1.1007 0.13758v-2.1378q-1.0477-0.28575-1.5346-0.71966-0.48683-0.43392-0.48683-1.1853 0-0.78316 0.53975-1.2277 0.55033-0.4445 1.4817-0.49742v-0.93133h0.67733v0.92075q0.56091 0.01058 1.016 0.127 0.46567 0.10583 0.84666 0.26458l-0.28575 0.78316q-0.33867-0.13758-0.75141-0.23283-0.40217-0.10583-0.8255-0.13758v2.1272q0.6985 0.20108 1.1642 0.43392 0.46567 0.22225 0.6985 0.56091 0.24342 0.32808 0.24342 0.85725 0 0.74083-0.55033 1.2065-0.55033 0.45508-1.5557 0.56092v1.1747h-0.67733zm0-5.7679q-0.5715 0.04233-0.84666 0.26458-0.26458 0.22225-0.26458 0.5715 0 0.42333 0.23283 0.65616 0.24342 0.22225 0.87841 0.381zm0.67733 4.9001q0.62441-0.0635 0.91016-0.28575 0.28575-0.23283 0.28575-0.59266 0-0.40216-0.254-0.60325-0.254-0.21167-0.94191-0.381z"/>
  <path d="m13.262 65.218q-0.58208-0.01058-1.1324-0.09525-0.55033-0.09525-0.889-0.254v-0.89958q0.35983 0.16933 0.92075 0.29633t1.1007 0.13758v-2.1378q-1.0477-0.28575-1.5346-0.71966t-0.48683-1.1853q0-0.78316 0.53975-1.2277 0.55033-0.4445 1.4817-0.49742v-0.93133h0.67733v0.92075q0.56092 0.01058 1.016 0.127 0.46567 0.10583 0.84666 0.26458l-0.28575 0.78316q-0.33866-0.13758-0.75141-0.23283-0.40216-0.10583-0.8255-0.13758v2.1272q0.6985 0.20108 1.1642 0.43392 0.46566 0.22225 0.6985 0.56091 0.24342 0.32808 0.24342 0.85725 0 0.74083-0.55033 1.2065-0.55033 0.45508-1.5557 0.56092v1.1747h-0.67733zm0-5.7679q-0.5715 0.04233-0.84666 0.26458-0.26458 0.22225-0.26458 0.5715 0 0.42333 0.23283 0.65616 0.24342 0.22225 0.87841 0.381zm0.67733 4.9001q0.62441-0.0635 0.91016-0.28575 0.28575-0.23283 0.28575-0.59266 0-0.40216-0.254-0.60325-0.254-0.21167-0.94191-0.381z"/>
  <path d="m19.316 65.218q-0.58208-0.01058-1.1324-0.09525-0.55033-0.09525-0.889-0.254v-0.89958q0.35983 0.16933 0.92075 0.29633t1.1007 0.13758v-2.1378q-1.0477-0.28575-1.5346-0.71966t-0.48683-1.1853q0-0.78316 0.53975-1.2277 0.55033-0.4445 1.4817-0.49742v-0.93133h0.67733v0.92075q0.56092 0.01058 1.016 0.127 0.46566 0.10583 0.84666 0.26458l-0.28575 0.78316q-0.33866-0.13758-0.75141-0.23283-0.40217-0.10583-0.8255-0.13758v2.1272q0.6985 0.20108 1.1642 0.43392 0.46567 0.22225 0.6985 0.56091 0.24342 0.32808 0.24342 0.85725 0 0.74083-0.55033 1.2065-0.55033 0.45508-1.5557 0.56092v1.1747h-0.67733zm0-5.7679q-0.5715 0.04233-0.84666 0.26458-0.26458 0.22225-0.26458 0.5715 0 0.42333 0.23283 0.65616 0.24342 0.22225 0.87841 0.381zm0.67733 4.9001q0.62442-0.0635 0.91016-0.28575 0.28575-0.23283 0.28575-0.59266 0-0.40216-0.254-0.60325-0.254-0.21167-0.94191-0.381z"/>
  <path d="m25.37 65.218q-0.58208-0.01058-1.1324-0.09525-0.55033-0.09525-0.889-0.254v-0.89958q0.35983 0.16933 0.92075 0.29633t1.1007 0.13758v-2.1378q-1.0477-0.28575-1.5346-0.71966-0.48683-0.43392-0.48683-1.1853 0-0.78316 0.53975-1.2277 0.55033-0.4445 1.4817-0.49742v-0.93133h0.67733v0.92075q0.56092 0.01058 1.016 0.127 0.46566 0.10583 0.84666 0.26458l-0.28575 0.78316q-0.33867-0.13758-0.75141-0.23283-0.40217-0.10583-0.8255-0.13758v2.1272q0.6985 0.20108 1.1642 0.43392 0.46566 0.22225 0.6985 0.56091 0.24342 0.32808 0.24342 0.85725 0 0.74083-0.55033 1.2065-0.55033 0.45508-1.5557 0.56092v1.1747h-0.67733zm0-5.7679q-0.5715 0.04233-0.84666 0.26458-0.26458 0.22225-0.26458 0.5715 0 0.42333 0.23283 0.65616 0.24342 0.22225 0.87841 0.381zm0.67733 4.9001q0.62442-0.0635 0.91016-0.28575 0.28575-0.23283 0.28575-0.59266 0-0.40216-0.254-0.60325-0.254-0.21167-0.94191-0.381z"/>
 </g>
 <path d="m55.92 4.7731-0.4974-0.54105 1.2444-1.144 0.4974 0.54105zm2.5392 1.9585-1.6874 0.17352-0.0733-0.73129 1.6874-0.17352zm-4.3558-3.4133-0.72255-0.1344 0.30329-1.6465 0.72256 0.1344zm-0.56329 7.3364-1.1938-1.2985-0.48696 0.44767q-0.22319 0.20518-0.52824 0.19236-0.30504-0.01282-0.51022-0.23601l-0.79586-0.86571q-0.20518-0.22319-0.19235-0.52823 0.0128-0.30504 0.23601-0.51022l1.4068-1.2933 0.72786-2.4661 3.5813 3.8956-2.5185 0.5183-0.37874 0.34818 1.1938 1.2985zm-1.3316-2.9688m3.1099-0.85234-1.9996-2.1751q0.3982-0.0067 0.78952 0.15023 0.39132 0.15689 0.69722 0.48964t0.4294 0.73586 0.0834 0.79934zm-4.7523 1.5635 0.79586 0.86571 1.5528-1.4276 1.4484-0.30321-1.8205-1.9803-0.4237 1.4178z" stroke-width=".011024"/>
 <g transform="matrix(.22754 -.24832 .24832 .22754 55.186 89.34)">
  <g transform="matrix(.69499 0 0 .69499 -.24524 20.173)">
   <path d="m13.667 46.05h39.919v-9.4205h9.4204v-18.213h-49.339zm0 3.1401c-0.86354 0-1.6028-0.30747-2.2177-0.92241-0.61494-0.61494-0.92241-1.3542-0.92241-2.2177v-27.633c0-0.86355 0.30747-1.6028 0.92241-2.2177 0.61492-0.61494 1.3541-0.92241 2.2177-0.92241h49.339c0.86355 0 1.6028 0.30747 2.2177 0.92241 0.61493 0.61494 0.92239 1.3542 0.92239 2.2177v19.469l-11.305 11.305zm0-3.1401v-27.633z"/>
  </g>
 </g>
 <path d="m64.726 10.897q0.15067 0 0.25907-0.10841 0.10841-0.1084 0.10841-0.25907 0-0.15066-0.10841-0.25906-0.1084-0.10841-0.25907-0.10841t-0.25907 0.10841q-0.1084 0.1084-0.1084 0.25906 0 0.15067 0.1084 0.25907 0.1084 0.10841 0.25907 0.10841zm-0.36747-1.8374h0.73495v-2.5797h-0.73495zm2.3445 1.8741h3.0794v-0.73495h-3.0794zm0-1.8741h3.0794v-0.73496h-3.0794zm0-1.8447h3.0794v-0.73495h-3.0794zm-3.3661 5.4607q-0.29766 0-0.5163-0.21865-0.21866-0.21864-0.21866-0.5163v-6.4676q0-0.29766 0.21866-0.5163 0.21864-0.21864 0.5163-0.21864h7.4671q0.29766 0 0.5163 0.21864 0.21865 0.21864 0.21865 0.5163v6.4676q0 0.29766-0.21865 0.5163-0.21864 0.21865-0.5163 0.21865zm0-0.73495h7.4671v-6.4676h-7.4671zm0 0v-6.4676z" stroke-width=".011024"/>
 <path d="m39.842 25.041 2.102-5.8796 3.7997 3.7703zm1.2274-1.2274 3.344-1.1906-2.1608-2.1681zm4.1231-2.8443-0.40423-0.40423 2.587-2.587q0.35278-0.35278 0.87828-0.35645 0.52549-0.0037 0.87827 0.34911l0.21313 0.21313-0.40423 0.40422-0.22782-0.22783q-0.1911-0.1911-0.452-0.19477-0.26091-0.0037-0.45935 0.19477zm-1.7565-1.7271-0.40423-0.40422 0.30868-0.30868q0.22049-0.22049 0.20947-0.5108-0.011-0.2903-0.20947-0.48875l-0.30132-0.30133 0.40421-0.40422 0.28664 0.28663q0.37482 0.37483 0.37115 0.92236-4e-3 0.54754-0.3785 0.92237zm0.88929 0.8599-0.40422-0.40422 1.6463-1.6463q0.19109-0.19108 0.18741-0.48507-4e-3 -0.29398-0.19476-0.48507l-0.6835-0.68351 0.40421-0.40423 0.69821 0.69821q0.34543 0.35278 0.35277 0.87459 7e-3 0.52181-0.34542 0.87459zm1.7492 1.7565-0.40422-0.40423 0.58061-0.58061q0.37483-0.37483 0.90031-0.38218 0.5255-0.0074 0.90033 0.36747l0.61 0.61001-0.40421 0.40423-0.61736-0.61736q-0.22049-0.22049-0.4814-0.22049-0.26092 0-0.4814 0.22049z" stroke-width=".011024"/>
</svg>
