<svg width="400" height="400" version="1.1" viewBox="0 0 105.83 105.83" xmlns="http://www.w3.org/2000/svg">
 <rect width="105.49" height="105.49" ry=".13328" fill="#fff"/>
 <path d="m42.486 90.689 0.266-0.62438 3.8693 1.6485-0.92538 2.1721 3.0276 1.295-0.45176-1.1224 0.62702-0.25238 0.87572 2.1758-2.1757 0.87572-0.24985-0.62075 1.0973-0.44167-3.6495-1.5548 0.92538-2.1721z" stroke-width=".010139"/>
 <path d="m78.094 96.341v-11.641h2.4303v11.641zm8.7976 0v-11.641h2.4302v11.641zm-13.464 4.8605v-2.4302h29.163v2.4302zm22.067-4.8605v-11.641h2.4303v11.641zm-22.067-14.071v-2.2601l14.582-7.9713 14.582 7.9713v2.2601zm5.4194-2.4302h18.324zm0 0h18.324l-9.1621-5.0307z" stroke-width=".036454"/>
 <path d="m45.013 101.06v-1.7472l1.036-1.036h-3.51q-0.62622 0-1.0862-0.45999-0.45999-0.46-0.45999-1.0862v-10.824q0-0.62622 0.45999-1.0862 0.46-0.46 1.0862-0.46h15.463q0.62622 0 1.0862 0.46 0.46 0.45999 0.46 1.0862v10.824q0 0.62622-0.46 1.0862-0.46 0.45999-1.0862 0.45999h-3.5254l1.0514 1.036v1.7472zm-2.474-4.3294h15.463v-10.824h-15.463zm0 0v-10.824z" stroke-width=".023193"/>
 <path d="m52.027 95.544-0.65178-0.18917 1.1723-4.0392 2.2674 0.65807 0.92243-3.1612-1.0601 0.58315-0.32579-0.59222 2.055-1.1304 1.1304 2.055-0.58629 0.32252-0.57013-1.0364-1.1057 3.8097-2.2674-0.65807z" stroke-width=".010139"/>
 <g transform="matrix(.24947 -.23875 .12772 .46634 45.19 53.962)" style="shape-inside:url(#rect26725);white-space:pre" aria-label="$$$$">
  <path d="m7.2088 65.218q-0.58208-0.010583-1.1324-0.09525-0.55033-0.09525-0.889-0.254v-0.89958q0.35983 0.16933 0.92075 0.29633 0.56091 0.127 1.1007 0.13758v-2.1378q-1.0477-0.28575-1.5346-0.71966-0.48683-0.43392-0.48683-1.1853 0-0.78316 0.53975-1.2277 0.55033-0.4445 1.4817-0.49742v-0.93133h0.67733v0.92075q0.56091 0.01058 1.016 0.127 0.46567 0.10583 0.84666 0.26458l-0.28575 0.78316q-0.33867-0.13758-0.75141-0.23283-0.40217-0.10583-0.8255-0.13758v2.1272q0.6985 0.20108 1.1642 0.43392 0.46567 0.22225 0.6985 0.56091 0.24342 0.32808 0.24342 0.85725 0 0.74083-0.55033 1.2065-0.55033 0.45508-1.5557 0.56092v1.1747h-0.67733zm0-5.7679q-0.5715 0.04233-0.84666 0.26458-0.26458 0.22225-0.26458 0.5715 0 0.42333 0.23283 0.65616 0.24342 0.22225 0.87841 0.381zm0.67733 4.9001q0.62441-0.0635 0.91016-0.28575 0.28575-0.23283 0.28575-0.59266 0-0.40216-0.254-0.60325-0.254-0.21167-0.94191-0.381z"/>
  <path d="m13.262 65.218q-0.58208-0.01058-1.1324-0.09525-0.55033-0.09525-0.889-0.254v-0.89958q0.35983 0.16933 0.92075 0.29633t1.1007 0.13758v-2.1378q-1.0477-0.28575-1.5346-0.71966t-0.48683-1.1853q0-0.78316 0.53975-1.2277 0.55033-0.4445 1.4817-0.49742v-0.93133h0.67733v0.92075q0.56092 0.01058 1.016 0.127 0.46567 0.10583 0.84666 0.26458l-0.28575 0.78316q-0.33866-0.13758-0.75141-0.23283-0.40216-0.10583-0.8255-0.13758v2.1272q0.6985 0.20108 1.1642 0.43392 0.46566 0.22225 0.6985 0.56091 0.24342 0.32808 0.24342 0.85725 0 0.74083-0.55033 1.2065-0.55033 0.45508-1.5557 0.56092v1.1747h-0.67733zm0-5.7679q-0.5715 0.04233-0.84666 0.26458-0.26458 0.22225-0.26458 0.5715 0 0.42333 0.23283 0.65616 0.24342 0.22225 0.87841 0.381zm0.67733 4.9001q0.62441-0.0635 0.91016-0.28575 0.28575-0.23283 0.28575-0.59266 0-0.40216-0.254-0.60325-0.254-0.21167-0.94191-0.381z"/>
  <path d="m19.316 65.218q-0.58208-0.01058-1.1324-0.09525-0.55033-0.09525-0.889-0.254v-0.89958q0.35983 0.16933 0.92075 0.29633t1.1007 0.13758v-2.1378q-1.0477-0.28575-1.5346-0.71966t-0.48683-1.1853q0-0.78316 0.53975-1.2277 0.55033-0.4445 1.4817-0.49742v-0.93133h0.67733v0.92075q0.56092 0.01058 1.016 0.127 0.46566 0.10583 0.84666 0.26458l-0.28575 0.78316q-0.33866-0.13758-0.75141-0.23283-0.40217-0.10583-0.8255-0.13758v2.1272q0.6985 0.20108 1.1642 0.43392 0.46567 0.22225 0.6985 0.56091 0.24342 0.32808 0.24342 0.85725 0 0.74083-0.55033 1.2065-0.55033 0.45508-1.5557 0.56092v1.1747h-0.67733zm0-5.7679q-0.5715 0.04233-0.84666 0.26458-0.26458 0.22225-0.26458 0.5715 0 0.42333 0.23283 0.65616 0.24342 0.22225 0.87841 0.381zm0.67733 4.9001q0.62442-0.0635 0.91016-0.28575 0.28575-0.23283 0.28575-0.59266 0-0.40216-0.254-0.60325-0.254-0.21167-0.94191-0.381z"/>
  <path d="m25.37 65.218q-0.58208-0.01058-1.1324-0.09525-0.55033-0.09525-0.889-0.254v-0.89958q0.35983 0.16933 0.92075 0.29633t1.1007 0.13758v-2.1378q-1.0477-0.28575-1.5346-0.71966-0.48683-0.43392-0.48683-1.1853 0-0.78316 0.53975-1.2277 0.55033-0.4445 1.4817-0.49742v-0.93133h0.67733v0.92075q0.56092 0.01058 1.016 0.127 0.46566 0.10583 0.84666 0.26458l-0.28575 0.78316q-0.33867-0.13758-0.75141-0.23283-0.40217-0.10583-0.8255-0.13758v2.1272q0.6985 0.20108 1.1642 0.43392 0.46566 0.22225 0.6985 0.56091 0.24342 0.32808 0.24342 0.85725 0 0.74083-0.55033 1.2065-0.55033 0.45508-1.5557 0.56092v1.1747h-0.67733zm0-5.7679q-0.5715 0.04233-0.84666 0.26458-0.26458 0.22225-0.26458 0.5715 0 0.42333 0.23283 0.65616 0.24342 0.22225 0.87841 0.381zm0.67733 4.9001q0.62442-0.0635 0.91016-0.28575 0.28575-0.23283 0.28575-0.59266 0-0.40216-0.254-0.60325-0.254-0.21167-0.94191-0.381z"/>
 </g>
 <path d="m68.066 76.254-0.26059-0.28346 0.65195-0.59935 0.26059 0.28346zm1.3303 1.0261-0.88404 0.09091-0.0384-0.38313 0.88404-0.09091zm-2.282-1.7882-0.37855-0.07041 0.1589-0.86261 0.37855 0.07041zm-0.29511 3.8436-0.62544-0.68029-0.25512 0.23454q-0.11693 0.1075-0.27675 0.10078-0.15981-0.0067-0.26731-0.12365l-0.41696-0.45355q-0.1075-0.11693-0.10077-0.27674 0.0067-0.15981 0.12365-0.26731l0.73703-0.67757 0.38133-1.292 1.8763 2.0409-1.3195 0.27154-0.19842 0.18241 0.62544 0.68029zm-0.69763-1.5554m1.6293-0.44655-1.0476-1.1395q0.20862-0.0035 0.41363 0.07871 0.20502 0.08219 0.36528 0.25652 0.16026 0.17433 0.22497 0.38552 0.0647 0.21119 0.04369 0.41878zm-2.4898 0.81913 0.41696 0.45355 0.81352-0.74793 0.75882-0.15885-0.95377-1.0375-0.22198 0.74279z" stroke-width=".0057755"/>
 <path d="m67.206 84.999q0.08871 0 0.15253-0.06383 0.06383-0.06382 0.06383-0.15253 0-0.0887-0.06383-0.15252-0.06382-0.06383-0.15253-0.06383-0.08871 0-0.15253 0.06383-0.06382 0.06382-0.06382 0.15252 0 0.08871 0.06382 0.15253 0.06382 0.06383 0.15253 0.06383zm-0.21635-1.0818h0.4327v-1.5188h-0.4327zm1.3803 1.1034h1.813v-0.4327h-1.813zm0-1.1034h1.813v-0.43271h-1.813zm0-1.0861h1.813v-0.4327h-1.813zm-1.9818 3.215q-0.17525 0-0.30397-0.12873-0.12874-0.12872-0.12874-0.30397v-3.8078q0-0.17525 0.12874-0.30397 0.12872-0.12872 0.30397-0.12872h4.3963q0.17525 0 0.30397 0.12872 0.12873 0.12872 0.12873 0.30397v3.8078q0 0.17525-0.12873 0.30397-0.12872 0.12873-0.30397 0.12873zm0-0.4327h4.3963v-3.8078h-4.3963zm0 0v-3.8078z" stroke-width=".0064904"/>
 <path d="m46.125 83.448 1.1012-3.0804 1.9907 1.9753zm0.64304-0.64304 1.7519-0.62376-1.1321-1.1359zm2.1601-1.4901-0.21178-0.21178 1.3553-1.3553q0.18482-0.18482 0.46014-0.18675 0.27531-0.0019 0.46013 0.1829l0.11166 0.11166-0.21178 0.21177-0.11936-0.11936q-0.10012-0.10012-0.2368-0.10204-0.13669-0.0019-0.24066 0.10204zm-0.92024-0.90484-0.21178-0.21177 0.16172-0.16172q0.11552-0.11552 0.10974-0.26761-0.0058-0.15209-0.10974-0.25606l-0.15786-0.15787 0.21177-0.21177 0.15017 0.15017q0.19637 0.19638 0.19445 0.48323-0.0021 0.28686-0.1983 0.48323zm0.4659 0.45051-0.21177-0.21177 0.86251-0.86251q0.10011-0.10011 0.09819-0.25413-0.0021-0.15402-0.10204-0.25413l-0.35809-0.35809 0.21177-0.21178 0.3658 0.3658q0.18097 0.18482 0.18482 0.4582 0.0037 0.27338-0.18097 0.4582zm0.91642 0.92024-0.21177-0.21178 0.30418-0.30418q0.19638-0.19638 0.47168-0.20023 0.27531-0.0039 0.47169 0.19252l0.31958 0.31959-0.21177 0.21178-0.32344-0.32344q-0.11552-0.11552-0.25221-0.11552-0.1367 0-0.25221 0.11552z" stroke-width=".0057755"/>
 <g transform="matrix(.032147 0 0 .032147 12.623 26.531)">
  <g transform="matrix(.04188 0 0 .04188 75.616 54.993)" fill="#8dc351">
   <path d="m7525 15989c-349-23-745-74-1074-139-1411-279-2741-944-3806-1903-103-94-479-466-575-572-245-266-540-648-754-974-84-128-216-339-216-346 0-2-17-32-38-66-48-80-130-233-220-414-483-964-760-2009-832-3130-13-205-13-695 0-900 103-1610 645-3087 1600-4360 239-319 428-535 744-850 286-286 436-420 706-632 1606-1261 3672-1865 5705-1668 1734 169 3354 891 4645 2071 632 577 1156 1241 1589 2014 64 113 231 450 301 605 345 767 574 1625 659 2470 32 311 41 496 41 810 0 808-118 1588-356 2359-526 1697-1613 3186-3064 4197-1216 848-2616 1332-4135 1429-181 11-740 11-920-1z"/>
  </g>
  <g transform="matrix(.04188 0 0 .04188 75.616 54.993)" fill="#fff">
   <path d="m7751 13046c-6-17-62-222-127-456-195-713-262-951-266-956-3-2-398 103-879 234s-875 238-877 237c-3-3-112-1041-112-1071 0-17 8-23 33-28 75-14 558-147 627-172 101-38 181-113 204-193 28-95 21-155-43-390-33-119-139-504-236-856s-239-867-315-1145-193-703-260-945-142-514-166-605c-25-91-57-185-72-210-44-77-110-138-190-177-67-34-84-38-171-41-134-6-233 16-734 162-81 23-120 30-122 22-7-20-247-901-249-910 0-4 87-33 194-62 107-30 499-138 870-241 371-102 678-189 682-192s-81-323-188-711-192-710-190-715c2-6 28-17 57-24 30-8 222-61 428-117 206-57 376-103 377-101 1 1 88 315 193 697 106 382 194 696 196 698s137-35 302-83c164-48 318-92 343-100 35-10 44-17 42-31-2-11-87-320-188-689-101-368-184-674-184-680 0-9 858-250 865-243 2 2 91 322 198 711s196 710 199 712c2 3 42-2 89-10 416-74 899-94 1184-51 672 104 1078 440 1283 1061 196 592 97 1085-302 1499l-73 76h118c828 0 1344 393 1564 1190 130 470 135 910 15 1273-41 126-137 313-218 427-145 205-419 444-699 612-277 166-754 378-1083 483-30 10-58 20-62 24-4 3 71 290 166 636 96 347 185 671 198 721l25 91-426 117c-234 64-431 116-436 116-6 0-98-318-204-707-107-390-195-709-196-710-1-2-143 35-316 81s-329 87-346 91c-18 3-33 12-33 18 0 11 16 68 259 952 71 259 128 471 126 473-1 1-196 56-433 121l-431 118zm442-2762c928-243 1429-470 1733-785 93-98 132-151 179-252 54-113 70-186 69-317 0-211-79-419-214-563-317-339-883-384-1824-143-226 58-696 197-696 207 0 4 117 433 260 953s260 948 260 951c0 10 22 5 233-51zm-802-2789c657-172 1015-321 1295-540 97-76 161-145 225-243 60-91 87-161 107-277 19-113 7-234-39-369-102-305-310-473-660-532-82-13-140-16-298-11-227 6-400 32-681 103-171 42-609 170-618 179-4 4 126 484 431 1588 24 87 46 147 53 147 6 0 90-20 185-45z" fill="#fff"/>
  </g>
 </g>
 <text x="40.971569" y="46.585083" fill="#000000" font-family="sans-serif" font-size="25.4px" stroke-width=".26458" style="line-height:1.25" xml:space="preserve"><tspan x="40.971569" y="46.585083" font-size="25.4px" stroke-width=".26458">≠</tspan></text>
 <g transform="matrix(.031147 .0079549 -.0079549 .031147 66.878 23.59)">
  <path d="m390.76 724.61c-14.616-0.96324-31.201-3.0991-44.979-5.8213-59.093-11.684-114.79-39.535-159.39-79.697-4.3136-3.9367-20.06-19.516-24.081-23.955-10.261-11.14-22.615-27.138-31.577-40.791-3.5179-5.3606-9.0461-14.197-9.0461-14.49 0-0.0838-0.71196-1.3402-1.5914-2.7641-2.0102-3.3504-5.4444-9.758-9.2136-17.338-20.228-40.372-31.829-84.137-34.844-131.08-0.54444-8.5854-0.54444-29.107 0-37.692 4.3136-67.427 27.013-129.28 67.008-182.6 10.009-13.36 17.925-22.406 31.159-35.598 11.978-11.978 18.26-17.59 29.567-26.468 67.259-52.811 153.78-78.106 238.92-69.856 72.62 7.0777 140.47 37.315 194.53 86.733 26.468 24.165 48.413 51.973 66.547 84.346 2.6803 4.7324 9.6743 18.846 12.606 25.337 14.449 32.122 24.039 68.055 27.599 103.44 1.3402 13.025 1.7171 20.772 1.7171 33.923 0 33.839-4.9418 66.505-14.909 98.795-22.029 71.07-67.552 133.43-128.32 175.77-50.926 35.514-109.56 55.784-173.17 59.846-7.5803 0.46068-30.991 0.46068-38.53-0.0419z" fill="#db8e00"/>
  <g transform="matrix(.04188 0 0 .04188 75.616 54.993)" fill="#fff">
   <path d="m7751 13046c-6-17-62-222-127-456-195-713-262-951-266-956-3-2-398 103-879 234s-875 238-877 237c-3-3-112-1041-112-1071 0-17 8-23 33-28 75-14 558-147 627-172 101-38 181-113 204-193 28-95 21-155-43-390-33-119-139-504-236-856s-239-867-315-1145-193-703-260-945-142-514-166-605c-25-91-57-185-72-210-44-77-110-138-190-177-67-34-84-38-171-41-134-6-233 16-734 162-81 23-120 30-122 22-7-20-247-901-249-910 0-4 87-33 194-62 107-30 499-138 870-241 371-102 678-189 682-192s-81-323-188-711-192-710-190-715c2-6 28-17 57-24 30-8 222-61 428-117 206-57 376-103 377-101 1 1 88 315 193 697 106 382 194 696 196 698s137-35 302-83c164-48 318-92 343-100 35-10 44-17 42-31-2-11-87-320-188-689-101-368-184-674-184-680 0-9 858-250 865-243 2 2 91 322 198 711s196 710 199 712c2 3 42-2 89-10 416-74 899-94 1184-51 672 104 1078 440 1283 1061 196 592 97 1085-302 1499l-73 76h118c828 0 1344 393 1564 1190 130 470 135 910 15 1273-41 126-137 313-218 427-145 205-419 444-699 612-277 166-754 378-1083 483-30 10-58 20-62 24-4 3 71 290 166 636 96 347 185 671 198 721l25 91-426 117c-234 64-431 116-436 116-6 0-98-318-204-707-107-390-195-709-196-710-1-2-143 35-316 81s-329 87-346 91c-18 3-33 12-33 18 0 11 16 68 259 952 71 259 128 471 126 473-1 1-196 56-433 121l-431 118zm442-2762c928-243 1429-470 1733-785 93-98 132-151 179-252 54-113 70-186 69-317 0-211-79-419-214-563-317-339-883-384-1824-143-226 58-696 197-696 207 0 4 117 433 260 953s260 948 260 951c0 10 22 5 233-51zm-802-2789c657-172 1015-321 1295-540 97-76 161-145 225-243 60-91 87-161 107-277 19-113 7-234-39-369-102-305-310-473-660-532-82-13-140-16-298-11-227 6-400 32-681 103-171 42-609 170-618 179-4 4 126 484 431 1588 24 87 46 147 53 147 6 0 90-20 185-45z" fill="#fff"/>
  </g>
 </g>
 <g transform="matrix(.015004 0 0 .015004 10.275 50.351)">
  <g transform="matrix(.04188 0 0 .04188 75.616 54.993)" fill="#8dc351">
   <path d="m7525 15989c-349-23-745-74-1074-139-1411-279-2741-944-3806-1903-103-94-479-466-575-572-245-266-540-648-754-974-84-128-216-339-216-346 0-2-17-32-38-66-48-80-130-233-220-414-483-964-760-2009-832-3130-13-205-13-695 0-900 103-1610 645-3087 1600-4360 239-319 428-535 744-850 286-286 436-420 706-632 1606-1261 3672-1865 5705-1668 1734 169 3354 891 4645 2071 632 577 1156 1241 1589 2014 64 113 231 450 301 605 345 767 574 1625 659 2470 32 311 41 496 41 810 0 808-118 1588-356 2359-526 1697-1613 3186-3064 4197-1216 848-2616 1332-4135 1429-181 11-740 11-920-1z"/>
  </g>
  <g transform="matrix(.04188 0 0 .04188 75.616 54.993)" fill="#fff">
   <path d="m7751 13046c-6-17-62-222-127-456-195-713-262-951-266-956-3-2-398 103-879 234s-875 238-877 237c-3-3-112-1041-112-1071 0-17 8-23 33-28 75-14 558-147 627-172 101-38 181-113 204-193 28-95 21-155-43-390-33-119-139-504-236-856s-239-867-315-1145-193-703-260-945-142-514-166-605c-25-91-57-185-72-210-44-77-110-138-190-177-67-34-84-38-171-41-134-6-233 16-734 162-81 23-120 30-122 22-7-20-247-901-249-910 0-4 87-33 194-62 107-30 499-138 870-241 371-102 678-189 682-192s-81-323-188-711-192-710-190-715c2-6 28-17 57-24 30-8 222-61 428-117 206-57 376-103 377-101 1 1 88 315 193 697 106 382 194 696 196 698s137-35 302-83c164-48 318-92 343-100 35-10 44-17 42-31-2-11-87-320-188-689-101-368-184-674-184-680 0-9 858-250 865-243 2 2 91 322 198 711s196 710 199 712c2 3 42-2 89-10 416-74 899-94 1184-51 672 104 1078 440 1283 1061 196 592 97 1085-302 1499l-73 76h118c828 0 1344 393 1564 1190 130 470 135 910 15 1273-41 126-137 313-218 427-145 205-419 444-699 612-277 166-754 378-1083 483-30 10-58 20-62 24-4 3 71 290 166 636 96 347 185 671 198 721l25 91-426 117c-234 64-431 116-436 116-6 0-98-318-204-707-107-390-195-709-196-710-1-2-143 35-316 81s-329 87-346 91c-18 3-33 12-33 18 0 11 16 68 259 952 71 259 128 471 126 473-1 1-196 56-433 121l-431 118zm442-2762c928-243 1429-470 1733-785 93-98 132-151 179-252 54-113 70-186 69-317 0-211-79-419-214-563-317-339-883-384-1824-143-226 58-696 197-696 207 0 4 117 433 260 953s260 948 260 951c0 10 22 5 233-51zm-802-2789c657-172 1015-321 1295-540 97-76 161-145 225-243 60-91 87-161 107-277 19-113 7-234-39-369-102-305-310-473-660-532-82-13-140-16-298-11-227 6-400 32-681 103-171 42-609 170-618 179-4 4 126 484 431 1588 24 87 46 147 53 147 6 0 90-20 185-45z" fill="#fff"/>
  </g>
 </g>
 <text x="22.195913" y="58.246555" fill="#000000" font-family="sans-serif" font-size="7.1759px" stroke-width=".1794" style="line-height:1.25" xml:space="preserve"><tspan x="22.195913" y="58.246555" stroke-width=".1794">=</tspan></text>
 <path d="m35.415 55.122q-0.28295 0-0.47219-0.18925-0.18925-0.18924-0.18925-0.47219t0.18925-0.47219q0.18924-0.18925 0.47219-0.18925 0.28295 0 0.47219 0.18925 0.18925 0.18924 0.18925 0.47219t-0.18925 0.47219q-0.18924 0.18925-0.47219 0.18925zm-3.9686 0q-0.28295 0-0.47219-0.18925-0.18925-0.18924-0.18925-0.47219t0.18925-0.47219q0.18924-0.18925 0.47219-0.18925t0.47219 0.18925q0.18925 0.18924 0.18925 0.47219t-0.18925 0.47219q-0.18924 0.18925-0.47219 0.18925zm1.9843 1.2126q-0.28295 0-0.47219-0.18925-0.18925-0.18924-0.18925-0.47219t0.18925-0.47219q0.18924-0.18925 0.47219-0.18925t0.47219 0.18925q0.18925 0.18924 0.18925 0.47219t-0.18925 0.47219q-0.18924 0.18925-0.47219 0.18925zm0-2.4253q-0.28295 0-0.47219-0.18925-0.18925-0.18924-0.18925-0.47219t0.18925-0.47219q0.18924-0.18925 0.47219-0.18925t0.47219 0.18925q0.18925 0.18924 0.18925 0.47219t-0.18925 0.47219q-0.18924 0.18925-0.47219 0.18925zm0 5.7325q-0.21313 0-0.43545-0.03307-0.22232-0.03307-0.43178-0.08819v-1.5838q0-0.38584 0.24804-0.66327 0.24804-0.27744 0.61918-0.27744 0.37114 0 0.61918 0.27744 0.24804 0.27743 0.24804 0.66327v1.5838q-0.20946 0.05512-0.43178 0.08819t-0.43545 0.03307zm-1.5287-0.34541q-0.21313-0.08819-0.42074-0.19843-0.20762-0.11024-0.39503-0.24253-0.30867-0.21314-0.49057-0.5659-0.1819-0.35277-0.1819-0.75697 0-0.28662-0.05695-0.54202-0.05696-0.25539-0.21865-0.47587-0.11758-0.13596-0.42074-0.42442-0.30316-0.28845-0.55671-0.542-0.13597-0.14331-0.13597-0.3197 0-0.17638 0.13597-0.31235 0.14331-0.14331 0.30867-0.14331 0.16536 0 0.30867 0.14331l1.694 1.5985q0.21314 0.19843 0.32154 0.4722 0.1084 0.27376 0.1084 0.56038zm3.0573 0v-1.7491q0-0.28662 0.12861-0.56222 0.12862-0.2756 0.33807-0.47036l1.6573-1.5985q0.13229-0.12126 0.31418-0.12126 0.1819 0 0.30316 0.12126 0.13597 0.13597 0.13597 0.31235 0 0.17638-0.13597 0.3197-0.25355 0.25355-0.55671 0.53282t-0.42074 0.43361q-0.16169 0.22048-0.21865 0.47587-0.05695 0.25539-0.05695 0.54202 0 0.4042-0.1819 0.75881-0.1819 0.35461-0.49425 0.56773-0.18372 0.12126-0.39135 0.23517-0.20762 0.11392-0.42074 0.20211z" stroke-width=".011024"/>
 <g transform="matrix(.014555 .0037175 -.0037175 .014555 60.278 49.799)">
  <path d="m390.76 724.61c-14.616-0.96324-31.201-3.0991-44.979-5.8213-59.093-11.684-114.79-39.535-159.39-79.697-4.3136-3.9367-20.06-19.516-24.081-23.955-10.261-11.14-22.615-27.138-31.577-40.791-3.5179-5.3606-9.0461-14.197-9.0461-14.49 0-0.0838-0.71196-1.3402-1.5914-2.7641-2.0102-3.3504-5.4444-9.758-9.2136-17.338-20.228-40.372-31.829-84.137-34.844-131.08-0.54444-8.5854-0.54444-29.107 0-37.692 4.3136-67.427 27.013-129.28 67.008-182.6 10.009-13.36 17.925-22.406 31.159-35.598 11.978-11.978 18.26-17.59 29.567-26.468 67.259-52.811 153.78-78.106 238.92-69.856 72.62 7.0777 140.47 37.315 194.53 86.733 26.468 24.165 48.413 51.973 66.547 84.346 2.6803 4.7324 9.6743 18.846 12.606 25.337 14.449 32.122 24.039 68.055 27.599 103.44 1.3402 13.025 1.7171 20.772 1.7171 33.923 0 33.839-4.9418 66.505-14.909 98.795-22.029 71.07-67.552 133.43-128.32 175.77-50.926 35.514-109.56 55.784-173.17 59.846-7.5803 0.46068-30.991 0.46068-38.53-0.0419z" fill="#db8e00"/>
  <g transform="matrix(.04188 0 0 .04188 75.616 54.993)" fill="#fff">
   <path d="m7751 13046c-6-17-62-222-127-456-195-713-262-951-266-956-3-2-398 103-879 234s-875 238-877 237c-3-3-112-1041-112-1071 0-17 8-23 33-28 75-14 558-147 627-172 101-38 181-113 204-193 28-95 21-155-43-390-33-119-139-504-236-856s-239-867-315-1145-193-703-260-945-142-514-166-605c-25-91-57-185-72-210-44-77-110-138-190-177-67-34-84-38-171-41-134-6-233 16-734 162-81 23-120 30-122 22-7-20-247-901-249-910 0-4 87-33 194-62 107-30 499-138 870-241 371-102 678-189 682-192s-81-323-188-711-192-710-190-715c2-6 28-17 57-24 30-8 222-61 428-117 206-57 376-103 377-101 1 1 88 315 193 697 106 382 194 696 196 698s137-35 302-83c164-48 318-92 343-100 35-10 44-17 42-31-2-11-87-320-188-689-101-368-184-674-184-680 0-9 858-250 865-243 2 2 91 322 198 711s196 710 199 712c2 3 42-2 89-10 416-74 899-94 1184-51 672 104 1078 440 1283 1061 196 592 97 1085-302 1499l-73 76h118c828 0 1344 393 1564 1190 130 470 135 910 15 1273-41 126-137 313-218 427-145 205-419 444-699 612-277 166-754 378-1083 483-30 10-58 20-62 24-4 3 71 290 166 636 96 347 185 671 198 721l25 91-426 117c-234 64-431 116-436 116-6 0-98-318-204-707-107-390-195-709-196-710-1-2-143 35-316 81s-329 87-346 91c-18 3-33 12-33 18 0 11 16 68 259 952 71 259 128 471 126 473-1 1-196 56-433 121l-431 118zm442-2762c928-243 1429-470 1733-785 93-98 132-151 179-252 54-113 70-186 69-317 0-211-79-419-214-563-317-339-883-384-1824-143-226 58-696 197-696 207 0 4 117 433 260 953s260 948 260 951c0 10 22 5 233-51zm-802-2789c657-172 1015-321 1295-540 97-76 161-145 225-243 60-91 87-161 107-277 19-113 7-234-39-369-102-305-310-473-660-532-82-13-140-16-298-11-227 6-400 32-681 103-171 42-609 170-618 179-4 4 126 484 431 1588 24 87 46 147 53 147 6 0 90-20 185-45z" fill="#fff"/>
  </g>
 </g>
 <text x="71.295067" y="59.071693" fill="#000000" font-family="sans-serif" font-size="7.1759px" stroke-width=".1794" style="line-height:1.25" xml:space="preserve"><tspan x="71.295067" y="59.071693" stroke-width=".1794">=</tspan></text>
 <path d="m82.403 59.892v-4.1789h0.87244v4.1789zm3.1582 0v-4.1789h0.8724v4.1789zm-4.8334 1.7448v-0.8724h10.469v0.8724zm7.9217-1.7448v-4.1789h0.87244v4.1789zm-7.9217-5.0513v-0.81134l5.2347-2.8616 5.2347 2.8616v0.81134zm1.9455-0.8724h6.578zm0 0h6.578l-3.2891-1.8059z" stroke-width=".013086"/>
 <path d="m11.375 21.604v-1.7767h-2.5967v-1.3666h1.7767v-8.4731h-1.7767v-1.3666h2.5967v-1.7767h1.3666v1.7767h2.05v-1.7767h1.3666v1.8518q1.0933 0.24598 1.7767 1.1104 0.68331 0.86441 0.68331 1.9577 0 0.58082-0.21867 1.1377-0.21867 0.55692-0.62863 1.0011 0.77214 0.41684 1.2197 1.1616 0.44757 0.74481 0.44757 1.6195 0 1.2983-0.91565 2.2208t-2.2275 0.92249h-0.1367v1.7767h-1.3666v-1.7767h-2.05v1.7767zm0.54665-8.0631h3.5533q0.7448 0 1.2607-0.52274 0.5159-0.52274 0.5159-1.2539 0-0.74482-0.5159-1.2607-0.51592-0.51592-1.2607-0.51592h-3.5533zm0 4.92h4.3733q0.7448 0 1.2607-0.52274 0.5159-0.52274 0.5159-1.2539 0-0.74482-0.5159-1.2607-0.51592-0.51592-1.2607-0.51592h-4.3733z" stroke-width=".0205"/>
 <g transform="matrix(.025989 0 0 .02599 24.992 5.0747)">
  <g transform="matrix(.04188 0 0 .04188 75.616 54.993)" fill="#8dc351">
   <path d="m7525 15989c-349-23-745-74-1074-139-1411-279-2741-944-3806-1903-103-94-479-466-575-572-245-266-540-648-754-974-84-128-216-339-216-346 0-2-17-32-38-66-48-80-130-233-220-414-483-964-760-2009-832-3130-13-205-13-695 0-900 103-1610 645-3087 1600-4360 239-319 428-535 744-850 286-286 436-420 706-632 1606-1261 3672-1865 5705-1668 1734 169 3354 891 4645 2071 632 577 1156 1241 1589 2014 64 113 231 450 301 605 345 767 574 1625 659 2470 32 311 41 496 41 810 0 808-118 1588-356 2359-526 1697-1613 3186-3064 4197-1216 848-2616 1332-4135 1429-181 11-740 11-920-1z"/>
  </g>
  <g transform="matrix(.04188 0 0 .04188 75.616 54.993)" fill="#fff">
   <path d="m7751 13046c-6-17-62-222-127-456-195-713-262-951-266-956-3-2-398 103-879 234s-875 238-877 237c-3-3-112-1041-112-1071 0-17 8-23 33-28 75-14 558-147 627-172 101-38 181-113 204-193 28-95 21-155-43-390-33-119-139-504-236-856s-239-867-315-1145-193-703-260-945-142-514-166-605c-25-91-57-185-72-210-44-77-110-138-190-177-67-34-84-38-171-41-134-6-233 16-734 162-81 23-120 30-122 22-7-20-247-901-249-910 0-4 87-33 194-62 107-30 499-138 870-241 371-102 678-189 682-192s-81-323-188-711-192-710-190-715c2-6 28-17 57-24 30-8 222-61 428-117 206-57 376-103 377-101 1 1 88 315 193 697 106 382 194 696 196 698s137-35 302-83c164-48 318-92 343-100 35-10 44-17 42-31-2-11-87-320-188-689-101-368-184-674-184-680 0-9 858-250 865-243 2 2 91 322 198 711s196 710 199 712c2 3 42-2 89-10 416-74 899-94 1184-51 672 104 1078 440 1283 1061 196 592 97 1085-302 1499l-73 76h118c828 0 1344 393 1564 1190 130 470 135 910 15 1273-41 126-137 313-218 427-145 205-419 444-699 612-277 166-754 378-1083 483-30 10-58 20-62 24-4 3 71 290 166 636 96 347 185 671 198 721l25 91-426 117c-234 64-431 116-436 116-6 0-98-318-204-707-107-390-195-709-196-710-1-2-143 35-316 81s-329 87-346 91c-18 3-33 12-33 18 0 11 16 68 259 952 71 259 128 471 126 473-1 1-196 56-433 121l-431 118zm442-2762c928-243 1429-470 1733-785 93-98 132-151 179-252 54-113 70-186 69-317 0-211-79-419-214-563-317-339-883-384-1824-143-226 58-696 197-696 207 0 4 117 433 260 953s260 948 260 951c0 10 22 5 233-51zm-802-2789c657-172 1015-321 1295-540 97-76 161-145 225-243 60-91 87-161 107-277 19-113 7-234-39-369-102-305-310-473-660-532-82-13-140-16-298-11-227 6-400 32-681 103-171 42-609 170-618 179-4 4 126 484 431 1588 24 87 46 147 53 147 6 0 90-20 185-45z" fill="#fff"/>
  </g>
 </g>
 <text x="20.665077" y="18.485777" fill="#000000" font-family="sans-serif" font-size="10.583px" stroke-width=".26458" style="line-height:1.25" xml:space="preserve"><tspan x="20.665077" y="18.485777" stroke-width=".26458">:</tspan></text>
 <path d="m51.208 61.341 0.76434-0.76432 0.75697 0.75698 0.27927-0.27927-0.76065-0.76065 0.77903-0.77903-0.27927-0.27927-0.77168 0.77168-0.77168-0.77168-0.27927 0.27927 0.77168 0.77168-0.77168 0.77168zm-5.4789 0.19476v-7.0553l6.9819 2.9397h-0.47771q-0.305 0-0.57692 0.03675-0.27192 0.03674-0.49608 0.11023l-4.6962-1.9843v1.7492l2.6605 0.67613-2.6605 0.66144v1.7418l2.8663-1.2053q-0.08819 0.20946-0.14331 0.45749-0.05512 0.24804-0.06983 0.43912v0.0073zm6.2469 0.88192q-0.87825 0-1.5048-0.62285-0.62652-0.62285-0.62652-1.5011 0-0.8856 0.62652-1.5121 0.62652-0.62652 1.5048-0.62652 0.87823 0 1.5048 0.62652 0.62652 0.62652 0.62652 1.5121 0 0.87824-0.62652 1.5011-0.62654 0.62285-1.5048 0.62285zm-5.512-3.2116v-3.6232 4.8285z" stroke-width=".011024"/>
 <path d="m66.857 95.898-0.70742-0.7226 1.6725-1.6927h-5.2702v-1.0308h5.2702l-1.6725-1.6877 0.70742-0.7175 2.9105 2.9206z" stroke-width=".60007"/>
 <g transform="matrix(.0057557 .00147 -.00147 .0057557 47.682 86.033)">
  <path d="m390.76 724.61c-14.616-0.96324-31.201-3.0991-44.979-5.8213-59.093-11.684-114.79-39.535-159.39-79.697-4.3136-3.9367-20.06-19.516-24.081-23.955-10.261-11.14-22.615-27.138-31.577-40.791-3.5179-5.3606-9.0461-14.197-9.0461-14.49 0-0.0838-0.71196-1.3402-1.5914-2.7641-2.0102-3.3504-5.4444-9.758-9.2136-17.338-20.228-40.372-31.829-84.137-34.844-131.08-0.54444-8.5854-0.54444-29.107 0-37.692 4.3136-67.427 27.013-129.28 67.008-182.6 10.009-13.36 17.925-22.406 31.159-35.598 11.978-11.978 18.26-17.59 29.567-26.468 67.259-52.811 153.78-78.106 238.92-69.856 72.62 7.0777 140.47 37.315 194.53 86.733 26.468 24.165 48.413 51.973 66.547 84.346 2.6803 4.7324 9.6743 18.846 12.606 25.337 14.449 32.122 24.039 68.055 27.599 103.44 1.3402 13.025 1.7171 20.772 1.7171 33.923 0 33.839-4.9418 66.505-14.909 98.795-22.029 71.07-67.552 133.43-128.32 175.77-50.926 35.514-109.56 55.784-173.17 59.846-7.5803 0.46068-30.991 0.46068-38.53-0.0419z" fill="#db8e00"/>
  <g transform="matrix(.04188 0 0 .04188 75.616 54.993)" fill="#fff">
   <path d="m7751 13046c-6-17-62-222-127-456-195-713-262-951-266-956-3-2-398 103-879 234s-875 238-877 237c-3-3-112-1041-112-1071 0-17 8-23 33-28 75-14 558-147 627-172 101-38 181-113 204-193 28-95 21-155-43-390-33-119-139-504-236-856s-239-867-315-1145-193-703-260-945-142-514-166-605c-25-91-57-185-72-210-44-77-110-138-190-177-67-34-84-38-171-41-134-6-233 16-734 162-81 23-120 30-122 22-7-20-247-901-249-910 0-4 87-33 194-62 107-30 499-138 870-241 371-102 678-189 682-192s-81-323-188-711-192-710-190-715c2-6 28-17 57-24 30-8 222-61 428-117 206-57 376-103 377-101 1 1 88 315 193 697 106 382 194 696 196 698s137-35 302-83c164-48 318-92 343-100 35-10 44-17 42-31-2-11-87-320-188-689-101-368-184-674-184-680 0-9 858-250 865-243 2 2 91 322 198 711s196 710 199 712c2 3 42-2 89-10 416-74 899-94 1184-51 672 104 1078 440 1283 1061 196 592 97 1085-302 1499l-73 76h118c828 0 1344 393 1564 1190 130 470 135 910 15 1273-41 126-137 313-218 427-145 205-419 444-699 612-277 166-754 378-1083 483-30 10-58 20-62 24-4 3 71 290 166 636 96 347 185 671 198 721l25 91-426 117c-234 64-431 116-436 116-6 0-98-318-204-707-107-390-195-709-196-710-1-2-143 35-316 81s-329 87-346 91c-18 3-33 12-33 18 0 11 16 68 259 952 71 259 128 471 126 473-1 1-196 56-433 121l-431 118zm442-2762c928-243 1429-470 1733-785 93-98 132-151 179-252 54-113 70-186 69-317 0-211-79-419-214-563-317-339-883-384-1824-143-226 58-696 197-696 207 0 4 117 433 260 953s260 948 260 951c0 10 22 5 233-51zm-802-2789c657-172 1015-321 1295-540 97-76 161-145 225-243 60-91 87-161 107-277 19-113 7-234-39-369-102-305-310-473-660-532-82-13-140-16-298-11-227 6-400 32-681 103-171 42-609 170-618 179-4 4 126 484 431 1588 24 87 46 147 53 147 6 0 90-20 185-45z" fill="#fff"/>
  </g>
 </g>
 <path d="m20.879 98.173v-7.0435l4.1001-1.7426v1.1715l2.9287-1.1812v1.767h4.6859v7.0288zm0.97621-0.97621h9.7623v-5.0744h-4.6859v-1.3003l-2.9287 1.1715v-1.1519l-2.1477 0.95182zm4.393-1.3667h0.97621v-2.3429h-0.97621zm-2.3429 0h0.97621v-2.3429h-0.97621zm4.6859 0h0.97622v-2.3429h-0.97622zm4.0025-4.6859h-2.7334l0.58572-4.6859h1.562zm-10.738 6.0526h9.7623z" stroke-width=".014643"/>
 <path d="m37.572 96.69-0.55136-0.56319 1.3035-1.3193h-4.1075v-0.8034h4.1075l-1.3035-1.3154 0.55136-0.55922 2.2684 2.2763z" stroke-width=".46769"/>
 <path d="m17.728 97.281-0.55136-0.56319 1.3035-1.3193h-4.1075v-0.8034h4.1075l-1.3035-1.3154 0.55136-0.55922 2.2684 2.2763z" stroke-width=".46769"/>
 <path d="m7.9859 99.178q-0.92779 0-1.7438-0.35211-0.816-0.35211-1.4196-0.95573-0.60362-0.60362-0.95573-1.4196-0.35211-0.816-0.35211-1.7438 0-0.92778 0.35211-1.7438 0.35211-0.816 0.95573-1.4196 0.60362-0.60362 1.4196-0.95573 0.816-0.35211 1.7438-0.35211 0.92779 0 1.7438 0.35211 0.816 0.35211 1.4196 0.95573 0.60362 0.60362 0.95573 1.4196 0.35211 0.816 0.35211 1.7438 0 0.92779-0.35211 1.7438-0.35211 0.816-0.95573 1.4196-0.60362 0.60362-1.4196 0.95573-0.816 0.35211-1.7438 0.35211zm-0.46948-0.76011v-0.9017q-0.38378 0-0.6502-0.28132-0.26641-0.28132-0.26641-0.6651v-0.47694l-2.2431-2.2431q-0.048435 0.21612-0.072658 0.4285-0.024223 0.21238-0.024223 0.42849 0 1.4196 0.92593 2.4815 0.92592 1.0619 2.3306 1.2296zm3.2193-1.1849q0.23847-0.26082 0.42105-0.55704 0.18257-0.29622 0.3074-0.61853 0.12483-0.3223 0.18631-0.66136 0.06148-0.33908 0.06148-0.68932 0-1.1551-0.6353-2.1015-0.63529-0.94642-1.6972-1.3786v0.19376q0 0.38378-0.26642 0.6651-0.26641 0.28131-0.65019 0.28131h-0.94642v0.94642q0 0.19003-0.14345 0.31486-0.14346 0.12483-0.33349 0.12483h-0.91661v0.95386h2.8169q0.19003 0 0.31485 0.13973 0.12483 0.13973 0.12483 0.32976v1.3935h0.46948q0.31299 0 0.55518 0.18444 0.24218 0.18444 0.33161 0.47879z" stroke-width=".011178"/>
 <text x="18.326771" y="70.152092" fill="#000000" font-family="sans-serif" font-size="7.0553px" stroke-width=".26458" style="line-height:1.25" xml:space="preserve"><tspan x="18.326771" y="70.152092" font-family="'Noto Sans'" font-size="7.0553px" font-weight="600" stroke-width=".26458">BCH</tspan></text>
 <text x="67.659065" y="69.634987" fill="#000000" font-family="sans-serif" font-size="7.0553px" stroke-width=".26458" style="line-height:1.25" xml:space="preserve"><tspan x="67.659065" y="69.634987" font-family="'Noto Sans'" font-size="7.0553px" font-weight="600" stroke-width=".26458">BTC</tspan></text>
</svg>
