<?xml version="1.0" encoding="UTF-8" standalone="no"?>
<svg
   xmlns:dc="http://purl.org/dc/elements/1.1/"
   xmlns:cc="http://creativecommons.org/ns#"
   xmlns:rdf="http://www.w3.org/1999/02/22-rdf-syntax-ns#"
   xmlns:svg="http://www.w3.org/2000/svg"
   xmlns="http://www.w3.org/2000/svg"
   xmlns:sodipodi="http://sodipodi.sourceforge.net/DTD/sodipodi-0.dtd"
   xmlns:inkscape="http://www.inkscape.org/namespaces/inkscape"
   width="400"
   height="400"
   version="1.1"
   viewBox="0 0 105.83 105.83"
   id="svg124"
   sodipodi:docname="07.svg"
   inkscape:version="1.0.2 (e86c870879, 2021-01-15)">
  <metadata
     id="metadata130">
    <rdf:RDF>
      <cc:Work
         rdf:about="">
        <dc:format>image/svg+xml</dc:format>
        <dc:type
           rdf:resource="http://purl.org/dc/dcmitype/StillImage" />
      </cc:Work>
    </rdf:RDF>
  </metadata>
  <defs
     id="defs128" />
  <sodipodi:namedview
     pagecolor="#ffffff"
     bordercolor="#666666"
     borderopacity="1"
     objecttolerance="10"
     gridtolerance="10"
     guidetolerance="10"
     inkscape:pageopacity="0"
     inkscape:pageshadow="2"
     inkscape:window-width="1771"
     inkscape:window-height="1037"
     id="namedview126"
     showgrid="false"
     inkscape:zoom="1.5023593"
     inkscape:cx="296.90555"
     inkscape:cy="180.49116"
     inkscape:window-x="119"
     inkscape:window-y="57"
     inkscape:window-maximized="0"
     inkscape:current-layer="svg124"
     inkscape:document-rotation="0" />
  <rect
     width="105.49"
     height="105.49"
     ry="0.13327999"
     fill="#fff"
     id="rect2"
     style="fill:#ffffff"
     x="0"
     y="0" />
  <g
     transform="matrix(0.01059139,0.00270502,-0.00270502,0.01059139,48.017475,90.002177)"
     id="g106">
    <path
       d="m 390.76,724.61 c -14.616,-0.96324 -31.201,-3.0991 -44.979,-5.8213 -59.093,-11.684 -114.79,-39.535 -159.39,-79.697 -4.3136,-3.9367 -20.06,-19.516 -24.081,-23.955 -10.261,-11.14 -22.615,-27.138 -31.577,-40.791 -3.5179,-5.3606 -9.0461,-14.197 -9.0461,-14.49 0,-0.0838 -0.71196,-1.3402 -1.5914,-2.7641 -2.0102,-3.3504 -5.4444,-9.758 -9.2136,-17.338 -20.228,-40.372 -31.829,-84.137 -34.844,-131.08 -0.54444,-8.5854 -0.54444,-29.107 0,-37.692 4.3136,-67.427 27.013,-129.28 67.008,-182.6 10.009,-13.36 17.925,-22.406 31.159,-35.598 11.978,-11.978 18.26,-17.59 29.567,-26.468 67.259,-52.811 153.78,-78.106 238.92,-69.856 72.62,7.0777 140.47,37.315 194.53,86.733 26.468,24.165 48.413,51.973 66.547,84.346 2.6803,4.7324 9.6743,18.846 12.606,25.337 14.449,32.122 24.039,68.055 27.599,103.44 1.3402,13.025 1.7171,20.772 1.7171,33.923 0,33.839 -4.9418,66.505 -14.909,98.795 -22.029,71.07 -67.552,133.43 -128.32,175.77 -50.926,35.514 -109.56,55.784 -173.17,59.846 -7.5803,0.46068 -30.991,0.46068 -38.53,-0.0419 z"
       fill="#db8e00"
       id="path100" />
    <g
       transform="matrix(0.04188,0,0,0.04188,75.616,54.993)"
       fill="#ffffff"
       id="g104">
      <path
         d="m 7751,13046 c -6,-17 -62,-222 -127,-456 -195,-713 -262,-951 -266,-956 -3,-2 -398,103 -879,234 -481,131 -875,238 -877,237 -3,-3 -112,-1041 -112,-1071 0,-17 8,-23 33,-28 75,-14 558,-147 627,-172 101,-38 181,-113 204,-193 28,-95 21,-155 -43,-390 -33,-119 -139,-504 -236,-856 -97,-352 -239,-867 -315,-1145 -76,-278 -193,-703 -260,-945 -67,-242 -142,-514 -166,-605 -25,-91 -57,-185 -72,-210 -44,-77 -110,-138 -190,-177 -67,-34 -84,-38 -171,-41 -134,-6 -233,16 -734,162 -81,23 -120,30 -122,22 -7,-20 -247,-901 -249,-910 0,-4 87,-33 194,-62 107,-30 499,-138 870,-241 371,-102 678,-189 682,-192 4,-3 -81,-323 -188,-711 -107,-388 -192,-710 -190,-715 2,-6 28,-17 57,-24 30,-8 222,-61 428,-117 206,-57 376,-103 377,-101 1,1 88,315 193,697 106,382 194,696 196,698 2,2 137,-35 302,-83 164,-48 318,-92 343,-100 35,-10 44,-17 42,-31 -2,-11 -87,-320 -188,-689 -101,-368 -184,-674 -184,-680 0,-9 858,-250 865,-243 2,2 91,322 198,711 107,389 196,710 199,712 2,3 42,-2 89,-10 416,-74 899,-94 1184,-51 672,104 1078,440 1283,1061 196,592 97,1085 -302,1499 l -73,76 h 118 c 828,0 1344,393 1564,1190 130,470 135,910 15,1273 -41,126 -137,313 -218,427 -145,205 -419,444 -699,612 -277,166 -754,378 -1083,483 -30,10 -58,20 -62,24 -4,3 71,290 166,636 96,347 185,671 198,721 l 25,91 -426,117 c -234,64 -431,116 -436,116 -6,0 -98,-318 -204,-707 -107,-390 -195,-709 -196,-710 -1,-2 -143,35 -316,81 -173,46 -329,87 -346,91 -18,3 -33,12 -33,18 0,11 16,68 259,952 71,259 128,471 126,473 -1,1 -196,56 -433,121 l -431,118 z m 442,-2762 c 928,-243 1429,-470 1733,-785 93,-98 132,-151 179,-252 54,-113 70,-186 69,-317 0,-211 -79,-419 -214,-563 -317,-339 -883,-384 -1824,-143 -226,58 -696,197 -696,207 0,4 117,433 260,953 143,520 260,948 260,951 0,10 22,5 233,-51 z M 7391,7495 c 657,-172 1015,-321 1295,-540 97,-76 161,-145 225,-243 60,-91 87,-161 107,-277 19,-113 7,-234 -39,-369 -102,-305 -310,-473 -660,-532 -82,-13 -140,-16 -298,-11 -227,6 -400,32 -681,103 -171,42 -609,170 -618,179 -4,4 126,484 431,1588 24,87 46,147 53,147 6,0 90,-20 185,-45 z"
         fill="#ffffff"
         id="path102" />
    </g>
  </g>
  <path
     d="m 45.296446,94.174658 0.181624,-0.426326 2.641955,1.125594 -0.631849,1.483108 2.067243,0.884225 -0.308462,-0.766374 0.428129,-0.172325 0.597941,1.485635 -1.485566,0.59794 -0.170598,-0.423847 0.749236,-0.301572 -2.491875,-1.061616 0.631848,-1.483108 z"
     stroke-width="0.0069229"
     id="path4"
     style="fill:#008000" />
  <path
     d="m 71.767458,97.859623 v -4.409066 h 0.920484 v 4.409066 z m 3.33212,0 v -4.409066 h 0.920445 v 4.409066 z m -5.099535,1.840927 v -0.92044 h 11.045578 v 0.92044 z m 8.357949,-1.840927 v -4.409066 h 0.920484 v 4.409066 z m -8.357949,-5.329438 v -0.85602 l 5.522981,-3.019155 5.52298,3.019155 v 0.85602 z m 2.052616,-0.920445 h 6.940274 z m 0,0 h 6.940274 l -3.470175,-1.905394 z"
     stroke-width="0.0138071"
     id="path6" />
  <path
     d="m 46.970467,101.04241 v -1.170647 l 0.694131,-0.694132 h -2.351737 q -0.419575,0 -0.727766,-0.308198 -0.308198,-0.308205 -0.308198,-0.727765 v -7.252195 q 0,-0.419574 0.308198,-0.727766 0.308205,-0.308204 0.727766,-0.308204 h 10.360374 q 0.419573,0 0.727765,0.308204 0.308205,0.308199 0.308205,0.727766 v 7.252195 q 0,0.419574 -0.308205,0.727765 -0.308205,0.308198 -0.727765,0.308198 h -2.362056 l 0.704449,0.694132 v 1.170647 z M 45.312861,98.141661 H 55.673235 V 90.889467 H 45.312861 Z m 0,0 v -7.252194 z"
     stroke-width="0.0155396"
     id="path8" />
  <path
     d="m 51.811032,96.960497 -0.445035,-0.129165 0.800445,-2.757962 1.548179,0.44933 0.629834,-2.158464 -0.723835,0.398174 -0.222449,-0.404367 1.403152,-0.771836 0.771836,1.403152 -0.400318,0.220216 -0.389285,-0.707653 -0.754971,2.60126 -1.548178,-0.44933 z"
     stroke-width="0.0069229"
     id="path10"
     style="fill:#800000" />
  <g
     transform="matrix(0.14811076,-0.34269716,0.14402773,0.61654687,47.528586,53.023)"
     style="white-space:pre;shape-inside:url(#rect26725)"
     aria-label="$$$$"
     id="g20">
    <path
       d="M 7.2088,65.218 Q 6.62672,65.207417 6.0764,65.12275 5.52607,65.0275 5.1874,64.86875 v -0.89958 q 0.35983,0.16933 0.92075,0.29633 0.56091,0.127 1.1007,0.13758 v -2.1378 q -1.0477,-0.28575 -1.5346,-0.71966 -0.48683,-0.43392 -0.48683,-1.1853 0,-0.78316 0.53975,-1.2277 0.55033,-0.4445 1.4817,-0.49742 V 57.70387 H 7.8862 v 0.92075 q 0.56091,0.01058 1.016,0.127 0.46567,0.10583 0.84666,0.26458 L 9.46311,59.79936 Q 9.12444,59.66178 8.7117,59.56653 8.30953,59.4607 7.8862,59.42895 v 2.1272 q 0.6985,0.20108 1.1642,0.43392 0.46567,0.22225 0.6985,0.56091 0.24342,0.32808 0.24342,0.85725 0,0.74083 -0.55033,1.2065 -0.55033,0.45508 -1.5557,0.56092 v 1.1747 H 7.20896 Z m 0,-5.7679 q -0.5715,0.04233 -0.84666,0.26458 -0.26458,0.22225 -0.26458,0.5715 0,0.42333 0.23283,0.65616 0.24342,0.22225 0.87841,0.381 z m 0.67733,4.9001 q 0.62441,-0.0635 0.91016,-0.28575 0.28575,-0.23283 0.28575,-0.59266 0,-0.40216 -0.254,-0.60325 -0.254,-0.21167 -0.94191,-0.381 z"
       id="path12" />
    <path
       d="m 13.262,65.218 q -0.58208,-0.01058 -1.1324,-0.09525 -0.55033,-0.09525 -0.889,-0.254 v -0.89958 q 0.35983,0.16933 0.92075,0.29633 0.56092,0.127 1.1007,0.13758 v -2.1378 q -1.0477,-0.28575 -1.5346,-0.71966 -0.4869,-0.43391 -0.48683,-1.1853 0,-0.78316 0.53975,-1.2277 0.55033,-0.4445 1.4817,-0.49742 v -0.93133 h 0.67733 v 0.92075 q 0.56092,0.01058 1.016,0.127 0.46567,0.10583 0.84666,0.26458 l -0.28575,0.78316 Q 15.17765,59.66178 14.7649,59.56653 14.36274,59.4607 13.9394,59.42895 v 2.1272 q 0.6985,0.20108 1.1642,0.43392 0.46566,0.22225 0.6985,0.56091 0.24342,0.32808 0.24342,0.85725 0,0.74083 -0.55033,1.2065 -0.55033,0.45508 -1.5557,0.56092 v 1.1747 h -0.67733 z m 0,-5.7679 q -0.5715,0.04233 -0.84666,0.26458 -0.26458,0.22225 -0.26458,0.5715 0,0.42333 0.23283,0.65616 0.24342,0.22225 0.87841,0.381 z m 0.67733,4.9001 q 0.62441,-0.0635 0.91016,-0.28575 0.28575,-0.23283 0.28575,-0.59266 0,-0.40216 -0.254,-0.60325 -0.254,-0.21167 -0.94191,-0.381 z"
       id="path14" />
    <path
       d="m 19.316,65.218 q -0.58208,-0.01058 -1.1324,-0.09525 -0.55033,-0.09525 -0.889,-0.254 v -0.89958 q 0.35983,0.16933 0.92075,0.29633 0.56092,0.127 1.1007,0.13758 v -2.1378 q -1.0477,-0.28575 -1.5346,-0.71966 -0.4869,-0.43391 -0.48683,-1.1853 0,-0.78316 0.53975,-1.2277 0.55033,-0.4445 1.4817,-0.49742 v -0.93133 h 0.67733 v 0.92075 q 0.56092,0.01058 1.016,0.127 0.46566,0.10583 0.84666,0.26458 l -0.28575,0.78316 Q 21.23165,59.66178 20.8189,59.56653 20.41673,59.4607 19.9934,59.42895 v 2.1272 q 0.6985,0.20108 1.1642,0.43392 0.46567,0.22225 0.6985,0.56091 0.24342,0.32808 0.24342,0.85725 0,0.74083 -0.55033,1.2065 -0.55033,0.45508 -1.5557,0.56092 v 1.1747 h -0.67733 z m 0,-5.7679 q -0.5715,0.04233 -0.84666,0.26458 -0.26458,0.22225 -0.26458,0.5715 0,0.42333 0.23283,0.65616 0.24342,0.22225 0.87841,0.381 z m 0.67733,4.9001 q 0.62442,-0.0635 0.91016,-0.28575 0.28575,-0.23283 0.28575,-0.59266 0,-0.40216 -0.254,-0.60325 -0.254,-0.21167 -0.94191,-0.381 z"
       id="path16" />
    <path
       d="m 25.37,65.218 q -0.58208,-0.01058 -1.1324,-0.09525 -0.55033,-0.09525 -0.889,-0.254 v -0.89958 q 0.35983,0.16933 0.92075,0.29633 0.56092,0.127 1.1007,0.13758 v -2.1378 q -1.0477,-0.28575 -1.5346,-0.71966 -0.48683,-0.43392 -0.48683,-1.1853 0,-0.78316 0.53975,-1.2277 0.55033,-0.4445 1.4817,-0.49742 v -0.93133 h 0.67733 v 0.92075 q 0.56092,0.01058 1.016,0.127 0.46566,0.10583 0.84666,0.26458 l -0.28575,0.78316 Q 27.28564,59.66178 26.8729,59.56653 26.47073,59.4607 26.0474,59.42895 v 2.1272 q 0.6985,0.20108 1.1642,0.43392 0.46566,0.22225 0.6985,0.56091 0.24342,0.32808 0.24342,0.85725 0,0.74083 -0.55033,1.2065 -0.55033,0.45508 -1.5557,0.56092 v 1.1747 h -0.67733 z m 0,-5.7679 q -0.5715,0.04233 -0.84666,0.26458 -0.26458,0.22225 -0.26458,0.5715 0,0.42333 0.23283,0.65616 0.24342,0.22225 0.87841,0.381 z m 0.67733,4.9001 q 0.62442,-0.0635 0.91016,-0.28575 0.28575,-0.23283 0.28575,-0.59266 0,-0.40216 -0.254,-0.60325 -0.254,-0.21167 -0.94191,-0.381 z"
       id="path18" />
  </g>
  <path
     d="m 58.402267,95.17439 q 0.06976,0 0.119949,-0.05019 0.05019,-0.05019 0.05019,-0.11995 0,-0.06975 -0.05019,-0.119942 -0.05019,-0.05019 -0.119949,-0.05019 -0.06976,0 -0.11995,0.05019 -0.05019,0.05019 -0.05019,0.119942 0,0.06976 0.05019,0.11995 0.05019,0.05019 0.11995,0.05019 z m -0.170138,-0.850727 h 0.340275 v -1.194384 h -0.340275 z m 1.085468,0.867714 h 1.425742 v -0.340275 h -1.425742 z m 0,-0.867714 h 1.425742 V 93.98338 h -1.425742 z m 0,-0.854109 h 1.425742 v -0.340275 h -1.425742 z m -1.558488,2.528275 q -0.137816,0 -0.239041,-0.101237 -0.101237,-0.101225 -0.101237,-0.239042 v -2.994453 q 0,-0.137817 0.101237,-0.239043 0.101225,-0.101225 0.239041,-0.101225 h 3.45725 q 0.137816,0 0.239041,0.101225 0.101237,0.101226 0.101237,0.239043 v 2.994453 q 0,0.137817 -0.101237,0.239042 -0.101225,0.101237 -0.239041,0.101237 z m 0,-0.340275 h 3.45725 v -2.994452 h -3.45725 z m 0,0 v -2.994452 z"
     stroke-width="0.00510405"
     id="path24" />
  <path
     d="m 59.297696,90.962889 0.751898,-2.103294 1.359248,1.348733 z m 0.439067,-0.439067 1.196195,-0.425903 -0.772997,-0.775591 z m 1.474914,-1.017439 -0.144603,-0.144603 0.925397,-0.925398 q 0.126195,-0.126195 0.314183,-0.127512 0.187982,-0.0013 0.314177,0.124883 l 0.07624,0.07624 -0.144603,0.144596 -0.0815,-0.0815 q -0.06836,-0.06836 -0.161687,-0.06967 -0.09333,-0.0013 -0.164322,0.06967 z m -0.628339,-0.617824 -0.144603,-0.144596 0.110422,-0.110423 q 0.07888,-0.07888 0.07493,-0.182723 -0.004,-0.103847 -0.07493,-0.174838 l -0.107787,-0.107793 0.144597,-0.144597 0.102536,0.102536 q 0.134081,0.134088 0.13277,0.329949 -0.0014,0.195868 -0.135399,0.329949 z m 0.318116,0.307608 -0.144596,-0.144596 0.588921,-0.588921 q 0.06836,-0.06835 0.06704,-0.17352 -0.0014,-0.105165 -0.06967,-0.17352 l -0.244504,-0.244503 0.144597,-0.144604 0.249768,0.249768 q 0.123566,0.126195 0.126194,0.312859 0.0025,0.186663 -0.123566,0.312858 z m 0.625731,0.628339 -0.144597,-0.144603 0.207694,-0.207694 q 0.134088,-0.134088 0.322063,-0.136717 0.187981,-0.0027 0.322069,0.131453 l 0.218209,0.218215 -0.144596,0.144603 -0.220845,-0.220844 q -0.07888,-0.07888 -0.172208,-0.07888 -0.09334,0 -0.172209,0.07888 z"
     stroke-width="0.00394351"
     id="path26" />
  <g
     transform="matrix(0.032147,0,0,0.032147,15.26875,26.531)"
     id="g36">
    <g
       transform="matrix(0.04188,0,0,0.04188,75.616,54.993)"
       fill="#8dc351"
       id="g30">
      <path
         d="m 7525,15989 c -349,-23 -745,-74 -1074,-139 -1411,-279 -2741,-944 -3806,-1903 -103,-94 -479,-466 -575,-572 -245,-266 -540,-648 -754,-974 -84,-128 -216,-339 -216,-346 0,-2 -17,-32 -38,-66 -48,-80 -130,-233 -220,-414 C 359,10611 82,9566 10,8445 -3,8240 -3,7750 10,7545 113,5935 655,4458 1610,3185 c 239,-319 428,-535 744,-850 286,-286 436,-420 706,-632 C 4666,442 6732,-162 8765,35 c 1734,169 3354,891 4645,2071 632,577 1156,1241 1589,2014 64,113 231,450 301,605 345,767 574,1625 659,2470 32,311 41,496 41,810 0,808 -118,1588 -356,2359 -526,1697 -1613,3186 -3064,4197 -1216,848 -2616,1332 -4135,1429 -181,11 -740,11 -920,-1 z"
         id="path28" />
    </g>
    <g
       transform="matrix(0.04188,0,0,0.04188,75.616,54.993)"
       fill="#ffffff"
       id="g34">
      <path
         d="m 7751,13046 c -6,-17 -62,-222 -127,-456 -195,-713 -262,-951 -266,-956 -3,-2 -398,103 -879,234 -481,131 -875,238 -877,237 -3,-3 -112,-1041 -112,-1071 0,-17 8,-23 33,-28 75,-14 558,-147 627,-172 101,-38 181,-113 204,-193 28,-95 21,-155 -43,-390 -33,-119 -139,-504 -236,-856 -97,-352 -239,-867 -315,-1145 -76,-278 -193,-703 -260,-945 -67,-242 -142,-514 -166,-605 -25,-91 -57,-185 -72,-210 -44,-77 -110,-138 -190,-177 -67,-34 -84,-38 -171,-41 -134,-6 -233,16 -734,162 -81,23 -120,30 -122,22 -7,-20 -247,-901 -249,-910 0,-4 87,-33 194,-62 107,-30 499,-138 870,-241 371,-102 678,-189 682,-192 4,-3 -81,-323 -188,-711 -107,-388 -192,-710 -190,-715 2,-6 28,-17 57,-24 30,-8 222,-61 428,-117 206,-57 376,-103 377,-101 1,1 88,315 193,697 106,382 194,696 196,698 2,2 137,-35 302,-83 164,-48 318,-92 343,-100 35,-10 44,-17 42,-31 -2,-11 -87,-320 -188,-689 -101,-368 -184,-674 -184,-680 0,-9 858,-250 865,-243 2,2 91,322 198,711 107,389 196,710 199,712 2,3 42,-2 89,-10 416,-74 899,-94 1184,-51 672,104 1078,440 1283,1061 196,592 97,1085 -302,1499 l -73,76 h 118 c 828,0 1344,393 1564,1190 130,470 135,910 15,1273 -41,126 -137,313 -218,427 -145,205 -419,444 -699,612 -277,166 -754,378 -1083,483 -30,10 -58,20 -62,24 -4,3 71,290 166,636 96,347 185,671 198,721 l 25,91 -426,117 c -234,64 -431,116 -436,116 -6,0 -98,-318 -204,-707 -107,-390 -195,-709 -196,-710 -1,-2 -143,35 -316,81 -173,46 -329,87 -346,91 -18,3 -33,12 -33,18 0,11 16,68 259,952 71,259 128,471 126,473 -1,1 -196,56 -433,121 l -431,118 z m 442,-2762 c 928,-243 1429,-470 1733,-785 93,-98 132,-151 179,-252 54,-113 70,-186 69,-317 0,-211 -79,-419 -214,-563 -317,-339 -883,-384 -1824,-143 -226,58 -696,197 -696,207 0,4 117,433 260,953 143,520 260,948 260,951 0,10 22,5 233,-51 z M 7391,7495 c 657,-172 1015,-321 1295,-540 97,-76 161,-145 225,-243 60,-91 87,-161 107,-277 19,-113 7,-234 -39,-369 -102,-305 -310,-473 -660,-532 -82,-13 -140,-16 -298,-11 -227,6 -400,32 -681,103 -171,42 -609,170 -618,179 -4,4 126,484 431,1588 24,87 46,147 53,147 6,0 90,-20 185,-45 z"
         fill="#ffffff"
         id="path32" />
    </g>
  </g>
  <text
     x="48.302071"
     y="60.119843"
     fill="#000000"
     font-family="sans-serif"
     font-size="12.1914px"
     stroke-width="0.126993"
     style="line-height:1.25"
     xml:space="preserve"
     id="text40"><tspan
       x="48.302071"
       y="60.119843"
       font-size="12.1914px"
       stroke-width="0.126993"
       id="tspan38">≠</tspan></text>
  <g
     transform="matrix(.031147 .0079549 -.0079549 .031147 66.878 23.59)"
     id="g48">
    <path
       d="m390.76 724.61c-14.616-0.96324-31.201-3.0991-44.979-5.8213-59.093-11.684-114.79-39.535-159.39-79.697-4.3136-3.9367-20.06-19.516-24.081-23.955-10.261-11.14-22.615-27.138-31.577-40.791-3.5179-5.3606-9.0461-14.197-9.0461-14.49 0-0.0838-0.71196-1.3402-1.5914-2.7641-2.0102-3.3504-5.4444-9.758-9.2136-17.338-20.228-40.372-31.829-84.137-34.844-131.08-0.54444-8.5854-0.54444-29.107 0-37.692 4.3136-67.427 27.013-129.28 67.008-182.6 10.009-13.36 17.925-22.406 31.159-35.598 11.978-11.978 18.26-17.59 29.567-26.468 67.259-52.811 153.78-78.106 238.92-69.856 72.62 7.0777 140.47 37.315 194.53 86.733 26.468 24.165 48.413 51.973 66.547 84.346 2.6803 4.7324 9.6743 18.846 12.606 25.337 14.449 32.122 24.039 68.055 27.599 103.44 1.3402 13.025 1.7171 20.772 1.7171 33.923 0 33.839-4.9418 66.505-14.909 98.795-22.029 71.07-67.552 133.43-128.32 175.77-50.926 35.514-109.56 55.784-173.17 59.846-7.5803 0.46068-30.991 0.46068-38.53-0.0419z"
       fill="#db8e00"
       id="path42" />
    <g
       transform="matrix(.04188 0 0 .04188 75.616 54.993)"
       fill="#fff"
       id="g46">
      <path
         d="m7751 13046c-6-17-62-222-127-456-195-713-262-951-266-956-3-2-398 103-879 234s-875 238-877 237c-3-3-112-1041-112-1071 0-17 8-23 33-28 75-14 558-147 627-172 101-38 181-113 204-193 28-95 21-155-43-390-33-119-139-504-236-856s-239-867-315-1145-193-703-260-945-142-514-166-605c-25-91-57-185-72-210-44-77-110-138-190-177-67-34-84-38-171-41-134-6-233 16-734 162-81 23-120 30-122 22-7-20-247-901-249-910 0-4 87-33 194-62 107-30 499-138 870-241 371-102 678-189 682-192s-81-323-188-711-192-710-190-715c2-6 28-17 57-24 30-8 222-61 428-117 206-57 376-103 377-101 1 1 88 315 193 697 106 382 194 696 196 698s137-35 302-83c164-48 318-92 343-100 35-10 44-17 42-31-2-11-87-320-188-689-101-368-184-674-184-680 0-9 858-250 865-243 2 2 91 322 198 711s196 710 199 712c2 3 42-2 89-10 416-74 899-94 1184-51 672 104 1078 440 1283 1061 196 592 97 1085-302 1499l-73 76h118c828 0 1344 393 1564 1190 130 470 135 910 15 1273-41 126-137 313-218 427-145 205-419 444-699 612-277 166-754 378-1083 483-30 10-58 20-62 24-4 3 71 290 166 636 96 347 185 671 198 721l25 91-426 117c-234 64-431 116-436 116-6 0-98-318-204-707-107-390-195-709-196-710-1-2-143 35-316 81s-329 87-346 91c-18 3-33 12-33 18 0 11 16 68 259 952 71 259 128 471 126 473-1 1-196 56-433 121l-431 118zm442-2762c928-243 1429-470 1733-785 93-98 132-151 179-252 54-113 70-186 69-317 0-211-79-419-214-563-317-339-883-384-1824-143-226 58-696 197-696 207 0 4 117 433 260 953s260 948 260 951c0 10 22 5 233-51zm-802-2789c657-172 1015-321 1295-540 97-76 161-145 225-243 60-91 87-161 107-277 19-113 7-234-39-369-102-305-310-473-660-532-82-13-140-16-298-11-227 6-400 32-681 103-171 42-609 170-618 179-4 4 126 484 431 1588 24 87 46 147 53 147 6 0 90-20 185-45z"
         fill="#fff"
         id="path44" />
    </g>
  </g>
  <path
     d="m 31.1818,55.122 q -0.28295,0 -0.47219,-0.18925 -0.18925,-0.18924 -0.18925,-0.47219 0,-0.28295 0.18925,-0.47219 0.18924,-0.18925 0.47219,-0.18925 0.28295,0 0.47219,0.18925 0.18925,0.18924 0.18925,0.47219 0,0.28295 -0.18925,0.47219 Q 31.46475,55.122 31.1818,55.122 Z m -3.9686,0 q -0.28295,0 -0.47219,-0.18925 -0.18925,-0.18924 -0.18925,-0.47219 0,-0.28295 0.18925,-0.47219 0.18924,-0.18925 0.47219,-0.18925 0.28295,0 0.47219,0.18925 0.18925,0.18924 0.18925,0.47219 0,0.28295 -0.18925,0.47219 Q 27.49615,55.122 27.2132,55.122 Z m 1.9843,1.2126 q -0.28295,0 -0.47219,-0.18925 -0.18925,-0.18924 -0.18925,-0.47219 0,-0.28295 0.18925,-0.47219 0.18924,-0.18925 0.47219,-0.18925 0.28295,0 0.47219,0.18925 0.18925,0.18924 0.18925,0.47219 0,0.28295 -0.18925,0.47219 -0.18924,0.18925 -0.47219,0.18925 z m 0,-2.4253 q -0.28295,0 -0.47219,-0.18925 -0.18925,-0.18924 -0.18925,-0.47219 0,-0.28295 0.18925,-0.47219 0.18924,-0.18925 0.47219,-0.18925 0.28295,0 0.47219,0.18925 0.18925,0.18924 0.18925,0.47219 0,0.28295 -0.18925,0.47219 -0.18924,0.18925 -0.47219,0.18925 z m 0,5.7325 q -0.21313,0 -0.43545,-0.03307 -0.22232,-0.03307 -0.43178,-0.08819 v -1.5838 q 0,-0.38584 0.24804,-0.66327 0.24804,-0.27744 0.61918,-0.27744 0.37114,0 0.61918,0.27744 0.24804,0.27743 0.24804,0.66327 v 1.5838 q -0.20946,0.05512 -0.43178,0.08819 -0.22232,0.03307 -0.43545,0.03307 z m -1.5287,-0.34541 q -0.21313,-0.08819 -0.42074,-0.19843 -0.20762,-0.11024 -0.39503,-0.24253 -0.30867,-0.21314 -0.49057,-0.5659 -0.1819,-0.35277 -0.1819,-0.75697 0,-0.28662 -0.05695,-0.54202 -0.05696,-0.25539 -0.21865,-0.47587 -0.11758,-0.13596 -0.42074,-0.42442 -0.30316,-0.28845 -0.55671,-0.542 -0.13597,-0.14331 -0.13597,-0.3197 0,-0.17638 0.13597,-0.31235 0.14331,-0.14331 0.30867,-0.14331 0.16536,0 0.30867,0.14331 l 1.694,1.5985 q 0.21314,0.19843 0.32154,0.4722 0.1084,0.27376 0.1084,0.56038 z m 3.0573,0 v -1.7491 q 0,-0.28662 0.12861,-0.56222 0.12862,-0.2756 0.33807,-0.47036 l 1.6573,-1.5985 q 0.13229,-0.12126 0.31418,-0.12126 0.1819,0 0.30316,0.12126 0.13597,0.13597 0.13597,0.31235 0,0.17638 -0.13597,0.3197 -0.25355,0.25355 -0.55671,0.53282 -0.30316,0.27927 -0.42074,0.43361 -0.16169,0.22048 -0.21865,0.47587 -0.05695,0.25539 -0.05695,0.54202 0,0.4042 -0.1819,0.75881 -0.1819,0.35461 -0.49425,0.56773 -0.18372,0.12126 -0.39135,0.23517 -0.20762,0.11392 -0.42074,0.20211 z"
     stroke-width="0.011024"
     id="path64" />
  <path
     d="m 74.366967,57.642414 v -2.817208 h 0.588156 v 2.817208 z m 2.129102,0 v -2.817208 h 0.588129 v 2.817208 z m -3.258439,1.176258 v -0.588129 h 7.057682 v 0.588129 z m 5.340419,-1.176258 v -2.817208 h 0.588155 v 2.817208 z M 73.23763,54.237077 v -0.546965 l 3.528976,-1.929149 3.528976,1.929149 v 0.546965 z m 1.31156,-0.588129 h 4.434562 z m 0,0 h 4.434562 L 76.766404,52.4315 Z"
     stroke-width="0.00882193"
     id="path78" />
  <path
     d="m 40.80617,34.946018 v 12.575446 l 12.444618,-5.239755 h -0.851477 c -0.362423,0 -0.705193,-0.02184 -1.028308,-0.06551 -0.323115,-0.04365 -0.617855,-0.109145 -0.884219,-0.196475 l -8.37056,3.536841 V 42.43877 l 4.742106,-1.205141 -4.742106,-1.178958 v -3.104604 l 5.108926,2.14834 c -0.104794,-0.248896 -0.18994,-0.520708 -0.255437,-0.815435 -0.0655,-0.29474 -0.106989,-0.555638 -0.124466,-0.782693 v -0.01301 z m 1.309894,4.152448 v 6.458032 -8.606373 z"
     stroke-width="0.0196493"
     id="path96"
     sodipodi:nodetypes="cccsccccccccsccccccc" />
  <path
     d="m 23.52475,100.81875 v -7.0435 l 4.1001,-1.7426 v 1.1715 l 2.9287,-1.1812 v 1.767 h 4.6859 v 7.0288 z m 0.97621,-0.97621 h 9.7623 v -5.0744 h -4.6859 v -1.3003 l -2.9287,1.1715 v -1.1519 l -2.1477,0.95182 z m 4.393,-1.3667 h 0.97621 v -2.3429 h -0.97621 z m -2.3429,0 h 0.97621 v -2.3429 h -0.97621 z m 4.6859,0 h 0.97622 v -2.3429 h -0.97622 z m 4.0025,-4.6859 h -2.7334 l 0.58572,-4.6859 h 1.562 z m -10.738,6.0526 h 9.7623 z"
     stroke-width="0.014643"
     id="path108" />
  <path
     d="m 40.21775,96.69 -0.55136,-0.56319 1.3035,-1.3193 h -4.1075 v -0.8034 h 4.1075 l -1.3035,-1.3154 0.55136,-0.55922 2.2684,2.2763 z"
     stroke-width="0.46769"
     id="path110" />
  <path
     d="m 18.7863,97.281 -0.55136,-0.56319 1.3035,-1.3193 h -4.1075 v -0.8034 h 4.1075 l -1.3035,-1.3154 0.55136,-0.55922 2.2684,2.2763 z"
     stroke-width="0.46769"
     id="path112" />
  <path
     d="m 7.616888,98.881741 q -0.92779,0 -1.7437999,-0.35211 -0.816,-0.35211 -1.4196,-0.95573 -0.60362,-0.60362 -0.95573,-1.4196 -0.35211,-0.816 -0.35211,-1.7438 0,-0.92778 0.35211,-1.7438 0.35211,-0.816 0.95573,-1.4196 0.60362,-0.60362 1.4196,-0.95573 0.8159999,-0.35211 1.7437999,-0.35211 0.92779,0 1.7438,0.35211 0.816,0.35211 1.4196,0.95573 0.60362,0.60362 0.95573,1.4196 0.35211,0.816 0.35211,1.7438 0,0.92779 -0.35211,1.7438 -0.35211,0.816 -0.95573,1.4196 -0.60362,0.60362 -1.4196,0.95573 -0.816,0.35211 -1.7438,0.35211 z m -0.46948,-0.76011 v -0.9017 q -0.38378,0 -0.6501999,-0.28132 -0.26641,-0.28132 -0.26641,-0.6651 v -0.47694 l -2.2431,-2.2431 q -0.048435,0.21612 -0.072658,0.4285 -0.024223,0.21238 -0.024223,0.42849 0,1.4196 0.92593,2.4815 0.92592,1.0619 2.3305999,1.2296 z m 3.2193,-1.1849 q 0.23847,-0.26082 0.42105,-0.55704 0.18257,-0.29622 0.3074,-0.61853 0.12483,-0.3223 0.18631,-0.66136 0.06148,-0.33908 0.06148,-0.68932 0,-1.1551 -0.6353,-2.1015 -0.63529,-0.94642 -1.6972,-1.3786 v 0.19376 q 0,0.38378 -0.26642,0.6651 -0.26641,0.28131 -0.65019,0.28131 h -0.94642 v 0.94642 q 0,0.19003 -0.14345,0.31486 -0.14346,0.12483 -0.33349,0.12483 H 5.7538681 v 0.95386 H 8.570768 q 0.19003,0 0.31485,0.13973 0.12483,0.13973 0.12483,0.32976 v 1.3935 h 0.46948 q 0.31299,0 0.55518,0.18444 0.24218,0.18444 0.33161,0.47879 z"
     stroke-width="0.011178"
     id="path114" />
  <text
     x="22.559971"
     y="68.035484"
     fill="#000000"
     font-family="sans-serif"
     font-size="7.0553px"
     stroke-width="0.26458"
     style="line-height:1.25"
     xml:space="preserve"
     id="text118"><tspan
       x="22.559971"
       y="68.035484"
       font-family="'Noto Sans'"
       font-size="7.0553px"
       font-weight="600"
       stroke-width="0.26458"
       id="tspan116">BCH</tspan></text>
  <text
     x="70.304825"
     y="67.518379"
     fill="#000000"
     font-family="sans-serif"
     font-size="7.0553px"
     stroke-width="0.26458"
     style="line-height:1.25"
     xml:space="preserve"
     id="text122"><tspan
       x="70.304825"
       y="67.518379"
       font-family="'Noto Sans'"
       font-size="7.0553px"
       font-weight="600"
       stroke-width="0.26458"
       id="tspan120">BTC</tspan></text>
  <path
     d="m 96.849285,99.059038 q -0.92779,0 -1.7438,-0.35211 -0.816,-0.35211 -1.4196,-0.95573 -0.60362,-0.60362 -0.95573,-1.4196 -0.35211,-0.816 -0.35211,-1.7438 0,-0.92778 0.35211,-1.7438 0.35211,-0.816 0.95573,-1.4196 0.60362,-0.60362 1.4196,-0.95573 0.816,-0.35211 1.7438,-0.35211 0.92779,0 1.7438,0.35211 0.816005,0.35211 1.419605,0.95573 0.60362,0.60362 0.95572,1.4196 0.35211,0.816 0.35211,1.7438 0,0.92779 -0.35211,1.7438 -0.3521,0.816 -0.95572,1.4196 -0.60362,0.60362 -1.419605,0.95573 -0.816,0.35211 -1.7438,0.35211 z m -0.46948,-0.76011 v -0.9017 q -0.38378,0 -0.6502,-0.28132 -0.26641,-0.28132 -0.26641,-0.6651 v -0.47694 l -2.2431,-2.2431 q -0.04843,0.21612 -0.07266,0.4285 -0.02422,0.21238 -0.02422,0.42849 0,1.4196 0.92593,2.4815 0.92592,1.0619 2.3306,1.2296 z m 3.219305,-1.1849 q 0.23847,-0.26082 0.42105,-0.55704 0.18257,-0.29622 0.3074,-0.61853 0.12483,-0.3223 0.18631,-0.66136 0.0615,-0.33908 0.0615,-0.68932 0,-1.1551 -0.6353,-2.1015 -0.63529,-0.94642 -1.697205,-1.3786 v 0.19376 q 0,0.38378 -0.26642,0.6651 -0.26641,0.28131 -0.65019,0.28131 h -0.94642 v 0.94642 q 0,0.19003 -0.14345,0.31486 -0.14346,0.12483 -0.33349,0.12483 h -0.91661 v 0.95386 h 2.8169 q 0.19003,0 0.31485,0.13973 0.12483,0.13973 0.12483,0.32976 v 1.3935 h 0.46948 q 0.312995,0 0.555185,0.18444 0.24218,0.18444 0.33161,0.47879 z"
     stroke-width="0.011178"
     id="path114-3" />
  <path
     d="m 86.567916,97.289881 -0.605851,-0.618851 1.432367,-1.449667 h -4.513519 v -0.882801 h 4.513519 l -1.432367,-1.445393 0.605851,-0.614483 2.492618,2.501268 z"
     stroke-width="0.513914"
     id="path98-6" />
  <path
     style="fill:none;stroke:#000000;stroke-width:0.582065;stroke-linecap:butt;stroke-linejoin:miter;stroke-miterlimit:4;stroke-dasharray:none;stroke-opacity:1"
     d="m 33.511747,88.349823 c 0.289654,-0.171664 0.414687,-0.795148 0.07833,-0.972837 -0.251304,-0.132758 -0.365277,0.04369 -0.449343,-0.288556 -0.05797,-0.229122 -0.074,-0.467514 -0.131917,-0.696649 -0.152475,-0.603231 -0.358603,-1.120129 -0.894566,-1.47575 -0.152374,-0.101102 -0.361205,-0.137922 -0.540037,-0.152522 -0.156856,-0.01281 -0.0287,0.210017 -0.0742,0.177255 -0.428778,-0.308703 -0.832966,-0.867137 -1.422233,-0.849172 -0.35448,0.0108 -0.714636,0.238959 -1.018236,0.408096 -0.05139,0.02863 -0.157145,0.123419 -0.173141,0.115424 -0.09683,-0.04841 -0.17762,-0.126316 -0.267957,-0.185499 -0.113574,-0.07441 -0.226317,-0.133764 -0.346283,-0.193743"
     id="path995" />
  <path
     style="fill:none;stroke:#000000;stroke-width:0.582065;stroke-linecap:butt;stroke-linejoin:miter;stroke-miterlimit:4;stroke-dasharray:none;stroke-opacity:1"
     d="m 33.511747,88.349823 c -0.367413,-0.03117 -0.630609,0.242232 -0.977012,0.296801 -0.668981,0.10538 -1.772163,-0.57762 -2.213736,-1.038796 -0.04611,-0.04815 -0.227966,-0.274018 -0.267956,-0.39573 -0.01842,-0.05607 -0.03434,-0.114177 -0.0371,-0.173133 -0.0051,-0.108422 0.08076,-0.123667 0.05359,-0.123667 -0.03476,0 -0.0654,0.02384 -0.09894,0.03298 -0.117082,0.03193 -0.254791,0.0414 -0.375138,0.02474 -0.504621,-0.06987 -1.157338,-0.667242 -1.51705,-1.001694 -0.09324,-0.08669 -0.183961,-0.176062 -0.276202,-0.263821 -0.230426,-0.21923 -0.265292,-0.190169 -0.313303,-0.507032"
     id="path997" />
  <path
     d="m 99.63946,90.488099 1.17691,-1.17688 1.16557,1.165578 0.43001,-0.430013 -1.17123,-1.171228 1.19953,-1.19953 -0.43001,-0.430012 -1.18821,1.188212 -1.18822,-1.188212 -0.43001,0.430012 1.18821,1.188212 -1.18821,1.188213 z m 1.18255,1.657843 c -0.90154,0 -1.67389,-0.319688 -2.317054,-0.959048 -0.643132,-0.63936 -0.964698,-1.409816 -0.964698,-2.311354 0,-0.909082 0.321566,-1.685174 0.964698,-2.328291 0.643134,-0.643132 1.415484,-0.964699 2.317054,-0.964699 0.90152,0 1.67387,0.321567 2.31705,0.964699 0.64313,0.643133 0.9647,1.419225 0.9647,2.328291 0,0.901522 -0.32157,1.671979 -0.9647,2.311354 -0.64315,0.63936 -1.4155,0.959048 -2.31705,0.959048 z"
     stroke-width="0.0169745"
     id="path96-7"
     sodipodi:nodetypes="cccccccccccccsssssssss" />
  <path
     d="m 33.042036,16.772116 q -0.433606,0 -0.743115,-0.30877 -0.309536,-0.308788 -0.309536,-0.74239 0,-0.433603 0.308778,-0.743149 0.308791,-0.309499 0.742385,-0.309499 0.433609,0 0.743157,0.308766 0.30951,0.308791 0.30951,0.742393 0,0.433602 -0.308765,0.743126 -0.308778,0.309523 -0.742388,0.309523 z m -0.745451,9.001764 v -4.6172 q 0,-0.465429 -0.235052,-0.837805 -0.235026,-0.372352 -0.653925,-0.558528 l 0.544587,-1.596501 q 0.111777,-0.349088 0.411905,-0.558551 0.300206,-0.209447 0.67723,-0.209447 0.377029,0 0.677222,0.209447 0.300244,0.209454 0.411956,0.558551 l 1.42426,4.165669 h -1.489427 v 3.44441 z M 29.92284,19.909246 q -0.3491,0 -0.593443,-0.244357 -0.244368,-0.244358 -0.244368,-0.593446 0,-0.349091 0.244368,-0.59345 0.244343,-0.244355 0.593443,-0.244355 0.349087,0 0.593443,0.244355 0.244355,0.244359 0.244355,0.59345 0,0.349088 -0.244355,0.593446 -0.244356,0.244357 -0.593443,0.244357 z m -3.862517,-3.13713 q -0.433608,0 -0.743117,-0.30877 -0.309535,-0.308788 -0.309535,-0.74239 0,-0.433603 0.308765,-0.743149 0.308791,-0.309499 0.742398,-0.309499 0.433632,0 0.743154,0.308766 0.30951,0.308791 0.30951,0.742393 0,0.433602 -0.308753,0.743126 -0.308791,0.309523 -0.742409,0.309523 z m -1.024715,9.001764 v -4.002871 h -0.930902 v -3.444411 q 0,-0.383982 0.273435,-0.657444 0.273436,-0.273438 0.657442,-0.273438 h 2.04799 q 0.38398,0 0.657441,0.273438 0.273462,0.273439 0.273462,0.657444 v 3.444411 h -0.930903 v 4.002871 z m 4.095838,0 V 23.446618 H 28.479818 V 21.15668 q 0,-0.287038 0.200916,-0.487937 0.200928,-0.200924 0.487941,-0.200924 h 1.508073 q 0.287013,0 0.487942,0.200924 0.200915,0.200907 0.200915,0.487937 v 2.289938 h -0.651641 v 2.327262 z"
     stroke-width="0.0139636"
     id="path4-5" />
  <path
     d="m 39.417398,16.439474 c 0.0997,0.258047 0.0655,0.501499 -0.102667,0.730356 -0.168145,0.228869 -0.394318,0.343303 -0.678509,0.343303 -0.144335,0 -0.277141,-0.03686 -0.398407,-0.110591 -0.121276,-0.07373 -0.214643,-0.18125 -0.280101,-0.322567 -0.3229,0.03996 -0.606731,-0.06564 -0.851503,-0.316794 -0.244763,-0.251137 -0.353759,-0.544898 -0.32697,-0.88128 -0.133916,-0.07526 -0.237333,-0.18547 -0.31025,-0.330624 -0.0729,-0.145149 -0.109357,-0.291451 -0.109357,-0.438907 0,-0.29952 0.111217,-0.528002 0.33367,-0.685444 0.222453,-0.157438 0.471315,-0.174721 0.746586,-0.05185 l 0.406217,0.170494 c 0.0804,-0.161284 0.193434,-0.288389 0.33925,-0.381315 0.145825,-0.09293 0.30504,-0.143998 0.477645,-0.153215 v -0.585215 h 0.352648 v 0.622076 c 0.177065,0.04146 0.32958,0.13401 0.457546,0.277636 0.127966,0.143618 0.215013,0.296832 0.261142,0.459645 h 0.598161 v 0.368636 h -0.566922 c -0.0119,0.178179 -0.0614,0.34253 -0.148415,0.493054 -0.087,0.150529 -0.208694,0.267266 -0.364929,0.350212 z m -1.58468,0.188917 c -0.009,-0.12441 -0.003,-0.249977 0.019,-0.376699 0.0216,-0.126718 0.0539,-0.249983 0.0971,-0.369791 -0.114576,0.0599 -0.233983,0.09792 -0.358229,0.114047 -0.124246,0.01614 -0.248862,0.01658 -0.373848,0.0013 0.006,0.161277 0.0718,0.306813 0.197524,0.436608 0.125736,0.129788 0.265232,0.194682 0.418497,0.194682 z m -0.495495,-1.082869 c 0.166655,0 0.33442,-0.03917 0.503305,-0.1175 0.168894,-0.07834 0.30467,-0.151304 0.407337,-0.218885 l -0.901722,-0.382469 c -0.117546,-0.05222 -0.236952,-0.048 -0.358219,0.01267 -0.121276,0.06068 -0.181914,0.151684 -0.181914,0.273024 0,0.119806 0.0625,0.221949 0.187494,0.306428 0.124996,0.08449 0.239563,0.126724 0.343719,0.126724 z m 1.298999,1.506817 c 0.129446,0 0.233233,-0.04493 0.311351,-0.13479 0.0781,-0.08986 0.0949,-0.192384 0.0502,-0.307587 l -0.388358,-1.027585 c -0.0818,0.13824 -0.157355,0.281857 -0.226553,0.430852 -0.0692,0.148993 -0.103776,0.320255 -0.103776,0.513791 0,0.112133 0.0301,0.227718 0.0904,0.346756 0.0603,0.119042 0.149165,0.178563 0.266721,0.178563 z m 0.437457,-1.488385 c 0.0923,-0.06145 0.156235,-0.137091 0.191944,-0.226945 0.0357,-0.08986 0.0536,-0.185478 0.0536,-0.286848 0,-0.156673 -0.0536,-0.291074 -0.160695,-0.403202 -0.107137,-0.112128 -0.235843,-0.168192 -0.386128,-0.168192 -0.0982,0 -0.192694,0.02151 -0.283461,0.06451 -0.0908,0.04301 -0.160705,0.111363 -0.209803,0.205059 l 0.562452,0.239618 z"
     id="path10317-8-8"
     style="display:inline;stroke-width:0.00680303"
     sodipodi:nodetypes="ccsscccsscccscccccccccccccscccccccccccssccssccsssscsssssccc" />
  <path
     d="m 43.022187,6.7740027 v -1.219197 h 0.530092 v 1.219197 z m 2.062069,0.853444 -0.368409,-0.368396 0.858733,-0.871986 0.371069,0.379005 z m 0.482375,1.690994 v -0.530091 h 1.219181 v 0.530091 z m -2.544444,3.2335463 v -1.219199 h 0.530092 v 1.219199 z m -1.53726,-4.9351483 -0.858728,-0.8508 0.373705,-0.371071 0.86142,0.861375 z m 4.092193,4.0975653 -0.861393,-0.866694 0.360479,-0.360465 0.874642,0.842835 z M 39.788673,9.3183787 v -0.530091 h 1.219201 v 0.530091 z m 1.216552,2.3960253 -0.376354,-0.373715 0.853448,-0.853444 0.193571,0.177587 0.19357,0.185538 z m 2.282059,-0.75272 q -0.795149,0 -1.351741,-0.556594 -0.556593,-0.5565916 -0.556593,-1.3517103 0,-0.795119 0.556593,-1.351744 0.556592,-0.556593 1.351741,-0.556593 0.795146,0 1.351736,0.556593 0.556592,0.556594 0.556592,1.351744 0,0.7951517 -0.556592,1.3517103 -0.55659,0.556594 -1.351736,0.556594 z m 0,-0.53009 q 0.572495,0 0.975391,-0.402863 0.402844,-0.4028636 0.402844,-0.9753823 0,-0.572521 -0.402844,-0.975384 -0.402876,-0.402864 -0.975391,-0.402864 -0.572512,0 -0.975386,0.402864 -0.402875,0.402863 -0.402875,0.975384 0,0.5725187 0.402875,0.9753823 0.402874,0.402863 0.975386,0.402863 z"
     stroke-width="0.00795152"
     id="path46" />
  <path
     d="m 16.500838,18.950887 v -2.544438 h -0.954166 l 3.180661,-2.862504 1.48426,1.319921 v -0.895875 h 0.742109 v 1.574375 l 0.954168,0.861785 h -0.954168 v 2.546705 h -1.855336 v -1.908337 h -0.742131 v 1.908337 z m 0.530093,-0.53009 h 0.79515 V 16.51246 h 1.802295 v 1.908337 h 0.79515 v -2.634554 l -1.696318,-1.537265 -1.696277,1.537265 z m 0.79515,-1.908337 h 1.802295 z m 0.238537,-0.792505 h 1.325201 q 0,-0.259738 -0.198746,-0.428045 -0.198746,-0.168292 -0.463823,-0.168292 -0.265036,0 -0.463825,0.167464 -0.198744,0.167464 -0.198744,0.428894 z"
     stroke-width="0.00795152"
     id="path48" />
  <path
     d="m 53.815673,39.05157 -1.526679,-1.447139 -1.511958,1.433242 -0.557808,-0.528761 1.519308,-1.44019 -1.55602,-1.474989 0.557809,-0.528761 1.541338,1.461074 1.54134,-1.461074 0.557808,0.528761 -1.541338,1.461073 1.541338,1.461073 z m 10.943451,0.368752 V 26.06205 l -13.945516,5.565932 h 0.95417 q 0.609201,0 1.152329,0.06958 0.543127,0.06956 0.990861,0.208706 l 9.380101,-3.757011 v 3.311878 l -5.314033,1.280162 5.314033,1.252349 v 3.297866 L 57.565975,35.00944 q 0.176149,0.396585 0.286245,0.866196 0.110096,0.469631 0.139477,0.831416 v 0.01382 z m -12.47744,1.669798 q 1.7542,0 3.005659,-1.179284 1.251399,-1.179283 1.251399,-2.842132 0,-1.676766 -1.251399,-2.862961 -1.251399,-1.186232 -3.005659,-1.186232 -1.75416,0 -3.00566,1.186232 -1.251399,1.186233 -1.251399,2.862961 0,1.66283 1.251399,2.842132 1.25144,1.179284 3.00566,1.179284 z m 11.009564,-6.080737 v -6.860047 9.142122 z"
     stroke-width="0.0214381"
     id="path96-9" />
  <path
     d="M 11.859933,100.62706 V 98.861 h 0.368704 v 1.76606 z m 1.334697,0 V 98.861 h 0.368689 v 1.76606 z m -2.042644,0.7374 v -0.36869 h 4.424362 v 0.36869 z m 3.347819,-0.7374 V 98.861 h 0.368704 v 1.76606 z m -3.347819,-2.13472 v -0.34289 l 2.212258,-1.20934 2.212257,1.20934 v 0.34289 z m 0.822186,-0.36869 h 2.779962 z m 0,0 h 2.779962 l -1.389996,-0.76322 z"
     stroke-width="0.00553048"
     id="path6-3" />
  <path
     d="m 100.7238,101.16921 q 0,-0.0786 0.30877,-0.13463 0.30879,-0.0561 0.74239,-0.0561 0.43361,0 0.74315,0.0559 0.3095,0.0559 0.3095,0.1345 0,0.0786 -0.30876,0.13464 -0.30879,0.0561 -0.7424,0.0561 -0.4336,0 -0.74312,-0.0559 -0.30953,-0.0559 -0.30953,-0.1345 z m -9.001756,-0.13505 h 4.6172 q 0.46543,0 0.8378,-0.0426 0.37236,-0.0426 0.55853,-0.11848 l 1.596496,0.0987 q 0.34909,0.0202 0.55856,0.0746 0.20944,0.0544 0.20944,0.1227 0,0.0683 -0.20944,0.12269 -0.20946,0.0544 -0.55856,0.0746 l -4.165656,0.25804 v -0.26984 h -3.44441 z m 5.86463,-0.43006 q 0,-0.0633 0.24436,-0.10752 0.24436,-0.0443 0.59345,-0.0443 0.34909,0 0.593446,0.0443 0.24435,0.0443 0.24435,0.10752 0,0.0632 -0.24435,0.10751 -0.244356,0.0443 -0.593446,0.0443 -0.34909,0 -0.59345,-0.0443 -0.24436,-0.0443 -0.24436,-0.10751 z m 3.137126,-0.69979 q 0,-0.0786 0.30877,-0.13463 0.30879,-0.0561 0.74239,-0.0561 0.43361,0 0.74315,0.0559 0.3095,0.056 0.3095,0.1345 0,0.0786 -0.30876,0.13464 -0.30879,0.0561 -0.7424,0.0561 -0.4336,0 -0.74312,-0.0559 -0.30953,-0.0559 -0.30953,-0.1345 z m -9.001756,-0.18565 h 4.00287 v -0.16865 h 3.444406 q 0.38398,0 0.65745,0.0495 0.27343,0.0495 0.27343,0.11911 v 0.37104 q 0,0.0696 -0.27343,0.11911 -0.27344,0.0495 -0.65745,0.0495 h -3.444406 v -0.16865 h -4.00287 z m 0,0.74206 h 2.32726 v -0.11806 h 2.28994 q 0.28704,0 0.48794,0.0364 0.20092,0.0364 0.20092,0.0884 v 0.27322 q 0,0.052 -0.20092,0.0884 -0.20091,0.0364 -0.48794,0.0364 h -2.28994 v -0.11806 h -2.32726 z"
     stroke-width="0.00594354"
     id="path4-5-6" />
  <path
     d="m 98.22695,103.04002 c -0.36998,0.026 -0.71903,0.017 -1.04715,-0.0267 -0.328142,-0.0438 -0.492205,-0.10237 -0.492205,-0.17625 0,-0.0374 0.0529,-0.072 0.158557,-0.10352 0.105668,-0.0316 0.259868,-0.0558 0.462484,-0.0728 -0.05735,-0.0839 0.09405,-0.15759 0.454194,-0.22118 0.36007,-0.0635 0.78124,-0.0919 1.26353,-0.0849 0.10796,-0.0348 0.26592,-0.0617 0.47402,-0.0806 0.20812,-0.0189 0.41787,-0.0284 0.62929,-0.0284 0.42943,0 0.75702,0.0289 0.98275,0.0868 0.22573,0.0577 0.25051,0.12245 0.0745,0.19394 l -0.24445,0.10553 c 0.23124,0.0209 0.41348,0.0502 0.54672,0.0881 0.13319,0.0379 0.20644,0.0793 0.21966,0.12401 h 0.83906 v 0.0916 H 101.656 c -0.0595,0.046 -0.19213,0.0856 -0.39806,0.11886 -0.20591,0.0333 -0.42558,0.0559 -0.65901,0.0678 v 0.15538 h -0.52853 v -0.14726 c -0.25547,-0.003 -0.4911,-0.0159 -0.70691,-0.0386 -0.21582,-0.0226 -0.3832,-0.0542 -0.50212,-0.0947 z m -0.27087,-0.41163 c 0.17837,-0.003 0.35841,-7.8e-4 0.5401,0.004 0.18168,0.006 0.3584,0.0144 0.53018,0.0252 -0.0859,-0.0298 -0.14036,-0.0608 -0.16352,-0.0931 -0.0231,-0.0323 -0.0238,-0.0646 -9.8e-4,-0.0971 -0.23123,9.9e-4 -0.43989,0.0186 -0.62599,0.0513 -0.18606,0.0327 -0.27912,0.069 -0.27912,0.10868 z m 1.55257,-0.12875 c 0,0.0433 0.0562,0.0869 0.16846,0.13076 0.11227,0.0439 0.21693,0.0791 0.31382,0.1058 l 0.54836,-0.23422 c 0.0749,-0.0306 0.0689,-0.0615 -0.0182,-0.0931 -0.0871,-0.0316 -0.21748,-0.0473 -0.39145,-0.0473 -0.17177,0 -0.31822,0.0162 -0.43934,0.0488 -0.12115,0.0324 -0.18168,0.0623 -0.18168,0.0893 z m -2.160399,0.33743 c 0,0.0335 0.06437,0.0607 0.193249,0.0808 0.12889,0.0204 0.27585,0.0247 0.441,0.0129 l 1.47329,-0.10094 c -0.1982,-0.0212 -0.40409,-0.0408 -0.61772,-0.0588 -0.21362,-0.0179 -0.45915,-0.0269 -0.73665,-0.0269 -0.16076,0 -0.32649,0.007 -0.49716,0.0235 -0.17067,0.0156 -0.256009,0.0388 -0.256009,0.0692 z m 2.133979,0.1137 c 0.0881,0.0239 0.19654,0.0405 0.32537,0.0499 0.12889,0.01 0.26593,0.0144 0.41127,0.0144 0.22462,0 0.41732,-0.0144 0.57809,-0.0417 0.16076,-0.0278 0.24114,-0.0612 0.24114,-0.10037 0,-0.0255 -0.0308,-0.0501 -0.0925,-0.0737 -0.0617,-0.0236 -0.15966,-0.0417 -0.294,-0.0545 l -0.34355,0.14609 z"
     id="path10317-8-8-7"
     style="display:inline;stroke-width:0.00415167"
     sodipodi:nodetypes="ccsscccsscccscccccccccccccscccccccccccssccssccsssscsssssccc" />
  <path
     d="m 66.066037,97.537236 -0.55136,-0.56319 1.3035,-1.3193 h -4.1075 v -0.8034 h 4.1075 l -1.3035,-1.3154 0.55136,-0.55922 2.2684,2.2763 z"
     stroke-width="0.46769"
     id="path110-5" />
  <path
     d="m 36.996683,100.98943 v -1.766063 h 0.368704 v 1.766063 z m 1.334697,0 v -1.766063 h 0.368689 v 1.766063 z m -2.042644,0.7374 v -0.36869 h 4.424362 v 0.36869 z m 3.347819,-0.7374 v -1.766063 h 0.368704 v 1.766063 z m -3.347819,-2.134723 v -0.34289 l 2.212258,-1.20934 2.212257,1.20934 v 0.34289 z m 0.822186,-0.36869 h 2.779962 z m 0,0 h 2.779962 l -1.389996,-0.76322 z"
     stroke-width="0.00553048"
     id="path6-3-3" />
  <path
     d="m 57.947819,100.63583 v -1.766062 h 0.368704 v 1.766062 z m 1.334697,0 v -1.766062 h 0.368689 v 1.766062 z m -2.042644,0.7374 v -0.36869 h 4.424362 v 0.36869 z m 3.347819,-0.7374 v -1.766062 h 0.368704 v 1.766062 z m -3.347819,-2.134722 v -0.34289 l 2.212258,-1.20934 2.212257,1.20934 v 0.34289 z m 0.822186,-0.36869 h 2.779962 z m 0,0 h 2.779962 l -1.389996,-0.76322 z"
     stroke-width="0.00553048"
     id="path6-3-3-5" />
  <path
     d="m 67.769316,101.11771 h 0.638155 v -0.18234 h 0.566774 q 0.06272,0 0.10733,0.0446 0.04461,0.0446 0.04461,0.10733 v 0.36467 q 0,0.0627 -0.04461,0.10733 -0.04461,0.0446 -0.10733,0.0446 h -0.566774 v -0.18234 h -0.638155 z m 1.479947,0.15206 q 0,-0.0707 0.0504,-0.12125 0.0504,-0.0505 0.121132,-0.0505 0.07073,0 0.121256,0.0504 0.05052,0.0504 0.05052,0.12114 0,0.0707 -0.0504,0.12125 -0.0504,0.0505 -0.121132,0.0505 -0.07073,0 -0.121255,-0.0504 -0.05052,-0.0504 -0.05052,-0.12114 z"
     stroke-width="0.00227917"
     id="path6-2"
     inkscape:transform-center-x="5.7917324"
     inkscape:transform-center-y="-0.2354092" />
  <path
     d="m 81.449738,101.1177 h 0.638155 v -0.18234 h 0.56677 q 0.06272,0 0.107331,0.0446 0.04461,0.0446 0.04461,0.10733 v 0.36466 q 0,0.0627 -0.04461,0.10733 -0.04461,0.0446 -0.107331,0.0446 h -0.56677 v -0.18234 h -0.638155 z m 1.479948,0.15206 q 0,-0.0707 0.0504,-0.12125 0.0504,-0.0505 0.121132,-0.0505 0.07073,0 0.121255,0.0504 0.05052,0.0504 0.05052,0.12113 0,0.0707 -0.0504,0.12126 -0.0504,0.0505 -0.121132,0.0505 -0.07073,0 -0.121255,-0.0504 -0.05052,-0.0504 -0.05052,-0.12113 z"
     stroke-width="0.00227917"
     id="path6-2-9" />
  <path
     d="m 74.609527,101.11771 h 0.638155 v -0.18235 h 0.56677 q 0.06272,0 0.10733,0.0446 0.04461,0.0446 0.04461,0.10733 v 0.36466 q 0,0.0627 -0.04461,0.10733 -0.04461,0.0446 -0.10733,0.0446 h -0.56677 v -0.18234 h -0.638155 z m 1.479947,0.15206 q 0,-0.0707 0.0504,-0.12125 0.0504,-0.0505 0.121132,-0.0505 0.07073,0 0.121255,0.0504 0.05052,0.0504 0.05052,0.12114 0,0.0707 -0.0504,0.12125 -0.0504,0.0505 -0.121132,0.0505 -0.07073,0 -0.121256,-0.0504 -0.05052,-0.0504 -0.05052,-0.12114 z"
     stroke-width="0.00227917"
     id="path6-2-9-1" />
  <path
     d="m 71.189421,101.1177 h 0.638155 v -0.18234 h 0.56677 q 0.06272,0 0.10733,0.0446 0.04461,0.0446 0.04461,0.10733 v 0.36466 q 0,0.0627 -0.04461,0.10733 -0.04461,0.0446 -0.10733,0.0446 h -0.56677 v -0.18234 h -0.638155 z m 1.479947,0.15206 q 0,-0.0707 0.0504,-0.12125 0.0504,-0.0505 0.121132,-0.0505 0.07073,0 0.121256,0.0504 0.05052,0.0504 0.05052,0.12113 0,0.0707 -0.0504,0.12126 -0.0504,0.0505 -0.121132,0.0505 -0.07073,0 -0.121256,-0.0504 -0.05052,-0.0504 -0.05052,-0.12113 z"
     stroke-width="0.00227917"
     id="path6-2-9-2" />
  <path
     d="m 78.029632,101.1177 h 0.638156 v -0.18234 h 0.566769 q 0.06272,0 0.107331,0.0446 0.04461,0.0446 0.04461,0.10733 v 0.36466 q 0,0.0627 -0.04461,0.10733 -0.04461,0.0446 -0.107331,0.0446 h -0.566769 v -0.18234 h -0.638156 z m 1.479948,0.15206 q 0,-0.0707 0.0504,-0.12125 0.0504,-0.0505 0.121132,-0.0505 0.07073,0 0.121255,0.0504 0.05052,0.0504 0.05052,0.12113 0,0.0707 -0.0504,0.12126 -0.0504,0.0505 -0.121132,0.0505 -0.07073,0 -0.121255,-0.0504 -0.05052,-0.0504 -0.05052,-0.12113 z"
     stroke-width="0.00227917"
     id="path6-2-9-7" />
</svg>
