<?xml version="1.0" encoding="UTF-8" standalone="no"?>
<svg
   xmlns:dc="http://purl.org/dc/elements/1.1/"
   xmlns:cc="http://creativecommons.org/ns#"
   xmlns:rdf="http://www.w3.org/1999/02/22-rdf-syntax-ns#"
   xmlns:svg="http://www.w3.org/2000/svg"
   xmlns="http://www.w3.org/2000/svg"
   xmlns:sodipodi="http://sodipodi.sourceforge.net/DTD/sodipodi-0.dtd"
   xmlns:inkscape="http://www.inkscape.org/namespaces/inkscape"
   width="400"
   height="400"
   version="1.1"
   viewBox="0 0 105.83 105.83"
   id="svg124"
   sodipodi:docname="07.svg"
   inkscape:version="1.0.2 (e86c870879, 2021-01-15)">
  <metadata
     id="metadata130">
    <rdf:RDF>
      <cc:Work
         rdf:about="">
        <dc:format>image/svg+xml</dc:format>
        <dc:type
           rdf:resource="http://purl.org/dc/dcmitype/StillImage" />
      </cc:Work>
    </rdf:RDF>
  </metadata>
  <defs
     id="defs128" />
  <sodipodi:namedview
     pagecolor="#ffffff"
     bordercolor="#666666"
     borderopacity="1"
     objecttolerance="10"
     gridtolerance="10"
     guidetolerance="10"
     inkscape:pageopacity="0"
     inkscape:pageshadow="2"
     inkscape:window-width="1771"
     inkscape:window-height="1037"
     id="namedview126"
     showgrid="false"
     inkscape:zoom="1.7271199"
     inkscape:cx="160.14078"
     inkscape:cy="186.38173"
     inkscape:window-x="119"
     inkscape:window-y="57"
     inkscape:window-maximized="0"
     inkscape:current-layer="svg124" />
  <rect
     width="105.49"
     height="105.49"
     ry=".13328"
     fill="#fff"
     id="rect2"
     style="fill:#ffffff" />
  <path
     d="m42.486 90.689 0.266-0.62438 3.8693 1.6485-0.92538 2.1721 3.0276 1.295-0.45176-1.1224 0.62702-0.25238 0.87572 2.1758-2.1757 0.87572-0.24985-0.62075 1.0973-0.44167-3.6495-1.5548 0.92538-2.1721z"
     stroke-width=".010139"
     id="path4" />
  <path
     d="m 70.512547,98.159006 v -6.928787 h 1.446528 v 6.928787 z m 5.23638,0 v -6.928787 h 1.446468 v 6.928787 z M 67.73508,101.052 V 99.605529 H 85.093053 V 101.052 Z m 13.1344,-2.892994 v -6.928787 h 1.446528 v 6.928787 z m -13.1344,-8.375137 v -1.345224 l 8.679287,-4.744561 8.679286,4.744561 v 1.345224 z m 3.225657,-1.446468 h 10.906545 z m 0,0 h 10.906545 l -5.453332,-2.9943 z"
     stroke-width="0.0216976"
     id="path6" />
  <path
     d="m45.013 101.06v-1.7472l1.036-1.036h-3.51q-0.62622 0-1.0862-0.45999-0.45999-0.46-0.45999-1.0862v-10.824q0-0.62622 0.45999-1.0862 0.46-0.46 1.0862-0.46h15.463q0.62622 0 1.0862 0.46 0.46 0.45999 0.46 1.0862v10.824q0 0.62622-0.46 1.0862-0.46 0.45999-1.0862 0.45999h-3.5254l1.0514 1.036v1.7472zm-2.474-4.3294h15.463v-10.824h-15.463zm0 0v-10.824z"
     stroke-width=".023193"
     id="path8" />
  <path
     d="m52.027 95.544-0.65178-0.18917 1.1723-4.0392 2.2674 0.65807 0.92243-3.1612-1.0601 0.58315-0.32579-0.59222 2.055-1.1304 1.1304 2.055-0.58629 0.32252-0.57013-1.0364-1.1057 3.8097-2.2674-0.65807z"
     stroke-width=".010139"
     id="path10" />
  <g
     transform="matrix(.24947 -.23875 .12772 .46634 45.19 53.962)"
     style="shape-inside:url(#rect26725);white-space:pre"
     aria-label="$$$$"
     id="g20">
    <path
       d="m7.2088 65.218q-0.58208-0.010583-1.1324-0.09525-0.55033-0.09525-0.889-0.254v-0.89958q0.35983 0.16933 0.92075 0.29633 0.56091 0.127 1.1007 0.13758v-2.1378q-1.0477-0.28575-1.5346-0.71966-0.48683-0.43392-0.48683-1.1853 0-0.78316 0.53975-1.2277 0.55033-0.4445 1.4817-0.49742v-0.93133h0.67733v0.92075q0.56091 0.01058 1.016 0.127 0.46567 0.10583 0.84666 0.26458l-0.28575 0.78316q-0.33867-0.13758-0.75141-0.23283-0.40217-0.10583-0.8255-0.13758v2.1272q0.6985 0.20108 1.1642 0.43392 0.46567 0.22225 0.6985 0.56091 0.24342 0.32808 0.24342 0.85725 0 0.74083-0.55033 1.2065-0.55033 0.45508-1.5557 0.56092v1.1747h-0.67733zm0-5.7679q-0.5715 0.04233-0.84666 0.26458-0.26458 0.22225-0.26458 0.5715 0 0.42333 0.23283 0.65616 0.24342 0.22225 0.87841 0.381zm0.67733 4.9001q0.62441-0.0635 0.91016-0.28575 0.28575-0.23283 0.28575-0.59266 0-0.40216-0.254-0.60325-0.254-0.21167-0.94191-0.381z"
       id="path12" />
    <path
       d="m13.262 65.218q-0.58208-0.01058-1.1324-0.09525-0.55033-0.09525-0.889-0.254v-0.89958q0.35983 0.16933 0.92075 0.29633t1.1007 0.13758v-2.1378q-1.0477-0.28575-1.5346-0.71966t-0.48683-1.1853q0-0.78316 0.53975-1.2277 0.55033-0.4445 1.4817-0.49742v-0.93133h0.67733v0.92075q0.56092 0.01058 1.016 0.127 0.46567 0.10583 0.84666 0.26458l-0.28575 0.78316q-0.33866-0.13758-0.75141-0.23283-0.40216-0.10583-0.8255-0.13758v2.1272q0.6985 0.20108 1.1642 0.43392 0.46566 0.22225 0.6985 0.56091 0.24342 0.32808 0.24342 0.85725 0 0.74083-0.55033 1.2065-0.55033 0.45508-1.5557 0.56092v1.1747h-0.67733zm0-5.7679q-0.5715 0.04233-0.84666 0.26458-0.26458 0.22225-0.26458 0.5715 0 0.42333 0.23283 0.65616 0.24342 0.22225 0.87841 0.381zm0.67733 4.9001q0.62441-0.0635 0.91016-0.28575 0.28575-0.23283 0.28575-0.59266 0-0.40216-0.254-0.60325-0.254-0.21167-0.94191-0.381z"
       id="path14" />
    <path
       d="m19.316 65.218q-0.58208-0.01058-1.1324-0.09525-0.55033-0.09525-0.889-0.254v-0.89958q0.35983 0.16933 0.92075 0.29633t1.1007 0.13758v-2.1378q-1.0477-0.28575-1.5346-0.71966t-0.48683-1.1853q0-0.78316 0.53975-1.2277 0.55033-0.4445 1.4817-0.49742v-0.93133h0.67733v0.92075q0.56092 0.01058 1.016 0.127 0.46566 0.10583 0.84666 0.26458l-0.28575 0.78316q-0.33866-0.13758-0.75141-0.23283-0.40217-0.10583-0.8255-0.13758v2.1272q0.6985 0.20108 1.1642 0.43392 0.46567 0.22225 0.6985 0.56091 0.24342 0.32808 0.24342 0.85725 0 0.74083-0.55033 1.2065-0.55033 0.45508-1.5557 0.56092v1.1747h-0.67733zm0-5.7679q-0.5715 0.04233-0.84666 0.26458-0.26458 0.22225-0.26458 0.5715 0 0.42333 0.23283 0.65616 0.24342 0.22225 0.87841 0.381zm0.67733 4.9001q0.62442-0.0635 0.91016-0.28575 0.28575-0.23283 0.28575-0.59266 0-0.40216-0.254-0.60325-0.254-0.21167-0.94191-0.381z"
       id="path16" />
    <path
       d="m25.37 65.218q-0.58208-0.01058-1.1324-0.09525-0.55033-0.09525-0.889-0.254v-0.89958q0.35983 0.16933 0.92075 0.29633t1.1007 0.13758v-2.1378q-1.0477-0.28575-1.5346-0.71966-0.48683-0.43392-0.48683-1.1853 0-0.78316 0.53975-1.2277 0.55033-0.4445 1.4817-0.49742v-0.93133h0.67733v0.92075q0.56092 0.01058 1.016 0.127 0.46566 0.10583 0.84666 0.26458l-0.28575 0.78316q-0.33867-0.13758-0.75141-0.23283-0.40217-0.10583-0.8255-0.13758v2.1272q0.6985 0.20108 1.1642 0.43392 0.46566 0.22225 0.6985 0.56091 0.24342 0.32808 0.24342 0.85725 0 0.74083-0.55033 1.2065-0.55033 0.45508-1.5557 0.56092v1.1747h-0.67733zm0-5.7679q-0.5715 0.04233-0.84666 0.26458-0.26458 0.22225-0.26458 0.5715 0 0.42333 0.23283 0.65616 0.24342 0.22225 0.87841 0.381zm0.67733 4.9001q0.62442-0.0635 0.91016-0.28575 0.28575-0.23283 0.28575-0.59266 0-0.40216-0.254-0.60325-0.254-0.21167-0.94191-0.381z"
       id="path18" />
  </g>
  <path
     d="m 66.84499,74.96896 -0.399979,-0.435082 1.000676,-0.919941 0.399979,0.435082 z m 2.041874,1.574959 -1.356911,0.139537 -0.05894,-0.588065 1.356911,-0.139538 z m -3.502636,-2.744704 -0.581036,-0.108072 0.243896,-1.324018 0.581035,0.108072 z m -0.452964,5.899532 -0.959986,-1.044175 -0.391583,0.359994 q -0.179476,0.165002 -0.424783,0.154687 -0.245292,-0.01028 -0.410293,-0.18979 l -0.639991,-0.696152 q -0.165002,-0.179476 -0.154672,-0.424768 0.01028,-0.245292 0.18979,-0.410293 l 1.131266,-1.040001 0.585302,-1.983088 2.879928,3.132573 -2.025297,0.416786 -0.304554,0.279981 0.959986,1.044175 z m -1.07079,-2.38738 m 2.500808,-0.685408 -1.607958,-1.749016 q 0.32021,-0.0054 0.634879,0.120812 0.314685,0.126153 0.560668,0.393732 0.245982,0.267579 0.345306,0.591734 0.09931,0.324155 0.06706,0.642784 z m -3.821588,1.25728 0.639991,0.696153 1.24867,-1.147996 1.164711,-0.243818 -1.463939,-1.592456 -0.340717,1.140106 z"
     stroke-width="0.0088648"
     id="path22" />
  <path
     d="m 63.50195,84.999 q 0.08871,0 0.15253,-0.06383 0.06383,-0.06382 0.06383,-0.15253 0,-0.0887 -0.06383,-0.15252 -0.06382,-0.06383 -0.15253,-0.06383 -0.08871,0 -0.15253,0.06383 -0.06382,0.06382 -0.06382,0.15252 0,0.08871 0.06382,0.15253 0.06382,0.06383 0.15253,0.06383 z M 63.2856,83.9172 h 0.4327 v -1.5188 h -0.4327 z m 1.3803,1.1034 h 1.813 v -0.4327 h -1.813 z m 0,-1.1034 h 1.813 v -0.43271 h -1.813 z m 0,-1.0861 h 1.813 v -0.4327 h -1.813 z m -1.9818,3.215 q -0.17525,0 -0.30397,-0.12873 -0.12874,-0.12872 -0.12874,-0.30397 v -3.8078 q 0,-0.17525 0.12874,-0.30397 0.12872,-0.12872 0.30397,-0.12872 h 4.3963 q 0.17525,0 0.30397,0.12872 0.12873,0.12872 0.12873,0.30397 v 3.8078 q 0,0.17525 -0.12873,0.30397 -0.12872,0.12873 -0.30397,0.12873 z m 0,-0.4327 h 4.3963 v -3.8078 h -4.3963 z m 0,0 v -3.8078 z"
     stroke-width="0.0064904"
     id="path24" />
  <path
     d="m46.125 83.448 1.1012-3.0804 1.9907 1.9753zm0.64304-0.64304 1.7519-0.62376-1.1321-1.1359zm2.1601-1.4901-0.21178-0.21178 1.3553-1.3553q0.18482-0.18482 0.46014-0.18675 0.27531-0.0019 0.46013 0.1829l0.11166 0.11166-0.21178 0.21177-0.11936-0.11936q-0.10012-0.10012-0.2368-0.10204-0.13669-0.0019-0.24066 0.10204zm-0.92024-0.90484-0.21178-0.21177 0.16172-0.16172q0.11552-0.11552 0.10974-0.26761-0.0058-0.15209-0.10974-0.25606l-0.15786-0.15787 0.21177-0.21177 0.15017 0.15017q0.19637 0.19638 0.19445 0.48323-0.0021 0.28686-0.1983 0.48323zm0.4659 0.45051-0.21177-0.21177 0.86251-0.86251q0.10011-0.10011 0.09819-0.25413-0.0021-0.15402-0.10204-0.25413l-0.35809-0.35809 0.21177-0.21178 0.3658 0.3658q0.18097 0.18482 0.18482 0.4582 0.0037 0.27338-0.18097 0.4582zm0.91642 0.92024-0.21177-0.21178 0.30418-0.30418q0.19638-0.19638 0.47168-0.20023 0.27531-0.0039 0.47169 0.19252l0.31958 0.31959-0.21177 0.21178-0.32344-0.32344q-0.11552-0.11552-0.25221-0.11552-0.1367 0-0.25221 0.11552z"
     stroke-width=".0057755"
     id="path26" />
  <g
     transform="matrix(0.032147,0,0,0.032147,15.26875,26.531)"
     id="g36">
    <g
       transform="matrix(0.04188,0,0,0.04188,75.616,54.993)"
       fill="#8dc351"
       id="g30">
      <path
         d="m 7525,15989 c -349,-23 -745,-74 -1074,-139 -1411,-279 -2741,-944 -3806,-1903 -103,-94 -479,-466 -575,-572 -245,-266 -540,-648 -754,-974 -84,-128 -216,-339 -216,-346 0,-2 -17,-32 -38,-66 -48,-80 -130,-233 -220,-414 C 359,10611 82,9566 10,8445 -3,8240 -3,7750 10,7545 113,5935 655,4458 1610,3185 c 239,-319 428,-535 744,-850 286,-286 436,-420 706,-632 C 4666,442 6732,-162 8765,35 c 1734,169 3354,891 4645,2071 632,577 1156,1241 1589,2014 64,113 231,450 301,605 345,767 574,1625 659,2470 32,311 41,496 41,810 0,808 -118,1588 -356,2359 -526,1697 -1613,3186 -3064,4197 -1216,848 -2616,1332 -4135,1429 -181,11 -740,11 -920,-1 z"
         id="path28" />
    </g>
    <g
       transform="matrix(0.04188,0,0,0.04188,75.616,54.993)"
       fill="#ffffff"
       id="g34">
      <path
         d="m 7751,13046 c -6,-17 -62,-222 -127,-456 -195,-713 -262,-951 -266,-956 -3,-2 -398,103 -879,234 -481,131 -875,238 -877,237 -3,-3 -112,-1041 -112,-1071 0,-17 8,-23 33,-28 75,-14 558,-147 627,-172 101,-38 181,-113 204,-193 28,-95 21,-155 -43,-390 -33,-119 -139,-504 -236,-856 -97,-352 -239,-867 -315,-1145 -76,-278 -193,-703 -260,-945 -67,-242 -142,-514 -166,-605 -25,-91 -57,-185 -72,-210 -44,-77 -110,-138 -190,-177 -67,-34 -84,-38 -171,-41 -134,-6 -233,16 -734,162 -81,23 -120,30 -122,22 -7,-20 -247,-901 -249,-910 0,-4 87,-33 194,-62 107,-30 499,-138 870,-241 371,-102 678,-189 682,-192 4,-3 -81,-323 -188,-711 -107,-388 -192,-710 -190,-715 2,-6 28,-17 57,-24 30,-8 222,-61 428,-117 206,-57 376,-103 377,-101 1,1 88,315 193,697 106,382 194,696 196,698 2,2 137,-35 302,-83 164,-48 318,-92 343,-100 35,-10 44,-17 42,-31 -2,-11 -87,-320 -188,-689 -101,-368 -184,-674 -184,-680 0,-9 858,-250 865,-243 2,2 91,322 198,711 107,389 196,710 199,712 2,3 42,-2 89,-10 416,-74 899,-94 1184,-51 672,104 1078,440 1283,1061 196,592 97,1085 -302,1499 l -73,76 h 118 c 828,0 1344,393 1564,1190 130,470 135,910 15,1273 -41,126 -137,313 -218,427 -145,205 -419,444 -699,612 -277,166 -754,378 -1083,483 -30,10 -58,20 -62,24 -4,3 71,290 166,636 96,347 185,671 198,721 l 25,91 -426,117 c -234,64 -431,116 -436,116 -6,0 -98,-318 -204,-707 -107,-390 -195,-709 -196,-710 -1,-2 -143,35 -316,81 -173,46 -329,87 -346,91 -18,3 -33,12 -33,18 0,11 16,68 259,952 71,259 128,471 126,473 -1,1 -196,56 -433,121 l -431,118 z m 442,-2762 c 928,-243 1429,-470 1733,-785 93,-98 132,-151 179,-252 54,-113 70,-186 69,-317 0,-211 -79,-419 -214,-563 -317,-339 -883,-384 -1824,-143 -226,58 -696,197 -696,207 0,4 117,433 260,953 143,520 260,948 260,951 0,10 22,5 233,-51 z M 7391,7495 c 657,-172 1015,-321 1295,-540 97,-76 161,-145 225,-243 60,-91 87,-161 107,-277 19,-113 7,-234 -39,-369 -102,-305 -310,-473 -660,-532 -82,-13 -140,-16 -298,-11 -227,6 -400,32 -681,103 -171,42 -609,170 -618,179 -4,4 126,484 431,1588 24,87 46,147 53,147 6,0 90,-20 185,-45 z"
         fill="#ffffff"
         id="path32" />
    </g>
  </g>
  <text
     x="44.375496"
     y="44.510094"
     fill="#000000"
     font-family="sans-serif"
     font-size="17.647px"
     stroke-width="0.183821"
     style="line-height:1.25"
     xml:space="preserve"
     id="text40"><tspan
       x="44.375496"
       y="44.510094"
       font-size="17.647px"
       stroke-width="0.183821"
       id="tspan38">≠</tspan></text>
  <g
     transform="matrix(.031147 .0079549 -.0079549 .031147 66.878 23.59)"
     id="g48">
    <path
       d="m390.76 724.61c-14.616-0.96324-31.201-3.0991-44.979-5.8213-59.093-11.684-114.79-39.535-159.39-79.697-4.3136-3.9367-20.06-19.516-24.081-23.955-10.261-11.14-22.615-27.138-31.577-40.791-3.5179-5.3606-9.0461-14.197-9.0461-14.49 0-0.0838-0.71196-1.3402-1.5914-2.7641-2.0102-3.3504-5.4444-9.758-9.2136-17.338-20.228-40.372-31.829-84.137-34.844-131.08-0.54444-8.5854-0.54444-29.107 0-37.692 4.3136-67.427 27.013-129.28 67.008-182.6 10.009-13.36 17.925-22.406 31.159-35.598 11.978-11.978 18.26-17.59 29.567-26.468 67.259-52.811 153.78-78.106 238.92-69.856 72.62 7.0777 140.47 37.315 194.53 86.733 26.468 24.165 48.413 51.973 66.547 84.346 2.6803 4.7324 9.6743 18.846 12.606 25.337 14.449 32.122 24.039 68.055 27.599 103.44 1.3402 13.025 1.7171 20.772 1.7171 33.923 0 33.839-4.9418 66.505-14.909 98.795-22.029 71.07-67.552 133.43-128.32 175.77-50.926 35.514-109.56 55.784-173.17 59.846-7.5803 0.46068-30.991 0.46068-38.53-0.0419z"
       fill="#db8e00"
       id="path42" />
    <g
       transform="matrix(.04188 0 0 .04188 75.616 54.993)"
       fill="#fff"
       id="g46">
      <path
         d="m7751 13046c-6-17-62-222-127-456-195-713-262-951-266-956-3-2-398 103-879 234s-875 238-877 237c-3-3-112-1041-112-1071 0-17 8-23 33-28 75-14 558-147 627-172 101-38 181-113 204-193 28-95 21-155-43-390-33-119-139-504-236-856s-239-867-315-1145-193-703-260-945-142-514-166-605c-25-91-57-185-72-210-44-77-110-138-190-177-67-34-84-38-171-41-134-6-233 16-734 162-81 23-120 30-122 22-7-20-247-901-249-910 0-4 87-33 194-62 107-30 499-138 870-241 371-102 678-189 682-192s-81-323-188-711-192-710-190-715c2-6 28-17 57-24 30-8 222-61 428-117 206-57 376-103 377-101 1 1 88 315 193 697 106 382 194 696 196 698s137-35 302-83c164-48 318-92 343-100 35-10 44-17 42-31-2-11-87-320-188-689-101-368-184-674-184-680 0-9 858-250 865-243 2 2 91 322 198 711s196 710 199 712c2 3 42-2 89-10 416-74 899-94 1184-51 672 104 1078 440 1283 1061 196 592 97 1085-302 1499l-73 76h118c828 0 1344 393 1564 1190 130 470 135 910 15 1273-41 126-137 313-218 427-145 205-419 444-699 612-277 166-754 378-1083 483-30 10-58 20-62 24-4 3 71 290 166 636 96 347 185 671 198 721l25 91-426 117c-234 64-431 116-436 116-6 0-98-318-204-707-107-390-195-709-196-710-1-2-143 35-316 81s-329 87-346 91c-18 3-33 12-33 18 0 11 16 68 259 952 71 259 128 471 126 473-1 1-196 56-433 121l-431 118zm442-2762c928-243 1429-470 1733-785 93-98 132-151 179-252 54-113 70-186 69-317 0-211-79-419-214-563-317-339-883-384-1824-143-226 58-696 197-696 207 0 4 117 433 260 953s260 948 260 951c0 10 22 5 233-51zm-802-2789c657-172 1015-321 1295-540 97-76 161-145 225-243 60-91 87-161 107-277 19-113 7-234-39-369-102-305-310-473-660-532-82-13-140-16-298-11-227 6-400 32-681 103-171 42-609 170-618 179-4 4 126 484 431 1588 24 87 46 147 53 147 6 0 90-20 185-45z"
         fill="#fff"
         id="path44" />
    </g>
  </g>
  <path
     d="m 31.1818,55.122 q -0.28295,0 -0.47219,-0.18925 -0.18925,-0.18924 -0.18925,-0.47219 0,-0.28295 0.18925,-0.47219 0.18924,-0.18925 0.47219,-0.18925 0.28295,0 0.47219,0.18925 0.18925,0.18924 0.18925,0.47219 0,0.28295 -0.18925,0.47219 Q 31.46475,55.122 31.1818,55.122 Z m -3.9686,0 q -0.28295,0 -0.47219,-0.18925 -0.18925,-0.18924 -0.18925,-0.47219 0,-0.28295 0.18925,-0.47219 0.18924,-0.18925 0.47219,-0.18925 0.28295,0 0.47219,0.18925 0.18925,0.18924 0.18925,0.47219 0,0.28295 -0.18925,0.47219 Q 27.49615,55.122 27.2132,55.122 Z m 1.9843,1.2126 q -0.28295,0 -0.47219,-0.18925 -0.18925,-0.18924 -0.18925,-0.47219 0,-0.28295 0.18925,-0.47219 0.18924,-0.18925 0.47219,-0.18925 0.28295,0 0.47219,0.18925 0.18925,0.18924 0.18925,0.47219 0,0.28295 -0.18925,0.47219 -0.18924,0.18925 -0.47219,0.18925 z m 0,-2.4253 q -0.28295,0 -0.47219,-0.18925 -0.18925,-0.18924 -0.18925,-0.47219 0,-0.28295 0.18925,-0.47219 0.18924,-0.18925 0.47219,-0.18925 0.28295,0 0.47219,0.18925 0.18925,0.18924 0.18925,0.47219 0,0.28295 -0.18925,0.47219 -0.18924,0.18925 -0.47219,0.18925 z m 0,5.7325 q -0.21313,0 -0.43545,-0.03307 -0.22232,-0.03307 -0.43178,-0.08819 v -1.5838 q 0,-0.38584 0.24804,-0.66327 0.24804,-0.27744 0.61918,-0.27744 0.37114,0 0.61918,0.27744 0.24804,0.27743 0.24804,0.66327 v 1.5838 q -0.20946,0.05512 -0.43178,0.08819 -0.22232,0.03307 -0.43545,0.03307 z m -1.5287,-0.34541 q -0.21313,-0.08819 -0.42074,-0.19843 -0.20762,-0.11024 -0.39503,-0.24253 -0.30867,-0.21314 -0.49057,-0.5659 -0.1819,-0.35277 -0.1819,-0.75697 0,-0.28662 -0.05695,-0.54202 -0.05696,-0.25539 -0.21865,-0.47587 -0.11758,-0.13596 -0.42074,-0.42442 -0.30316,-0.28845 -0.55671,-0.542 -0.13597,-0.14331 -0.13597,-0.3197 0,-0.17638 0.13597,-0.31235 0.14331,-0.14331 0.30867,-0.14331 0.16536,0 0.30867,0.14331 l 1.694,1.5985 q 0.21314,0.19843 0.32154,0.4722 0.1084,0.27376 0.1084,0.56038 z m 3.0573,0 v -1.7491 q 0,-0.28662 0.12861,-0.56222 0.12862,-0.2756 0.33807,-0.47036 l 1.6573,-1.5985 q 0.13229,-0.12126 0.31418,-0.12126 0.1819,0 0.30316,0.12126 0.13597,0.13597 0.13597,0.31235 0,0.17638 -0.13597,0.3197 -0.25355,0.25355 -0.55671,0.53282 -0.30316,0.27927 -0.42074,0.43361 -0.16169,0.22048 -0.21865,0.47587 -0.05695,0.25539 -0.05695,0.54202 0,0.4042 -0.1819,0.75881 -0.1819,0.35461 -0.49425,0.56773 -0.18372,0.12126 -0.39135,0.23517 -0.20762,0.11392 -0.42074,0.20211 z"
     stroke-width="0.011024"
     id="path64" />
  <path
     d="m 73.40745,60.42115 v -4.1789 h 0.87244 v 4.1789 z m 3.1582,0 v -4.1789 h 0.8724 v 4.1789 z m -4.8334,1.7448 v -0.8724 h 10.469 v 0.8724 z m 7.9217,-1.7448 v -4.1789 h 0.87244 v 4.1789 z m -7.9217,-5.0513 v -0.81134 l 5.2347,-2.8616 5.2347,2.8616 v 0.81134 z m 1.9455,-0.8724 h 6.578 z m 0,0 h 6.578 l -3.2891,-1.8059 z"
     stroke-width="0.013086"
     id="path78" />
  <path
     d="m 52.79545,61.341 0.76434,-0.76432 0.75697,0.75698 0.27927,-0.27927 -0.76065,-0.76065 0.77903,-0.77903 -0.27927,-0.27927 -0.77168,0.77168 -0.77168,-0.77168 -0.27927,0.27927 0.77168,0.77168 -0.77168,0.77168 z m -5.4789,0.19476 v -7.0553 l 6.9819,2.9397 h -0.47771 q -0.305,0 -0.57692,0.03675 -0.27192,0.03674 -0.49608,0.11023 l -4.6962,-1.9843 v 1.7492 l 2.6605,0.67613 -2.6605,0.66144 v 1.7418 l 2.8663,-1.2053 q -0.08819,0.20946 -0.14331,0.45749 -0.05512,0.24804 -0.06983,0.43912 v 0.0073 z m 6.2469,0.88192 q -0.87825,0 -1.5048,-0.62285 -0.62652,-0.62285 -0.62652,-1.5011 0,-0.8856 0.62652,-1.5121 0.62652,-0.62652 1.5048,-0.62652 0.87823,0 1.5048,0.62652 0.62652,0.62652 0.62652,1.5121 0,0.87824 -0.62652,1.5011 -0.62654,0.62285 -1.5048,0.62285 z m -5.512,-3.2116 v -3.6232 4.8285 z"
     stroke-width="0.011024"
     id="path96" />
  <path
     d="m 65.443397,96.793531 -0.70742,-0.7226 1.6725,-1.6927 h -5.2702 v -1.0308 h 5.2702 l -1.6725,-1.6877 0.70742,-0.7175 2.9105,2.9206 z"
     stroke-width="0.60007"
     id="path98" />
  <g
     transform="matrix(.0057557 .00147 -.00147 .0057557 47.682 86.033)"
     id="g106">
    <path
       d="m390.76 724.61c-14.616-0.96324-31.201-3.0991-44.979-5.8213-59.093-11.684-114.79-39.535-159.39-79.697-4.3136-3.9367-20.06-19.516-24.081-23.955-10.261-11.14-22.615-27.138-31.577-40.791-3.5179-5.3606-9.0461-14.197-9.0461-14.49 0-0.0838-0.71196-1.3402-1.5914-2.7641-2.0102-3.3504-5.4444-9.758-9.2136-17.338-20.228-40.372-31.829-84.137-34.844-131.08-0.54444-8.5854-0.54444-29.107 0-37.692 4.3136-67.427 27.013-129.28 67.008-182.6 10.009-13.36 17.925-22.406 31.159-35.598 11.978-11.978 18.26-17.59 29.567-26.468 67.259-52.811 153.78-78.106 238.92-69.856 72.62 7.0777 140.47 37.315 194.53 86.733 26.468 24.165 48.413 51.973 66.547 84.346 2.6803 4.7324 9.6743 18.846 12.606 25.337 14.449 32.122 24.039 68.055 27.599 103.44 1.3402 13.025 1.7171 20.772 1.7171 33.923 0 33.839-4.9418 66.505-14.909 98.795-22.029 71.07-67.552 133.43-128.32 175.77-50.926 35.514-109.56 55.784-173.17 59.846-7.5803 0.46068-30.991 0.46068-38.53-0.0419z"
       fill="#db8e00"
       id="path100" />
    <g
       transform="matrix(.04188 0 0 .04188 75.616 54.993)"
       fill="#fff"
       id="g104">
      <path
         d="m7751 13046c-6-17-62-222-127-456-195-713-262-951-266-956-3-2-398 103-879 234s-875 238-877 237c-3-3-112-1041-112-1071 0-17 8-23 33-28 75-14 558-147 627-172 101-38 181-113 204-193 28-95 21-155-43-390-33-119-139-504-236-856s-239-867-315-1145-193-703-260-945-142-514-166-605c-25-91-57-185-72-210-44-77-110-138-190-177-67-34-84-38-171-41-134-6-233 16-734 162-81 23-120 30-122 22-7-20-247-901-249-910 0-4 87-33 194-62 107-30 499-138 870-241 371-102 678-189 682-192s-81-323-188-711-192-710-190-715c2-6 28-17 57-24 30-8 222-61 428-117 206-57 376-103 377-101 1 1 88 315 193 697 106 382 194 696 196 698s137-35 302-83c164-48 318-92 343-100 35-10 44-17 42-31-2-11-87-320-188-689-101-368-184-674-184-680 0-9 858-250 865-243 2 2 91 322 198 711s196 710 199 712c2 3 42-2 89-10 416-74 899-94 1184-51 672 104 1078 440 1283 1061 196 592 97 1085-302 1499l-73 76h118c828 0 1344 393 1564 1190 130 470 135 910 15 1273-41 126-137 313-218 427-145 205-419 444-699 612-277 166-754 378-1083 483-30 10-58 20-62 24-4 3 71 290 166 636 96 347 185 671 198 721l25 91-426 117c-234 64-431 116-436 116-6 0-98-318-204-707-107-390-195-709-196-710-1-2-143 35-316 81s-329 87-346 91c-18 3-33 12-33 18 0 11 16 68 259 952 71 259 128 471 126 473-1 1-196 56-433 121l-431 118zm442-2762c928-243 1429-470 1733-785 93-98 132-151 179-252 54-113 70-186 69-317 0-211-79-419-214-563-317-339-883-384-1824-143-226 58-696 197-696 207 0 4 117 433 260 953s260 948 260 951c0 10 22 5 233-51zm-802-2789c657-172 1015-321 1295-540 97-76 161-145 225-243 60-91 87-161 107-277 19-113 7-234-39-369-102-305-310-473-660-532-82-13-140-16-298-11-227 6-400 32-681 103-171 42-609 170-618 179-4 4 126 484 431 1588 24 87 46 147 53 147 6 0 90-20 185-45z"
         fill="#fff"
         id="path102" />
    </g>
  </g>
  <path
     d="m20.879 98.173v-7.0435l4.1001-1.7426v1.1715l2.9287-1.1812v1.767h4.6859v7.0288zm0.97621-0.97621h9.7623v-5.0744h-4.6859v-1.3003l-2.9287 1.1715v-1.1519l-2.1477 0.95182zm4.393-1.3667h0.97621v-2.3429h-0.97621zm-2.3429 0h0.97621v-2.3429h-0.97621zm4.6859 0h0.97622v-2.3429h-0.97622zm4.0025-4.6859h-2.7334l0.58572-4.6859h1.562zm-10.738 6.0526h9.7623z"
     stroke-width=".014643"
     id="path108" />
  <path
     d="m 37.572,96.69 -0.55136,-0.56319 1.3035,-1.3193 h -4.1075 v -0.8034 h 4.1075 l -1.3035,-1.3154 0.55136,-0.55922 2.2684,2.2763 z"
     stroke-width="0.46769"
     id="path110" />
  <path
     d="m17.728 97.281-0.55136-0.56319 1.3035-1.3193h-4.1075v-0.8034h4.1075l-1.3035-1.3154 0.55136-0.55922 2.2684 2.2763z"
     stroke-width=".46769"
     id="path112" />
  <path
     d="m7.9859 99.178q-0.92779 0-1.7438-0.35211-0.816-0.35211-1.4196-0.95573-0.60362-0.60362-0.95573-1.4196-0.35211-0.816-0.35211-1.7438 0-0.92778 0.35211-1.7438 0.35211-0.816 0.95573-1.4196 0.60362-0.60362 1.4196-0.95573 0.816-0.35211 1.7438-0.35211 0.92779 0 1.7438 0.35211 0.816 0.35211 1.4196 0.95573 0.60362 0.60362 0.95573 1.4196 0.35211 0.816 0.35211 1.7438 0 0.92779-0.35211 1.7438-0.35211 0.816-0.95573 1.4196-0.60362 0.60362-1.4196 0.95573-0.816 0.35211-1.7438 0.35211zm-0.46948-0.76011v-0.9017q-0.38378 0-0.6502-0.28132-0.26641-0.28132-0.26641-0.6651v-0.47694l-2.2431-2.2431q-0.048435 0.21612-0.072658 0.4285-0.024223 0.21238-0.024223 0.42849 0 1.4196 0.92593 2.4815 0.92592 1.0619 2.3306 1.2296zm3.2193-1.1849q0.23847-0.26082 0.42105-0.55704 0.18257-0.29622 0.3074-0.61853 0.12483-0.3223 0.18631-0.66136 0.06148-0.33908 0.06148-0.68932 0-1.1551-0.6353-2.1015-0.63529-0.94642-1.6972-1.3786v0.19376q0 0.38378-0.26642 0.6651-0.26641 0.28131-0.65019 0.28131h-0.94642v0.94642q0 0.19003-0.14345 0.31486-0.14346 0.12483-0.33349 0.12483h-0.91661v0.95386h2.8169q0.19003 0 0.31485 0.13973 0.12483 0.13973 0.12483 0.32976v1.3935h0.46948q0.31299 0 0.55518 0.18444 0.24218 0.18444 0.33161 0.47879z"
     stroke-width=".011178"
     id="path114" />
  <text
     x="22.559971"
     y="68.035484"
     fill="#000000"
     font-family="sans-serif"
     font-size="7.0553px"
     stroke-width="0.26458"
     style="line-height:1.25"
     xml:space="preserve"
     id="text118"><tspan
       x="22.559971"
       y="68.035484"
       font-family="'Noto Sans'"
       font-size="7.0553px"
       font-weight="600"
       stroke-width="0.26458"
       id="tspan116">BCH</tspan></text>
  <text
     x="70.304825"
     y="69.634987"
     fill="#000000"
     font-family="sans-serif"
     font-size="7.0553px"
     stroke-width="0.26458"
     style="line-height:1.25"
     xml:space="preserve"
     id="text122"><tspan
       x="70.304825"
       y="69.634987"
       font-family="'Noto Sans'"
       font-size="7.0553px"
       font-weight="600"
       stroke-width="0.26458"
       id="tspan120">BTC</tspan></text>
  <path
     d="m 97.907585,99.059038 q -0.92779,0 -1.7438,-0.35211 -0.816,-0.35211 -1.4196,-0.95573 -0.60362,-0.60362 -0.95573,-1.4196 -0.35211,-0.816 -0.35211,-1.7438 0,-0.92778 0.35211,-1.7438 0.35211,-0.816 0.95573,-1.4196 0.60362,-0.60362 1.4196,-0.95573 0.816,-0.35211 1.7438,-0.35211 0.92779,0 1.7438,0.35211 0.816005,0.35211 1.419605,0.95573 0.60362,0.60362 0.95572,1.4196 0.35211,0.816 0.35211,1.7438 0,0.92779 -0.35211,1.7438 -0.3521,0.816 -0.95572,1.4196 -0.60362,0.60362 -1.419605,0.95573 -0.816,0.35211 -1.7438,0.35211 z m -0.46948,-0.76011 v -0.9017 q -0.38378,0 -0.6502,-0.28132 -0.26641,-0.28132 -0.26641,-0.6651 v -0.47694 l -2.2431,-2.2431 q -0.04843,0.21612 -0.07266,0.4285 -0.02422,0.21238 -0.02422,0.42849 0,1.4196 0.92593,2.4815 0.92592,1.0619 2.3306,1.2296 z m 3.219305,-1.1849 q 0.23847,-0.26082 0.42105,-0.55704 0.18257,-0.29622 0.3074,-0.61853 0.12483,-0.3223 0.18631,-0.66136 0.0615,-0.33908 0.0615,-0.68932 0,-1.1551 -0.6353,-2.1015 -0.63529,-0.94642 -1.697205,-1.3786 v 0.19376 q 0,0.38378 -0.26642,0.6651 -0.26641,0.28131 -0.65019,0.28131 h -0.94642 v 0.94642 q 0,0.19003 -0.14345,0.31486 -0.14346,0.12483 -0.33349,0.12483 h -0.91661 v 0.95386 h 2.8169 q 0.19003,0 0.31485,0.13973 0.12483,0.13973 0.12483,0.32976 v 1.3935 h 0.46948 q 0.312995,0 0.555185,0.18444 0.24218,0.18444 0.33161,0.47879 z"
     stroke-width="0.011178"
     id="path114-3" />
  <path
     d="m 88.773483,97.289881 -0.70742,-0.7226 1.6725,-1.6927 h -5.2702 v -1.0308 h 5.2702 l -1.6725,-1.68771 0.70742,-0.7175 2.9105,2.9206 z"
     stroke-width="0.60007"
     id="path98-6" />
  <path
     style="fill:none;stroke:#000000;stroke-width:0.582065;stroke-linecap:butt;stroke-linejoin:miter;stroke-opacity:1;stroke-miterlimit:4;stroke-dasharray:none"
     d="m 30.865997,85.174923 c 0.289654,-0.171664 0.414687,-0.795148 0.07833,-0.972837 -0.251304,-0.132758 -0.365277,0.04369 -0.449343,-0.288556 -0.05797,-0.229122 -0.074,-0.467514 -0.131917,-0.696649 -0.152475,-0.603231 -0.358603,-1.120129 -0.894566,-1.47575 -0.152374,-0.101102 -0.361205,-0.137922 -0.540037,-0.152522 -0.156856,-0.01281 -0.0287,0.210017 -0.0742,0.177255 -0.428778,-0.308703 -0.832966,-0.867137 -1.422233,-0.849172 -0.35448,0.0108 -0.714636,0.238959 -1.018236,0.408096 -0.05139,0.02863 -0.157145,0.123419 -0.173141,0.115424 -0.09683,-0.04841 -0.17762,-0.126316 -0.267957,-0.185499 -0.113574,-0.07441 -0.226317,-0.133764 -0.346283,-0.193743"
     id="path995" />
  <path
     style="fill:none;stroke:#000000;stroke-width:0.582065;stroke-linecap:butt;stroke-linejoin:miter;stroke-opacity:1;stroke-miterlimit:4;stroke-dasharray:none"
     d="m 30.865997,85.174923 c -0.367413,-0.03117 -0.630609,0.242232 -0.977012,0.296801 -0.668981,0.10538 -1.772163,-0.57762 -2.213736,-1.038796 -0.04611,-0.04815 -0.227966,-0.274018 -0.267956,-0.39573 -0.01842,-0.05607 -0.03434,-0.114177 -0.0371,-0.173133 -0.0051,-0.108422 0.08076,-0.123667 0.05359,-0.123667 -0.03476,0 -0.0654,0.02384 -0.09894,0.03298 -0.117082,0.03193 -0.254791,0.0414 -0.375138,0.02474 -0.504621,-0.06987 -1.157338,-0.667242 -1.51705,-1.001694 -0.09324,-0.08669 -0.183961,-0.176062 -0.276202,-0.263821 -0.230426,-0.21923 -0.265292,-0.190169 -0.313303,-0.507032"
     id="path997" />
  <path
     d="m 101.08042,90.840937 0.76434,-0.76432 0.75697,0.75698 0.27927,-0.27927 -0.76065,-0.76065 0.77903,-0.77903 -0.27927,-0.27927 -0.77168,0.77168 -0.77168,-0.77168 -0.27927,0.27927 0.77168,0.77168 -0.77168,0.77168 z m 0.768,1.07668 c -0.5855,0 -1.0871,-0.20762 -1.5048,-0.62285 -0.41768,-0.41523 -0.62652,-0.9156 -0.62652,-1.5011 0,-0.5904 0.20884,-1.09443 0.62652,-1.5121 0.41768,-0.41768 0.91928,-0.62652 1.5048,-0.62652 0.58549,0 1.08709,0.20884 1.5048,0.62652 0.41768,0.41768 0.62652,0.92171 0.62652,1.5121 0,0.58549 -0.20884,1.08586 -0.62652,1.5011 -0.41769,0.41523 -0.91929,0.62285 -1.5048,0.62285 z"
     stroke-width="0.011024"
     id="path96-7"
     sodipodi:nodetypes="cccccccccccccsssssssss" />
  <path
     d="m 33.042036,16.772116 q -0.433606,0 -0.743115,-0.30877 -0.309536,-0.308788 -0.309536,-0.74239 0,-0.433603 0.308778,-0.743149 0.308791,-0.309499 0.742385,-0.309499 0.433609,0 0.743157,0.308766 0.30951,0.308791 0.30951,0.742393 0,0.433602 -0.308765,0.743126 -0.308778,0.309523 -0.742388,0.309523 z m -0.745451,9.001764 v -4.6172 q 0,-0.465429 -0.235052,-0.837805 -0.235026,-0.372352 -0.653925,-0.558528 l 0.544587,-1.596501 q 0.111777,-0.349088 0.411905,-0.558551 0.300206,-0.209447 0.67723,-0.209447 0.377029,0 0.677222,0.209447 0.300244,0.209454 0.411956,0.558551 l 1.42426,4.165669 h -1.489427 v 3.44441 z M 29.92284,19.909246 q -0.3491,0 -0.593443,-0.244357 -0.244368,-0.244358 -0.244368,-0.593446 0,-0.349091 0.244368,-0.59345 0.244343,-0.244355 0.593443,-0.244355 0.349087,0 0.593443,0.244355 0.244355,0.244359 0.244355,0.59345 0,0.349088 -0.244355,0.593446 -0.244356,0.244357 -0.593443,0.244357 z m -3.862517,-3.13713 q -0.433608,0 -0.743117,-0.30877 -0.309535,-0.308788 -0.309535,-0.74239 0,-0.433603 0.308765,-0.743149 0.308791,-0.309499 0.742398,-0.309499 0.433632,0 0.743154,0.308766 0.30951,0.308791 0.30951,0.742393 0,0.433602 -0.308753,0.743126 -0.308791,0.309523 -0.742409,0.309523 z m -1.024715,9.001764 v -4.002871 h -0.930902 v -3.444411 q 0,-0.383982 0.273435,-0.657444 0.273436,-0.273438 0.657442,-0.273438 h 2.04799 q 0.38398,0 0.657441,0.273438 0.273462,0.273439 0.273462,0.657444 v 3.444411 h -0.930903 v 4.002871 z m 4.095838,0 V 23.446618 H 28.479818 V 21.15668 q 0,-0.287038 0.200916,-0.487937 0.200928,-0.200924 0.487941,-0.200924 h 1.508073 q 0.287013,0 0.487942,0.200924 0.200915,0.200907 0.200915,0.487937 v 2.289938 h -0.651641 v 2.327262 z"
     stroke-width="0.0139636"
     id="path4-5" />
  <path
     d="m 39.417398,16.439474 c 0.0997,0.258047 0.0655,0.501499 -0.102667,0.730356 -0.168145,0.228869 -0.394318,0.343303 -0.678509,0.343303 -0.144335,0 -0.277141,-0.03686 -0.398407,-0.110591 -0.121276,-0.07373 -0.214643,-0.18125 -0.280101,-0.322567 -0.3229,0.03996 -0.606731,-0.06564 -0.851503,-0.316794 -0.244763,-0.251137 -0.353759,-0.544898 -0.32697,-0.88128 -0.133916,-0.07526 -0.237333,-0.18547 -0.31025,-0.330624 -0.0729,-0.145149 -0.109357,-0.291451 -0.109357,-0.438907 0,-0.29952 0.111217,-0.528002 0.33367,-0.685444 0.222453,-0.157438 0.471315,-0.174721 0.746586,-0.05185 l 0.406217,0.170494 c 0.0804,-0.161284 0.193434,-0.288389 0.33925,-0.381315 0.145825,-0.09293 0.30504,-0.143998 0.477645,-0.153215 v -0.585215 h 0.352648 v 0.622076 c 0.177065,0.04146 0.32958,0.13401 0.457546,0.277636 0.127966,0.143618 0.215013,0.296832 0.261142,0.459645 h 0.598161 v 0.368636 h -0.566922 c -0.0119,0.178179 -0.0614,0.34253 -0.148415,0.493054 -0.087,0.150529 -0.208694,0.267266 -0.364929,0.350212 z m -1.58468,0.188917 c -0.009,-0.12441 -0.003,-0.249977 0.019,-0.376699 0.0216,-0.126718 0.0539,-0.249983 0.0971,-0.369791 -0.114576,0.0599 -0.233983,0.09792 -0.358229,0.114047 -0.124246,0.01614 -0.248862,0.01658 -0.373848,0.0013 0.006,0.161277 0.0718,0.306813 0.197524,0.436608 0.125736,0.129788 0.265232,0.194682 0.418497,0.194682 z m -0.495495,-1.082869 c 0.166655,0 0.33442,-0.03917 0.503305,-0.1175 0.168894,-0.07834 0.30467,-0.151304 0.407337,-0.218885 l -0.901722,-0.382469 c -0.117546,-0.05222 -0.236952,-0.048 -0.358219,0.01267 -0.121276,0.06068 -0.181914,0.151684 -0.181914,0.273024 0,0.119806 0.0625,0.221949 0.187494,0.306428 0.124996,0.08449 0.239563,0.126724 0.343719,0.126724 z m 1.298999,1.506817 c 0.129446,0 0.233233,-0.04493 0.311351,-0.13479 0.0781,-0.08986 0.0949,-0.192384 0.0502,-0.307587 l -0.388358,-1.027585 c -0.0818,0.13824 -0.157355,0.281857 -0.226553,0.430852 -0.0692,0.148993 -0.103776,0.320255 -0.103776,0.513791 0,0.112133 0.0301,0.227718 0.0904,0.346756 0.0603,0.119042 0.149165,0.178563 0.266721,0.178563 z m 0.437457,-1.488385 c 0.0923,-0.06145 0.156235,-0.137091 0.191944,-0.226945 0.0357,-0.08986 0.0536,-0.185478 0.0536,-0.286848 0,-0.156673 -0.0536,-0.291074 -0.160695,-0.403202 -0.107137,-0.112128 -0.235843,-0.168192 -0.386128,-0.168192 -0.0982,0 -0.192694,0.02151 -0.283461,0.06451 -0.0908,0.04301 -0.160705,0.111363 -0.209803,0.205059 l 0.562452,0.239618 z"
     id="path10317-8-8"
     style="display:inline;stroke-width:0.00680303"
     sodipodi:nodetypes="ccsscccsscccscccccccccccccscccccccccccssccssccsssscsssssccc" />
  <path
     d="m 43.022187,6.7740027 v -1.219197 h 0.530092 v 1.219197 z m 2.062069,0.853444 -0.368409,-0.368396 0.858733,-0.871986 0.371069,0.379005 z m 0.482375,1.690994 v -0.530091 h 1.219181 v 0.530091 z m -2.544444,3.2335463 v -1.219199 h 0.530092 v 1.219199 z m -1.53726,-4.9351483 -0.858728,-0.8508 0.373705,-0.371071 0.86142,0.861375 z m 4.092193,4.0975653 -0.861393,-0.866694 0.360479,-0.360465 0.874642,0.842835 z M 39.788673,9.3183787 v -0.530091 h 1.219201 v 0.530091 z m 1.216552,2.3960253 -0.376354,-0.373715 0.853448,-0.853444 0.193571,0.177587 0.19357,0.185538 z m 2.282059,-0.75272 q -0.795149,0 -1.351741,-0.556594 -0.556593,-0.5565916 -0.556593,-1.3517103 0,-0.795119 0.556593,-1.351744 0.556592,-0.556593 1.351741,-0.556593 0.795146,0 1.351736,0.556593 0.556592,0.556594 0.556592,1.351744 0,0.7951517 -0.556592,1.3517103 -0.55659,0.556594 -1.351736,0.556594 z m 0,-0.53009 q 0.572495,0 0.975391,-0.402863 0.402844,-0.4028636 0.402844,-0.9753823 0,-0.572521 -0.402844,-0.975384 -0.402876,-0.402864 -0.975391,-0.402864 -0.572512,0 -0.975386,0.402864 -0.402875,0.402863 -0.402875,0.975384 0,0.5725187 0.402875,0.9753823 0.402874,0.402863 0.975386,0.402863 z"
     stroke-width="0.00795152"
     id="path46" />
  <path
     d="m 16.500838,18.950887 v -2.544438 h -0.954166 l 3.180661,-2.862504 1.48426,1.319921 v -0.895875 h 0.742109 v 1.574375 l 0.954168,0.861785 h -0.954168 v 2.546705 h -1.855336 v -1.908337 h -0.742131 v 1.908337 z m 0.530093,-0.53009 h 0.79515 V 16.51246 h 1.802295 v 1.908337 h 0.79515 v -2.634554 l -1.696318,-1.537265 -1.696277,1.537265 z m 0.79515,-1.908337 h 1.802295 z m 0.238537,-0.792505 h 1.325201 q 0,-0.259738 -0.198746,-0.428045 -0.198746,-0.168292 -0.463823,-0.168292 -0.265036,0 -0.463825,0.167464 -0.198744,0.167464 -0.198744,0.428894 z"
     stroke-width="0.00795152"
     id="path48" />
</svg>
