<svg width="400" height="400" version="1.1" viewBox="0 0 105.83 105.83" xmlns="http://www.w3.org/2000/svg">
 <rect width="105.49" height="105.49" ry=".13328" fill="#fff"/>
 <path d="m0.13328 0h105.22c0.0738 0 0.13328 0.059443 0.13328 0.13328v105.22c0 0.0738-0.0594 0.13328-0.13328 0.13328h-105.22c-0.073837 0-0.13328-0.05944-0.13328-0.13328v-105.22c0-0.073837 0.059443-0.13328 0.13328-0.13328z" fill="#fff"/>
 <path d="m86.767 14.203q-0.49803 0-0.8488-0.35205-0.35078-0.35205-0.35078-0.85007 0-0.49803 0.35205-0.8488 0.35205-0.35078 0.85007-0.35078 0.49803 0 0.8488 0.35205 0.35077 0.35207 0.35077 0.85007 0 0.49803-0.35205 0.8488-0.35205 0.35078-0.85007 0.35078zm-1.2628 9.7333v-3.2866h-1.4031l1.6749-4.7465q0.11375-0.30338 0.38397-0.49613 0.27021-0.19278 0.6099-0.19278 0.3397 0 0.60831 0.19278 0.26861 0.19275 0.38239 0.49613l1.6749 4.7465h-1.4031v3.2866z" stroke-width=".018961"/>
 <path d="m71.071 25.32q-0.55387 0-0.94904-0.39519-0.39517-0.39516-0.39517-0.94903t0.39517-0.94903q0.39516-0.39518 0.94904-0.39518 0.55387 0 0.94903 0.39518 0.39518 0.39516 0.39518 0.94903 0 0.55388-0.39518 0.94903-0.39516 0.39519-0.94903 0.39519zm0 3.1365q-1.867 0-3.1738-1.3069-1.3069-1.3069-1.3069-3.1738 0-1.867 1.3069-3.1738 1.3069-1.3069 3.1738-1.3069 1.3131 0 2.3243 0.62854 1.0113 0.62853 1.5963 1.8234h6.6215l2.1532 2.1532-3.1987 3.0245-1.5932-1.1699-1.5931 1.1699-1.4624-1.1202h-0.92727q-0.5103 1.0828-1.5153 1.7674-1.0051 0.68456-2.4053 0.68456zm0-1.2446q1.0704 0 1.9448-0.69078 0.87435-0.69078 1.1357-1.7612h2.1968l1.033 0.81525 1.6056-1.1638 1.4625 1.114 1.5247-1.45-0.88372-0.88368h-6.9389q-0.23648-1.0206-1.0984-1.7363-0.86192-0.71568-1.9821-0.71568-1.3442 0-2.2901 0.94593-0.94594 0.94593-0.94594 2.2901 0 1.3442 0.94594 2.2901 0.94593 0.94593 2.2901 0.94593z" stroke-width=".01867"/>
 <g transform="translate(-72.868 -3.1366)">
  <path d="m83.987 65.383v-0.43864h-0.6411v-0.33741h0.43864v-2.092h-0.43864v-0.33742h0.6411v-0.43864h0.33742v0.43864h0.50613v-0.43864h0.33741v0.4572q0.26994 0.06073 0.43865 0.27415t0.16871 0.48335q0 0.1434-0.05399 0.2809t-0.15521 0.24716q0.19064 0.10292 0.30114 0.28681t0.1105 0.39984q0 0.32054-0.22607 0.5483t-0.54998 0.22776h-0.03375v0.43864h-0.33742v-0.43864h-0.50613v0.43864zm0.13496-1.9908h0.87729q0.18389 0 0.31127-0.12906t0.12738-0.30958q0-0.18389-0.12738-0.31127t-0.31127-0.12738h-0.87729zm0 1.2147h1.0797q0.18389 0 0.31127-0.12906t0.12738-0.30958q0-0.18389-0.12738-0.31127t-0.31127-0.12738h-1.0797z" stroke-width=".0050613"/>
  <path d="m89.341 64.495q0.36768 0 0.63859-0.27092 0.27092-0.27092 0.27092-0.64342 0-0.37251-0.27092-0.63859-0.27091-0.26609-0.63859-0.26609-0.36766 0-0.63859 0.26609-0.27092 0.26607-0.27092 0.63859 0 0.3725 0.27092 0.64342t0.63859 0.27092zm-6.6955 2.8349v0.51283-8.5145zm0 1.4804q-0.38218 0-0.67486-0.28784-0.29269-0.28784-0.29269-0.6797v-8.5145q0-0.38218 0.29269-0.67485 0.29268-0.29269 0.67486-0.29269h8.5145q0.39186 0 0.6797 0.29269 0.28784 0.29267 0.28784 0.67485v1.7803h-0.96754v-1.7803h-8.5145v8.5145h8.5145v-1.7706h0.96754v1.7706q0 0.39186-0.28784 0.6797t-0.6797 0.28784zm5.0119-2.4479q-0.48861 0-0.79581-0.3072-0.3072-0.30719-0.3072-0.78613v-3.3574q0-0.48862 0.3072-0.79097 0.3072-0.30236 0.79581-0.30236h3.967q0.48862 0 0.79582 0.30236 0.30719 0.30236 0.30719 0.79097v3.3574q0 0.47894-0.30719 0.78613-0.3072 0.3072-0.79582 0.3072zm4.1024-0.96754v-3.609h-4.2379v3.609z" stroke-width=".014513"/>
 </g>
 <path d="m78.77 18.028v-0.77847h-1.1378v-0.59881h0.77847v-3.7127h-0.77847v-0.59882h1.1378v-0.77847h0.59882v0.77847h0.89824v-0.77847h0.59881v0.8114q0.47906 0.10778 0.77847 0.48654t0.29941 0.85781q0 0.2545-0.09581 0.49852t-0.27545 0.43863q0.33832 0.18265 0.53445 0.509 0.19612 0.32635 0.19612 0.7096 0 0.56888-0.40122 0.97308-0.4012 0.4042-0.97607 0.4042h-0.05988v0.77847h-0.59882v-0.77847h-0.89824v0.77847zm0.23952-3.533h1.5569q0.32635 0 0.55241-0.22905t0.22606-0.54942q0-0.32635-0.22606-0.55241t-0.55241-0.22606h-1.5569zm0 2.1558h1.9162q0.32636 0 0.55242-0.22905t0.22606-0.54942q0-0.32635-0.22606-0.55241t-0.55242-0.22606h-1.9162z" stroke-width=".0089823"/>
 <path d="m52.751 64.805q-1.4061 0-2.3965-0.99396-0.99039-0.99396-0.99039-2.4001t0.99396-2.3965q0.99396-0.99038 2.4001-0.99038t2.3965 0.99396q0.99036 0.99402 0.99036 2.4001 0 1.4061-0.99396 2.3965-0.99396 0.99037-2.4001 0.99037zm-3.5653 27.481v-9.2792h-3.9615l4.7288-13.401q0.32117-0.85654 1.0841-1.4008 0.76291-0.54428 1.722-0.54428 0.95911 0 1.7175 0.54428 0.7584 0.54422 1.0796 1.4008l4.7288 13.401h-3.9615v9.2792z" stroke-width=".053534"/>
 <path d="m23.268 77.218q-0.68206 0-1.1831-0.50102-0.50101-0.501-0.50101-1.1831v-18.862q0-0.68205 0.50101-1.1831 0.50102-0.50102 1.1831-0.50102h10.778q0.68204 0 1.1831 0.50102 0.501 0.50102 0.501 1.1831v18.862q0 0.68207-0.501 1.1831-0.50103 0.50102-1.1831 0.50102zm0-2.5261v0.84204h10.778v-0.84204zm0-1.6841h10.778v-13.81h-10.778zm0-15.494h10.778v-0.84204h-10.778zm0 0v-0.84204zm0 17.178v0.84204z" stroke-width=".025262"/>
 <g stroke-width=".26458" aria-label="bitcoincash:qqax4..5rqe">
  <path d="m6.8422 40.049q0-0.83922-0.34727-1.3146-0.34313-0.47956-0.94671-0.47956t-0.95085 0.47956q-0.34313 0.47542-0.34313 1.3146 0 0.83923 0.34313 1.3188 0.34727 0.47542 0.95085 0.47542t0.94671-0.47542q0.34727-0.47956 0.34727-1.3188zm-2.588-1.6164q0.23978-0.41341 0.60358-0.61185 0.36794-0.20257 0.87643-0.20257 0.84336 0 1.3684 0.66973 0.52917 0.66973 0.52917 1.7611 0 1.0914-0.52917 1.7611-0.52503 0.66973-1.3684 0.66973-0.5085 0-0.87643-0.19844-0.3638-0.20257-0.60358-0.61598v0.69453h-0.76481v-6.4327h0.76481z"/>
  <path d="m8.8927 37.73h0.76068v4.6302h-0.76068zm0-1.8025h0.76068v0.96325h-0.76068z"/>
  <path d="m11.997 36.415v1.3146h1.5668v0.59118h-1.5668v2.5135q0 0.56637 0.15296 0.7276 0.1571 0.16123 0.63252 0.16123h0.78135v0.63665h-0.78135q-0.88057 0-1.2154-0.3266-0.33486-0.33073-0.33486-1.1989v-2.5135h-0.55811v-0.59118h0.55811v-1.3146z"/>
  <path d="m17.897 37.908v0.71107q-0.32246-0.17777-0.64906-0.26458-0.32246-0.09095-0.65319-0.09095-0.74001 0-1.1493 0.47129-0.40928 0.46716-0.40928 1.3146t0.40928 1.3188q0.40928 0.46716 1.1493 0.46716 0.33073 0 0.65319-0.08682 0.3266-0.09095 0.64906-0.26872v0.7028q-0.31833 0.14883-0.66146 0.22324-0.339 0.07441-0.72347 0.07441-1.0459 0-1.6619-0.65732-0.61598-0.65732-0.61598-1.7735 0-1.1327 0.62012-1.7818 0.62425-0.64906 1.7074-0.64906 0.3514 0 0.68626 0.07441 0.33486 0.07028 0.64906 0.21497z"/>
  <path d="m21.014 38.263q-0.61185 0-0.96738 0.47956-0.35553 0.47542-0.35553 1.3064 0 0.83096 0.3514 1.3105 0.35553 0.47542 0.97152 0.47542 0.60772 0 0.96325-0.47956t0.35553-1.3064q0-0.82269-0.35553-1.3022-0.35553-0.48369-0.96325-0.48369zm0-0.64492q0.99219 0 1.5586 0.64492 0.56637 0.64492 0.56637 1.7859 0 1.1369-0.56637 1.7859-0.56637 0.64492-1.5586 0.64492-0.99632 0-1.5627-0.64492-0.56224-0.64906-0.56224-1.7859 0-1.141 0.56224-1.7859 0.56637-0.64492 1.5627-0.64492z"/>
  <path d="m24.4 37.73h0.76068v4.6302h-0.76068zm0-1.8025h0.76068v0.96325h-0.76068z"/>
  <path d="m30.601 39.566v2.7947h-0.76068v-2.7699q0-0.65732-0.25632-0.98392t-0.76895-0.3266q-0.61598 0-0.97152 0.39274t-0.35553 1.0707v2.6169h-0.76481v-4.6302h0.76481v0.71934q0.27285-0.41754 0.64079-0.62425 0.37207-0.20671 0.85576-0.20671 0.79788 0 1.2072 0.49609 0.40928 0.49196 0.40928 1.4511z"/>
  <path d="m35.45 37.908v0.71107q-0.32246-0.17777-0.64906-0.26458-0.32246-0.09095-0.65319-0.09095-0.74001 0-1.1493 0.47129-0.40928 0.46716-0.40928 1.3146t0.40928 1.3188q0.40928 0.46716 1.1493 0.46716 0.33073 0 0.65319-0.08682 0.3266-0.09095 0.64906-0.26872v0.7028q-0.31833 0.14883-0.66146 0.22324-0.339 0.07441-0.72347 0.07441-1.0459 0-1.6619-0.65732-0.61598-0.65732-0.61598-1.7735 0-1.1327 0.62012-1.7818 0.62425-0.64906 1.7074-0.64906 0.3514 0 0.68626 0.07441 0.33486 0.07028 0.64906 0.21497z"/>
  <path d="m38.877 40.033q-0.92191 0-1.2774 0.21084t-0.35553 0.71934q0 0.40514 0.26458 0.64492 0.26872 0.23564 0.7276 0.23564 0.63252 0 1.0129-0.44648 0.38447-0.45062 0.38447-1.1948v-0.1695zm1.5172-0.31419v2.6417h-0.76068v-0.7028q-0.26045 0.42168-0.64906 0.62425-0.38861 0.19844-0.95085 0.19844-0.71107 0-1.1327-0.39688-0.41755-0.40101-0.41755-1.0707 0-0.78135 0.5209-1.1782 0.52503-0.39688 1.5627-0.39688h1.0666v-0.07441q0-0.52503-0.34727-0.81029-0.34313-0.28939-0.96738-0.28939-0.39688 0-0.77308 0.09509-0.3762 0.09508-0.72347 0.28525v-0.7028q0.41755-0.16123 0.81029-0.23978 0.39274-0.08268 0.76481-0.08268 1.0046 0 1.5007 0.5209 0.49609 0.5209 0.49609 1.5792z"/>
  <path d="m44.913 37.867v0.71934q-0.32246-0.16536-0.66973-0.24805-0.34727-0.08268-0.71934-0.08268-0.56637 0-0.85163 0.17363-0.28112 0.17363-0.28112 0.5209 0 0.26458 0.20257 0.41755 0.20257 0.14883 0.81442 0.28525l0.26045 0.05788q0.81029 0.17363 1.1493 0.49196 0.34313 0.31419 0.34313 0.88057 0 0.64492-0.51263 1.0211-0.5085 0.3762-1.4015 0.3762-0.37207 0-0.77721-0.07441-0.40101-0.07028-0.84749-0.21498v-0.78548q0.42168 0.21911 0.83096 0.33073 0.40928 0.10749 0.81029 0.10749 0.53744 0 0.82682-0.1819 0.28939-0.18604 0.28939-0.5209 0-0.31006-0.21084-0.47542-0.20671-0.16536-0.91364-0.31833l-0.26458-0.06201q-0.70693-0.14883-1.0211-0.45475-0.31419-0.31006-0.31419-0.84749 0-0.65319 0.46302-1.0087t1.3146-0.35553q0.42168 0 0.79375 0.06201t0.68626 0.18604z"/>
  <path d="m50.221 39.566v2.7947h-0.76068v-2.7699q0-0.65732-0.25632-0.98392t-0.76895-0.3266q-0.61598 0-0.97152 0.39274t-0.35553 1.0707v2.6169h-0.76481v-6.4327h0.76481v2.5218q0.27285-0.41754 0.64079-0.62425 0.37207-0.20671 0.85576-0.20671 0.79788 0 1.2072 0.49609 0.40928 0.49196 0.40928 1.4511z"/>
  <path d="m51.933 41.31h0.8723v1.0501h-0.8723zm0-3.328h0.8723v1.0501h-0.8723z"/>
  <path d="m55.046 40.049q0 0.83923 0.34313 1.3188 0.34727 0.47542 0.95085 0.47542t0.95085-0.47542q0.34727-0.47956 0.34727-1.3188 0-0.83922-0.34727-1.3146-0.34727-0.47956-0.95085-0.47956t-0.95085 0.47956q-0.34313 0.47542-0.34313 1.3146zm2.5921 1.6164q-0.23978 0.41341-0.60772 0.61598-0.3638 0.19844-0.87643 0.19844-0.83922 0-1.3684-0.66973-0.52503-0.66973-0.52503-1.7611 0-1.0914 0.52503-1.7611 0.52917-0.66973 1.3684-0.66973 0.51263 0 0.87643 0.20257 0.36794 0.19844 0.60772 0.61185v-0.7028h0.76068v6.3913h-0.76068z"/>
  <path d="m60.42 40.049q0 0.83923 0.34313 1.3188 0.34727 0.47542 0.95085 0.47542t0.95085-0.47542q0.34726-0.47956 0.34726-1.3188 0-0.83922-0.34726-1.3146-0.34727-0.47956-0.95085-0.47956t-0.95085 0.47956q-0.34313 0.47542-0.34313 1.3146zm2.5921 1.6164q-0.23978 0.41341-0.60772 0.61598-0.3638 0.19844-0.87643 0.19844-0.83923 0-1.3684-0.66973-0.52503-0.66973-0.52503-1.7611 0-1.0914 0.52503-1.7611 0.52917-0.66973 1.3684-0.66973 0.51263 0 0.87643 0.20257 0.36794 0.19844 0.60772 0.61185v-0.7028h0.76068v6.3913h-0.76068z"/>
  <path d="m67.444 40.033q-0.92191 0-1.2774 0.21084t-0.35553 0.71934q0 0.40514 0.26458 0.64492 0.26872 0.23564 0.7276 0.23564 0.63252 0 1.0129-0.44648 0.38447-0.45062 0.38447-1.1948v-0.1695zm1.5172-0.31419v2.6417h-0.76068v-0.7028q-0.26045 0.42168-0.64906 0.62425-0.38861 0.19844-0.95085 0.19844-0.71107 0-1.1327-0.39688-0.41755-0.40101-0.41755-1.0707 0-0.78135 0.5209-1.1782 0.52503-0.39688 1.5627-0.39688h1.0666v-0.07441q0-0.52503-0.34727-0.81029-0.34313-0.28939-0.96738-0.28939-0.39688 0-0.77308 0.09509-0.3762 0.09508-0.72347 0.28525v-0.7028q0.41755-0.16123 0.81029-0.23978 0.39274-0.08268 0.76481-0.08268 1.0046 0 1.5007 0.5209 0.49609 0.5209 0.49609 1.5792z"/>
  <path d="m74.377 37.73-1.6743 2.2531 1.7611 2.3771h-0.8971l-1.3477-1.819-1.3477 1.819h-0.8971l1.7983-2.4226-1.6454-2.2076h0.8971l1.2278 1.6495 1.2278-1.6495z"/>
  <path d="m77.941 36.916-2.1084 3.2949h2.1084zm-0.21911-0.7276h1.0501v4.0225h0.88057v0.69453h-0.88057v1.4552h-0.83096v-1.4552h-2.7864v-0.80615z"/>
  <path d="m81.033 41.31h0.8723v1.0501h-0.8723z"/>
  <path d="m83.724 41.31h0.8723v1.0501h-0.8723z"/>
  <path d="m86.424 36.188h3.2784v0.7028h-2.5135v1.5131q0.1819-0.06201 0.3638-0.09095 0.1819-0.03307 0.3638-0.03307 1.0335 0 1.6371 0.56637 0.60358 0.56637 0.60358 1.5338 0 0.99632-0.62012 1.5503-0.62012 0.54984-1.7487 0.54984-0.38861 0-0.79375-0.06615-0.40101-0.06615-0.83096-0.19844v-0.83922q0.37207 0.20257 0.76895 0.30179t0.83922 0.09922q0.7152 0 1.1327-0.3762 0.41755-0.3762 0.41755-1.0211 0-0.64492-0.41755-1.0211-0.41754-0.3762-1.1327-0.3762-0.33486 0-0.66973 0.07441-0.33073 0.07441-0.678 0.23151z"/>
  <path d="m94.378 38.441q-0.12816-0.07441-0.28112-0.10749-0.14883-0.03721-0.33073-0.03721-0.64492 0-0.99219 0.42168-0.34313 0.41755-0.34313 1.203v2.4391h-0.76481v-4.6302h0.76481v0.71934q0.23978-0.42168 0.62425-0.62425 0.38447-0.20671 0.93431-0.20671 0.07855 0 0.17363 0.0124 0.09508 0.0083 0.21084 0.02894z"/>
  <path d="m95.482 40.049q0 0.83923 0.34313 1.3188 0.34727 0.47542 0.95085 0.47542t0.95085-0.47542q0.34727-0.47956 0.34727-1.3188 0-0.83922-0.34727-1.3146-0.34726-0.47956-0.95085-0.47956t-0.95085 0.47956q-0.34313 0.47542-0.34313 1.3146zm2.5921 1.6164q-0.23978 0.41341-0.60772 0.61598-0.3638 0.19844-0.87643 0.19844-0.83922 0-1.3684-0.66973-0.52503-0.66973-0.52503-1.7611 0-1.0914 0.52503-1.7611 0.52917-0.66973 1.3684-0.66973 0.51263 0 0.87643 0.20257 0.36794 0.19844 0.60772 0.61185v-0.7028h0.76068v6.3913h-0.76068z"/>
  <path d="m104.36 39.855v0.37207h-3.4975q0.0496 0.78548 0.47129 1.1989 0.42581 0.40928 1.1824 0.40928 0.43821 0 0.84749-0.10749 0.41341-0.10749 0.81856-0.32246v0.71934q-0.40928 0.17363-0.83923 0.26458t-0.8723 0.09095q-1.1079 0-1.757-0.64492-0.64492-0.64492-0.64492-1.7446 0-1.1369 0.61185-1.8025 0.61598-0.66973 1.6578-0.66973 0.93431 0 1.4759 0.60358 0.5457 0.59945 0.5457 1.633zm-0.76068-0.22324q-8e-3 -0.62425-0.35139-0.99632-0.339-0.37207-0.90124-0.37207-0.63666 0-1.0211 0.35967-0.38034 0.35967-0.43822 1.0129z"/>
 </g>
 <path d="m24.992 71.886q-0.22236 0-0.3857-0.16334t-0.16334-0.38569v-4.8315q0-0.22236 0.16334-0.3857t0.3857-0.16334h4.8315q0.22236 0 0.38569 0.16334 0.16334 0.16334 0.16334 0.3857v4.8315q0 0.22236-0.16334 0.38569-0.16334 0.16334-0.38569 0.16334zm0-0.54903h4.8315v-1.0761h-1.131q-0.2251 0.32393-0.56688 0.49962-0.34178 0.17571-0.71787 0.17571t-0.71787-0.17571q-0.34178-0.17569-0.56688-0.49962h-1.131zm2.4171-0.94983q0.32807 0 0.59435-0.18942 0.26629-0.18942 0.42551-0.48591h1.3946v-3.2064h-4.8315v3.2064h1.3946q0.15922 0.29648 0.42686 0.48591 0.26763 0.18942 0.5957 0.18942zm-0.0013-0.92788-1.2792-1.2793 0.38981-0.3953 0.61492 0.61492v-1.4934h0.54903v1.4934l0.61492-0.61492 0.38981 0.3953zm-2.4158 1.8777h4.8315z" stroke-width=".0082355"/>
 <path d="m61.061 14.001h6.3996v-2.2399c0-0.92065-0.30875-1.6925-0.92627-2.3157-0.6175-0.62311-1.3754-0.93467-2.2735-0.93467-0.89818 0-1.656 0.31156-2.2735 0.93467-0.6175 0.62312-0.92626 1.395-0.92626 2.3157zm4.5808 14.045h-7.7806c-0.44347 0-0.83501-0.16982-1.1746-0.50945-0.33963-0.33962-0.50945-0.73117-0.50945-1.1746v-10.677c0-0.44347 0.16982-0.83502 0.50945-1.1746 0.33962-0.33963 0.73116-0.50945 1.1746-0.50945h1.5157v-2.2399c0-1.3753 0.47295-2.5416 1.4188-3.4987 0.94592-0.95713 2.1009-1.4357 3.465-1.4357s2.5192 0.47856 3.465 1.4357c0.9459 0.95714 1.4188 2.1234 1.4188 3.4987v2.2399h1.5157c0.44348 0 0.83502 0.16982 1.1746 0.50945 0.33964 0.33961 0.50945 0.73116 0.50945 1.1746v1.9031c-0.24701-0.06737-0.50384-0.11508-0.77048-0.14313-0.26664-0.02807-0.57118-0.0421-0.91361-0.0421v-1.7178h-12.799v10.677h6.8543c0.12352 0.32559 0.25264 0.61328 0.38737 0.86309 0.13472 0.2498 0.31436 0.52347 0.5389 0.821zm-7.7806-12.361v10.677z" stroke-width=".025262"/>
 <path d="m91.41 17.687q-0.22236 0-0.3857-0.16334t-0.16334-0.38569v-4.8315q0-0.22236 0.16334-0.3857t0.3857-0.16334h4.8315q0.22235 0 0.38569 0.16334t0.16334 0.3857v4.8315q0 0.22236-0.16334 0.38569-0.16334 0.16334-0.38569 0.16334zm0-0.54903h4.8315v-1.0761h-1.131q-0.2251 0.32393-0.56688 0.49962-0.34178 0.17571-0.71787 0.17571t-0.71787-0.17571q-0.34178-0.17569-0.56688-0.49962h-1.131zm2.4171-0.94983q0.32807 0 0.59435-0.18942 0.26629-0.18942 0.42551-0.48591h1.3946v-3.2064h-4.8315v3.2064h1.3946q0.15922 0.29648 0.42686 0.48591 0.26763 0.18942 0.5957 0.18942zm-0.0013-0.92788-1.2792-1.2793 0.38981-0.3953 0.61492 0.61492v-1.4934h0.54903v1.4934l0.61492-0.61492 0.38981 0.3953zm-2.4158 1.8777h4.8315z" stroke-width=".0082355"/>
 <path d="m24.562 24.855q-0.68917 0-1.1954-0.50624-0.50624-0.50623-0.50624-1.1954v-13.613q0-0.68917 0.50624-1.1954 0.50624-0.50624 1.1954-0.50624h10.55q0.68918 0 1.1954 0.50624 0.50624 0.50624 0.50624 1.1954v13.613q0 0.68917-0.50624 1.1954-0.50624 0.50624-1.1954 0.50624zm0-1.7016h10.55v-13.613h-10.55zm-3.4033 5.105q-0.68918 0-1.1954-0.50623-0.50624-0.50623-0.50624-1.1954v-15.315h1.7016v15.315h12.252v1.7016zm3.4033-5.105v-13.613z" stroke-width=".025525"/>
</svg>
