<?xml version="1.0" encoding="UTF-8" standalone="no"?>
<svg
   xmlns:dc="http://purl.org/dc/elements/1.1/"
   xmlns:cc="http://creativecommons.org/ns#"
   xmlns:rdf="http://www.w3.org/1999/02/22-rdf-syntax-ns#"
   xmlns:svg="http://www.w3.org/2000/svg"
   xmlns="http://www.w3.org/2000/svg"
   xmlns:sodipodi="http://sodipodi.sourceforge.net/DTD/sodipodi-0.dtd"
   xmlns:inkscape="http://www.inkscape.org/namespaces/inkscape"
   width="400"
   height="400"
   version="1.1"
   viewBox="0 0 105.83 105.83"
   id="svg13268"
   sodipodi:docname="10.svg"
   inkscape:version="1.0.2 (e86c870879, 2021-01-15)">
  <metadata
     id="metadata13274">
    <rdf:RDF>
      <cc:Work
         rdf:about="">
        <dc:format>image/svg+xml</dc:format>
        <dc:type
           rdf:resource="http://purl.org/dc/dcmitype/StillImage" />
      </cc:Work>
    </rdf:RDF>
  </metadata>
  <defs
     id="defs13272" />
  <sodipodi:namedview
     pagecolor="#ffffff"
     bordercolor="#666666"
     borderopacity="1"
     objecttolerance="10"
     gridtolerance="10"
     guidetolerance="10"
     inkscape:pageopacity="0"
     inkscape:pageshadow="2"
     inkscape:window-width="1834"
     inkscape:window-height="1018"
     id="namedview13270"
     showgrid="false"
     inkscape:zoom="1.4711354"
     inkscape:cx="132.52534"
     inkscape:cy="169.09122"
     inkscape:window-x="0"
     inkscape:window-y="0"
     inkscape:window-maximized="0"
     inkscape:current-layer="svg13268"
     inkscape:document-rotation="0" />
  <rect
     width="105.49"
     height="105.49"
     ry="0.13327999"
     fill="#ffffff"
     id="rect2"
     x="0"
     y="0" />
  <rect
     x="9.7353"
     y="7.1351"
     width="78.332"
     height="69.539"
     ry=".2638"
     fill="none"
     stroke="#000"
     stroke-dasharray="0, 1.30746"
     stroke-linejoin="bevel"
     stroke-miterlimit="4.1"
     stroke-opacity=".25297"
     stroke-width=".11886"
     id="rect13214" />
  <rect
     x="37.166878"
     y="34.189774"
     width="21.103571"
     height="14.28602"
     ry="0.2557174"
     fill="#d38d22"
     stroke="#000000"
     stroke-dasharray="0, 1.51769"
     stroke-dashoffset="1.37972"
     stroke-linejoin="round"
     stroke-miterlimit="4.1"
     stroke-opacity="0.25297"
     stroke-width="0.137972"
     id="rect13218" />
  <path
     d="m 47.891633,81.749175 c -0.844196,0 -1.653131,-0.15571 -2.42699,-0.46712 -0.773846,-0.31148 -1.466023,-0.77241 -2.076361,-1.38275 l -11.585617,-11.604332 1.12118,-1.401458 c 0.473381,-0.597979 1.061991,-1.012197 1.765922,-1.242668 0.703852,-0.230458 1.423199,-0.246072 2.158187,-0.04678 l 4.821169,1.326747 V 48.11338 c 0,-0.529461 0.179755,-0.97326 0.539132,-1.33136 0.359417,-0.358138 0.804771,-0.537208 1.336103,-0.537208 0.531265,0 0.974432,0.17907 1.329514,0.537208 0.355043,0.358152 0.532557,0.801952 0.532557,1.33136 v 23.787634 l -6.446761,-1.737856 7.107565,7.107566 c 0.232277,0.232289 0.508826,0.413837 0.829702,0.544627 0.320928,0.13084 0.652568,0.19624 0.994895,0.19624 h 9.474075 c 1.457591,0 2.693947,-0.507656 3.709332,-1.522949 1.015306,-1.015306 1.522946,-2.251741 1.522946,-3.709332 v -9.71705 c 0,-0.529434 0.179755,-0.973233 0.539132,-1.331359 0.359417,-0.358152 0.804771,-0.537221 1.336103,-0.537221 0.531331,0 0.974459,0.179069 1.329514,0.537221 0.355042,0.358165 0.53257,0.801965 0.53257,1.331359 v 9.71705 c 0,2.466651 -0.87827,4.578194 -2.634784,6.334761 -1.756566,1.756574 -3.868109,2.634784 -6.33476,2.634784 z m 0.766164,-16.07013 v -9.343232 c 0,-0.529434 0.179754,-0.973233 0.539118,-1.331359 0.359417,-0.358139 0.804785,-0.537208 1.336103,-0.537208 0.531292,0 0.974459,0.179056 1.329514,0.537208 0.355016,0.358178 0.532557,0.801978 0.532557,1.331359 v 9.343232 z m 6.951423,0 v -7.100846 c 0,-0.52942 0.179754,-0.97322 0.539132,-1.331359 0.359404,-0.358138 0.804771,-0.537208 1.336103,-0.537208 0.531331,0 0.974458,0.179056 1.329514,0.537208 0.355042,0.358192 0.53257,0.801991 0.53257,1.331359 v 7.100846 z"
     stroke-width="0.0560597"
     id="path13216" />
  <path
     d="m 63.483481,41.770055 4.869467,-0.01342 -2.271812,2.284388 0.447351,0.441739 3.029057,-3.045826 -3.045826,-3.029056 -0.444907,0.444168 2.284349,2.27181 -4.869467,0.01342 z"
     stroke-width="0.0094922"
     id="path13222" />
  <rect
     style="fill:#dd62dd;fill-opacity:1;stroke-width:1.36496;stroke-linejoin:round;stroke-dashoffset:7.35"
     id="rect13837"
     width="23.359505"
     height="14.386342"
     x="75.490227"
     y="33.846882" />
  <path
     d="m 89.265715,45.288199 q -0.532833,0 -0.905806,-0.37369 -0.372974,-0.373679 -0.372974,-0.907514 0,-0.07474 0.01469,-0.173165 0.01471,-0.09843 0.0441,-0.177177 l -3.263092,-1.896121 q -0.172713,0.180054 -0.411558,0.288464 -0.238856,0.108399 -0.492407,0.108399 -0.532821,0 -0.905806,-0.372974 -0.372973,-0.372985 -0.372973,-0.905806 0,-0.532821 0.372973,-0.905806 0.372985,-0.372973 0.905806,-0.372973 0.253551,0 0.485054,0.09737 0.231503,0.09739 0.418911,0.27744 l 3.263092,-1.881426 q -0.02939,-0.07401 -0.0441,-0.166539 -0.01469,-0.09252 -0.01469,-0.178874 0,-0.532821 0.372974,-0.905806 0.372973,-0.372974 0.905806,-0.372974 0.532821,0 0.905794,0.372974 0.372985,0.372985 0.372985,0.905806 0,0.532821 -0.372985,0.905794 -0.372973,0.372985 -0.905794,0.372985 -0.256153,0 -0.490027,-0.08636 -0.233884,-0.08635 -0.406596,-0.266405 L 85.106,40.511152 q 0.02205,0.08084 0.03674,0.185566 0.01471,0.104727 0.01471,0.18367 0,0.07894 -0.01471,0.163518 -0.01469,0.08459 -0.03674,0.165426 l 3.263092,1.866731 q 0.172712,-0.158017 0.396862,-0.251721 0.224162,-0.0937 0.499761,-0.0937 0.532821,0 0.905794,0.372985 0.372985,0.372974 0.372985,0.905795 0,0.532821 -0.372985,0.905806 -0.372973,0.372973 -0.905794,0.372973 z m 2.53e-4,-6.996543 q 0.23125,0 0.387426,-0.15643 0.156166,-0.15643 0.156166,-0.387669 0,-0.23125 -0.15643,-0.387426 -0.15643,-0.156176 -0.38768,-0.156176 -0.231239,0 -0.387415,0.15643 -0.156177,0.156441 -0.156177,0.387679 0,0.23125 0.15643,0.387426 0.156441,0.156166 0.38768,0.156166 z m -5.387045,3.130815 q 0.231249,0 0.387426,-0.156441 0.156165,-0.15643 0.156165,-0.387668 0,-0.23125 -0.15643,-0.387426 -0.15643,-0.156177 -0.38768,-0.156177 -0.231238,0 -0.387415,0.156441 -0.156176,0.15643 -0.156176,0.387669 0,0.231249 0.15643,0.387426 0.156441,0.156176 0.38768,0.156176 z m 5.387045,3.130805 q 0.23125,0 0.387426,-0.15643 0.156166,-0.156441 0.156166,-0.38768 0,-0.231249 -0.15643,-0.387426 -0.15643,-0.156165 -0.38768,-0.156165 -0.231239,0 -0.387415,0.15643 -0.156177,0.15643 -0.156177,0.387679 0,0.231239 0.15643,0.387415 0.156441,0.156177 0.38768,0.156177 z m -2.53e-4,-6.805465 z m -5.387046,3.130804 z m 5.387046,3.130805 z"
     id="path13943-4"
     style="stroke-width:0.011024" />
  <path
     d="m 47.818543,45.325406 -0.55547,-0.499914 q -1.24004,-1.131748 -2.05038,-1.952578 -0.81031,-0.820831 -1.29039,-1.469544 -0.48011,-0.648712 -0.67253,-1.180371 -0.19244,-0.531671 -0.19244,-1.079208 0,-1.088362 0.73006,-1.817801 0.73005,-0.729439 1.80925,-0.729439 0.65864,0 1.22998,0.301539 0.57135,0.30155 0.99192,0.864955 0.46818,-0.587212 1.02762,-0.876858 0.55943,-0.289636 1.19427,-0.289636 1.07919,0 1.80926,0.729439 0.73004,0.729439 0.73004,1.817801 0,0.547537 -0.19244,1.079208 -0.19242,0.531659 -0.67251,1.180371 -0.48008,0.648713 -1.29041,1.469544 -0.81033,0.82083 -2.05037,1.952578 z m 0,-1.055391 q 1.18424,-1.07916 1.94907,-1.85089 0.7648,-0.771731 1.21315,-1.349038 0.44836,-0.577294 0.6269,-1.028692 0.17855,-0.451409 0.17855,-0.896462 0,-0.762933 -0.492,-1.258895 -0.49199,-0.495962 -1.25199,-0.495962 -0.59536,0 -1.10202,0.355113 -0.50667,0.355102 -0.78046,0.970094 h -0.69036 q -0.26583,-0.607052 -0.77252,-0.96613 -0.50666,-0.359077 -1.10201,-0.359077 -0.76,0 -1.25199,0.495962 -0.492,0.495962 -0.492,1.260253 0,0.445849 0.17855,0.900139 0.17854,0.454301 0.62689,1.03556 0.44836,0.581271 1.21809,1.349013 0.76971,0.767742 1.94415,1.839012 z m 0,-3.439963 z"
     id="path39593-8"
     style="display:inline;stroke-width:0.011903" />
</svg>
