<?xml version="1.0" encoding="UTF-8" standalone="no"?>
<svg
   xmlns:dc="http://purl.org/dc/elements/1.1/"
   xmlns:cc="http://creativecommons.org/ns#"
   xmlns:rdf="http://www.w3.org/1999/02/22-rdf-syntax-ns#"
   xmlns:svg="http://www.w3.org/2000/svg"
   xmlns="http://www.w3.org/2000/svg"
   xmlns:sodipodi="http://sodipodi.sourceforge.net/DTD/sodipodi-0.dtd"
   xmlns:inkscape="http://www.inkscape.org/namespaces/inkscape"
   width="400"
   height="400"
   version="1.1"
   viewBox="0 0 105.83 105.83"
   id="svg13268"
   sodipodi:docname="10.svg"
   inkscape:version="1.0.2 (e86c870879, 2021-01-15)">
  <metadata
     id="metadata13274">
    <rdf:RDF>
      <cc:Work
         rdf:about="">
        <dc:format>image/svg+xml</dc:format>
        <dc:type
           rdf:resource="http://purl.org/dc/dcmitype/StillImage" />
      </cc:Work>
    </rdf:RDF>
  </metadata>
  <defs
     id="defs13272" />
  <sodipodi:namedview
     pagecolor="#ffffff"
     bordercolor="#666666"
     borderopacity="1"
     objecttolerance="10"
     gridtolerance="10"
     guidetolerance="10"
     inkscape:pageopacity="0"
     inkscape:pageshadow="2"
     inkscape:window-width="1834"
     inkscape:window-height="1018"
     id="namedview13270"
     showgrid="false"
     inkscape:zoom="2.8271676"
     inkscape:cx="107.04491"
     inkscape:cy="189.6635"
     inkscape:window-x="0"
     inkscape:window-y="0"
     inkscape:window-maximized="0"
     inkscape:current-layer="svg13268"
     inkscape:document-rotation="0" />
  <rect
     width="105.49"
     height="105.49"
     ry="0.13327999"
     fill="#ffffff"
     id="rect2"
     x="0"
     y="0" />
  <rect
     x="9.7353"
     y="7.1351"
     width="78.332"
     height="69.539"
     ry=".2638"
     fill="none"
     stroke="#000"
     stroke-dasharray="0, 1.30746"
     stroke-linejoin="bevel"
     stroke-miterlimit="4.1"
     stroke-opacity=".25297"
     stroke-width=".11886"
     id="rect13214" />
  <rect
     x="10.386475"
     y="27.016235"
     width="33.26973"
     height="22.521875"
     ry="0.40313786"
     fill="#d38d22"
     stroke="#000000"
     stroke-dasharray="0, 2.39263"
     stroke-dashoffset="2.17513"
     stroke-linejoin="round"
     stroke-miterlimit="4.1"
     stroke-opacity="0.25297"
     stroke-width="0.217513"
     id="rect13218" />
  <path
     d="m 46.552212,39.129622 9.042609,-0.02492 -4.218759,4.242112 0.830731,0.82031 5.624964,-5.656104 -5.656103,-5.624962 -0.826192,0.824822 4.242039,4.218753 -9.042608,0.02492 z"
     stroke-width="0.0176271"
     id="path13222" />
  <rect
     style="fill:#dd62dd;fill-opacity:1;stroke-width:1.83314;stroke-linejoin:round;stroke-dashoffset:7.35"
     id="rect13837"
     width="28.197599"
     height="21.495604"
     x="60.347752"
     y="26.737621" />
  <path
     d="m 77.110485,43.434499 q -0.712943,0 -1.21199,-0.500005 -0.499047,-0.499992 -0.499047,-1.214276 0,-0.100004 0.01966,-0.231698 0.01968,-0.131702 0.059,-0.237068 l -4.366097,-2.537054 q -0.231094,0.240916 -0.550674,0.385972 -0.319595,0.14504 -0.658853,0.14504 -0.712926,0 -1.21199,-0.499048 -0.499046,-0.499063 -0.499046,-1.211989 0,-0.712928 0.499046,-1.21199 0.499064,-0.499048 1.21199,-0.499048 0.339258,0 0.649014,0.130284 0.309756,0.13031 0.560513,0.371221 l 4.366094,-2.517391 q -0.03932,-0.09903 -0.059,-0.222834 -0.01966,-0.123794 -0.01966,-0.239337 0,-0.712928 0.499048,-1.21199 0.499047,-0.499049 1.21199,-0.499049 0.712926,0 1.211974,0.499049 0.499062,0.499062 0.499062,1.21199 0,0.712927 -0.499062,1.211973 -0.499048,0.499063 -1.211974,0.499063 -0.342739,0 -0.655668,-0.115554 -0.312942,-0.115542 -0.544035,-0.356457 l -4.366094,2.458393 q 0.02951,0.108161 0.04916,0.248291 0.01968,0.140128 0.01968,0.245755 0,0.105619 -0.01968,0.21879 -0.01966,0.113185 -0.04916,0.221345 l 4.366094,2.49773 q 0.231093,-0.211431 0.531011,-0.336809 0.299934,-0.125373 0.668692,-0.125373 0.712926,0 1.211974,0.499064 0.499062,0.499047 0.499062,1.211975 0,0.712927 -0.499062,1.211989 -0.499048,0.499047 -1.211974,0.499047 z m 3.38e-4,-9.361539 q 0.309418,0 0.518386,-0.209307 0.208954,-0.209307 0.208954,-0.51871 0,-0.309419 -0.209307,-0.518385 -0.209307,-0.208967 -0.518725,-0.208967 -0.309403,0 -0.518371,0.209306 -0.208968,0.209322 -0.208968,0.518724 0,0.309418 0.209307,0.518385 0.209321,0.208954 0.518724,0.208954 z m -7.207993,4.189105 q 0.309417,0 0.518385,-0.209323 0.208953,-0.209307 0.208953,-0.518709 0,-0.309418 -0.209307,-0.518385 -0.209307,-0.208967 -0.518724,-0.208967 -0.309402,0 -0.518371,0.209321 -0.208967,0.209307 -0.208967,0.51871 0,0.309417 0.209306,0.518385 0.209322,0.208968 0.518725,0.208968 z m 7.207993,4.18909 q 0.309418,0 0.518386,-0.209307 0.208954,-0.209322 0.208954,-0.518725 0,-0.309416 -0.209307,-0.518385 -0.209307,-0.208953 -0.518725,-0.208953 -0.309403,0 -0.518371,0.209307 -0.208968,0.209308 -0.208968,0.518725 0,0.309403 0.209307,0.518369 0.209321,0.208969 0.518724,0.208969 z m -3.38e-4,-9.105872 z m -7.207994,4.18909 z m 7.207994,4.18909 z"
     id="path13943-4"
     style="stroke-width:0.0147504" />
  <path
     d="m 27.178798,44.571531 -0.875697,-0.788113 q -1.95492,-1.784198 -3.232419,-3.078234 -1.277452,-1.294039 -2.034297,-2.316733 -0.756892,-1.022693 -1.060242,-1.860852 -0.303381,-0.838178 -0.303381,-1.701369 0,-1.7158 1.150938,-2.865759 1.150922,-1.149958 2.852278,-1.149958 1.038344,0 1.939061,0.475375 0.900731,0.475393 1.563759,1.3636 0.738085,-0.925739 1.62004,-1.382365 0.88194,-0.45661 1.882764,-0.45661 1.701341,0 2.852294,1.149958 1.150906,1.149959 1.150906,2.865759 0,0.863191 -0.303381,1.701369 -0.303349,0.838159 -1.06021,1.860852 -0.756845,1.022694 -2.034328,2.316733 -1.277484,1.294036 -3.232404,3.078234 z m 0,-1.663821 q 1.866951,-1.701293 3.072704,-2.917924 1.205705,-1.216632 1.912528,-2.126755 0.706839,-0.910102 0.988306,-1.62173 0.281484,-0.711645 0.281484,-1.41327 0,-1.202762 -0.775637,-1.984645 -0.775621,-0.781883 -1.973759,-0.781883 -0.938583,0 -1.737332,0.559835 -0.798764,0.559817 -1.230393,1.52935 h -1.088351 q -0.41908,-0.957016 -1.217876,-1.523101 -0.798748,-0.566084 -1.737316,-0.566084 -1.198138,0 -1.973759,0.781883 -0.775637,0.781883 -0.775637,1.986786 0,0.702879 0.281484,1.419066 0.281468,0.716205 0.98829,1.632558 0.706839,0.916373 1.920316,2.126716 1.213446,1.210343 3.064948,2.899198 z m 0,-5.423093 z"
     id="path39593-8"
     style="display:inline;stroke-width:0.0187651" />
  <path
     d="m 39.642285,68.000134 q -0.953392,0 -1.841036,-0.394506 -0.887634,-0.394506 -1.479394,-1.150642 l -7.133983,-9.073639 0.690385,-0.756136 q 0.460256,-0.493133 1.134212,-0.608196 0.673934,-0.115063 1.265704,0.213697 l 3.254662,1.742393 v -11.99956 q 0,-0.419161 0.285201,-0.702712 0.285233,-0.283552 0.706823,-0.283552 0.421624,0 0.701069,0.283552 0.279446,0.283551 0.279446,0.702712 v 15.287111 l -4.734077,-2.531413 5.128587,6.509348 q 0.328742,0.394507 0.781115,0.591759 0.452363,0.197245 0.961286,0.197245 h 6.739473 q 1.249276,0 2.104031,-0.854763 0.854756,-0.854762 0.854756,-2.104029 v -5.588837 q 0,-0.838326 -0.56709,-1.405428 -0.567111,-0.567103 -1.405438,-0.567103 h -7.232609 v -1.97253 h 7.22098 q 1.64864,0 2.802667,1.150642 1.154029,1.150642 1.154029,2.794419 v 5.588837 q 0,2.071155 -1.430087,3.501238 -1.430086,1.430085 -3.501239,1.430085 z m -7.955882,-19.23217 q -0.364053,-0.616547 -0.560098,-1.331193 -0.196021,-0.714617 -0.196021,-1.471311 0,-2.326074 1.63473,-3.953411 1.634731,-1.627338 3.954091,-1.627338 2.319382,0 3.954112,1.635163 1.634731,1.63516 1.634731,3.95512 0,0.75469 -0.196034,1.466707 -0.196022,0.711985 -0.560097,1.326263 L 39.642295,47.7817 q 0.230129,-0.394506 0.361632,-0.854764 0.131514,-0.460256 0.131514,-0.969104 0,-1.496559 -1.055892,-2.548574 -1.05587,-1.052016 -2.564288,-1.052016 -1.508396,0 -2.560412,1.054745 -1.052027,1.054777 -1.052027,2.561558 0,0.493135 0.131493,0.953391 0.131492,0.460258 0.361632,0.854764 z m 9.369529,11.013293 z"
     id="path4984"
     style="stroke-width:0.0328754" />
</svg>
