<?xml version="1.0" encoding="UTF-8" standalone="no"?>
<svg
   xmlns:dc="http://purl.org/dc/elements/1.1/"
   xmlns:cc="http://creativecommons.org/ns#"
   xmlns:rdf="http://www.w3.org/1999/02/22-rdf-syntax-ns#"
   xmlns:svg="http://www.w3.org/2000/svg"
   xmlns="http://www.w3.org/2000/svg"
   xmlns:sodipodi="http://sodipodi.sourceforge.net/DTD/sodipodi-0.dtd"
   xmlns:inkscape="http://www.inkscape.org/namespaces/inkscape"
   width="400"
   height="400"
   version="1.1"
   viewBox="0 0 105.83 105.83"
   id="svg164"
   sodipodi:docname="12.svg"
   inkscape:version="1.0.2 (e86c870879, 2021-01-15)">
  <metadata
     id="metadata170">
    <rdf:RDF>
      <cc:Work
         rdf:about="">
        <dc:format>image/svg+xml</dc:format>
        <dc:type
           rdf:resource="http://purl.org/dc/dcmitype/StillImage" />
      </cc:Work>
    </rdf:RDF>
  </metadata>
  <defs
     id="defs168">
    <rect
       x="-23.150817"
       y="42.589946"
       width="82.664301"
       height="12.950207"
       id="rect861" />
  </defs>
  <sodipodi:namedview
     pagecolor="#ffffff"
     bordercolor="#666666"
     borderopacity="1"
     objecttolerance="10"
     gridtolerance="10"
     guidetolerance="10"
     inkscape:pageopacity="0"
     inkscape:pageshadow="2"
     inkscape:window-width="1841"
     inkscape:window-height="1050"
     id="namedview166"
     showgrid="false"
     inkscape:zoom="0.85153884"
     inkscape:cx="344.86734"
     inkscape:cy="177.08999"
     inkscape:window-x="0"
     inkscape:window-y="0"
     inkscape:window-maximized="0"
     inkscape:current-layer="svg164"
     inkscape:document-rotation="0" />
  <path
     d="m 0.13328,0 h 105.22 c 0.0738,0 0.13328,0.059443 0.13328,0.13328 v 105.22 c 0,0.0738 -0.0594,0.13328 -0.13328,0.13328 H 0.13328 C 0.059443,105.48656 0,105.42716 0,105.35328 V 0.13328 C 0,0.059443 0.059443,0 0.13328,0 Z"
     fill="#fff"
     id="path2"
     style="fill:#ffffff" />
  <rect
     style="fill:#ffe5bf;fill-opacity:1;stroke:#878787;stroke-width:0.703639;stroke-miterlimit:4;stroke-dasharray:none;stroke-dashoffset:7.35;stroke-opacity:1"
     id="rect860"
     width="60.604092"
     height="15.307519"
     x="28.000448"
     y="36.518471"
     ry="2.6239128"
     rx="3.9777267" />
  <path
     d="m 41.177312,58.424351 h 29.317519 c 0.05507,0 0.09941,0.03693 0.09941,0.08281 v 21.663003 c 0,0.04589 -0.04433,0.08281 -0.09941,0.08281 H 41.177312 c -0.05507,0 -0.09941,-0.03695 -0.09941,-0.08281 V 58.50716 c 0,-0.04588 0.04433,-0.08281 0.09941,-0.08281 z"
     fill="#fbfbfb"
     fill-opacity="0.85421"
     stroke="#000000"
     stroke-dasharray="0, 0.449664"
     stroke-linejoin="bevel"
     stroke-miterlimit="4.1"
     stroke-opacity="0.25297"
     stroke-width="0.0408788"
     id="path128" />
  <path
     d="m 64.615627,70.309636 q -0.878039,0 -1.695525,-0.36333 -0.817487,-0.36332 -1.362476,-1.0597 l -6.570147,-8.356504 0.635818,-0.696375 q 0.423884,-0.454159 1.044567,-0.560128 0.620677,-0.105968 1.165672,0.196808 l 2.997438,1.604683 V 50.023914 q 0,-0.386033 0.262658,-0.647174 0.262686,-0.261141 0.650958,-0.261141 0.388301,0 0.645663,0.261141 0.257357,0.261141 0.257357,0.647174 v 14.078892 l -4.359919,-2.331339 4.723245,5.994879 q 0.302768,0.36333 0.719385,0.54499 0.416612,0.18166 0.885306,0.18166 h 6.206821 q 1.150537,0 1.937741,-0.78721 0.787205,-0.7872 0.787205,-1.93774 v -5.14712 q 0,-0.772068 -0.522278,-1.29435 -0.522283,-0.522282 -1.294353,-0.522282 h -6.660981 v -1.816631 h 6.650266 q 1.518339,0 2.581158,1.059701 1.062819,1.059701 1.062819,2.573562 v 5.14712 q 0,1.90747 -1.317053,3.22452 -1.317059,1.31706 -3.224524,1.31706 z m -7.327086,-17.71216 q -0.335285,-0.567819 -0.515831,-1.225983 -0.180534,-0.658137 -0.180534,-1.355026 0,-2.142233 1.505534,-3.640954 1.505534,-1.498721 3.641584,-1.498721 2.136062,0 3.641591,1.505928 1.505534,1.505926 1.505534,3.642528 0,0.695043 -0.180535,1.350786 -0.180534,0.655713 -0.51583,1.221442 l -1.574415,-0.908315 q 0.211939,-0.363326 0.33305,-0.787208 0.121116,-0.42388 0.121116,-0.892511 0,-1.378278 -0.97244,-2.347148 -0.972412,-0.96887 -2.36162,-0.96887 -1.38918,0 -2.358048,0.971383 -0.968873,0.971413 -0.968873,2.359107 0,0.454159 0.121099,0.878039 0.121099,0.423882 0.33305,0.787208 z m 8.629004,10.142859 z"
     id="path4984"
     style="stroke-width:0.0302771" />
  <g
     id="g2377"
     transform="matrix(0.58319809,0,0,0.58319809,-2.5531759,31.486077)">
    <g
       transform="matrix(0.10148163,0,0,0.10148163,29.60935,16.959417)"
       id="g16">
      <path
         d="M 65.419,0.36106 C 45.374826,0.36074542 10.667159,-4.3156284 -1.0136025,10.154346 -9.8406756,21.089209 1.699,48.933574 1.699,64.08106 1.6992253,78.436378 -11.355728,108.51547 -3.3456916,119.16904 8.28061,134.63235 44.58306,131.87087 65.419,131.87054 c 7.368503,0 43.33596,-0.13213 50.28447,0.45178 0,0 8.17764,-48.649659 8.17807,-76.472231 2.81601,-6.847245 20.7538,21.053295 22.00974,1.802371 1.45981,-22.375647 0.95138,-45.429557 -3.65099,-51.2614166 C 130.57153,-8.3949338 85.716562,0.36106 65.419,0.36106 Z m -34.705,28.607 18.962,0.06599 17.785,24.847 9.8729,-13.077 -6.6037,-0.78448 v -11.05 h 31.973 v 11.508 l -6.4077,1.1117 -18.177,22.296 19.158,23.343 6.6697,1.0464 v 11.443 h -18.635 l -19.093,-25.566 -10.331,13.862 5.6886,0.71916 v 10.985 h -31.516 v -11.443 l 6.6044,-1.0464 19.093,-23.016 -18.439,-22.623 -6.6044,-1.1117 z"
         fill="#ffb200"
         stroke="#000000"
         stroke-dasharray="0, 6.182"
         stroke-linejoin="bevel"
         stroke-miterlimit="4.1"
         stroke-opacity="0.25297"
         stroke-width="0.562"
         id="path14"
         sodipodi:nodetypes="cscscscsscccccccccccccccccccccccccc" />
    </g>
    <path
       d="m 33.131063,16.344586 h 6.399802 v -2.23997 q 0,-1.381044 -0.926299,-2.315673 -0.926289,-0.9347 -2.273572,-0.9347 -1.347342,0 -2.273571,0.9347 -0.92629,0.934709 -0.92629,2.315673 z m 4.580945,14.045443 h -7.780845 q -0.665231,0 -1.174637,-0.509466 Q 28.24706,29.371117 28.24706,28.705926 V 18.028589 q 0,-0.665231 0.509466,-1.174637 0.509436,-0.509466 1.174637,-0.509466 h 1.515747 v -2.23997 q 0,-2.063065 1.418845,-3.498811 1.418945,-1.435745 3.465109,-1.435745 2.046265,0 3.465109,1.435745 1.418845,1.435746 1.418845,3.498811 v 2.23997 h 1.515748 q 0.665231,0 1.174637,0.509466 0.509466,0.509436 0.509466,1.174637 v 1.90316 q -0.370532,-0.101053 -0.770504,-0.143134 -0.399983,-0.0421 -0.913639,-0.0421 V 18.028659 H 29.931123 v 10.677337 h 6.854516 q 0.185275,0.488395 0.387382,0.863117 0.202086,0.374712 0.538917,0.821026 z m 5.237765,0.909438 q -2.029464,0 -3.48201,-1.452546 -1.452546,-1.452545 -1.452546,-3.482009 0,-2.029464 1.452546,-3.48201 1.452546,-1.452546 3.48201,-1.452546 2.029364,0 3.482009,1.452546 1.452646,1.452546 1.452546,3.48201 0,2.029364 -1.452546,3.482009 -1.452545,1.452646 -3.482009,1.452546 z m 1.802056,-2.442077 0.690502,-0.690491 -2.037864,-1.90306 v -3.031496 h -1.044233 v 3.364506 z M 29.931363,18.028049 v 10.677337 z"
       stroke-width="0.0252628"
       id="path16-3" />
  </g>
  <path
     style="fill:#ff9955;stroke:none;stroke-width:0.264575px;stroke-linecap:butt;stroke-linejoin:miter;stroke-opacity:1"
     d="M 26.985989,0.037554 29.98011,3.631248 32.840603,0 Z"
     id="path853" />
  <path
     d="m 27.339416,12.497782 h 1.322876 v -2.64575 h 2.64575 v 2.64575 h 1.322875 V 8.529157 L 29.985167,6.544844 27.339416,8.529157 Z M 26.4575,13.379699 v -5.2915 l 3.527667,-2.645751 3.527667,2.645751 v 5.2915 h -3.086709 v -2.64575 h -0.881917 v 2.64575 z m 3.527667,-3.858385 z"
     id="path1097"
     style="stroke-width:0.011024" />
  <path
     d="m 40.045965,67.66898 q -0.545807,0 -0.94673,-0.400931 -0.400923,-0.400931 -0.400931,-0.946731 V 55.540122 q 0,-0.545808 0.400931,-0.946731 0.400931,-0.400931 0.94673,-0.400931 h 8.355369 q 0.545815,0 0.94673,0.400931 0.400931,0.400931 0.400931,0.946731 v 10.781196 q 0,0.545808 -0.400931,0.946731 -0.400931,0.400931 -0.94673,0.400931 z m 0,-1.34763 h 8.355369 V 55.540153 h -8.355369 z m -2.695339,4.043048 q -0.545815,0 -0.94673,-0.400923 -0.400931,-0.400931 -0.400931,-0.946731 V 56.887601 h 1.34763 v 12.129143 h 9.703315 v 1.34763 z M 40.045965,66.32135 V 55.540153 Z"
     stroke-width="0.0202152"
     id="path132" />
  <text
     xml:space="preserve"
     id="text858"
     style="font-size:4.93873px;line-height:1.25;font-family:'Annie Use Your Telescope';-inkscape-font-specification:'Annie Use Your Telescope';white-space:pre;shape-inside:url(#rect861);"
     transform="translate(53.083383,-3.7813423)"><tspan
       x="-23.150391"
       y="47.083471"><tspan
         style="font-style:normal;font-variant:normal;font-weight:600;font-stretch:normal;font-size:4.93873px;font-family:'Noto Sans';-inkscape-font-specification:'Noto Sans Semi-Bold'">bitcoincash:p ...</tspan></tspan></text>
  <text
     xml:space="preserve"
     style="font-size:2.1166px;line-height:1.25;font-family:'Annie Use Your Telescope';-inkscape-font-specification:'Annie Use Your Telescope';stroke-width:0.264575"
     x="-11.643627"
     y="44.782093"
     id="text867"><tspan
       sodipodi:role="line"
       id="tspan865"
       x="-11.643627"
       y="44.782093"
       style="stroke-width:0.264575"></tspan></text>
</svg>
