<?xml version="1.0" encoding="UTF-8" standalone="no"?>
<svg
   xmlns:dc="http://purl.org/dc/elements/1.1/"
   xmlns:cc="http://creativecommons.org/ns#"
   xmlns:rdf="http://www.w3.org/1999/02/22-rdf-syntax-ns#"
   xmlns:svg="http://www.w3.org/2000/svg"
   xmlns="http://www.w3.org/2000/svg"
   xmlns:sodipodi="http://sodipodi.sourceforge.net/DTD/sodipodi-0.dtd"
   xmlns:inkscape="http://www.inkscape.org/namespaces/inkscape"
   width="400"
   height="400"
   version="1.1"
   viewBox="0 0 105.83 105.83"
   id="svg164"
   sodipodi:docname="12.svg"
   inkscape:version="1.0.2 (e86c870879, 2021-01-15)">
  <metadata
     id="metadata170">
    <rdf:RDF>
      <cc:Work
         rdf:about="">
        <dc:format>image/svg+xml</dc:format>
        <dc:type
           rdf:resource="http://purl.org/dc/dcmitype/StillImage" />
      </cc:Work>
    </rdf:RDF>
  </metadata>
  <defs
     id="defs168" />
  <sodipodi:namedview
     pagecolor="#ffffff"
     bordercolor="#666666"
     borderopacity="1"
     objecttolerance="10"
     gridtolerance="10"
     guidetolerance="10"
     inkscape:pageopacity="0"
     inkscape:pageshadow="2"
     inkscape:window-width="1841"
     inkscape:window-height="1050"
     id="namedview166"
     showgrid="false"
     inkscape:zoom="1.0169503"
     inkscape:cx="-101.46901"
     inkscape:cy="204.07587"
     inkscape:window-x="0"
     inkscape:window-y="0"
     inkscape:window-maximized="0"
     inkscape:current-layer="svg164"
     inkscape:document-rotation="0" />
  <path
     d="m 0.13328,0 h 105.22 c 0.0738,0 0.13328,0.059443 0.13328,0.13328 v 105.22 c 0,0.0738 -0.0594,0.13328 -0.13328,0.13328 H 0.13328 C 0.059443,105.48656 0,105.42716 0,105.35328 V 0.13328 C 0,0.059443 0.059443,0 0.13328,0 Z"
     fill="#fff"
     id="path2"
     style="fill:#ffffff" />
  <rect
     style="fill:#f2f2f2;stroke-width:0.11579;stroke-linejoin:round;stroke-dashoffset:7.35;stroke-opacity:0.721569"
     id="rect995"
     width="48.743046"
     height="20.751213"
     x="38.148273"
     y="37.966141"
     ry="0.30885476" />
  <g
     stroke-width="0.22881"
     aria-label="bitcoincash:p04 ... sf78"
     id="g76"
     transform="matrix(0.53016486,0,0,0.53016486,35.145133,38.803083)">
    <path
       d="m 12.717,31.983 q 0,-0.72575 -0.30031,-1.1369 -0.29674,-0.41471 -0.8187,-0.41471 -0.52196,0 -0.82228,0.41471 -0.29674,0.41114 -0.29674,1.1369 0,0.72575 0.29674,1.1405 0.30031,0.41114 0.82228,0.41114 0.52197,0 0.8187,-0.41114 Q 12.717,32.70879 12.717,31.983 Z m -2.238,-1.3979 q 0.20736,-0.35751 0.52197,-0.52912 0.31818,-0.17518 0.75792,-0.17518 0.72932,0 1.1834,0.57917 0.45762,0.57917 0.45762,1.523 0,0.94383 -0.45762,1.523 -0.45404,0.57917 -1.1834,0.57917 -0.43974,0 -0.75792,-0.1716 -0.31461,-0.17518 -0.52197,-0.53269 v 0.60062 H 9.8176 v -5.5629 h 0.6614 z"
       id="path32" />
    <path
       d="m 14.49,29.977 h 0.65782 v 4.0041 H 14.49 Z m 0,-1.5588 h 0.65782 v 0.833 H 14.49 Z"
       id="path34" />
    <path
       d="m 17.175,28.84 v 1.1369 h 1.355 v 0.51124 h -1.355 v 2.1737 q 0,0.48979 0.13228,0.62922 0.13586,0.13943 0.54699,0.13943 h 0.6757 v 0.55057 h -0.6757 q -0.7615,0 -1.0511,-0.28243 -0.28958,-0.28601 -0.28958,-1.0368 v -2.1737 h -0.48264 v -0.51124 h 0.48264 v -1.1369 z"
       id="path36" />
    <path
       d="m 22.277,30.131 v 0.61492 q -0.27886,-0.15373 -0.56129,-0.22881 -0.27886,-0.07865 -0.56487,-0.07865 -0.63995,0 -0.99388,0.40756 -0.35394,0.40399 -0.35394,1.1369 0,0.73291 0.35394,1.1405 0.35394,0.40399 0.99388,0.40399 0.28601,0 0.56487,-0.07508 0.28243,-0.07865 0.56129,-0.23238 v 0.60777 q -0.27528,0.1287 -0.57202,0.19306 -0.29316,0.06435 -0.62565,0.06435 -0.9045,0 -1.4372,-0.56844 -0.53269,-0.56844 -0.53269,-1.5337 0,-0.97958 0.53627,-1.5409 0.53984,-0.56129 1.4765,-0.56129 0.30388,0 0.59347,0.06435 0.28958,0.06078 0.56129,0.18591 z"
       id="path38" />
    <path
       d="m 24.972,30.438 q -0.52912,0 -0.83658,0.41471 -0.30746,0.41114 -0.30746,1.1297 0,0.7186 0.30388,1.1333 0.30746,0.41114 0.84015,0.41114 0.52554,0 0.833,-0.41471 0.30746,-0.41471 0.30746,-1.1297 0,-0.71145 -0.30746,-1.1262 -0.30746,-0.41829 -0.833,-0.41829 z m 0,-0.55772 q 0.85803,0 1.3478,0.55772 0.48977,0.55772 0.48979,1.5444 0,0.98316 -0.48979,1.5445 -0.48979,0.55772 -1.3478,0.55772 -0.8616,0 -1.3514,-0.55772 -0.48622,-0.56129 -0.48622,-1.5445 0,-0.98673 0.48622,-1.5444 0.48979,-0.55772 1.3514,-0.55772 z"
       id="path40" />
    <path
       d="m 27.9,29.977 h 0.65782 v 4.0041 H 27.9 Z m 0,-1.5588 h 0.65782 v 0.833 H 27.9 Z"
       id="path42" />
    <path
       d="m 33.263,31.564 v 2.4168 h -0.65782 v -2.3953 q 0,-0.56844 -0.22166,-0.85088 -0.22166,-0.28244 -0.66497,-0.28244 -0.53269,0 -0.84015,0.33964 -0.30746,0.33964 -0.30746,0.92596 v 2.263 h -0.6614 v -4.0041 h 0.6614 v 0.62207 q 0.23596,-0.36109 0.55414,-0.53984 0.32176,-0.17876 0.74005,-0.17876 0.69,0 1.0439,0.42901 0.35394,0.42544 0.35394,1.2549 z"
       id="path44" />
    <path
       d="m 37.457,30.131 v 0.61492 q -0.27886,-0.15373 -0.56129,-0.22881 -0.27886,-0.07865 -0.56487,-0.07865 -0.63995,0 -0.99388,0.40756 -0.35394,0.40399 -0.35394,1.1369 0,0.73291 0.35394,1.1405 0.35394,0.40399 0.99388,0.40399 0.28601,0 0.56487,-0.07508 0.28243,-0.07865 0.56129,-0.23238 v 0.60777 q -0.27528,0.1287 -0.57202,0.19306 -0.29316,0.06435 -0.62565,0.06435 -0.9045,0 -1.4372,-0.56844 -0.53269,-0.56844 -0.53269,-1.5337 0,-0.97958 0.53627,-1.5409 0.53984,-0.56129 1.4765,-0.56129 0.30388,0 0.59347,0.06435 0.28958,0.06078 0.56129,0.18591 z"
       id="path46" />
    <path
       d="m 40.42,31.968 q -0.79725,0 -1.1047,0.18233 -0.30745,0.18233 -0.30746,0.62207 0,0.35036 0.22881,0.55772 0.23238,0.20378 0.62922,0.20378 0.54699,0 0.8759,-0.38611 0.33249,-0.38969 0.33249,-1.0332 v -0.14658 z m 1.3121,-0.27171 v 2.2845 h -0.65782 v -0.60777 q -0.22523,0.36466 -0.56129,0.53984 -0.33606,0.1716 -0.82228,0.1716 -0.61492,0 -0.97958,-0.34321 -0.36109,-0.34679 -0.36109,-0.92596 0,-0.6757 0.45046,-1.0189 0.45404,-0.34321 1.3514,-0.34321 h 0.92238 v -0.06435 q 0,-0.45404 -0.30031,-0.70072 -0.29673,-0.25026 -0.83658,-0.25026 -0.34321,0 -0.66855,0.08223 -0.32534,0.08223 -0.62564,0.24668 v -0.60777 q 0.36109,-0.13943 0.70072,-0.20736 0.33964,-0.0715 0.6614,-0.0715 0.86875,0 1.2978,0.45046 0.42901,0.45046 0.42901,1.3657 z"
       id="path48" />
    <path
       d="m 45.64,30.095 v 0.62207 q -0.27886,-0.143 -0.57917,-0.21451 -0.30031,-0.0715 -0.62207,-0.0715 -0.48979,0 -0.73647,0.15015 -0.24311,0.15016 -0.24311,0.45046 0,0.22881 0.17518,0.36109 0.17518,0.1287 0.7043,0.24668 l 0.22523,0.05005 q 0.70072,0.15016 0.99388,0.42544 0.29673,0.27171 0.29673,0.7615 0,0.55772 -0.44331,0.88305 -0.43974,0.32534 -1.212,0.32534 -0.32176,0 -0.67212,-0.06435 -0.34679,-0.06078 -0.7329,-0.18591 v -0.67927 q 0.36466,0.18948 0.7186,0.28601 0.35394,0.09295 0.70072,0.09295 0.46476,0 0.71502,-0.1573 0.25026,-0.16088 0.25026,-0.45046 0,-0.26813 -0.18233,-0.41114 -0.17876,-0.143 -0.7901,-0.27528 l -0.22881,-0.05363 q -0.61134,-0.1287 -0.88305,-0.39326 -0.27171,-0.26813 -0.27171,-0.7329 0,-0.56487 0.40041,-0.87233 0.40041,-0.30746 1.1369,-0.30746 0.36466,0 0.68642,0.05363 0.32176,0.05363 0.59347,0.16088 z"
       id="path50" />
    <path
       d="m 50.231,31.564 v 2.4168 h -0.65782 v -2.3953 q 0,-0.56844 -0.22166,-0.85088 -0.22166,-0.28244 -0.66497,-0.28244 -0.53269,0 -0.84015,0.33964 -0.30746,0.33964 -0.30746,0.92596 v 2.263 h -0.6614 v -5.5629 h 0.6614 v 2.1808 q 0.23596,-0.36109 0.55414,-0.53984 0.32176,-0.17876 0.74005,-0.17876 0.69,0 1.0439,0.42901 0.35394,0.42544 0.35394,1.2549 z"
       id="path52" />
    <path
       d="m 51.711,33.073 h 0.75435 v 0.90808 H 51.711 Z m 0,-2.878 h 0.75435 v 0.90808 H 51.711 Z"
       id="path54" />
    <path
       d="m 54.646,33.381 v 2.1236 h -0.6614 v -5.5271 h 0.6614 v 0.60777 q 0.20736,-0.35751 0.52197,-0.52912 0.31818,-0.17518 0.75792,-0.17518 0.72932,0 1.1834,0.57917 0.45762,0.57917 0.45762,1.523 0,0.94383 -0.45762,1.523 -0.45404,0.57917 -1.1834,0.57917 -0.43974,0 -0.75792,-0.1716 -0.31461,-0.17518 -0.52197,-0.53269 z m 2.238,-1.3979 q 0,-0.72575 -0.30031,-1.1369 -0.29674,-0.41471 -0.8187,-0.41471 -0.52196,0 -0.82228,0.41471 -0.29674,0.41114 -0.29674,1.1369 0,0.72575 0.29674,1.1405 0.30031,0.41114 0.82228,0.41114 0.52197,0 0.8187,-0.41114 0.30031,-0.41471 0.30031,-1.1405 z"
       id="path56" />
    <path
       d="m 70.394,33.073 h 0.75435 v 0.90808 H 70.394 Z"
       id="path62" />
    <path
       d="m 72.722,33.073 h 0.75435 v 0.90808 H 72.722 Z"
       id="path64" />
    <path
       d="m 75.049,33.073 h 0.75435 v 0.90808 H 75.049 Z"
       id="path66" />
  </g>
  <path
     d="m 57.343175,58.524671 h 29.317519 c 0.05507,0 0.09941,0.03693 0.09941,0.08281 v 21.663003 c 0,0.04589 -0.04433,0.08281 -0.09941,0.08281 H 57.343175 c -0.05507,0 -0.09941,-0.03695 -0.09941,-0.08281 V 58.60748 c 0,-0.04588 0.04433,-0.08281 0.09941,-0.08281 z"
     fill="#fbfbfb"
     fill-opacity="0.85421"
     stroke="#000000"
     stroke-dasharray="0, 0.449664"
     stroke-linejoin="bevel"
     stroke-miterlimit="4.1"
     stroke-opacity="0.25297"
     stroke-width="0.0408788"
     id="path128" />
  <path
     d="m 78.13574,73.584856 q -0.878039,0 -1.695525,-0.36333 -0.817487,-0.36332 -1.362476,-1.0597 l -6.570147,-8.356504 0.635818,-0.696375 q 0.423884,-0.454159 1.044567,-0.560128 0.620677,-0.105968 1.165672,0.196808 l 2.997438,1.604683 V 53.299134 q 0,-0.386033 0.262658,-0.647174 0.262686,-0.261141 0.650958,-0.261141 0.388301,0 0.645663,0.261141 0.257357,0.261141 0.257357,0.647174 v 14.078892 l -4.359919,-2.331339 4.723245,5.994879 q 0.302768,0.36333 0.719385,0.54499 0.416612,0.18166 0.885306,0.18166 h 6.206821 q 1.150537,0 1.937741,-0.78721 0.787205,-0.7872 0.787205,-1.93774 v -5.14712 q 0,-0.772068 -0.522278,-1.29435 -0.522283,-0.522282 -1.294353,-0.522282 h -6.660981 v -1.816631 h 6.650266 q 1.518339,0 2.581158,1.059701 1.062819,1.059701 1.062819,2.573562 v 5.14712 q 0,1.90747 -1.317053,3.22452 -1.317059,1.31706 -3.224524,1.31706 z m -7.327086,-17.71216 q -0.335285,-0.567819 -0.515831,-1.225983 -0.180534,-0.658137 -0.180534,-1.355026 0,-2.142233 1.505534,-3.640954 1.505534,-1.498721 3.641584,-1.498721 2.136062,0 3.641591,1.505928 1.505534,1.505926 1.505534,3.642528 0,0.695043 -0.180535,1.350786 -0.180534,0.655713 -0.51583,1.221442 l -1.574415,-0.908315 q 0.211939,-0.363326 0.33305,-0.787208 0.121116,-0.42388 0.121116,-0.892511 0,-1.378278 -0.97244,-2.347148 -0.972412,-0.96887 -2.36162,-0.96887 -1.38918,0 -2.358048,0.971383 -0.968873,0.971413 -0.968873,2.359107 0,0.454159 0.121099,0.878039 0.121099,0.423882 0.33305,0.787208 z m 8.629004,10.142859 z"
     id="path4984"
     style="stroke-width:0.0302771" />
  <g
     id="g2377"
     transform="matrix(0.58319809,0,0,0.58319809,30.830048,34.419761)">
    <g
       transform="matrix(0.10148163,0,0,0.10148163,18.72145,16.959417)"
       id="g16">
      <path
         d="M 65.419,0.36106 C 45.374826,0.36074542 10.667159,-4.3156284 -1.0136025,10.154346 -9.8406756,21.089209 1.699,48.933574 1.699,64.08106 1.6992253,78.436378 -11.355728,108.51547 -3.3456916,119.16904 8.28061,134.63235 44.58306,131.87087 65.419,131.87054 c 7.368503,0 43.33596,-0.13213 50.28447,0.45178 0,0 8.17764,-48.649659 8.17807,-76.472231 2.81601,-6.847245 20.7538,21.053295 22.00974,1.802371 1.45981,-22.375647 0.95138,-45.429557 -3.65099,-51.2614166 C 130.57153,-8.3949338 85.716562,0.36106 65.419,0.36106 Z m -34.705,28.607 18.962,0.06599 17.785,24.847 9.8729,-13.077 -6.6037,-0.78448 v -11.05 h 31.973 v 11.508 l -6.4077,1.1117 -18.177,22.296 19.158,23.343 6.6697,1.0464 v 11.443 h -18.635 l -19.093,-25.566 -10.331,13.862 5.6886,0.71916 v 10.985 h -31.516 v -11.443 l 6.6044,-1.0464 19.093,-23.016 -18.439,-22.623 -6.6044,-1.1117 z"
         fill="#ffb200"
         stroke="#000000"
         stroke-dasharray="0, 6.182"
         stroke-linejoin="bevel"
         stroke-miterlimit="4.1"
         stroke-opacity="0.25297"
         stroke-width="0.562"
         id="path14"
         sodipodi:nodetypes="cscscscsscccccccccccccccccccccccccc" />
    </g>
    <path
       d="m 22.243163,16.344586 h 6.399802 v -2.23997 q 0,-1.381044 -0.926299,-2.315673 -0.926289,-0.9347 -2.273572,-0.9347 -1.347342,0 -2.273571,0.9347 -0.92629,0.934709 -0.92629,2.315673 z m 4.580945,14.045443 h -7.780845 q -0.665231,0 -1.174637,-0.509466 Q 17.35916,29.371117 17.35916,28.705926 V 18.028589 q 0,-0.665231 0.509466,-1.174637 0.509436,-0.509466 1.174637,-0.509466 h 1.515747 v -2.23997 q 0,-2.063065 1.418845,-3.498811 1.418945,-1.435745 3.465109,-1.435745 2.046265,0 3.465109,1.435745 1.418845,1.435746 1.418845,3.498811 v 2.23997 h 1.515748 q 0.665231,0 1.174637,0.509466 0.509466,0.509436 0.509466,1.174637 v 1.90316 q -0.370532,-0.101053 -0.770504,-0.143134 -0.399983,-0.0421 -0.913639,-0.0421 V 18.028659 H 19.043223 v 10.677337 h 6.854516 q 0.185275,0.488395 0.387382,0.863117 0.202086,0.374712 0.538917,0.821026 z m 5.237765,0.909438 q -2.029464,0 -3.48201,-1.452546 -1.452546,-1.452545 -1.452546,-3.482009 0,-2.029464 1.452546,-3.48201 1.452546,-1.452546 3.48201,-1.452546 2.029364,0 3.482009,1.452546 1.452646,1.452546 1.452546,3.48201 0,2.029364 -1.452546,3.482009 -1.452545,1.452646 -3.482009,1.452546 z m 1.802056,-2.442077 0.690502,-0.690491 -2.037864,-1.90306 v -3.031496 h -1.044233 v 3.364506 z M 19.043463,18.028049 v 10.677337 z"
       stroke-width="0.0252628"
       id="path16-3" />
    <path
       d="m 39.454706,30.858043 q -0.333761,0 -0.570788,-0.237497 -0.237038,-0.237478 -0.237038,-0.570978 v -4.042327 h 1.616951 v 4.042327 q 0,0.3335 -0.237677,0.570978 -0.237678,0.237497 -0.571438,0.237497 z M 38.64688,25.419172 v -0.809125 q 0,-0.333761 0.237688,-0.570788 0.237677,-0.237028 0.571438,-0.237028 0.33376,0 0.570788,0.237498 0.237027,0.237477 0.237027,0.570978 v 0.808465 z m 3.527211,5.438871 q -0.33376,0 -0.570788,-0.237497 -0.237027,-0.237478 -0.237027,-0.570978 v -2.719386 h 1.616951 v 2.719386 q 0,0.3335 -0.237688,0.570978 -0.237677,0.237497 -0.571438,0.237497 z m -0.807815,-4.115929 v -0.809126 q 0,-0.33376 0.237677,-0.570788 0.237678,-0.237027 0.571438,-0.237027 0.333761,0 0.570798,0.237497 0.237028,0.237488 0.237028,0.570978 v 0.808476 z m 3.527211,4.115929 q -0.333771,0 -0.570798,-0.237497 -0.237028,-0.237478 -0.237028,-0.570978 v -1.396444 h 1.616951 v 1.396444 q 0,0.3335 -0.237677,0.570978 -0.237688,0.237497 -0.571438,0.237497 z M 44.085661,28.065155 V 27.25604 q 0,-0.333761 0.237678,-0.570788 0.237687,-0.237038 0.571448,-0.237038 0.33376,0 0.570788,0.237498 0.237027,0.237477 0.237027,0.570978 v 0.808465 z"
       stroke-width="0.0110243"
       id="path18-5" />
  </g>
  <path
     d="m 60.361251,51.746833 q -0.29765,0 -0.51629,-0.218638 -0.21863,-0.218638 -0.21863,-0.516285 v -6.614387 q 0,-0.297647 0.21863,-0.516284 0.21864,-0.218649 0.51629,-0.218649 h 0.62469 v -0.734924 h 0.77168 v 0.734924 h 3.67466 v -0.734924 h 0.77168 v 0.734924 h 0.62469 q 0.29765,0 0.51629,0.218649 0.21864,0.218637 0.21864,0.516284 v 3.08672 h -0.73493 v -1.102407 h -6.4674 v 4.630074 h 3.41008 v 0.734923 z m 6.32041,0.881917 q -0.80475,0 -1.40556,-0.50159 -0.6008,-0.50159 -0.75514,-1.262244 h 0.68349 q 0.14331,0.485055 0.54568,0.793726 0.40238,0.30867 0.93153,0.30867 0.63939,0 1.09137,-0.451982 0.45198,-0.451982 0.45198,-1.091372 0,-0.63939 -0.45198,-1.091372 -0.45198,-0.451982 -1.09137,-0.451982 -0.3197,0 -0.59529,0.115751 -0.2756,0.115752 -0.48506,0.325207 h 0.63939 V 49.983 h -1.76383 v -1.763834 h 0.66144 v 0.628366 q 0.29764,-0.286623 0.6945,-0.457495 0.39687,-0.170871 0.84885,-0.170871 0.91499,0 1.55989,0.644902 0.6449,0.644901 0.6449,1.55989 0,0.914989 -0.6449,1.55989 -0.6449,0.644902 -1.55989,0.644902 z m -6.32041,-6.981838 h 6.4674 v -1.249389 h -6.4674 z m 0,0 v -1.249389 z"
     id="path5189"
     style="stroke-width:0.011024" />
  <path
     style="fill:#ff9955;stroke:none;stroke-width:0.264575px;stroke-linecap:butt;stroke-linejoin:miter;stroke-opacity:1"
     d="M 26.985989,0.037554 29.98011,3.631248 32.840603,0 Z"
     id="path853" />
  <path
     d="m 27.339416,12.497782 h 1.322876 v -2.64575 h 2.64575 v 2.64575 h 1.322875 V 8.529157 L 29.985167,6.544844 27.339416,8.529157 Z M 26.4575,13.379699 v -5.2915 l 3.527667,-2.645751 3.527667,2.645751 v 5.2915 h -3.086709 v -2.64575 h -0.881917 v 2.64575 z m 3.527667,-3.858385 z"
     id="path1097"
     style="stroke-width:0.011024" />
  <rect
     style="fill:#ffffff;stroke:#ffffff;stroke-width:0.549787;stroke-dashoffset:7.35"
     id="rect1000"
     width="10.127277"
     height="27.273792"
     x="23.884359"
     y="39.380623"
     ry="0.062455043" />
  <path
     d="m 21.629813,54.715203 q -0.545807,0 -0.94673,-0.400931 -0.400923,-0.400931 -0.400931,-0.946731 V 42.586345 q 0,-0.545808 0.400931,-0.946731 0.400931,-0.400931 0.94673,-0.400931 h 8.355369 q 0.545815,0 0.94673,0.400931 0.400931,0.400931 0.400931,0.946731 v 10.781196 q 0,0.545808 -0.400931,0.946731 -0.400931,0.400931 -0.94673,0.400931 z m 0,-1.34763 h 8.355369 V 42.586376 h -8.355369 z m -2.695339,4.043048 q -0.545815,0 -0.94673,-0.400923 -0.400931,-0.400931 -0.400931,-0.946731 V 43.933824 h 1.34763 v 12.129143 h 9.703315 v 1.34763 z m 2.695339,-4.043048 V 42.586376 Z"
     stroke-width="0.0202152"
     id="path132" />
</svg>
