<svg width="400" height="400" version="1.1" viewBox="0 0 105.83 105.83" xmlns="http://www.w3.org/2000/svg">
 <rect width="105.49" height="105.49" ry=".13328" fill="#fff"/>
 <path d="m20.15 71.526q-1.4061 0-2.3965-0.99396-0.9904-0.99396-0.9904-2.4001t0.99396-2.3965q0.99396-0.99038 2.4001-0.99038 1.4061 0 2.3965 0.99396 0.99035 0.99402 0.99035 2.4001 0 1.4061-0.99396 2.3965-0.99396 0.99037-2.4001 0.99037zm-3.5653 27.481v-9.2792h-3.9615l4.7288-13.401q0.32116-0.85654 1.0841-1.4008 0.7629-0.54427 1.722-0.54427 0.95911 0 1.7175 0.54427 0.75839 0.54422 1.0796 1.4008l4.7288 13.401h-3.9615v9.2792z" stroke-width=".053534"/>
 <g transform="matrix(.67613 0 0 .67613 -2.184 16.186)">
  <path d="m77.914 77.124v-0.46476h-0.67926v-0.3575h0.46476v-2.2165h-0.46476v-0.3575h0.67926v-0.46476h0.3575v0.46476h0.53626v-0.46476h0.3575v0.48442q0.286 0.06435 0.46476 0.29047 0.17875 0.22612 0.17875 0.51212 0 0.15194-0.0572 0.29762-0.0572 0.14568-0.16445 0.26187 0.20198 0.10904 0.31907 0.30388 0.11708 0.19484 0.11708 0.42364 0 0.33962-0.23953 0.58094-0.23952 0.24131-0.58272 0.24131h-0.03576v0.46476h-0.3575v-0.46476h-0.53626v0.46476zm0.143-2.1093h0.92951q0.19484 0 0.3298-0.13674 0.13496-0.13674 0.13496-0.32801 0-0.19484-0.13496-0.3298-0.13496-0.13496-0.3298-0.13496h-0.92951zm0 1.287h1.144q0.19484 0 0.3298-0.13674 0.13496-0.13674 0.13496-0.32801 0-0.19484-0.13496-0.3298-0.13496-0.13496-0.3298-0.13496h-1.144z" stroke-width=".0053626"/>
  <path d="m83.586 76.184q0.38957 0 0.6766-0.28705 0.28704-0.28705 0.28704-0.68172 0-0.39469-0.28704-0.6766-0.28703-0.28193-0.6766-0.28193-0.38955 0-0.6766 0.28193-0.28705 0.28191-0.28705 0.6766 0 0.39467 0.28705 0.68172 0.28705 0.28705 0.6766 0.28705zm-7.094 3.0037v0.54336-9.0213zm0 1.5685q-0.40493 0-0.71503-0.30498-0.31011-0.30498-0.31011-0.72016v-9.0213q0-0.40493 0.31011-0.71503 0.3101-0.31011 0.71503-0.31011h9.0213q0.41519 0 0.72016 0.31011 0.30498 0.3101 0.30498 0.71503v1.8863h-1.0251v-1.8863h-9.0213v9.0213h9.0213v-1.876h1.0251v1.876q0 0.41519-0.30498 0.72016t-0.72016 0.30498zm5.3103-2.5936q-0.51769 0-0.84318-0.32549-0.32549-0.32548-0.32549-0.83292v-3.5573q0-0.5177 0.32549-0.83806 0.32549-0.32036 0.84318-0.32036h4.2031q0.5177 0 0.8432 0.32036 0.32548 0.32035 0.32548 0.83806v3.5573q0 0.50745-0.32548 0.83292-0.32549 0.32549-0.8432 0.32549zm4.3466-1.0251v-3.8238h-4.4902v3.8238z" stroke-width=".015377"/>
 </g>
 <path d="m34.474 85.228q-0.68206 0-1.1831-0.50102-0.50101-0.501-0.50101-1.1831v-18.862q0-0.68205 0.50101-1.1831 0.50102-0.50102 1.1831-0.50102h10.778q0.68204 0 1.1831 0.50102 0.501 0.50102 0.501 1.1831v18.862q0 0.68207-0.501 1.1831-0.50103 0.50102-1.1831 0.50102zm0-2.5261v0.84204h10.778v-0.84204zm0-1.6841h10.778v-13.81h-10.778zm0-15.494h10.778v-0.84204h-10.778zm0 0v-0.84204zm0 17.178v0.84204z" stroke-width=".025262"/>
 <path d="m48.109 10.288h6.3996v-2.2399q0-1.381-0.92627-2.3156-0.92626-0.93467-2.2735-0.93467-1.3473 0-2.2735 0.93467-0.92626 0.93468-0.92626 2.3156zm4.5808 14.045h-7.7806q-0.66521 0-1.1746-0.50945-0.50945-0.50943-0.50945-1.1746v-10.677q0-0.66521 0.50945-1.1746 0.50942-0.50945 1.1746-0.50945h1.5157v-2.2399q0-2.063 1.4188-3.4987 1.4189-1.4357 3.465-1.4357 2.0462 0 3.465 1.4357 1.4188 1.4357 1.4188 3.4987v2.2399h1.5157q0.66521 0 1.1746 0.50945 0.50945 0.50942 0.50945 1.1746v1.9031q-0.37052-0.10105-0.77048-0.14313-0.39997-0.0421-0.91361-0.0421v-1.7178h-12.799v10.677h6.8543q0.18527 0.48838 0.38737 0.86309 0.20208 0.3747 0.5389 0.821zm5.2376 0.90941q-2.0294 0-3.4819-1.4525t-1.4525-3.4819q0-2.0294 1.4525-3.4819t3.4819-1.4525q2.0293 0 3.4819 1.4525t1.4525 3.4819q0 2.0293-1.4525 3.4819t-3.4819 1.4525zm1.802-2.442 0.69048-0.69047-2.0378-1.903v-3.0314h-1.0442v3.3644zm-14.82-10.829v10.677z" stroke-width=".025262"/>
 <g stroke-width=".22881" aria-label="bitcoincash:p04 ... sf78">
  <path d="m14.071 32.338q0-0.72575-0.30031-1.1369-0.29674-0.41471-0.8187-0.41471t-0.82228 0.41471q-0.29674 0.41114-0.29674 1.1369t0.29674 1.1405q0.30031 0.41114 0.82228 0.41114t0.8187-0.41114q0.30031-0.41471 0.30031-1.1405zm-2.238-1.3979q0.20736-0.35751 0.52197-0.52912 0.31819-0.17518 0.75792-0.17518 0.72932 0 1.1834 0.57917 0.45762 0.57917 0.45762 1.523t-0.45762 1.523q-0.45404 0.57917-1.1834 0.57917-0.43974 0-0.75792-0.17161-0.31461-0.17518-0.52197-0.53269v0.60062h-0.6614v-5.5629h0.6614z"/>
  <path d="m15.844 30.332h0.65782v4.0041h-0.65782zm0-1.5588h0.65782v0.833h-0.65782z"/>
  <path d="m18.529 29.196v1.1369h1.355v0.51124h-1.355v2.1737q0 0.48979 0.13228 0.62922 0.13585 0.13943 0.54699 0.13943h0.6757v0.55057h-0.6757q-0.7615 0-1.0511-0.28243-0.28958-0.28601-0.28958-1.0368v-2.1737h-0.48264v-0.51124h0.48264v-1.1369z"/>
  <path d="m23.631 30.486v0.61492q-0.27886-0.15373-0.56129-0.22881-0.27886-0.07865-0.56487-0.07865-0.63995 0-0.99388 0.40756-0.35394 0.40399-0.35394 1.1369t0.35394 1.1405q0.35394 0.40399 0.99388 0.40399 0.28601 0 0.56487-0.07508 0.28243-0.07865 0.56129-0.23238v0.60777q-0.27528 0.1287-0.57202 0.19306-0.29316 0.06435-0.62564 0.06435-0.9045 0-1.4372-0.56844-0.53269-0.56844-0.53269-1.5337 0-0.97958 0.53627-1.5409 0.53984-0.56129 1.4765-0.56129 0.30388 0 0.59347 0.06435 0.28958 0.06078 0.56129 0.18591z"/>
  <path d="m26.326 30.794q-0.52912 0-0.83658 0.41471-0.30746 0.41114-0.30746 1.1297 0 0.7186 0.30388 1.1333 0.30746 0.41114 0.84015 0.41114 0.52554 0 0.833-0.41471 0.30746-0.41471 0.30746-1.1297 0-0.71145-0.30746-1.1262-0.30746-0.41829-0.833-0.41829zm0-0.55772q0.85803 0 1.3478 0.55772t0.48979 1.5445q0 0.98316-0.48979 1.5444-0.48979 0.55772-1.3478 0.55772-0.8616 0-1.3514-0.55772-0.48622-0.56129-0.48622-1.5444 0-0.98673 0.48622-1.5445 0.48979-0.55772 1.3514-0.55772z"/>
  <path d="m29.255 30.332h0.65782v4.0041h-0.65782zm0-1.5588h0.65782v0.833h-0.65782z"/>
  <path d="m34.617 31.92v2.4168h-0.65782v-2.3953q0-0.56844-0.22166-0.85088t-0.66497-0.28243q-0.53269 0-0.84015 0.33964t-0.30746 0.92596v2.263h-0.6614v-4.0041h0.6614v0.62207q0.23596-0.36109 0.55414-0.53984 0.32176-0.17876 0.74005-0.17876 0.69 0 1.0439 0.42901 0.35394 0.42544 0.35394 1.2549z"/>
  <path d="m38.811 30.486v0.61492q-0.27886-0.15373-0.56129-0.22881-0.27886-0.07865-0.56487-0.07865-0.63995 0-0.99388 0.40756-0.35394 0.40399-0.35394 1.1369t0.35394 1.1405q0.35394 0.40399 0.99388 0.40399 0.28601 0 0.56487-0.07508 0.28243-0.07865 0.56129-0.23238v0.60777q-0.27528 0.1287-0.57202 0.19306-0.29316 0.06435-0.62564 0.06435-0.9045 0-1.4372-0.56844-0.53269-0.56844-0.53269-1.5337 0-0.97958 0.53627-1.5409 0.53984-0.56129 1.4765-0.56129 0.30388 0 0.59347 0.06435 0.28958 0.06078 0.56129 0.18591z"/>
  <path d="m41.775 32.324q-0.79725 0-1.1047 0.18233-0.30746 0.18233-0.30746 0.62207 0 0.35036 0.22881 0.55772 0.23238 0.20378 0.62922 0.20378 0.54699 0 0.8759-0.38611 0.33249-0.38969 0.33249-1.0332v-0.14658zm1.3121-0.27171v2.2845h-0.65782v-0.60777q-0.22523 0.36466-0.56129 0.53984-0.33606 0.17161-0.82228 0.17161-0.61492 0-0.97958-0.34321-0.36109-0.34679-0.36109-0.92596 0-0.6757 0.45046-1.0189 0.45404-0.34321 1.3514-0.34321h0.92238v-0.06435q0-0.45404-0.30031-0.70072-0.29673-0.25026-0.83658-0.25026-0.34321 0-0.66855 0.08223t-0.62565 0.24668v-0.60777q0.36109-0.13943 0.70072-0.20736 0.33964-0.0715 0.6614-0.0715 0.86875 0 1.2978 0.45046 0.42901 0.45046 0.42901 1.3657z"/>
  <path d="m46.994 30.45v0.62207q-0.27886-0.143-0.57917-0.21451-0.30031-0.0715-0.62207-0.0715-0.48979 0-0.73647 0.15016-0.24311 0.15016-0.24311 0.45046 0 0.22881 0.17518 0.36109 0.17518 0.1287 0.7043 0.24668l0.22523 0.05005q0.70072 0.15016 0.99388 0.42544 0.29674 0.27171 0.29674 0.7615 0 0.55772-0.44331 0.88305-0.43974 0.32534-1.212 0.32534-0.32176 0-0.67212-0.06435-0.34679-0.06078-0.7329-0.18591v-0.67927q0.36466 0.18948 0.7186 0.28601 0.35394 0.09295 0.70072 0.09295 0.46477 0 0.71502-0.15731 0.25026-0.16088 0.25026-0.45046 0-0.26813-0.18233-0.41114-0.17876-0.143-0.7901-0.27528l-0.22881-0.05363q-0.61134-0.1287-0.88305-0.39326-0.27171-0.26813-0.27171-0.7329 0-0.56487 0.40041-0.87233t1.1369-0.30746q0.36466 0 0.68642 0.05363 0.32176 0.05363 0.59347 0.16088z"/>
  <path d="m51.585 31.92v2.4168h-0.65782v-2.3953q0-0.56844-0.22166-0.85088-0.22166-0.28243-0.66497-0.28243-0.53269 0-0.84015 0.33964t-0.30746 0.92596v2.263h-0.6614v-5.5629h0.6614v2.1808q0.23596-0.36109 0.55414-0.53984 0.32176-0.17876 0.74005-0.17876 0.69 0 1.0439 0.42901 0.35394 0.42544 0.35394 1.2549z"/>
  <path d="m53.065 33.429h0.75435v0.90808h-0.75435zm0-2.878h0.75435v0.90808h-0.75435z"/>
  <path d="m56 33.736v2.1236h-0.6614v-5.5271h0.6614v0.60777q0.20736-0.35751 0.52197-0.52912 0.31819-0.17518 0.75792-0.17518 0.72932 0 1.1834 0.57917 0.45762 0.57917 0.45762 1.523t-0.45762 1.523q-0.45404 0.57917-1.1834 0.57917-0.43974 0-0.75792-0.17161-0.31461-0.17518-0.52197-0.53269zm2.238-1.3979q0-0.72575-0.30031-1.1369-0.29674-0.41471-0.8187-0.41471t-0.82228 0.41471q-0.29674 0.41114-0.29674 1.1369t0.29674 1.1405q0.30031 0.41114 0.82228 0.41114t0.8187-0.41114q0.30031-0.41471 0.30031-1.1405z"/>
  <path d="m61.649 29.474q-0.55772 0-0.84015 0.55057-0.27886 0.54699-0.27886 1.6481 0 1.0976 0.27886 1.6481 0.28243 0.54699 0.84015 0.54699 0.56129 0 0.84015-0.54699 0.28243-0.55057 0.28243-1.6481 0-1.1011-0.28243-1.6481-0.27886-0.55057-0.84015-0.55057zm0-0.57202q0.89735 0 1.3693 0.71145 0.47549 0.70787 0.47549 2.0593 0 1.3478-0.47549 2.0593-0.47192 0.70787-1.3693 0.70787-0.89736 0-1.3728-0.70787-0.47192-0.71145-0.47192-2.0593 0-1.3514 0.47192-2.0593 0.47549-0.71145 1.3728-0.71145z"/>
  <path d="m66.747 29.628-1.8233 2.8494h1.8233zm-0.18948-0.62922h0.90808v3.4786h0.7615v0.60062h-0.7615v1.2584h-0.7186v-1.2584h-2.4096v-0.69715z"/>
  <path d="m71.748 33.429h0.75435v0.90808h-0.75435z"/>
  <path d="m74.076 33.429h0.75435v0.90808h-0.75435z"/>
  <path d="m76.403 33.429h0.75435v0.90808h-0.75435z"/>
  <path d="m83.518 30.45v0.62207q-0.27886-0.143-0.57917-0.21451-0.30031-0.0715-0.62207-0.0715-0.48979 0-0.73647 0.15016-0.24311 0.15016-0.24311 0.45046 0 0.22881 0.17518 0.36109 0.17518 0.1287 0.7043 0.24668l0.22523 0.05005q0.70072 0.15016 0.99388 0.42544 0.29674 0.27171 0.29674 0.7615 0 0.55772-0.44332 0.88305-0.43974 0.32534-1.212 0.32534-0.32176 0-0.67212-0.06435-0.34679-0.06078-0.7329-0.18591v-0.67927q0.36466 0.18948 0.7186 0.28601 0.35394 0.09295 0.70072 0.09295 0.46476 0 0.71502-0.15731 0.25026-0.16088 0.25026-0.45046 0-0.26813-0.18233-0.41114-0.17876-0.143-0.7901-0.27528l-0.22881-0.05363q-0.61134-0.1287-0.88305-0.39326-0.27171-0.26813-0.27171-0.7329 0-0.56487 0.40041-0.87233 0.40041-0.30746 1.1369-0.30746 0.36466 0 0.68642 0.05363 0.32176 0.05363 0.59347 0.16088z"/>
  <path d="m86.807 28.774v0.54699h-0.62922q-0.35394 0-0.49337 0.143-0.13585 0.143-0.13585 0.51482v0.35394h1.0833v0.51124h-1.0833v3.4929h-0.6614v-3.4929h-0.62922v-0.51124h0.62922v-0.27886q0-0.66855 0.31104-0.97243 0.31104-0.30746 0.98673-0.30746z"/>
  <path d="m87.268 28.999h3.4321v0.30746l-1.9377 5.0302h-0.75435l1.8233-4.7299h-2.5634z"/>
  <path d="m93.653 31.802q-0.51482 0-0.81155 0.27528-0.29316 0.27528-0.29316 0.75792t0.29316 0.75792q0.29674 0.27528 0.81155 0.27528 0.51482 0 0.81155-0.27528 0.29674-0.27886 0.29674-0.75792 0-0.48264-0.29674-0.75792-0.29316-0.27528-0.81155-0.27528zm-0.72217-0.30746q-0.46476-0.1144-0.72575-0.43259-0.25741-0.31818-0.25741-0.7758 0-0.63995 0.45404-1.0118 0.45762-0.37181 1.2513-0.37181 0.79725 0 1.2513 0.37181 0.45404 0.37181 0.45404 1.0118 0 0.45762-0.26098 0.7758-0.25741 0.31818-0.7186 0.43259 0.52197 0.12155 0.81155 0.47549 0.29316 0.35394 0.29316 0.86518 0 0.7758-0.47549 1.1905-0.47192 0.41471-1.355 0.41471-0.88305 0-1.3585-0.41471-0.47192-0.41471-0.47192-1.1905 0-0.51124 0.29316-0.86518 0.29316-0.35394 0.81513-0.47549zm-0.26456-1.1405q0 0.41471 0.25741 0.6471 0.26098 0.23238 0.72932 0.23238 0.46477 0 0.72575-0.23238 0.26456-0.23238 0.26456-0.6471 0-0.41471-0.26456-0.6471-0.26098-0.23238-0.72575-0.23238-0.46834 0-0.72932 0.23238-0.25741 0.23238-0.25741 0.6471z"/>
 </g>
 <path d="m38.745 74.384-2.589-4.3832 6.4995-0.88281zm0.044-0.96824 2.684-3.5993-4.4559 0.59951 0.64186 1.0867 1.9009-0.55621-1.4101 1.3872zm0 0-1.7718-2.9998z" stroke-width=".0079542"/>
 <path d="m51.978 59.166-0.14677-0.66422-0.97077 0.21452-0.11291-0.51092 0.66422-0.14678-0.70001-3.1678-0.66421 0.14677-0.1129-0.51092 0.97077-0.21452-0.14677-0.66421 0.51093-0.11291 0.14677 0.66421 0.7664-0.16936-0.14677-0.66421 0.51092-0.1129 0.15298 0.69231q0.42908 2e-3 0.75596 0.26836 0.32688 0.26671 0.4172 0.67545 0.048 0.21715 0.0122 0.44342-0.0357 0.22627-0.15232 0.42619 0.3231 0.0921 0.55197 0.33352 0.22887 0.24148 0.30113 0.56848 0.10726 0.48538-0.15884 0.90591-0.26611 0.42052-0.75661 0.52891l-0.0511 0.0113 0.14678 0.66421-0.51093 0.11291-0.14677-0.66421-0.76641 0.16935 0.14678 0.66422zm-0.46175-3.0596 1.3284-0.29356q0.27845-0.0615 0.42814-0.29958 0.14969-0.23805 0.0893-0.5114-0.0615-0.27846-0.29703-0.42872-0.2355-0.15026-0.51395-0.0887l-1.3284 0.29356zm0.40645 1.8394 1.635-0.3613q0.27846-0.0615 0.42815-0.29958 0.14969-0.23805 0.0893-0.51141-0.0615-0.27845-0.29703-0.42871-0.23551-0.15025-0.51396-0.0887l-1.635 0.3613z" stroke-width=".0078488"/>
 <path d="m38.804 79.71-2.6073-2.6073 0.55153-0.55155 2.0557 2.0557 4.3776-4.3776 0.55153 0.55153z" stroke-width=".011571"/>
 <path d="m52.802 51.591-0.10975-10.654 5.0357 4.933 0.9591-0.98608-6.7142-6.5773-6.5773 6.7142 0.97921 0.96611 4.933-5.0357 0.10975 10.654z" stroke-width=".020769"/>
 <path d="m65.152 12.111q-0.36303 0-0.61872-0.25662-0.2557-0.25662-0.2557-0.61965 0-0.36303 0.25662-0.61872 0.25662-0.25569 0.61965-0.25569t0.61873 0.25662q0.25569 0.25663 0.25569 0.61965 0 0.36303-0.25662 0.61872-0.25662 0.25569-0.61965 0.25569zm-0.92049 7.0949v-2.3957h-1.0228l1.2209-3.4599q0.0829-0.22114 0.27989-0.36165 0.19697-0.14052 0.44458-0.14052 0.24762 0 0.44341 0.14052 0.19581 0.14051 0.27874 0.36165l1.2209 3.4599h-1.0228v2.3957z" stroke-width=".013821"/>
</svg>
