<svg width="400" height="400" version="1.1" viewBox="0 0 105.83 105.83" xmlns="http://www.w3.org/2000/svg">
 <rect width="105.49" height="105.49" ry=".13328" fill="#fff"/>
 <path d="m25.836 33.909v-0.73646h-1.0764v-0.5665h0.73646v-3.5123h-0.73646v-0.5665h1.0764v-0.73646h0.56651v0.73646h0.84976v-0.73646h0.56649v0.76761q0.45321 0.10197 0.73646 0.46029 0.28325 0.35832 0.28325 0.81152 0 0.24076-0.0906 0.47162-0.0906 0.23086-0.26058 0.41496 0.32007 0.17279 0.5056 0.48153 0.18553 0.30874 0.18553 0.67131 0 0.53818-0.37956 0.92056-0.37956 0.38239-0.9234 0.38239h-0.0567v0.73646h-0.5665v-0.73646h-0.84976v0.73646zm0.2266-3.3424h1.4729q0.30874 0 0.5226-0.21669 0.21385-0.21669 0.21385-0.51977 0-0.30874-0.21385-0.5226-0.21386-0.21386-0.5226-0.21386h-1.4729zm0 2.0394h1.8128q0.30874 0 0.5226-0.21669 0.21385-0.21669 0.21385-0.51977 0-0.30874-0.21385-0.5226-0.21386-0.21386-0.5226-0.21386h-1.8128z" stroke-width=".0084976"/>
 <path d="m52.103 64.82q-1.4061 0-2.3965-0.99396-0.99038-0.99395-0.99038-2.4001t0.99396-2.3965q0.99395-0.99038 2.4001-0.99038t2.3965 0.99396q0.99036 0.99402 0.99036 2.4001 0 1.4061-0.99395 2.3965-0.99397 0.99037-2.4001 0.99037zm-3.5653 27.481v-9.2792h-3.9615l4.7288-13.401q0.32118-0.85654 1.0841-1.4008 0.7629-0.54428 1.722-0.54428 0.95911 0 1.7175 0.54428 0.7584 0.54422 1.0796 1.4008l4.7288 13.401h-3.9615v9.2792z" stroke-width=".053534"/>
 <path d="m60.111 74.936h3.7881l0.55515-2.2043h-4.8984zm0 0.81639c-0.18505 0-0.35047-0.0573-0.49626-0.17177-0.14578-0.11452-0.24297-0.26272-0.29155-0.44461l-0.60823-2.4043h6.5802l-0.60822 2.4043c-0.0486 0.18189-0.14578 0.33009-0.29156 0.44461-0.14578 0.11451-0.3112 0.17177-0.49625 0.17177zm-1.6981-3.837h7.1843v-1.143h-7.1843zm3.5921-3.0288c0.48854-0.44478 0.40819-0.72995 0.40819 1.0695h4.0003v1.9594c0 0.2245-0.0799 0.41669-0.23982 0.57657-0.15987 0.15987-0.35206 0.23981-0.57657 0.23981h-7.1843c-0.22451 0-0.4167-0.0799-0.57658-0.23981-0.15987-0.15988-0.23981-0.35207-0.23981-0.57657v-1.9594h4.0003l0.0116-0.62698c-3.5234-2.0792 0.50746-4.3933 0.39656-0.4425z" stroke-width=".012246"/>
 <path d="m39.648 78.23q-0.60896 0-1.0394-0.43048-0.43048-0.43046-0.43048-1.0394v-5.8796q0-0.60896 0.43048-1.0394 0.43047-0.43048 1.0394-0.43048h5.5856v6.6146q-0.28296 0-0.4722 0.21864-0.18926 0.21866-0.18926 0.51632 0 0.29765 0.18926 0.5163 0.18924 0.21865 0.4722 0.21865v0.73495zm-0.73496-2.745q0.16169-0.0992 0.34543-0.147t0.38953-0.0478h0.29398v-5.1447h-0.29398q-0.30624 0-0.52059 0.21436-0.21437 0.21436-0.21437 0.52059zm1.7639-0.19477h3.8218v-5.1447h-3.8218zm-1.7639 0.19477v-5.3395zm0.73158 2.0101h4.38q-0.0882-0.16169-0.13781-0.34726-0.0496-0.18559-0.0496-0.38769 0-0.2058 0.0478-0.38954 0.0478-0.18373 0.147-0.34542h-4.3869q-0.30579 0-0.51893 0.21437-0.21314 0.21435-0.21314 0.52059 0 0.30868 0.21314 0.52181 0.21314 0.21314 0.51844 0.21314z" stroke-width=".011024"/>
 <path d="m46.632 20.378 2.8819-8.0612 5.2096 5.1692zm1.6828-1.6828 4.5848-1.6324-2.9625-2.9726zm5.6529-3.8996-0.5542-0.55421 3.5469-3.5469q0.48367-0.48367 1.2041-0.48871 0.72048-0.0051 1.2042 0.47864l0.29221 0.29221-0.55421 0.5542-0.31237-0.31236q-0.26199-0.262-0.6197-0.26703-0.35772-0.0051-0.62979 0.26703zm-2.4083-2.368-0.55421-0.5542 0.42321-0.42321q0.3023-0.3023 0.28718-0.70033-0.0151-0.39802-0.28718-0.6701l-0.41314-0.41313 0.55421-0.5542 0.39298 0.39298q0.5139 0.5139 0.50887 1.2646-6e-3 0.7507-0.51894 1.2646zm1.2192 1.179-0.5542-0.5542 2.2571-2.2571q0.26201-0.26199 0.25695-0.66505-5e-3 -0.40307-0.26701-0.66505l-0.93712-0.93711 0.5542-0.55421 0.95726 0.95728q0.47361 0.48367 0.48367 1.1991 0.01 0.71543-0.47358 1.1991zm2.3982 2.4083-0.55421-0.55421 0.79605-0.79603q0.51391-0.5139 1.2344-0.52398 0.72048-0.01015 1.2344 0.50382l0.83635 0.83635-0.5542 0.55421-0.84643-0.84643q-0.3023-0.3023-0.66001-0.3023-0.35772 0-0.66002 0.3023z" stroke-width=".015115"/>
 <path d="m65.845 37.387-5.7511-5.7511 1.2166-1.2166 4.5345 4.5345 9.6561-9.6561 1.2166 1.2166z" stroke-width=".025523"/>
 <path d="m26.299 24.133h6.3996v-2.2399q0-1.381-0.92627-2.3156-0.92626-0.93467-2.2735-0.93467-1.3473 0-2.2735 0.93467-0.92626 0.93468-0.92626 2.3156zm4.5808 14.045h-7.7806q-0.66521 0-1.1746-0.50945-0.50945-0.50943-0.50945-1.1746v-10.677q0-0.66521 0.50945-1.1746 0.50942-0.50945 1.1746-0.50945h1.5157v-2.2399q0-2.063 1.4188-3.4987 1.4189-1.4357 3.465-1.4357 2.0462 0 3.465 1.4357 1.4188 1.4357 1.4188 3.4987v2.2399h1.5157q0.66521 0 1.1746 0.50945 0.50945 0.50942 0.50945 1.1746v1.9031q-0.37052-0.10105-0.77048-0.14313-0.39997-0.0421-0.91361-0.0421v-1.7178h-12.799v10.677h6.8543q0.18527 0.48838 0.38737 0.86309 0.20208 0.3747 0.5389 0.821zm5.2376 0.90941q-2.0294 0-3.4819-1.4525t-1.4525-3.4819q0-2.0294 1.4525-3.4819t3.4819-1.4525q2.0293 0 3.4819 1.4525t1.4525 3.4819q0 2.0293-1.4525 3.4819t-3.4819 1.4525zm1.802-2.442 0.69048-0.69047-2.0378-1.903v-3.0314h-1.0442v3.3644zm-14.82-10.829v10.677z" stroke-width=".025262"/>
 <path d="m43.51 38.646q-0.33375 0-0.57077-0.23749-0.23703-0.23747-0.23703-0.57096v-4.0422h1.6169v4.0422q0 0.33349-0.23767 0.57096-0.23767 0.23749-0.57142 0.23749zm-0.8078-5.4387v-0.8091q0-0.33375 0.23768-0.57077 0.23767-0.23702 0.57142-0.23702t0.57077 0.23749q0.23702 0.23747 0.23702 0.57096v0.80844zm3.5271 5.4387q-0.33375 0-0.57077-0.23749-0.23702-0.23747-0.23702-0.57096v-2.7193h1.6169v2.7193q0 0.33349-0.23768 0.57096-0.23767 0.23749-0.57142 0.23749zm-0.80779-4.1158v-0.8091q0-0.33375 0.23767-0.57077 0.23767-0.23702 0.57142-0.23702t0.57078 0.23749q0.23702 0.23748 0.23702 0.57096v0.80845zm3.5271 4.1158q-0.33376 0-0.57078-0.23749-0.23702-0.23747-0.23702-0.57096v-1.3964h1.6169v1.3964q0 0.33349-0.23767 0.57096-0.23768 0.23749-0.57142 0.23749zm-0.8078-2.7928v-0.80909q0-0.33375 0.23767-0.57077 0.23768-0.23703 0.57143-0.23703t0.57077 0.23749q0.23702 0.23747 0.23702 0.57096v0.80844z" stroke-width=".011024"/>
</svg>
