<svg width="400" height="400" version="1.1" viewBox="0 0 105.83 105.83" xmlns="http://www.w3.org/2000/svg">
 <rect x="-1.4211e-14" y="-1.4211e-14" width="105.49" height="105.49" ry=".13328" fill="#fff"/>
 <path d="m47.641 92.301v-13.659h-7.231l6.548-19.363q0.52224-1.4864 1.8278-2.3099 1.3056-0.82354 2.8723-0.82354 1.5667 0 2.8723 0.82354 1.3056 0.8235 1.8278 2.3099l6.548 19.363h-7.231v13.659zm4.0204-39.128q-1.8712 0-3.207-1.3325-1.3357-1.3325-1.3357-3.2037t1.3325-3.2069q1.3326-1.3357 3.2037-1.3357 1.8712 0 3.2069 1.3326 1.3357 1.3325 1.3357 3.2037t-1.3325 3.2069q-1.3326 1.3357-3.2038 1.3357z" stroke-width=".060258"/>
 <path d="m27.452 85.652q-0.11712 0-0.19636-0.0792-0.0792-0.0792-0.0792-0.19636 0-0.11712 0.0792-0.19636 0.0792-0.0792 0.19636-0.0792h1.3779v-0.55117h-1.3779q-0.11712 0-0.19636-0.0792-0.0792-0.0792-0.0792-0.19636 0-0.11712 0.0792-0.19635 0.0792-0.0792 0.19636-0.0792h1.3779v-0.55117h-1.3779q-0.11712 0-0.19636-0.0792-0.0792-0.0792-0.0792-0.19636 0-0.11712 0.0792-0.19635 0.0792-0.0792 0.19636-0.0792h1.3779v-0.55117h-1.3779q-0.11712 0-0.19636-0.0792-0.0792-0.0792-0.0792-0.19635 0-0.11713 0.0792-0.19636 0.0792-0.0792 0.19636-0.0792h1.3779v-0.55118h-1.3779q-0.11712 0-0.19636-0.0792-0.0792-0.0792-0.0792-0.19634 0-0.11712 0.0792-0.19636 0.0792-0.0792 0.19636-0.0792h1.3779v-0.55117h-1.3779q-0.11712 0-0.19636-0.0792-0.0792-0.0792-0.0792-0.19635 0-0.11712 0.0792-0.19634 0.0792-0.0792 0.19636-0.0792h1.6535q0.28419 0 0.48657 0.20237 0.20238 0.2024 0.20238 0.48658v4.6849q0 0.28419-0.20238 0.48657t-0.48657 0.20238zm-3.446-3.1692q0.7384 0 1.2655-0.71218 0.52705-0.71219 0.52705-1.6983 0-0.9861-0.52584-1.6992t-1.2642-0.71308q-0.7384 0-1.2655 0.71219-0.52706 0.71218-0.52706 1.6983 0 0.9861 0.52584 1.6992 0.52584 0.71307 1.2642 0.71307zm1e-3 3.1692q-0.43405 0-0.70963-0.32209t-0.21702-0.74924l0.17224-1.5536q-0.75786-0.29969-1.2419-1.1075-0.48399-0.80781-0.48399-1.8481 0-1.2918 0.72341-2.1961 0.72341-0.90425 1.7568-0.90425t1.7568 0.90425q0.72341 0.90426 0.72341 2.1961 0 1.0403-0.48744 1.8481t-1.2453 1.1075l0.17912 1.5536q0.0586 0.42715-0.21702 0.74924-0.27558 0.32209-0.70962 0.32209z" stroke-width=".010334"/>
 <g stroke-width=".012246">
  <path d="m74.99 91.555h3.7881l0.55516-2.2043h-4.8984zm0 0.81639q-0.27758 0-0.49626-0.17177-0.21868-0.17178-0.29155-0.4446l-0.60823-2.4043h6.5802l-0.60822 2.4043q-0.0729 0.27282-0.29156 0.4446-0.21868 0.17177-0.49626 0.17177zm-1.6981-3.837h7.1843v-1.143h-7.1843zm3.5921-3.0288q0.0408-1.1184 0.92252-2.0042 0.88171-0.8858 2.0083-0.92661-0.0245 1.0286-0.77966 1.8654-0.75516 0.83682-1.743 1.0164v1.1185h4.0003v1.9593q0 0.33676-0.23982 0.57657-0.23981 0.23981-0.57657 0.23981h-7.1843q-0.33676 0-0.57658-0.23981-0.23981-0.23981-0.23981-0.57657v-1.9593h4.0003v-1.1185q-0.98784-0.17959-1.7389-1.0164-0.75109-0.8368-0.78373-1.8654 1.1266 0.0408 2.0124 0.92252 0.88579 0.88171 0.91845 2.0083z"/>
  <path d="m76.929 80.627c0.0272-0.74563 0.33472-1.4137 0.92253-2.0042s1.2572-0.8994 2.0083-0.9266c-0.0163 0.68577-0.27621 1.3076-0.77966 1.8654-0.50344 0.55787-1.0844 0.89668-1.743 1.0164v1.1185c-0.0109 1.0448-0.77332 1.0112-0.81639 0v-1.1185c-0.65856-0.11973-1.2382-0.45854-1.7389-1.0164s-0.76197-1.1797-0.78374-1.8654c0.75108 0.0272 1.4219 0.33468 2.0124 0.92251 0.59053 0.58781 0.89667 1.2573 0.91844 2.0083z"/>
  <path d="m77.054 75.06c0.0272-0.74563 0.33473-1.4137 0.92253-2.0042 0.58781-0.59053 1.2572-0.8994 2.0083-0.9266-0.0163 0.68577-0.27621 1.3076-0.77966 1.8654-0.50344 0.55787-1.0844 0.89668-1.743 1.0164v1.1185c-0.0109 1.0448-0.77332 1.0112-0.81639 0v-1.1185c-0.65856-0.11973-1.2382-0.45854-1.7389-1.0164s-0.76197-1.1797-0.78373-1.8654c0.75107 0.0272 1.4219 0.33468 2.0124 0.92251 0.59053 0.58781 0.89667 1.2573 0.91844 2.0083z"/>
  <path d="m77.163 69.952c0.0272-0.74563 0.33473-1.4137 0.92253-2.0042 0.58781-0.59053 1.2572-0.8994 2.0083-0.9266-0.0163 0.68576-0.27621 1.3076-0.77966 1.8654-0.50344 0.55788-1.0844 0.89669-1.743 1.0164v1.1185c-0.0109 1.0448-0.77332 1.0112-0.81639 0v-1.1185c-0.65856-0.11973-1.2382-0.45854-1.7389-1.0164-0.50072-0.55786-0.76197-1.1797-0.78373-1.8654 0.75107 0.0272 1.4219 0.33468 2.0124 0.92251 0.59052 0.58781 0.89666 1.2573 0.91843 2.0083z"/>
 </g>
 <g stroke-width=".011024">
  <path d="m21.866 94.471q-0.60896 0-1.0394-0.43048-0.43047-0.43047-0.43047-1.0394v-5.8796q0-0.60896 0.43047-1.0394 0.43047-0.43048 1.0394-0.43048h5.5857v6.6146q-0.28297 0-0.47221 0.21864-0.18925 0.21866-0.18925 0.51631 0 0.29766 0.18925 0.5163 0.18924 0.21866 0.47221 0.21866v0.73495zm-0.73496-2.745q0.1617-0.0992 0.34544-0.14699 0.18373-0.0478 0.38952-0.0478h0.29399v-5.1447h-0.29399q-0.30623 0-0.52059 0.21437-0.21437 0.21436-0.21437 0.52059zm1.7639-0.19476h3.8218v-5.1447h-3.8218zm-1.7639 0.19476v-5.3394zm0.73159 2.0101h4.38q-0.0882-0.16169-0.1378-0.34727t-0.0496-0.38769q0-0.20579 0.0478-0.38953 0.0478-0.18373 0.147-0.34543h-4.3869q-0.30579 0-0.51892 0.21437-0.21315 0.21436-0.21315 0.52059 0 0.30868 0.21315 0.52182 0.21313 0.21314 0.51844 0.21314z"/>
  <path d="m15.68 85.316q-0.60896 0-1.0394-0.43048-0.43048-0.43046-0.43048-1.0394v-5.8796q0-0.60896 0.43048-1.0394 0.43046-0.43048 1.0394-0.43048h5.5857v6.6146q-0.28296 0-0.47221 0.21864-0.18925 0.21866-0.18925 0.51631 0 0.29766 0.18925 0.5163 0.18925 0.21866 0.47221 0.21866v0.73495zm-0.73496-2.745q0.1617-0.0992 0.34544-0.147 0.18373-0.0478 0.38952-0.0478h0.29399v-5.1447h-0.29399q-0.30623 0-0.52059 0.21437-0.21437 0.21436-0.21437 0.52059zm1.7639-0.19477h3.8218v-5.1447h-3.8218zm-1.7639 0.19477v-5.3395zm0.73159 2.0101h4.38q-0.0882-0.16169-0.1378-0.34726-0.0496-0.18559-0.0496-0.3877 0-0.20579 0.0478-0.38953 0.0478-0.18373 0.147-0.34542h-4.3869q-0.3058 0-0.51893 0.21436-0.21314 0.21436-0.21314 0.52059 0 0.30868 0.21314 0.52182 0.21313 0.21314 0.51844 0.21314z"/>
  <path d="m11.951 86.904c0-0.40598 0.14891-1.0889 0.4359-1.3759 0.28698-0.28699 0.63345-0.43048 1.0394-0.43048h5.8796c0.40597 0 0.75245 0.14349 1.0394 0.43048 0.28699 0.28697 0.49902 1.2156 0.49902 1.6216 0 0-8.7591 0.44812-8.8934-0.24575zm2.7505-1.0714c0.0662 0.10779 0.11515 0.22294 0.14699 0.34543 0.0319 0.12249 0.0478 0.25233 0.0478 0.38953v0.29398h5.1447v-0.29398c0-0.20416-0.0715-0.37769-0.21437-0.5206-0.14291-0.14291-0.31644-0.21436-0.52059-0.21436zm0 0h5.3394zm-2.0101 0.73158c0.1582 0.49476 1.4852 0.46977 1.4699 4.9e-4 0-0.20386-0.0715-0.37684-0.21437-0.51893-0.14291-0.14209-0.31644-0.21314-0.52059-0.21314-0.20579 0-0.37972 0.0711-0.52181 0.21314-0.1421 0.14209-0.21314 0.3149-0.21314 0.51844z"/>
  <path d="m12.007 88.585c0-0.40597 0.14891-1.0889 0.4359-1.3759 0.28698-0.28698 0.63345-0.43048 1.0394-0.43048h5.8796c0.40597 0 0.75245 0.1435 1.0394 0.43048 0.28699 0.28698 0.49902 1.2156 0.49902 1.6216 0 0-8.7591 0.44813-8.8934-0.24575zm2.7505-1.0714c0.0661 0.1078 0.11515 0.22294 0.14699 0.34544 0.0318 0.12248 0.0478 0.25232 0.0478 0.38952v0.29398h5.1447v-0.29398c0-0.20416-0.0715-0.37769-0.21437-0.52059-0.14291-0.14291-0.31644-0.21437-0.52059-0.21437zm0 0h5.3394zm-2.0101 0.73159c0.1582 0.49476 1.4852 0.46976 1.4699 4.8e-4 0-0.20386-0.0715-0.37683-0.21437-0.51892-0.14291-0.1421-0.31644-0.21315-0.52059-0.21315-0.20579 0-0.37972 0.0711-0.52181 0.21315-0.1421 0.14209-0.21314 0.3149-0.21314 0.51844z"/>
  <path d="m12.194 92.37c0-0.40598 0.14891-1.0889 0.4359-1.3759 0.28698-0.28699 0.63345-0.43048 1.0394-0.43048h5.8796c0.40597 0 0.75245 0.14349 1.0394 0.43048 0.28698 0.28698 0.49902 1.2156 0.49902 1.6216 0 0-8.7591 0.44812-8.8934-0.24575zm2.7505-1.0714c0.0662 0.10779 0.11515 0.22294 0.147 0.34543 0.0319 0.12249 0.0478 0.25233 0.0478 0.38953v0.29398h5.1447v-0.29398c0-0.20416-0.0715-0.37769-0.21437-0.52059-0.1429-0.14292-0.31643-0.21437-0.52059-0.21437zm0 0h5.3395zm-2.0101 0.73158c0.1582 0.49477 1.4852 0.46977 1.4699 4.9e-4 0-0.20386-0.0715-0.37684-0.21437-0.51893-0.14291-0.14209-0.31644-0.21314-0.52059-0.21314-0.20579 0-0.37973 0.0711-0.52182 0.21314-0.1421 0.14209-0.21314 0.31491-0.21314 0.51844z"/>
  <path d="m12.213 90.522c0-0.40597 0.14891-1.0889 0.4359-1.3759 0.28698-0.28698 0.63345-0.43048 1.0394-0.43048h5.8796c0.40597 0 0.75245 0.1435 1.0394 0.43048s0.49902 1.2156 0.49902 1.6216c0 0-8.7591 0.44813-8.8934-0.24575zm2.7505-1.0714c0.0662 0.1078 0.11515 0.22294 0.14699 0.34544 0.0319 0.12248 0.0478 0.25233 0.0478 0.38952v0.29398h5.1447v-0.29398c0-0.20416-0.0715-0.37769-0.21437-0.52059-0.1429-0.14291-0.31643-0.21437-0.52059-0.21437zm0 0h5.3395zm-2.0101 0.73158c0.1582 0.49477 1.4852 0.46977 1.4699 4.9e-4 0-0.20386-0.0715-0.37683-0.21437-0.51892-0.14291-0.1421-0.31644-0.21315-0.52059-0.21315-0.20579 0-0.37973 0.071-0.52182 0.21315-0.1421 0.14209-0.21314 0.3149-0.21314 0.51843z"/>
  <path d="m12.525 94.054c0-0.40598 0.14891-1.0889 0.4359-1.3759 0.28698-0.28699 0.63346-0.43048 1.0394-0.43048h5.8796c0.40598 0 0.75245 0.14349 1.0394 0.43048 0.28698 0.28697 0.49902 1.2156 0.49902 1.6216 0 0-8.7591 0.44812-8.8934-0.24575zm2.7505-1.0714c0.0662 0.10779 0.11515 0.22294 0.147 0.34543 0.0319 0.12249 0.0478 0.25233 0.0478 0.38952v0.29399h5.1447v-0.29399c0-0.20415-0.0715-0.37768-0.21437-0.52059-0.1429-0.14291-0.31643-0.21436-0.52059-0.21436zm0 0h5.3395zm-2.0101 0.73158c0.1582 0.49476 1.4852 0.46977 1.4699 4.9e-4 0-0.20386-0.0715-0.37684-0.21437-0.51893-0.1429-0.14209-0.31643-0.21314-0.52059-0.21314-0.20579 0-0.37972 0.0711-0.52181 0.21314-0.1421 0.14209-0.21314 0.3149-0.21314 0.51844z"/>
 </g>
</svg>
