<?xml version="1.0" encoding="UTF-8" standalone="no"?>
<svg
   xmlns:dc="http://purl.org/dc/elements/1.1/"
   xmlns:cc="http://creativecommons.org/ns#"
   xmlns:rdf="http://www.w3.org/1999/02/22-rdf-syntax-ns#"
   xmlns:svg="http://www.w3.org/2000/svg"
   xmlns="http://www.w3.org/2000/svg"
   xmlns:sodipodi="http://sodipodi.sourceforge.net/DTD/sodipodi-0.dtd"
   xmlns:inkscape="http://www.inkscape.org/namespaces/inkscape"
   width="400"
   height="400"
   version="1.1"
   viewBox="0 0 105.83 105.83"
   id="svg17544"
   sodipodi:docname="14.svg"
   inkscape:version="1.0.2 (e86c870879, 2021-01-15)">
  <metadata
     id="metadata17550">
    <rdf:RDF>
      <cc:Work
         rdf:about="">
        <dc:format>image/svg+xml</dc:format>
        <dc:type
           rdf:resource="http://purl.org/dc/dcmitype/StillImage" />
      </cc:Work>
    </rdf:RDF>
  </metadata>
  <defs
     id="defs17548" />
  <sodipodi:namedview
     pagecolor="#ffffff"
     bordercolor="#666666"
     borderopacity="1"
     objecttolerance="10"
     gridtolerance="10"
     guidetolerance="10"
     inkscape:pageopacity="0"
     inkscape:pageshadow="2"
     inkscape:window-width="1621"
     inkscape:window-height="976"
     id="namedview17546"
     showgrid="false"
     inkscape:zoom="1.8720302"
     inkscape:cx="207.25117"
     inkscape:cy="197.88036"
     inkscape:window-x="0"
     inkscape:window-y="0"
     inkscape:window-maximized="0"
     inkscape:current-layer="svg17544"
     inkscape:document-rotation="0" />
  <rect
     width="105.49"
     height="105.49"
     ry=".13328"
     fill="#fff"
     id="rect17526" />
  <path
     d="m52.103 64.82q-1.4061 0-2.3965-0.99396-0.99038-0.99395-0.99038-2.4001t0.99396-2.3965q0.99395-0.99038 2.4001-0.99038t2.3965 0.99396q0.99036 0.99402 0.99036 2.4001 0 1.4061-0.99395 2.3965-0.99397 0.99037-2.4001 0.99037zm-3.5653 27.481v-9.2792h-3.9615l4.7288-13.401q0.32118-0.85654 1.0841-1.4008 0.7629-0.54428 1.722-0.54428 0.95911 0 1.7175 0.54428 0.7584 0.54422 1.0796 1.4008l4.7288 13.401h-3.9615v9.2792z"
     stroke-width=".053534"
     id="path17530" />
  <path
     d="m60.111 74.936h3.7881l0.55515-2.2043h-4.8984zm0 0.81639c-0.18505 0-0.35047-0.0573-0.49626-0.17177-0.14578-0.11452-0.24297-0.26272-0.29155-0.44461l-0.60823-2.4043h6.5802l-0.60822 2.4043c-0.0486 0.18189-0.14578 0.33009-0.29156 0.44461-0.14578 0.11451-0.3112 0.17177-0.49625 0.17177zm-1.6981-3.837h7.1843v-1.143h-7.1843zm3.5921-3.0288c0.48854-0.44478 0.40819-0.72995 0.40819 1.0695h4.0003v1.9594c0 0.2245-0.0799 0.41669-0.23982 0.57657-0.15987 0.15987-0.35206 0.23981-0.57657 0.23981h-7.1843c-0.22451 0-0.4167-0.0799-0.57658-0.23981-0.15987-0.15988-0.23981-0.35207-0.23981-0.57657v-1.9594h4.0003l0.0116-0.62698c-3.5234-2.0792 0.50746-4.3933 0.39656-0.4425z"
     stroke-width=".012246"
     id="path17532" />
  <path
     d="m39.648 78.23q-0.60896 0-1.0394-0.43048-0.43048-0.43046-0.43048-1.0394v-5.8796q0-0.60896 0.43048-1.0394 0.43047-0.43048 1.0394-0.43048h5.5856v6.6146q-0.28296 0-0.4722 0.21864-0.18926 0.21866-0.18926 0.51632 0 0.29765 0.18926 0.5163 0.18924 0.21865 0.4722 0.21865v0.73495zm-0.73496-2.745q0.16169-0.0992 0.34543-0.147t0.38953-0.0478h0.29398v-5.1447h-0.29398q-0.30624 0-0.52059 0.21436-0.21437 0.21436-0.21437 0.52059zm1.7639-0.19477h3.8218v-5.1447h-3.8218zm-1.7639 0.19477v-5.3395zm0.73158 2.0101h4.38q-0.0882-0.16169-0.13781-0.34726-0.0496-0.18559-0.0496-0.38769 0-0.2058 0.0478-0.38954 0.0478-0.18373 0.147-0.34542h-4.3869q-0.30579 0-0.51893 0.21437-0.21314 0.21435-0.21314 0.52059 0 0.30868 0.21314 0.52181 0.21314 0.21314 0.51844 0.21314z"
     stroke-width=".011024"
     id="path17534" />
  <path
     d="m 63.7284,35.2704 -5.7511,-5.7511 1.2166,-1.2166 4.5345,4.5345 9.6561,-9.6561 1.2166,1.2166 z"
     stroke-width="0.025523"
     id="path17538" />
  <g
     id="g2377"
     transform="matrix(0.99996851,0,0,0.99996851,2.8323154,6.3779887)">
    <g
       transform="matrix(0.10148163,0,0,0.10148163,28.246456,16.959417)"
       id="g16">
      <path
         d="M 65.419,0.36106 C 45.374826,0.36074542 10.667159,-4.3156284 -1.0136025,10.154346 -9.8406756,21.089209 1.699,48.933574 1.699,64.08106 1.6992253,78.436378 -11.355728,108.51547 -3.3456916,119.16904 8.28061,134.63235 44.58306,131.87087 65.419,131.87054 c 7.368503,0 43.33596,-0.13213 50.28447,0.45178 0,0 8.17764,-48.649659 8.17807,-76.472231 2.81601,-6.847245 20.7538,21.053295 22.00974,1.802371 1.45981,-22.375647 0.95138,-45.429557 -3.65099,-51.2614166 C 130.57153,-8.3949338 85.716562,0.36106 65.419,0.36106 Z m -34.705,28.607 18.962,0.06599 17.785,24.847 9.8729,-13.077 -6.6037,-0.78448 v -11.05 h 31.973 v 11.508 l -6.4077,1.1117 -18.177,22.296 19.158,23.343 6.6697,1.0464 v 11.443 h -18.635 l -19.093,-25.566 -10.331,13.862 5.6886,0.71916 v 10.985 h -31.516 v -11.443 l 6.6044,-1.0464 19.093,-23.016 -18.439,-22.623 -6.6044,-1.1117 z"
         fill="#ffb200"
         stroke="#000000"
         stroke-dasharray="0, 6.182"
         stroke-linejoin="bevel"
         stroke-miterlimit="4.1"
         stroke-opacity="0.25297"
         stroke-width="0.562"
         id="path14"
         sodipodi:nodetypes="cscscscsscccccccccccccccccccccccccc" />
    </g>
    <path
       d="m 31.768169,16.344586 h 6.399802 v -2.23997 q 0,-1.381044 -0.926299,-2.315673 -0.926289,-0.9347 -2.273572,-0.9347 -1.347342,0 -2.273571,0.9347 -0.92629,0.934709 -0.92629,2.315673 z m 4.580945,14.045443 h -7.780845 q -0.665231,0 -1.174637,-0.509466 -0.509466,-0.509446 -0.509466,-1.174637 V 18.028589 q 0,-0.665231 0.509466,-1.174637 0.509436,-0.509466 1.174637,-0.509466 h 1.515747 v -2.23997 q 0,-2.063065 1.418845,-3.498811 1.418945,-1.435745 3.465109,-1.435745 2.046265,0 3.465109,1.435745 1.418845,1.435746 1.418845,3.498811 v 2.23997 h 1.515748 q 0.665231,0 1.174637,0.509466 0.509466,0.509436 0.509466,1.174637 v 1.90316 q -0.370532,-0.101053 -0.770504,-0.143134 -0.399983,-0.0421 -0.913639,-0.0421 V 18.028659 H 28.568229 v 10.677337 h 6.854516 q 0.185275,0.488395 0.387382,0.863117 0.202086,0.374712 0.538917,0.821026 z m 5.237765,0.909438 q -2.029464,0 -3.48201,-1.452546 -1.452546,-1.452545 -1.452546,-3.482009 0,-2.029464 1.452546,-3.48201 1.452546,-1.452546 3.48201,-1.452546 2.029364,0 3.482009,1.452546 1.452646,1.452546 1.452546,3.48201 0,2.029364 -1.452546,3.482009 -1.452545,1.452646 -3.482009,1.452546 z m 1.802056,-2.442077 0.690502,-0.690491 -2.037864,-1.90306 V 23.232343 H 40.99734 v 3.364506 z M 28.568469,18.028049 v 10.677337 z"
       stroke-width="0.0252628"
       id="path16-3" />
  </g>
</svg>
