<svg width="400" height="400" version="1.1" viewBox="0 0 105.83 105.83" xmlns="http://www.w3.org/2000/svg">
 <rect width="105.49" height="105.49" ry=".13328" fill="#fff"/>
 <path d="m40.134 92.301q-1.5466 0-2.584-1.0374-1.0374-1.0374-1.0374-2.584 0-1.0751 0.56584-2.0464 0.56584-0.97136 1.5844-1.3863l9.4306-3.7345v-6.9033q-3.5082 4.2438-7.4219 6.4223-3.9137 2.1785-8.7234 2.1785v-3.7722q3.8477 0 7.007-1.7164 3.1593-1.7164 5.7056-4.8474l3.2064-3.6591q0.60358-0.71673 1.4146-1.1505 0.81107-0.43371 1.7541-0.43371h2.5652q0.94303 0 1.7729 0.43371 0.82992 0.43371 1.4334 1.1505l3.2064 3.6591q2.6594 3.0555 5.7433 4.8096 3.0838 1.7541 6.9315 1.7541v3.7722q-4.7719 0-8.7045-2.1785-3.9326-2.1784-7.4408-6.4223v6.9033l9.4306 3.7345q1.0185 0.41471 1.5843 1.3863 0.56584 0.9713 0.56584 2.0464 0 1.5466-1.0374 2.584-1.0374 1.0374-2.584 1.0374h-16.862v-0.79217q0-1.4712 0.92423-2.3954 0.92419-0.92418 2.3954-0.92418h7.2805q0.47154 0 0.80157-0.33003 0.33014-0.33003 0.33014-0.80157 0-0.47169-0.33014-0.80161-0.33003-0.33003-0.80157-0.33003h-7.2805q-2.452 0-3.9797 1.5654-1.5278 1.5655-1.5278 4.0175v0.79217zm12.184-27.688q-1.7541 0-3.0084-1.2542-1.2542-1.2543-1.2542-3.0084 0-1.7541 1.2542-3.0084 1.2543-1.2543 3.0084-1.2543 1.7541 0 3.0084 1.2543 1.2542 1.2542 1.2542 3.0084 0 1.7541-1.2542 3.0084-1.2543 1.2542-3.0084 1.2542z" stroke-width=".056584"/>
 <g stroke-width=".012246">
  <path d="m88.108 91.635h3.7881l0.55516-2.2043h-4.8984zm0 0.81639q-0.27757 0-0.49625-0.17177t-0.29156-0.4446l-0.60822-2.4043h6.5801l-0.60821 2.4043q-0.0729 0.27283-0.29157 0.4446t-0.49625 0.17177zm-1.6981-3.837h7.1843v-1.143h-7.1843zm3.5921-3.0288q0.0408-1.1184 0.92252-2.0042 0.88172-0.8858 2.0083-0.92661-0.0245 1.0287-0.77966 1.8654-0.75515 0.83682-1.743 1.0164v1.1185h4.0003v1.9593q0 0.33675-0.23981 0.57657t-0.57658 0.23982h-7.1843q-0.33676 0-0.57657-0.23982t-0.23981-0.57657v-1.9593h4.0003v-1.1185q-0.98784-0.17959-1.7389-1.0164-0.75108-0.83679-0.78373-1.8654 1.1266 0.0408 2.0124 0.92252 0.88578 0.88172 0.91844 2.0083z"/>
  <path d="m90.046 80.706c0.0272-0.74564 0.33472-1.4137 0.92252-2.0042 0.58781-0.59054 1.2573-0.8994 2.0083-0.92661-0.0163 0.68577-0.27621 1.3076-0.77966 1.8654-0.50343 0.55788-1.0844 0.89668-1.743 1.0164v1.1185c-0.0109 1.0448-0.77332 1.0112-0.81638 0v-1.1185c-0.65856-0.11973-1.2382-0.45853-1.7389-1.0164-0.50072-0.55787-0.76196-1.1797-0.78373-1.8654 0.75107 0.0272 1.4219 0.33468 2.0124 0.92251 0.59052 0.58782 0.89667 1.2573 0.91844 2.0083z"/>
  <path d="m90.171 75.14c0.0272-0.74564 0.33472-1.4137 0.92252-2.0042 0.58781-0.59053 1.2573-0.89939 2.0083-0.9266-0.0163 0.68577-0.2762 1.3076-0.77966 1.8654-0.50343 0.55788-1.0844 0.89668-1.743 1.0164v1.1185c-0.0109 1.0448-0.77332 1.0112-0.81638 0v-1.1185c-0.65856-0.11973-1.2382-0.45853-1.7389-1.0164-0.50072-0.55787-0.76196-1.1797-0.78373-1.8654 0.75107 0.0272 1.4219 0.33468 2.0124 0.92251 0.59052 0.58782 0.89667 1.2573 0.91844 2.0083z"/>
  <path d="m90.28 70.032c0.0272-0.74563 0.33472-1.4137 0.92252-2.0042 0.58781-0.59053 1.2573-0.8994 2.0083-0.9266-0.0163 0.68577-0.2762 1.3076-0.77966 1.8654-0.50343 0.55787-1.0844 0.89668-1.743 1.0164v1.1185c-0.0109 1.0448-0.77332 1.0112-0.81638 0v-1.1185c-0.65856-0.11973-1.2382-0.45854-1.7389-1.0164-0.50073-0.55787-0.76197-1.1797-0.78374-1.8654 0.75107 0.0272 1.4219 0.33468 2.0124 0.92251 0.59052 0.58781 0.89667 1.2573 0.91844 2.0083z"/>
  <path d="m90.389 64.988c0.0272-0.74563 0.33472-1.4137 0.92252-2.0042 0.58782-0.59053 1.2573-0.8994 2.0083-0.9266-0.0163 0.68577-0.2762 1.3076-0.77965 1.8654-0.50344 0.55788-1.0844 0.89668-1.743 1.0164v1.1185c-0.0109 1.0448-0.77332 1.0112-0.81638 0v-1.1185c-0.65856-0.11973-1.2382-0.45853-1.7389-1.0164-0.50073-0.55787-0.76197-1.1797-0.78374-1.8654 0.75107 0.0272 1.4219 0.33468 2.0124 0.92251 0.59052 0.58782 0.89667 1.2573 0.91844 2.0083z"/>
  <path d="m90.487 60.202c0.0272-0.74563 0.33472-1.4137 0.92252-2.0042 0.58781-0.59053 1.2572-0.8994 2.0083-0.92661-0.0163 0.68577-0.27621 1.3076-0.77966 1.8654-0.50344 0.55788-1.0844 0.89668-1.743 1.0164v1.1185c-0.0109 1.0448-0.77332 1.0112-0.81638 0v-1.1185c-0.65856-0.11973-1.2382-0.45853-1.7389-1.0164-0.50072-0.55786-0.76197-1.1797-0.78373-1.8654 0.75107 0.0272 1.4219 0.33469 2.0124 0.92252 0.59052 0.58781 0.89667 1.2572 0.91844 2.0083z"/>
  <path d="m90.553 55.338c0.0272-0.74564 0.33472-1.4137 0.92253-2.0042s1.2572-0.89939 2.0083-0.9266c-0.0163 0.68577-0.27621 1.3076-0.77966 1.8654-0.50344 0.55788-1.0844 0.89668-1.743 1.0164v1.1185c-0.0109 1.0448-0.77332 1.0112-0.81639 0v-1.1185c-0.65856-0.11973-1.2382-0.45853-1.7389-1.0164-0.50072-0.55787-0.76197-1.1797-0.78374-1.8654 0.75108 0.0272 1.4219 0.33468 2.0124 0.92251 0.59052 0.58782 0.89667 1.2573 0.91844 2.0083z"/>
  <path d="m90.672 50.152c0.0272-0.74563 0.33472-1.4137 0.92252-2.0042 0.58781-0.59053 1.2573-0.8994 2.0083-0.92661-0.0163 0.68577-0.27621 1.3076-0.77966 1.8654-0.50343 0.55788-1.0844 0.89668-1.743 1.0164v1.1185c-0.0109 1.0448-0.77332 1.0112-0.81638 0v-1.1185c-0.65856-0.11973-1.2382-0.45853-1.7389-1.0164-0.50072-0.55786-0.76196-1.1797-0.78373-1.8654 0.75107 0.0272 1.4219 0.33469 2.0124 0.92252 0.59052 0.58781 0.89667 1.2572 0.91844 2.0083z"/>
 </g>
</svg>
