<svg width="400" height="400" version="1.1" viewBox="0 0 105.83 105.83" xmlns="http://www.w3.org/2000/svg">
 <rect y="-1.4211e-14" width="105.49" height="105.49" ry=".13328" fill="#fff"/>
 <path d="m19.879 15.93c0.0997 0.25806 0.0655 0.50152-0.10267 0.73038-0.16815 0.22888-0.39433 0.34331-0.67853 0.34331-0.14435 0-0.27715-0.0369-0.39842-0.11059-0.12128-0.0737-0.21465-0.18126-0.28011-0.32258-0.32291 0.04-0.60675-0.0656-0.85153-0.3168-0.24477-0.25115-0.35377-0.54492-0.32698-0.88131-0.13392-0.0753-0.23734-0.18548-0.31026-0.33063-0.0729-0.14516-0.10937-0.29147-0.10937-0.43893 0-0.29952 0.11123-0.52801 0.33369-0.68546 0.22246-0.15744 0.47133-0.17473 0.74661-0.0519l0.40623 0.1705c0.0804-0.16129 0.19344-0.2884 0.33926-0.38133 0.14583-0.0929 0.30505-0.144 0.47766-0.15322v-0.58523h0.35265v0.62209c0.17708 0.0415 0.3296 0.13402 0.45757 0.27765 0.12797 0.14362 0.21502 0.29684 0.26115 0.45966h0.59818v0.36865h-0.56694c-0.0119 0.17818-0.0614 0.34254-0.14842 0.49307-0.0871 0.15053-0.2087 0.26727-0.36494 0.35022zm-1.5847 0.18892c-9e-3 -0.12441-3e-3 -0.24998 0.019-0.37671 0.0216-0.12672 0.0539-0.24999 0.0971-0.3698-0.11458 0.0599-0.234 0.0979-0.35824 0.11405-0.12425 0.0161-0.24887 0.0166-0.37386 1e-3 6e-3 0.16128 0.0718 0.30682 0.19753 0.43662 0.12574 0.12979 0.26524 0.19469 0.41851 0.19469zm-0.49551-1.0829c0.16666 0 0.33443-0.0392 0.50332-0.1175s0.30468-0.15131 0.40735-0.2189l-0.90175-0.38248c-0.11755-0.0522-0.23696-0.048-0.35823 0.0127-0.12128 0.0607-0.18192 0.15169-0.18192 0.27303 0 0.11981 0.0625 0.22196 0.1875 0.30644 0.12499 0.0845 0.23957 0.12673 0.34373 0.12673zm1.299 1.5069c0.12945 0 0.23324-0.0449 0.31136-0.13479 0.0781-0.0899 0.0949-0.19239 0.0502-0.3076l-0.38837-1.0276c-0.0818 0.13825-0.15736 0.28187-0.22656 0.43087s-0.10378 0.32027-0.10378 0.51381c0 0.11213 0.0301 0.22772 0.0904 0.34677 0.0603 0.11904 0.14917 0.17856 0.26673 0.17856zm0.43747-1.4884c0.0923-0.0615 0.15624-0.13709 0.19195-0.22695 0.0357-0.0899 0.0536-0.18548 0.0536-0.28686 0-0.15668-0.0536-0.29108-0.1607-0.40321-0.10714-0.11213-0.23585-0.1682-0.38614-0.1682-0.0982 0-0.1927 0.0215-0.28347 0.0645-0.0908 0.043-0.16071 0.11137-0.20981 0.20507l0.56247 0.23962z" stroke-width=".0068032"/>
 <path d="m15.485 90.563v-16.672h-4.7636v-14.807q0-1.6375 1.166-2.8035 1.1661-1.1661 2.8035-1.1661h9.5271q1.6375 0 2.8035 1.1661 1.1661 1.1661 1.1661 2.8035v14.807h-4.7636v16.672zm3.9727-38.664q-1.849 0-3.169-1.3167-1.3198-1.3168-1.3198-3.1658 0-1.849 1.3167-3.1689 1.3168-1.3199 3.1658-1.3199 1.8491 0 3.169 1.3168 1.3199 1.3167 1.3199 3.1658 0 1.849-1.3167 3.1689-1.3168 1.3199-3.1658 1.3199z" stroke-width=".059544"/>
 <path d="m36.122 66.576q1.6073 0 2.7472-1.1122 1.1398-1.1122 1.1398-2.7103v-3.5278q0-0.38224-0.26942-0.65167-0.26942-0.26942-0.65166-0.26942h-7.1753q-0.76451 0-1.308 0.52962-0.54344 0.52965-0.54344 1.2942 0 0.81976 0.52962 1.4323 0.52964 0.61253 1.3218 0.61253h0.32238v0.58029q0 1.5981 1.1398 2.7103 1.1398 1.1122 2.7472 1.1122zm2.9659-5.324h-5.9318v-2.0264h5.9318zm-2.9659 4.4028q-1.2205 0-2.0932-0.84049-0.87273-0.8405-0.87273-2.061v-0.58029h5.9318v0.58029q0 1.2205-0.87274 2.061-0.87274 0.84049-2.0932 0.84049zm-3.887-4.4028h-0.32238q-0.41911 0-0.67471-0.34312-0.2556-0.34309-0.2556-0.78062 0-0.38226 0.27403-0.64247 0.27402-0.26022 0.65628-0.26022h0.32238zm7.774 7.0003v-0.92108h-8.8425v0.92108z" stroke-width=".013816"/>
</svg>
