<?xml version="1.0" encoding="UTF-8" standalone="no"?>
<svg
   xmlns:dc="http://purl.org/dc/elements/1.1/"
   xmlns:cc="http://creativecommons.org/ns#"
   xmlns:rdf="http://www.w3.org/1999/02/22-rdf-syntax-ns#"
   xmlns:svg="http://www.w3.org/2000/svg"
   xmlns="http://www.w3.org/2000/svg"
   xmlns:sodipodi="http://sodipodi.sourceforge.net/DTD/sodipodi-0.dtd"
   xmlns:inkscape="http://www.inkscape.org/namespaces/inkscape"
   width="400"
   height="400"
   version="1.1"
   viewBox="0 0 105.83 105.83"
   id="svg22"
   sodipodi:docname="17.svg"
   inkscape:version="1.0.2 (e86c870879, 2021-01-15)">
  <metadata
     id="metadata28">
    <rdf:RDF>
      <cc:Work
         rdf:about="">
        <dc:format>image/svg+xml</dc:format>
        <dc:type
           rdf:resource="http://purl.org/dc/dcmitype/StillImage" />
      </cc:Work>
    </rdf:RDF>
  </metadata>
  <defs
     id="defs26" />
  <sodipodi:namedview
     pagecolor="#ffffff"
     bordercolor="#666666"
     borderopacity="1"
     objecttolerance="10"
     gridtolerance="10"
     guidetolerance="10"
     inkscape:pageopacity="0"
     inkscape:pageshadow="2"
     inkscape:window-width="1920"
     inkscape:window-height="1176"
     id="namedview24"
     showgrid="false"
     inkscape:zoom="1.3746099"
     inkscape:cx="36.448462"
     inkscape:cy="251.8652"
     inkscape:window-x="0"
     inkscape:window-y="0"
     inkscape:window-maximized="1"
     inkscape:current-layer="svg22" />
  <rect
     width="105.49"
     height="105.49"
     ry=".13328"
     fill="#fff"
     id="rect2" />
  <path
     d="m37.941 66.291q-1.6073 0-2.7472-1.1122-1.1398-1.1122-1.1398-2.7103v-3.5278q0-0.38225 0.26942-0.65167t0.65166-0.26942h7.1754q0.76451 0 1.308 0.52962 0.54345 0.52964 0.54345 1.2942 0 0.81977-0.52963 1.4323-0.52964 0.61253-1.3218 0.61253h-0.32238v0.58029q0 1.5981-1.1399 2.7103-1.1399 1.1122-2.7472 1.1122zm-2.9659-5.3239h5.9319v-2.0264h-5.9319zm2.9659 4.4028q1.2205 0 2.0932-0.8405 0.87273-0.84049 0.87273-2.061v-0.58029h-5.9319v0.58029q0 1.2205 0.87275 2.061 0.87274 0.8405 2.0932 0.8405zm3.887-4.4028h0.32238q0.41911 0 0.67471-0.34312 0.25561-0.3431 0.25561-0.78063 0-0.38226-0.27404-0.64246-0.27402-0.26022-0.65628-0.26022h-0.32238zm-7.7741 7.0003v-0.92108h8.8425v0.92108z"
     stroke-width=".013816"
     id="path4" />
  <g
     stroke-width=".025262"
     id="g12">
    <path
       d="m 86.0185,46.57525 q -0.31155,0.15146 -0.65258,0.0378 -0.34103,-0.11366 -0.4926,-0.42527 l -1.6673,-3.3345 q -0.15156,-0.31157 -0.0463,-0.65261 0.10526,-0.34101 0.41681,-0.49259 0.31158,-0.15146 0.65261,-0.0378 0.341,0.11365 0.49257,0.42524 l 1.6673,3.3346 q 0.15156,0.31154 0.0463,0.65258 -0.10527,0.34103 -0.41682,0.49259 z m 6.0628,-0.016 q -0.31155,0.15146 -0.65258,0.0378 -0.34103,-0.11366 -0.4926,-0.42522 l -1.6673,-3.3346 q -0.15158,-0.31155 -0.0463,-0.65258 0.10527,-0.34104 0.41681,-0.49259 0.31158,-0.15147 0.65261,-0.0378 0.34101,0.11365 0.49257,0.42524 l 1.6673,3.3345 q 0.15158,0.31157 0.0463,0.65258 -0.10527,0.34103 -0.41681,0.49261 z m -12.126,0 q -0.31155,0.15146 -0.65258,0.0463 -0.34103,-0.10518 -0.4926,-0.41684 l -1.6673,-3.3345 q -0.15158,-0.31157 -0.0379,-0.6526 0.11368,-0.34102 0.42523,-0.4926 0.31155,-0.15146 0.65258,-0.0463 0.34103,0.10517 0.4926,0.41681 l 1.6673,3.3514 q 0.15158,0.31155 0.0379,0.64415 -0.11368,0.3326 -0.42523,0.48418 z m -0.62312,-6.2986 q -2.2314,0 -3.8103,-1.5788 -1.5788,-1.5788 -1.5788,-3.8103 0,-2.0293 1.4146,-3.5955 1.4146,-1.5662 3.5114,-1.7599 0.80837,-1.4231 2.1599,-2.2441 1.35153,-0.821 3.0188,-0.821 2.2904,0 3.8861,1.4526 1.5957,1.4525 1.9494,3.6082 1.9115,0.11801 3.0903,1.381 1.1789,1.2631 1.1789,2.9893 0,1.8104 -1.2757,3.0945 -1.2757,1.2841 -3.103,1.2841 z m 0,-1.6841 h 10.441 q 1.1284,0 1.9115,-0.79154 0.7831,-0.79153 0.7831,-1.903 0,-1.1284 -0.7831,-1.9115 -0.78311,-0.7831 -1.9115,-0.7831 h -1.5157 v -0.84206 q 0,-1.7515 -1.2294,-2.9809 -1.2294,-1.2294 -2.9809,-1.2294 -1.2631,0 -2.3114,0.68207 -1.0484,0.68207 -1.5536,1.8441 l -0.21895,0.50524 h -0.68206 q -1.5241,0.0506 -2.5893,1.1241 -1.0652,1.0736 -1.0652,2.5809 0,1.5326 1.0862,2.6188 1.0862,1.0863 2.6188,1.0863 z"
       id="path6" />
    <path
       d="m57.326 5.7893v-3.8734h1.6841v3.8734zm6.5512 2.7114-1.1704-1.1704 2.7282-2.7703 1.1789 1.2041zm1.5325 5.3723v-1.6841h3.8734v1.6841zm-8.0837 10.273v-3.8734h1.6841v3.8734zm-4.8839-15.679-2.7282-2.703 1.1873-1.1789 2.7367 2.7366zm13.001 13.018-2.7367-2.7535 1.1452-1.1452 2.7788 2.6777zm-18.39-7.6122v-1.6841h3.8734v1.6841zm3.865 7.6122-1.1957-1.1873 2.7114-2.7114 0.61469 0.56418 0.61469 0.58943zm7.2501-2.3914q-2.5262 0-4.2945-1.7683-1.7683-1.7683-1.7683-4.2944t1.7683-4.2945q1.7683-1.7683 4.2945-1.7683 2.5262 0 4.2945 1.7683 1.7683 1.7683 1.7683 4.2945t-1.7683 4.2944q-1.7683 1.7683-4.2945 1.7683zm0-1.6841q1.8188 0 3.0988-1.2799 1.2799-1.2799 1.2799-3.0988t-1.2799-3.0988q-1.2799-1.2799-3.0988-1.2799t-3.0988 1.2799q-1.2799 1.2799-1.2799 3.0988t1.2799 3.0988q1.2799 1.2799 3.0988 1.2799z"
       id="path8" />
    <path
       d="m 12.378849,61.279836 v -8.0837 H 9.3474491 l 10.1049999,-9.0942 4.7155,4.1934 v -2.8462 h 2.3577 v 5.0018 l 3.0314,2.7379 h -3.0314 v 8.0909 h -5.8944 v -6.0628 h -2.3578 v 6.0628 z m 1.6841,-1.6841 h 2.5262 v -6.0628 h 5.7259 v 6.0628 h 2.5262 v -8.37 l -5.3892,-4.8839 -5.3891,4.8839 z m 2.5262,-6.0628 h 5.7259 z m 0.75784,-2.5178 h 4.2102 q 0,-0.82519 -0.63153,-1.3599 -0.63154,-0.5347 -1.4736,-0.5347 -0.84204,0 -1.4736,0.53204 -0.63154,0.53205 -0.63154,1.3626 z"
       id="path10" />
  </g>
  <path
     d="m 86.463227,70.662218 h 2.9182 l 0.42768,-1.6981 h -3.7736 z m 0,0.62892 q -0.21384,0 -0.38231,-0.13233 -0.16846,-0.13232 -0.22461,-0.34251 l -0.46855,-1.8522 h 5.0692 l -0.46856,1.8522 q -0.0562,0.21018 -0.22461,0.34251 -0.16847,0.13233 -0.38231,0.13233 z m -1.3082,-2.956 h 5.5346 v -0.88052 h -5.5346 z m 2.7673,-2.3333 q 0.0314,-0.86163 0.7107,-1.544 0.67924,-0.68239 1.5472,-0.71383 -0.0189,0.79245 -0.60063,1.4371 -0.58175,0.64467 -1.3428,0.78302 v 0.86165 h 3.0818 v 1.5094 q 0,0.25942 -0.18475,0.44417 -0.18474,0.18474 -0.44417,0.18474 h -5.5346 q -0.25943,0 -0.44418,-0.18474 -0.18475,-0.18475 -0.18475,-0.44417 v -1.5094 h 3.0818 v -0.86165 q -0.76101,-0.13835 -1.3396,-0.78302 -0.57863,-0.64464 -0.60378,-1.4371 0.86791,0.0314 1.5503,0.71068 0.68238,0.67925 0.70753,1.5472 z"
     stroke-width="0.0094339"
     id="path14" />
  <path
     d="m 87.929227,63.220218 c 0.0135,-0.37088 0.16649,-0.70319 0.45887,-0.99691 0.29237,-0.29374 0.62536,-0.44737 0.99894,-0.4609 -0.008,0.3411 -0.13738,0.65039 -0.3878,0.92788 -0.25041,0.27749 -0.5394,0.44601 -0.86697,0.50556 v 0.55633 c -0.005,0.51967 -0.38465,0.50299 -0.40608,0 v -0.55633 c -0.32756,-0.0596 -0.61588,-0.22807 -0.86494,-0.50556 -0.24906,-0.27749 -0.379,-0.58678 -0.38983,-0.92788 0.37359,0.0135 0.70724,0.16647 1.001,0.45886 0.29373,0.29238 0.44601,0.62536 0.45684,0.99895 z"
     stroke-width="0.0060911"
     id="path16" />
  <path
     d="m49.04 90.462v-13.659h-7.231l6.548-19.363q0.52224-1.4864 1.8278-2.3099 1.3056-0.82355 2.8723-0.82355 1.5667 0 2.8723 0.82355 1.3056 0.82349 1.8278 2.3099l6.548 19.363h-7.231v13.659zm4.0204-39.128q-1.8712 0-3.207-1.3325-1.3357-1.3326-1.3357-3.2037 0-1.8712 1.3325-3.2069 1.3326-1.3357 3.2037-1.3357 1.8712 0 3.2069 1.3326 1.3357 1.3325 1.3357 3.2037 0 1.8712-1.3325 3.207-1.3326 1.3357-3.2038 1.3357z"
     stroke-width=".060258"
     id="path18" />
  <path
     d="m19.864 90.949-0.56329 0.50072q-0.18776 0.17212-0.4642 0.18776-0.27642 0.0156-0.49548-0.14605-0.21906-0.16167-0.27123-0.42768-0.05215-0.26599 0.02087-0.50069l0.26077-0.8658-0.62588-0.35467q-0.22948-0.13043-0.30512-0.37032-0.07562-0.23992 0.0025-0.49548 0.07824-0.25557 0.28165-0.38858 0.20341-0.13299 0.47985-0.13299h0.71976l0.21906-0.66761q0.08344-0.25557 0.27903-0.43551 0.19559-0.17994 0.46158-0.17994 0.266 0 0.46159 0.17994 0.19559 0.17994 0.27903 0.43551l0.21906 0.66761h0.71976q0.25558 0 0.46681 0.13825 0.21124 0.13823 0.29468 0.38334 0.08866 0.23992 0.01034 0.49027-0.07823 0.25035-0.31294 0.37552l-0.63632 0.35468 0.26079 0.86579q0.08345 0.24513 0.03128 0.50853-0.05215 0.26338-0.27122 0.41985-0.22427 0.15125-0.49809 0.14079-0.27382-0.01-0.46159-0.18254zm0-1.0431q0.266 0 0.44594-0.17994 0.17994-0.17994 0.17994-0.44595 0-0.266-0.17994-0.44594-0.17994-0.17994-0.44594-0.17994-0.26599 0-0.44594 0.17994t-0.17994 0.44594q0 0.26601 0.17994 0.44595t0.44594 0.17994zm-2.8999 6.8638q0.34946 0.87623-0.23992 1.6533-0.58937 0.77715-1.5856 0.77715-0.50592 0-0.93099-0.25035-0.42508-0.25035-0.65456-0.73021-1.1318 0.13569-1.9898-0.71714-0.85797-0.85277-0.76408-1.995-0.46941-0.25556-0.72499-0.74845-0.25556-0.49287-0.25556-0.99357 0-1.0171 0.77974-1.5517 0.77974-0.5346 1.7446-0.11738l0.94925 0.38595q0.28165-0.54766 0.79277-0.8632 0.51114-0.31554 1.1162-0.34683v-1.3248h0.82407v1.4082q0.62066 0.1408 1.0692 0.6285 0.44855 0.48766 0.61023 1.0405h1.3978v0.8345h-1.3248q-0.04175 0.60503-0.34683 1.1162-0.30512 0.51114-0.85276 0.79279zm-3.7031 0.42766q-0.03128-0.42245 0.04435-0.85275 0.07564-0.43029 0.22688-0.83711-0.40161 0.2034-0.83711 0.25817-0.4355 0.0548-0.87362 3e-3 0.02087 0.54764 0.46159 0.98837 0.44073 0.44071 0.97794 0.44071zm-1.1579-2.4513q0.58415 0 1.1761-0.26599 0.59199-0.26602 0.95186-0.4955l-2.1071-0.86581q-0.41203-0.17733-0.83711 0.0287t-0.42508 0.61805q0 0.40682 0.43812 0.69368 0.43812 0.28687 0.80321 0.28687zm3.0355 3.411q0.45376 0 0.72759-0.30513 0.27382-0.30511 0.11735-0.6963l-0.90752-2.3262q-0.28687 0.46941-0.5294 0.97534-0.24252 0.50592-0.24252 1.1631 0 0.38076 0.21123 0.78497 0.21123 0.40422 0.62328 0.40422zm1.0223-3.3693q0.32338-0.20864 0.44855-0.51375 0.12517-0.30513 0.12517-0.64935 0-0.532-0.37553-0.91275-0.37552-0.38074-0.90231-0.38074-0.34424 0-0.66238 0.14603-0.31817 0.14605-0.49028 0.4642l1.3143 0.54243z"
     stroke-width=".015647"
     id="path20" />
</svg>
