<svg width="400" height="400" version="1.1" viewBox="0 0 105.83 105.83" xmlns="http://www.w3.org/2000/svg">
 <rect width="105.49" height="105.49" ry=".13328" fill="#fff"/>
 <path d="m68.272 66.576c-1.0715 0-1.9873-0.37075-2.7472-1.1122-0.7599-0.74148-1.1399-1.6449-1.1399-2.7103v-3.5278c0-0.25483 0.0898-0.47205 0.26942-0.65167 0.17962-0.17961 0.39684-0.26942 0.65167-0.26942h7.1754c0.50968 0 0.94567 0.17654 1.308 0.52962 0.3623 0.3531 0.54344 0.78448 0.54344 1.2942 0 0.54651-0.17654 1.0239-0.52962 1.4323-0.3531 0.40835-0.79369 0.61253-1.3218 0.61253h-0.32238v0.58029c0 1.0654-0.37995 1.9688-1.1398 2.7103-0.75991 0.74149-1.6756 1.1122-2.7472 1.1122zm-2.9659-5.324h5.9319v-2.0264h-5.9319zm2.9659 4.4028c0.81364 0 1.5114-0.28016 2.0932-0.84049 0.58182-0.56033 0.87273-1.2473 0.87273-2.061v-0.58029h-5.9319v0.58029c0 0.81364 0.29092 1.5006 0.87275 2.061 0.58182 0.56032 1.2796 0.84049 2.0932 0.84049zm3.887-4.4028h0.32238c0.27941 0 0.50432-0.11437 0.67472-0.34312 0.1704-0.22873 0.2556-0.48894 0.2556-0.78063 0-0.25483-0.0914-0.46899-0.27404-0.64246-0.18268-0.17348-0.40144-0.26022-0.65628-0.26022h-0.32238zm-32.149 7.0003v-0.92108h33.218v0.92108z" stroke-width=".013816"/>
 <path d="m81.487 90.747v-13.659h-7.231l6.548-19.363q0.52224-1.4864 1.8278-2.3099 1.3056-0.82355 2.8723-0.82355 1.5667 0 2.8723 0.82355 1.3056 0.82349 1.8278 2.3099l6.548 19.363h-7.231v13.659zm4.0204-39.128q-1.8712 0-3.207-1.3325-1.3357-1.3326-1.3357-3.2037 0-1.8712 1.3325-3.2069 1.3326-1.3358 3.2037-1.3358 1.8712 0 3.2069 1.3326 1.3357 1.3325 1.3357 3.2037 0 1.8712-1.3325 3.2069-1.3326 1.3357-3.2038 1.3357z" stroke-width=".060258"/>
 <path d="m15.485 90.563v-16.672h-4.7636v-14.807q0-1.6375 1.166-2.8035 1.1661-1.1661 2.8035-1.1661h9.5271q1.6375 0 2.8035 1.1661 1.1661 1.1661 1.1661 2.8035v14.807h-4.7636v16.672zm3.9727-38.664q-1.849 0-3.169-1.3167-1.3198-1.3168-1.3198-3.1658 0-1.849 1.3167-3.1689 1.3168-1.3199 3.1658-1.3199 1.8491 0 3.169 1.3168 1.3199 1.3167 1.3199 3.1658 0 1.849-1.3167 3.1689-1.3168 1.3199-3.1658 1.3199z" stroke-width=".059544"/>
 <path d="m36.857 66.576q1.6073 0 2.7472-1.1122 1.1398-1.1122 1.1398-2.7103v-3.5278q0-0.38224-0.26942-0.65167-0.26942-0.26942-0.65166-0.26942h-7.1753q-0.76451 0-1.308 0.52962-0.54344 0.52965-0.54344 1.2942 0 0.81976 0.52962 1.4323 0.52964 0.61253 1.3218 0.61253h0.32238v0.58029q0 1.5981 1.1398 2.7103 1.1398 1.1122 2.7472 1.1122zm2.9659-5.324h-5.9318v-2.0264h5.9318zm-2.9659 4.4028q-1.2205 0-2.0932-0.84049-0.87273-0.8405-0.87273-2.061v-0.58029h5.9318v0.58029q0 1.2205-0.87274 2.061-0.87274 0.84049-2.0932 0.84049zm-3.887-4.4028h-0.32238q-0.41911 0-0.67471-0.34312-0.2556-0.34309-0.2556-0.78063 0-0.38225 0.27403-0.64246 0.27402-0.26022 0.65628-0.26022h0.32238zm7.774 7.0003v-0.92108h-8.8425v0.92108z" stroke-width=".013816"/>
 <path d="m52.483 36.842c0.0997 0.25805 0.0655 0.50151-0.10267 0.73038-0.16815 0.22887-0.39432 0.34331-0.67853 0.34331-0.14434 0-0.27715-0.0369-0.39842-0.1106s-0.21464-0.18125-0.28011-0.32257c-0.3229 0.04-0.60674-0.0656-0.85152-0.31681-0.24478-0.25114-0.35377-0.54491-0.32699-0.8813-0.13392-0.0753-0.23734-0.18548-0.31025-0.33064-0.0729-0.14515-0.10937-0.29146-0.10937-0.43892 0-0.29953 0.11123-0.52802 0.33368-0.68546 0.22246-0.15745 0.47133-0.17473 0.74661-0.0519l0.40623 0.1705c0.0803-0.16129 0.19344-0.2884 0.33926-0.38133 0.14583-0.0929 0.30505-0.144 0.47766-0.15322v-0.58524h0.35266v0.6221c0.17707 0.0415 0.3296 0.13402 0.45757 0.27765 0.12797 0.14362 0.21502 0.29684 0.26114 0.45966h0.59819v0.36864h-0.56694c-0.0119 0.17819-0.0614 0.34254-0.14843 0.49307-0.087 0.15054-0.20869 0.26728-0.36493 0.35023zm-1.5847 0.18892c-9e-3 -0.12441-3e-3 -0.24999 0.019-0.37671 0.0216-0.12672 0.0539-0.24999 0.0971-0.3698-0.11458 0.0599-0.23399 0.0979-0.35824 0.11405-0.12424 0.0161-0.24886 0.0166-0.37386 1e-3 6e-3 0.16128 0.0718 0.30682 0.19754 0.43662 0.12573 0.12979 0.26524 0.19469 0.4185 0.19469zm-0.49551-1.0829c0.16666 0 0.33443-0.0392 0.50332-0.11751 0.1689-0.0783 0.30468-0.15131 0.40735-0.21889l-0.90174-0.38248c-0.11755-0.0522-0.23697-0.048-0.35824 0.0127s-0.18191 0.15169-0.18191 0.27303c0 0.11981 0.0625 0.22196 0.18749 0.30644 0.125 0.0845 0.23958 0.12673 0.34374 0.12673zm1.299 1.5069c0.12946 0 0.23324-0.0449 0.31136-0.13479 0.0781-0.0899 0.0949-0.19239 0.0502-0.3076l-0.38837-1.0276c-0.0818 0.13825-0.15737 0.28187-0.22656 0.43087-0.0692 0.149-0.10379 0.32026-0.10379 0.5138 0 0.11214 0.0301 0.22773 0.0904 0.34677 0.0603 0.11905 0.14918 0.17857 0.26674 0.17857zm0.43747-1.4884c0.0923-0.0614 0.15625-0.1371 0.19196-0.22695 0.0357-0.0899 0.0536-0.18549 0.0536-0.28686 0-0.15668-0.0536-0.29108-0.16071-0.40321-0.10713-0.11214-0.23585-0.1682-0.38614-0.1682-0.0982 0-0.1927 0.0215-0.28346 0.0645-0.0908 0.043-0.16071 0.11136-0.20982 0.20506l0.56247 0.23963z" stroke-width=".0068032"/>
 <path d="m78.956 69.715c-0.35494-0.32402-0.73945-0.57556-1.1535-0.75462-0.4141-0.17907-0.84298-0.2686-1.2866-0.2686-0.31057 0-0.61559 0.0469-0.91506 0.1407-0.29948 0.0938-0.58602 0.22596-0.85962 0.3965-0.15528 0.0938-0.30502 0.0895-0.44921-0.0129-0.1442-0.10233-0.21629-0.25154-0.21629-0.44766v-6.1649c0-0.0938 0.0203-0.18333 0.061-0.2686 0.0406-0.0853 0.10165-0.14922 0.18301-0.19185 0.34015-0.20465 0.69508-0.35813 1.0648-0.46045 0.36973-0.10232 0.74685-0.15348 1.1314-0.15348 0.42888 0 0.84852 0.0639 1.2589 0.19185 0.41039 0.12791 0.80415 0.31976 1.1813 0.57556v6.378c0.37712-0.27854 0.77272-0.48745 1.1868-0.62672 0.41409-0.13926 0.83188-0.2089 1.2534-0.2089 0.2662 0 0.54657 0.0284 0.84112 0.0853 0.29455 0.0568 0.5811 0.16486 0.85962 0.32403v-6.3525c0.0857 0.0355 0.16999 0.0728 0.25284 0.11191 0.0828 0.0391 0.16371 0.0842 0.24259 0.13536 0.0764 0.0483 0.13617 0.1142 0.17932 0.19764 0.0431 0.0834 0.0647 0.17103 0.0647 0.26281v6.1649c0 0.19612-0.0721 0.34534-0.2163 0.44766-0.14419 0.10233-0.29393 0.10659-0.44921 0.0129-0.2736-0.17054-0.56014-0.3027-0.85962-0.39649-0.29947-0.0938-0.60449-0.1407-0.91506-0.1407-0.44367 0-0.87255 0.0895-1.2866 0.26859-0.41409 0.17907-0.79861 0.43061-1.1536 0.75462zm-0.73945-1.4623v-5.4316c-0.24894-0.1478-0.52808-0.25795-0.83742-0.33042-0.30934-0.0725-0.59711-0.10872-0.86332-0.10872-0.32289 0-0.6273 0.0384-0.91322 0.11511-0.28592 0.0767-0.54842 0.17916-0.78752 0.30725v5.4484c0.25881-0.13358 0.53056-0.23591 0.81525-0.30697 0.28469-0.0711 0.58109-0.10658 0.88918-0.10658 0.30811 0 0.60328 0.0355 0.88551 0.10658 0.28222 0.0711 0.55274 0.17339 0.81154 0.30697zm0 0v-5.4316z" stroke-width=".011911"/>
 <path d="m27.86 69.801c0.34648-0.34317 0.72184-0.60958 1.1261-0.79923 0.40423-0.18964 0.8229-0.28446 1.256-0.28446 0.30317 0 0.60093 0.0497 0.89327 0.14901 0.29235 0.0993 0.57206 0.23931 0.83915 0.41993 0.15159 0.0993 0.29776 0.0948 0.43851-0.0136 0.14076-0.10837 0.21114-0.26641 0.21114-0.47412v-6.5292c0-0.0993-0.01984-0.19416-0.05952-0.28447-0.03968-0.0903-0.09923-0.15804-0.17865-0.20319-0.33205-0.21674-0.67853-0.3793-1.0394-0.48767-0.36092-0.10837-0.72906-0.16255-1.1044-0.16255-0.41867 0-0.82831 0.0677-1.2289 0.20319-0.40062 0.13547-0.785 0.33866-1.1531 0.60958v6.755c-0.36814-0.295-0.75432-0.51626-1.1586-0.66376-0.40423-0.14749-0.81207-0.22125-1.2235-0.22125-0.25986 0-0.53355 0.0301-0.82108 0.0903-0.28754 0.0602-0.56726 0.17461-0.83916 0.34318v-6.7279c-0.08367 0.0376-0.16594 0.0771-0.24682 0.11852-0.08087 0.0414-0.15981 0.0892-0.23681 0.14337-0.07459 0.0512-0.13294 0.12095-0.17505 0.20932-0.0421 0.0884-0.06315 0.18114-0.06315 0.27834v6.5292c0 0.20771 0.07038 0.36575 0.21114 0.47412 0.14076 0.10837 0.28693 0.11289 0.43852 0.0136 0.26708-0.18062 0.5468-0.3206 0.83914-0.41993 0.29234-0.0993 0.5901-0.14902 0.89327-0.14902 0.43311 0 0.85177 0.0948 1.256 0.28447 0.40423 0.18965 0.77959 0.45606 1.1261 0.79922zm0.72184-1.5488v-5.7526c0.24302-0.15654 0.51551-0.27319 0.81748-0.34996 0.30197-0.0768 0.58289-0.11514 0.84276-0.11514 0.31521 0 0.61236 0.0406 0.89148 0.12192 0.27911 0.0813 0.53536 0.18974 0.76876 0.3254v5.7704c-0.25264-0.14148-0.51792-0.24985-0.79583-0.32511-0.27791-0.0753-0.56725-0.11288-0.86801-0.11288-0.30077 0-0.58891 0.0376-0.86442 0.11288-0.2755 0.0753-0.53958 0.18363-0.79222 0.32511zm0 0v-5.7526z" stroke-width=".012111"/>
 <path d="m18.832 24.711c1.9961 0 3.7019-0.69063 5.1175-2.0719 1.4156-1.3813 2.1234-3.0642 2.1234-5.0489v-6.5717c0-0.47472-0.16729-0.87937-0.50188-1.214-0.33459-0.33459-0.73924-0.50188-1.2139-0.50188h-13.366c-0.94944 0-1.7616 0.32887-2.4365 0.9866-0.67489 0.65776-1.0123 1.4614-1.0123 2.4108 0 1.0181 0.32887 1.9075 0.9866 2.6682 0.65776 0.76069 1.4785 1.141 2.4623 1.141h0.60054v1.081c0 1.9847 0.70779 3.6676 2.1234 5.0489 1.4156 1.3813 3.1214 2.0719 5.1175 2.0719zm5.525-9.9176h-11.05v-3.7749h11.05zm-5.525 8.2018c-1.5157 0-2.8154-0.5219-3.8993-1.5657-1.0838-1.0438-1.6258-2.3235-1.6258-3.8392v-1.081h11.05v1.081c0 1.5157-0.54192 2.7954-1.6258 3.8392-1.0838 1.0438-2.3836 1.5657-3.8993 1.5657zm-7.2409-8.2018h-0.60054c-0.52049 0-0.93945-0.21306-1.2569-0.63917-0.31743-0.42609-0.47614-0.91082-0.47614-1.4542 0-0.47472 0.17016-0.87366 0.51047-1.1968 0.3403-0.32316 0.74782-0.48474 1.2225-0.48474h0.60054z" fill="none" stroke="#5a5a5a" stroke-width=".26379"/>
</svg>
