<?xml version="1.0" encoding="UTF-8" standalone="no"?>
<svg
   xmlns:dc="http://purl.org/dc/elements/1.1/"
   xmlns:cc="http://creativecommons.org/ns#"
   xmlns:rdf="http://www.w3.org/1999/02/22-rdf-syntax-ns#"
   xmlns:svg="http://www.w3.org/2000/svg"
   xmlns="http://www.w3.org/2000/svg"
   xmlns:sodipodi="http://sodipodi.sourceforge.net/DTD/sodipodi-0.dtd"
   xmlns:inkscape="http://www.inkscape.org/namespaces/inkscape"
   width="400"
   height="400"
   version="1.1"
   viewBox="0 0 105.83 105.83"
   id="svg10"
   sodipodi:docname="18.svg"
   inkscape:version="1.0.2 (e86c870879, 2021-01-15)">
  <metadata
     id="metadata16">
    <rdf:RDF>
      <cc:Work
         rdf:about="">
        <dc:format>image/svg+xml</dc:format>
        <dc:type
           rdf:resource="http://purl.org/dc/dcmitype/StillImage" />
      </cc:Work>
    </rdf:RDF>
  </metadata>
  <defs
     id="defs14" />
  <sodipodi:namedview
     pagecolor="#ffffff"
     bordercolor="#666666"
     borderopacity="1"
     objecttolerance="10"
     gridtolerance="10"
     guidetolerance="10"
     inkscape:pageopacity="0"
     inkscape:pageshadow="2"
     inkscape:window-width="1823"
     inkscape:window-height="1116"
     id="namedview12"
     showgrid="false"
     inkscape:zoom="2.0194675"
     inkscape:cx="158.95657"
     inkscape:cy="214.69014"
     inkscape:window-x="0"
     inkscape:window-y="0"
     inkscape:window-maximized="0"
     inkscape:current-layer="svg10"
     inkscape:document-rotation="0" />
  <rect
     width="105.49"
     height="105.49"
     ry="0.13327999"
     fill="#ffffff"
     id="rect2"
     x="0"
     y="0" />
  <path
     d="m 49.039996,90.461998 v -13.659 h -7.231 l 6.548,-19.363 q 0.52224,-1.4864 1.8278,-2.309898 1.3056,-0.82355 2.8723,-0.82355 1.5667,0 2.8723,0.82355 1.3056,0.823488 1.8278,2.309898 l 6.548,19.363 h -7.231 v 13.659 z M 53.060396,51.334 q -1.8712,0 -3.207,-1.3325 -1.3357,-1.3326 -1.3357,-3.2037 0,-1.8712 1.3325,-3.2069 1.3326,-1.3357 3.2037,-1.3357 1.8712,0 3.2069,1.3326 1.3357,1.3325 1.3357,3.2037 0,1.8712 -1.3325,3.207 -1.3326,1.3357 -3.2038,1.3357 z"
     stroke-width="0.060258"
     id="path18" />
  <path
     d="m 30.83736,62.50324 q -1.4061,0 -2.3965,-0.99396 -0.99039,-0.99396 -0.99039,-2.4001 0,-1.40614 0.99396,-2.3965 0.99396,-0.99038 2.4001,-0.99038 1.40614,0 2.3965,0.99396 0.99036,0.99402 0.99036,2.4001 0,1.4061 -0.99396,2.3965 -0.99396,0.99037 -2.4001,0.99037 z m -3.5653,27.481 v -9.2792 h -3.9615 l 4.7288,-13.401 q 0.32117,-0.85654 1.0841,-1.4008 0.76291,-0.54428 1.722,-0.54428 0.95911,0 1.7175,0.54428 0.7584,0.54422 1.0796,1.4008 l 4.7288,13.401 h -3.9615 v 9.2792 z"
     stroke-width="0.053534"
     id="path1974" />
  <path
     d="m 37.887831,70.749806 q -0.263374,0 -0.45685,-0.193466 -0.193461,-0.193457 -0.193461,-0.456847 v -7.283458 q 0,-0.263369 0.193461,-0.456847 0.193468,-0.193466 0.45685,-0.193466 h 4.161864 q 0.263366,0 0.456847,0.193466 0.193459,0.193466 0.193459,0.456847 v 7.283458 q 0,0.263377 -0.193459,0.456847 -0.193469,0.193466 -0.456847,0.193466 z m 0,-0.975439 v 0.325149 h 4.161864 v -0.325149 z m 0,-0.650307 h 4.161864 v -5.332655 h -4.161864 z m 0,-5.982922 h 4.161864 v -0.325149 h -4.161864 z m 0,0 v -0.325149 z m 0,6.63319 v 0.32515 z"
     stroke-width="0.00975474"
     id="path1980" />
  <path
     d="m 35.966082,63.186099 c 2.738199,0.04744 5.676206,0.04689 8.204737,0.0293 l -0.0093,-1.031351 -0.01967,-1.982139 -8.137165,-0.01801 z m 0.206695,0.397392 c -0.138346,0 -0.256782,-0.03429 -0.355296,-0.10283 -0.09852,-0.06856 -0.147778,-0.150989 -0.147778,-0.247265 v -3.080981 c 0,-0.09628 0.04925,-0.178712 0.147778,-0.247265 0.09851,-0.06856 0.21694,-0.102831 0.355296,-0.102831 h 7.904554 c 0.138353,0 0.256784,0.03429 0.355297,0.102831 0.09851,0.06856 0.147775,0.150989 0.147775,0.247265 v 2.170717 l -0.0054,1.254129 -1.805835,0.0063 z m 0.18268,-0.329572 -0.350765,-3.070034 z"
     id="path5697"
     sodipodi:nodetypes="ccccccccsscssssccccccc"
     style="stroke-width:0.00629524" />
  <rect
     style="fill:#f39609;stroke-width:0.169399;stroke-linejoin:round;stroke-dashoffset:7.35;stroke-opacity:0.721569"
     id="rect889"
     width="4.1618643"
     height="5.3326545"
     x="37.887829"
     y="63.791405"
     ry="0.17066886" />
  <path
     d="m 87.179623,63.293088 q -1.4061,0 -2.3965,-0.99396 -0.99039,-0.99396 -0.99039,-2.4001 0,-1.40614 0.99396,-2.3965 0.99396,-0.99038 2.4001,-0.99038 1.40614,0 2.3965,0.99396 0.99036,0.99402 0.99036,2.4001 0,1.4061 -0.99396,2.3965 -0.99396,0.99037 -2.4001,0.99037 z m -3.5653,27.481 v -9.2792 h -3.9615 l 4.7288,-13.401 q 0.32117,-0.85654 1.0841,-1.4008 0.76291,-0.54428 1.722,-0.54428 0.95911,0 1.7175,0.54428 0.7584,0.54422 1.0796,1.4008 l 4.7288,13.401 h -3.9615 v 9.2792 z"
     stroke-width="0.053534"
     id="path1974-3" />
  <path
     d="m 93.327315,73.111643 h 2.9182 l 0.42768,-1.6981 h -3.7736 z m 0,0.62892 q -0.21384,0 -0.38231,-0.13233 -0.16846,-0.13232 -0.22461,-0.34251 l -0.46855,-1.8522 h 5.0692 l -0.46856,1.8522 q -0.0562,0.21018 -0.22461,0.34251 -0.16847,0.13233 -0.38231,0.13233 z m -1.3082,-2.956 h 5.5346 v -0.88052 h -5.5346 z m 2.7673,-2.3333 q 0.0314,-0.86163 0.7107,-1.544 0.67924,-0.68239 1.5472,-0.71383 -0.0189,0.79245 -0.60063,1.4371 -0.58175,0.64467 -1.3428,0.78302 v 0.86165 h 3.0818 v 1.5094 q 0,0.25942 -0.18475,0.44417 -0.18474,0.18474 -0.44417,0.18474 h -5.5346 q -0.25943,0 -0.44418,-0.18474 -0.18475,-0.18475 -0.18475,-0.44417 v -1.5094 h 3.0818 v -0.86165 q -0.76101,-0.13835 -1.3396,-0.78302 -0.57863,-0.64464 -0.60378,-1.4371 0.86791,0.0314 1.5503,0.71068 0.68238,0.67925 0.70753,1.5472 z"
     stroke-width="0.0094339"
     id="path14-6" />
  <rect
     style="fill:#cb8de6;fill-opacity:1;stroke-width:0.348174;stroke-linejoin:round;stroke-dashoffset:7.35"
     id="rect13837"
     width="4.1309872"
     height="5.2930961"
     x="77.665802"
     y="63.782619" />
  <path
     d="m 77.665811,70.6894 q -0.261425,0 -0.453465,-0.192031 -0.192027,-0.192023 -0.192027,-0.453457 v -7.229425 q 0,-0.261415 0.192027,-0.453458 0.19204,-0.192031 0.453465,-0.192031 h 4.130985 q 0.261413,0 0.453466,0.192031 0.192014,0.192031 0.192014,0.453458 v 7.229423 q 0,0.261423 -0.192014,0.453458 -0.19204,0.192031 -0.453466,0.192031 z m 0,-0.968203 v 0.322736 h 4.130985 v -0.322736 z m 0,-0.645482 h 4.130985 v -5.293093 h -4.130985 z m 0,-5.938535 h 4.130985 v -0.322738 h -4.130985 z m 0,0 v -0.322738 z m 0,6.583979 v 0.322737 z"
     stroke-width="0.00968237"
     id="path1980-3" />
  <path
     d="m 76.728012,80.184691 q -0.60897,0 -1.0394,-0.43048 -0.43048,-0.43046 -0.43048,-1.0394 v -5.8796 q 0,-0.60896 0.43048,-1.0394 0.43046,-0.43048 1.0394,-0.43048 h 5.58569 v 6.6146 q -0.28295,0 -0.47221,0.21864 -0.18924,0.21866 -0.18924,0.51631 0,0.29766 0.18924,0.5163 0.18926,0.21866 0.47221,0.21866 v 0.73495 z m -0.73496,-2.745 q 0.1617,-0.0992 0.34544,-0.147 0.18373,-0.0478 0.38952,-0.0478 h 0.29399 v -5.1447 h -0.29399 q -0.30623,0 -0.5206,0.21437 -0.21436,0.21436 -0.21436,0.52059 z m 1.7639,-0.19477 h 3.8218 v -5.1447 h -3.8218 z m -1.7639,0.19477 v -5.3395 z m 0.73159,2.0101 h 4.38 q -0.0882,-0.16169 -0.1378,-0.34726 -0.0496,-0.18559 -0.0496,-0.3877 0,-0.20579 0.0478,-0.38953 0.0478,-0.18373 0.147,-0.34542 h -4.3869 q -0.3058,0 -0.51894,0.21436 -0.21313,0.21436 -0.21313,0.52059 0,0.30868 0.21313,0.52182 0.21314,0.21314 0.51844,0.21314 z"
     id="path2906" />
  <path
     d="m 80.726785,68.202156 q -0.222768,0 -0.378704,-0.156233 -0.155934,-0.156228 -0.155934,-0.379416 0,-0.03124 0.0062,-0.0724 0.0062,-0.04117 0.01841,-0.07408 l -1.364244,-0.792735 q -0.07223,0.07528 -0.172058,0.120608 -0.09989,0.04532 -0.205865,0.04532 -0.22277,0 -0.378703,-0.155934 -0.155937,-0.15594 -0.155937,-0.378702 0,-0.222763 0.155937,-0.378699 0.155933,-0.155935 0.378703,-0.155935 0.105991,0 0.202791,0.04071 0.09679,0.04071 0.175132,0.115994 l 1.364244,-0.786591 q -0.01233,-0.03094 -0.01841,-0.06963 -0.0062,-0.03868 -0.0062,-0.07479 0,-0.222763 0.155934,-0.378702 0.155936,-0.155934 0.378704,-0.155934 0.222758,0 0.378693,0.155934 0.155937,0.155939 0.155937,0.378702 0,0.222762 -0.155937,0.378697 -0.155935,0.155939 -0.378693,0.155939 -0.107084,0 -0.204878,-0.03612 -0.09782,-0.0361 -0.169993,-0.11138 l -1.364235,0.768158 q 0.0093,0.0338 0.01542,0.07758 0.0062,0.04379 0.0062,0.07678 0,0.033 -0.0062,0.06837 -0.0062,0.03536 -0.01542,0.06916 l 1.364235,0.780446 q 0.07223,-0.06606 0.165923,-0.105228 0.09373,-0.03917 0.208948,-0.03917 0.222758,0 0.378693,0.155939 0.155937,0.155934 0.155937,0.378697 0,0.222764 -0.155937,0.378701 -0.155935,0.155935 -0.378693,0.155935 z m 1.03e-4,-2.92513 q 0.09669,0 0.161978,-0.06541 0.06524,-0.06541 0.06524,-0.162078 0,-0.0967 -0.06546,-0.161976 -0.06534,-0.06529 -0.162079,-0.06529 -0.0967,0 -0.161978,0.06539 -0.06525,0.06541 -0.06525,0.162081 0,0.09668 0.06546,0.161977 0.06534,0.06529 0.162079,0.06529 z m -2.252226,1.308937 q 0.0967,0 0.161977,-0.06541 0.06525,-0.06539 0.06525,-0.162077 0,-0.0967 -0.06534,-0.161976 -0.06536,-0.06529 -0.162081,-0.06529 -0.09669,0 -0.161977,0.06541 -0.06524,0.06541 -0.06524,0.162077 0,0.09667 0.06534,0.161976 0.06546,0.06529 0.162081,0.06529 z m 2.252226,1.308935 q 0.09669,0 0.161978,-0.06541 0.06524,-0.06541 0.06524,-0.162082 0,-0.09667 -0.06546,-0.161976 -0.06534,-0.06529 -0.162079,-0.06529 -0.0967,0 -0.161978,0.06541 -0.06525,0.06541 -0.06525,0.162081 0,0.09667 0.06546,0.161971 0.06534,0.06529 0.162079,0.06529 z m -1.03e-4,-2.845244 z m -2.252236,1.308933 z m 2.252236,1.308934 z"
     id="path13943-4"
     style="stroke-width:0.00460896" />
  <path
     d="m 40.009194,67.856952 -0.169953,-0.152955 q -0.379407,-0.346274 -0.627342,-0.597418 -0.247925,-0.251144 -0.394812,-0.449627 -0.146896,-0.198482 -0.20577,-0.36115 -0.05888,-0.162673 -0.05888,-0.330198 0,-0.333 0.223372,-0.556182 0.223368,-0.223181 0.553564,-0.223181 0.20152,0 0.376329,0.09226 0.174813,0.09226 0.303491,0.264645 0.143246,-0.179666 0.314415,-0.268287 0.171165,-0.08862 0.365403,-0.08862 0.330193,0 0.553568,0.223181 0.223366,0.223182 0.223366,0.556182 0,0.167525 -0.05888,0.330198 -0.05887,0.162668 -0.205763,0.36115 -0.146887,0.198483 -0.394819,0.449627 -0.247931,0.251144 -0.627338,0.597418 z m 0,-0.322911 q 0.362335,-0.330183 0.596345,-0.566305 0.234001,-0.236121 0.37118,-0.412756 0.137182,-0.176631 0.191808,-0.314742 0.05463,-0.138115 0.05463,-0.274285 0,-0.23343 -0.150534,-0.385176 -0.150531,-0.151747 -0.383063,-0.151747 -0.182159,0 -0.337178,0.108652 -0.155023,0.108649 -0.238793,0.296813 h -0.211225 q -0.08133,-0.185735 -0.236363,-0.2956 -0.155019,-0.109865 -0.337174,-0.109865 -0.232533,0 -0.383064,0.151747 -0.150534,0.151746 -0.150534,0.385591 0,0.136414 0.05463,0.27541 0.05463,0.139 0.191806,0.316844 0.137182,0.177847 0.372691,0.412749 0.235503,0.2349 0.594839,0.56267 z m 0,-1.052503 z"
     id="path39593-8"
     style="display:inline;stroke-width:0.00364189" />
  <path
     d="m 78.773738,93.3628 1.84112,6.163166 -2.180889,0.224339 -0.877837,-2.938555 c -2.02024,1.622061 -4.338487,2.94571 -6.954514,3.97106 -2.616069,1.0252 -5.481858,1.69819 -8.59745,2.01863 -4.299519,0.44225 -8.305211,0.16607 -12.017079,-0.82862 -3.711853,-0.99459 -6.578771,-2.582761 -8.600699,-4.764582 l 2.383431,-0.245165 c 2.023797,1.758112 4.588644,3.006776 7.694321,3.746127 3.105625,0.73921 6.465575,0.92314 10.079736,0.55142 2.990302,-0.30755 5.74997,-0.97712 8.278836,-2.008637 2.528896,-1.031426 4.741647,-2.385927 6.638415,-4.063276 l -5.950814,0.612063 -0.460277,-1.540806 z"
     id="path9271-6"
     style="display:inline;stroke-width:0.0398804"
     sodipodi:nodetypes="ccccsscccssscccc" />
  <rect
     style="fill:#ffcc00;stroke-width:0.114562;stroke-linejoin:round;stroke-dashoffset:7.35;stroke-opacity:0.721569"
     id="rect889-7"
     width="4.479908"
     height="2.2658243"
     x="31.906544"
     y="75.930992"
     ry="0.072516538"
     transform="rotate(-18.709631)" />
  <path
     d="m 57.372347,62.85275 -0.131555,-0.05659 q -0.294654,-0.129204 -0.492201,-0.228377 -0.197542,-0.09917 -0.32456,-0.187417 -0.127021,-0.08824 -0.194635,-0.17291 -0.06761,-0.08468 -0.101271,-0.184062 -0.0669,-0.197552 0.02077,-0.374835 0.08767,-0.17728 0.283561,-0.243621 0.11955,-0.04049 0.241794,-0.02088 0.122246,0.01959 0.233218,0.09602 0.04888,-0.135366 0.132625,-0.222333 0.08373,-0.08697 0.19897,-0.125994 0.195886,-0.06635 0.373244,0.02119 0.177352,0.08752 0.244257,0.285078 0.03365,0.09938 0.03141,0.207718 -0.0023,0.108331 -0.04951,0.255593 -0.04727,0.147265 -0.143892,0.346068 -0.09663,0.198805 -0.252137,0.48046 z m -0.06488,-0.191565 q 0.148619,-0.268681 0.240005,-0.455777 0.09138,-0.187093 0.137268,-0.319445 0.0459,-0.132344 0.05056,-0.225257 0.0046,-0.09291 -0.0227,-0.173696 -0.0469,-0.138482 -0.166685,-0.198263 -0.11979,-0.05977 -0.257743,-0.01306 -0.108063,0.0366 -0.178201,0.1322 -0.07014,0.09561 -0.08203,0.224062 l -0.125309,0.04244 q -0.08556,-0.09384 -0.199615,-0.127871 -0.114032,-0.03403 -0.222103,0.0026 -0.13795,0.04671 -0.196764,0.166989 -0.05882,0.120272 -0.01183,0.259001 0.02741,0.08093 0.08775,0.15241 0.06033,0.07149 0.177448,0.149432 0.117115,0.07794 0.304028,0.169983 0.186906,0.09204 0.465937,0.214293 z m -0.211465,-0.624399 z"
     id="path39593-8-5"
     style="display:inline;fill:#ffffff;stroke-width:0.0022811" />
</svg>
