<svg width="400" height="400" version="1.1" viewBox="0 0 105.83 105.83" xmlns="http://www.w3.org/2000/svg">
 <rect y="-7.1054e-15" width="105.49" height="105.49" ry=".13328" fill="#fff"/>
 <path d="m63.219 61.149h3.7881l0.55515-2.2043h-4.8984zm0 0.81639q-0.27757 0-0.49626-0.17177-0.21867-0.17178-0.29155-0.44461l-0.60823-2.4043h6.5802l-0.60822 2.4043q-0.0729 0.27283-0.29156 0.44461-0.21868 0.17177-0.49625 0.17177zm-1.6981-3.837h7.1843v-1.143h-7.1843zm3.5921-3.0288q0.0408-1.1184 0.92252-2.0042 0.88171-0.8858 2.0083-0.92661-0.0245 1.0286-0.77966 1.8654-0.75516 0.83682-1.743 1.0164v1.1185h4.0003v1.9593q0 0.33675-0.23982 0.57657-0.23981 0.23981-0.57657 0.23981h-7.1843q-0.33676 0-0.57658-0.23981-0.23981-0.23982-0.23981-0.57657v-1.9593h4.0003v-1.1185q-0.98784-0.17959-1.7389-1.0164-0.75108-0.8368-0.78373-1.8654 1.1266 0.0408 2.0124 0.92252 0.88578 0.88171 0.91844 2.0083z" stroke-width=".012246"/>
 <path d="m65.158 50.22c0.0272-0.74563 0.33472-1.4137 0.92252-2.0042 0.58781-0.59053 1.2572-0.8994 2.0083-0.9266-0.0163 0.68577-0.27621 1.3076-0.77966 1.8654-0.50344 0.55787-1.0844 0.89668-1.743 1.0164v1.1185c-0.0109 1.0448-0.77332 1.0112-0.81639 0v-1.1185c-0.65856-0.11973-1.2382-0.45854-1.7389-1.0164s-0.76197-1.1797-0.78373-1.8654c0.75107 0.0272 1.4219 0.33468 2.0124 0.92251 0.59052 0.58781 0.89666 1.2573 0.91844 2.0083z" stroke-width=".012246"/>
 <path d="m50.035 90.334v-11.115h-5.2003v-18.022q0-2.9772 1.8062-4.7834 1.8062-1.8062 4.7636-1.8062t4.704 2.0047q1.7466 2.0046 1.7466 4.5849 2.7788 0.53591 4.4063 2.6001 1.6276 2.0642 1.6276 4.9819v10.44h-8.5348v11.115zm1.3924-38.664q-1.849 0-3.1689-1.3167-1.3199-1.3168-1.3199-3.1658t1.3168-3.1689q1.3167-1.3199 3.1657-1.3199t3.169 1.3168q1.3199 1.3167 1.3199 3.1657 0 1.849-1.3168 3.169-1.3167 1.3199-3.1658 1.3199z" stroke-width=".059544"/>
 <path d="m21.792 90.359v-16.672h-4.7636v-14.807q0-1.6375 1.166-2.8035 1.1661-1.1661 2.8035-1.1661h9.5271q1.6375 0 2.8035 1.1661 1.1661 1.1661 1.1661 2.8035v14.807h-4.7636v16.672zm3.9727-38.664q-1.849 0-3.169-1.3167-1.3198-1.3168-1.3198-3.1658 0-1.849 1.3167-3.1689 1.3168-1.3199 3.1658-1.3199 1.8491 0 3.169 1.3168 1.3199 1.3167 1.3199 3.1658 0 1.8491-1.3167 3.1689-1.3168 1.3199-3.1658 1.3199z" stroke-width=".059544"/>
 <g stroke-width=".012246">
  <path d="m84.26 90.115h3.7881l0.55515-2.2043h-4.8984zm0 0.81639q-0.27757 0-0.49626-0.17177-0.21867-0.17178-0.29155-0.44461l-0.60823-2.4043h6.5802l-0.60822 2.4043q-0.0729 0.27283-0.29156 0.44461-0.21868 0.17177-0.49625 0.17177zm-1.6981-3.837h7.1843v-1.143h-7.1843zm3.5921-3.0288q0.0408-1.1184 0.92252-2.0042 0.88171-0.88579 2.0083-0.9266-0.0245 1.0286-0.77966 1.8654-0.75516 0.83681-1.743 1.0164v1.1185h4.0003v1.9594q0 0.33675-0.23982 0.57657-0.23981 0.23981-0.57657 0.23981h-7.1843q-0.33676 0-0.57658-0.23981-0.23981-0.23982-0.23981-0.57657v-1.9594h4.0003v-1.1185q-0.98784-0.1796-1.7389-1.0164-0.75108-0.8368-0.78373-1.8654 1.1266 0.0408 2.0124 0.92251 0.88578 0.88172 0.91844 2.0083z"/>
  <path d="m86.198 79.186c0.0272-0.74563 0.33472-1.4137 0.92252-2.0042 0.58781-0.59053 1.2572-0.8994 2.0083-0.9266-0.0163 0.68576-0.27621 1.3076-0.77966 1.8654-0.50344 0.55788-1.0844 0.89669-1.743 1.0164v1.1185c-0.0109 1.0448-0.77332 1.0112-0.81639 0v-1.1185c-0.65856-0.11973-1.2382-0.45854-1.7389-1.0164-0.50072-0.55786-0.76197-1.1797-0.78373-1.8654 0.75107 0.0272 1.4219 0.33468 2.0124 0.92251 0.59052 0.58781 0.89666 1.2572 0.91844 2.0083z"/>
  <path d="m86.323 73.62c0.0272-0.74563 0.33472-1.4137 0.92252-2.0042 0.58781-0.59053 1.2572-0.8994 2.0083-0.92661-0.0163 0.68577-0.27621 1.3076-0.77966 1.8654-0.50344 0.55788-1.0844 0.89668-1.743 1.0164v1.1185c-0.0109 1.0448-0.77332 1.0112-0.81638 0v-1.1185c-0.65856-0.11974-1.2382-0.45854-1.7389-1.0164-0.50072-0.55786-0.76197-1.1797-0.78373-1.8654 0.75107 0.0272 1.4219 0.33469 2.0124 0.92252 0.59052 0.58781 0.89667 1.2572 0.91844 2.0083z"/>
  <path d="m86.432 68.512c0.0272-0.74563 0.33472-1.4137 0.92252-2.0042 0.58781-0.59054 1.2572-0.8994 2.0083-0.92661-0.0163 0.68577-0.27621 1.3076-0.77966 1.8654-0.50344 0.55788-1.0844 0.89668-1.743 1.0164v1.1185c-0.0109 1.0448-0.77332 1.0112-0.81638 0v-1.1185c-0.65856-0.11973-1.2382-0.45853-1.7389-1.0164-0.50072-0.55786-0.76197-1.1797-0.78373-1.8654 0.75107 0.0272 1.4219 0.33469 2.0124 0.92251 0.59052 0.58782 0.89667 1.2573 0.91844 2.0083z"/>
  <path d="m86.541 63.468c0.0272-0.74563 0.33472-1.4137 0.92252-2.0042 0.58781-0.59053 1.2572-0.8994 2.0083-0.92661-0.0163 0.68577-0.27621 1.3076-0.77966 1.8654-0.50344 0.55788-1.0844 0.89668-1.743 1.0164v1.1185c-0.0109 1.0448-0.77332 1.0112-0.81638 0v-1.1185c-0.65856-0.11973-1.2382-0.45853-1.7389-1.0164-0.50072-0.55786-0.76197-1.1797-0.78373-1.8654 0.75107 0.0272 1.4219 0.33469 2.0124 0.92252 0.59052 0.58781 0.89667 1.2572 0.91844 2.0083z"/>
  <path d="m86.639 58.682c0.0272-0.74563 0.33472-1.4137 0.92253-2.0042s1.2572-0.8994 2.0083-0.9266c-0.0163 0.68576-0.2762 1.3076-0.77965 1.8654-0.50344 0.55787-1.0844 0.89668-1.743 1.0164v1.1185c-0.0109 1.0448-0.77332 1.0112-0.81639 0v-1.1185c-0.65856-0.11973-1.2382-0.45854-1.7389-1.0164s-0.76197-1.1797-0.78374-1.8654c0.75108 0.0272 1.4219 0.33468 2.0124 0.92251 0.59052 0.58781 0.89667 1.2573 0.91844 2.0083z"/>
  <path d="m86.705 53.818c0.0272-0.74563 0.33472-1.4137 0.92252-2.0042 0.58781-0.59053 1.2573-0.8994 2.0083-0.92661-0.0163 0.68577-0.2762 1.3076-0.77966 1.8654-0.50343 0.55788-1.0844 0.89668-1.743 1.0164v1.1185c-0.0109 1.0448-0.77332 1.0112-0.81638 0v-1.1185c-0.65856-0.11973-1.2382-0.45853-1.7389-1.0164-0.50072-0.55786-0.76196-1.1797-0.78373-1.8654 0.75107 0.0272 1.4219 0.33469 2.0124 0.92252 0.59052 0.58781 0.89667 1.2573 0.91844 2.0083z"/>
  <path d="m86.825 48.632c0.0272-0.74563 0.33472-1.4137 0.92252-2.0042 0.58781-0.59053 1.2572-0.8994 2.0083-0.9266-0.0163 0.68577-0.27621 1.3076-0.77966 1.8654-0.50344 0.55787-1.0844 0.89668-1.743 1.0164v1.1185c-0.0109 1.0448-0.77332 1.0112-0.81639 0v-1.1185c-0.65856-0.11973-1.2382-0.45854-1.7389-1.0164-0.50072-0.55787-0.76197-1.1797-0.78373-1.8654 0.75107 0.0272 1.4219 0.33468 2.0124 0.92251 0.59052 0.58781 0.89666 1.2573 0.91844 2.0083z"/>
 </g>
</svg>
