<?xml version="1.0" encoding="UTF-8" standalone="no"?>
<svg
   xmlns:dc="http://purl.org/dc/elements/1.1/"
   xmlns:cc="http://creativecommons.org/ns#"
   xmlns:rdf="http://www.w3.org/1999/02/22-rdf-syntax-ns#"
   xmlns:svg="http://www.w3.org/2000/svg"
   xmlns="http://www.w3.org/2000/svg"
   xmlns:sodipodi="http://sodipodi.sourceforge.net/DTD/sodipodi-0.dtd"
   xmlns:inkscape="http://www.inkscape.org/namespaces/inkscape"
   width="400"
   height="400"
   version="1.1"
   viewBox="0 0 105.83 105.83"
   id="svg2522"
   sodipodi:docname="22.svg"
   inkscape:version="1.0.2 (e86c870879, 2021-01-15)">
  <metadata
     id="metadata2528">
    <rdf:RDF>
      <cc:Work
         rdf:about="">
        <dc:format>image/svg+xml</dc:format>
        <dc:type
           rdf:resource="http://purl.org/dc/dcmitype/StillImage" />
      </cc:Work>
    </rdf:RDF>
  </metadata>
  <defs
     id="defs2526" />
  <sodipodi:namedview
     pagecolor="#ffffff"
     bordercolor="#666666"
     borderopacity="1"
     objecttolerance="10"
     gridtolerance="10"
     guidetolerance="10"
     inkscape:pageopacity="0"
     inkscape:pageshadow="2"
     inkscape:window-width="1756"
     inkscape:window-height="935"
     id="namedview2524"
     showgrid="false"
     inkscape:zoom="1.8070291"
     inkscape:cx="220.95797"
     inkscape:cy="267.35353"
     inkscape:window-x="0"
     inkscape:window-y="0"
     inkscape:window-maximized="0"
     inkscape:current-layer="svg2522"
     inkscape:document-rotation="0" />
  <rect
     width="105.49"
     height="105.49"
     ry=".13328"
     fill="#fff"
     id="rect2472" />
  <path
     d="m52.597 52.657q-1.8937 0-3.2455-1.3485-1.3518-1.3486-1.3518-3.2423 0-1.8937 1.3485-3.2456 1.3486-1.3517 3.2423-1.3517 1.8937 0 3.2456 1.3485 1.3518 1.3486 1.3518 3.2423 0 1.8937-1.3485 3.2455-1.3486 1.3518-3.2423 1.3518zm-3.2557 39.314v-20.165q0-2.0327-1.0265-3.659-1.0265-1.6262-2.856-2.4393l2.3784-6.9725q0.48782-1.5246 1.799-2.4394 1.3111-0.91473 2.9577-0.91473t2.9577 0.91473q1.3112 0.91476 1.7991 2.4394l6.2203 18.193h-6.5049v15.043zm-10.367-25.613q-1.5246 0-2.5918-1.0672-1.0672-1.0672-1.0672-2.5918 0-1.5246 1.0672-2.5918 1.0672-1.0672 2.5918-1.0672 1.5246 0 2.5918 1.0672 1.0672 1.0672 1.0672 2.5918 0 1.5246-1.0672 2.5918-1.0672 1.0672-2.5918 1.0672zm-16.869-13.701q-1.8937 0-3.2455-1.3485-1.3518-1.3486-1.3518-3.2423 0-1.8937 1.3485-3.2456 1.3486-1.3517 3.2423-1.3517 1.8938 0 3.2456 1.3485 1.3518 1.3486 1.3518 3.2423 0 1.8937-1.3485 3.2455-1.3486 1.3518-3.2423 1.3518zm-4.4753 39.314v-17.482h-4.0656v-15.043q0-1.677 1.1942-2.8713 1.1942-1.1942 2.8713-1.1942h8.9443q1.677 0 2.8713 1.1942 1.1943 1.1942 1.1943 2.8713v15.043h-4.0656v17.482zm17.888 0v-10.164h-2.8459v-10.001q0-1.2536 0.87749-2.131 0.87748-0.87751 2.131-0.87751h6.5863q1.2535 0 2.131 0.87751 0.87748 0.87743 0.87748 2.131v10.001h-2.8459v10.164z"
     stroke-width=".060984"
     id="path2474" />
  <g
     stroke-width=".012246"
     id="g2492">
    <path
       d="m74.263 90.538h3.7881l0.55515-2.2043h-4.8984zm0 0.81639q-0.27757 0-0.49626-0.17177-0.21867-0.17178-0.29155-0.44461l-0.60823-2.4043h6.5802l-0.60822 2.4043q-0.0729 0.27283-0.29156 0.44461-0.21868 0.17177-0.49625 0.17177zm-1.6981-3.837h7.1843v-1.143h-7.1843zm3.5921-3.0288q0.0408-1.1184 0.92252-2.0042 0.88171-0.8858 2.0083-0.9266-0.0245 1.0287-0.77966 1.8654-0.75516 0.83682-1.743 1.0164v1.1185h4.0003v1.9593q0 0.33675-0.23982 0.57657-0.23981 0.23981-0.57657 0.23981h-7.1843q-0.33676 0-0.57658-0.23981-0.23981-0.23982-0.23981-0.57657v-1.9593h4.0003v-1.1185q-0.98784-0.1796-1.7389-1.0164-0.75108-0.8368-0.78373-1.8654 1.1266 0.04077 2.0124 0.92251 0.88578 0.88172 0.91844 2.0083z"
       id="path2476" />
    <path
       d="m76.201 79.609c0.0272-0.74563 0.33472-1.4137 0.92252-2.0042 0.58781-0.59053 1.2572-0.8994 2.0083-0.9266-0.0163 0.68577-0.27621 1.3076-0.77966 1.8654-0.50344 0.55788-1.0844 0.89668-1.743 1.0164v1.1185c-0.0109 1.0448-0.77332 1.0112-0.81639 0v-1.1185c-0.65856-0.11973-1.2382-0.45853-1.7389-1.0164-0.50072-0.55787-0.76197-1.1797-0.78373-1.8654 0.75107 0.02718 1.4219 0.33468 2.0124 0.92251 0.59052 0.58781 0.89666 1.2573 0.91844 2.0083z"
       id="path2478" />
    <path
       d="m76.326 74.043c0.0272-0.74563 0.33472-1.4137 0.92252-2.0042 0.58781-0.59053 1.2572-0.8994 2.0083-0.9266-0.0163 0.68577-0.27621 1.3076-0.77966 1.8654-0.50344 0.55788-1.0844 0.89668-1.743 1.0164v1.1185c-0.0109 1.0448-0.77332 1.0112-0.81638 0v-1.1185c-0.65856-0.11973-1.2382-0.45853-1.7389-1.0164-0.50072-0.55786-0.76197-1.1797-0.78373-1.8654 0.75107 0.02718 1.4219 0.33468 2.0124 0.92251 0.59052 0.58781 0.89667 1.2573 0.91844 2.0083z"
       id="path2480" />
    <path
       d="m76.435 68.935c0.0272-0.74563 0.33472-1.4137 0.92252-2.0042 0.58781-0.59053 1.2572-0.8994 2.0083-0.9266-0.0163 0.68577-0.27621 1.3076-0.77966 1.8654-0.50344 0.55788-1.0844 0.89668-1.743 1.0164v1.1185c-0.0109 1.0448-0.77332 1.0112-0.81638 0v-1.1185c-0.65856-0.11973-1.2382-0.45853-1.7389-1.0164-0.50072-0.55786-0.76197-1.1797-0.78373-1.8654 0.75107 0.02718 1.4219 0.33468 2.0124 0.92251 0.59052 0.58781 0.89667 1.2573 0.91844 2.0083z"
       id="path2482" />
    <path
       d="m76.544 63.891c0.0272-0.74563 0.33472-1.4137 0.92252-2.0042 0.58781-0.59053 1.2572-0.8994 2.0083-0.9266-0.0163 0.68577-0.27621 1.3076-0.77966 1.8654-0.50344 0.55788-1.0844 0.89668-1.743 1.0164v1.1185c-0.0109 1.0448-0.77332 1.0112-0.81638 0v-1.1185c-0.65856-0.11973-1.2382-0.45853-1.7389-1.0164-0.50072-0.55786-0.76197-1.1797-0.78373-1.8654 0.75107 0.02718 1.4219 0.33468 2.0124 0.92251 0.59052 0.58781 0.89667 1.2573 0.91844 2.0083z"
       id="path2484" />
    <path
       d="m76.642 59.105c0.0272-0.74563 0.33472-1.4137 0.92253-2.0042 0.58781-0.59053 1.2572-0.8994 2.0083-0.9266-0.0163 0.68577-0.2762 1.3076-0.77965 1.8654-0.50344 0.55788-1.0844 0.89668-1.743 1.0164v1.1185c-0.0109 1.0448-0.77332 1.0112-0.81639 0v-1.1185c-0.65856-0.11973-1.2382-0.45853-1.7389-1.0164-0.50072-0.55786-0.76197-1.1797-0.78374-1.8654 0.75108 0.02718 1.4219 0.33468 2.0124 0.92251 0.59052 0.58781 0.89667 1.2573 0.91844 2.0083z"
       id="path2486" />
    <path
       d="m76.708 54.241c0.0272-0.74563 0.33472-1.4137 0.92252-2.0042 0.58781-0.59053 1.2573-0.8994 2.0083-0.9266-0.0163 0.68577-0.2762 1.3076-0.77966 1.8654-0.50343 0.55788-1.0844 0.89668-1.743 1.0164v1.1185c-0.0109 1.0448-0.77332 1.0112-0.81638 0v-1.1185c-0.65856-0.11973-1.2382-0.45853-1.7389-1.0164-0.50072-0.55786-0.76196-1.1797-0.78373-1.8654 0.75107 0.02718 1.4219 0.33468 2.0124 0.92251 0.59052 0.58781 0.89667 1.2573 0.91844 2.0083z"
       id="path2488" />
    <path
       d="m76.827 49.055c0.0272-0.74563 0.33472-1.4137 0.92252-2.0042 0.58781-0.59053 1.2572-0.8994 2.0083-0.9266-0.0163 0.68577-0.27621 1.3076-0.77966 1.8654-0.50344 0.55788-1.0844 0.89668-1.743 1.0164v1.1185c-0.0109 1.0448-0.77332 1.0112-0.81639 0v-1.1185c-0.65856-0.11973-1.2382-0.45853-1.7389-1.0164-0.50072-0.55786-0.76197-1.1797-0.78373-1.8654 0.75107 0.02718 1.4219 0.33468 2.0124 0.92251 0.59052 0.58781 0.89666 1.2573 0.91844 2.0083z"
       id="path2490" />
  </g>
  <g
     stroke-width=".0024055"
     id="g2514">
    <path
       d="m42.188 42.147h0.7441l0.10905-0.43299h-0.9622zm0 0.16036q-0.05453 0-0.09748-0.03374t-0.05727-0.08734l-0.11948-0.47227h1.2926l-0.11947 0.47228q-0.01432 0.05359-0.05727 0.08734-0.04296 0.03374-0.09748 0.03374zm-0.33356-0.75372h1.4112v-0.22452h-1.4112zm0.70561-0.59496q8e-3 -0.2197 0.18121-0.3937 0.1732-0.174 0.3945-0.18201-0.0048 0.20206-0.15315 0.36643-0.14834 0.16438-0.34238 0.19966v0.2197h0.7858v0.38488q0 0.06615-0.04711 0.11326-0.0471 0.0471-0.11326 0.0471h-1.4112q-0.06615 0-0.11326-0.0471-0.0471-0.04711-0.0471-0.11326v-0.38488h0.7858v-0.2197q-0.19404-0.03528-0.34158-0.19966-0.14754-0.16437-0.15395-0.36643 0.2213 8e-3 0.3953 0.18121 0.174 0.1732 0.18041 0.3945z"
       id="path2494" />
    <path
       d="m42.569 40c0.0054-0.14647 0.06575-0.2777 0.18121-0.3937 0.11546-0.116 0.24696-0.17667 0.3945-0.18202-0.0032 0.13471-0.05426 0.25685-0.15315 0.36643-0.09889 0.10958-0.21302 0.17614-0.34238 0.19966v0.2197c-0.0022 0.20523-0.1519 0.19864-0.16036 0v-0.2197c-0.12936-0.02352-0.24322-0.09007-0.34158-0.19966-0.09836-0.10958-0.14968-0.23173-0.15395-0.36643 0.14753 0.0054 0.2793 0.06574 0.3953 0.18121 0.116 0.11546 0.17613 0.24696 0.18041 0.3945z"
       id="path2496" />
    <path
       d="m39.866 42.154h0.7441l0.10905-0.43299h-0.9622zm0 0.16036q-0.05453 0-0.09748-0.03374-0.04296-0.03374-0.05727-0.08734l-0.11948-0.47227h1.2926l-0.11947 0.47228q-0.01432 0.05359-0.05727 0.08734-0.04296 0.03374-0.09748 0.03374zm-0.33356-0.75372h1.4112v-0.22452h-1.4112zm0.70561-0.59496q8e-3 -0.2197 0.18121-0.3937 0.1732-0.174 0.3945-0.18202-0.0048 0.20206-0.15315 0.36643-0.14834 0.16438-0.34238 0.19966v0.2197h0.78579v0.38488q0 0.06615-0.04711 0.11326-0.0471 0.0471-0.11326 0.0471h-1.4112q-0.06615 0-0.11326-0.0471-0.0471-0.04711-0.0471-0.11326v-0.38488h0.78579v-0.2197q-0.19404-0.03528-0.34158-0.19966-0.14754-0.16437-0.15395-0.36643 0.2213 8e-3 0.3953 0.18121 0.174 0.1732 0.18041 0.3945z"
       id="path2498" />
    <path
       d="m40.247 40.007c0.0054-0.14647 0.06575-0.2777 0.18121-0.3937 0.11546-0.116 0.24696-0.17667 0.3945-0.18202-0.0032 0.13471-0.05426 0.25685-0.15315 0.36643-0.09889 0.10958-0.21302 0.17614-0.34238 0.19966v0.2197c-0.0022 0.20523-0.1519 0.19864-0.16036 0v-0.2197c-0.12936-0.02352-0.24322-0.09007-0.34158-0.19966-0.09836-0.10958-0.14968-0.23173-0.15395-0.36643 0.14753 0.0054 0.2793 0.06574 0.3953 0.18121 0.116 0.11546 0.17613 0.24696 0.18041 0.3945z"
       id="path2500" />
    <path
       d="m40.271 38.914c0.0054-0.14647 0.06575-0.2777 0.18121-0.3937 0.11546-0.116 0.24696-0.17667 0.3945-0.18201-0.0032 0.13471-0.05426 0.25685-0.15315 0.36643-0.09889 0.10958-0.21302 0.17614-0.34238 0.19966v0.2197c-0.0022 0.20523-0.1519 0.19864-0.16036 0v-0.2197c-0.12936-0.02352-0.24322-0.09007-0.34158-0.19966-0.09836-0.10958-0.14968-0.23173-0.15395-0.36643 0.14754 0.0054 0.2793 0.06574 0.3953 0.18121 0.116 0.11546 0.17613 0.24696 0.18041 0.3945z"
       id="path2502" />
    <path
       d="m40.293 37.91c0.0054-0.14647 0.06575-0.2777 0.18121-0.3937 0.11546-0.116 0.24696-0.17667 0.3945-0.18202-0.0032 0.13471-0.05426 0.25685-0.15315 0.36643-0.09889 0.10958-0.21302 0.17614-0.34238 0.19966v0.2197c-0.0022 0.20523-0.1519 0.19864-0.16036 0v-0.2197c-0.12936-0.02352-0.24322-0.09007-0.34158-0.19966-0.09836-0.10958-0.14968-0.23173-0.15395-0.36643 0.14753 0.0054 0.2793 0.06574 0.3953 0.18121 0.116 0.11546 0.17614 0.24696 0.18041 0.3945z"
       id="path2504" />
    <path
       d="m40.314 36.92c0.0054-0.14647 0.06575-0.2777 0.18121-0.3937 0.11546-0.116 0.24696-0.17667 0.3945-0.18202-0.0032 0.13471-0.05426 0.25685-0.15315 0.36643-0.09889 0.10958-0.21302 0.17614-0.34238 0.19966v0.2197c-0.0022 0.20523-0.1519 0.19864-0.16036 0v-0.2197c-0.12936-0.02352-0.24322-0.09007-0.34158-0.19966-0.09836-0.10958-0.14968-0.23173-0.15395-0.36643 0.14753 0.0054 0.2793 0.06574 0.3953 0.18121 0.116 0.11546 0.17614 0.24697 0.18041 0.3945z"
       id="path2506" />
    <path
       d="m40.333 35.98c0.0054-0.14646 0.06575-0.2777 0.18121-0.3937 0.11546-0.116 0.24696-0.17667 0.3945-0.18201-0.0032 0.13471-0.05425 0.25685-0.15315 0.36643-0.09889 0.10959-0.21302 0.17614-0.34238 0.19966v0.2197c-0.0022 0.20522-0.1519 0.19864-0.16036 0v-0.2197c-0.12936-0.02352-0.24322-0.09007-0.34158-0.19966-0.09836-0.10958-0.14968-0.23173-0.15395-0.36643 0.14754 0.0054 0.2793 0.06574 0.3953 0.18121 0.116 0.11547 0.17613 0.24697 0.18041 0.3945z"
       id="path2508" />
    <path
       d="m40.346 35.024c0.0054-0.14646 0.06575-0.2777 0.18121-0.3937 0.11546-0.116 0.24697-0.17667 0.3945-0.18201-0.0032 0.13471-0.05425 0.25685-0.15315 0.36643-0.09889 0.10958-0.21302 0.17614-0.34238 0.19966v0.2197c-0.0022 0.20523-0.1519 0.19864-0.16036 0v-0.2197c-0.12936-0.02352-0.24322-0.09007-0.34158-0.19966-0.09836-0.10958-0.14967-0.23173-0.15395-0.36643 0.14753 0.0054 0.2793 0.06574 0.3953 0.18121 0.116 0.11546 0.17614 0.24696 0.18041 0.3945z"
       id="path2510" />
    <path
       d="m40.37 34.005c0.0054-0.14647 0.06575-0.2777 0.18121-0.3937 0.11546-0.116 0.24696-0.17667 0.3945-0.18202-0.0032 0.13471-0.05426 0.25685-0.15315 0.36643-0.09889 0.10958-0.21302 0.17614-0.34238 0.19966v0.2197c-0.0022 0.20523-0.1519 0.19864-0.16036 0v-0.2197c-0.12936-0.02352-0.24322-0.09007-0.34158-0.19966-0.09836-0.10958-0.14968-0.23173-0.15395-0.36643 0.14753 0.0054 0.2793 0.06574 0.3953 0.18121 0.116 0.11546 0.17613 0.24696 0.18041 0.3945z"
       id="path2512" />
  </g>
  <path
     d="M 68.391,8.732 V 4.8586 h 1.6841 V 8.732 Z M 74.9422,11.4434 73.7718,10.273 76.5,7.5027 77.6789,8.7068 Z m 1.5325,5.3723 v -1.6841 h 3.8734 v 1.6841 z m -8.0837,10.273 v -3.8734 h 1.6841 v 3.8734 z m -4.8839,-15.679 -2.7282,-2.703 1.1873,-1.1789 2.7367,2.7366 z m 13.001,13.018 -2.7367,-2.7535 1.1452,-1.1452 2.7788,2.6777 z m -18.39,-7.6122 v -1.6841 h 3.8734 v 1.6841 z m 3.865,7.6122 -1.1957,-1.1873 2.7114,-2.7114 0.61469,0.56418 0.61469,0.58943 z m 7.2501,-2.3914 q -2.5262,0 -4.2945,-1.7683 -1.7683,-1.7683 -1.7683,-4.2944 0,-2.5261 1.7683,-4.2945 1.7683,-1.7683 4.2945,-1.7683 2.5262,0 4.2945,1.7683 1.7683,1.7683 1.7683,4.2945 0,2.5262 -1.7683,4.2944 -1.7683,1.7683 -4.2945,1.7683 z m 0,-1.6841 q 1.8188,0 3.0988,-1.2799 1.2799,-1.2799 1.2799,-3.0988 0,-1.8189 -1.2799,-3.0988 -1.2799,-1.2799 -3.0988,-1.2799 -1.8189,0 -3.0988,1.2799 -1.2799,1.2799 -1.2799,3.0988 0,1.8189 1.2799,3.0988 1.2799,1.2799 3.0988,1.2799 z"
     stroke-width="0.025262"
     id="path2516" />
  <path
     d="m20.857 42.314v-8.0837h-3.0314l10.105-9.0942 4.7155 4.1934v-2.8462h2.3577v5.0018l3.0314 2.7379h-3.0314v8.0909h-5.8944v-6.0628h-2.3578v6.0628zm1.6841-1.6841h2.5262v-6.0628h5.7259v6.0628h2.5262v-8.37l-5.3892-4.8839-5.3891 4.8839zm2.5262-6.0628h5.7259zm0.75784-2.5178h4.2102q0-0.82519-0.63153-1.3599-0.63154-0.5347-1.4736-0.5347-0.84204 0-1.4736 0.53204-0.63154 0.53205-0.63154 1.3626z"
     stroke-width=".025262"
     id="path2518" />
  <path
     d="m66.325 65.132q0.59596 0.12518 0.92874 0.63495 0.3328 0.50976 0.20763 1.1057l-1.2086 5.7541q-0.12518 0.59596-0.63495 0.92874-0.50976 0.3328-1.1057 0.20763l-5.4664-1.1482 1.3597-6.4733q0.27692 0.05816 0.50706-0.11691 0.23016-0.17508 0.29135-0.46638 0.06119-0.2913-0.07908-0.54418-0.14025-0.25289-0.41717-0.31105l0.15108-0.71926zm0.155 2.8375q-0.17864 0.06388-0.36828 0.07285-0.18963 9e-3 -0.39102-0.03332l-0.28771-0.06043-1.0575 5.0348 0.28771 0.06043q0.29969 0.06295 0.55354-0.10278 0.25385-0.16571 0.3168-0.46541zm-1.7663-0.17198-3.7402-0.7856-1.0575 5.0348 3.7402 0.7856zm1.7663 0.17198-1.0976 5.2254zm-0.30277-2.1176-4.2865-0.90035q0.05307 0.17637 0.06348 0.36818 0.0104 0.19182-0.03114 0.38961-0.0423 0.2014-0.12682 0.3714-0.08452 0.16999-0.21486 0.30783l4.2932 0.90176q0.29926 0.06286 0.55191-0.10312 0.25266-0.16597 0.3156-0.46566 0.06345-0.30209-0.10133-0.55448-0.16477-0.2524-0.46356-0.31516z"
     stroke-width=".011024"
     id="path2520" />
  <path
     style="color:#000000;font-style:normal;font-variant:normal;font-weight:normal;font-stretch:normal;font-size:medium;line-height:normal;font-family:sans-serif;font-variant-ligatures:normal;font-variant-position:normal;font-variant-caps:normal;font-variant-numeric:normal;font-variant-alternates:normal;font-variant-east-asian:normal;font-feature-settings:normal;font-variation-settings:normal;text-indent:0;text-align:start;text-decoration:none;text-decoration-line:none;text-decoration-style:solid;text-decoration-color:#000000;letter-spacing:normal;word-spacing:normal;text-transform:none;writing-mode:lr-tb;direction:ltr;text-orientation:mixed;dominant-baseline:auto;baseline-shift:baseline;text-anchor:start;white-space:normal;shape-padding:0;shape-margin:0;inline-size:0;clip-rule:nonzero;display:inline;overflow:visible;visibility:visible;isolation:auto;mix-blend-mode:normal;color-interpolation:sRGB;color-interpolation-filters:linearRGB;solid-color:#000000;solid-opacity:1;vector-effect:none;fill:#f39609;fill-opacity:1;fill-rule:nonzero;stroke:#ffffff;stroke-width:0.183346;stroke-linecap:butt;stroke-linejoin:miter;stroke-miterlimit:4;stroke-dasharray:none;stroke-dashoffset:0;stroke-opacity:1;color-rendering:auto;image-rendering:auto;shape-rendering:auto;text-rendering:auto;enable-background:accumulate;stop-color:#000000"
     d="m 55.757438,68.137111 c -0.368298,0.0024 -0.69756,0.127986 -0.895201,0.375606 -0.197614,0.24761 -0.240258,0.56019 -0.219084,0.870149 0.04081,0.598793 0.32814,1.281002 0.66982,1.96566 -0.588383,1.286118 -1.372637,2.77605 -1.89054,4.156688 l 0.651051,0.244148 c 0.438061,-1.167785 1.100409,-2.463342 1.671442,-3.67466 0.599138,1.018169 1.320871,2.147205 1.320871,2.147205 l 0.563413,-0.406909 c 0,0 -0.875757,-1.261984 -1.539983,-2.497766 0.03972,-0.08982 0.09431,-0.200635 0.131472,-0.287961 0.304508,-0.715211 0.527241,-1.328142 0.538375,-1.859242 0.0054,-0.265554 -0.04662,-0.533191 -0.231638,-0.738689 -0.185088,-0.205501 -0.470017,-0.296263 -0.769998,-0.294225 z m 0.0068,0.694868 c 0.176981,-0.0012 0.226043,0.03556 0.250392,0.0626 0.02432,0.02704 0.05351,0.09995 0.05013,0.262922 -0.0054,0.245729 -0.186142,0.733123 -0.363083,1.208193 -0.142228,-0.368054 -0.346368,-0.788039 -0.363082,-1.032909 -0.01432,-0.209891 0.02311,-0.330708 0.06891,-0.388125 0.04581,-0.05741 0.121339,-0.111082 0.356827,-0.112677 z"
     id="path1827" />
</svg>
