<?xml version="1.0" encoding="UTF-8" standalone="no"?>
<svg
   xmlns:dc="http://purl.org/dc/elements/1.1/"
   xmlns:cc="http://creativecommons.org/ns#"
   xmlns:rdf="http://www.w3.org/1999/02/22-rdf-syntax-ns#"
   xmlns:svg="http://www.w3.org/2000/svg"
   xmlns="http://www.w3.org/2000/svg"
   xmlns:sodipodi="http://sodipodi.sourceforge.net/DTD/sodipodi-0.dtd"
   xmlns:inkscape="http://www.inkscape.org/namespaces/inkscape"
   width="400"
   height="400"
   version="1.1"
   viewBox="0 0 105.83 105.83"
   id="svg66"
   sodipodi:docname="23.svg"
   inkscape:version="1.0.2 (e86c870879, 2021-01-15)">
  <metadata
     id="metadata72">
    <rdf:RDF>
      <cc:Work
         rdf:about="">
        <dc:format>image/svg+xml</dc:format>
        <dc:type
           rdf:resource="http://purl.org/dc/dcmitype/StillImage" />
      </cc:Work>
    </rdf:RDF>
  </metadata>
  <defs
     id="defs70" />
  <sodipodi:namedview
     pagecolor="#ffffff"
     bordercolor="#666666"
     borderopacity="1"
     objecttolerance="10"
     gridtolerance="10"
     guidetolerance="10"
     inkscape:pageopacity="0"
     inkscape:pageshadow="2"
     inkscape:window-width="1680"
     inkscape:window-height="1005"
     id="namedview68"
     showgrid="false"
     inkscape:zoom="4.1604872"
     inkscape:cx="276.0545"
     inkscape:cy="201.79717"
     inkscape:window-x="0"
     inkscape:window-y="0"
     inkscape:window-maximized="0"
     inkscape:current-layer="svg66"
     inkscape:document-rotation="0" />
  <rect
     width="105.49"
     height="105.49"
     ry=".13328"
     fill="#fff"
     id="rect2" />
  <path
     d="m42.109 59.843c0.97912 0 1.8182-0.34862 2.5171-1.0458 0.69892-0.69731 1.0484-1.5355 1.0484-2.5146 0-0.97913-0.34862-1.8182-1.0459-2.5171-0.69728-0.69889-1.5355-1.0483-2.5146-1.0483-0.97914 0-1.8182 0.34862-2.5171 1.0458-0.69891 0.69726-1.0484 1.5355-1.0484 2.5146s0.34862 1.8182 1.0459 2.5171c0.69728 0.69892 1.5355 1.0484 2.5146 1.0484zm2.525 30.49v-15.639c0-1.051 0.26538-1.9969 0.79614-2.8378 0.53075-0.8408 1.2691-1.4714 2.215-1.8918l-1.8446-5.4076c-0.25222-0.78829-0.7173-1.4189-1.3952-1.8919-0.67791-0.47295-1.4425-0.70943-2.2939-0.70943s-1.616 0.23648-2.2939 0.70943c-0.67793 0.47297-1.143 1.1036-1.3953 1.8919l-4.8242 14.11h5.045v11.666zm21.123-30.49c0.97913 0 1.8182-0.34862 2.5171-1.0458 0.69893-0.69731 1.0484-1.5355 1.0484-2.5146 0-0.97913-0.34862-1.8182-1.0459-2.5171-0.69729-0.69889-1.5355-1.0483-2.5146-1.0483-0.97915 0-1.8182 0.34862-2.5171 1.0458-0.69891 0.69726-1.0484 1.5355-1.0484 2.5146s0.34862 1.8182 1.0459 2.5171c0.69728 0.69892 1.5355 1.0484 2.5146 1.0484zm3.4709 30.49v-13.558h3.1531v-11.666c0-0.8671-0.30873-1.6094-0.92621-2.2269-0.61747-0.61747-1.3598-0.92621-2.2268-0.92621h-6.9369c-0.86709 0-1.6094 0.30874-2.2268 0.92621-0.61748 0.61748-0.92622 1.3598-0.92622 2.2269v11.666h3.1531v13.558z"
     stroke-width=".047296"
     id="path4" />
  <path
     d="m33.859 78.04q-0.60896 0-1.0394-0.43048-0.43048-0.43047-0.43048-1.0394v-5.8796q0-0.60896 0.43048-1.0394 0.43047-0.43048 1.0394-0.43048h5.5856v6.6146q-0.28296 0-0.4722 0.21864-0.18926 0.21866-0.18926 0.51631 0 0.29766 0.18926 0.5163 0.18924 0.21866 0.4722 0.21866v0.73495zm-0.73496-2.745q0.16169-0.0992 0.34543-0.147t0.38953-0.0478h0.29398v-5.1447h-0.29398q-0.30624 0-0.52059 0.21437-0.21437 0.21436-0.21437 0.52059zm1.7639-0.19477h3.8218v-5.1447h-3.8218zm-1.7639 0.19477v-5.3395zm0.73158 2.0101h4.38q-0.0882-0.16169-0.13781-0.34726-0.0496-0.18559-0.0496-0.3877 0-0.20579 0.0478-0.38953 0.0478-0.18373 0.147-0.34542h-4.3869q-0.30579 0-0.51893 0.21436t-0.21314 0.52059q0 0.30868 0.21314 0.52182t0.51844 0.21314z"
     stroke-width=".011024"
     id="path6" />
  <path
     d="m95.989 42.643q0.27537-0.0935 0.51664-0.0223t0.30722 0.26546l0.63671 1.8754q0.0659 0.19424-0.0821 0.39763-0.14804 0.20339-0.42341 0.29688l-2.5258 0.85751-0.7163-2.1098q0.12795-0.0434 0.18984-0.14223 0.0619-0.0988 0.0297-0.19374-0.0322-0.0949-0.1415-0.13563-0.10925-0.0407-0.2372 3e-3l-0.0796-0.23443zm0.6296 0.76275q-0.0624 0.0565-0.14028 0.0999-0.0779 0.0434-0.17097 0.075l-0.13293 0.0451 0.55712 1.641 0.13294-0.0451q0.13847-0.047 0.21219-0.1483 0.0737-0.10128 0.0406-0.19896zm-0.77651 0.33292-1.7282 0.58672 0.55712 1.641 1.7282-0.58672zm0.77651-0.33292 0.57822 1.7031zm-0.54848-0.52884-1.9806 0.67242q0.0574 0.038 0.0999 0.0896t0.0644 0.11605q0.0223 0.0656 0.0206 0.13159-2e-3 0.0659-0.0291 0.13275l1.9837-0.67348q0.13827-0.0469 0.21144-0.14804 0.0732-0.1011 0.04-0.19878-0.0334-0.0985-0.15289-0.13372-0.11946-0.0353-0.25751 0.0116z"
     stroke-width=".0044215"
     id="path8" />
  <path
     d="m20.857 42.314v-8.0837h-3.0314l10.105-9.0942 4.7155 4.1934v-2.8462h2.3577v5.0018l3.0314 2.7379h-3.0314v8.0909h-5.8944v-6.0628h-2.3578v6.0628zm1.6841-1.6841h2.5262v-6.0628h5.7259v6.0628h2.5262v-8.37l-5.3892-4.8839-5.3891 4.8839zm2.5262-6.0628h5.7259zm0.75784-2.5178h4.2102q0-0.82519-0.63153-1.3599-0.63154-0.5347-1.4736-0.5347-0.84204 0-1.4736 0.53204-0.63154 0.53205-0.63154 1.3626z"
     stroke-width=".025262"
     id="path10" />
  <g
     stroke-width=".0024055"
     id="g24">
    <path
       d="m40.27 42.025h0.7441l0.10905-0.43299h-0.9622zm0 0.16036q-0.05453 0-0.09748-0.0337t-0.05727-0.0873l-0.11948-0.47227h1.2926l-0.11947 0.47228q-0.01432 0.0536-0.05727 0.0873-0.04296 0.0337-0.09748 0.0337zm-0.33356-0.75372h1.4112v-0.22451h-1.4112zm0.70561-0.59496q8e-3 -0.2197 0.18121-0.3937 0.1732-0.17399 0.3945-0.18201-0.0048 0.20206-0.15315 0.36643-0.14834 0.16438-0.34238 0.19966v0.2197h0.7858v0.38488q0 0.0661-0.04711 0.11326-0.0471 0.0471-0.11326 0.0471h-1.4112q-0.06615 0-0.11326-0.0471-0.0471-0.0471-0.0471-0.11326v-0.38488h0.7858v-0.2197q-0.19404-0.0353-0.34158-0.19966-0.14754-0.16437-0.15395-0.36643 0.2213 8e-3 0.3953 0.18121 0.174 0.1732 0.18041 0.3945z"
       id="path12" />
    <path
       d="m40.651 39.878c0.0054-0.14646 0.06575-0.2777 0.18121-0.3937 0.11546-0.116 0.24696-0.17667 0.3945-0.18201-0.0032 0.13471-0.05426 0.25685-0.15315 0.36643-0.09889 0.10959-0.21302 0.17614-0.34238 0.19966v0.2197c-0.0022 0.20523-0.1519 0.19864-0.16036 0v-0.2197c-0.12936-0.0235-0.24322-0.0901-0.34158-0.19966-0.09836-0.10958-0.14968-0.23172-0.15395-0.36643 0.14753 5e-3 0.2793 0.0657 0.3953 0.18121 0.116 0.11546 0.17613 0.24697 0.18041 0.3945z"
       id="path14" />
    <path
       d="m37.948 42.032h0.7441l0.10905-0.433h-0.9622zm0 0.16036q-0.05453 0-0.09748-0.0337-0.04296-0.0337-0.05727-0.0873l-0.11948-0.47227h1.2926l-0.11947 0.47228q-0.01432 0.0536-0.05727 0.0873-0.04296 0.0337-0.09748 0.0337zm-0.33356-0.75372h1.4112v-0.22451h-1.4112zm0.70561-0.59496q8e-3 -0.2197 0.18121-0.3937 0.1732-0.17399 0.3945-0.18201-0.0048 0.20206-0.15315 0.36643-0.14834 0.16438-0.34238 0.19966v0.2197h0.78579v0.38488q0 0.0662-0.04711 0.11326-0.0471 0.0471-0.11326 0.0471h-1.4112q-0.06615 0-0.11326-0.0471-0.0471-0.0471-0.0471-0.11326v-0.38488h0.78579v-0.2197q-0.19404-0.0353-0.34158-0.19966-0.14754-0.16437-0.15395-0.36643 0.2213 8e-3 0.3953 0.18121 0.174 0.1732 0.18041 0.3945z"
       id="path16" />
    <path
       d="m38.328 39.885c0.0054-0.14646 0.06575-0.2777 0.18121-0.3937 0.11546-0.11599 0.24696-0.17667 0.3945-0.18201-0.0032 0.13471-0.05426 0.25685-0.15315 0.36643-0.09889 0.10959-0.21302 0.17614-0.34238 0.19966v0.2197c-0.0022 0.20523-0.1519 0.19864-0.16036 0v-0.2197c-0.12936-0.0235-0.24322-0.0901-0.34158-0.19966-0.09836-0.10958-0.14968-0.23172-0.15395-0.36643 0.14753 5e-3 0.2793 0.0657 0.3953 0.18121 0.116 0.11547 0.17613 0.24697 0.18041 0.3945z"
       id="path18" />
    <path
       d="m38.353 38.792c0.0054-0.14647 0.06575-0.2777 0.18121-0.3937 0.11546-0.116 0.24696-0.17667 0.3945-0.18201-0.0032 0.1347-0.05426 0.25685-0.15315 0.36643s-0.21302 0.17614-0.34238 0.19965v0.21971c-0.0022 0.20522-0.1519 0.19864-0.16036 0v-0.21971c-0.12936-0.0235-0.24322-0.0901-0.34158-0.19965-0.09836-0.10958-0.14968-0.23173-0.15395-0.36643 0.14754 5e-3 0.2793 0.0657 0.3953 0.18121 0.116 0.11546 0.17613 0.24696 0.18041 0.3945z"
       id="path20" />
    <path
       d="m42.533 42.026h0.7441l0.10905-0.43299h-0.9622zm0 0.16036q-0.05453 0-0.09748-0.0337t-0.05727-0.0873l-0.11948-0.47227h1.2926l-0.11947 0.47228q-0.01432 0.0536-0.05727 0.0873-0.04296 0.0337-0.09748 0.0337zm-0.33356-0.75372h1.4112v-0.22451h-1.4112zm0.70561-0.59495q8e-3 -0.21971 0.18121-0.3937 0.1732-0.174 0.3945-0.18202-0.0048 0.20206-0.15315 0.36644-0.14834 0.16437-0.34238 0.19965v0.21971h0.7858v0.38487q0 0.0661-0.04711 0.11326-0.0471 0.0471-0.11326 0.0471h-1.4112q-0.06615 0-0.11326-0.0471-0.0471-0.0471-0.0471-0.11326v-0.38487h0.7858v-0.21971q-0.19404-0.0353-0.34158-0.19965-0.14754-0.16438-0.15395-0.36644 0.2213 8e-3 0.3953 0.18121 0.174 0.1732 0.18041 0.39451z"
       id="path22" />
  </g>
  <path
     d="m96.9 60.62 1.5913-1.1935-2.6853-3.5804h3.1826q-0.11935-2.0588-0.77079-4.7092-0.65142-2.6505-1.646-5.0275-0.99457-2.3869-2.2228-4.0031-1.2283-1.6161-2.5212-1.6161-0.9249 0-1.4172 0.64645-0.49231 0.64648-1.1586 1.999-0.71607 1.452-1.7504 2.3074-1.0344 0.85533-2.4268 1.3327-0.24864-0.15913-0.45749-0.21867-0.20885-0.0598-0.45748-0.0598-0.70614 0-1.2631 0.547-0.55695 0.54702-0.55695 1.2432v12.332h0.99453v-12.332q0-0.31827 0.23869-0.55695 0.23867-0.2387 0.55695-0.2387 0.31827 0 0.55696 0.2387 0.23868 0.23871 0.23868 0.55695v1.094h0.99454v-0.84536q1.273-0.44751 2.5659-1.4172 1.2929-0.96968 1.9593-2.1433l0.96474 3.5108-2.9041 7.0514v5.0822h1.9891v-4.7738h2.8245zm-6.5441-21.204q0.92494 0 1.5863-0.6614 0.66139-0.66135 0.66139-1.5863 0-0.19892-0.11936-0.6763 0.3083-0.12938 0.4923-0.40281 0.18401-0.27348 0.18401-0.61164 0-0.46744-0.32325-0.79066-0.32321-0.32323-0.79066-0.32323-0.33814 0-0.61162 0.18404-0.27352 0.18403-0.4028 0.4923-0.15913-0.0595-0.33816-0.0897-0.17903-0.0298-0.33814-0.0298-0.92493 0-1.5863 0.66138-0.66136 0.66136-0.66136 1.5863 0 0.92492 0.66136 1.5863 0.66138 0.6614 1.5863 0.6614z"
     stroke-width=".029836"
     id="path26" />
  <g
     stroke-width=".012246"
     id="g40">
    <path
       d="m21.275 89.601h3.7881l0.55515-2.2043h-4.8984zm0 0.81639q-0.27757 0-0.49626-0.17177-0.21867-0.17178-0.29155-0.44461l-0.60823-2.4043h6.5802l-0.60822 2.4043q-0.0729 0.27283-0.29156 0.44461-0.21868 0.17177-0.49625 0.17177zm-1.6981-3.8371h7.1843v-1.143h-7.1843zm3.5921-3.0288q0.0408-1.1184 0.92252-2.0042 0.88171-0.8858 2.0083-0.92661-0.0245 1.0287-0.77966 1.8654-0.75516 0.83682-1.743 1.0164v1.1185h4.0003v1.9593q0 0.33675-0.23982 0.57657-0.23981 0.23981-0.57657 0.23981h-7.1843q-0.33676 0-0.57658-0.23981-0.23981-0.23982-0.23981-0.57657v-1.9593h4.0003v-1.1185q-0.98784-0.17959-1.7389-1.0164-0.75108-0.83679-0.78373-1.8654 1.1266 0.0408 2.0124 0.92252 0.88578 0.88172 0.91844 2.0083z"
       id="path28" />
    <path
       d="m23.213 78.672c0.0272-0.74564 0.33472-1.4137 0.92252-2.0042 0.58781-0.59053 1.2572-0.89939 2.0083-0.9266-0.0163 0.68577-0.27621 1.3076-0.77966 1.8654-0.50344 0.55788-1.0844 0.89668-1.743 1.0164v1.1185c-0.0109 1.0448-0.77332 1.0112-0.81639 0v-1.1185c-0.65856-0.11973-1.2382-0.45853-1.7389-1.0164-0.50072-0.55787-0.76197-1.1797-0.78373-1.8654 0.75107 0.0272 1.4219 0.33468 2.0124 0.92251 0.59052 0.58782 0.89666 1.2573 0.91844 2.0083z"
       id="path30" />
    <path
       d="m23.338 73.106c0.0272-0.74564 0.33472-1.4137 0.92252-2.0042 0.58781-0.59053 1.2572-0.8994 2.0083-0.9266-0.0163 0.68577-0.27621 1.3076-0.77966 1.8654-0.50344 0.55788-1.0844 0.89668-1.743 1.0164v1.1185c-0.0109 1.0448-0.77332 1.0112-0.81638 0v-1.1185c-0.65856-0.11973-1.2382-0.45853-1.7389-1.0164-0.50072-0.55787-0.76197-1.1797-0.78373-1.8654 0.75107 0.0272 1.4219 0.33468 2.0124 0.92251 0.59052 0.58782 0.89667 1.2573 0.91844 2.0083z"
       id="path32" />
    <path
       d="m23.447 67.998c0.0272-0.74563 0.33472-1.4137 0.92252-2.0042 0.58781-0.59053 1.2572-0.8994 2.0083-0.9266-0.0163 0.68576-0.27621 1.3076-0.77966 1.8654-0.50344 0.55787-1.0844 0.89668-1.743 1.0164v1.1185c-0.0109 1.0448-0.77332 1.0112-0.81638 0v-1.1185c-0.65856-0.11973-1.2382-0.45854-1.7389-1.0164s-0.76197-1.1797-0.78373-1.8654c0.75107 0.0272 1.4219 0.33468 2.0124 0.92251 0.59052 0.58781 0.89667 1.2573 0.91844 2.0083z"
       id="path34" />
    <path
       d="m23.556 62.954c0.0272-0.74563 0.33472-1.4137 0.92252-2.0042 0.58781-0.59053 1.2572-0.8994 2.0083-0.9266-0.0163 0.68577-0.27621 1.3076-0.77966 1.8654-0.50344 0.55787-1.0844 0.89668-1.743 1.0164v1.1185c-0.0109 1.0448-0.77332 1.0112-0.81638 0v-1.1185c-0.65856-0.11973-1.2382-0.45854-1.7389-1.0164s-0.76197-1.1797-0.78373-1.8654c0.75107 0.0272 1.4219 0.33468 2.0124 0.92251 0.59052 0.58782 0.89667 1.2573 0.91844 2.0083z"
       id="path36" />
    <path
       d="m23.654 58.168c0.0272-0.74564 0.33472-1.4137 0.92253-2.0042s1.2572-0.89939 2.0083-0.9266c-0.0163 0.68577-0.2762 1.3076-0.77965 1.8654-0.50344 0.55788-1.0844 0.89668-1.743 1.0164v1.1185c-0.0109 1.0448-0.77332 1.0112-0.81639 0v-1.1185c-0.65856-0.11973-1.2382-0.45853-1.7389-1.0164-0.50072-0.55786-0.76197-1.1797-0.78374-1.8654 0.75108 0.0272 1.4219 0.33469 2.0124 0.92251 0.59052 0.58782 0.89667 1.2573 0.91844 2.0083z"
       id="path38" />
  </g>
  <path
     d="m88.158 73.271-0.21628 0.19534q-0.0721 0.0671-0.17825 0.0732-0.10615 6e-3 -0.19024-0.057-0.0841-0.0631-0.10415-0.16683-0.0199-0.10378 8e-3 -0.19535l0.10013-0.33778-0.24031-0.13838q-0.0881-0.0509-0.11715-0.14447-0.029-0.0936 7.7e-4 -0.19333 0.03-0.0997 0.10814-0.1516 0.0781-0.0519 0.18427-0.0519h0.27636l0.0841-0.26047q0.032-0.0997 0.10713-0.1699 0.0751-0.0702 0.17725-0.0702 0.10211 0 0.17724 0.0702 0.0751 0.0702 0.10713 0.1699l0.0841 0.26047h0.27637q0.0981 0 0.17923 0.0539 0.0811 0.0539 0.11315 0.14956 0.0341 0.0936 4e-3 0.19128-0.03 0.0977-0.12016 0.14652l-0.24432 0.13838 0.10013 0.33778q0.032 0.0956 0.0123 0.1984-0.0199 0.10277-0.10414 0.1638-0.0861 0.059-0.19126 0.0549-0.10515-4e-3 -0.17725-0.0712zm0-0.40696q0.10212 0 0.17123-0.0702 0.0691-0.0702 0.0691-0.17397t-0.0691-0.17398q-0.0691-0.0702-0.17123-0.0702-0.10211 0-0.17122 0.0702-0.0691 0.0702-0.0691 0.17398 0 0.10379 0.0691 0.17397 0.0691 0.0702 0.17122 0.0702zm-1.1135 2.6778q0.13417 0.34186-0.0921 0.64504-0.22629 0.3032-0.60879 0.3032-0.19425 0-0.35747-0.0977t-0.25133-0.28488q-0.43457 0.0529-0.76401-0.27979-0.32943-0.3327-0.29338-0.77833-0.18023-0.0997-0.27837-0.292-0.0981-0.1923-0.0981-0.38763 0-0.3968 0.29939-0.60537 0.29939-0.20858 0.66988-0.0458l0.36448 0.15058q0.10814-0.21367 0.3044-0.33677 0.19625-0.12309 0.42857-0.1353v-0.51684h0.31641v0.5494q0.23831 0.0549 0.41054 0.24521 0.17223 0.19025 0.23431 0.40595h0.5367v0.32557h-0.50867q-0.016 0.23605-0.13318 0.43545-0.11717 0.19941-0.32743 0.3093zm-1.4219 0.16685q-0.0123-0.1648 0.0171-0.33269 0.029-0.16787 0.0871-0.3266-0.15421 0.0794-0.32142 0.10073-0.16723 0.0213-0.33544 1e-3 8e-3 0.21366 0.17724 0.3856 0.16922 0.17193 0.3755 0.17193zm-0.44458-0.95637q0.22429 0 0.45159-0.10377 0.2273-0.10379 0.36548-0.19333l-0.80907-0.33778q-0.15822-0.0692-0.32142 0.0113-0.16322 0.0804-0.16322 0.24112 0 0.15872 0.16824 0.27063 0.16823 0.11193 0.3084 0.11193zm1.1655 1.3308q0.17421 0 0.27936-0.11906 0.10515-0.11902 0.045-0.27166l-0.34846-0.90754q-0.11014 0.18311-0.20326 0.38052-0.0931 0.19738-0.0931 0.45376 0 0.14855 0.0811 0.30625 0.0811 0.15772 0.23932 0.15772zm0.39251-1.3145q0.12417-0.0814 0.17223-0.20046 0.0481-0.11904 0.0481-0.25333 0-0.20756-0.14419-0.3561-0.1442-0.14854-0.34646-0.14854-0.13216 0-0.25434 0.057-0.12216 0.057-0.18823 0.18111l0.50466 0.21162z"
     stroke-width=".006056"
     id="path42" />
  <g
     stroke-width=".012246"
     id="g62">
    <path
       d="m7.7183 89.603h3.7881l0.55515-2.2043h-4.8984zm0 0.81639q-0.27757 0-0.49626-0.17177-0.21867-0.17178-0.29155-0.44461l-0.60823-2.4043h6.5802l-0.60822 2.4043q-0.0729 0.27283-0.29156 0.44461-0.21868 0.17177-0.49625 0.17177zm-1.6981-3.837h7.1843v-1.143h-7.1843zm3.5921-3.0288q0.0408-1.1184 0.92252-2.0042 0.88171-0.88579 2.0083-0.9266-0.0245 1.0286-0.77966 1.8654-0.75516 0.83681-1.743 1.0164v1.1185h4.0003v1.9594q0 0.33675-0.23982 0.57657-0.23981 0.23981-0.57657 0.23981h-7.1843q-0.33676 0-0.57658-0.23981-0.23981-0.23982-0.23981-0.57657v-1.9594h4.0003v-1.1185q-0.98784-0.1796-1.7389-1.0164-0.75108-0.8368-0.78373-1.8654 1.1266 0.0408 2.0124 0.92251 0.88578 0.88172 0.91844 2.0083z"
       id="path44" />
    <path
       d="m9.6566 78.674c0.0272-0.74563 0.33472-1.4137 0.92252-2.0042 0.58781-0.59053 1.2572-0.8994 2.0083-0.92661-0.0163 0.68577-0.27621 1.3076-0.77966 1.8654-0.50344 0.55788-1.0844 0.89668-1.743 1.0164v1.1185c-0.0109 1.0448-0.77332 1.0112-0.81639 0v-1.1185c-0.65856-0.11973-1.2382-0.45853-1.7389-1.0164-0.50072-0.55786-0.76197-1.1797-0.78373-1.8654 0.75107 0.0272 1.4219 0.33469 2.0124 0.92252 0.59052 0.58781 0.89666 1.2572 0.91844 2.0083z"
       id="path46" />
    <path
       d="m9.7817 73.108c0.0272-0.74563 0.33472-1.4137 0.92252-2.0042 0.58781-0.59053 1.2572-0.8994 2.0083-0.92661-0.0163 0.68577-0.27621 1.3076-0.77966 1.8654-0.50344 0.55788-1.0844 0.89668-1.743 1.0164v1.1185c-0.0109 1.0448-0.77332 1.0112-0.81638 0v-1.1185c-0.65856-0.11973-1.2382-0.45853-1.7389-1.0164-0.50072-0.55786-0.76197-1.1797-0.78373-1.8654 0.75107 0.0272 1.4219 0.33469 2.0124 0.92252 0.59052 0.58781 0.89667 1.2572 0.91844 2.0083z"
       id="path48" />
    <path
       d="m9.8906 68c0.0272-0.74564 0.33472-1.4137 0.92252-2.0042 0.58781-0.59054 1.2572-0.8994 2.0083-0.92661-0.0163 0.68577-0.27621 1.3076-0.77966 1.8654-0.50344 0.55788-1.0844 0.89668-1.743 1.0164v1.1185c-0.0109 1.0448-0.77332 1.0112-0.81638 0v-1.1185c-0.65856-0.11973-1.2382-0.45853-1.7389-1.0164-0.50072-0.55787-0.76197-1.1797-0.78373-1.8654 0.75107 0.0272 1.4219 0.33468 2.0124 0.92251 0.59052 0.58782 0.89667 1.2573 0.91844 2.0083z"
       id="path50" />
    <path
       d="m9.9998 62.956c0.0272-0.74564 0.33472-1.4137 0.92252-2.0042 0.58781-0.59054 1.2572-0.8994 2.0083-0.92661-0.0163 0.68577-0.27621 1.3076-0.77966 1.8654-0.50344 0.55788-1.0844 0.89668-1.743 1.0164v1.1185c-0.0109 1.0448-0.77332 1.0112-0.81638 0v-1.1185c-0.65856-0.11973-1.2382-0.45853-1.7389-1.0164-0.50072-0.55786-0.76197-1.1797-0.78373-1.8654 0.75107 0.0272 1.4219 0.33469 2.0124 0.92252 0.59052 0.58781 0.89667 1.2572 0.91844 2.0083z"
       id="path52" />
    <path
       d="m10.097 58.17c0.0272-0.74563 0.33472-1.4137 0.92253-2.0042s1.2572-0.8994 2.0083-0.9266c-0.0163 0.68576-0.2762 1.3076-0.77965 1.8654-0.50344 0.55788-1.0844 0.89669-1.743 1.0164v1.1185c-0.0109 1.0448-0.77332 1.0112-0.81639 0v-1.1185c-0.65856-0.11972-1.2382-0.45853-1.7389-1.0164-0.50072-0.55786-0.76197-1.1797-0.78374-1.8654 0.75108 0.0272 1.4219 0.33468 2.0124 0.92251 0.59052 0.58781 0.89667 1.2573 0.91844 2.0083z"
       id="path54" />
    <path
       d="m10.133 53.682c0.0272-0.74563 0.33472-1.4137 0.92252-2.0042 0.58781-0.59053 1.2572-0.8994 2.0083-0.9266-0.0163 0.68576-0.27621 1.3076-0.77966 1.8654-0.50344 0.55787-1.0844 0.89668-1.743 1.0164v1.1185c-0.0109 1.0448-0.77332 1.0112-0.81638 0v-1.1185c-0.65856-0.11973-1.2382-0.45854-1.7389-1.0164s-0.76197-1.1797-0.78373-1.8654c0.75107 0.0272 1.4219 0.33468 2.0124 0.92251 0.59052 0.58781 0.89667 1.2573 0.91844 2.0083z"
       id="path56" />
    <path
       d="m10.243 48.638c0.0272-0.74563 0.33472-1.4137 0.92252-2.0042 0.58781-0.59053 1.2572-0.8994 2.0083-0.9266-0.0163 0.68577-0.27621 1.3076-0.77966 1.8654-0.50344 0.55788-1.0844 0.89668-1.743 1.0164v1.1185c-0.0109 1.0448-0.77332 1.0112-0.81638 0v-1.1185c-0.65856-0.11973-1.2382-0.45853-1.7389-1.0164-0.50072-0.55787-0.76197-1.1797-0.78373-1.8654 0.75107 0.0272 1.4219 0.33468 2.0124 0.92251 0.59052 0.58782 0.89667 1.2573 0.91844 2.0083z"
       id="path58" />
    <path
       d="m10.34 43.852c0.0272-0.74564 0.33472-1.4137 0.92253-2.0042s1.2572-0.89939 2.0083-0.9266c-0.0163 0.68577-0.2762 1.3076-0.77965 1.8654-0.50344 0.55788-1.0844 0.89668-1.743 1.0164v1.1185c-0.0109 1.0448-0.77332 1.0112-0.81639 0v-1.1185c-0.65856-0.11973-1.2382-0.45853-1.7389-1.0164-0.50072-0.55786-0.76197-1.1797-0.78374-1.8654 0.75108 0.0272 1.4219 0.33469 2.0124 0.92252 0.59052 0.58781 0.89667 1.2572 0.91844 2.0083z"
       id="path60" />
  </g>
  <path
     d="m52.697 64.871q-1.4061 0-2.3965-0.99396-0.99039-0.99396-0.99039-2.4001t0.99396-2.3965 2.4001-0.99037 2.3965 0.99396q0.99036 0.99401 0.99036 2.4001 0 1.4061-0.99396 2.3965-0.99396 0.99037-2.4001 0.99037zm-3.5653 27.481v-9.2792h-3.9615l4.7288-13.401q0.32117-0.85654 1.0841-1.4008 0.76291-0.54428 1.722-0.54428 0.95911 0 1.7175 0.54428 0.7584 0.54422 1.0796 1.4008l4.7288 13.401h-3.9615v9.2792z"
     stroke-width=".053534"
     id="path64" />
  <ellipse
     style="fill:#e54ee5;fill-opacity:1;stroke:#ffffff;stroke-width:0.264575;stroke-linejoin:round;stroke-miterlimit:4;stroke-dasharray:none;stroke-dashoffset:7.35;stroke-opacity:1"
     id="path906"
     cx="55.276779"
     cy="57.812134"
     rx="1.1233549"
     ry="1.0992681" />
  <path
     style="color:#000000;font-style:normal;font-variant:normal;font-weight:normal;font-stretch:normal;font-size:medium;line-height:normal;font-family:sans-serif;font-variant-ligatures:normal;font-variant-position:normal;font-variant-caps:normal;font-variant-numeric:normal;font-variant-alternates:normal;font-variant-east-asian:normal;font-feature-settings:normal;font-variation-settings:normal;text-indent:0;text-align:start;text-decoration:none;text-decoration-line:none;text-decoration-style:solid;text-decoration-color:#000000;letter-spacing:normal;word-spacing:normal;text-transform:none;writing-mode:lr-tb;direction:ltr;text-orientation:mixed;dominant-baseline:auto;baseline-shift:baseline;text-anchor:start;white-space:normal;shape-padding:0;shape-margin:0;inline-size:0;clip-rule:nonzero;display:inline;overflow:visible;visibility:visible;isolation:auto;mix-blend-mode:normal;color-interpolation:sRGB;color-interpolation-filters:linearRGB;solid-color:#000000;solid-opacity:1;vector-effect:none;fill:#f39609;fill-opacity:1;fill-rule:nonzero;stroke:#ffffff;stroke-width:0.099122;stroke-linecap:butt;stroke-linejoin:miter;stroke-miterlimit:4;stroke-dasharray:none;stroke-dashoffset:0;stroke-opacity:1;color-rendering:auto;image-rendering:auto;shape-rendering:auto;text-rendering:auto;enable-background:accumulate;stop-color:#000000"
     d="m 91.098837,34.38802 c -0.151495,0.129212 -0.243984,0.295764 -0.239536,0.466988 0.0045,0.171217 0.09562,0.315354 0.21228,0.436196 0.225351,0.233457 0.581658,0.415648 0.961329,0.579905 0.204329,0.73681 0.398587,1.62611 0.664971,2.377484 l 0.354289,-0.125645 c -0.225316,-0.635535 -0.402335,-1.401997 -0.587804,-2.101827 0.602262,0.212589 1.293826,0.428364 1.293826,0.428364 l 0.0914,-0.364441 c 0,0 -0.801553,-0.217151 -1.506487,-0.497099 -0.01484,-0.05098 -0.03085,-0.115808 -0.04586,-0.164878 -0.123012,-0.401844 -0.24425,-0.732909 -0.424526,-0.956467 -0.09015,-0.111772 -0.204863,-0.204345 -0.352956,-0.224918 -0.148096,-0.02057 -0.297547,0.04107 -0.420922,0.146336 z m 0.244459,0.285262 c 0.07279,-0.0621 0.10588,-0.06398 0.125365,-0.06127 0.01947,0.0027 0.05692,0.02272 0.112238,0.09132 0.08336,0.103478 0.178211,0.368045 0.270395,0.62615 -0.186953,-0.102732 -0.417594,-0.205392 -0.509749,-0.300861 -0.07898,-0.08184 -0.105576,-0.144828 -0.106622,-0.184519 -10e-4,-0.0397 0.01151,-0.08818 0.108374,-0.170821 z"
     id="path1827-3" />
</svg>
