<?xml version="1.0" encoding="UTF-8" standalone="no"?>
<svg
   xmlns:dc="http://purl.org/dc/elements/1.1/"
   xmlns:cc="http://creativecommons.org/ns#"
   xmlns:rdf="http://www.w3.org/1999/02/22-rdf-syntax-ns#"
   xmlns:svg="http://www.w3.org/2000/svg"
   xmlns="http://www.w3.org/2000/svg"
   xmlns:sodipodi="http://sodipodi.sourceforge.net/DTD/sodipodi-0.dtd"
   xmlns:inkscape="http://www.inkscape.org/namespaces/inkscape"
   width="400"
   height="400"
   version="1.1"
   viewBox="0 0 105.83 105.83"
   id="svg124"
   sodipodi:docname="25.svg"
   inkscape:version="1.0.2 (e86c870879, 2021-01-15)">
  <metadata
     id="metadata130">
    <rdf:RDF>
      <cc:Work
         rdf:about="">
        <dc:format>image/svg+xml</dc:format>
        <dc:type
           rdf:resource="http://purl.org/dc/dcmitype/StillImage" />
        <dc:title />
      </cc:Work>
    </rdf:RDF>
  </metadata>
  <defs
     id="defs128">
    <rect
       x="48.314682"
       y="118.70039"
       width="5.1178628"
       height="6.738535"
       id="rect2659" />
    <rect
       x="51.872375"
       y="121.02551"
       width="40.407597"
       height="28.556362"
       id="rect927" />
  </defs>
  <sodipodi:namedview
     pagecolor="#ffffff"
     bordercolor="#666666"
     borderopacity="1"
     objecttolerance="10"
     gridtolerance="10"
     guidetolerance="10"
     inkscape:pageopacity="0"
     inkscape:pageshadow="2"
     inkscape:window-width="1685"
     inkscape:window-height="1037"
     id="namedview126"
     showgrid="false"
     inkscape:zoom="1.111741"
     inkscape:cx="358.34793"
     inkscape:cy="217.55516"
     inkscape:window-x="119"
     inkscape:window-y="57"
     inkscape:window-maximized="0"
     inkscape:current-layer="svg124"
     inkscape:document-rotation="0"
     showguides="true"
     inkscape:guide-bbox="true" />
  <rect
     style="fill:#ffffff;stroke-width:0.00370405;stroke-dashoffset:7.35"
     id="rect857"
     width="105.83001"
     height="105.83"
     x="0"
     y="0" />
  <path
     d="m 9.9491915,52.271155 q -0.150665,0 -0.259063,-0.108399 -0.108399,-0.108409 -0.108399,-0.262734 0,-0.154335 0.108399,-0.259063 0.108398,-0.104728 0.259063,-0.104728 h 0.4409575 v -2.86624 H 9.8756945 q -0.150654,0 -0.259063,-0.108399 -0.108399,-0.108398 -0.108399,-0.262734 0,-0.154335 0.108399,-0.259063 0.108409,-0.104727 0.259063,-0.104727 H 10.390149 V 45.068827 H 9.9491915 q -0.150665,0 -0.259063,-0.108399 -0.108399,-0.108398 -0.108399,-0.262734 0,-0.154335 0.108399,-0.259063 0.108398,-0.104727 0.259063,-0.104727 h 7.0553335 q 0.156177,0 0.261819,0.105642 0.105643,0.105654 0.105643,0.261819 0,0.150665 -0.105643,0.259063 -0.105642,0.108399 -0.261819,0.108399 h -0.440958 v 2.866241 h 0.514455 q 0.156166,0 0.261819,0.105642 0.105643,0.105643 0.105643,0.261819 0,0.150665 -0.105643,0.259063 -0.105653,0.108399 -0.261819,0.108399 h -0.514455 v 2.86624 h 0.440958 q 0.156177,0 0.261819,0.105643 0.105643,0.105643 0.105643,0.261819 0,0.150654 -0.105643,0.259063 -0.105642,0.108399 -0.261819,0.108399 z m 1.1758805,-0.734924 h 4.703572 v -2.86624 q -0.150665,0 -0.259063,-0.108399 -0.108399,-0.108398 -0.108399,-0.262734 0,-0.154335 0.108399,-0.259063 0.108398,-0.104727 0.259063,-0.104727 v -2.866241 h -4.703572 v 2.866241 q 0.156177,0 0.261819,0.105642 0.105643,0.105643 0.105643,0.261819 0,0.150665 -0.105643,0.259063 -0.105642,0.108399 -0.261819,0.108399 z m 2.352646,-1.565413 q 0.520937,0 0.884728,-0.359326 0.363791,-0.359337 0.363791,-0.869691 0,-0.4062 -0.233333,-0.692823 -0.233345,-0.286623 -1.016046,-1.194259 -0.782701,0.896612 -1.016046,1.188747 -0.233333,0.292135 -0.233333,0.698335 0,0.510354 0.364651,0.869691 0.364661,0.359326 0.885588,0.359326 z m -2.352646,1.565413 v -6.467404 z"
     id="path915"
     style="stroke-width:0.011024" />
  <path
     d="m 40.952698,57.340104 0.293318,-0.688512 4.266728,1.81782 -1.020428,2.395203 3.338573,1.428013 -0.498164,-1.237686 0.691424,-0.278305 0.965668,2.399286 -2.399171,0.965663 -0.275525,-0.684504 1.210007,-0.487037 -4.024347,-1.714496 1.020429,-2.395204 z"
     stroke-width="0.0111804"
     id="path4"
     style="fill:#008000" />
  <path
     d="m 43.656222,68.431439 v -1.890584 l 1.121012,-1.121011 h -3.798026 q -0.677607,0 -1.175332,-0.497737 -0.497735,-0.497747 -0.497735,-1.175332 V 52.03457 q 0,-0.677608 0.497735,-1.175336 0.497744,-0.497744 1.175332,-0.497744 h 16.731881 q 0.677604,0 1.175329,0.497744 0.497748,0.497739 0.497748,1.175336 v 11.712205 q 0,0.677608 -0.497748,1.175332 -0.497747,0.497737 -1.175329,0.497737 h -3.814694 l 1.137678,1.121011 v 1.890584 z M 40.979208,63.746764 H 57.711089 V 52.034558 H 40.979208 Z m 0,0 V 52.034558 Z"
     stroke-width="0.0250964"
     id="path8" />
  <path
     d="m 51.473676,61.839201 -0.718724,-0.208606 1.292706,-4.454076 2.500292,0.72566 1.017175,-3.485891 -1.168985,0.643045 -0.359255,-0.653047 2.266075,-1.246506 1.246506,2.266073 -0.646508,0.355646 -0.628691,-1.142851 -1.219269,4.201004 -2.500288,-0.725663 z"
     stroke-width="0.0111804"
     id="path10"
     style="fill:#800000" />
  <g
     transform="matrix(0.24115399,-0.36640125,0.234506,0.65919295,36.114495,5.339968)"
     style="white-space:pre;shape-inside:url(#rect26725);fill:#1a1a1a"
     aria-label="$$$$"
     id="g20">
    <path
       d="M 7.2088,65.218 Q 6.62672,65.207417 6.0764,65.12275 5.52607,65.0275 5.1874,64.86875 v -0.89958 q 0.35983,0.16933 0.92075,0.29633 0.56091,0.127 1.1007,0.13758 v -2.1378 q -1.0477,-0.28575 -1.5346,-0.71966 -0.48683,-0.43392 -0.48683,-1.1853 0,-0.78316 0.53975,-1.2277 0.55033,-0.4445 1.4817,-0.49742 V 57.70387 H 7.8862 v 0.92075 q 0.56091,0.01058 1.016,0.127 0.46567,0.10583 0.84666,0.26458 L 9.46311,59.79936 Q 9.12444,59.66178 8.7117,59.56653 8.30953,59.4607 7.8862,59.42895 v 2.1272 q 0.6985,0.20108 1.1642,0.43392 0.46567,0.22225 0.6985,0.56091 0.24342,0.32808 0.24342,0.85725 0,0.74083 -0.55033,1.2065 -0.55033,0.45508 -1.5557,0.56092 v 1.1747 H 7.20896 Z m 0,-5.7679 q -0.5715,0.04233 -0.84666,0.26458 -0.26458,0.22225 -0.26458,0.5715 0,0.42333 0.23283,0.65616 0.24342,0.22225 0.87841,0.381 z m 0.67733,4.9001 q 0.62441,-0.0635 0.91016,-0.28575 0.28575,-0.23283 0.28575,-0.59266 0,-0.40216 -0.254,-0.60325 -0.254,-0.21167 -0.94191,-0.381 z"
       id="path12"
       style="fill:#1a1a1a" />
    <path
       d="m 13.262,65.218 q -0.58208,-0.01058 -1.1324,-0.09525 -0.55033,-0.09525 -0.889,-0.254 v -0.89958 q 0.35983,0.16933 0.92075,0.29633 0.56092,0.127 1.1007,0.13758 v -2.1378 q -1.0477,-0.28575 -1.5346,-0.71966 -0.4869,-0.43391 -0.48683,-1.1853 0,-0.78316 0.53975,-1.2277 0.55033,-0.4445 1.4817,-0.49742 v -0.93133 h 0.67733 v 0.92075 q 0.56092,0.01058 1.016,0.127 0.46567,0.10583 0.84666,0.26458 l -0.28575,0.78316 Q 15.17765,59.66178 14.7649,59.56653 14.36274,59.4607 13.9394,59.42895 v 2.1272 q 0.6985,0.20108 1.1642,0.43392 0.46566,0.22225 0.6985,0.56091 0.24342,0.32808 0.24342,0.85725 0,0.74083 -0.55033,1.2065 -0.55033,0.45508 -1.5557,0.56092 v 1.1747 h -0.67733 z m 0,-5.7679 q -0.5715,0.04233 -0.84666,0.26458 -0.26458,0.22225 -0.26458,0.5715 0,0.42333 0.23283,0.65616 0.24342,0.22225 0.87841,0.381 z m 0.67733,4.9001 q 0.62441,-0.0635 0.91016,-0.28575 0.28575,-0.23283 0.28575,-0.59266 0,-0.40216 -0.254,-0.60325 -0.254,-0.21167 -0.94191,-0.381 z"
       id="path14"
       style="fill:#1a1a1a" />
    <path
       d="m 19.316,65.218 q -0.58208,-0.01058 -1.1324,-0.09525 -0.55033,-0.09525 -0.889,-0.254 v -0.89958 q 0.35983,0.16933 0.92075,0.29633 0.56092,0.127 1.1007,0.13758 v -2.1378 q -1.0477,-0.28575 -1.5346,-0.71966 -0.4869,-0.43391 -0.48683,-1.1853 0,-0.78316 0.53975,-1.2277 0.55033,-0.4445 1.4817,-0.49742 v -0.93133 h 0.67733 v 0.92075 q 0.56092,0.01058 1.016,0.127 0.46566,0.10583 0.84666,0.26458 l -0.28575,0.78316 Q 21.23165,59.66178 20.8189,59.56653 20.41673,59.4607 19.9934,59.42895 v 2.1272 q 0.6985,0.20108 1.1642,0.43392 0.46567,0.22225 0.6985,0.56091 0.24342,0.32808 0.24342,0.85725 0,0.74083 -0.55033,1.2065 -0.55033,0.45508 -1.5557,0.56092 v 1.1747 h -0.67733 z m 0,-5.7679 q -0.5715,0.04233 -0.84666,0.26458 -0.26458,0.22225 -0.26458,0.5715 0,0.42333 0.23283,0.65616 0.24342,0.22225 0.87841,0.381 z m 0.67733,4.9001 q 0.62442,-0.0635 0.91016,-0.28575 0.28575,-0.23283 0.28575,-0.59266 0,-0.40216 -0.254,-0.60325 -0.254,-0.21167 -0.94191,-0.381 z"
       id="path16"
       style="fill:#1a1a1a" />
    <path
       d="m 25.37,65.218 q -0.58208,-0.01058 -1.1324,-0.09525 -0.55033,-0.09525 -0.889,-0.254 v -0.89958 q 0.35983,0.16933 0.92075,0.29633 0.56092,0.127 1.1007,0.13758 v -2.1378 q -1.0477,-0.28575 -1.5346,-0.71966 -0.48683,-0.43392 -0.48683,-1.1853 0,-0.78316 0.53975,-1.2277 0.55033,-0.4445 1.4817,-0.49742 v -0.93133 h 0.67733 v 0.92075 q 0.56092,0.01058 1.016,0.127 0.46566,0.10583 0.84666,0.26458 l -0.28575,0.78316 Q 27.28564,59.66178 26.8729,59.56653 26.47073,59.4607 26.0474,59.42895 v 2.1272 q 0.6985,0.20108 1.1642,0.43392 0.46566,0.22225 0.6985,0.56091 0.24342,0.32808 0.24342,0.85725 0,0.74083 -0.55033,1.2065 -0.55033,0.45508 -1.5557,0.56092 v 1.1747 h -0.67733 z m 0,-5.7679 q -0.5715,0.04233 -0.84666,0.26458 -0.26458,0.22225 -0.26458,0.5715 0,0.42333 0.23283,0.65616 0.24342,0.22225 0.87841,0.381 z m 0.67733,4.9001 q 0.62442,-0.0635 0.91016,-0.28575 0.28575,-0.23283 0.28575,-0.59266 0,-0.40216 -0.254,-0.60325 -0.254,-0.21167 -0.94191,-0.381 z"
       id="path18"
       style="fill:#1a1a1a" />
  </g>
  <path
     d="m 43.336302,46.304482 q 0.11358,0 0.195305,-0.08172 0.08172,-0.08173 0.08172,-0.195304 0,-0.113559 -0.08172,-0.195284 -0.08172,-0.08172 -0.195305,-0.08172 -0.113579,0 -0.195304,0.08172 -0.08172,0.08173 -0.08172,0.195284 0,0.11358 0.08172,0.195304 0.08173,0.08172 0.195304,0.08172 z M 43.059284,44.91933 h 0.554035 v -1.944698 h -0.554035 z m 1.767359,1.412811 h 2.321394 v -0.554037 h -2.321394 z m 0,-1.412811 h 2.321394 v -0.55405 h -2.321394 z m 0,-1.390662 h 2.321394 v -0.554036 h -2.321394 z m -2.537531,4.116539 q -0.224392,0 -0.389208,-0.164827 -0.164827,-0.164806 -0.164827,-0.389209 v -4.875567 q 0,-0.224395 0.164827,-0.389213 0.164807,-0.164805 0.389208,-0.164805 h 5.629095 q 0.224393,0 0.389208,0.164805 0.164827,0.164807 0.164827,0.389213 v 4.875567 q 0,0.224395 -0.164827,0.389209 -0.164806,0.164827 -0.389208,0.164827 z m 0,-0.554037 h 5.629095 v -4.875568 h -5.629095 z m 0,0 v -4.875568 z"
     stroke-width="0.00831041"
     id="path24"
     style="fill:#800000" />
  <path
     d="m 42.520637,39.365351 1.224242,-3.424582 2.213128,2.196007 z m 0.714889,-0.714889 1.947646,-0.693455 -1.258595,-1.262816 z m 2.401456,-1.656593 -0.235442,-0.235442 1.506731,-1.506734 q 0.20547,-0.20547 0.511552,-0.207621 0.306075,-0.002 0.511545,0.203342 l 0.124141,0.124143 -0.235441,0.235431 -0.132701,-0.132702 q -0.111305,-0.111303 -0.26326,-0.113432 -0.151969,-0.002 -0.267548,0.113432 z m -1.023062,-1.005943 -0.235442,-0.235431 0.179793,-0.179794 q 0.128443,-0.128442 0.121994,-0.297509 -0.0065,-0.169086 -0.121994,-0.284671 l -0.175493,-0.175515 0.235434,-0.235434 0.166956,0.166956 q 0.218313,0.218321 0.216177,0.537223 -0.0023,0.318911 -0.220456,0.537224 z m 0.517957,0.500848 -0.235431,-0.235431 0.958881,-0.958882 q 0.111305,-0.111283 0.109154,-0.282524 -0.0023,-0.171237 -0.113434,-0.282526 l -0.398102,-0.398099 0.235435,-0.235444 0.40667,0.406671 q 0.201191,0.20547 0.205471,0.509398 0.0039,0.303925 -0.201191,0.509395 z m 1.018815,1.023062 -0.235432,-0.235442 0.338168,-0.338166 q 0.21832,-0.218324 0.524381,-0.222606 0.306072,-0.0044 0.524394,0.214034 l 0.355288,0.355296 -0.235432,0.235443 -0.359581,-0.359578 q -0.128442,-0.128422 -0.280387,-0.128422 -0.151968,0 -0.280391,0.128422 z"
     stroke-width="0.00642083"
     id="path26"
     style="fill:#008000" />
  <polygon
     id="polygon440-9"
     style="font-style:normal;font-variant:normal;font-weight:normal;font-stretch:normal;letter-spacing:normal;word-spacing:normal;text-anchor:start;fill:#000000;fill-opacity:1;stroke:#000000;stroke-width:0;stroke-linecap:butt;stroke-linejoin:miter;stroke-miterlimit:10.433;stroke-dasharray:none;stroke-dashoffset:0;stroke-opacity:1"
     points="307.75,730.91 307.84,730.85 307.91,730.8 308,730.71 308.07,730.6 308.16,730.46 308.23,730.3 308.3,730.1 308.38,729.85 308.43,729.59 308.32,729.59 308.05,729.6 307.84,729.64 307.57,729.69 307.29,729.78 306.93,729.87 306.54,730.02 306.11,730.19 305.62,730.41 305.13,730.66 304.57,730.98 303.96,731.34 303.34,731.76 302.66,732.24 302.59,732.3 302.54,732.35 302.5,732.42 302.48,732.48 302.48,732.58 302.52,732.64 302.55,732.71 302.62,732.78 302.71,732.87 302.82,732.96 304.07,734.2 304.25,734.28 304.41,734.31 304.52,734.33 304.59,734.33 304.68,734.31 304.75,734.29 304.79,734.24 304.84,734.17 304.84,734.06 304.82,733.92 304.77,733.76 304.66,733.56 304.59,733.49 304.54,733.42 304.48,733.33 304.45,733.21 304.43,733.15 304.45,733.1 304.47,733.03 304.5,732.98 304.54,732.9 304.61,732.85 304.88,732.62 305.18,732.37 305.55,732.08 306,731.76 306.48,731.46 306.71,731.3 306.96,731.17 307.22,731.05 307.45,730.94 307.48,730.96 307.55,730.96 307.68,730.93 "
     transform="matrix(0.82881878,0,0,-0.82881878,-172.60636,634.76128)" />
  <path
     d="m 66.357234,55.931406 -0.626568,-0.640012 1.481302,-1.499256 h -4.667777 v -0.912987 h 4.667777 l -1.481302,-1.494826 0.626568,-0.635499 2.577818,2.586794 z"
     stroke-width="0.531484"
     id="path110-5"
     style="fill:#000000" />
  <polygon
     id="polygon442-3"
     style="font-style:normal;font-variant:normal;font-weight:normal;font-stretch:normal;letter-spacing:normal;word-spacing:normal;text-anchor:start;fill:#000000;fill-opacity:1;stroke:#000000;stroke-width:0;stroke-linecap:butt;stroke-linejoin:miter;stroke-miterlimit:10.433;stroke-dasharray:none;stroke-dashoffset:0;stroke-opacity:1"
     points="301.43,731.21 301.75,731.6 302.11,731.98 302.27,731.85 302.68,731.51 302.96,731.28 303.32,731.03 303.71,730.77 304.14,730.5 304.62,730.21 305.14,729.94 305.68,729.69 305.96,729.59 306.25,729.48 306.54,729.37 306.84,729.28 307.13,729.21 307.43,729.16 307.73,729.1 308.04,729.07 308.34,729.05 308.64,729.03 309.09,728.39 308.84,728.48 308.59,728.57 308.29,728.62 308.13,728.64 307.96,728.66 307.8,728.66 307.66,728.64 307.52,728.6 307.38,728.53 307.27,728.45 307.18,728.34 307.09,728.3 307.04,728.25 306.96,728.16 306.89,728.02 306.88,727.95 306.86,727.85 306.84,727.75 306.86,727.62 306.88,727.5 306.91,727.35 306.14,727.57 305.34,727.8 304.36,728.12 303.27,728.5 302.2,728.89 301.68,729.1 301.2,729.32 300.75,729.53 300.38,729.75 300.5,729.96 300.88,730.5 301.13,730.84 "
     transform="matrix(0.82881878,0,0,-0.82881878,-172.60636,634.76128)" />
  <path
     d="m 86.023997,63.599829 h 3.61225 v -1.032082 h 3.208163 q 0.355029,0 0.607545,0.252461 0.252521,0.252484 0.252521,0.607531 v 2.064173 q 0,0.354882 -0.252521,0.607532 -0.25252,0.252448 -0.607545,0.252448 h -3.208163 v -1.032116 h -3.61225 z m 8.377183,0.860761 q 0,-0.400211 0.285279,-0.68635 0.285299,-0.285853 0.685675,-0.285853 0.400352,0 0.686359,0.285272 0.285961,0.28532 0.285961,0.685675 0,0.4002 -0.285279,0.68641 -0.285301,0.285806 -0.685677,0.285806 -0.400351,0 -0.686358,-0.285249 -0.28596,-0.285261 -0.28596,-0.685663 z"
     stroke-width="0.0129011"
     id="path6-2-9-7" />
  <polygon
     id="polygon444-6"
     style="font-style:normal;font-variant:normal;font-weight:normal;font-stretch:normal;letter-spacing:normal;word-spacing:normal;text-anchor:start;fill:#000000;fill-opacity:1;stroke:#000000;stroke-width:0;stroke-linecap:butt;stroke-linejoin:miter;stroke-miterlimit:10.433;stroke-dasharray:none;stroke-dashoffset:0;stroke-opacity:1"
     points="296.75,723.28 296.68,723.26 296.62,723.24 296.59,723.22 296.55,723.17 296.52,723.11 296.48,723.04 296.47,722.94 296.45,722.83 296.45,722.65 296.43,722.56 296.41,722.49 296.38,722.44 296.34,722.36 296.27,722.3 296.18,722.22 296.05,722.17 295.91,722.12 295.73,722.06 295.52,722.03 295.27,722.01 294.98,722.01 294.66,722.03 295.64,723.61 295.7,723.74 295.75,723.86 295.77,723.93 295.77,724.01 295.75,724.08 295.71,724.13 295.68,724.18 295.61,724.22 295.52,724.25 295.38,724.25 295.23,724.24 295.04,724.2 295.73,725.61 295.71,725.72 295.71,725.81 295.73,725.95 295.77,726.11 295.86,726.29 295.91,726.38 295.98,726.47 296.07,726.55 296.18,726.65 296.23,726.65 296.32,726.68 296.47,726.75 296.68,726.9 296.93,727.11 297.27,727.45 297.7,727.9 297.82,727.84 297.96,727.8 298.16,727.77 298.27,727.77 298.48,727.8 298.61,727.85 298.71,727.93 298.84,728.02 298.95,728.12 299.05,728.28 299.18,728.47 299.32,728.64 299.48,728.84 299.66,729.03 299.84,729.2 299.93,729.27 300.02,729.3 300.09,729.32 300.14,729.32 300.25,729.25 300.55,729.09 301.05,728.82 301.39,728.66 301.77,728.5 302.21,728.32 302.71,728.12 303.25,727.93 303.86,727.73 304.5,727.53 305.22,727.34 305.98,727.16 306.79,726.97 306.8,726.9 306.84,726.63 306.91,726.2 306.96,725.93 307.09,725.56 307.07,725.48 307.05,725.41 307.04,725.38 306.98,725.34 306.95,725.32 306.88,725.29 306.8,725.29 306.71,725.27 306.59,725.27 306.47,725.29 300.59,725.73 300.43,725.5 300.25,725.29 300,725.04 299.86,724.91 299.71,724.79 299.55,724.66 299.39,724.58 299.22,724.5 299.05,724.45 298.86,724.41 298.68,724.41 298.61,724.47 298.52,724.49 298.43,724.5 298.38,724.49 298.32,724.47 298.27,724.45 298.22,724.4 298.18,724.33 298.14,724.25 298.11,724.17 298.09,724.04 298.02,723.95 297.93,723.86 297.8,723.76 297.64,723.63 297.45,723.49 297.18,723.36 296.88,723.22 296.82,723.26 "
     transform="matrix(0.82881878,0,0,-0.82881878,-172.60636,634.76128)" />
  <polygon
     id="polygon446-0"
     style="font-style:normal;font-variant:normal;font-weight:normal;font-stretch:normal;letter-spacing:normal;word-spacing:normal;text-anchor:start;fill:#000000;fill-opacity:1;stroke:#000000;stroke-width:0;stroke-linecap:butt;stroke-linejoin:miter;stroke-miterlimit:10.433;stroke-dasharray:none;stroke-dashoffset:0;stroke-opacity:1"
     points="311.82,725.02 311.79,725.48 311.75,726.04 311.75,726.59 311.77,726.88 311.79,727.13 311.82,727.35 311.88,727.57 311.93,727.73 311.98,727.8 312.02,727.85 312.04,727.91 312.07,728.05 312.13,728.12 312.18,728.22 312.25,728.3 312.32,728.38 312.45,728.43 312.57,728.47 312.73,728.47 312.91,728.45 313.14,728.38 313.38,728.25 313.66,728.07 313.98,727.85 314.05,727.8 314.2,727.68 314.45,727.48 314.75,727.18 314.91,727 315.07,726.8 315.23,726.57 315.41,726.32 315.57,726.07 315.71,725.77 315.86,725.47 316,725.13 316.02,725.04 316.05,724.95 316.11,724.82 316.18,724.7 316.27,724.58 316.39,724.47 316.54,724.36 316.59,724.33 316.71,724.22 316.82,724.15 316.93,724.09 317.07,724.04 317.25,723.99 316.73,723.81 316.14,723.61 315.43,723.4 314.62,723.17 313.79,722.95 313.36,722.86 312.95,722.79 312.55,722.72 312.18,722.69 306.47,723.28 306.57,723.83 306.64,723.86 306.77,723.99 306.88,724.08 306.96,724.18 307.09,724.31 307.18,724.45 307.29,724.61 307.36,724.81 307.43,725 307.48,725.22 307.48,725.72 307.43,725.98 307.34,726.27 307.32,726.36 307.29,726.57 307.25,726.88 307.25,727.23 307.29,727.41 307.32,727.57 307.39,727.72 307.48,727.85 307.54,727.91 307.59,727.97 307.66,728 307.73,728.03 307.84,728.05 307.93,728.07 308.04,728.07 308.16,728.05 308.2,728.09 308.29,728.12 308.43,728.16 308.64,728.16 308.75,728.15 308.88,728.1 309.02,728.05 309.16,727.98 309.32,727.88 309.48,727.73 309.66,727.55 309.84,727.35 310.02,727.11 310.2,726.82 310.43,726.45 310.68,726 310.93,725.52 311.16,725 311.38,724.47 311.41,724.33 311.47,724.2 311.54,724.08 311.57,724.04 311.61,724.02 311.64,724.02 311.7,724.06 311.73,724.13 311.77,724.24 311.82,724.38 311.86,724.59 "
     transform="matrix(0.82881878,0,0,-0.82881878,-172.60636,634.76128)" />
  <path
     d="m 88.762979,48.225841 q -0.638873,0 -1.094919,-0.454932 -0.456089,-0.45499 -0.456089,-1.093847 0,-0.638902 0.454962,-1.094983 0.454985,-0.45602 1.093864,-0.45602 0.638871,0 1.094964,0.454933 0.456045,0.454973 0.456045,1.093854 0,0.638883 -0.454962,1.094926 -0.454938,0.456069 -1.093817,0.456069 z m -1.098374,13.263334 v -6.803046 q 0,-0.685778 -0.346329,-1.234444 -0.346283,-0.548639 -0.963501,-0.822947 l 0.802399,-2.352318 q 0.164622,-0.514339 0.606911,-0.822973 0.442335,-0.308605 0.997839,-0.308605 0.555528,0 0.997835,0.308605 0.442403,0.308604 0.606984,0.822973 l 2.09854,6.137761 h -2.194565 v 5.075065 z M 84.167102,52.84815 q -0.514373,0 -0.874369,-0.360037 -0.360063,-0.360066 -0.360063,-0.874434 0,-0.514343 0.360063,-0.874381 0.359996,-0.360036 0.874369,-0.360036 0.514345,0 0.874384,0.360036 0.360046,0.360038 0.360046,0.874381 0,0.514368 -0.360046,0.874434 -0.360039,0.360037 -0.874384,0.360037 z m -5.691086,-4.622309 q -0.638875,0 -1.094916,-0.454932 -0.456072,-0.45499 -0.456072,-1.093847 0,-0.638902 0.454941,-1.094983 0.454959,-0.45602 1.09386,-0.45602 0.638921,0 1.094968,0.454933 0.456042,0.454973 0.456042,1.093854 0,0.638883 -0.454937,1.094926 -0.454987,0.456069 -1.093864,0.456069 z M 76.966187,61.489175 V 55.59127 h -1.37159 v -5.075036 q 0,-0.565776 0.402868,-0.968694 0.402895,-0.402891 0.968674,-0.402891 h 3.017543 q 0.565781,0 0.968696,0.402891 0.402943,0.40289 0.402943,0.968694 v 5.075036 h -1.371639 v 5.897905 z m 6.034875,0 v -3.429012 h -0.960137 v -3.374034 q 0,-0.422933 0.296048,-0.718969 0.29605,-0.296008 0.718934,-0.296008 h 2.222011 q 0.422883,0 0.718955,0.296008 0.296025,0.296062 0.296025,0.718969 v 3.374034 h -0.960135 v 3.429012 z"
     stroke-width="0.0205741"
     id="path4-5-61" />
  <path
     d="m 79.467356,44.162437 q -0.413426,0 -0.708537,-0.294403 -0.295142,-0.294419 -0.295142,-0.707844 0,-0.41343 0.29441,-0.70857 0.29443,-0.295094 0.707858,-0.295094 0.41342,0 0.708565,0.294394 0.295114,0.294417 0.295114,0.70785 0,0.413421 -0.29441,0.708542 -0.294402,0.295125 -0.707825,0.295125 z m -0.710775,8.582893 v -4.402344 q 0,-0.443778 -0.224112,-0.798834 -0.22409,-0.355026 -0.623495,-0.532538 l 0.519243,-1.52221 q 0.106504,-0.332843 0.392744,-0.532566 0.286242,-0.199709 0.645715,-0.199709 0.359489,0 0.645711,0.199709 0.286288,0.199708 0.392792,0.532566 l 1.357994,3.971814 h -1.420132 v 3.284139 z m -2.263284,-5.591739 q -0.332857,0 -0.565813,-0.23298 -0.233004,-0.23298 -0.233004,-0.565844 0,-0.332841 0.233004,-0.565827 0.232956,-0.23298 0.565813,-0.23298 0.332841,0 0.565829,0.23298 0.232981,0.232981 0.232981,0.565827 0,0.332851 -0.232981,0.565844 -0.232981,0.23298 -0.565829,0.23298 z m -3.682782,-2.991154 q -0.413423,0 -0.708535,-0.294403 -0.29513,-0.294419 -0.29513,-0.707844 0,-0.41343 0.294398,-0.70857 0.294412,-0.295094 0.707853,-0.295094 0.413455,0 0.708569,0.294394 0.295113,0.294417 0.295113,0.70785 0,0.413421 -0.294401,0.708542 -0.294426,0.295125 -0.707851,0.295125 z m -0.977031,8.582893 v -3.816611 h -0.887575 v -3.284143 q 0,-0.366106 0.260714,-0.626849 0.260713,-0.260715 0.62684,-0.260715 h 1.952697 q 0.366121,0 0.626856,0.260715 0.260739,0.260714 0.260739,0.626849 v 3.284143 H 73.78615 v 3.816611 z m 3.905252,0 v -2.218973 h -0.621318 v -2.183371 q 0,-0.273783 0.191565,-0.46526 0.191589,-0.191566 0.465234,-0.191566 h 1.437897 q 0.273641,0 0.465248,0.191566 0.191565,0.191565 0.191565,0.46526 v 2.183371 h -0.621322 v 2.218973 z"
     stroke-width="0.0133138"
     id="path4-5-61-3-6" />
  <path
     d="m 99.47255,44.378287 q -0.41342,0 -0.70854,-0.294403 -0.29514,-0.294422 -0.29514,-0.707844 0,-0.413433 0.29442,-0.708569 0.29442,-0.295095 0.70785,-0.295095 0.41342,0 0.70856,0.294393 0.29512,0.294414 0.29512,0.707849 0,0.413423 -0.29441,0.708542 -0.2944,0.295127 -0.70783,0.295127 z m -0.71077,8.582883 v -4.402344 q 0,-0.443777 -0.22412,-0.798806 -0.22408,-0.355045 -0.62349,-0.53256 l 0.51924,-1.522207 q 0.10652,-0.332847 0.39275,-0.532566 0.28624,-0.199708 0.64571,-0.199708 0.35949,0 0.64571,0.199708 0.28629,0.199707 0.39279,0.532566 l 1.358,3.971833 h -1.42013 v 3.28414 z m -2.263291,-5.59173 q -0.332854,0 -0.565813,-0.232979 -0.233006,-0.232981 -0.233006,-0.565847 0,-0.33284 0.233006,-0.565824 0.232957,-0.232983 0.565813,-0.232983 0.332842,0 0.565827,0.232983 0.23298,0.23298 0.23298,0.565824 0,0.332857 -0.23298,0.565847 -0.23298,0.232979 -0.565827,0.232979 z m -3.68278,-2.991153 q -0.413426,0 -0.708537,-0.294403 -0.295128,-0.294422 -0.295128,-0.707844 0,-0.413433 0.294395,-0.708569 0.294414,-0.295095 0.707854,-0.295095 0.413455,0 0.708568,0.294393 0.295114,0.294414 0.295114,0.707849 0,0.413423 -0.294399,0.708542 -0.294427,0.295127 -0.70785,0.295127 z m -0.977033,8.582883 v -3.816609 h -0.887574 v -3.284136 q 0,-0.366106 0.260713,-0.626849 0.260714,-0.260712 0.626842,-0.260712 h 1.952695 q 0.366124,0 0.626856,0.260712 0.260741,0.260712 0.260741,0.626849 v 3.284136 h -0.887604 v 3.816609 z m 3.905255,0 v -2.218973 h -0.62132 v -2.183371 q 0,-0.273781 0.191564,-0.465259 0.191589,-0.191564 0.465231,-0.191564 h 1.4379 q 0.273644,0 0.465244,0.191564 0.19157,0.191566 0.19157,0.465259 v 2.183371 h -0.621324 v 2.218973 z"
     stroke-width="0.0133138"
     id="path4-5-61-3" />
  <path
     id="polygon428-6-6"
     style="font-style:normal;font-variant:normal;font-weight:normal;font-stretch:normal;letter-spacing:normal;word-spacing:normal;text-anchor:start;fill:#782121;fill-opacity:1;stroke:#000000;stroke-width:0;stroke-linecap:butt;stroke-linejoin:miter;stroke-miterlimit:10.433;stroke-dasharray:none;stroke-dashoffset:0;stroke-opacity:1"
     d="m 90.592395,38.25154 -0.05795,0.03315 -0.07461,0.04144 -0.05797,0.02486 -0.0498,0.0663 -0.07461,0.09948 -0.05797,0.107743 -0.01667,0.09948 -0.008,0.149183 v 25.331781 l -0.978002,0.32323 -0.01667,-25.422939 v -0.09948 l -0.01667,-0.107743 -0.02482,-0.132606 -0.03315,-0.05801 -0.02481,-0.05803 -0.0498,-0.05802 -0.05795,-0.04146 -0.05797,-0.04973 -0.09127,-0.02485 -0.08279,-0.03315 h -0.215801 l -0.06628,0.01667 -0.07461,0.02486 -0.05795,0.03314 -0.06628,0.04144 -0.05795,0.04973 -0.07461,0.09948 -0.05795,0.107742 -0.02481,0.116031 -0.03315,0.09117 v 0.05801 l 0.01667,25.837334 -0.961447,0.281789 -0.01667,-26.04453 v -0.107742 l -0.01667,-0.09948 -0.04146,-0.11603 -0.03315,-0.0663 -0.02482,-0.05801 -0.0498,-0.05803 -0.05795,-0.04143 -0.07462,-0.05801 -0.08277,-0.03315 -0.09129,-0.01667 -0.124416,-0.01667 -0.09943,0.01667 -0.07461,0.01667 -0.09127,0.03315 -0.05797,0.04146 -0.05797,0.04143 -0.04146,0.05803 -0.07461,0.124318 -0.0498,0.11603 -0.02481,0.107743 -0.01667,0.11603 0.03315,26.293171 H 84.790802 V 39.047207 l -0.01667,-0.09945 -0.04146,-0.116029 -0.07461,-0.12432 -0.04146,-0.04143 -0.0498,-0.05803 -0.07461,-0.04973 -0.07461,-0.02486 -0.08277,-0.01667 -0.107766,-0.01667 -0.09943,0.01667 -0.09127,0.01667 -0.09127,0.02486 -0.05795,0.04973 -0.05795,0.04146 -0.04146,0.04144 -0.0498,0.0663 -0.02482,0.05803 -0.0498,0.11603 -0.02481,0.107743 v 0.124319 l 0.008,26.152308 -1.118907,-0.397853 V 39.022342 l -0.03315,-0.107743 -0.02482,-0.132606 -0.07461,-0.11603 -0.0498,-0.04144 -0.05797,-0.0663 -0.07461,-0.02486 -0.05795,-0.03315 -0.09943,-0.02486 h -0.198911 l -0.07461,0.0083 -0.06628,0.03315 -0.06628,0.03315 -0.05795,0.04146 -0.04146,0.03315 -0.07461,0.09945 -0.05795,0.11603 -0.03315,0.107742 -0.008,0.09945 -0.01667,0.07459 v 25.439571 l -1.0526,-0.323231 -0.01667,-25.28205 -0.01667,-0.09948 -0.008,-0.09117 -0.0498,-0.132607 -0.05797,-0.116031 -0.04146,-0.04144 -0.05797,-0.05802 -0.06628,-0.03315 -0.07461,-0.04144 -0.07461,-0.01667 -0.08277,-0.01667 -0.165782,0.01667 -0.116078,0.04144 -0.107766,0.05802 -0.08277,0.09117 -0.07461,0.09117 -0.05797,0.116031 -0.03315,0.116029 v 24.875894 l -1.077466,-0.663092 -0.03315,-25.04996 -0.39783,-1.889708 1.491885,-1.848263 2.295821,0.265221 8.362778,-0.165758 1.939432,-0.149182 1.342701,1.897993 -0.530455,1.889708 -0.01667,25.083105 -1.118905,0.621614 -0.01667,-24.834461 -0.01667,-0.107742 -0.01667,-0.09948 -0.04146,-0.116031 -0.05795,-0.132606 -0.0498,-0.04973 -0.05795,-0.05803 -0.05795,-0.02486 -0.09129,-0.04973 h -0.08277 l -0.107766,-0.01667 -0.09127,0.01667 z"
     sodipodi:nodetypes="ccccccccccccccccccccccccccccccccccccccccccccccccccccccccccccccccccccccccccccccccccccccccccccccccccccccccccccccccccccccccccccccccccccccccccccccccccc" />
  <polygon
     id="polygon430-9"
     style="font-style:normal;font-variant:normal;font-weight:normal;font-stretch:normal;letter-spacing:normal;word-spacing:normal;text-anchor:start;fill:#000000;fill-opacity:1;stroke:#000000;stroke-width:0;stroke-linecap:butt;stroke-linejoin:miter;stroke-miterlimit:10.433;stroke-dasharray:none;stroke-dashoffset:0;stroke-opacity:1"
     points="311.11,733.31 311.04,733.22 310.95,733.19 310.73,733.12 310.61,733.08 310.47,733.06 310.34,733.08 310.29,733.1 310.23,733.12 309.79,733.46 309.93,733.62 310.04,733.78 310.16,733.97 310.27,734.19 310.3,734.29 310.32,734.38 310.32,734.47 310.3,734.54 310.25,734.6 310.18,734.65 310.13,734.7 310.05,734.77 309.98,734.85 309.88,734.92 309.75,734.97 309.61,734.99 309.54,734.99 309.47,734.97 309.25,734.99 309.05,735.01 308.86,735.01 308.32,734.7 308.3,734.74 308.25,734.88 308.23,735.1 308.23,735.33 308.27,735.47 308.32,735.6 308.39,735.72 308.5,735.84 308.64,735.97 308.82,736.06 309.04,736.15 309.3,736.22 309.73,736.22 309.75,736.33 309.79,736.43 309.84,736.58 309.88,736.63 309.93,736.7 310,736.75 310.07,736.81 310.18,736.86 310.29,736.9 310.41,736.91 310.55,736.93 312.18,736.93 312.3,736.9 312.43,736.84 312.57,736.75 312.62,736.7 312.7,736.63 312.77,736.54 312.82,736.45 312.88,736.33 312.91,736.2 312.95,736.06 312.95,733.51 312.93,733.46 312.89,733.31 312.8,733.15 312.75,733.08 312.68,733.01 312.62,732.96 312.57,732.92 312.48,732.89 312.38,732.87 312.32,732.89 312.25,732.9 312.2,732.94 312.13,732.98 312.05,733.05 311.96,733.12 311.86,733.21 311.77,733.28 311.62,733.35 311.48,733.4 311.41,733.42 311.32,733.42 311.25,733.4 311.18,733.37 "
     transform="matrix(0.82881878,0,0,-0.82881878,-172.60636,634.76128)" />
  <polygon
     id="polygon432-1"
     style="font-style:normal;font-variant:normal;font-weight:normal;font-stretch:normal;letter-spacing:normal;word-spacing:normal;text-anchor:start;fill:#000000;fill-opacity:1;stroke:#000000;stroke-width:0;stroke-linecap:butt;stroke-linejoin:miter;stroke-miterlimit:10.433;stroke-dasharray:none;stroke-dashoffset:0;stroke-opacity:1"
     points="314.27,733.05 314.45,733.03 314.55,733.05 314.62,733.06 314.71,733.1 314.79,733.14 314.84,733.21 314.88,733.3 314.88,733.4 314.86,733.53 314.79,733.69 314.7,733.88 314.62,733.94 314.48,734.06 314.41,734.17 314.32,734.28 314.25,734.38 314.21,734.51 314.2,734.65 314.2,734.77 314.23,734.85 314.27,734.92 314.3,734.99 314.38,735.06 314.45,735.11 314.54,735.19 314.64,735.24 314.75,735.31 315.07,735.41 315.45,735.51 315.48,735.54 315.54,735.58 315.59,735.63 315.68,735.68 315.8,735.74 315.96,735.77 316.14,735.81 316.36,735.83 316.62,735.81 316.95,735.77 317.29,735.72 317.7,735.63 318.14,735.49 318.64,735.31 319.21,735.08 319.25,735.06 319.39,735.02 319.66,734.9 319.84,734.79 320.04,734.65 320.29,734.47 320.57,734.24 320.89,733.97 321.25,733.63 321.66,733.24 322.09,732.78 322.59,732.26 323.12,731.66 327.05,726.32 327.14,726.16 327.23,726 327.29,725.84 327.3,725.79 327.29,725.73 327.27,725.7 327.21,725.68 327.12,725.7 327.02,725.75 326.86,725.82 326.66,725.93 326.36,726.25 326.05,726.5 325.91,726.63 325.77,726.72 325.64,726.79 325.55,726.82 325.52,726.82 325.5,726.8 325.48,726.77 325.48,726.72 325.5,726.57 325.61,726.34 325.77,726.04 326.02,725.61 326.2,725.38 326.36,725.11 326.55,724.76 326.66,724.58 326.75,724.38 326.82,724.17 326.89,723.97 326.93,723.76 326.96,723.56 326.96,723.36 326.95,723.17 326.91,723.03 326.86,722.88 326.8,722.76 326.77,722.72 326.73,722.69 326.68,722.69 326.62,722.72 326.55,722.78 326.5,722.85 326.41,722.99 326.34,723.17 326.16,723.42 326,723.63 325.82,723.86 325.73,723.95 325.64,724.01 325.59,724.06 325.54,724.08 325.52,724.06 325.5,724.02 325.5,723.95 325.52,723.81 325.57,723.61 325.55,723.49 325.52,723.38 325.45,723.29 325.41,723.26 325.38,723.24 325.32,723.24 325.25,723.26 325.18,723.31 325.11,723.4 325.02,723.51 324.93,723.67 318.07,734.42 318.05,734.47 318.04,734.56 317.96,734.7 317.91,734.77 317.84,734.85 317.75,734.9 317.64,734.97 317.52,735.01 317.38,735.04 317.2,735.06 317,735.06 316.79,735.02 316.54,734.97 316.5,734.95 316.45,734.93 316.39,734.88 316.32,734.81 316.27,734.72 316.21,734.6 316.16,734.42 316.14,734.33 316.09,734.08 315.95,733.69 315.86,733.46 315.73,733.19 315.59,732.9 315.39,732.62 315.2,732.3 314.95,731.99 314.66,731.67 314.32,731.35 313.96,731.03 313.54,730.73 313.45,730.69 313.36,730.64 313.32,730.59 313.27,730.53 313.25,730.46 313.21,730.39 313.21,730.19 313.25,730.09 313.3,729.96 313.39,729.8 313.48,729.64 313.54,729.55 313.59,729.45 313.68,729.34 313.8,729.2 313.98,729.03 314.2,728.89 314.32,728.84 314.47,728.77 314.48,728.78 314.54,728.82 314.61,728.84 314.7,728.84 314.75,728.8 314.82,728.77 314.89,728.7 314.95,728.6 315.04,728.5 315.11,728.35 315.2,728.18 315.29,727.95 315.39,727.8 315.5,727.66 315.57,727.59 315.66,727.53 315.75,727.47 315.86,727.41 315.95,727.4 316.07,727.38 316.2,727.4 316.32,727.45 316.45,727.52 316.59,727.62 319.64,729.75 319.73,729.87 319.82,729.96 319.89,730.02 319.95,730.05 320.02,730.07 320.09,730.07 320.18,730.05 320.27,730 320.36,729.93 320.45,729.82 320.54,729.66 320.62,729.48 322.48,726.48 322.52,726.41 322.54,726.34 322.55,726.25 322.54,726.22 322.52,726.18 322.46,726.13 322.41,726.09 322.32,726.07 322.21,726.04 322.09,726 321.93,726 321.86,726.02 321.64,726.07 321.27,726.11 320.75,726.15 320.07,726.15 319.66,726.13 319.21,726.09 318.73,726.04 318.21,725.95 317.64,725.86 317.04,725.73 316.96,725.7 316.89,725.68 316.8,725.68 316.68,725.73 316.55,725.81 316.47,725.88 316.39,725.98 316.3,726.07 316.21,726.22 316.14,726.34 315.91,726.7 315.55,727.18 315.34,727.45 315.09,727.73 314.82,728 314.55,728.27 314.25,728.52 314.07,728.62 313.91,728.71 313.75,728.8 313.59,728.89 313.41,728.95 313.23,729 313.05,729.03 312.88,729.05 312.7,729.05 312.5,729.03 312.45,729.03 312.3,729.02 312.2,728.98 312.07,728.95 311.96,728.88 311.84,728.8 311.73,728.7 311.62,728.57 311.54,728.41 311.47,728.22 311.41,728 311.38,727.73 311.38,727.43 311.43,727.09 311.32,726.38 309.09,729.59 309.04,729.64 308.91,729.77 308.84,729.87 308.77,729.98 308.7,730.14 308.64,730.3 308.57,730.5 308.55,730.69 308.55,730.93 308.57,731.17 308.64,731.44 308.73,731.73 308.89,732.03 309.09,732.37 309.09,732.4 309.16,732.51 309.25,732.64 309.3,732.71 309.45,732.81 309.54,732.83 309.64,732.85 309.75,732.83 309.86,732.8 310,732.73 310.13,732.62 310.29,732.48 310.38,732.49 310.59,732.53 310.73,732.58 310.88,732.65 311.02,732.74 311.16,732.85 311.2,732.89 311.25,732.9 311.32,732.92 311.41,732.92 311.5,732.89 311.59,732.83 311.7,732.74 311.79,732.67 311.89,732.62 312.04,732.56 312.11,732.55 312.3,732.55 312.41,732.56 312.52,732.58 312.64,732.64 312.77,732.71 312.89,732.8 312.95,732.85 313.04,732.9 313.16,732.98 313.34,733.03 313.54,733.06 313.79,733.08 314.09,733.06 "
     transform="matrix(0.82881878,0,0,-0.82881878,-172.60636,634.76128)" />
  <polygon
     id="polygon434-2"
     style="font-style:normal;font-variant:normal;font-weight:normal;font-stretch:normal;letter-spacing:normal;word-spacing:normal;text-anchor:start;fill:#000000;fill-opacity:1;stroke:#000000;stroke-width:0;stroke-linecap:butt;stroke-linejoin:miter;stroke-miterlimit:10.433;stroke-dasharray:none;stroke-dashoffset:0;stroke-opacity:1"
     points="315.8,732.42 316.04,732.76 316.23,733.12 316.39,733.47 316.47,733.65 316.52,733.85 316.55,734.03 316.59,734.2 316.62,734.24 316.68,734.33 316.77,734.45 316.84,734.51 316.91,734.54 316.98,734.58 317.07,734.6 317.18,734.6 317.29,734.58 317.39,734.52 317.52,734.44 317.66,734.31 317.79,734.15 318.12,733.56 318.18,733.51 318.23,733.44 318.27,733.35 318.3,733.24 318.3,733.1 318.29,733.01 318.27,732.94 318.23,732.83 318.18,732.74 316.47,731.12 315.23,729.96 314.8,729.55 314.57,729.37 314.57,729.35 314.52,729.35 314.45,729.37 314.36,729.43 314.23,729.53 314.07,729.69 313.91,729.94 313.71,730.3 313.82,730.37 314.13,730.64 314.55,731.02 314.8,731.26 315.05,731.51 315.3,731.8 315.55,732.1 "
     transform="matrix(0.82881878,0,0,-0.82881878,-172.60636,634.76128)" />
  <polygon
     id="polygon436-7"
     style="font-style:normal;font-variant:normal;font-weight:normal;font-stretch:normal;letter-spacing:normal;word-spacing:normal;text-anchor:start;fill:#000000;fill-opacity:1;stroke:#000000;stroke-width:0;stroke-linecap:butt;stroke-linejoin:miter;stroke-miterlimit:10.433;stroke-dasharray:none;stroke-dashoffset:0;stroke-opacity:1"
     points="319.59,730.57 319.54,730.52 319.48,730.46 316.7,728.23 316.59,728.16 316.47,728.09 316.32,728.03 316.18,728 316.04,728 315.98,728.02 315.91,728.05 315.88,728.1 315.84,728.18 315.68,728.32 315.55,728.47 315.39,728.66 315.34,728.77 315.29,728.85 315.23,728.96 315.21,729.07 315.21,729.27 315.27,729.34 315.34,729.43 318.45,732.24 318.47,732.35 318.5,732.42 318.55,732.49 318.61,732.51 318.64,732.53 318.68,732.51 318.75,732.48 318.8,732.42 318.88,732.35 318.96,732.24 319.05,732.08 319.54,731.16 319.57,731.09 319.61,731.02 319.64,730.8 319.62,730.69 "
     transform="matrix(0.82881878,0,0,-0.82881878,-172.60636,634.76128)" />
  <polygon
     id="polygon438-0"
     style="font-style:normal;font-variant:normal;font-weight:normal;font-stretch:normal;letter-spacing:normal;word-spacing:normal;text-anchor:start;fill:#000000;fill-opacity:1;stroke:#000000;stroke-width:0;stroke-linecap:butt;stroke-linejoin:miter;stroke-miterlimit:10.433;stroke-dasharray:none;stroke-dashoffset:0;stroke-opacity:1"
     points="305.07,735.13 304.88,735.11 304.64,735.06 304.34,734.97 304.2,734.86 303.8,734.56 303.52,734.35 303.2,734.06 302.86,733.74 302.47,733.39 302.05,732.96 301.62,732.49 301.18,731.99 300.73,731.44 300.3,730.84 300.09,730.52 299.88,730.19 299.66,729.85 299.45,729.5 299.25,729.14 299.05,728.77 298.96,728.62 298.86,728.48 298.79,728.43 298.7,728.35 298.61,728.3 298.52,728.27 298.41,728.25 298.3,728.25 298.2,728.27 298.07,728.32 297.95,728.43 297.8,728.55 297.77,728.48 297.62,728.28 297.39,728.02 297.27,727.88 297.13,727.73 296.96,727.59 296.8,727.48 296.62,727.38 296.47,727.28 296.29,727.25 296.18,727.23 296.09,727.23 296,727.25 295.91,727.27 295.84,727.3 295.73,727.35 296.64,728.41 297.62,729.52 298.8,730.82 300.09,732.19 300.73,732.85 301.34,733.47 301.95,734.06 302.5,734.56 302.75,734.79 302.98,734.99 303.21,735.15 303.43,735.29 303.47,735.33 303.61,735.44 303.86,735.56 304,735.61 304.18,735.68 304.38,735.74 304.61,735.77 304.84,735.81 305.11,735.83 305.41,735.81 305.71,735.77 306.05,735.72 306.41,735.63 306.47,735.6 306.57,735.51 306.64,735.45 306.71,735.38 306.77,735.31 306.84,735.2 306.88,735.1 306.91,734.97 306.91,734.83 306.88,734.68 306.8,734.51 306.71,734.33 306.55,734.15 306.36,733.94 306.3,733.88 306.25,733.81 306.2,733.72 306.18,733.63 306.18,733.58 306.2,733.53 306.23,733.46 306.27,733.4 306.32,733.35 306.41,733.28 306.48,733.17 306.57,733.05 306.7,732.9 306.86,732.76 306.96,732.69 307.09,732.64 307.22,732.6 307.36,732.56 307.5,732.53 307.66,732.53 307.73,732.51 307.93,732.53 308.07,732.55 308.21,732.56 308.38,732.62 308.54,732.69 308.48,732.56 308.38,732.26 308.32,732.06 308.25,731.89 308.23,731.71 308.21,731.55 308.14,731.5 308.05,731.44 307.96,731.41 307.84,731.39 307.77,731.39 307.7,731.41 307.62,731.42 307.55,731.46 307.48,731.53 307.39,731.6 306.5,732.26 305.82,732.76 305.57,732.98 305.43,733.12 305.32,733.17 305.22,733.24 305.18,733.28 305.13,733.33 305.11,733.39 305.09,733.46 305.09,733.53 305.11,733.6 305.16,733.69 305.23,733.78 305.34,733.88 305.48,733.99 305.5,734.06 305.55,734.22 305.57,734.47 305.57,734.6 305.55,734.72 305.5,734.85 305.45,734.93 305.36,735.02 305.3,735.06 305.23,735.1 305.16,735.11 "
     transform="matrix(0.82881878,0,0,-0.82881878,-172.60636,634.76128)" />
  <g
     aria-label="1971"
     transform="matrix(4.8357975,0,0,4.8357975,-245.0673,-530.13624)"
     id="text925"
     style="font-size:2.1166px;line-height:1.25;font-family:'Annie Use Your Telescope';-inkscape-font-specification:'Annie Use Your Telescope';white-space:pre;shape-inside:url(#rect927);fill:#000000;fill-opacity:1">
    <path
       d="m 52.62444,122.95123 h -0.182028 v -1.05618 q 0,-0.091 0.0021,-0.14605 0.0021,-0.055 0.0063,-0.11429 -0.03387,0.0339 -0.06138,0.0572 -0.02752,0.0233 -0.06985,0.0593 l -0.160861,0.13123 -0.09736,-0.12488 0.408504,-0.31749 h 0.154512 z"
       style="font-style:normal;font-variant:normal;font-weight:normal;font-stretch:normal;font-family:'Noto Sans';-inkscape-font-specification:'Noto Sans';fill:#000000;fill-opacity:1"
       id="path955" />
    <path
       d="m 54.184371,122.08554 q 0,0.16298 -0.02963,0.32173 -0.02752,0.15662 -0.103714,0.28574 -0.07408,0.12699 -0.21166,0.20319 -0.135462,0.0762 -0.349239,0.0762 -0.04233,0 -0.09948,-0.006 -0.05503,-0.004 -0.09101,-0.0148 v -0.15874 q 0.08255,0.0275 0.186261,0.0275 0.148162,0 0.243409,-0.0487 0.09736,-0.0487 0.154512,-0.13123 0.05715,-0.0847 0.08255,-0.19472 0.0254,-0.11218 0.02963,-0.23495 h -0.0127 q -0.04657,0.072 -0.135462,0.12488 -0.08678,0.0508 -0.22436,0.0508 -0.194727,0 -0.315373,-0.11853 -0.11853,-0.12065 -0.11853,-0.33866 0,-0.15874 0.05927,-0.27304 0.06138,-0.11429 0.169328,-0.17567 0.107947,-0.0614 0.253992,-0.0614 0.143929,0 0.260342,0.0741 0.116413,0.072 0.184144,0.22012 0.06773,0.14605 0.06773,0.37252 z m -0.512217,-0.5101 q -0.131229,0 -0.215893,0.0868 -0.08255,0.0868 -0.08255,0.26458 0,0.14604 0.06985,0.23071 0.07196,0.0825 0.220127,0.0825 0.101596,0 0.175677,-0.0402 0.07408,-0.0423 0.114297,-0.10583 0.04233,-0.0635 0.04233,-0.13123 0,-0.091 -0.03598,-0.17991 -0.03598,-0.0889 -0.107947,-0.14816 -0.07196,-0.0593 -0.179911,-0.0593 z"
       style="font-style:normal;font-variant:normal;font-weight:normal;font-stretch:normal;font-family:'Noto Sans';-inkscape-font-specification:'Noto Sans';fill:#000000;fill-opacity:1"
       id="path957" />
    <path
       d="m 54.582289,122.95123 0.620164,-1.34192 h -0.814891 v -0.16933 h 1.013851 v 0.14393 l -0.613814,1.36732 z"
       style="font-style:normal;font-variant:normal;font-weight:normal;font-stretch:normal;font-family:'Noto Sans';-inkscape-font-specification:'Noto Sans';fill:#000000;fill-opacity:1"
       id="path959" />
    <path
       d="m 56.256517,122.95123 h -0.182028 v -1.05618 q 0,-0.091 0.0021,-0.14605 0.0021,-0.055 0.0063,-0.11429 -0.03386,0.0339 -0.06138,0.0572 -0.02752,0.0233 -0.06985,0.0593 l -0.160861,0.13123 -0.09736,-0.12488 0.408504,-0.31749 h 0.154512 z"
       style="font-style:normal;font-variant:normal;font-weight:normal;font-stretch:normal;font-family:'Noto Sans';-inkscape-font-specification:'Noto Sans';fill:#000000;fill-opacity:1"
       id="path961" />
  </g>
  <path
     id="polygon428-6-6-3"
     style="font-style:normal;font-variant:normal;font-weight:normal;font-stretch:normal;letter-spacing:normal;word-spacing:normal;text-anchor:start;fill:#782121;fill-opacity:1;stroke:#000000;stroke-width:0;stroke-linecap:butt;stroke-linejoin:miter;stroke-miterlimit:10.433;stroke-dasharray:none;stroke-dashoffset:0;stroke-opacity:1"
     d="m 97.318106,40.734502 -0.058,0.03314 -0.0747,0.04144 -0.058,0.02486 -0.0498,0.0663 -0.0747,0.09948 -0.058,0.107743 -0.0169,0.09948 -0.007,0.149184 v 25.331764 l -0.978003,0.323219 -0.01691,-25.422914 v -0.09948 l -0.01691,-0.107743 -0.02489,-0.132606 -0.03311,-0.05803 -0.02489,-0.05802 -0.04977,-0.05803 -0.05799,-0.04146 -0.05799,-0.04973 -0.09133,-0.02485 -0.08288,-0.03316 h -0.215835 l -0.06621,0.01667 -0.07466,0.02486 -0.05799,0.03314 -0.06621,0.04144 -0.05799,0.04973 -0.07466,0.09948 -0.05799,0.107742 -0.02489,0.11603 -0.03311,0.09117 v 0.05802 l 0.01691,25.83732 -0.961449,0.281787 -0.01691,-26.044515 V 41.53022 l -0.01691,-0.09948 -0.04156,-0.11603 -0.03311,-0.0663 -0.02489,-0.05802 -0.04977,-0.05801 -0.05799,-0.04144 -0.07466,-0.05802 -0.08289,-0.03315 -0.09133,-0.01667 -0.12444,-0.01667 -0.09932,0.01667 -0.07466,0.01667 -0.09133,0.03315 -0.05799,0.04146 -0.05799,0.04144 -0.04156,0.05802 -0.07466,0.124319 -0.04977,0.11603 -0.02489,0.107742 -0.01691,0.11603 0.03306,26.293166 H 91.514796 V 41.530168 l -0.01691,-0.09945 -0.04156,-0.11603 -0.07466,-0.124319 -0.04156,-0.04144 -0.04977,-0.05801 -0.07466,-0.04973 -0.07466,-0.02488 -0.08288,-0.01667 -0.107766,-0.01667 -0.09956,0.01667 -0.09134,0.01667 -0.09134,0.02488 -0.05799,0.04973 -0.05799,0.04146 -0.04156,0.04144 -0.04977,0.0663 -0.02489,0.05802 -0.04977,0.116029 -0.02489,0.107743 v 0.124319 l 0.0072,26.152294 -1.118897,-0.397841 V 41.505302 l -0.03311,-0.107742 -0.0249,-0.132608 -0.07466,-0.11603 -0.04977,-0.04144 -0.05799,-0.0663 -0.07466,-0.02486 -0.05799,-0.03315 -0.09932,-0.02486 h -0.198861 l -0.07466,0.0083 -0.06621,0.03315 -0.06621,0.03316 -0.05799,0.04146 -0.04155,0.03315 -0.07466,0.09945 -0.05799,0.11603 -0.03311,0.107742 -0.0072,0.09946 -0.01691,0.07459 v 25.439543 l -1.052592,-0.323242 -0.01691,-25.282032 -0.01691,-0.09948 -0.0072,-0.09116 -0.04977,-0.132607 -0.05799,-0.11603 -0.04156,-0.04144 -0.05799,-0.05801 -0.06621,-0.03314 -0.07466,-0.04144 -0.07466,-0.01667 -0.08289,-0.01667 -0.165759,0.01667 -0.115982,0.04144 -0.107766,0.05802 -0.08289,0.09117 -0.07466,0.09117 -0.05799,0.11603 -0.0331,0.116029 v 24.875934 l -1.077481,-0.663092 -0.0331,-25.049951 -0.397821,-1.889705 1.49188,-1.848264 2.295831,0.265222 8.362775,-0.16576 1.939433,-0.149183 1.34269,1.897994 -0.53045,1.88971 -0.0169,25.083094 -1.1189,0.621614 -0.0169,-24.83445 -0.0169,-0.107742 -0.0169,-0.09948 -0.0416,-0.11603 -0.058,-0.132606 -0.0498,-0.04973 -0.058,-0.05802 -0.058,-0.02486 -0.0913,-0.04973 h -0.0829 l -0.10777,-0.01667 -0.0913,0.01667 z"
     sodipodi:nodetypes="ccccccccccccccccccccccccccccccccccccccccccccccccccccccccccccccccccccccccccccccccccccccccccccccccccccccccccccccccccccccccccccccccccccccccccccccccccc" />
  <path
     id="polygon428-6-6-6"
     style="font-style:normal;font-variant:normal;font-weight:normal;font-stretch:normal;letter-spacing:normal;word-spacing:normal;text-anchor:start;fill:#782121;fill-opacity:1;stroke:#000000;stroke-width:0;stroke-linecap:butt;stroke-linejoin:miter;stroke-miterlimit:10.433;stroke-dasharray:none;stroke-dashoffset:0;stroke-opacity:1"
     d="m 83.954643,40.744485 -0.05795,0.03315 -0.07461,0.04144 -0.05797,0.02485 -0.0498,0.0663 -0.07461,0.09948 -0.05797,0.107742 -0.01667,0.09948 -0.008,0.149183 v 25.331786 l -0.978001,0.32323 -0.01667,-25.422945 v -0.09948 l -0.01667,-0.107743 -0.02481,-0.132606 -0.03315,-0.05801 -0.02482,-0.05802 -0.0498,-0.05801 -0.05795,-0.04146 -0.05797,-0.04973 -0.09127,-0.02486 -0.08279,-0.03315 h -0.215801 l -0.06628,0.01667 -0.07461,0.02485 -0.05795,0.03316 -0.06628,0.04143 -0.05795,0.04973 -0.07461,0.09948 -0.05795,0.107742 -0.02481,0.11603 -0.03314,0.09117 v 0.05802 l 0.01667,25.837341 -0.961447,0.281787 -0.01667,-26.044534 v -0.107742 l -0.01667,-0.09948 -0.04146,-0.11603 -0.03315,-0.0663 -0.02481,-0.05801 -0.0498,-0.05803 -0.05795,-0.04143 -0.07461,-0.05801 -0.08277,-0.03315 -0.09129,-0.01667 -0.124416,-0.01667 -0.09943,0.01667 -0.07461,0.01667 -0.09127,0.03315 -0.05797,0.04146 -0.05797,0.04143 -0.04146,0.05802 -0.07462,0.124319 -0.0498,0.11603 -0.02482,0.107742 -0.01667,0.11603 0.03315,26.293174 h -1.126887 v -26.40101 l -0.01667,-0.09945 -0.04146,-0.116029 -0.07461,-0.12432 -0.04146,-0.04144 -0.0498,-0.05801 -0.07461,-0.04973 -0.07461,-0.02486 -0.08277,-0.01667 -0.107766,-0.01667 -0.09943,0.01667 -0.09127,0.01667 -0.09127,0.02486 -0.05795,0.04973 -0.05795,0.04146 -0.04146,0.04144 -0.0498,0.0663 -0.02481,0.05801 -0.0498,0.116029 -0.02481,0.107743 v 0.12432 l 0.008,26.152317 -1.118919,-0.397853 V 41.515286 l -0.03315,-0.107742 -0.02481,-0.132607 -0.07461,-0.11603 -0.0498,-0.04144 -0.05797,-0.0663 -0.07461,-0.02486 -0.05795,-0.03315 -0.09943,-0.02486 h -0.198912 l -0.07461,0.0083 -0.06628,0.03315 -0.06628,0.03316 -0.05795,0.04146 -0.04146,0.03315 -0.07461,0.09945 -0.05795,0.116029 -0.03315,0.107743 -0.008,0.09946 -0.01667,0.0746 v 25.439579 l -1.0526,-0.32323 -0.01667,-25.282059 -0.01667,-0.09948 -0.008,-0.09117 -0.0498,-0.132606 -0.05797,-0.116029 -0.04146,-0.04144 -0.05797,-0.05801 -0.06628,-0.03316 -0.07461,-0.04144 -0.07461,-0.01667 -0.08277,-0.01667 -0.165783,0.01667 -0.116077,0.04144 -0.107766,0.05802 -0.08277,0.09117 -0.07461,0.09117 -0.05797,0.11603 -0.03315,0.116029 v 24.875889 l -1.077467,-0.663092 -0.03315,-25.049969 -0.397831,-1.889706 1.491885,-1.848264 2.295823,0.265222 8.362777,-0.16576 1.939432,-0.149184 1.342703,1.897995 -0.530456,1.889708 -0.01667,25.083114 -1.118906,0.621614 -0.01667,-24.834469 -0.01667,-0.107742 -0.01667,-0.09948 -0.04146,-0.116031 -0.05795,-0.132607 -0.0498,-0.04973 -0.05795,-0.05803 -0.05795,-0.02486 -0.09129,-0.04973 h -0.08279 l -0.107766,-0.01667 -0.09127,0.01667 z"
     sodipodi:nodetypes="ccccccccccccccccccccccccccccccccccccccccccccccccccccccccccccccccccccccccccccccccccccccccccccccccccccccccccccccccccccccccccccccccccccccccccccccccccc" />
  <g
     aria-label="$"
     transform="matrix(4.4146627,0,0,4.4146627,-194.63055,-480.89179)"
     id="text2657"
     style="font-size:2.1166px;line-height:1.25;font-family:'Annie Use Your Telescope';-inkscape-font-specification:'Annie Use Your Telescope';white-space:pre;shape-inside:url(#rect2659)">
    <path
       d="m 48.849953,120.5233 q -0.116413,-0.002 -0.226476,-0.0191 -0.110063,-0.019 -0.177795,-0.0508 v -0.17991 q 0.07196,0.0339 0.184145,0.0593 0.112179,0.0254 0.220126,0.0275 v -0.42755 q -0.209543,-0.0572 -0.306907,-0.14393 -0.09736,-0.0868 -0.09736,-0.23706 0,-0.15663 0.107947,-0.24552 0.110063,-0.0889 0.296324,-0.0995 v -0.18627 h 0.135462 v 0.18415 q 0.11218,0.002 0.203194,0.0254 0.09313,0.0212 0.169328,0.0529 l -0.05715,0.15663 q -0.06773,-0.0275 -0.150279,-0.0466 -0.08043,-0.0212 -0.165095,-0.0275 v 0.42544 q 0.139696,0.0402 0.232826,0.0868 0.09313,0.0444 0.139696,0.11218 0.04868,0.0656 0.04868,0.17144 0,0.14816 -0.110063,0.24129 -0.110064,0.091 -0.311141,0.11218 v 0.23495 h -0.135462 z m 0,-1.15355 q -0.114296,0.008 -0.169328,0.0529 -0.05291,0.0444 -0.05291,0.11429 0,0.0847 0.04657,0.13123 0.04868,0.0444 0.175678,0.0762 z m 0.135462,0.97999 q 0.12488,-0.0127 0.182028,-0.0571 0.05715,-0.0466 0.05715,-0.11853 0,-0.0804 -0.0508,-0.12064 -0.0508,-0.0423 -0.188378,-0.0762 z"
       style="font-style:normal;font-variant:normal;font-weight:normal;font-stretch:normal;font-family:'Noto Sans';-inkscape-font-specification:'Noto Sans'"
       id="path996" />
  </g>
  <path
     d="m 33.058131,51.388041 -0.48156,-0.491893 1.138485,-1.152284 h -3.587513 v -0.701693 h 3.587513 l -1.138485,-1.148877 0.48156,-0.488426 1.981233,1.988131 z"
     stroke-width="0.408484"
     id="path110-5-6"
     style="fill:#000000" />
</svg>
